M48
;DRILL file {KiCad 5.0.2-bee76a0~70~ubuntu16.04.1} date Пт 02 авг 2019 00:48:58
;FORMAT={-:-/ absolute / inch / decimal}
FMAT,2
INCH,TZ
T1C0.0157
T2C0.0236
T3C0.0335
T4C0.0394
%
G90
G05
T1
X4.9705Y-3.802
X4.9814Y-4.784
X4.9885Y-4.579
X5.0055Y-3.9754
X5.0105Y-3.8179
X5.0341Y-4.8482
X5.0355Y-3.862
X5.0614Y-4.0561
X5.0647Y-4.8762
X5.078Y-4.0038
X5.0805Y-3.887
X5.109Y-4.277
X5.1748Y-4.295
X5.2173Y-3.837
X5.2205Y-3.9711
X5.2417Y-3.7163
X5.2458Y-4.1577
X5.2868Y-3.722
X5.2868Y-4.152
X5.287Y-4.2766
X5.3055Y-3.937
X5.3183Y-3.5993
X5.3455Y-4.282
X5.3555Y-3.612
X5.4321Y-4.1699
X5.4386Y-4.3951
X5.4515Y-3.7037
X5.4764Y-4.2458
X5.5158Y-4.2468
X5.5305Y-3.412
X5.5305Y-3.487
X5.5397Y-3.9258
X5.54Y-4.748
X5.5455Y-3.9685
X5.549Y-3.229
X5.5505Y-4.0344
X5.5563Y-3.7752
X5.5584Y-3.3842
X5.565Y-4.1113
X5.577Y-4.477
X5.5805Y-3.537
X5.587Y-3.9662
X5.5947Y-4.3267
X5.6005Y-3.772
X5.6005Y-4.0256
X5.6136Y-3.9349
X5.6228Y-3.8967
X5.6235Y-4.3552
X5.6338Y-4.1004
X5.6637Y-4.4188
X5.6741Y-4.2013
X5.6782Y-3.6543
X5.6805Y-4.087
X5.6871Y-4.5961
X5.6896Y-3.3176
X5.6901Y-3.2777
X5.6905Y-4.5557
X5.7118Y-4.1901
X5.7152Y-3.6113
X5.7272Y-4.2605
X5.7272Y-3.77
X5.7382Y-3.6432
X5.7455Y-3.917
X5.7555Y-3.7426
X5.772Y-4.8455
X5.7775Y-3.6435
X5.7864Y-4.287
X5.7905Y-4.237
X5.7978Y-3.9495
X5.7995Y-3.1145
X5.7998Y-4.8177
X5.811Y-3.6202
X5.8114Y-4.6331
X5.8205Y-3.582
X5.8455Y-3.113
X5.8505Y-4.812
X5.8555Y-4.762
X5.8585Y-2.937
X5.8652Y-4.2761
X5.8655Y-3.252
X5.8655Y-4.212
X5.8671Y-3.0156
X5.8762Y-3.6877
X5.8805Y-4.062
X5.8845Y-3.5921
X5.8855Y-3.997
X5.8921Y-3.7486
X5.9012Y-4.102
X5.9038Y-4.2857
X5.9055Y-3.337
X5.9055Y-4.537
X5.9146Y-3.5667
X5.927Y-2.9962
X5.9291Y-4.3165
X5.9298Y-4.2274
X5.9305Y-3.812
X5.9439Y-4.837
X5.9455Y-3.0529
X5.9496Y-4.612
X5.9506Y-3.1175
X5.9506Y-3.1175
X5.9603Y-3.6522
X5.9605Y-4.162
X5.9605Y-4.252
X5.9688Y-4.7592
X5.9814Y-4.2861
X5.9841Y-2.9766
X5.9932Y-3.6738
X6.0055Y-3.912
X6.0055Y-3.9514
X6.0064Y-4.2285
X6.0105Y-3.2561
X6.0113Y-3.0761
X6.012Y-4.7565
X6.0272Y-3.5843
X6.028Y-3.1194
X6.0353Y-3.6292
X6.0637Y-3.1028
X6.0753Y-3.6924
X6.0905Y-3.8035
X6.0918Y-3.6567
X6.096Y-3.6173
X6.1041Y-4.0975
X6.1041Y-4.1368
X6.1098Y-4.1758
X6.1205Y-3.4541
X6.1205Y-4.5557
X6.1212Y-4.5962
X6.1225Y-3.7806
X6.1254Y-3.2773
X6.1261Y-3.3167
X6.132Y-3.4918
X6.1572Y-4.007
X6.1589Y-3.7656
X6.1662Y-4.1163
X6.1786Y-3.9736
X6.1905Y-3.525
X6.1915Y-3.9352
X6.1994Y-4.3355
X6.2001Y-3.712
X6.2189Y-4.0535
X6.2205Y-3.747
X6.2251Y-4.1116
X6.2453Y-4.0168
X6.2536Y-3.4851
X6.2555Y-4.387
X6.2583Y-2.975
X6.2643Y-4.2944
X6.2655Y-4.657
X6.2805Y-3.5626
X6.2919Y-4.232
X6.3045Y-4.6626
X6.3055Y-4.432
X6.3076Y-3.534
X6.308Y-4.927
X6.3205Y-3.662
X6.3465Y-4.457
X6.3679Y-4.2335
X6.377Y-4.1952
X6.3805Y-3.4626
X6.3864Y-4.157
X6.397Y-3.6841
X6.4024Y-3.4406
X6.4027Y-4.6406
X6.4191Y-3.5484
X6.4305Y-4.612
X6.4305Y-4.712
X6.4664Y-4.4265
X6.496Y-4.4965
X6.5055Y-3.937
X6.5222Y-3.545
X6.5249Y-3.7211
X6.5352Y-4.1594
X6.5505Y-4.292
X6.5644Y-3.7156
X6.5705Y-4.4085
X6.5743Y-4.1642
X6.5855Y-3.8979
X6.5966Y-3.595
X6.5968Y-4.0441
X6.5986Y-4.8189
X6.6405Y-4.849
X6.6555Y-4.312
X6.6805Y-2.9519
X6.7065Y-3.134
X6.7132Y-4.4793
X6.7304Y-3.8745
X6.7305Y-3.987
X6.7308Y-3.8352
X6.7566Y-4.6109
X6.7584Y-4.4841
X6.7755Y-3.997
X6.7893Y-4.0454
X6.8055Y-3.887
X6.8168Y-4.0735
X6.8305Y-4.787
T3
X6.6952Y-3.0089
X6.8344Y-3.1481
X4.9766Y-4.7267
X5.1158Y-4.8659
T4
X6.4641Y-4.9706
X6.5348Y-5.0413
X6.6055Y-5.112
X6.9391Y-4.4956
X7.0098Y-4.5663
X7.0805Y-4.637
X6.6055Y-2.912
X6.6762Y-2.8413
X6.9305Y-3.237
X7.0012Y-3.1663
X4.8098Y-4.7077
X4.8805Y-4.637
X5.0141Y-2.9784
X5.0848Y-2.9077
X5.0848Y-3.0491
X5.1555Y-2.837
X5.1555Y-2.9784
X5.2262Y-2.9077
X7.0305Y-3.487
X7.0305Y-3.587
X7.0305Y-3.687
X7.0305Y-3.787
X7.0305Y-3.887
X7.0305Y-3.987
X7.0305Y-4.087
X7.0305Y-4.187
X7.0305Y-4.287
X7.0305Y-4.387
X7.1305Y-3.487
X7.1305Y-3.587
X7.1305Y-3.687
X7.1305Y-3.787
X7.1305Y-3.887
X7.1305Y-3.987
X7.1305Y-4.087
X7.1305Y-4.187
X7.1305Y-4.287
X7.1305Y-4.387
X5.4555Y-5.062
X5.4555Y-5.162
X5.5555Y-5.062
X5.5555Y-5.162
X5.6555Y-5.062
X5.6555Y-5.162
X5.7555Y-5.062
X5.7555Y-5.162
X5.8555Y-5.062
X5.8555Y-5.162
X5.9555Y-5.062
X5.9555Y-5.162
X6.0555Y-5.062
X6.0555Y-5.162
X6.1555Y-5.062
X6.1555Y-5.162
X6.2555Y-5.062
X6.2555Y-5.162
X6.3555Y-5.062
X6.3555Y-5.162
X4.8055Y-3.187
X4.8762Y-3.1163
X4.8762Y-3.2577
X4.9469Y-3.0456
X4.9469Y-3.187
X5.0176Y-3.1163
X4.6805Y-3.487
X4.6805Y-3.587
X4.6805Y-3.687
X4.6805Y-3.787
X4.6805Y-3.887
X4.6805Y-3.987
X4.6805Y-4.087
X4.6805Y-4.187
X4.6805Y-4.287
X4.6805Y-4.387
X4.7805Y-3.487
X4.7805Y-3.587
X4.7805Y-3.687
X4.7805Y-3.787
X4.7805Y-3.887
X4.7805Y-3.987
X4.7805Y-4.087
X4.7805Y-4.187
X4.7805Y-4.287
X4.7805Y-4.387
X5.1348Y-5.0327
X5.2055Y-4.962
X5.4555Y-2.712
X5.4555Y-2.812
X5.5555Y-2.712
X5.5555Y-2.812
X5.6555Y-2.712
X5.6555Y-2.812
X5.7555Y-2.712
X5.7555Y-2.812
X5.8555Y-2.712
X5.8555Y-2.812
X5.9555Y-2.712
X5.9555Y-2.812
X6.0555Y-2.712
X6.0555Y-2.812
X6.1555Y-2.712
X6.1555Y-2.812
X6.2555Y-2.712
X6.2555Y-2.812
X6.3555Y-2.712
X6.3555Y-2.812
T2
X6.7328Y-2.9156G85X6.7523Y-2.8961
G05
X6.9471Y-3.091G85X6.9277Y-3.1105
G05
X4.8639Y-4.7838G85X4.8834Y-4.7643
G05
X5.0782Y-4.9592G85X5.0588Y-4.9786
G05
T0
M30
