G04 #@! TF.GenerationSoftware,KiCad,Pcbnew,5.0.2-bee76a0~70~ubuntu16.04.1*
G04 #@! TF.CreationDate,2019-08-03T19:39:48+03:00*
G04 #@! TF.ProjectId,FreeEEG32-alpha1.5,46726565-4545-4473-9332-2d616c706861,rev?*
G04 #@! TF.SameCoordinates,Original*
G04 #@! TF.FileFunction,Copper,L2,Inr*
G04 #@! TF.FilePolarity,Positive*
%FSLAX46Y46*%
G04 Gerber Fmt 4.6, Leading zero omitted, Abs format (unit mm)*
G04 Created by KiCad (PCBNEW 5.0.2-bee76a0~70~ubuntu16.04.1) date Сб 03 авг 2019 19:39:48*
%MOMM*%
%LPD*%
G01*
G04 APERTURE LIST*
G04 #@! TA.AperFunction,ViaPad*
%ADD10C,1.700000*%
G04 #@! TD*
G04 #@! TA.AperFunction,Conductor*
%ADD11C,1.700000*%
G04 #@! TD*
G04 #@! TA.AperFunction,Conductor*
%ADD12C,0.100000*%
G04 #@! TD*
G04 #@! TA.AperFunction,ViaPad*
%ADD13C,1.200000*%
G04 #@! TD*
G04 #@! TA.AperFunction,Conductor*
%ADD14C,1.200000*%
G04 #@! TD*
G04 #@! TA.AperFunction,ViaPad*
%ADD15C,1.450000*%
G04 #@! TD*
G04 #@! TA.AperFunction,ViaPad*
%ADD16R,1.700000X1.700000*%
G04 #@! TD*
G04 #@! TA.AperFunction,ViaPad*
%ADD17O,1.700000X1.700000*%
G04 #@! TD*
G04 #@! TA.AperFunction,ViaPad*
%ADD18C,0.800000*%
G04 #@! TD*
G04 #@! TA.AperFunction,Conductor*
%ADD19C,0.250000*%
G04 #@! TD*
G04 #@! TA.AperFunction,Conductor*
%ADD20C,0.500000*%
G04 #@! TD*
G04 #@! TA.AperFunction,Conductor*
%ADD21C,0.750000*%
G04 #@! TD*
G04 APERTURE END LIST*
D10*
G04 #@! TO.N,ISO_SPI_2_GND1*
G04 #@! TO.C,J57*
X121751846Y-80732102D03*
D11*
X121751846Y-80732102D02*
X121751846Y-80732102D01*
D10*
G04 #@! TO.N,ISO_SPI_1_VCC1*
X123547898Y-82528153D03*
D11*
X123547898Y-82528153D02*
X123547898Y-82528153D01*
D10*
G04 #@! TO.N,ISO_SPI_4_INB*
X123547898Y-78936051D03*
D11*
X123547898Y-78936051D02*
X123547898Y-78936051D01*
D10*
G04 #@! TO.N,ISO_SPI_3_INA*
X125343949Y-80732102D03*
D11*
X125343949Y-80732102D02*
X125343949Y-80732102D01*
D10*
G04 #@! TO.N,ISO_SPI_6_OUTD*
X125343949Y-77140000D03*
D11*
X125343949Y-77140000D02*
X125343949Y-77140000D01*
D10*
G04 #@! TO.N,ISO_SPI_5_INC*
X127140000Y-78936051D03*
D12*
G36*
X125937918Y-78936051D02*
X127140000Y-77733969D01*
X128342082Y-78936051D01*
X127140000Y-80138133D01*
X125937918Y-78936051D01*
X125937918Y-78936051D01*
G37*
G04 #@! TD*
D10*
G04 #@! TO.N,MCU_25_NRST*
G04 #@! TO.C,J82*
X181641051Y-115983949D03*
D11*
X181641051Y-115983949D02*
X181641051Y-115983949D01*
D10*
G04 #@! TO.N,MCU_48_PB2_BOOT1*
X179845000Y-114187898D03*
D11*
X179845000Y-114187898D02*
X179845000Y-114187898D01*
D10*
G04 #@! TO.N,MCU_105_PA13_SYS_JTMS-SWDIO*
X179845000Y-117780000D03*
D11*
X179845000Y-117780000D02*
X179845000Y-117780000D01*
D10*
G04 #@! TO.N,MCU_109_PA14_SYS_JTCK-SWCLK*
X178048949Y-115983949D03*
D12*
G36*
X179251031Y-115983949D02*
X178048949Y-117186031D01*
X176846867Y-115983949D01*
X178048949Y-114781867D01*
X179251031Y-115983949D01*
X179251031Y-115983949D01*
G37*
G04 #@! TD*
D10*
G04 #@! TO.N,ISO_USB_2_GND1*
G04 #@! TO.C,J63*
X130315000Y-127940000D03*
D11*
X130315000Y-127940000D02*
X130315000Y-127940000D01*
D10*
G04 #@! TO.N,ISO_USB_1_VBUS1*
X132111051Y-126143949D03*
D12*
G36*
X132111051Y-127346031D02*
X130908969Y-126143949D01*
X132111051Y-124941867D01*
X133313133Y-126143949D01*
X132111051Y-127346031D01*
X132111051Y-127346031D01*
G37*
G04 #@! TD*
D10*
G04 #@! TO.N,ISO_USB_6_UD\2013*
G04 #@! TO.C,J64*
X122060000Y-119685000D03*
D11*
X122060000Y-119685000D02*
X122060000Y-119685000D01*
D10*
G04 #@! TO.N,ISO_USB_7_UD+*
X123856051Y-117888949D03*
D12*
G36*
X123856051Y-119091031D02*
X122653969Y-117888949D01*
X123856051Y-116686867D01*
X125058133Y-117888949D01*
X123856051Y-119091031D01*
X123856051Y-119091031D01*
G37*
G04 #@! TD*
D10*
G04 #@! TO.N,POWER_2_VCC*
G04 #@! TO.C,J62*
X176143949Y-82111051D03*
D12*
G36*
X176143949Y-80908969D02*
X177346031Y-82111051D01*
X176143949Y-83313133D01*
X174941867Y-82111051D01*
X176143949Y-80908969D01*
X176143949Y-80908969D01*
G37*
D10*
G04 #@! TO.N,POWER_1_GND*
X177940000Y-80315000D03*
D11*
X177940000Y-80315000D02*
X177940000Y-80315000D01*
G04 #@! TD*
D10*
G04 #@! TO.N,POWER_1_GND*
G04 #@! TO.C,J61*
X169685000Y-72060000D03*
D11*
X169685000Y-72060000D02*
X169685000Y-72060000D01*
D10*
G04 #@! TO.N,POWER_2_VCC*
X167888949Y-73856051D03*
D12*
G36*
X167888949Y-72653969D02*
X169091031Y-73856051D01*
X167888949Y-75058133D01*
X166686867Y-73856051D01*
X167888949Y-72653969D01*
X167888949Y-72653969D01*
G37*
G04 #@! TD*
D10*
G04 #@! TO.N,ISO_UART_6_OUTD*
G04 #@! TO.C,J58*
X127140000Y-75343949D03*
D11*
X127140000Y-75343949D02*
X127140000Y-75343949D01*
D10*
G04 #@! TO.N,ISO_UART_5_OUTC*
X128936052Y-77140000D03*
D11*
X128936052Y-77140000D02*
X128936052Y-77140000D01*
D10*
G04 #@! TO.N,ISO_UART_4_INB*
X128936052Y-73547898D03*
D11*
X128936052Y-73547898D02*
X128936052Y-73547898D01*
D10*
G04 #@! TO.N,ISO_UART_3_INA*
X130732103Y-75343949D03*
D11*
X130732103Y-75343949D02*
X130732103Y-75343949D01*
D10*
G04 #@! TO.N,ISO_UART_2_GND1*
X130732103Y-71751847D03*
D11*
X130732103Y-71751847D02*
X130732103Y-71751847D01*
D10*
G04 #@! TO.N,ISO_UART_1_VCC1*
X132528154Y-73547898D03*
D12*
G36*
X131326072Y-73547898D02*
X132528154Y-72345816D01*
X133730236Y-73547898D01*
X132528154Y-74749980D01*
X131326072Y-73547898D01*
X131326072Y-73547898D01*
G37*
G04 #@! TD*
D13*
G04 #@! TO.N,/USB_DATA/6_Shield*
G04 #@! TO.C,J51*
X123790082Y-121260171D03*
D14*
X123542595Y-121507658D02*
X124037569Y-121012684D01*
D13*
X128739829Y-126209918D03*
D14*
X128987316Y-125962431D02*
X128492342Y-126457405D01*
D15*
X126406377Y-120058089D03*
X129941911Y-123593623D03*
G04 #@! TD*
D13*
G04 #@! TO.N,/USB_POWER/6_Shield*
G04 #@! TO.C,J37*
X171260171Y-73808826D03*
D14*
X171012684Y-74056313D02*
X171507658Y-73561339D01*
D13*
X176209918Y-78758573D03*
D14*
X176457405Y-78511086D02*
X175962431Y-79006060D01*
D15*
X170058089Y-76425121D03*
X173593623Y-79960655D03*
G04 #@! TD*
D16*
G04 #@! TO.N,AINREF-*
G04 #@! TO.C,J53*
X178575000Y-88570000D03*
D17*
G04 #@! TO.N,/ADC1/57_VCM*
X181115000Y-88570000D03*
G04 #@! TO.N,/ADC1/11_AIN3-*
X178575000Y-91110000D03*
G04 #@! TO.N,/ADC1/12_AIN3+*
X181115000Y-91110000D03*
G04 #@! TO.N,/ADC1/9_AIN2-*
X178575000Y-93650000D03*
G04 #@! TO.N,/ADC1/10_AIN2+*
X181115000Y-93650000D03*
G04 #@! TO.N,/ADC1/3_AIN1-*
X178575000Y-96190000D03*
G04 #@! TO.N,/ADC1/4_AIN1+*
X181115000Y-96190000D03*
G04 #@! TO.N,/ADC1/1_AIN0-*
X178575000Y-98730000D03*
G04 #@! TO.N,/ADC1/2_AIN0+*
X181115000Y-98730000D03*
G04 #@! TO.N,/ADC1/48_AIN4-*
X178575000Y-101270000D03*
G04 #@! TO.N,/ADC1/47_AIN4+*
X181115000Y-101270000D03*
G04 #@! TO.N,/ADC1/46_AIN5-*
X178575000Y-103810000D03*
G04 #@! TO.N,/ADC1/45_AIN5+*
X181115000Y-103810000D03*
G04 #@! TO.N,/ADC1/40_AIN6-*
X178575000Y-106350000D03*
G04 #@! TO.N,/ADC1/39_AIN6+*
X181115000Y-106350000D03*
G04 #@! TO.N,/ADC1/38_AIN7-*
X178575000Y-108890000D03*
G04 #@! TO.N,/ADC1/37_AIN7+*
X181115000Y-108890000D03*
G04 #@! TO.N,ACC_6_GND*
X178575000Y-111430000D03*
G04 #@! TO.N,ADC1_43_AVDD1B*
X181115000Y-111430000D03*
G04 #@! TD*
G04 #@! TO.N,ADC1_43_AVDD1B*
G04 #@! TO.C,J54*
X138570000Y-131115000D03*
G04 #@! TO.N,ACC_6_GND*
X138570000Y-128575000D03*
G04 #@! TO.N,/ADC2/37_AIN7+*
X141110000Y-131115000D03*
G04 #@! TO.N,/ADC2/38_AIN7-*
X141110000Y-128575000D03*
G04 #@! TO.N,/ADC2/39_AIN6+*
X143650000Y-131115000D03*
G04 #@! TO.N,/ADC2/40_AIN6-*
X143650000Y-128575000D03*
G04 #@! TO.N,/ADC2/45_AIN5+*
X146190000Y-131115000D03*
G04 #@! TO.N,/ADC2/46_AIN5-*
X146190000Y-128575000D03*
G04 #@! TO.N,/ADC2/47_AIN4+*
X148730000Y-131115000D03*
G04 #@! TO.N,/ADC2/48_AIN4-*
X148730000Y-128575000D03*
G04 #@! TO.N,/ADC2/2_AIN0+*
X151270000Y-131115000D03*
G04 #@! TO.N,/ADC2/1_AIN0-*
X151270000Y-128575000D03*
G04 #@! TO.N,/ADC2/4_AIN1+*
X153810000Y-131115000D03*
G04 #@! TO.N,/ADC2/3_AIN1-*
X153810000Y-128575000D03*
G04 #@! TO.N,/ADC2/10_AIN2+*
X156350000Y-131115000D03*
G04 #@! TO.N,/ADC2/9_AIN2-*
X156350000Y-128575000D03*
G04 #@! TO.N,/ADC2/12_AIN3+*
X158890000Y-131115000D03*
G04 #@! TO.N,/ADC2/11_AIN3-*
X158890000Y-128575000D03*
G04 #@! TO.N,/ADC2/57_VCM*
X161430000Y-131115000D03*
D16*
G04 #@! TO.N,AINREF-*
X161430000Y-128575000D03*
G04 #@! TD*
G04 #@! TO.N,AINREF-*
G04 #@! TO.C,J55*
X121425000Y-111430000D03*
D17*
G04 #@! TO.N,/ADC3/57_VCM*
X118885000Y-111430000D03*
G04 #@! TO.N,/ADC3/11_AIN3-*
X121425000Y-108890000D03*
G04 #@! TO.N,/ADC3/12_AIN3+*
X118885000Y-108890000D03*
G04 #@! TO.N,/ADC3/9_AIN2-*
X121425000Y-106350000D03*
G04 #@! TO.N,/ADC3/10_AIN2+*
X118885000Y-106350000D03*
G04 #@! TO.N,/ADC3/3_AIN1-*
X121425000Y-103810000D03*
G04 #@! TO.N,/ADC3/4_AIN1+*
X118885000Y-103810000D03*
G04 #@! TO.N,/ADC3/1_AIN0-*
X121425000Y-101270000D03*
G04 #@! TO.N,/ADC3/2_AIN0+*
X118885000Y-101270000D03*
G04 #@! TO.N,/ADC3/48_AIN4-*
X121425000Y-98730000D03*
G04 #@! TO.N,/ADC3/47_AIN4+*
X118885000Y-98730000D03*
G04 #@! TO.N,/ADC3/46_AIN5-*
X121425000Y-96190000D03*
G04 #@! TO.N,/ADC3/45_AIN5+*
X118885000Y-96190000D03*
G04 #@! TO.N,/ADC3/40_AIN6-*
X121425000Y-93650000D03*
G04 #@! TO.N,/ADC3/39_AIN6+*
X118885000Y-93650000D03*
G04 #@! TO.N,/ADC3/38_AIN7-*
X121425000Y-91110000D03*
G04 #@! TO.N,/ADC3/37_AIN7+*
X118885000Y-91110000D03*
G04 #@! TO.N,ACC_6_GND*
X121425000Y-88570000D03*
G04 #@! TO.N,ADC1_43_AVDD1B*
X118885000Y-88570000D03*
G04 #@! TD*
G04 #@! TO.N,ADC1_43_AVDD1B*
G04 #@! TO.C,J56*
X161430000Y-68885000D03*
G04 #@! TO.N,ACC_6_GND*
X161430000Y-71425000D03*
G04 #@! TO.N,/ADC4/37_AIN7+*
X158890000Y-68885000D03*
G04 #@! TO.N,/ADC4/38_AIN7-*
X158890000Y-71425000D03*
G04 #@! TO.N,/ADC4/39_AIN6+*
X156350000Y-68885000D03*
G04 #@! TO.N,/ADC4/40_AIN6-*
X156350000Y-71425000D03*
G04 #@! TO.N,/ADC4/45_AIN5+*
X153810000Y-68885000D03*
G04 #@! TO.N,/ADC4/46_AIN5-*
X153810000Y-71425000D03*
G04 #@! TO.N,/ADC4/47_AIN4+*
X151270000Y-68885000D03*
G04 #@! TO.N,/ADC4/48_AIN4-*
X151270000Y-71425000D03*
G04 #@! TO.N,ADC4_AIN0+*
X148730000Y-68885000D03*
G04 #@! TO.N,ADC4_AIN0-*
X148730000Y-71425000D03*
G04 #@! TO.N,ADC4_AIN1+*
X146190000Y-68885000D03*
G04 #@! TO.N,ADC4_AIN1-*
X146190000Y-71425000D03*
G04 #@! TO.N,ADC4_AIN2+*
X143650000Y-68885000D03*
G04 #@! TO.N,ADC4_AIN2-*
X143650000Y-71425000D03*
G04 #@! TO.N,ADC4_AIN3+*
X141110000Y-68885000D03*
G04 #@! TO.N,ADC4_AIN3-*
X141110000Y-71425000D03*
G04 #@! TO.N,/ADC4/57_VCM*
X138570000Y-68885000D03*
D16*
G04 #@! TO.N,AINREF-*
X138570000Y-71425000D03*
G04 #@! TD*
D17*
G04 #@! TO.N,ADC1_34_SYNC_OUT*
G04 #@! TO.C,J65*
X171590000Y-109525000D03*
D16*
G04 #@! TO.N,ADC1_35_SYNC_IN*
X174130000Y-109525000D03*
G04 #@! TD*
D17*
G04 #@! TO.N,ADC1_14_MODE1_GPIO1*
G04 #@! TO.C,J69*
X171590000Y-90475000D03*
D16*
G04 #@! TO.N,ADC1_13_MODE0_GPIO0*
X174130000Y-90475000D03*
G04 #@! TD*
G04 #@! TO.N,ADC1_32_XTAL2_MCLK*
G04 #@! TO.C,J73*
X125870000Y-90475000D03*
D17*
G04 #@! TO.N,CRYSTAL_3_OUT*
X128410000Y-90475000D03*
G04 #@! TD*
D16*
G04 #@! TO.N,MCU_11_PF1_I2C2_SCL*
G04 #@! TO.C,J78*
X140475000Y-124130000D03*
D17*
G04 #@! TO.N,MCU_10_PF0_I2C2_SDA*
X140475000Y-121590000D03*
G04 #@! TD*
G04 #@! TO.N,ADC1_41_REF2+*
G04 #@! TO.C,J79*
X128410000Y-109525000D03*
D16*
G04 #@! TO.N,ACC_6_GND*
X125870000Y-109525000D03*
G04 #@! TD*
G04 #@! TO.N,CRYSTAL_4_Vin*
G04 #@! TO.C,J80*
X159525000Y-124130000D03*
D17*
G04 #@! TO.N,ADC1_24_IOVDD*
X159525000Y-121590000D03*
G04 #@! TD*
G04 #@! TO.N,AVDD_1_IN*
G04 #@! TO.C,J81*
X159525000Y-78410000D03*
D16*
G04 #@! TO.N,ACC_6_GND*
X159525000Y-75870000D03*
G04 #@! TD*
D10*
G04 #@! TO.N,MCU_138_BOOT0*
G04 #@! TO.C,J83*
X164187898Y-129845000D03*
D12*
G36*
X165389980Y-129845000D02*
X164187898Y-131047082D01*
X162985816Y-129845000D01*
X164187898Y-128642918D01*
X165389980Y-129845000D01*
X165389980Y-129845000D01*
G37*
D10*
G04 #@! TO.N,AVDD_1_IN*
X165983949Y-131641051D03*
D11*
X165983949Y-131641051D02*
X165983949Y-131641051D01*
D10*
G04 #@! TO.N,ACC_5_VDDIO*
X165983949Y-128048949D03*
D11*
X165983949Y-128048949D02*
X165983949Y-128048949D01*
D10*
G04 #@! TO.N,ACC_6_GND*
X167780000Y-129845000D03*
D11*
X167780000Y-129845000D02*
X167780000Y-129845000D01*
G04 #@! TD*
D16*
G04 #@! TO.N,ACC_5_VDDIO*
G04 #@! TO.C,J85*
X140475000Y-75870000D03*
D17*
G04 #@! TO.N,ADC1_43_AVDD1B*
X140475000Y-78410000D03*
G04 #@! TD*
D18*
G04 #@! TO.N,/ADC1/49_REF_OUT*
X173145648Y-103467570D03*
G04 #@! TO.N,/ADC1/51_AREG2CAP*
X172447055Y-102752049D03*
G04 #@! TO.N,/ADC1/59_AREG1CAP*
X170951758Y-98413305D03*
G04 #@! TO.N,/ADC2/49_REF_OUT*
X146608676Y-123076324D03*
G04 #@! TO.N,/ADC2/51_AREG2CAP*
X147315784Y-122369216D03*
G04 #@! TO.N,/ADC2/59_AREG1CAP*
X151606504Y-120884463D03*
G04 #@! TO.N,/ADC3/49_REF_OUT*
X126251000Y-96571000D03*
G04 #@! TO.N,/ADC3/51_AREG2CAP*
X127267000Y-96975000D03*
G04 #@! TO.N,/ADC3/59_AREG1CAP*
X128981177Y-101696852D03*
G04 #@! TO.N,/ADC4/49_REF_OUT*
X154017993Y-78810655D03*
G04 #@! TO.N,/ADC4/51_AREG2CAP*
X153111499Y-79232878D03*
G04 #@! TO.N,/ADC4/59_AREG1CAP*
X148476000Y-79070400D03*
G04 #@! TO.N,/MCU/23_PH0*
X138139364Y-111634364D03*
G04 #@! TO.N,/MCU/24_PH1*
X140100266Y-107867734D03*
G04 #@! TO.N,/MCU/9_PC15*
X139745069Y-110788165D03*
X143057880Y-113040160D03*
G04 #@! TO.N,/MCU/8_PC14*
X142341600Y-113794540D03*
G04 #@! TO.N,ADC1_24_IOVDD*
X150230253Y-90594112D03*
X129045000Y-98730000D03*
X148730000Y-120955000D03*
X170955000Y-101270000D03*
X140708065Y-99716509D03*
X149956811Y-108857101D03*
X151145941Y-79184400D03*
X151145941Y-79184400D03*
X159113481Y-109078127D03*
X156936535Y-100930138D03*
G04 #@! TO.N,ADC1_23_DREGCAP*
X157262981Y-99953179D03*
G04 #@! TO.N,ADC1_41_REF2+*
X155602986Y-84243930D03*
X144515465Y-84267285D03*
X155461000Y-115715000D03*
X144539000Y-115715000D03*
X165732712Y-94515459D03*
X134285000Y-94539000D03*
X134285000Y-105461000D03*
X150547000Y-76103095D03*
X165993871Y-105649322D03*
G04 #@! TO.N,ADC1_43_AVDD1B*
X155585977Y-83244073D03*
X144528898Y-83252738D03*
X155477258Y-116744469D03*
X144451125Y-116740316D03*
X166736815Y-94375417D03*
X133140429Y-94394151D03*
X133243872Y-105604881D03*
X128559332Y-103024380D03*
X170961944Y-97413355D03*
X127902000Y-98095000D03*
X148603000Y-122225000D03*
X172098000Y-101524000D03*
X172860000Y-98730000D03*
X149025000Y-76595000D03*
X127140000Y-100975000D03*
X150975000Y-122860000D03*
X163044473Y-90130527D03*
X151997001Y-75604998D03*
X147307641Y-79107419D03*
X151016215Y-77542892D03*
X152705036Y-120814200D03*
X166986598Y-105769723D03*
G04 #@! TO.N,ADC2_23_DREGCAP*
X150599946Y-109638757D03*
G04 #@! TO.N,ADC3_23_DREGCAP*
X140856000Y-100798999D03*
G04 #@! TO.N,ADC4_23_DREGCAP*
X149466048Y-91239089D03*
G04 #@! TO.N,AVDD_1_IN*
X160160000Y-112573000D03*
X160214210Y-89764408D03*
X163970000Y-127940000D03*
X167831900Y-126670000D03*
X167831900Y-125810098D03*
G04 #@! TO.N,ACC_6_GND*
X134760000Y-100000000D03*
X150000000Y-84760000D03*
X165240000Y-100000000D03*
X150000000Y-115240000D03*
X159525000Y-90488972D03*
X162065000Y-87948972D03*
X140475000Y-86665000D03*
X173495000Y-121590000D03*
X159144000Y-118288000D03*
X157464399Y-110120683D03*
X152686149Y-78131841D03*
X148984000Y-82601000D03*
X151120000Y-117145000D03*
X155752025Y-88691718D03*
X162621847Y-87392125D03*
X148806200Y-74600000D03*
X152667000Y-82705000D03*
X161201400Y-113208000D03*
X132601000Y-100866000D03*
X132519869Y-97460000D03*
X167272000Y-99007000D03*
X167559266Y-102719125D03*
X147610000Y-117680894D03*
X137975092Y-105914500D03*
X131439542Y-109093000D03*
X136505990Y-90555656D03*
X141135123Y-112166877D03*
X168415000Y-123495000D03*
X140602000Y-88189000D03*
X150508000Y-97587000D03*
G04 #@! TO.N,ACC_5_VDDIO*
X141182108Y-85957892D03*
X158890000Y-111430000D03*
X144121000Y-106713931D03*
X171618291Y-117116709D03*
X167604054Y-122400946D03*
X160541000Y-93015000D03*
X159813492Y-107493000D03*
X134289564Y-108625070D03*
X135798473Y-91332221D03*
X142144999Y-90239999D03*
X154266178Y-91964402D03*
G04 #@! TO.N,ISO_USB_2_GND1*
X126526548Y-121512517D03*
X126708200Y-116306800D03*
G04 #@! TO.N,ISO_USB_1_VBUS1*
X128642913Y-123854840D03*
X132407660Y-123837700D03*
G04 #@! TO.N,ISO_USB_7_UD+*
X128475740Y-120299480D03*
X124607899Y-115710685D03*
G04 #@! TO.N,ISO_USB_6_UD\2013*
X127866542Y-123144598D03*
G04 #@! TO.N,ADC1_36_RESET*
X162163440Y-108181232D03*
G04 #@! TO.N,ADC1_34_SYNC_OUT*
X161763833Y-106000927D03*
G04 #@! TO.N,ADC1_33_START*
X163208000Y-108382000D03*
X167805981Y-111594000D03*
X166124347Y-112831653D03*
G04 #@! TO.N,ADC1_32_XTAL2_MCLK*
X155188206Y-106065011D03*
X150616130Y-107376304D03*
X131204000Y-91237000D03*
G04 #@! TO.N,ADC1_30_DRDY*
X158117064Y-104434064D03*
X158001000Y-95174000D03*
G04 #@! TO.N,ADC1_29_DCLK*
X156393030Y-101778000D03*
X156393030Y-101778000D03*
G04 #@! TO.N,ADC1_28_DOUT0*
X157959011Y-102958000D03*
G04 #@! TO.N,ADC1_27_DOUT1*
X158631347Y-102027347D03*
G04 #@! TO.N,ADC1_21_DCLK0_SDO*
X156620849Y-104555151D03*
G04 #@! TO.N,ADC1_20_DCLK1_SDI*
X155043000Y-105075609D03*
G04 #@! TO.N,ADC1_19_DCLK2_SCLK*
X155043000Y-104075606D03*
G04 #@! TO.N,ADC1_18_ALERT_CS*
X157482767Y-94285000D03*
G04 #@! TO.N,ADC2_36_RESET*
X145079737Y-106429633D03*
G04 #@! TO.N,ADC2_33_START*
X145096000Y-107871520D03*
G04 #@! TO.N,ADC2_30_DRDY*
X147079001Y-108036728D03*
G04 #@! TO.N,ADC2_29_DCLK*
X147079001Y-106832400D03*
G04 #@! TO.N,ADC2_28_DOUT0*
X148984000Y-106985000D03*
G04 #@! TO.N,ADC2_27_DOUT1*
X149050261Y-108435001D03*
G04 #@! TO.N,ADC2_21_DCLK0_SDO*
X151397000Y-108001000D03*
G04 #@! TO.N,ADC2_20_DCLK1_SDI*
X151927248Y-108867752D03*
G04 #@! TO.N,ADC2_19_DCLK2_SCLK*
X152563058Y-107403000D03*
G04 #@! TO.N,ADC2_18_ALERT_CS*
X151397000Y-105715000D03*
G04 #@! TO.N,ADC3_36_RESET*
X138467564Y-94074990D03*
G04 #@! TO.N,ADC3_33_START*
X140868430Y-95962205D03*
G04 #@! TO.N,ADC3_30_DRDY*
X141350036Y-104427995D03*
G04 #@! TO.N,ADC3_29_DCLK*
X144285000Y-103810000D03*
G04 #@! TO.N,ADC3_28_DOUT0*
X143097435Y-104149011D03*
G04 #@! TO.N,ADC3_27_DOUT1*
X141909000Y-100740854D03*
X149891130Y-104191000D03*
X149492000Y-101524000D03*
G04 #@! TO.N,ADC3_21_DCLK0_SDO*
X142253000Y-102249000D03*
G04 #@! TO.N,ADC3_20_DCLK1_SDI*
X140983000Y-102475000D03*
G04 #@! TO.N,ADC3_19_DCLK2_SCLK*
X142585512Y-99947158D03*
G04 #@! TO.N,ADC3_18_ALERT_CS*
X142819847Y-98975000D03*
G04 #@! TO.N,ADC4_36_RESET*
X154313236Y-93787349D03*
G04 #@! TO.N,ADC4_33_START*
X154731397Y-92878974D03*
G04 #@! TO.N,ADC4_30_DRDY*
X153091029Y-91041243D03*
X145165225Y-91726780D03*
G04 #@! TO.N,ADC4_29_DCLK*
X144758181Y-92670386D03*
X153076486Y-92925791D03*
G04 #@! TO.N,ADC4_28_DOUT0*
X151626250Y-93491705D03*
G04 #@! TO.N,ADC4_27_DOUT1*
X150703436Y-93106456D03*
G04 #@! TO.N,ADC4_21_DCLK0_SDO*
X147841000Y-90983000D03*
G04 #@! TO.N,ADC4_20_DCLK1_SDI*
X147619801Y-91958229D03*
G04 #@! TO.N,ADC4_19_DCLK2_SCLK*
X146749418Y-92544000D03*
G04 #@! TO.N,ADC4_18_ALERT_CS*
X145749433Y-92538386D03*
G04 #@! TO.N,MCU_138_BOOT0*
X165875000Y-121601770D03*
G04 #@! TO.N,ISO_UART_13_OUTB*
X149492000Y-96317000D03*
G04 #@! TO.N,ISO_UART_11_IND*
X145471669Y-95758706D03*
G04 #@! TO.N,ISO_UART_14_OUTA*
X149255368Y-93667367D03*
G04 #@! TO.N,ISO_UART_12_INC*
X146190000Y-95063001D03*
G04 #@! TO.N,ISO_USB_10_DD+*
X152540000Y-99365000D03*
X145936000Y-99492000D03*
X135776000Y-108763000D03*
X157239000Y-89535200D03*
G04 #@! TO.N,ISO_USB_11_DD\2013*
X158841160Y-88521160D03*
X147264415Y-100316121D03*
X152540000Y-100365003D03*
X139099426Y-107843269D03*
G04 #@! TO.N,MCU_25_NRST*
X176153812Y-119752918D03*
G04 #@! TO.N,ACC_9_INT2*
X160133952Y-118429421D03*
G04 #@! TO.N,ACC_4_INT1*
X163335000Y-119685000D03*
G04 #@! TO.N,ACC_13_SCL*
X163335000Y-117145000D03*
G04 #@! TO.N,ACC_14_SDA*
X162627892Y-117870000D03*
G04 #@! TO.N,POWER_1_GND*
X169685000Y-74979040D03*
G04 #@! TO.N,POWER_2_VCC*
X170345400Y-79603800D03*
G04 #@! TO.N,AINREF-*
X124419998Y-89790997D03*
X139980180Y-125973881D03*
X160903920Y-73037700D03*
G04 #@! TO.N,ADC1_13_MODE0_GPIO0*
X140944600Y-82016600D03*
X165576583Y-90924922D03*
X130315000Y-108625070D03*
X125075990Y-102413000D03*
X141174312Y-118615618D03*
X162576291Y-125192571D03*
G04 #@! TO.N,ADC1_35_SYNC_IN*
X155461000Y-87735000D03*
X165875000Y-109615000D03*
X141586034Y-95265751D03*
X144345727Y-112265000D03*
G04 #@! TO.N,MCU_112_PC11_SDMMC1_D3*
X166891000Y-113695998D03*
X169705990Y-112446000D03*
G04 #@! TO.N,MCU_111_PC10_SDMMC1_D2*
X164999627Y-114210373D03*
X171082000Y-112827000D03*
G04 #@! TO.N,MCU_105_PA13_SYS_JTMS-SWDIO*
X166891000Y-91364000D03*
X162483113Y-93574948D03*
G04 #@! TO.N,MCU_99_PC9_SDMMC1_D1*
X171663511Y-113896489D03*
X154699000Y-96608000D03*
G04 #@! TO.N,MCU_98_PC8_SDMMC1_D0*
X170515858Y-113774142D03*
X155512375Y-96026256D03*
G04 #@! TO.N,MCU_97_PC7_SDMMC1_DETECT*
X156437306Y-95646118D03*
X164478000Y-113335000D03*
G04 #@! TO.N,MCU_48_PB2_BOOT1*
X126414999Y-102794000D03*
X140699271Y-119685000D03*
X176035000Y-115748000D03*
X130153184Y-110054244D03*
G04 #@! TO.N,MCU_11_PF1_I2C2_SCL*
X142978145Y-110054776D03*
G04 #@! TO.N,MCU_10_PF0_I2C2_SDA*
X143399688Y-111112732D03*
G04 #@! TO.N,CRYSTAL_4_Vin*
X149365000Y-103175000D03*
G04 #@! TD*
D19*
G04 #@! TO.N,/MCU/9_PC15*
X139745069Y-111849825D02*
X139745069Y-111353850D01*
X139745069Y-111353850D02*
X139745069Y-110788165D01*
X142317878Y-112891878D02*
X140787122Y-112891878D01*
X140787122Y-112891878D02*
X139745069Y-111849825D01*
X143057880Y-113040160D02*
X142317878Y-112891878D01*
D20*
G04 #@! TO.N,ADC1_24_IOVDD*
X142299575Y-98124999D02*
X141108064Y-99316510D01*
X142655187Y-98124999D02*
X142299575Y-98124999D01*
X150630252Y-90994111D02*
X150630252Y-91368748D01*
X150630252Y-91368748D02*
X149619000Y-92380000D01*
X149619000Y-92380000D02*
X149284733Y-92380000D01*
X149284733Y-92380000D02*
X147252733Y-94412000D01*
X144225010Y-96555176D02*
X142655187Y-98124999D01*
X147252733Y-94412000D02*
X147053733Y-94213000D01*
X147053733Y-94213000D02*
X145627000Y-94213000D01*
X145627000Y-94213000D02*
X144225010Y-95614990D01*
X144225010Y-95614990D02*
X144225010Y-96555176D01*
D21*
X146290998Y-93519001D02*
X147960732Y-93519001D01*
X144094009Y-96392733D02*
X144094009Y-95715990D01*
X143002732Y-97484010D02*
X144094009Y-96392733D01*
X142867834Y-97484011D02*
X143002732Y-97484010D01*
X141108064Y-99243781D02*
X142867834Y-97484011D01*
D20*
X146338420Y-94213000D02*
X145596999Y-94213000D01*
X147734054Y-92817366D02*
X146338420Y-94213000D01*
X149145773Y-92817366D02*
X147734054Y-92817366D01*
X150630252Y-91332887D02*
X149145773Y-92817366D01*
X150630252Y-90994111D02*
X150630252Y-91332887D01*
D21*
X144094009Y-95715990D02*
X145575999Y-94234000D01*
X145575999Y-94234000D02*
X146290998Y-93519001D01*
D20*
X145575999Y-94234000D02*
X145596999Y-94213000D01*
D21*
X150630252Y-91517887D02*
X150630252Y-90994111D01*
X149934049Y-92214090D02*
X150630252Y-91517887D01*
X149265643Y-92214090D02*
X149934049Y-92214090D01*
D20*
X156536536Y-100530139D02*
X156936535Y-100930138D01*
X150230253Y-90594112D02*
X150630252Y-90994111D01*
D21*
X154067999Y-101705159D02*
X154067999Y-106387806D01*
X156794980Y-98978178D02*
X154067999Y-101705159D01*
X157730982Y-98978178D02*
X156794980Y-98978178D01*
X158237982Y-99485178D02*
X157730982Y-98978178D01*
X158237982Y-100421180D02*
X158237982Y-99485178D01*
X157729024Y-100930138D02*
X158237982Y-100421180D01*
X156936535Y-100930138D02*
X157729024Y-100930138D01*
X156758320Y-109078127D02*
X158547796Y-109078127D01*
X158547796Y-109078127D02*
X159113481Y-109078127D01*
X142351846Y-97999999D02*
X147411001Y-97999999D01*
X141108064Y-99243781D02*
X142351846Y-97999999D01*
X141108064Y-99316510D02*
X141108064Y-99243781D01*
X140708065Y-99716509D02*
X141108064Y-99316510D01*
X157063953Y-109078127D02*
X159113481Y-109078127D01*
X156758320Y-109078127D02*
X157063953Y-109078127D01*
X154067999Y-106387806D02*
X156758320Y-109078127D01*
X154067999Y-105153660D02*
X154067999Y-106387806D01*
X154067999Y-104656997D02*
X154067999Y-105153660D01*
X149413542Y-100002540D02*
X154067999Y-104656997D01*
X147411001Y-97999999D02*
X149413542Y-100002540D01*
X160374999Y-120740001D02*
X159525000Y-121590000D01*
X161108953Y-120006047D02*
X160374999Y-120740001D01*
X161108953Y-116534393D02*
X161108953Y-120006047D01*
X157939990Y-113365430D02*
X161108953Y-116534393D01*
X157063953Y-109078127D02*
X156489398Y-109652682D01*
X156489398Y-110652760D02*
X157939990Y-112103352D01*
X156489398Y-109652682D02*
X156489398Y-110652760D01*
X157939990Y-112103352D02*
X157939990Y-113365430D01*
D19*
X147929001Y-106609398D02*
X147427002Y-106107399D01*
D20*
X147929001Y-106985000D02*
X147929001Y-107620000D01*
D19*
X147427002Y-106107399D02*
X146432601Y-106107399D01*
X146029834Y-105704632D02*
X144410000Y-105704632D01*
X146432601Y-106107399D02*
X146029834Y-105704632D01*
D20*
X142247434Y-104693434D02*
X143133632Y-105579632D01*
X142247434Y-103931434D02*
X142247434Y-104693434D01*
X139840000Y-102590002D02*
X140827992Y-103577994D01*
X141893994Y-103577994D02*
X142247434Y-103931434D01*
X140055306Y-100444843D02*
X139840000Y-100660149D01*
X140827992Y-103577994D02*
X141893994Y-103577994D01*
X147929001Y-108824217D02*
X148566999Y-109462215D01*
X140055306Y-100369268D02*
X140055306Y-100444843D01*
X140708065Y-99716509D02*
X140055306Y-100369268D01*
X139840000Y-100660149D02*
X139840000Y-102590002D01*
X148566999Y-109462215D02*
X149351697Y-109462215D01*
X149351697Y-109462215D02*
X149556812Y-109257100D01*
X149956811Y-108857101D02*
X149556812Y-109257100D01*
X143133632Y-105579632D02*
X144285000Y-105579632D01*
D19*
X147929001Y-106985000D02*
X147929001Y-106609398D01*
X144410000Y-105704632D02*
X144285000Y-105579632D01*
D20*
X147929001Y-107620000D02*
X147929001Y-108824217D01*
D21*
X146104000Y-108504729D02*
X147009273Y-109410002D01*
X147009273Y-109410002D02*
X149518262Y-109410002D01*
X146104000Y-103312082D02*
X146104000Y-108504729D01*
X149518262Y-109410002D02*
X149624945Y-109303319D01*
X149413542Y-100002540D02*
X146104000Y-103312082D01*
D19*
X148222000Y-93707001D02*
X148222000Y-93257733D01*
X150418397Y-94412000D02*
X148926999Y-94412000D01*
D20*
X150418397Y-94412000D02*
X156536536Y-100530139D01*
D19*
X148926999Y-94412000D02*
X148222000Y-93707001D01*
D21*
X147960732Y-93519001D02*
X148222000Y-93257733D01*
X148222000Y-93257733D02*
X149265643Y-92214090D01*
D20*
G04 #@! TO.N,ADC1_41_REF2+*
X152820928Y-84243930D02*
X150090787Y-81513789D01*
X155602986Y-84243930D02*
X152820928Y-84243930D01*
X166090001Y-104839280D02*
X165859621Y-105069660D01*
X166090001Y-99591999D02*
X166090001Y-104839280D01*
X165859621Y-105069660D02*
X165859621Y-105635345D01*
X165732712Y-99234710D02*
X166090001Y-99591999D01*
X165732712Y-94515459D02*
X165732712Y-99234710D01*
X150090787Y-76559308D02*
X150090787Y-79299000D01*
X150547000Y-76103095D02*
X150090787Y-76559308D01*
X150090787Y-81513789D02*
X150090787Y-79299000D01*
X156002985Y-84643929D02*
X155602986Y-84243930D01*
X156351733Y-84643929D02*
X156002985Y-84643929D01*
X161328400Y-89620596D02*
X156351733Y-84643929D01*
X161328400Y-90525800D02*
X161328400Y-89620596D01*
X165732712Y-94515459D02*
X165732712Y-93948395D01*
X163199117Y-91414800D02*
X162217400Y-91414800D01*
X165732712Y-93948395D02*
X163199117Y-91414800D01*
X162217400Y-91414800D02*
X161328400Y-90525800D01*
D21*
X134285000Y-95104685D02*
X134285000Y-94539000D01*
X134285000Y-99031998D02*
X134285000Y-95104685D01*
X133784999Y-99531999D02*
X134285000Y-99031998D01*
X133784999Y-100468001D02*
X133784999Y-99531999D01*
X134285000Y-100968002D02*
X133784999Y-100468001D01*
X134285000Y-105461000D02*
X134285000Y-100968002D01*
X165732712Y-95081144D02*
X165732712Y-94515459D01*
X166215001Y-100468001D02*
X166215001Y-95563433D01*
X165993871Y-100689131D02*
X166215001Y-100468001D01*
X166215001Y-95563433D02*
X165732712Y-95081144D01*
X165993871Y-105649322D02*
X165993871Y-100689131D01*
X145104685Y-115715000D02*
X144539000Y-115715000D01*
X149031998Y-115715000D02*
X145104685Y-115715000D01*
X149531999Y-116215001D02*
X149031998Y-115715000D01*
X150468001Y-116215001D02*
X149531999Y-116215001D01*
X150968002Y-115715000D02*
X150468001Y-116215001D01*
X155461000Y-115715000D02*
X150968002Y-115715000D01*
X150041214Y-79307221D02*
X150041214Y-76608881D01*
X145081150Y-84267285D02*
X150041214Y-79307221D01*
X144515465Y-84267285D02*
X145081150Y-84267285D01*
X155037301Y-84243930D02*
X155602986Y-84243930D01*
X154578370Y-83784999D02*
X155037301Y-84243930D01*
X149531999Y-83784999D02*
X154578370Y-83784999D01*
X149049713Y-84267285D02*
X149531999Y-83784999D01*
X144515465Y-84267285D02*
X149049713Y-84267285D01*
X150147001Y-76503094D02*
X150547000Y-76103095D01*
X150041214Y-76608881D02*
X150147001Y-76503094D01*
X150041214Y-81649216D02*
X150041214Y-76608881D01*
X152635928Y-84243930D02*
X150041214Y-81649216D01*
X155602986Y-84243930D02*
X152635928Y-84243930D01*
D20*
X132989552Y-109211247D02*
X132989552Y-107117203D01*
X133841316Y-110063011D02*
X132989552Y-109211247D01*
X132989552Y-107117203D02*
X134285000Y-105821755D01*
X137838011Y-110063011D02*
X133841316Y-110063011D01*
X138989365Y-111214365D02*
X137838011Y-110063011D01*
X134285000Y-105821755D02*
X134285000Y-105461000D01*
X138989365Y-112345367D02*
X138989365Y-111214365D01*
X143846232Y-115022232D02*
X141666230Y-115022232D01*
X141666230Y-115022232D02*
X138989365Y-112345367D01*
X144539000Y-115715000D02*
X143846232Y-115022232D01*
D21*
X134285000Y-93973315D02*
X134285000Y-94539000D01*
X134285000Y-90722037D02*
X134285000Y-93973315D01*
X140739752Y-84267285D02*
X134285000Y-90722037D01*
X144515465Y-84267285D02*
X140739752Y-84267285D01*
D20*
G04 #@! TO.N,ADC1_43_AVDD1B*
X147372521Y-78247479D02*
X147372521Y-79068311D01*
X149025000Y-76595000D02*
X147372521Y-78247479D01*
X147372521Y-80409115D02*
X144528898Y-83252738D01*
X147372521Y-79068311D02*
X147372521Y-80409115D01*
X132289542Y-106559211D02*
X132289542Y-109501200D01*
X133243872Y-105604881D02*
X132289542Y-106559211D01*
D21*
X131602849Y-94394151D02*
X127902000Y-98095000D01*
X133140429Y-94394151D02*
X131602849Y-94394151D01*
X127902000Y-100213000D02*
X127140000Y-100975000D01*
X127902000Y-98095000D02*
X127902000Y-100213000D01*
X127140000Y-101605048D02*
X128559332Y-103024380D01*
X127140000Y-100975000D02*
X127140000Y-101605048D01*
X130663371Y-103024380D02*
X133243872Y-105604881D01*
X128559332Y-103024380D02*
X130663371Y-103024380D01*
X144528898Y-81886162D02*
X147307641Y-79107419D01*
X144528898Y-83252738D02*
X144528898Y-81886162D01*
X147307641Y-78312359D02*
X149025000Y-76595000D01*
X147307641Y-79107419D02*
X147307641Y-78312359D01*
X151597002Y-75204999D02*
X151997001Y-75604998D01*
X151520097Y-75128094D02*
X151597002Y-75204999D01*
X149025000Y-76029315D02*
X149926221Y-75128094D01*
X149926221Y-75128094D02*
X151520097Y-75128094D01*
X149025000Y-76595000D02*
X149025000Y-76029315D01*
X151997001Y-76562106D02*
X151016215Y-77542892D01*
X151997001Y-75604998D02*
X151997001Y-76562106D01*
X155585977Y-82678388D02*
X155585977Y-83244073D01*
X153793233Y-77142893D02*
X155585977Y-78935637D01*
X151416214Y-77142893D02*
X153793233Y-77142893D01*
X151016215Y-77542892D02*
X151416214Y-77142893D01*
X163044473Y-90130527D02*
X163503736Y-90589790D01*
X163444472Y-90530526D02*
X163044473Y-90130527D01*
X163481583Y-90530526D02*
X163444472Y-90530526D01*
X166736815Y-93785758D02*
X163481583Y-90530526D01*
X166736815Y-94375417D02*
X166736815Y-93785758D01*
X167924006Y-94375417D02*
X170961944Y-97413355D01*
X166736815Y-94375417D02*
X167924006Y-94375417D01*
X171543355Y-97413355D02*
X172860000Y-98730000D01*
X170961944Y-97413355D02*
X171543355Y-97413355D01*
X172860000Y-100762000D02*
X172098000Y-101524000D01*
X172860000Y-98730000D02*
X172860000Y-100762000D01*
X167852277Y-105769723D02*
X166986598Y-105769723D01*
X172098000Y-101524000D02*
X167852277Y-105769723D01*
X144451125Y-118073125D02*
X148603000Y-122225000D01*
X144451125Y-116740316D02*
X144451125Y-118073125D01*
X150340000Y-122225000D02*
X150975000Y-122860000D01*
X148603000Y-122225000D02*
X150340000Y-122225000D01*
X152705036Y-121379885D02*
X152705036Y-120814200D01*
X151540685Y-122860000D02*
X152705036Y-121695649D01*
X152705036Y-121695649D02*
X152705036Y-121379885D01*
X150975000Y-122860000D02*
X151540685Y-122860000D01*
X155477258Y-118041978D02*
X152705036Y-120814200D01*
X155477258Y-116744469D02*
X155477258Y-118041978D01*
X155585977Y-78935637D02*
X155585977Y-80060800D01*
X155585977Y-80060800D02*
X155585977Y-82678388D01*
X144451125Y-116740316D02*
X144451125Y-122693875D01*
X133140429Y-94394151D02*
X127249151Y-94394151D01*
X166986598Y-105769723D02*
X173109725Y-105769723D01*
D20*
X163044473Y-90130527D02*
X156158019Y-83244073D01*
X156158019Y-83244073D02*
X155585977Y-83244073D01*
X141987314Y-116740316D02*
X136538000Y-111291002D01*
X144451125Y-116740316D02*
X141987314Y-116740316D01*
X136538000Y-111291002D02*
X136145002Y-111291002D01*
X136145002Y-111291002D02*
X135682658Y-110828658D01*
X135682658Y-110828658D02*
X133617000Y-110828658D01*
X132289542Y-109501200D02*
X133617000Y-110828658D01*
X155585977Y-77299021D02*
X155585977Y-80060800D01*
D19*
X161430000Y-68885000D02*
X160254999Y-70060001D01*
X120060001Y-89745001D02*
X122600001Y-89745001D01*
X118885000Y-88570000D02*
X120060001Y-89745001D01*
X139745001Y-127399999D02*
X140494002Y-126650998D01*
X139745001Y-129939999D02*
X139745001Y-127399999D01*
X138570000Y-131115000D02*
X139745001Y-129939999D01*
D21*
X176465998Y-109125996D02*
X176465998Y-109908340D01*
X175734502Y-108394500D02*
X176465998Y-109125996D01*
X173109725Y-105769723D02*
X175734502Y-108394500D01*
D19*
X139419999Y-131964999D02*
X138570000Y-131115000D01*
X141674001Y-132290001D02*
X139745001Y-132290001D01*
X139745001Y-132290001D02*
X139419999Y-131964999D01*
X142285001Y-131679001D02*
X141674001Y-132290001D01*
X117709999Y-91674001D02*
X118385318Y-92349320D01*
X117709999Y-89745001D02*
X117709999Y-91674001D01*
X118885000Y-88570000D02*
X117709999Y-89745001D01*
D21*
X133140429Y-93828466D02*
X133140429Y-94394151D01*
X133140429Y-90523092D02*
X133140429Y-93828466D01*
X140410783Y-83252738D02*
X133140429Y-90523092D01*
X144528898Y-83252738D02*
X140410783Y-83252738D01*
X140475000Y-79198840D02*
X144528898Y-83252738D01*
X140475000Y-78410000D02*
X140475000Y-79198840D01*
D20*
X155585977Y-77299021D02*
X155585977Y-76272843D01*
D19*
X158266181Y-67709999D02*
X157617160Y-68359020D01*
X160254999Y-67709999D02*
X158266181Y-67709999D01*
D20*
X155585977Y-76272843D02*
X157617160Y-74241660D01*
D19*
X157617160Y-68359020D02*
X157617160Y-74241660D01*
X161430000Y-68885000D02*
X160254999Y-67709999D01*
D20*
X126776580Y-93921580D02*
X125359160Y-93921580D01*
D21*
X127249151Y-94394151D02*
X126776580Y-93921580D01*
D20*
X123101200Y-91663620D02*
X123101200Y-90246200D01*
D19*
X122600001Y-89745001D02*
X123101200Y-90246200D01*
D20*
X123786900Y-92349320D02*
X123802140Y-92364560D01*
X123136660Y-92349320D02*
X123786900Y-92349320D01*
D19*
X118385318Y-92349320D02*
X123136660Y-92349320D01*
D20*
X125359160Y-93921580D02*
X123802140Y-92364560D01*
X123802140Y-92364560D02*
X123101200Y-91663620D01*
X180265001Y-112279999D02*
X181115000Y-111430000D01*
X179814999Y-112730001D02*
X180265001Y-112279999D01*
X177950999Y-112730001D02*
X179814999Y-112730001D01*
X176465998Y-111245000D02*
X177950999Y-112730001D01*
X176465998Y-109908340D02*
X176465998Y-111245000D01*
X144000000Y-123145000D02*
X144000000Y-126000000D01*
D21*
X144451125Y-122693875D02*
X144000000Y-123145000D01*
D20*
X144000000Y-126000000D02*
X143349002Y-126650998D01*
X142634003Y-126650998D02*
X142285001Y-127000000D01*
X143000000Y-126650998D02*
X142634003Y-126650998D01*
X143000000Y-126650998D02*
X140494002Y-126650998D01*
D19*
X142285001Y-127000000D02*
X142285001Y-131679001D01*
D20*
X143349002Y-126650998D02*
X143000000Y-126650998D01*
D19*
X158734362Y-73319640D02*
X158539180Y-73319640D01*
X160254999Y-71645780D02*
X160254999Y-71799003D01*
X160254999Y-70060001D02*
X160254999Y-71645780D01*
X160254999Y-71799003D02*
X158734362Y-73319640D01*
D20*
X157617160Y-74241660D02*
X158539180Y-73319640D01*
D21*
G04 #@! TO.N,AVDD_1_IN*
X161008001Y-111724999D02*
X160559999Y-112173001D01*
X161898001Y-111724999D02*
X161008001Y-111724999D01*
X162772374Y-112599372D02*
X161898001Y-111724999D01*
X160500001Y-90911037D02*
X160500001Y-90050199D01*
X161828774Y-92239810D02*
X160500001Y-90911037D01*
X162590979Y-92239810D02*
X161828774Y-92239810D01*
X163458115Y-93106946D02*
X162590979Y-92239810D01*
X160500001Y-90050199D02*
X160214210Y-89764408D01*
D19*
X163458115Y-103810000D02*
X162573000Y-103810000D01*
D21*
X163458115Y-103810000D02*
X163458115Y-93106946D01*
D19*
X161038832Y-106348928D02*
X162146135Y-107456231D01*
X162146135Y-107456231D02*
X164568231Y-107456231D01*
X162573000Y-103810000D02*
X162192000Y-104191000D01*
X161038832Y-105344168D02*
X161038832Y-106348928D01*
X162192000Y-104191000D02*
X161038832Y-105344168D01*
X164390001Y-112173001D02*
X160559999Y-112173001D01*
X166600001Y-109963001D02*
X164390001Y-112173001D01*
X166600001Y-108599001D02*
X166600001Y-109963001D01*
X165457231Y-107456231D02*
X166600001Y-108599001D01*
X164568231Y-107456231D02*
X165457231Y-107456231D01*
D21*
X162511758Y-103810000D02*
X160541000Y-105780758D01*
X160541000Y-105780758D02*
X160541000Y-106157544D01*
X163458115Y-103810000D02*
X162511758Y-103810000D01*
D20*
X160541000Y-106157544D02*
X160541000Y-106334320D01*
X161537911Y-107331231D02*
X161776231Y-107331231D01*
X160541000Y-106334320D02*
X161537911Y-107331231D01*
D21*
X164909233Y-107206231D02*
X166850001Y-109146999D01*
X166850001Y-109146999D02*
X166850001Y-110200999D01*
X161662911Y-107206231D02*
X164909233Y-107206231D01*
X161537911Y-107331231D02*
X161662911Y-107206231D01*
X163011747Y-112359999D02*
X162772374Y-112599372D01*
X164691001Y-112359999D02*
X163011747Y-112359999D01*
X160559999Y-112173001D02*
X160160000Y-112573000D01*
X169921070Y-115185374D02*
X170066000Y-115185374D01*
X166256000Y-110795000D02*
X166256000Y-111520304D01*
X166256000Y-110795000D02*
X164691001Y-112359999D01*
X166256000Y-111520304D02*
X169921070Y-115185374D01*
X166850001Y-110200999D02*
X166256000Y-110795000D01*
X164531626Y-115185374D02*
X165748000Y-115185374D01*
X162772374Y-113426122D02*
X164531626Y-115185374D01*
X162772374Y-112599372D02*
X162772374Y-113426122D01*
X170066000Y-115185374D02*
X165748000Y-115185374D01*
X172769999Y-120871999D02*
X167831900Y-125810098D01*
X172769999Y-116825415D02*
X172769999Y-120871999D01*
X171129958Y-115185374D02*
X172769999Y-116825415D01*
X170066000Y-115185374D02*
X171129958Y-115185374D01*
D19*
X165983949Y-129787951D02*
X165983949Y-131641051D01*
X167831900Y-127940000D02*
X165983949Y-129787951D01*
D21*
X167831900Y-125810098D02*
X167831900Y-126670000D01*
X167831900Y-126670000D02*
X167831900Y-127940000D01*
D19*
X165983949Y-129787951D02*
X164605000Y-128409002D01*
X164439002Y-128409002D02*
X163970000Y-127940000D01*
X164605000Y-128409002D02*
X164439002Y-128409002D01*
D20*
G04 #@! TO.N,ACC_5_VDDIO*
X142377970Y-106713931D02*
X138824000Y-103159961D01*
X144121000Y-106713931D02*
X142377970Y-106713931D01*
X138824000Y-100686186D02*
X139355296Y-100154890D01*
X138824000Y-103159961D02*
X138824000Y-100686186D01*
X142661001Y-96659001D02*
X143269000Y-96051002D01*
X142507571Y-96659001D02*
X142661001Y-96659001D01*
X139355296Y-99811276D02*
X142507571Y-96659001D01*
X139355296Y-100154890D02*
X139355296Y-99811276D01*
X143269000Y-94793000D02*
X142978001Y-94502001D01*
X143269000Y-96051002D02*
X143269000Y-94793000D01*
X142978001Y-91073001D02*
X141745000Y-89840000D01*
X142978001Y-94502001D02*
X142978001Y-91073001D01*
X159963482Y-110356518D02*
X159289999Y-111030001D01*
X159963482Y-109271000D02*
X159963482Y-110356518D01*
X159963482Y-108670126D02*
X159963482Y-109271000D01*
X159813492Y-108520136D02*
X159963482Y-108670126D01*
X159813492Y-107493000D02*
X159813492Y-108520136D01*
X159289999Y-111030001D02*
X158890000Y-111430000D01*
D21*
X159813492Y-108058685D02*
X159813492Y-107493000D01*
X160088482Y-108333675D02*
X159813492Y-108058685D01*
X160088482Y-110231518D02*
X160088482Y-108333675D01*
X158890000Y-111430000D02*
X160088482Y-110231518D01*
X155175794Y-91880369D02*
X154838498Y-91880369D01*
X156310425Y-93015000D02*
X155175794Y-91880369D01*
X160541000Y-93015000D02*
X156310425Y-93015000D01*
X142144999Y-89440001D02*
X141745000Y-89840000D01*
X142415899Y-89169101D02*
X142144999Y-89440001D01*
X152692915Y-89169101D02*
X142415899Y-89169101D01*
X141745000Y-86520784D02*
X141182108Y-85957892D01*
X141745000Y-89840000D02*
X141745000Y-86520784D01*
X171618291Y-118386709D02*
X167604054Y-122400946D01*
X171618291Y-117116709D02*
X171618291Y-118386709D01*
X160541000Y-103175000D02*
X160541000Y-93015000D01*
X160160000Y-103175000D02*
X159092065Y-104242935D01*
X160541000Y-103175000D02*
X160160000Y-103175000D01*
X159092065Y-104902065D02*
X158382000Y-105612130D01*
X159092065Y-104242935D02*
X159092065Y-104902065D01*
X158382000Y-105612130D02*
X158382000Y-107112000D01*
X158763000Y-107493000D02*
X159813492Y-107493000D01*
X158382000Y-107112000D02*
X158763000Y-107493000D01*
X134689563Y-108225071D02*
X134890892Y-108225071D01*
X134890892Y-108225071D02*
X135495963Y-107620000D01*
X143400978Y-106868268D02*
X143555315Y-106713931D01*
X138184887Y-106868268D02*
X143400978Y-106868268D01*
X137433155Y-107620000D02*
X138184887Y-106868268D01*
X135495963Y-107620000D02*
X137433155Y-107620000D01*
X136198472Y-91732220D02*
X135798473Y-91332221D01*
X139852780Y-91732220D02*
X136198472Y-91732220D01*
X141745000Y-89840000D02*
X139852780Y-91732220D01*
X142561035Y-90656035D02*
X142561035Y-96420537D01*
X142144999Y-90239999D02*
X141745000Y-89840000D01*
X142561035Y-90656035D02*
X142144999Y-90239999D01*
X142561035Y-95733752D02*
X142561035Y-90656035D01*
X139014990Y-99279797D02*
X142561035Y-95733752D01*
X139014990Y-106317604D02*
X139014990Y-99279797D01*
X137544595Y-107787999D02*
X139014990Y-106317604D01*
X135307999Y-107787999D02*
X137544595Y-107787999D01*
X134870927Y-108225071D02*
X135307999Y-107787999D01*
X134689563Y-108225071D02*
X134870927Y-108225071D01*
X134289564Y-108625070D02*
X134689563Y-108225071D01*
X143555315Y-106713931D02*
X144121000Y-106713931D01*
X142192970Y-106713931D02*
X143555315Y-106713931D01*
X139014991Y-103535952D02*
X142192970Y-106713931D01*
X142561035Y-96420537D02*
X139014991Y-99966581D01*
X142561035Y-92887968D02*
X142561035Y-96420537D01*
X146279902Y-89169101D02*
X142561035Y-92887968D01*
X152692915Y-89169101D02*
X146279902Y-89169101D01*
X154838498Y-91880369D02*
X154838498Y-91314684D01*
X170671581Y-116169999D02*
X171218292Y-116716710D01*
X162313997Y-116169999D02*
X170671581Y-116169999D01*
X171218292Y-116716710D02*
X171618291Y-117116709D01*
X163803001Y-116169999D02*
X164310001Y-116676999D01*
X162313997Y-116169999D02*
X163803001Y-116169999D01*
X158890000Y-112746002D02*
X162313997Y-116169999D01*
X156452259Y-115263257D02*
X151802760Y-110613758D01*
X156452259Y-123792261D02*
X156452259Y-115263257D01*
X158354997Y-125694999D02*
X156452259Y-123792261D01*
X158890000Y-111995685D02*
X158890000Y-111430000D01*
X158890000Y-112746002D02*
X158890000Y-111995685D01*
X161816003Y-114183001D02*
X160326999Y-114183001D01*
X160695003Y-125694999D02*
X164310001Y-122080001D01*
X159718040Y-125694999D02*
X160695003Y-125694999D01*
X160326999Y-114183001D02*
X158890000Y-112746002D01*
X164310001Y-122080001D02*
X164310001Y-116676999D01*
X159718040Y-125694999D02*
X158354997Y-125694999D01*
X139014991Y-99966581D02*
X139014991Y-103535952D01*
X151802760Y-110613758D02*
X146395236Y-110613758D01*
X146395236Y-110613758D02*
X144121000Y-108339522D01*
X144121000Y-108339522D02*
X144121000Y-107279616D01*
X144121000Y-107279616D02*
X144121000Y-106713931D01*
X165983949Y-124021051D02*
X165983949Y-128048949D01*
X167604054Y-122400946D02*
X165983949Y-124021051D01*
X166850001Y-119216999D02*
X163635002Y-116002000D01*
X166850001Y-127182897D02*
X166850001Y-119216999D01*
X165983949Y-128048949D02*
X166850001Y-127182897D01*
X163635002Y-116002000D02*
X161816003Y-114183001D01*
X164310001Y-116676999D02*
X163635002Y-116002000D01*
X154266178Y-90742364D02*
X153744814Y-90221000D01*
X154266178Y-91964402D02*
X154266178Y-90742364D01*
X153744814Y-90221000D02*
X152692915Y-89169101D01*
X154838498Y-91314684D02*
X153744814Y-90221000D01*
X156310425Y-92786611D02*
X155488216Y-91964402D01*
X155488216Y-91964402D02*
X155259827Y-91964402D01*
X156310425Y-93015000D02*
X156310425Y-92786611D01*
X161965003Y-126964999D02*
X160695003Y-125694999D01*
X164899999Y-126964999D02*
X161965003Y-126964999D01*
X165983949Y-128048949D02*
X164899999Y-126964999D01*
D19*
G04 #@! TO.N,ISO_USB_1_VBUS1*
X130823073Y-126035000D02*
X132220000Y-126035000D01*
X128642913Y-123854840D02*
X130823073Y-126035000D01*
X129042912Y-124254839D02*
X128642913Y-123854840D01*
X129431697Y-124643624D02*
X129042912Y-124254839D01*
X131601736Y-124643624D02*
X129431697Y-124643624D01*
X132407660Y-123837700D02*
X131601736Y-124643624D01*
X132407660Y-125847340D02*
X132111051Y-126143949D01*
X132407660Y-123837700D02*
X132407660Y-125847340D01*
G04 #@! TO.N,ISO_USB_7_UD+*
X126065209Y-117888949D02*
X123856051Y-117888949D01*
X128475740Y-120299480D02*
X126065209Y-117888949D01*
X124607899Y-117137101D02*
X123856051Y-117888949D01*
X124607899Y-115710685D02*
X124607899Y-117137101D01*
G04 #@! TO.N,ISO_USB_6_UD\2013*
X127866542Y-123144598D02*
X127085627Y-123144598D01*
X122168949Y-119576051D02*
X124313251Y-119576051D01*
X125260400Y-120523200D02*
X125260400Y-121319371D01*
X124313251Y-119576051D02*
X125260400Y-120523200D01*
X127085627Y-123144598D02*
X125260400Y-121319371D01*
G04 #@! TO.N,ADC1_34_SYNC_OUT*
X168669000Y-106604000D02*
X171590000Y-109525000D01*
X165621000Y-106604000D02*
X168669000Y-106604000D01*
X165017927Y-106000927D02*
X165621000Y-106604000D01*
X161763833Y-106000927D02*
X165017927Y-106000927D01*
G04 #@! TO.N,ADC1_30_DRDY*
X158400999Y-95573999D02*
X158001000Y-95174000D01*
X159356348Y-96529348D02*
X158400999Y-95573999D01*
X159356348Y-102629095D02*
X159356348Y-96529348D01*
X158117064Y-103868379D02*
X159356348Y-102629095D01*
X158117064Y-104434064D02*
X158117064Y-103868379D01*
G04 #@! TO.N,ADC4_30_DRDY*
X153091029Y-91041243D02*
X151918897Y-89869111D01*
X147022894Y-89869111D02*
X145165225Y-91726780D01*
X149619000Y-89869111D02*
X147022894Y-89869111D01*
X151918897Y-89869111D02*
X149619000Y-89869111D01*
D20*
G04 #@! TO.N,POWER_2_VCC*
X174732918Y-82220000D02*
X176035000Y-82220000D01*
X172961600Y-82220000D02*
X174732918Y-82220000D01*
X167780000Y-77038400D02*
X172961600Y-82220000D01*
X167780000Y-73965000D02*
X167780000Y-77038400D01*
D21*
X172852651Y-82111051D02*
X176143949Y-82111051D01*
X170345400Y-79603800D02*
X172852651Y-82111051D01*
X167888949Y-77147349D02*
X167888949Y-73856051D01*
X170345400Y-79603800D02*
X167888949Y-77147349D01*
D20*
G04 #@! TO.N,AINREF-*
X121425000Y-111430000D02*
X121454980Y-111430000D01*
X138570000Y-72775000D02*
X138570000Y-71425000D01*
X139166600Y-79057180D02*
X139166600Y-73371600D01*
X140093700Y-79984280D02*
X139166600Y-79057180D01*
X140093700Y-82403081D02*
X140093700Y-79984280D01*
X132151521Y-90345260D02*
X140093700Y-82403081D01*
X131653979Y-92087001D02*
X132151521Y-91589459D01*
X139166600Y-73371600D02*
X138570000Y-72775000D01*
X124971999Y-92087001D02*
X131653979Y-92087001D01*
X124569999Y-89790997D02*
X124569999Y-91685001D01*
X132151521Y-91589459D02*
X132151521Y-90345260D01*
X124569999Y-91685001D02*
X124971999Y-92087001D01*
X124569999Y-89790997D02*
X124419998Y-89790997D01*
X160903920Y-73037700D02*
X159008919Y-73876079D01*
X175369999Y-91775001D02*
X178575000Y-88570000D01*
X159008919Y-73876079D02*
X158173420Y-74711578D01*
X158173420Y-74711578D02*
X158173420Y-81685696D01*
X158173420Y-81685696D02*
X167001723Y-90513999D01*
X167001723Y-90513999D02*
X167299001Y-90513999D01*
X167299001Y-90513999D02*
X168560003Y-91775001D01*
X168560003Y-91775001D02*
X175369999Y-91775001D01*
D19*
G04 #@! TO.N,ADC1_13_MODE0_GPIO0*
X125075990Y-103386060D02*
X129915001Y-108225071D01*
X129915001Y-108225071D02*
X130315000Y-108625070D01*
X125075990Y-102413000D02*
X125075990Y-103386060D01*
G04 #@! TO.N,ADC1_35_SYNC_IN*
X158799999Y-90836973D02*
X158799999Y-89553001D01*
X160253025Y-92289999D02*
X158799999Y-90836973D01*
X156981998Y-87735000D02*
X155461000Y-87735000D01*
X165875000Y-109615000D02*
X162524206Y-109615000D01*
X162524206Y-109615000D02*
X160538493Y-107629287D01*
X160538493Y-107144999D02*
X159792075Y-106398581D01*
X160830953Y-103875010D02*
X161266001Y-103439962D01*
X161266001Y-92666999D02*
X160889001Y-92289999D01*
X160538493Y-107629287D02*
X160538493Y-107144999D01*
X161266001Y-103439962D02*
X161266001Y-92666999D01*
X158799999Y-89553001D02*
X156981998Y-87735000D01*
X160889001Y-92289999D02*
X160253025Y-92289999D01*
X159792075Y-106398581D02*
X159792075Y-104685925D01*
X159792075Y-104685925D02*
X160602990Y-103875010D01*
X160602990Y-103875010D02*
X160830953Y-103875010D01*
X140891881Y-94865752D02*
X136751360Y-99006273D01*
X141186035Y-94865752D02*
X140891881Y-94865752D01*
X141586034Y-95265751D02*
X141186035Y-94865752D01*
X138752513Y-92432230D02*
X141586034Y-95265751D01*
X135073472Y-90923528D02*
X135073472Y-91680222D01*
X140764109Y-85232891D02*
X135073472Y-90923528D01*
X141530109Y-85232891D02*
X140764109Y-85232891D01*
X144032218Y-87735000D02*
X141530109Y-85232891D01*
X135825480Y-92432230D02*
X138752513Y-92432230D01*
X155461000Y-87735000D02*
X144032218Y-87735000D01*
X136751360Y-100000000D02*
X136751360Y-93358110D01*
X136751360Y-99006273D02*
X136751360Y-100000000D01*
X136751360Y-93358110D02*
X135522000Y-92128750D01*
X135073472Y-91680222D02*
X135522000Y-92128750D01*
X135522000Y-92128750D02*
X135825480Y-92432230D01*
X136751360Y-105374640D02*
X136751360Y-100000000D01*
X133564562Y-108973071D02*
X133564562Y-108277069D01*
X133564562Y-108277069D02*
X134729631Y-107112000D01*
X134079492Y-109488001D02*
X133564562Y-108973071D01*
X139517907Y-109488001D02*
X134079492Y-109488001D01*
X134729631Y-107112000D02*
X135014000Y-107112000D01*
X142294906Y-112265000D02*
X139517907Y-109488001D01*
X135014000Y-107112000D02*
X136751360Y-105374640D01*
X144345727Y-112265000D02*
X142294906Y-112265000D01*
G04 #@! TO.N,MCU_48_PB2_BOOT1*
X124727989Y-101687999D02*
X124219000Y-102196988D01*
X126414999Y-102228315D02*
X125874683Y-101687999D01*
X125874683Y-101687999D02*
X124727989Y-101687999D01*
X126414999Y-102794000D02*
X126414999Y-102228315D01*
X129864990Y-109240988D02*
X129864990Y-109455990D01*
X124219000Y-103594998D02*
X129864990Y-109240988D01*
X124219000Y-102196988D02*
X124219000Y-103594998D01*
X130291940Y-109915488D02*
X130153184Y-110054244D01*
X129864990Y-109455990D02*
X130291940Y-109882940D01*
X130291940Y-109882940D02*
X130291940Y-109915488D01*
D20*
G04 #@! TO.N,CRYSTAL_4_Vin*
X153172460Y-106214328D02*
X150133132Y-103175000D01*
X153172460Y-106754400D02*
X153172460Y-106214328D01*
X150133132Y-103175000D02*
X149365000Y-103175000D01*
X155664388Y-109246328D02*
X153172460Y-106754400D01*
X158224999Y-122829999D02*
X158224999Y-115069859D01*
X159525000Y-124130000D02*
X158224999Y-122829999D01*
X158224999Y-115069859D02*
X155664388Y-112509248D01*
X155664388Y-112509248D02*
X155664388Y-109246328D01*
G04 #@! TD*
M02*
