M48
;DRILL file {KiCad 5.0.2-bee76a0~70~ubuntu16.04.1} date Чт 08 авг 2019 02:08:27
;FORMAT={-:-/ absolute / inch / decimal}
FMAT,2
INCH,TZ
T1C0.0157
T2C0.0236
T3C0.0335
T4C0.0394
%
G90
G05
T1
X-1.0071Y0.4019
X-0.9813Y-0.095
X-0.9471Y-0.7406
X-0.935Y0.135
X-0.9339Y-0.8487
X-0.9285Y-0.11
X-0.9Y-0.0384
X-0.895Y0.1191
X-0.8913Y-0.8935
X-0.8861Y-0.7534
X-0.87Y0.075
X-0.8441Y-0.1191
X-0.8398Y-0.9433
X-0.8275Y-0.0668
X-0.825Y0.05
X-0.7997Y-0.7987
X-0.7927Y-0.9827
X-0.7814Y-0.3958
X-0.775Y-0.3396
X-0.74Y0.345
X-0.7307Y-0.358
X-0.6882Y0.1
X-0.685Y-0.0341
X-0.6638Y0.2207
X-0.6597Y-0.2207
X-0.6187Y0.215
X-0.6187Y-0.215
X-0.6185Y-0.3396
X-0.6Y0.
X-0.56Y-0.345
X-0.5591Y0.3413
X-0.5335Y0.3711
X-0.4734Y-0.2329
X-0.467Y-0.458
X-0.454Y0.2333
X-0.4292Y-0.3088
X-0.3945Y-1.0226
X-0.3944Y-0.4337
X-0.3898Y-0.3098
X-0.375Y0.525
X-0.37Y0.465
X-0.3662Y-0.775
X-0.3658Y0.0112
X-0.36Y-0.0315
X-0.3595Y0.159
X-0.3565Y0.708
X-0.355Y-0.0974
X-0.349Y-0.479
X-0.3475Y-0.7329
X-0.3472Y0.5528
X-0.3405Y-0.1743
X-0.3313Y0.1864
X-0.325Y0.4872
X-0.3185Y-0.0292
X-0.3093Y0.3843
X-0.305Y-0.0885
X-0.3015Y-0.5431
X-0.2919Y0.0021
X-0.2765Y-0.3959
X-0.2733Y-0.5134
X-0.2718Y-0.1633
X-0.2698Y0.1211
X-0.2599Y-0.4375
X-0.2555Y0.0269
X-0.2315Y-0.2643
X-0.225Y-0.15
X-0.2226Y-0.4829
X-0.2185Y-0.6591
X-0.2159Y0.6194
X-0.2154Y0.6593
X-0.215Y-0.6187
X-0.2064Y0.2886
X-0.1937Y-0.2531
X-0.1931Y-0.3099
X-0.1903Y0.3257
X-0.1673Y0.2938
X-0.16Y0.02
X-0.1579Y0.1571
X-0.1504Y0.1958
X-0.1335Y-0.9085
X-0.128Y0.2935
X-0.115Y-0.269
X-0.115Y-0.3164
X-0.1077Y-0.0124
X-0.106Y0.8225
X-0.1057Y-0.8807
X-0.0941Y-0.6961
X-0.0937Y0.3166
X-0.085Y0.355
X-0.06Y0.824
X-0.055Y-0.875
X-0.05Y-0.825
X-0.047Y1.
X-0.04Y0.685
X-0.04Y-0.275
X-0.0384Y0.9215
X-0.0374Y-0.3321
X-0.0293Y0.2488
X-0.025Y-0.125
X-0.021Y0.3449
X-0.02Y-0.06
X-0.008Y0.2145
X-0.0043Y-0.165
X-0.0017Y-0.3487
X0.Y0.6
X0.Y-0.6
X0.0091Y0.3703
X0.02Y0.095
X0.0215Y0.9408
X0.0236Y-0.3795
X0.0243Y-0.2904
X0.0277Y0.2714
X0.0384Y-0.9
X0.04Y0.8841
X0.0441Y-0.675
X0.0451Y0.8195
X0.0451Y0.8195
X0.055Y-0.225
X0.055Y-0.315
X0.0632Y-0.8222
X0.064Y0.2562
X0.0759Y-0.3491
X0.0786Y0.9604
X0.1Y0.025
X0.1Y-0.0144
X0.1009Y-0.2915
X0.105Y0.6809
X0.1058Y0.861
X0.1065Y-0.8195
X0.1211Y0.2785
X0.1217Y0.3527
X0.1225Y0.8176
X0.1582Y0.8342
X0.168Y0.3152
X0.1698Y0.2446
X0.185Y0.1335
X0.1863Y0.2804
X0.1985Y-0.1605
X0.1985Y-0.1998
X0.2043Y-0.2388
X0.215Y0.4829
X0.215Y-0.6187
X0.2156Y-0.6592
X0.217Y0.1564
X0.2199Y0.6597
X0.2206Y0.6203
X0.2265Y0.4452
X0.2517Y-0.07
X0.2517Y-0.07
X0.2534Y0.1714
X0.2607Y-0.1793
X0.2731Y-0.0366
X0.285Y0.412
X0.2859Y0.0018
X0.2939Y-0.3959
X0.2946Y0.225
X0.3133Y-0.1165
X0.315Y0.19
X0.3196Y-0.1746
X0.3355Y-0.0839
X0.3481Y0.4519
X0.35Y-0.45
X0.3588Y-0.3574
X0.36Y-0.72
X0.375Y0.3744
X0.3864Y-0.295
X0.399Y-0.7256
X0.3997Y0.2715
X0.4Y-0.495
X0.4021Y0.403
X0.4293Y1.0615
X0.441Y-0.52
X0.4631Y-0.2363
X0.4789Y-0.3221
X0.4915Y0.253
X0.4951Y-0.9918
X0.4969Y0.4964
X0.4972Y-0.7035
X0.5136Y0.3886
X0.52Y-0.33
X0.525Y-0.675
X0.525Y-0.775
X0.55Y-1.1
X0.57Y-0.525
X0.583Y-0.791
X0.5905Y-0.5595
X0.6Y0.
X0.6133Y0.3573
X0.6194Y0.2159
X0.625Y-0.8505
X0.6297Y-0.2224
X0.6348Y-0.5052
X0.6589Y0.2214
X0.665Y0.34
X0.665Y-0.5392
X0.6688Y-0.2272
X0.68Y0.0391
X0.6913Y-0.1071
X0.6931Y-0.8819
X0.6982Y-0.6658
X0.701Y-0.4565
X0.702Y-1.0161
X0.702Y-1.05
X0.725Y-0.925
X0.775Y0.9851
X0.7758Y-0.49
X0.8077Y-0.5423
X0.8249Y0.0625
X0.825Y-0.05
X0.8253Y0.1018
X0.83Y-0.505
X0.8511Y-0.6739
X0.8529Y-0.5471
X0.87Y-0.06
X0.8837Y-0.1083
X0.9Y0.05
X0.9112Y-0.1365
X0.925Y-0.85
X1.025Y-0.62
X1.0297Y-0.7777
T3
X0.7897Y0.9281
X0.9289Y0.789
X-0.9289Y-0.7897
X-0.7897Y-0.9289
T4
X1.1043Y-0.6293
X1.175Y-0.5586
X1.175Y-0.7
X1.2457Y-0.6293
X-1.225Y0.45
X-1.225Y0.35
X-1.225Y0.25
X-1.225Y0.15
X-1.225Y0.05
X-1.225Y-0.05
X-1.225Y-0.15
X-1.225Y-0.25
X-1.225Y-0.35
X-1.225Y-0.45
X-1.125Y0.45
X-1.125Y0.35
X-1.125Y0.25
X-1.125Y0.15
X-1.125Y0.05
X-1.125Y-0.05
X-1.125Y-0.15
X-1.125Y-0.25
X-1.125Y-0.35
X-1.125Y-0.45
X0.375Y-0.85
X0.375Y-0.95
X-1.1Y-0.775
X-1.0293Y-0.7043
X-0.775Y-1.1
X-0.7043Y-1.0293
X-0.95Y0.375
X-0.85Y0.375
X0.85Y-0.375
X0.95Y-0.375
X-0.375Y-0.85
X-0.375Y-0.95
X-0.95Y-0.375
X-0.85Y-0.375
X1.0293Y0.7043
X1.1Y0.775
X-0.375Y0.95
X-0.375Y0.85
X-0.45Y1.225
X-0.45Y1.125
X-0.35Y1.225
X-0.35Y1.125
X-0.25Y1.225
X-0.25Y1.125
X-0.15Y1.225
X-0.15Y1.125
X-0.05Y1.225
X-0.05Y1.125
X0.05Y1.225
X0.05Y1.125
X0.15Y1.225
X0.15Y1.125
X0.25Y1.225
X0.25Y1.125
X0.35Y1.225
X0.35Y1.125
X0.45Y1.225
X0.45Y1.125
X-0.9Y0.9707
X-0.8293Y1.0414
X-0.8293Y0.9
X-0.7586Y1.1121
X-0.7586Y0.9707
X-0.6879Y1.0414
X0.375Y0.95
X0.375Y0.85
X1.125Y0.45
X1.125Y0.35
X1.125Y0.25
X1.125Y0.15
X1.125Y0.05
X1.125Y-0.05
X1.125Y-0.15
X1.125Y-0.25
X1.125Y-0.35
X1.125Y-0.45
X1.225Y0.45
X1.225Y0.35
X1.225Y0.25
X1.225Y0.15
X1.225Y0.05
X1.225Y-0.05
X1.225Y-0.15
X1.225Y-0.25
X1.225Y-0.35
X1.225Y-0.45
X0.5586Y-1.175
X0.6293Y-1.1043
X0.6293Y-1.2457
X0.7Y-1.175
X0.85Y0.375
X0.95Y0.375
X0.7043Y1.0293
X0.775Y1.1
X-0.45Y-1.125
X-0.45Y-1.225
X-0.35Y-1.125
X-0.35Y-1.225
X-0.25Y-1.125
X-0.25Y-1.225
X-0.15Y-1.125
X-0.15Y-1.225
X-0.05Y-1.125
X-0.05Y-1.225
X0.05Y-1.125
X0.05Y-1.225
X0.15Y-1.125
X0.15Y-1.225
X0.25Y-1.125
X0.25Y-1.225
X0.35Y-1.125
X0.35Y-1.225
X0.45Y-1.125
X0.45Y-1.225
X-1.1121Y0.7586
X-1.0414Y0.8293
X-1.0414Y0.6879
X-0.9707Y0.9
X-0.9707Y0.7586
X-0.9Y0.8293
T2
X0.8273Y1.0214G85X0.8468Y1.0409
G05
X1.0416Y0.846G85X1.0221Y0.8265
G05
X-1.0416Y-0.8468G85X-1.0221Y-0.8273
G05
X-0.8273Y-1.0221G85X-0.8468Y-1.0416
G05
T0
M30
