G04 #@! TF.GenerationSoftware,KiCad,Pcbnew,5.0.2-bee76a0~70~ubuntu16.04.1*
G04 #@! TF.CreationDate,2019-08-08T02:08:13+03:00*
G04 #@! TF.ProjectId,FreeEEG32-alpha1.5,46726565-4545-4473-9332-2d616c706861,rev?*
G04 #@! TF.SameCoordinates,Original*
G04 #@! TF.FileFunction,Copper,L2,Inr*
G04 #@! TF.FilePolarity,Positive*
%FSLAX46Y46*%
G04 Gerber Fmt 4.6, Leading zero omitted, Abs format (unit mm)*
G04 Created by KiCad (PCBNEW 5.0.2-bee76a0~70~ubuntu16.04.1) date Чт 08 авг 2019 02:08:13*
%MOMM*%
%LPD*%
G01*
G04 APERTURE LIST*
G04 #@! TA.AperFunction,ViaPad*
%ADD10C,1.700000*%
G04 #@! TD*
G04 #@! TA.AperFunction,Conductor*
%ADD11C,1.700000*%
G04 #@! TD*
G04 #@! TA.AperFunction,Conductor*
%ADD12C,0.100000*%
G04 #@! TD*
G04 #@! TA.AperFunction,ViaPad*
%ADD13C,1.200000*%
G04 #@! TD*
G04 #@! TA.AperFunction,Conductor*
%ADD14C,1.200000*%
G04 #@! TD*
G04 #@! TA.AperFunction,ViaPad*
%ADD15C,1.450000*%
G04 #@! TD*
G04 #@! TA.AperFunction,ViaPad*
%ADD16R,1.700000X1.700000*%
G04 #@! TD*
G04 #@! TA.AperFunction,ViaPad*
%ADD17O,1.700000X1.700000*%
G04 #@! TD*
G04 #@! TA.AperFunction,ViaPad*
%ADD18C,0.800000*%
G04 #@! TD*
G04 #@! TA.AperFunction,Conductor*
%ADD19C,0.250000*%
G04 #@! TD*
G04 #@! TA.AperFunction,Conductor*
%ADD20C,0.750000*%
G04 #@! TD*
G04 #@! TA.AperFunction,Conductor*
%ADD21C,0.500000*%
G04 #@! TD*
G04 APERTURE END LIST*
D10*
G04 #@! TO.N,ISO_SPI_11_IND*
G04 #@! TO.C,J57*
X-22860000Y24656051D03*
D11*
X-22860000Y24656051D02*
X-22860000Y24656051D01*
D10*
G04 #@! TO.N,ISO_SPI_12_OUTC*
X-21063948Y22860000D03*
D11*
X-21063948Y22860000D02*
X-21063948Y22860000D01*
D10*
G04 #@! TO.N,ISO_SPI_13_OUTB*
X-21063948Y26452102D03*
D11*
X-21063948Y26452102D02*
X-21063948Y26452102D01*
D10*
G04 #@! TO.N,ISO_SPI_14_OUTA*
X-19267897Y24656051D03*
D11*
X-19267897Y24656051D02*
X-19267897Y24656051D01*
D10*
G04 #@! TO.N,ISO_SPI_15_GND2*
X-19267897Y28248153D03*
D11*
X-19267897Y28248153D02*
X-19267897Y28248153D01*
D10*
G04 #@! TO.N,ISO_SPI_16_VCC2*
X-17471846Y26452102D03*
D12*
G36*
X-18673928Y26452102D02*
X-17471846Y27654184D01*
X-16269764Y26452102D01*
X-17471846Y25250020D01*
X-18673928Y26452102D01*
X-18673928Y26452102D01*
G37*
G04 #@! TD*
D10*
G04 #@! TO.N,MCU_25_NRST*
G04 #@! TO.C,J82*
X31641051Y-15983949D03*
D11*
X31641051Y-15983949D02*
X31641051Y-15983949D01*
D10*
G04 #@! TO.N,MCU_48_PB2_BOOT1*
X29845000Y-14187898D03*
D11*
X29845000Y-14187898D02*
X29845000Y-14187898D01*
D10*
G04 #@! TO.N,MCU_105_PA13_SYS_JTMS-SWDIO*
X29845000Y-17780000D03*
D11*
X29845000Y-17780000D02*
X29845000Y-17780000D01*
D10*
G04 #@! TO.N,MCU_109_PA14_SYS_JTCK-SWCLK*
X28048949Y-15983949D03*
D12*
G36*
X29251031Y-15983949D02*
X28048949Y-17186031D01*
X26846867Y-15983949D01*
X28048949Y-14781867D01*
X29251031Y-15983949D01*
X29251031Y-15983949D01*
G37*
G04 #@! TD*
D10*
G04 #@! TO.N,ISO_USB_2_GND1*
G04 #@! TO.C,J63*
X-19685000Y-27940000D03*
D11*
X-19685000Y-27940000D02*
X-19685000Y-27940000D01*
D10*
G04 #@! TO.N,ISO_USB_1_VBUS1*
X-17888949Y-26143949D03*
D12*
G36*
X-17888949Y-27346031D02*
X-19091031Y-26143949D01*
X-17888949Y-24941867D01*
X-16686867Y-26143949D01*
X-17888949Y-27346031D01*
X-17888949Y-27346031D01*
G37*
G04 #@! TD*
D10*
G04 #@! TO.N,ISO_USB_6_UD\2013*
G04 #@! TO.C,J64*
X-27940000Y-19685000D03*
D11*
X-27940000Y-19685000D02*
X-27940000Y-19685000D01*
D10*
G04 #@! TO.N,ISO_USB_7_UD+*
X-26143949Y-17888949D03*
D12*
G36*
X-26143949Y-19091031D02*
X-27346031Y-17888949D01*
X-26143949Y-16686867D01*
X-24941867Y-17888949D01*
X-26143949Y-19091031D01*
X-26143949Y-19091031D01*
G37*
G04 #@! TD*
D10*
G04 #@! TO.N,POWER_2_VCC*
G04 #@! TO.C,J62*
X26143949Y17888949D03*
D12*
G36*
X26143949Y19091031D02*
X27346031Y17888949D01*
X26143949Y16686867D01*
X24941867Y17888949D01*
X26143949Y19091031D01*
X26143949Y19091031D01*
G37*
D10*
G04 #@! TO.N,POWER_1_GND*
X27940000Y19685000D03*
D11*
X27940000Y19685000D02*
X27940000Y19685000D01*
G04 #@! TD*
D10*
G04 #@! TO.N,POWER_1_GND*
G04 #@! TO.C,J61*
X19685000Y27940000D03*
D11*
X19685000Y27940000D02*
X19685000Y27940000D01*
D10*
G04 #@! TO.N,POWER_2_VCC*
X17888949Y26143949D03*
D12*
G36*
X17888949Y27346031D02*
X19091031Y26143949D01*
X17888949Y24941867D01*
X16686867Y26143949D01*
X17888949Y27346031D01*
X17888949Y27346031D01*
G37*
G04 #@! TD*
D10*
G04 #@! TO.N,ISO_UART_15_GND2*
G04 #@! TO.C,J58*
X-28248154Y19267898D03*
D11*
X-28248154Y19267898D02*
X-28248154Y19267898D01*
D10*
G04 #@! TO.N,ISO_UART_16_VCC2*
X-26452102Y17471847D03*
D11*
X-26452102Y17471847D02*
X-26452102Y17471847D01*
D10*
G04 #@! TO.N,ISO_UART_13_OUTB*
X-26452102Y21063949D03*
D11*
X-26452102Y21063949D02*
X-26452102Y21063949D01*
D10*
G04 #@! TO.N,ISO_UART_14_OUTA*
X-24656051Y19267898D03*
D11*
X-24656051Y19267898D02*
X-24656051Y19267898D01*
D10*
G04 #@! TO.N,ISO_UART_11_IND*
X-24656051Y22860000D03*
D11*
X-24656051Y22860000D02*
X-24656051Y22860000D01*
D10*
G04 #@! TO.N,ISO_UART_12_INC*
X-22860000Y21063949D03*
D12*
G36*
X-24062082Y21063949D02*
X-22860000Y22266031D01*
X-21657918Y21063949D01*
X-22860000Y19861867D01*
X-24062082Y21063949D01*
X-24062082Y21063949D01*
G37*
G04 #@! TD*
D13*
G04 #@! TO.N,/USB_DATA/6_Shield*
G04 #@! TO.C,J51*
X-26209918Y-21260171D03*
D14*
X-26457405Y-21507658D02*
X-25962431Y-21012684D01*
D13*
X-21260171Y-26209918D03*
D14*
X-21012684Y-25962431D02*
X-21507658Y-26457405D01*
D15*
X-23593623Y-20058089D03*
X-20058089Y-23593623D03*
G04 #@! TD*
D13*
G04 #@! TO.N,/USB_POWER/6_Shield*
G04 #@! TO.C,J37*
X21260171Y26191174D03*
D14*
X21012684Y25943687D02*
X21507658Y26438661D01*
D13*
X26209918Y21241427D03*
D14*
X26457405Y21488914D02*
X25962431Y20993940D01*
D15*
X20058089Y23574879D03*
X23593623Y20039345D03*
G04 #@! TD*
D16*
G04 #@! TO.N,AINREF-*
G04 #@! TO.C,J53*
X28575000Y11430000D03*
D17*
G04 #@! TO.N,ADC1_57_VCM*
X31115000Y11430000D03*
G04 #@! TO.N,/ADC1/11_AIN3-*
X28575000Y8890000D03*
G04 #@! TO.N,/ADC1/12_AIN3+*
X31115000Y8890000D03*
G04 #@! TO.N,/ADC1/9_AIN2-*
X28575000Y6350000D03*
G04 #@! TO.N,/ADC1/10_AIN2+*
X31115000Y6350000D03*
G04 #@! TO.N,/ADC1/3_AIN1-*
X28575000Y3810000D03*
G04 #@! TO.N,/ADC1/4_AIN1+*
X31115000Y3810000D03*
G04 #@! TO.N,/ADC1/1_AIN0-*
X28575000Y1270000D03*
G04 #@! TO.N,/ADC1/2_AIN0+*
X31115000Y1270000D03*
G04 #@! TO.N,/ADC1/48_AIN4-*
X28575000Y-1270000D03*
G04 #@! TO.N,/ADC1/47_AIN4+*
X31115000Y-1270000D03*
G04 #@! TO.N,/ADC1/46_AIN5-*
X28575000Y-3810000D03*
G04 #@! TO.N,/ADC1/45_AIN5+*
X31115000Y-3810000D03*
G04 #@! TO.N,/ADC1/40_AIN6-*
X28575000Y-6350000D03*
G04 #@! TO.N,/ADC1/39_AIN6+*
X31115000Y-6350000D03*
G04 #@! TO.N,/ADC1/38_AIN7-*
X28575000Y-8890000D03*
G04 #@! TO.N,/ADC1/37_AIN7+*
X31115000Y-8890000D03*
G04 #@! TO.N,ACC_6_GND*
X28575000Y-11430000D03*
G04 #@! TO.N,ADC1_43_AVDD1B*
X31115000Y-11430000D03*
G04 #@! TD*
G04 #@! TO.N,ADC1_43_AVDD1B*
G04 #@! TO.C,J54*
X-11430000Y-31115000D03*
G04 #@! TO.N,ACC_6_GND*
X-11430000Y-28575000D03*
G04 #@! TO.N,/ADC2/37_AIN7+*
X-8890000Y-31115000D03*
G04 #@! TO.N,/ADC2/38_AIN7-*
X-8890000Y-28575000D03*
G04 #@! TO.N,/ADC2/39_AIN6+*
X-6350000Y-31115000D03*
G04 #@! TO.N,/ADC2/40_AIN6-*
X-6350000Y-28575000D03*
G04 #@! TO.N,/ADC2/45_AIN5+*
X-3810000Y-31115000D03*
G04 #@! TO.N,/ADC2/46_AIN5-*
X-3810000Y-28575000D03*
G04 #@! TO.N,/ADC2/47_AIN4+*
X-1270000Y-31115000D03*
G04 #@! TO.N,/ADC2/48_AIN4-*
X-1270000Y-28575000D03*
G04 #@! TO.N,/ADC2/2_AIN0+*
X1270000Y-31115000D03*
G04 #@! TO.N,/ADC2/1_AIN0-*
X1270000Y-28575000D03*
G04 #@! TO.N,/ADC2/4_AIN1+*
X3810000Y-31115000D03*
G04 #@! TO.N,/ADC2/3_AIN1-*
X3810000Y-28575000D03*
G04 #@! TO.N,/ADC2/10_AIN2+*
X6350000Y-31115000D03*
G04 #@! TO.N,/ADC2/9_AIN2-*
X6350000Y-28575000D03*
G04 #@! TO.N,/ADC2/12_AIN3+*
X8890000Y-31115000D03*
G04 #@! TO.N,/ADC2/11_AIN3-*
X8890000Y-28575000D03*
G04 #@! TO.N,ADC1_57_VCM*
X11430000Y-31115000D03*
D16*
G04 #@! TO.N,AINREF-*
X11430000Y-28575000D03*
G04 #@! TD*
G04 #@! TO.N,AINREF-*
G04 #@! TO.C,J55*
X-28575000Y-11430000D03*
D17*
G04 #@! TO.N,ADC1_57_VCM*
X-31115000Y-11430000D03*
G04 #@! TO.N,/ADC3/11_AIN3-*
X-28575000Y-8890000D03*
G04 #@! TO.N,/ADC3/12_AIN3+*
X-31115000Y-8890000D03*
G04 #@! TO.N,/ADC3/9_AIN2-*
X-28575000Y-6350000D03*
G04 #@! TO.N,/ADC3/10_AIN2+*
X-31115000Y-6350000D03*
G04 #@! TO.N,/ADC3/3_AIN1-*
X-28575000Y-3810000D03*
G04 #@! TO.N,/ADC3/4_AIN1+*
X-31115000Y-3810000D03*
G04 #@! TO.N,/ADC3/1_AIN0-*
X-28575000Y-1270000D03*
G04 #@! TO.N,/ADC3/2_AIN0+*
X-31115000Y-1270000D03*
G04 #@! TO.N,/ADC3/48_AIN4-*
X-28575000Y1270000D03*
G04 #@! TO.N,/ADC3/47_AIN4+*
X-31115000Y1270000D03*
G04 #@! TO.N,/ADC3/46_AIN5-*
X-28575000Y3810000D03*
G04 #@! TO.N,/ADC3/45_AIN5+*
X-31115000Y3810000D03*
G04 #@! TO.N,/ADC3/40_AIN6-*
X-28575000Y6350000D03*
G04 #@! TO.N,/ADC3/39_AIN6+*
X-31115000Y6350000D03*
G04 #@! TO.N,/ADC3/38_AIN7-*
X-28575000Y8890000D03*
G04 #@! TO.N,/ADC3/37_AIN7+*
X-31115000Y8890000D03*
G04 #@! TO.N,ACC_6_GND*
X-28575000Y11430000D03*
G04 #@! TO.N,ADC1_43_AVDD1B*
X-31115000Y11430000D03*
G04 #@! TD*
G04 #@! TO.N,ADC1_43_AVDD1B*
G04 #@! TO.C,J56*
X11430000Y31115000D03*
G04 #@! TO.N,ACC_6_GND*
X11430000Y28575000D03*
G04 #@! TO.N,/ADC4/37_AIN7+*
X8890000Y31115000D03*
G04 #@! TO.N,/ADC4/38_AIN7-*
X8890000Y28575000D03*
G04 #@! TO.N,/ADC4/39_AIN6+*
X6350000Y31115000D03*
G04 #@! TO.N,/ADC4/40_AIN6-*
X6350000Y28575000D03*
G04 #@! TO.N,/ADC4/45_AIN5+*
X3810000Y31115000D03*
G04 #@! TO.N,/ADC4/46_AIN5-*
X3810000Y28575000D03*
G04 #@! TO.N,/ADC4/47_AIN4+*
X1270000Y31115000D03*
G04 #@! TO.N,/ADC4/48_AIN4-*
X1270000Y28575000D03*
G04 #@! TO.N,ADC4_AIN0+*
X-1270000Y31115000D03*
G04 #@! TO.N,ADC4_AIN0-*
X-1270000Y28575000D03*
G04 #@! TO.N,ADC4_AIN1+*
X-3810000Y31115000D03*
G04 #@! TO.N,ADC4_AIN1-*
X-3810000Y28575000D03*
G04 #@! TO.N,ADC4_AIN2+*
X-6350000Y31115000D03*
G04 #@! TO.N,ADC4_AIN2-*
X-6350000Y28575000D03*
G04 #@! TO.N,ADC4_AIN3+*
X-8890000Y31115000D03*
G04 #@! TO.N,ADC4_AIN3-*
X-8890000Y28575000D03*
G04 #@! TO.N,ADC1_57_VCM*
X-11430000Y31115000D03*
D16*
G04 #@! TO.N,AINREF-*
X-11430000Y28575000D03*
G04 #@! TD*
D17*
G04 #@! TO.N,ADC1_34_SYNC_OUT*
G04 #@! TO.C,J65*
X21590000Y-9525000D03*
D16*
G04 #@! TO.N,ADC1_35_SYNC_IN*
X24130000Y-9525000D03*
G04 #@! TD*
D17*
G04 #@! TO.N,ADC1_14_MODE1_GPIO1*
G04 #@! TO.C,J69*
X21590000Y9525000D03*
D16*
G04 #@! TO.N,ADC1_13_MODE0_GPIO0*
X24130000Y9525000D03*
G04 #@! TD*
G04 #@! TO.N,ADC1_32_XTAL2_MCLK*
G04 #@! TO.C,J73*
X-24130000Y9525000D03*
D17*
G04 #@! TO.N,CRYSTAL_3_OUT*
X-21590000Y9525000D03*
G04 #@! TD*
D16*
G04 #@! TO.N,MCU_11_PF1_I2C2_SCL*
G04 #@! TO.C,J78*
X-9525000Y-24130000D03*
D17*
G04 #@! TO.N,MCU_10_PF0_I2C2_SDA*
X-9525000Y-21590000D03*
G04 #@! TD*
G04 #@! TO.N,ADC1_41_REF2+*
G04 #@! TO.C,J79*
X-21590000Y-9525000D03*
D16*
G04 #@! TO.N,ACC_6_GND*
X-24130000Y-9525000D03*
G04 #@! TD*
G04 #@! TO.N,CRYSTAL_4_Vin*
G04 #@! TO.C,J80*
X9525000Y-24130000D03*
D17*
G04 #@! TO.N,ADC1_24_IOVDD*
X9525000Y-21590000D03*
G04 #@! TD*
G04 #@! TO.N,AVDD_1_IN*
G04 #@! TO.C,J81*
X9525000Y21590000D03*
D16*
G04 #@! TO.N,ACC_6_GND*
X9525000Y24130000D03*
G04 #@! TD*
D10*
G04 #@! TO.N,MCU_138_BOOT0*
G04 #@! TO.C,J83*
X14187898Y-29845000D03*
D12*
G36*
X15389980Y-29845000D02*
X14187898Y-31047082D01*
X12985816Y-29845000D01*
X14187898Y-28642918D01*
X15389980Y-29845000D01*
X15389980Y-29845000D01*
G37*
D10*
G04 #@! TO.N,AVDD_1_IN*
X15983949Y-31641051D03*
D11*
X15983949Y-31641051D02*
X15983949Y-31641051D01*
D10*
G04 #@! TO.N,ACC_12_CS*
X15983949Y-28048949D03*
D11*
X15983949Y-28048949D02*
X15983949Y-28048949D01*
D10*
G04 #@! TO.N,ACC_6_GND*
X17780000Y-29845000D03*
D11*
X17780000Y-29845000D02*
X17780000Y-29845000D01*
G04 #@! TD*
D16*
G04 #@! TO.N,ACC_12_CS*
G04 #@! TO.C,J85*
X-9525000Y24130000D03*
D17*
G04 #@! TO.N,ADC1_43_AVDD1B*
X-9525000Y21590000D03*
G04 #@! TD*
D18*
G04 #@! TO.N,/ADC1/49_REF_OUT*
X23145648Y-3467570D03*
G04 #@! TO.N,/ADC1/51_AREG2CAP*
X22447055Y-2752049D03*
G04 #@! TO.N,/ADC1/59_AREG1CAP*
X20951758Y1586695D03*
G04 #@! TO.N,/ADC2/49_REF_OUT*
X-3391324Y-23076324D03*
G04 #@! TO.N,/ADC2/51_AREG2CAP*
X-2684216Y-22369216D03*
G04 #@! TO.N,/ADC2/59_AREG1CAP*
X1606504Y-20884463D03*
G04 #@! TO.N,/ADC3/49_REF_OUT*
X-23749000Y3429000D03*
G04 #@! TO.N,/ADC3/51_AREG2CAP*
X-22733000Y3025000D03*
G04 #@! TO.N,/ADC3/59_AREG1CAP*
X-21018823Y-1696852D03*
G04 #@! TO.N,/ADC4/49_REF_OUT*
X4017993Y21189345D03*
G04 #@! TO.N,/ADC4/51_AREG2CAP*
X3111499Y20767122D03*
G04 #@! TO.N,/ADC4/59_AREG1CAP*
X-1524000Y20929600D03*
G04 #@! TO.N,/MCU/23_PH0*
X-11860636Y-11634364D03*
G04 #@! TO.N,/MCU/24_PH1*
X-9899734Y-7867734D03*
G04 #@! TO.N,/MCU/9_PC15*
X-6942120Y-13040160D03*
X-10018690Y-11016559D03*
G04 #@! TO.N,/MCU/8_PC14*
X-7658400Y-13794540D03*
G04 #@! TO.N,ADC1_24_IOVDD*
X230253Y9405888D03*
X-20955000Y1270000D03*
X-1270000Y-20955000D03*
X20955000Y-1270000D03*
X-9291935Y283491D03*
X-43189Y-8857101D03*
X1145941Y20815600D03*
X1145941Y20815600D03*
X9113481Y-9078127D03*
X6936535Y-930138D03*
G04 #@! TO.N,ADC1_23_DREGCAP*
X7262981Y46821D03*
G04 #@! TO.N,ADC1_41_REF2+*
X5602986Y15756070D03*
X-5484535Y15732715D03*
X5461000Y-15715000D03*
X-5461000Y-15715000D03*
X15732712Y5484541D03*
X-15715000Y5461000D03*
X-15715000Y-5461000D03*
X547000Y23896905D03*
X15993871Y-5649322D03*
G04 #@! TO.N,ADC1_43_AVDD1B*
X5585977Y16755927D03*
X-5471102Y16747262D03*
X5477258Y-16744469D03*
X-5548875Y-16740316D03*
X16736815Y5624583D03*
X-16859571Y5605849D03*
X-16756128Y-5604881D03*
X-21440668Y-3024380D03*
X20961944Y2586645D03*
X-22098000Y1905000D03*
X-1397000Y-22225000D03*
X22098000Y-1524000D03*
X22860000Y1270000D03*
X-975000Y23405000D03*
X-22860000Y-975000D03*
X975000Y-22860000D03*
X13044473Y9869473D03*
X1997001Y24395002D03*
X-2692359Y20892581D03*
X1016215Y22457108D03*
X2705036Y-20814200D03*
X16986598Y-5769723D03*
G04 #@! TO.N,ADC2_23_DREGCAP*
X599946Y-9638757D03*
G04 #@! TO.N,ADC3_23_DREGCAP*
X-9144000Y-798999D03*
G04 #@! TO.N,ADC4_23_DREGCAP*
X-533952Y8760911D03*
G04 #@! TO.N,AVDD_1_IN*
X10160000Y-12573000D03*
X10214210Y10235592D03*
X13970000Y-27940000D03*
X17831900Y-26670000D03*
X17831900Y-25810098D03*
G04 #@! TO.N,ACC_6_GND*
X-15240000Y0D03*
X0Y15240000D03*
X15240000Y0D03*
X0Y-15240000D03*
X9525000Y9511028D03*
X-9525000Y13335000D03*
X23495000Y-21590000D03*
X9144000Y-18288000D03*
X2686149Y21868159D03*
X-1016000Y17399000D03*
X1120000Y-17145000D03*
X5752025Y11308282D03*
X12621847Y12607875D03*
X-1193800Y25400000D03*
X2667000Y17295000D03*
X11201400Y-13208000D03*
X-17399000Y-866000D03*
X-17480131Y2540000D03*
X17272000Y993000D03*
X17559266Y-2719125D03*
X-2390000Y-17680894D03*
X-12024908Y-5914500D03*
X-18560458Y-9093000D03*
X-8864877Y-12166877D03*
X18415000Y-23495000D03*
X-9398000Y11811000D03*
X508000Y2413000D03*
X-13550693Y9427001D03*
G04 #@! TO.N,ACC_12_CS*
X-8817892Y14042108D03*
X8890000Y-11430000D03*
X-5879000Y-6713931D03*
X21618291Y-17116709D03*
X17604054Y-22400946D03*
X9813492Y-7493000D03*
X-15710436Y-8625070D03*
X-14201527Y8667779D03*
X-7855001Y9760001D03*
X10151640Y6895553D03*
X4266177Y8006222D03*
X-8255000Y12374880D03*
G04 #@! TO.N,ISO_USB_2_GND1*
X-23721882Y-21556174D03*
G04 #@! TO.N,ISO_USB_3_VDD1*
X-20312380Y-20286980D03*
G04 #@! TO.N,ISO_USB_7_UD+*
X-22638184Y-22693871D03*
G04 #@! TO.N,ISO_USB_6_UD\2013*
X-21331501Y-23959753D03*
G04 #@! TO.N,ADC1_36_RESET*
X12163440Y-8181232D03*
G04 #@! TO.N,ADC1_34_SYNC_OUT*
X11763833Y-6000927D03*
G04 #@! TO.N,ADC1_33_START*
X13208000Y-8382000D03*
X17805981Y-11594000D03*
X16124347Y-12831653D03*
G04 #@! TO.N,ADC1_32_XTAL2_MCLK*
X5188206Y-6065011D03*
X616130Y-7376304D03*
X-18796000Y8763000D03*
G04 #@! TO.N,ADC1_30_DRDY*
X8117064Y-4434064D03*
X8001000Y4826000D03*
G04 #@! TO.N,ACC_6_GND*
X7466105Y-10054834D03*
G04 #@! TO.N,ADC1_30_DRDY*
X-6854020Y3074930D03*
G04 #@! TO.N,ADC1_29_DCLK*
X6393030Y-1778000D03*
X6393030Y-1778000D03*
G04 #@! TO.N,ADC1_28_DOUT0*
X7959011Y-2958000D03*
G04 #@! TO.N,ADC1_27_DOUT1*
X8521393Y-2131121D03*
G04 #@! TO.N,ADC1_21_DCLK0_SDO*
X6620849Y-4555151D03*
G04 #@! TO.N,ADC1_20_DCLK1_SDI*
X5043000Y-5075609D03*
G04 #@! TO.N,ADC1_19_DCLK2_SCLK*
X5043000Y-4075606D03*
G04 #@! TO.N,ADC1_18_ALERT_CS*
X7482767Y5715000D03*
G04 #@! TO.N,ADC2_36_RESET*
X-4920263Y-6429633D03*
G04 #@! TO.N,ADC2_33_START*
X-4904000Y-7871520D03*
G04 #@! TO.N,ADC2_30_DRDY*
X-2920999Y-8036728D03*
G04 #@! TO.N,ADC2_29_DCLK*
X-2920999Y-6832400D03*
G04 #@! TO.N,ADC2_28_DOUT0*
X-1016000Y-6985000D03*
G04 #@! TO.N,ADC2_27_DOUT1*
X-949739Y-8435001D03*
G04 #@! TO.N,ADC2_21_DCLK0_SDO*
X1397000Y-8001000D03*
G04 #@! TO.N,ADC2_20_DCLK1_SDI*
X1927248Y-8867752D03*
G04 #@! TO.N,ADC2_19_DCLK2_SCLK*
X2563058Y-7403000D03*
G04 #@! TO.N,ADC2_18_ALERT_CS*
X1397000Y-5715000D03*
G04 #@! TO.N,ADC3_36_RESET*
X-11532436Y5925010D03*
G04 #@! TO.N,ADC3_33_START*
X-9131570Y4037795D03*
G04 #@! TO.N,ADC3_30_DRDY*
X-8649964Y-4427995D03*
G04 #@! TO.N,ADC3_29_DCLK*
X-5715000Y-3810000D03*
G04 #@! TO.N,ADC3_28_DOUT0*
X-6902565Y-4149011D03*
G04 #@! TO.N,ADC3_27_DOUT1*
X-8091000Y-740854D03*
X-108870Y-4191000D03*
X-508000Y-1524000D03*
G04 #@! TO.N,ADC3_21_DCLK0_SDO*
X-7747000Y-2249000D03*
G04 #@! TO.N,ADC3_20_DCLK1_SDI*
X-9017000Y-2475000D03*
G04 #@! TO.N,ADC3_19_DCLK2_SCLK*
X-7414488Y52842D03*
G04 #@! TO.N,ADC3_18_ALERT_CS*
X-6490011Y682837D03*
G04 #@! TO.N,ADC4_36_RESET*
X4313236Y6212651D03*
G04 #@! TO.N,ADC4_33_START*
X4731397Y7121026D03*
G04 #@! TO.N,ADC4_30_DRDY*
X3091029Y8958757D03*
X-4834775Y8273220D03*
G04 #@! TO.N,ADC4_29_DCLK*
X-5241819Y7329614D03*
X3076486Y7074209D03*
G04 #@! TO.N,ADC4_28_DOUT0*
X1626250Y6508295D03*
G04 #@! TO.N,ADC4_27_DOUT1*
X703436Y6893544D03*
G04 #@! TO.N,ADC4_21_DCLK0_SDO*
X-2159000Y9017000D03*
G04 #@! TO.N,ADC4_20_DCLK1_SDI*
X-2380199Y8041771D03*
G04 #@! TO.N,ADC4_19_DCLK2_SCLK*
X-3250582Y7456000D03*
G04 #@! TO.N,ADC4_18_ALERT_CS*
X-4250567Y7461614D03*
G04 #@! TO.N,MCU_138_BOOT0*
X15875000Y-21601770D03*
G04 #@! TO.N,ISO_USB_10_DD+*
X2540000Y635000D03*
X-4064000Y508000D03*
X-14224000Y-8763000D03*
X7239000Y10464800D03*
G04 #@! TO.N,ISO_USB_11_DD\2013*
X8841160Y11478840D03*
X-2735585Y-316121D03*
X2540000Y-365003D03*
X-10900574Y-7843269D03*
G04 #@! TO.N,MCU_25_NRST*
X26153812Y-19752918D03*
G04 #@! TO.N,ACC_9_INT2*
X10133952Y-18429421D03*
G04 #@! TO.N,ACC_4_INT1*
X13335000Y-19685000D03*
G04 #@! TO.N,ACC_13_SCL*
X13335000Y-17145000D03*
G04 #@! TO.N,ACC_14_SDA*
X12627892Y-17870000D03*
G04 #@! TO.N,ACC_12_CS*
X17734003Y-16911597D03*
G04 #@! TO.N,ISO_UART_3_INA*
X-4011670Y3991520D03*
G04 #@! TO.N,ISO_UART_4_INB*
X-744631Y6320157D03*
G04 #@! TO.N,ISO_UART_6_OUTD*
X-203134Y5447557D03*
G04 #@! TO.N,POWER_1_GND*
X19685000Y25020960D03*
G04 #@! TO.N,ISO_UART_5_OUTC*
X-3819965Y4972974D03*
G04 #@! TO.N,Net-(R99-Pad1)*
X-20134580Y-24960580D03*
X-22506973Y-19136720D03*
G04 #@! TO.N,Net-(R100-Pad1)*
X-24056340Y-18811240D03*
G04 #@! TO.N,AINREF-*
X-25580002Y10209003D03*
X-10019820Y-25973881D03*
X10903920Y26962300D03*
G04 #@! TO.N,ADC1_13_MODE0_GPIO0*
X-9055400Y17983400D03*
X15576583Y9075078D03*
X-19685000Y-8625070D03*
X-24924010Y-2413000D03*
X-8825688Y-18615618D03*
X12576291Y-25192571D03*
G04 #@! TO.N,ADC1_35_SYNC_IN*
X5461000Y12265000D03*
X-8413966Y4734249D03*
X-5654273Y-12265000D03*
G04 #@! TO.N,ACC_1_SDO_SAO*
X14808200Y-20091400D03*
G04 #@! TO.N,MCU_112_PC11_SDMMC1_D3*
X16891000Y-13695998D03*
X19705990Y-12446000D03*
G04 #@! TO.N,MCU_111_PC10_SDMMC1_D2*
X14999627Y-14210373D03*
X21082000Y-12827000D03*
G04 #@! TO.N,MCU_105_PA13_SYS_JTMS-SWDIO*
X16891000Y8636000D03*
X12483113Y6425052D03*
G04 #@! TO.N,MCU_99_PC9_SDMMC1_D1*
X21663511Y-13896489D03*
X4699000Y3392000D03*
G04 #@! TO.N,MCU_98_PC8_SDMMC1_D0*
X20515858Y-13774142D03*
X5512375Y3973744D03*
G04 #@! TO.N,MCU_97_PC7_SDMMC1_DETECT*
X6437306Y4353882D03*
X14478000Y-13335000D03*
G04 #@! TO.N,MCU_48_PB2_BOOT1*
X-23585001Y-2794000D03*
X-9300729Y-19685000D03*
X26035000Y-15748000D03*
X-19846816Y-10054244D03*
G04 #@! TO.N,MCU_11_PF1_I2C2_SCL*
X-7021855Y-10054776D03*
G04 #@! TO.N,MCU_10_PF0_I2C2_SDA*
X-6600312Y-11112732D03*
G04 #@! TO.N,CRYSTAL_4_Vin*
X-635000Y-3175000D03*
G04 #@! TD*
D19*
G04 #@! TO.N,/MCU/9_PC15*
X-6942120Y-13040160D02*
X-7682122Y-12891878D01*
X-9212878Y-12891878D02*
X-7682122Y-12891878D01*
X-10018690Y-12086066D02*
X-9212878Y-12891878D01*
X-10018690Y-11016559D02*
X-10018690Y-12086066D01*
D20*
G04 #@! TO.N,ADC1_24_IOVDD*
X6758320Y-9078127D02*
X8547796Y-9078127D01*
X-7648154Y2000001D02*
X-2588999Y2000001D01*
X-8891936Y756219D02*
X-7648154Y2000001D01*
X-8891936Y683490D02*
X-8891936Y756219D01*
X7063953Y-9078127D02*
X9113481Y-9078127D01*
X6758320Y-9078127D02*
X7063953Y-9078127D01*
X4067999Y-5153660D02*
X4067999Y-6387806D01*
X4067999Y-4656997D02*
X4067999Y-5153660D01*
X-586458Y-2540D02*
X4067999Y-4656997D01*
X-2588999Y2000001D02*
X-586458Y-2540D01*
X10374999Y-20740001D02*
X9525000Y-21590000D01*
X11108953Y-20006047D02*
X10374999Y-20740001D01*
X11108953Y-16534393D02*
X11108953Y-20006047D01*
X7939990Y-13365430D02*
X11108953Y-16534393D01*
X7063953Y-9078127D02*
X6489398Y-9652682D01*
X6489398Y-10652760D02*
X7939990Y-12103352D01*
X6489398Y-9652682D02*
X6489398Y-10652760D01*
D21*
X-2070999Y-8824217D02*
X-1433001Y-9462215D01*
X-1433001Y-9462215D02*
X-648303Y-9462215D01*
X-648303Y-9462215D02*
X-443188Y-9257100D01*
X-2070999Y-7620000D02*
X-2070999Y-8824217D01*
X8547796Y-9078127D02*
X9113481Y-9078127D01*
X6943320Y-9078127D02*
X8547796Y-9078127D01*
X630252Y8667113D02*
X630252Y9005889D01*
X-424357Y7910910D02*
X-125951Y7910910D01*
X-125951Y7910910D02*
X630252Y8667113D01*
X-443188Y-9257100D02*
X-43189Y-8857101D01*
X-471090Y-9285002D02*
X-443188Y-9257100D01*
X-1357740Y-9285002D02*
X-471090Y-9285002D01*
X-1866001Y-1623999D02*
X-1866001Y-8776741D01*
X-916001Y-673999D02*
X-1866001Y-1623999D01*
X-99999Y-673999D02*
X-916001Y-673999D01*
X3872470Y-4646468D02*
X-99999Y-673999D01*
X-1866001Y-8776741D02*
X-1357740Y-9285002D01*
X-7700425Y1875001D02*
X-8891936Y683490D01*
X3872470Y-4646468D02*
X-2648999Y1875001D01*
X-2648999Y1875001D02*
X-7700425Y1875001D01*
X9113481Y-9078127D02*
X6943320Y-9078127D01*
D20*
X630252Y9005889D02*
X230253Y9405888D01*
X5925029Y-802999D02*
X6669799Y-802999D01*
X4067999Y-6387806D02*
X4067999Y-2660029D01*
X4067999Y-2660029D02*
X5925029Y-802999D01*
X-1945998Y-1518996D02*
X-1945998Y-6471996D01*
X-39999Y-548999D02*
X-976001Y-548999D01*
X-976001Y-548999D02*
X-1945998Y-1518996D01*
X3997470Y-4586468D02*
X-39999Y-548999D01*
D21*
X-1945998Y-6471996D02*
X-2070999Y-7620000D01*
D20*
X7688580Y-9078127D02*
X9113481Y-9078127D01*
X5153827Y-9078127D02*
X7688580Y-9078127D01*
X3997470Y-4586468D02*
X3997470Y-6412670D01*
X3997470Y-6412670D02*
X4250930Y-6666130D01*
X4250930Y-8175230D02*
X5153827Y-9078127D01*
X4250930Y-6666130D02*
X4250930Y-8175230D01*
X-9291935Y283491D02*
X-8891936Y683490D01*
X9113481Y-9078127D02*
X6758320Y-9078127D01*
D21*
X-1719633Y6615634D02*
X-424357Y7910910D01*
D20*
X6758320Y-9078127D02*
X3997470Y-6317277D01*
X-1917700Y2649695D02*
X-1917700Y6417567D01*
X3997470Y-3265475D02*
X-1917700Y2649695D01*
X3997470Y-6317277D02*
X3997470Y-3265475D01*
X-1917700Y6417567D02*
X-1719633Y6615634D01*
D21*
X7939990Y-11122008D02*
X7939990Y-12931140D01*
X9113481Y-9078127D02*
X9113481Y-9948517D01*
X9113481Y-9948517D02*
X7939990Y-11122008D01*
D20*
X7939990Y-12103352D02*
X7939990Y-12931140D01*
X7939990Y-12931140D02*
X7939990Y-13365430D01*
D21*
G04 #@! TO.N,ADC1_41_REF2+*
X2820928Y15756070D02*
X90787Y18486211D01*
X5602986Y15756070D02*
X2820928Y15756070D01*
X16090001Y-4839280D02*
X15859621Y-5069660D01*
X16090001Y408001D02*
X16090001Y-4839280D01*
X15859621Y-5069660D02*
X15859621Y-5635345D01*
X15732712Y765290D02*
X16090001Y408001D01*
X15732712Y5484541D02*
X15732712Y765290D01*
X90787Y23440692D02*
X90787Y20701000D01*
X547000Y23896905D02*
X90787Y23440692D01*
X90787Y18486211D02*
X90787Y20701000D01*
D20*
X-15715000Y4895315D02*
X-15715000Y5461000D01*
X-15715000Y968002D02*
X-15715000Y4895315D01*
X-16215001Y468001D02*
X-15715000Y968002D01*
X-16215001Y-468001D02*
X-16215001Y468001D01*
X-15715000Y-968002D02*
X-16215001Y-468001D01*
X-15715000Y-5461000D02*
X-15715000Y-968002D01*
X15732712Y4918856D02*
X15732712Y5484541D01*
X16215001Y-468001D02*
X16215001Y4436567D01*
X15993871Y-689131D02*
X16215001Y-468001D01*
X16215001Y4436567D02*
X15732712Y4918856D01*
X15993871Y-5649322D02*
X15993871Y-689131D01*
X-4895315Y-15715000D02*
X-5461000Y-15715000D01*
X-968002Y-15715000D02*
X-4895315Y-15715000D01*
X-468001Y-16215001D02*
X-968002Y-15715000D01*
X468001Y-16215001D02*
X-468001Y-16215001D01*
X968002Y-15715000D02*
X468001Y-16215001D01*
X5461000Y-15715000D02*
X968002Y-15715000D01*
X41214Y20692779D02*
X41214Y23391119D01*
X-4918850Y15732715D02*
X41214Y20692779D01*
X-5484535Y15732715D02*
X-4918850Y15732715D01*
X5037301Y15756070D02*
X5602986Y15756070D01*
X4578370Y16215001D02*
X5037301Y15756070D01*
X-468001Y16215001D02*
X4578370Y16215001D01*
X-950287Y15732715D02*
X-468001Y16215001D01*
X-5484535Y15732715D02*
X-950287Y15732715D01*
X147001Y23496906D02*
X547000Y23896905D01*
X41214Y23391119D02*
X147001Y23496906D01*
X41214Y18350784D02*
X41214Y23391119D01*
X2635928Y15756070D02*
X41214Y18350784D01*
X5602986Y15756070D02*
X2635928Y15756070D01*
D21*
X-17010448Y-9211247D02*
X-17010448Y-7117203D01*
X-16158684Y-10063011D02*
X-17010448Y-9211247D01*
X-17010448Y-7117203D02*
X-15715000Y-5821755D01*
X-12161989Y-10063011D02*
X-16158684Y-10063011D01*
X-11010635Y-11214365D02*
X-12161989Y-10063011D01*
X-15715000Y-5821755D02*
X-15715000Y-5461000D01*
X-11010635Y-12345367D02*
X-11010635Y-11214365D01*
X-6153768Y-15022232D02*
X-8333770Y-15022232D01*
X-8333770Y-15022232D02*
X-11010635Y-12345367D01*
X-5461000Y-15715000D02*
X-6153768Y-15022232D01*
D20*
X-15715000Y6026685D02*
X-15715000Y5461000D01*
X-15715000Y9277963D02*
X-15715000Y6026685D01*
X-9260248Y15732715D02*
X-15715000Y9277963D01*
X-5484535Y15732715D02*
X-9260248Y15732715D01*
X15332713Y5884540D02*
X15732712Y5484541D01*
X12069472Y9147781D02*
X15332713Y5884540D01*
X12069472Y10443295D02*
X12069472Y9147781D01*
X7156696Y15356071D02*
X12069472Y10443295D01*
X6002985Y15356071D02*
X7156696Y15356071D01*
X5602986Y15756070D02*
X6002985Y15356071D01*
D21*
G04 #@! TO.N,ADC1_43_AVDD1B*
X-2627479Y21752521D02*
X-2627479Y20931689D01*
X-975000Y23405000D02*
X-2627479Y21752521D01*
X-2627479Y19590885D02*
X-5471102Y16747262D01*
X-2627479Y20931689D02*
X-2627479Y19590885D01*
X-17710458Y-6559211D02*
X-17710458Y-9501200D01*
X-16756128Y-5604881D02*
X-17710458Y-6559211D01*
D20*
X-16859571Y5605849D02*
X-18397151Y5605849D01*
X-22098000Y-213000D02*
X-22860000Y-975000D01*
X-22098000Y1905000D02*
X-22098000Y-213000D01*
X-22860000Y-1605048D02*
X-21440668Y-3024380D01*
X-22860000Y-975000D02*
X-22860000Y-1605048D01*
X-19336629Y-3024380D02*
X-16756128Y-5604881D01*
X-21440668Y-3024380D02*
X-19336629Y-3024380D01*
X-5471102Y18113838D02*
X-2692359Y20892581D01*
X-5471102Y16747262D02*
X-5471102Y18113838D01*
X-2692359Y21687641D02*
X-975000Y23405000D01*
X-2692359Y20892581D02*
X-2692359Y21687641D01*
X1597002Y24795001D02*
X1997001Y24395002D01*
X1520097Y24871906D02*
X1597002Y24795001D01*
X-975000Y23970685D02*
X-73779Y24871906D01*
X-73779Y24871906D02*
X1520097Y24871906D01*
X-975000Y23405000D02*
X-975000Y23970685D01*
X1997001Y23437894D02*
X1016215Y22457108D01*
X1997001Y24395002D02*
X1997001Y23437894D01*
X5585977Y17321612D02*
X5585977Y16755927D01*
X3793233Y22857107D02*
X5585977Y21064363D01*
X1416214Y22857107D02*
X3793233Y22857107D01*
X1016215Y22457108D02*
X1416214Y22857107D01*
X13044473Y9869473D02*
X13503736Y9410210D01*
X13444472Y9469474D02*
X13044473Y9869473D01*
X13481583Y9469474D02*
X13444472Y9469474D01*
X16736815Y6214242D02*
X13481583Y9469474D01*
X16736815Y5624583D02*
X16736815Y6214242D01*
X17924006Y5624583D02*
X20961944Y2586645D01*
X16736815Y5624583D02*
X17924006Y5624583D01*
X21543355Y2586645D02*
X22860000Y1270000D01*
X20961944Y2586645D02*
X21543355Y2586645D01*
X22860000Y-762000D02*
X22098000Y-1524000D01*
X22860000Y1270000D02*
X22860000Y-762000D01*
X17852277Y-5769723D02*
X16986598Y-5769723D01*
X22098000Y-1524000D02*
X17852277Y-5769723D01*
X-5548875Y-18073125D02*
X-1397000Y-22225000D01*
X-5548875Y-16740316D02*
X-5548875Y-18073125D01*
X340000Y-22225000D02*
X975000Y-22860000D01*
X-1397000Y-22225000D02*
X340000Y-22225000D01*
X2705036Y-21379885D02*
X2705036Y-20814200D01*
X1540685Y-22860000D02*
X2705036Y-21695649D01*
X2705036Y-21695649D02*
X2705036Y-21379885D01*
X975000Y-22860000D02*
X1540685Y-22860000D01*
X5477258Y-18041978D02*
X2705036Y-20814200D01*
X5477258Y-16744469D02*
X5477258Y-18041978D01*
X5585977Y21064363D02*
X5585977Y19939200D01*
X5585977Y19939200D02*
X5585977Y17321612D01*
X-5548875Y-16740316D02*
X-5548875Y-22693875D01*
X-16859571Y5605849D02*
X-22750849Y5605849D01*
X16986598Y-5769723D02*
X23109725Y-5769723D01*
D21*
X-8012686Y-16740316D02*
X-13462000Y-11291002D01*
X-5548875Y-16740316D02*
X-8012686Y-16740316D01*
X-13462000Y-11291002D02*
X-13854998Y-11291002D01*
X-13854998Y-11291002D02*
X-14317342Y-10828658D01*
X-14317342Y-10828658D02*
X-16383000Y-10828658D01*
X-17710458Y-9501200D02*
X-16383000Y-10828658D01*
X5585977Y22700979D02*
X5585977Y19939200D01*
D19*
X11430000Y31115000D02*
X10254999Y29939999D01*
X-29939999Y10254999D02*
X-27399999Y10254999D01*
X-31115000Y11430000D02*
X-29939999Y10254999D01*
X-10254999Y-27399999D02*
X-9505998Y-26650998D01*
X-10254999Y-29939999D02*
X-10254999Y-27399999D01*
X-11430000Y-31115000D02*
X-10254999Y-29939999D01*
D20*
X26465998Y-9125996D02*
X26465998Y-9908340D01*
X25734502Y-8394500D02*
X26465998Y-9125996D01*
X23109725Y-5769723D02*
X25734502Y-8394500D01*
D19*
X-10580001Y-31964999D02*
X-11430000Y-31115000D01*
X-8325999Y-32290001D02*
X-10254999Y-32290001D01*
X-10254999Y-32290001D02*
X-10580001Y-31964999D01*
X-7714999Y-31679001D02*
X-8325999Y-32290001D01*
X-32290001Y8325999D02*
X-31614682Y7650680D01*
X-32290001Y10254999D02*
X-32290001Y8325999D01*
X-31115000Y11430000D02*
X-32290001Y10254999D01*
D20*
X-16859571Y6171534D02*
X-16859571Y5605849D01*
X-9589217Y16747262D02*
X-16859571Y9476908D01*
X-5471102Y16747262D02*
X-9589217Y16747262D01*
X-9525000Y20801160D02*
X-5471102Y16747262D01*
X-9525000Y21590000D02*
X-9525000Y20801160D01*
D21*
X5585977Y22700979D02*
X5585977Y23727157D01*
D19*
X8266181Y32290001D02*
X7617160Y31640980D01*
X10254999Y32290001D02*
X8266181Y32290001D01*
D21*
X5585977Y23727157D02*
X7617160Y25758340D01*
D19*
X7617160Y31640980D02*
X7617160Y25758340D01*
X11430000Y31115000D02*
X10254999Y32290001D01*
D21*
X-23223420Y6078420D02*
X-24640840Y6078420D01*
D20*
X-22750849Y5605849D02*
X-23223420Y6078420D01*
D21*
X-26898800Y8336380D02*
X-26898800Y9753800D01*
D19*
X-27399999Y10254999D02*
X-26898800Y9753800D01*
D21*
X-26213100Y7650680D02*
X-26197860Y7635440D01*
X-26863340Y7650680D02*
X-26213100Y7650680D01*
D19*
X-31614682Y7650680D02*
X-26863340Y7650680D01*
D21*
X-24640840Y6078420D02*
X-26197860Y7635440D01*
X-26197860Y7635440D02*
X-26898800Y8336380D01*
X30265001Y-12279999D02*
X31115000Y-11430000D01*
X29814999Y-12730001D02*
X30265001Y-12279999D01*
X27950999Y-12730001D02*
X29814999Y-12730001D01*
X26465998Y-11245000D02*
X27950999Y-12730001D01*
X26465998Y-9908340D02*
X26465998Y-11245000D01*
X-6000000Y-23145000D02*
X-6000000Y-26000000D01*
D20*
X-5548875Y-22693875D02*
X-6000000Y-23145000D01*
D21*
X-6000000Y-26000000D02*
X-6650998Y-26650998D01*
X-7365997Y-26650998D02*
X-7714999Y-27000000D01*
X-7000000Y-26650998D02*
X-7365997Y-26650998D01*
X-7000000Y-26650998D02*
X-9505998Y-26650998D01*
D19*
X-7714999Y-27000000D02*
X-7714999Y-31679001D01*
D21*
X-6650998Y-26650998D02*
X-7000000Y-26650998D01*
D19*
X8734362Y26680360D02*
X8539180Y26680360D01*
X10254999Y28354220D02*
X10254999Y28200997D01*
X10254999Y29939999D02*
X10254999Y28354220D01*
X10254999Y28200997D02*
X8734362Y26680360D01*
D21*
X7617160Y25758340D02*
X8539180Y26680360D01*
X5985976Y17155926D02*
X5585977Y16755927D01*
X13044473Y10927247D02*
X6815794Y17155926D01*
X6815794Y17155926D02*
X5985976Y17155926D01*
X13044473Y9869473D02*
X13044473Y10927247D01*
X-19532600Y4489771D02*
X-16859571Y7162800D01*
D20*
X-18397151Y5605849D02*
X-19532600Y4470400D01*
D21*
X-19532600Y4470400D02*
X-19532600Y4489771D01*
D20*
X-16859571Y9476908D02*
X-16859571Y7162800D01*
X-19532600Y4470400D02*
X-22098000Y1905000D01*
X-16859571Y7162800D02*
X-16859571Y6171534D01*
G04 #@! TO.N,AVDD_1_IN*
X11008001Y-11724999D02*
X10559999Y-12173001D01*
X11898001Y-11724999D02*
X11008001Y-11724999D01*
X12772374Y-12599372D02*
X11898001Y-11724999D01*
X10559999Y-12173001D02*
X10160000Y-12573000D01*
X14531626Y-15185374D02*
X15748000Y-15185374D01*
X12772374Y-13426122D02*
X14531626Y-15185374D01*
X12772374Y-12599372D02*
X12772374Y-13426122D01*
X20066000Y-15185374D02*
X15748000Y-15185374D01*
X22769999Y-20871999D02*
X17831900Y-25810098D01*
X22769999Y-16825415D02*
X22769999Y-20871999D01*
X21129958Y-15185374D02*
X22769999Y-16825415D01*
X20066000Y-15185374D02*
X21129958Y-15185374D01*
D19*
X15983949Y-29787951D02*
X15983949Y-31641051D01*
X17831900Y-27940000D02*
X15983949Y-29787951D01*
D20*
X17831900Y-25810098D02*
X17831900Y-26670000D01*
X17831900Y-26670000D02*
X17831900Y-27940000D01*
D19*
X15983949Y-29787951D02*
X14605000Y-28409002D01*
X14439002Y-28409002D02*
X13970000Y-27940000D01*
X14605000Y-28409002D02*
X14439002Y-28409002D01*
D20*
X10788832Y-6468928D02*
X11188439Y-6868535D01*
X11188439Y-6868535D02*
X11188439Y-11544561D01*
X10788832Y-3685529D02*
X10788832Y-6468928D01*
X11126641Y7363554D02*
X11126641Y-3347720D01*
X10614209Y7875986D02*
X11126641Y7363554D01*
X11188439Y-11544561D02*
X10160000Y-12573000D01*
X10614209Y9835593D02*
X10614209Y7875986D01*
X11126641Y-3347720D02*
X10788832Y-3685529D01*
X10214210Y10235592D02*
X10614209Y9835593D01*
D21*
G04 #@! TO.N,ACC_12_CS*
X9963482Y-10356518D02*
X9289999Y-11030001D01*
X9963482Y-9271000D02*
X9963482Y-10356518D01*
X9963482Y-8670126D02*
X9963482Y-9271000D01*
X9813492Y-8520136D02*
X9963482Y-8670126D01*
X9813492Y-7493000D02*
X9813492Y-8520136D01*
X9289999Y-11030001D02*
X8890000Y-11430000D01*
D20*
X9813492Y-8058685D02*
X9813492Y-7493000D01*
X10088482Y-8333675D02*
X9813492Y-8058685D01*
X10088482Y-10231518D02*
X10088482Y-8333675D01*
X8890000Y-11430000D02*
X10088482Y-10231518D01*
X-8255000Y13479216D02*
X-8817892Y14042108D01*
X21618291Y-18386709D02*
X17604054Y-22400946D01*
X21618291Y-17116709D02*
X21618291Y-18386709D01*
X-15310437Y-8225071D02*
X-15109108Y-8225071D01*
X-15109108Y-8225071D02*
X-14504037Y-7620000D01*
X-6599022Y-6868268D02*
X-6444685Y-6713931D01*
X-11815113Y-6868268D02*
X-6599022Y-6868268D01*
X-12566845Y-7620000D02*
X-11815113Y-6868268D01*
X-14504037Y-7620000D02*
X-12566845Y-7620000D01*
X-13801528Y8267780D02*
X-14201527Y8667779D01*
X-10147220Y8267780D02*
X-13801528Y8267780D01*
X-8255000Y10160000D02*
X-10147220Y8267780D01*
X-7855001Y9760001D02*
X-8255000Y10160000D01*
X-15710436Y-8625070D02*
X-15310437Y-8225071D01*
X-6444685Y-6713931D02*
X-5879000Y-6713931D01*
X13803001Y-16169999D02*
X14310001Y-16676999D01*
X11816003Y-14183001D02*
X10326999Y-14183001D01*
X10326999Y-14183001D02*
X8890000Y-12746002D01*
X15983949Y-24021051D02*
X15983949Y-28048949D01*
X17604054Y-22400946D02*
X15983949Y-24021051D01*
X16850001Y-19216999D02*
X13635002Y-16002000D01*
X13635002Y-16002000D02*
X11816003Y-14183001D01*
X14310001Y-16676999D02*
X13635002Y-16002000D01*
X6310425Y7213389D02*
X5488216Y8035598D01*
X5488216Y8035598D02*
X5259827Y8035598D01*
X6310425Y6985000D02*
X6310425Y7213389D01*
X9100820Y5844733D02*
X9100820Y5539949D01*
X10151640Y6895553D02*
X9100820Y5844733D01*
X9100820Y5539949D02*
X7655769Y6985000D01*
X10056358Y4584411D02*
X9100820Y5539949D01*
X10056358Y-2919048D02*
X10056358Y4584411D01*
X9813492Y-3161914D02*
X10056358Y-2919048D01*
X9813492Y-7493000D02*
X9813492Y-3161914D01*
D21*
X10151640Y4679693D02*
X10056358Y4584411D01*
X10151640Y6895553D02*
X10151640Y4679693D01*
X7132867Y6895553D02*
X7043420Y6985000D01*
D20*
X7043420Y6985000D02*
X6310425Y6985000D01*
D21*
X10151640Y6895553D02*
X7132867Y6895553D01*
D20*
X7655769Y6985000D02*
X7043420Y6985000D01*
X17604054Y-21835261D02*
X17604054Y-22400946D01*
X17604054Y-19971052D02*
X17604054Y-21835261D01*
X13768385Y-16135383D02*
X17604054Y-19971052D01*
X12279381Y-16135383D02*
X13768385Y-16135383D01*
X8890000Y-12746002D02*
X12279381Y-16135383D01*
X21218292Y-16716710D02*
X21618291Y-17116709D01*
X20671581Y-16169999D02*
X21218292Y-16716710D01*
X16833948Y-27198950D02*
X15983949Y-28048949D01*
X16850001Y-19216999D02*
X16850001Y-27182897D01*
X16850001Y-27182897D02*
X16833948Y-27198950D01*
X13803001Y-16169999D02*
X16850001Y-19216999D01*
X12313997Y-16169999D02*
X13803001Y-16169999D01*
X8890000Y-12746002D02*
X12313997Y-16169999D01*
X8890000Y-11430000D02*
X8890000Y-12746002D01*
X-15129073Y-8225071D02*
X-15310437Y-8225071D01*
X-8050239Y2950011D02*
X-10985010Y15240D01*
X-10985010Y15240D02*
X-10985010Y-6317604D01*
X-7438965Y3932987D02*
X-7858760Y3513192D01*
X-7858760Y3513192D02*
X-7858760Y2950011D01*
X-12455405Y-7787999D02*
X-14692001Y-7787999D01*
X-7438965Y9343965D02*
X-7438965Y3932987D01*
X-7855001Y9760001D02*
X-7438965Y9343965D01*
X-14692001Y-7787999D02*
X-15129073Y-8225071D01*
X-7858760Y2950011D02*
X-8050239Y2950011D01*
X-10985010Y-6317604D02*
X-12455405Y-7787999D01*
X4355982Y8096027D02*
X4266177Y8006222D01*
X5427787Y8096027D02*
X4355982Y8096027D01*
X5488216Y8035598D02*
X5427787Y8096027D01*
X4266177Y8006222D02*
X4266177Y10135623D01*
X4266177Y10135623D02*
X2672080Y11729720D01*
X-5885282Y11729720D02*
X-7855001Y9760001D01*
X2672080Y11729720D02*
X-5885282Y11729720D01*
X-8255000Y10160000D02*
X-8255000Y12374880D01*
X-8255000Y12374880D02*
X-8255000Y13479216D01*
D19*
G04 #@! TO.N,ISO_USB_6_UD\2013*
X-21331501Y-23959753D02*
X-22445304Y-23959753D01*
X-27940000Y-19685000D02*
X-25722580Y-19685000D01*
X-24845537Y-20562043D02*
X-24845537Y-21559520D01*
X-25722580Y-19685000D02*
X-24845537Y-20562043D01*
X-22445304Y-23959753D02*
X-24845537Y-21559520D01*
G04 #@! TO.N,ADC1_34_SYNC_OUT*
X21590000Y-9525000D02*
X15966440Y-9525000D01*
X12442367Y-6000927D02*
X11763833Y-6000927D01*
X15966440Y-9525000D02*
X12442367Y-6000927D01*
G04 #@! TO.N,ADC1_30_DRDY*
X8400999Y4426001D02*
X8001000Y4826000D01*
X9356348Y3470652D02*
X8400999Y4426001D01*
X9356348Y-2629095D02*
X9356348Y3470652D01*
X8117064Y-3868379D02*
X9356348Y-2629095D01*
X8117064Y-4434064D02*
X8117064Y-3868379D01*
X-3921760Y6007190D02*
X-6854020Y3074930D01*
X-3341778Y6007190D02*
X-3921760Y6007190D01*
X8001000Y4826000D02*
X7038190Y4826000D01*
X7038190Y4826000D02*
X6376540Y5487650D01*
X6376540Y5487650D02*
X3590043Y5487650D01*
X2351251Y6726442D02*
X2351251Y8471689D01*
X692051Y10130889D02*
X-618391Y10130889D01*
X2351251Y8471689D02*
X692051Y10130889D01*
X-618391Y10130889D02*
X-1433999Y9315281D01*
X-1433999Y9315281D02*
X-1433999Y7914969D01*
X3590043Y5487650D02*
X2351251Y6726442D01*
X-1433999Y7914969D02*
X-3341778Y6007190D01*
G04 #@! TO.N,ADC4_30_DRDY*
X3091029Y8958757D02*
X1257326Y10792460D01*
X-2315535Y10792460D02*
X-3893820Y9214175D01*
X1257326Y10792460D02*
X-2315535Y10792460D01*
X-3893820Y9214175D02*
X-4834775Y8273220D01*
G04 #@! TO.N,ACC_12_CS*
X17734003Y-16276402D02*
X17627600Y-16169999D01*
X17734003Y-16911597D02*
X17734003Y-16276402D01*
D20*
X17627600Y-16169999D02*
X20671581Y-16169999D01*
X12313997Y-16169999D02*
X17627600Y-16169999D01*
D21*
G04 #@! TO.N,POWER_2_VCC*
X24732918Y17780000D02*
X26035000Y17780000D01*
X22961600Y17780000D02*
X24732918Y17780000D01*
X17780000Y22961600D02*
X22961600Y17780000D01*
X17780000Y26035000D02*
X17780000Y22961600D01*
D20*
X22852651Y17888949D02*
X26143949Y17888949D01*
X20345400Y20396200D02*
X22852651Y17888949D01*
X17888949Y22852651D02*
X17888949Y26143949D01*
X20345400Y20396200D02*
X17888949Y22852651D01*
D19*
G04 #@! TO.N,/USB_POWER/6_Shield*
X21260171Y24776961D02*
X20058089Y23574879D01*
X21260171Y26191174D02*
X21260171Y24776961D01*
X24795705Y21241427D02*
X23593623Y20039345D01*
X26209918Y21241427D02*
X24795705Y21241427D01*
G04 #@! TO.N,/USB_DATA/6_Shield*
X-23593623Y-20058089D02*
X-20058089Y-23593623D01*
X-20058089Y-23811087D02*
X-21260171Y-25013169D01*
X-21260171Y-25316432D02*
X-21260171Y-26209918D01*
X-21260171Y-25013169D02*
X-21260171Y-25316432D01*
X-20058089Y-23593623D02*
X-20058089Y-23811087D01*
G04 #@! TO.N,Net-(R99-Pad1)*
X-22106974Y-19536719D02*
X-22506973Y-19136720D01*
X-19008088Y-22635605D02*
X-22106974Y-19536719D01*
X-19008088Y-24399773D02*
X-19008088Y-22635605D01*
X-19568895Y-24960580D02*
X-19008088Y-24399773D01*
X-20134580Y-24960580D02*
X-19568895Y-24960580D01*
D21*
G04 #@! TO.N,AINREF-*
X-28575000Y-11430000D02*
X-28545020Y-11430000D01*
X-11430000Y27225000D02*
X-11430000Y28575000D01*
X-10833400Y20942820D02*
X-10833400Y26628400D01*
X-9906300Y20015720D02*
X-10833400Y20942820D01*
X-9906300Y17596919D02*
X-9906300Y20015720D01*
X-17848479Y9654740D02*
X-9906300Y17596919D01*
X-18346021Y7912999D02*
X-17848479Y8410541D01*
X-10833400Y26628400D02*
X-11430000Y27225000D01*
X-25028001Y7912999D02*
X-18346021Y7912999D01*
X-25430001Y10209003D02*
X-25430001Y8314999D01*
X-17848479Y8410541D02*
X-17848479Y9654740D01*
X-25430001Y8314999D02*
X-25028001Y7912999D01*
X-25430001Y10209003D02*
X-25580002Y10209003D01*
X10903920Y26962300D02*
X9008919Y26123921D01*
X25369999Y8224999D02*
X28575000Y11430000D01*
X9008919Y26123921D02*
X8173420Y25288422D01*
X8173420Y25288422D02*
X8173420Y18314304D01*
X8173420Y18314304D02*
X17001723Y9486001D01*
X17001723Y9486001D02*
X17299001Y9486001D01*
X17299001Y9486001D02*
X18560003Y8224999D01*
X18560003Y8224999D02*
X25369999Y8224999D01*
D19*
G04 #@! TO.N,ADC1_13_MODE0_GPIO0*
X-24924010Y-3386060D02*
X-20084999Y-8225071D01*
X-20084999Y-8225071D02*
X-19685000Y-8625070D01*
X-24924010Y-2413000D02*
X-24924010Y-3386060D01*
G04 #@! TO.N,ADC1_35_SYNC_IN*
X-9108119Y5134248D02*
X-13248640Y993727D01*
X-8813965Y5134248D02*
X-9108119Y5134248D01*
X-8413966Y4734249D02*
X-8813965Y5134248D01*
X-13248640Y993727D02*
X-13248640Y0D01*
X-13248640Y-5374640D02*
X-13248640Y0D01*
X-16435438Y-8973071D02*
X-16435438Y-8277069D01*
X-16435438Y-8277069D02*
X-15270369Y-7112000D01*
X-15920508Y-9488001D02*
X-16435438Y-8973071D01*
X-10482093Y-9488001D02*
X-15920508Y-9488001D01*
X-15270369Y-7112000D02*
X-14986000Y-7112000D01*
X-7705094Y-12265000D02*
X-10482093Y-9488001D01*
X-14986000Y-7112000D02*
X-13248640Y-5374640D01*
X-5654273Y-12265000D02*
X-7705094Y-12265000D01*
X13208114Y6773053D02*
X13208114Y-3527946D01*
X11314219Y10208585D02*
X11314219Y8666948D01*
X10562211Y10960593D02*
X11314219Y10208585D01*
X11314219Y8666948D02*
X13208114Y6773053D01*
X9189161Y10753839D02*
X9395915Y10960593D01*
X9395915Y10960593D02*
X10562211Y10960593D01*
X5461000Y12265000D02*
X6981998Y12265000D01*
X6981998Y12265000D02*
X8493159Y10753839D01*
X8493159Y10753839D02*
X9189161Y10753839D01*
X24130000Y-8425000D02*
X24130000Y-9525000D01*
X24054999Y-8349999D02*
X24130000Y-8425000D01*
X17621546Y-8349999D02*
X24054999Y-8349999D01*
X13208114Y-3936567D02*
X17621546Y-8349999D01*
X13208114Y-3527946D02*
X13208114Y-3936567D01*
X-14926528Y8319778D02*
X-14174520Y7567770D01*
X-11247487Y7567770D02*
X-8413966Y4734249D01*
X-14926528Y9076472D02*
X-14926528Y8319778D01*
X-8469891Y14767109D02*
X-9235891Y14767109D01*
X-14174520Y7567770D02*
X-11247487Y7567770D01*
X-7977582Y14274800D02*
X-8469891Y14767109D01*
X3451200Y14274800D02*
X-7977582Y14274800D01*
X-9235891Y14767109D02*
X-14926528Y9076472D01*
X5461000Y12265000D02*
X3451200Y14274800D01*
G04 #@! TO.N,MCU_48_PB2_BOOT1*
X-25272011Y-1687999D02*
X-25781000Y-2196988D01*
X-23585001Y-2228315D02*
X-24125317Y-1687999D01*
X-24125317Y-1687999D02*
X-25272011Y-1687999D01*
X-23585001Y-2794000D02*
X-23585001Y-2228315D01*
X-20135010Y-9240988D02*
X-20135010Y-9455990D01*
X-25781000Y-3594998D02*
X-20135010Y-9240988D01*
X-25781000Y-2196988D02*
X-25781000Y-3594998D01*
X-19708060Y-9915488D02*
X-19846816Y-10054244D01*
X-20135010Y-9455990D02*
X-19708060Y-9882940D01*
X-19708060Y-9882940D02*
X-19708060Y-9915488D01*
D21*
G04 #@! TO.N,CRYSTAL_4_Vin*
X8224999Y-22829999D02*
X9525000Y-24130000D01*
X3425920Y-7007860D02*
X3425920Y-12196540D01*
X-635000Y-3175000D02*
X133132Y-3175000D01*
X133132Y-3175000D02*
X3172460Y-6214328D01*
X8224999Y-16995619D02*
X8224999Y-22829999D01*
X3172460Y-6754400D02*
X3425920Y-7007860D01*
X3425920Y-12196540D02*
X8224999Y-16995619D01*
X3172460Y-6214328D02*
X3172460Y-6754400D01*
G04 #@! TD*
M02*
