G04 #@! TF.GenerationSoftware,KiCad,Pcbnew,5.0.2-bee76a0~70~ubuntu16.04.1*
G04 #@! TF.CreationDate,2019-08-08T02:08:13+03:00*
G04 #@! TF.ProjectId,FreeEEG32-alpha1.5,46726565-4545-4473-9332-2d616c706861,rev?*
G04 #@! TF.SameCoordinates,Original*
G04 #@! TF.FileFunction,Legend,Top*
G04 #@! TF.FilePolarity,Positive*
%FSLAX46Y46*%
G04 Gerber Fmt 4.6, Leading zero omitted, Abs format (unit mm)*
G04 Created by KiCad (PCBNEW 5.0.2-bee76a0~70~ubuntu16.04.1) date Чт 08 авг 2019 02:08:13*
%MOMM*%
%LPD*%
G01*
G04 APERTURE LIST*
%ADD10C,0.200000*%
%ADD11C,0.120000*%
%ADD12C,0.150000*%
%ADD13C,0.100000*%
%ADD14C,0.075000*%
G04 APERTURE END LIST*
D10*
X-12327968Y-21050914D02*
X-11762283Y-20485229D01*
X-12247156Y-20970102D02*
X-12327968Y-20970102D01*
X-12449186Y-20929696D01*
X-12570405Y-20808477D01*
X-12610811Y-20687259D01*
X-12570405Y-20566041D01*
X-12125937Y-20121574D01*
X-12893653Y-19434670D02*
X-12772435Y-19475076D01*
X-12610811Y-19636700D01*
X-12570405Y-19757919D01*
X-12610811Y-19879137D01*
X-12934059Y-20202386D01*
X-13055278Y-20242792D01*
X-13176496Y-20202386D01*
X-13338121Y-20040761D01*
X-13378527Y-19919543D01*
X-13338121Y-19798325D01*
X-13257308Y-19717513D01*
X-12772435Y-20040761D01*
X-14186649Y-19192233D02*
X-13620963Y-18626548D01*
X-13822994Y-19555888D02*
X-13378527Y-19111421D01*
X-13338121Y-18990203D01*
X-13378527Y-18868984D01*
X-13499745Y-18747766D01*
X-13620963Y-18707360D01*
X-13701775Y-18707360D01*
X-14025024Y-18222487D02*
X-14590710Y-18788172D01*
X-14429085Y-18626548D02*
X-14550304Y-18666954D01*
X-14631116Y-18666954D01*
X-14752334Y-18626548D01*
X-14833146Y-18545736D01*
X-14671522Y-17575989D02*
X-14631116Y-17697208D01*
X-14631116Y-17778020D01*
X-14671522Y-17899238D01*
X-14913958Y-18141675D01*
X-15035177Y-18182081D01*
X-15115989Y-18182081D01*
X-15237207Y-18141675D01*
X-15358426Y-18020456D01*
X-15398832Y-17899238D01*
X-15398832Y-17818426D01*
X-15358426Y-17697208D01*
X-15115989Y-17454771D01*
X-14994771Y-17414365D01*
X-14913958Y-17414365D01*
X-14792740Y-17454771D01*
X-14671522Y-17575989D01*
X-15318019Y-16929492D02*
X-15883705Y-17495177D01*
X-16166548Y-17778020D02*
X-16085735Y-17778020D01*
X-16085735Y-17697208D01*
X-16166548Y-17697208D01*
X-16166548Y-17778020D01*
X-16085735Y-17697208D01*
X-16085735Y-16161776D02*
X-16934264Y-17010304D01*
X-16126142Y-16202182D02*
X-16004923Y-16242588D01*
X-15843299Y-16404212D01*
X-15802893Y-16525431D01*
X-15802893Y-16606243D01*
X-15843299Y-16727461D01*
X-16085735Y-16969898D01*
X-16206954Y-17010304D01*
X-16287766Y-17010304D01*
X-16408984Y-16969898D01*
X-16570609Y-16808273D01*
X-16611015Y-16687055D01*
X-16489796Y-15838527D02*
X-16530203Y-15717309D01*
X-16691827Y-15555684D01*
X-16813045Y-15515278D01*
X-16934264Y-15555684D01*
X-16974670Y-15596090D01*
X-17015076Y-15717309D01*
X-16974670Y-15838527D01*
X-16853451Y-15959745D01*
X-16813045Y-16080963D01*
X-16853451Y-16202182D01*
X-16893857Y-16242588D01*
X-17015076Y-16282994D01*
X-17136294Y-16242588D01*
X-17257512Y-16121370D01*
X-17297918Y-16000151D01*
X-17176700Y-15151623D02*
X-17217106Y-15030405D01*
X-17378731Y-14868780D01*
X-17499949Y-14828374D01*
X-17621167Y-14868780D01*
X-17661573Y-14909186D01*
X-17701980Y-15030405D01*
X-17661573Y-15151623D01*
X-17540355Y-15272841D01*
X-17499949Y-15394060D01*
X-17540355Y-15515278D01*
X-17580761Y-15555684D01*
X-17701980Y-15596090D01*
X-17823198Y-15555684D01*
X-17944416Y-15434466D01*
X-17984822Y-15313247D01*
X-17944416Y-14464719D02*
X-17944416Y-14383907D01*
X-17863604Y-14383907D01*
X-17863604Y-14464719D01*
X-17944416Y-14464719D01*
X-17863604Y-14383907D01*
X-18671726Y-13656597D02*
X-18550508Y-13697003D01*
X-18388883Y-13858628D01*
X-18348477Y-13979846D01*
X-18348477Y-14060658D01*
X-18388883Y-14181877D01*
X-18631320Y-14424313D01*
X-18752538Y-14464719D01*
X-18833350Y-14464719D01*
X-18954569Y-14424313D01*
X-19116193Y-14262689D01*
X-19156599Y-14141471D01*
X-19116193Y-13131318D02*
X-19075787Y-13252536D01*
X-19075787Y-13333349D01*
X-19116193Y-13454567D01*
X-19358630Y-13697003D01*
X-19479848Y-13737410D01*
X-19560660Y-13737410D01*
X-19681878Y-13697003D01*
X-19803097Y-13575785D01*
X-19843503Y-13454567D01*
X-19843503Y-13373755D01*
X-19803097Y-13252536D01*
X-19560660Y-13010100D01*
X-19439442Y-12969694D01*
X-19358630Y-12969694D01*
X-19237411Y-13010100D01*
X-19116193Y-13131318D01*
X-19762691Y-12484820D02*
X-20328376Y-13050506D01*
X-20247564Y-12969694D02*
X-20328376Y-12969694D01*
X-20449594Y-12929287D01*
X-20570813Y-12808069D01*
X-20611219Y-12686851D01*
X-20570813Y-12565633D01*
X-20126346Y-12121165D01*
X-20570813Y-12565633D02*
X-20692031Y-12606039D01*
X-20813249Y-12565633D01*
X-20934468Y-12444414D01*
X-20974874Y-12323196D01*
X-20934468Y-12201978D01*
X-20490001Y-11757511D01*
X19370943Y12215209D02*
X19653786Y11932366D01*
X20098253Y12376833D02*
X19249725Y11528305D01*
X18845664Y11932366D01*
X19370943Y13104143D02*
X18805257Y12538458D01*
X18966882Y12700082D02*
X18845664Y12659676D01*
X18764851Y12659676D01*
X18643633Y12700082D01*
X18562821Y12780894D01*
X18482009Y13912265D02*
X18603227Y13871859D01*
X18764851Y13710235D01*
X18805257Y13589016D01*
X18764851Y13467798D01*
X18441603Y13144549D01*
X18320384Y13104143D01*
X18199166Y13144549D01*
X18037542Y13306174D01*
X17997135Y13427392D01*
X18037542Y13548610D01*
X18118354Y13629422D01*
X18603227Y13306174D01*
X17754699Y14639575D02*
X17875917Y14599169D01*
X18037542Y14437544D01*
X18077948Y14316326D01*
X18037542Y14195108D01*
X17714293Y13871859D01*
X17593074Y13831453D01*
X17471856Y13871859D01*
X17310232Y14033483D01*
X17269826Y14154702D01*
X17310232Y14275920D01*
X17391044Y14356732D01*
X17875917Y14033483D01*
X16946577Y14639575D02*
X16663734Y14922418D01*
X16986983Y15488103D02*
X17391044Y15084042D01*
X16542516Y14235514D01*
X16138455Y14639575D01*
X16178861Y15407291D02*
X15896018Y15690134D01*
X16219267Y16255819D02*
X16623328Y15851758D01*
X15774800Y15003230D01*
X15370739Y15407291D01*
X14603023Y16255819D02*
X14643429Y16134601D01*
X14764647Y16013382D01*
X14926272Y15932570D01*
X15087896Y15932570D01*
X15209114Y15972976D01*
X15411145Y16094195D01*
X15532363Y16215413D01*
X15653582Y16417443D01*
X15693988Y16538662D01*
X15693988Y16700286D01*
X15613175Y16861911D01*
X15532363Y16942723D01*
X15370739Y17023535D01*
X15289927Y17023535D01*
X15007084Y16740692D01*
X15168708Y16579068D01*
X14239368Y16538662D02*
X13714089Y17063941D01*
X14320180Y17104347D01*
X14198962Y17225565D01*
X14158556Y17346784D01*
X14158556Y17427596D01*
X14198962Y17548814D01*
X14400992Y17750845D01*
X14522211Y17791251D01*
X14603023Y17791251D01*
X14724241Y17750845D01*
X14966678Y17508408D01*
X15007084Y17387190D01*
X15007084Y17306378D01*
X13471652Y17468002D02*
X13390840Y17468002D01*
X13269622Y17508408D01*
X13067591Y17710439D01*
X13027185Y17831657D01*
X13027185Y17912469D01*
X13067591Y18033687D01*
X13148403Y18114500D01*
X13310028Y18195312D01*
X14279774Y18195312D01*
X13754495Y18720591D01*
X13067591Y18760997D02*
X12421093Y19407495D01*
X13067591Y19407495D02*
X12421093Y18760997D01*
X20037644Y15265870D02*
X19593177Y14821403D01*
X19552771Y14700184D01*
X19593177Y14578966D01*
X19754801Y14417342D01*
X19876020Y14376936D01*
X19997238Y15225464D02*
X20118456Y15185058D01*
X20320487Y14983027D01*
X20360893Y14861809D01*
X20320487Y14740591D01*
X20239675Y14659778D01*
X20118456Y14619372D01*
X19997238Y14659778D01*
X19795207Y14861809D01*
X19673989Y14902215D01*
X19512365Y15791149D02*
X19552771Y15669931D01*
X19512365Y15548713D01*
X18785055Y14821403D01*
X18623430Y15548713D02*
X19471959Y16397241D01*
X18663837Y15589119D02*
X18542618Y15629525D01*
X18380994Y15791149D01*
X18340588Y15912368D01*
X18340588Y15993180D01*
X18380994Y16114398D01*
X18623430Y16356835D01*
X18744649Y16397241D01*
X18825461Y16397241D01*
X18946679Y16356835D01*
X19108304Y16195210D01*
X19148710Y16073992D01*
X18421400Y16882114D02*
X17572872Y16033586D01*
X18057745Y17245769D02*
X17613278Y16801302D01*
X17572872Y16680083D01*
X17613278Y16558865D01*
X17734496Y16437647D01*
X17855715Y16397241D01*
X17936527Y16397241D01*
X17290029Y18013485D02*
X16845562Y17569018D01*
X16805156Y17447799D01*
X16845562Y17326581D01*
X17007186Y17164957D01*
X17128405Y17124551D01*
X17249623Y17973079D02*
X17370841Y17932673D01*
X17572872Y17730642D01*
X17613278Y17609424D01*
X17572872Y17488206D01*
X17492060Y17407393D01*
X17370841Y17366987D01*
X17249623Y17407393D01*
X17047592Y17609424D01*
X16926374Y17649830D01*
X16441501Y18862013D02*
X16926374Y18377140D01*
X16683938Y18619576D02*
X15835409Y17771048D01*
X16037440Y17811454D01*
X16199064Y17811454D01*
X16320283Y17771048D01*
X15997034Y19144856D02*
X15997034Y19225668D01*
X16077846Y19225668D01*
X16077846Y19144856D01*
X15997034Y19144856D01*
X16077846Y19225668D01*
X14421196Y19185262D02*
X14825257Y18781201D01*
X15269724Y19144856D01*
X15188912Y19144856D01*
X15067693Y19185262D01*
X14865663Y19387292D01*
X14825257Y19508511D01*
X14825257Y19589323D01*
X14865663Y19710541D01*
X15067693Y19912572D01*
X15188912Y19952978D01*
X15269724Y19952978D01*
X15390942Y19912572D01*
X15592973Y19710541D01*
X15633379Y19589323D01*
X15633379Y19508511D01*
D11*
G04 #@! TO.C,J57*
X-16531394Y27392554D02*
X-15746505Y26607665D01*
X-15746505Y26607665D02*
X-16686957Y25667213D01*
X-25462153Y36323313D02*
X-30935159Y30850306D01*
X-30935159Y30850306D02*
X-24832828Y24747975D01*
X-19359821Y30220981D02*
X-24832828Y24747975D01*
X-25462153Y36323313D02*
X-19359821Y30220981D01*
X-29096681Y32688784D02*
X-22994350Y26586452D01*
X-27300630Y34484835D02*
X-21198299Y28382504D01*
X-22372096Y23659030D02*
X-22060969Y23347903D01*
X-24146934Y25433868D02*
X-23857020Y25143954D01*
X-21862979Y24168147D02*
X-21551852Y23857020D01*
X-23637817Y25942985D02*
X-23347903Y25653071D01*
X-20576045Y25455081D02*
X-20264918Y25143954D01*
X-22350883Y27229919D02*
X-22060969Y26940006D01*
X-20066928Y25964198D02*
X-19755801Y25653071D01*
X-21841766Y27739036D02*
X-21551852Y27449123D01*
X-18779994Y27251133D02*
X-18511293Y26982432D01*
X-20554832Y29025971D02*
X-20264918Y28736057D01*
X-18270877Y27760250D02*
X-18002176Y27491549D01*
X-20045715Y29535088D02*
X-19755801Y29245174D01*
X-27217121Y34568344D02*
X-21114789Y28466013D01*
X-27133615Y34651850D02*
X-21031284Y28549519D01*
X-27050109Y34735356D02*
X-20947778Y28633024D01*
X-26966604Y34818862D02*
X-20864272Y28716530D01*
X-26883098Y34902367D02*
X-20780766Y28800036D01*
X-26799592Y34985873D02*
X-20697261Y28883542D01*
X-26716086Y35069379D02*
X-20613755Y28967047D01*
X-26632581Y35152885D02*
X-20530249Y29050553D01*
X-26549075Y35236391D02*
X-20446743Y29134059D01*
X-26465569Y35319896D02*
X-20363237Y29217565D01*
X-26382063Y35403402D02*
X-20279732Y29301071D01*
X-26298557Y35486908D02*
X-20196226Y29384576D01*
X-26215052Y35570414D02*
X-20112720Y29468082D01*
X-26131546Y35653919D02*
X-20029214Y29551588D01*
X-26048040Y35737425D02*
X-19945709Y29635094D01*
X-25964534Y35820931D02*
X-19862203Y29718599D01*
X-25881029Y35904437D02*
X-19778697Y29802105D01*
X-25797523Y35987943D02*
X-19695191Y29885611D01*
X-25714017Y36071448D02*
X-19611685Y29969117D01*
X-25630511Y36154954D02*
X-19528180Y30052623D01*
X-25547005Y36238460D02*
X-19444674Y30136128D01*
G04 #@! TO.C,U8*
X862911Y-5236647D02*
X862911Y-3736647D01*
X862911Y-3736647D02*
X-937089Y-3736647D01*
X-937089Y3663353D02*
X862911Y3663353D01*
X-2737089Y-1336647D02*
X-2737089Y1263353D01*
X2662911Y1263353D02*
X2662911Y-1336647D01*
X2662911Y-1336647D02*
X3262911Y-1336647D01*
G04 #@! TO.C,J82*
X27108497Y-16924401D02*
X26323608Y-16139512D01*
X26323608Y-16139512D02*
X27264060Y-15199060D01*
X36039256Y-25855160D02*
X39716211Y-22178204D01*
X39716211Y-22178204D02*
X33613879Y-16075873D01*
X29936924Y-19752828D02*
X33613879Y-16075873D01*
X36039256Y-25855160D02*
X29936924Y-19752828D01*
X37877733Y-24016682D02*
X31775402Y-17914351D01*
X31153148Y-14986928D02*
X30842021Y-14675801D01*
X32927986Y-16761766D02*
X32638072Y-16471853D01*
X30644031Y-15496045D02*
X30332904Y-15184918D01*
X32418869Y-17270883D02*
X32128955Y-16980970D01*
X29357097Y-16782980D02*
X29088396Y-16514279D01*
X31131935Y-18557818D02*
X30842021Y-18267904D01*
X28847980Y-17292097D02*
X28579279Y-17023396D01*
X30622818Y-19066935D02*
X30332904Y-18777021D01*
X37794224Y-24100191D02*
X31691892Y-17997860D01*
X37710718Y-24183697D02*
X31608387Y-18081366D01*
X37627212Y-24267203D02*
X31524881Y-18164871D01*
X37543707Y-24350709D02*
X31441375Y-18248377D01*
X37460201Y-24434214D02*
X31357869Y-18331883D01*
X37376695Y-24517720D02*
X31274364Y-18415389D01*
X37293189Y-24601226D02*
X31190858Y-18498894D01*
X37209684Y-24684732D02*
X31107352Y-18582400D01*
X37126178Y-24768238D02*
X31023846Y-18665906D01*
X37042672Y-24851743D02*
X30940340Y-18749412D01*
X36959166Y-24935249D02*
X30856835Y-18832918D01*
X36875660Y-25018755D02*
X30773329Y-18916423D01*
X36792155Y-25102261D02*
X30689823Y-18999929D01*
X36708649Y-25185766D02*
X30606317Y-19083435D01*
X36625143Y-25269272D02*
X30522812Y-19166941D01*
X36541637Y-25352778D02*
X30439306Y-19250446D01*
X36458132Y-25436284D02*
X30355800Y-19333952D01*
X36374626Y-25519790D02*
X30272294Y-19417458D01*
X36291120Y-25603295D02*
X30188788Y-19500964D01*
X36207614Y-25686801D02*
X30105283Y-19584470D01*
X36124108Y-25770307D02*
X30021777Y-19667975D01*
G04 #@! TO.C,SW1*
X21343909Y-24725456D02*
X21131777Y-24513324D01*
X21131777Y-24513324D02*
X18798324Y-26846777D01*
X18798324Y-26846777D02*
X19010456Y-27058909D01*
X22899544Y-26281091D02*
X23111676Y-26493223D01*
X23111676Y-26493223D02*
X20778223Y-28826676D01*
X20778223Y-28826676D02*
X20566091Y-28614544D01*
G04 #@! TO.C,J63*
X-18829401Y-25203497D02*
X-18044512Y-24418608D01*
X-18044512Y-24418608D02*
X-17104060Y-25359060D01*
X-27760160Y-34134256D02*
X-25879256Y-36015160D01*
X-25879256Y-36015160D02*
X-19776924Y-29912828D01*
X-21657828Y-28031924D02*
X-19776924Y-29912828D01*
X-27760160Y-34134256D02*
X-21657828Y-28031924D01*
X-18687980Y-27452097D02*
X-18419279Y-27183396D01*
X-20462818Y-29226935D02*
X-20172904Y-28937021D01*
X-19197097Y-26942980D02*
X-18928396Y-26674279D01*
X-20971935Y-28717818D02*
X-20682021Y-28427904D01*
X-25960888Y-35933528D02*
X-19858556Y-29831196D01*
X-26042527Y-35851889D02*
X-19940195Y-29749557D01*
X-26124166Y-35770250D02*
X-20021834Y-29667918D01*
X-26205805Y-35688611D02*
X-20103473Y-29586279D01*
X-26287444Y-35606972D02*
X-20185112Y-29504640D01*
X-26369083Y-35525333D02*
X-20266751Y-29423001D01*
X-26450722Y-35443694D02*
X-20348390Y-29341362D01*
X-26532361Y-35362055D02*
X-20430029Y-29259723D01*
X-26614000Y-35280416D02*
X-20511668Y-29178084D01*
X-26695639Y-35198777D02*
X-20593307Y-29096445D01*
X-26777278Y-35117138D02*
X-20674946Y-29014806D01*
X-26858917Y-35035499D02*
X-20756585Y-28933167D01*
X-26940556Y-34953860D02*
X-20838224Y-28851528D01*
X-27022195Y-34872221D02*
X-20919863Y-28769889D01*
X-27103834Y-34790582D02*
X-21001502Y-28688250D01*
X-27185473Y-34708943D02*
X-21083141Y-28606611D01*
X-27267112Y-34627304D02*
X-21164780Y-28524972D01*
X-27348751Y-34545664D02*
X-21246419Y-28443333D01*
X-27430390Y-34464025D02*
X-21328058Y-28361694D01*
X-27512029Y-34382386D02*
X-21409697Y-28280055D01*
X-27593668Y-34300747D02*
X-21491336Y-28198416D01*
X-27675307Y-34219108D02*
X-21572975Y-28116777D01*
G04 #@! TO.C,J64*
X-27084401Y-16948497D02*
X-26299512Y-16163608D01*
X-26299512Y-16163608D02*
X-25359060Y-17104060D01*
X-36015160Y-25879256D02*
X-34134256Y-27760160D01*
X-34134256Y-27760160D02*
X-28031924Y-21657828D01*
X-29912828Y-19776924D02*
X-28031924Y-21657828D01*
X-36015160Y-25879256D02*
X-29912828Y-19776924D01*
X-26942980Y-19197097D02*
X-26674279Y-18928396D01*
X-28717818Y-20971935D02*
X-28427904Y-20682021D01*
X-27452097Y-18687980D02*
X-27183396Y-18419279D01*
X-29226935Y-20462818D02*
X-28937021Y-20172904D01*
X-34215888Y-27678528D02*
X-28113556Y-21576196D01*
X-34297527Y-27596889D02*
X-28195195Y-21494557D01*
X-34379166Y-27515250D02*
X-28276834Y-21412918D01*
X-34460805Y-27433611D02*
X-28358473Y-21331279D01*
X-34542444Y-27351972D02*
X-28440112Y-21249640D01*
X-34624083Y-27270333D02*
X-28521751Y-21168001D01*
X-34705722Y-27188694D02*
X-28603390Y-21086362D01*
X-34787361Y-27107055D02*
X-28685029Y-21004723D01*
X-34869000Y-27025416D02*
X-28766668Y-20923084D01*
X-34950639Y-26943777D02*
X-28848307Y-20841445D01*
X-35032278Y-26862138D02*
X-28929946Y-20759806D01*
X-35113917Y-26780499D02*
X-29011585Y-20678167D01*
X-35195556Y-26698860D02*
X-29093224Y-20596528D01*
X-35277195Y-26617221D02*
X-29174863Y-20514889D01*
X-35358834Y-26535582D02*
X-29256502Y-20433250D01*
X-35440473Y-26453943D02*
X-29338141Y-20351611D01*
X-35522112Y-26372304D02*
X-29419780Y-20269972D01*
X-35603751Y-26290664D02*
X-29501419Y-20188333D01*
X-35685390Y-26209025D02*
X-29583058Y-20106694D01*
X-35767029Y-26127386D02*
X-29664697Y-20025055D01*
X-35848668Y-26045747D02*
X-29746336Y-19943416D01*
X-35930307Y-25964108D02*
X-29827975Y-19861777D01*
G04 #@! TO.C,J62*
X35930307Y25964108D02*
X29827975Y19861777D01*
X35848668Y26045747D02*
X29746336Y19943416D01*
X35767029Y26127386D02*
X29664697Y20025055D01*
X35685390Y26209025D02*
X29583058Y20106694D01*
X35603751Y26290664D02*
X29501419Y20188333D01*
X35522112Y26372304D02*
X29419780Y20269972D01*
X35440473Y26453943D02*
X29338141Y20351611D01*
X35358834Y26535582D02*
X29256502Y20433250D01*
X35277195Y26617221D02*
X29174863Y20514889D01*
X35195556Y26698860D02*
X29093224Y20596528D01*
X35113917Y26780499D02*
X29011585Y20678167D01*
X35032278Y26862138D02*
X28929946Y20759806D01*
X34950639Y26943777D02*
X28848307Y20841445D01*
X34869000Y27025416D02*
X28766668Y20923084D01*
X34787361Y27107055D02*
X28685029Y21004723D01*
X34705722Y27188694D02*
X28603390Y21086362D01*
X34624083Y27270333D02*
X28521751Y21168001D01*
X34542444Y27351972D02*
X28440112Y21249640D01*
X34460805Y27433611D02*
X28358473Y21331279D01*
X34379166Y27515250D02*
X28276834Y21412918D01*
X34297527Y27596889D02*
X28195195Y21494557D01*
X34215888Y27678528D02*
X28113556Y21576196D01*
X29226935Y20462818D02*
X28937021Y20172904D01*
X27452097Y18687980D02*
X27183396Y18419279D01*
X28717818Y20971935D02*
X28427904Y20682021D01*
X26942980Y19197097D02*
X26674279Y18928396D01*
X36015160Y25879256D02*
X29912828Y19776924D01*
X29912828Y19776924D02*
X28031924Y21657828D01*
X34134256Y27760160D02*
X28031924Y21657828D01*
X36015160Y25879256D02*
X34134256Y27760160D01*
X26299512Y16163608D02*
X25359060Y17104060D01*
X27084401Y16948497D02*
X26299512Y16163608D01*
G04 #@! TO.C,J61*
X18829401Y25203497D02*
X18044512Y24418608D01*
X18044512Y24418608D02*
X17104060Y25359060D01*
X27760160Y34134256D02*
X25879256Y36015160D01*
X25879256Y36015160D02*
X19776924Y29912828D01*
X21657828Y28031924D02*
X19776924Y29912828D01*
X27760160Y34134256D02*
X21657828Y28031924D01*
X18687980Y27452097D02*
X18419279Y27183396D01*
X20462818Y29226935D02*
X20172904Y28937021D01*
X19197097Y26942980D02*
X18928396Y26674279D01*
X20971935Y28717818D02*
X20682021Y28427904D01*
X25960888Y35933528D02*
X19858556Y29831196D01*
X26042527Y35851889D02*
X19940195Y29749557D01*
X26124166Y35770250D02*
X20021834Y29667918D01*
X26205805Y35688611D02*
X20103473Y29586279D01*
X26287444Y35606972D02*
X20185112Y29504640D01*
X26369083Y35525333D02*
X20266751Y29423001D01*
X26450722Y35443694D02*
X20348390Y29341362D01*
X26532361Y35362055D02*
X20430029Y29259723D01*
X26614000Y35280416D02*
X20511668Y29178084D01*
X26695639Y35198777D02*
X20593307Y29096445D01*
X26777278Y35117138D02*
X20674946Y29014806D01*
X26858917Y35035499D02*
X20756585Y28933167D01*
X26940556Y34953860D02*
X20838224Y28851528D01*
X27022195Y34872221D02*
X20919863Y28769889D01*
X27103834Y34790582D02*
X21001502Y28688250D01*
X27185473Y34708943D02*
X21083141Y28606611D01*
X27267112Y34627304D02*
X21164780Y28524972D01*
X27348751Y34545664D02*
X21246419Y28443333D01*
X27430390Y34464025D02*
X21328058Y28361694D01*
X27512029Y34382386D02*
X21409697Y28280055D01*
X27593668Y34300747D02*
X21491336Y28198416D01*
X27675307Y34219108D02*
X21572975Y28116777D01*
G04 #@! TO.C,J58*
X-21919548Y22004401D02*
X-21134659Y21219512D01*
X-21134659Y21219512D02*
X-22075111Y20279060D01*
X-30850307Y30935160D02*
X-36323313Y25462153D01*
X-36323313Y25462153D02*
X-30220982Y19359822D01*
X-24747975Y24832828D02*
X-30220982Y19359822D01*
X-30850307Y30935160D02*
X-24747975Y24832828D01*
X-34484835Y27300631D02*
X-28382504Y21198299D01*
X-32688784Y29096682D02*
X-26586453Y22994351D01*
X-27760250Y18270877D02*
X-27449123Y17959750D01*
X-29535088Y20045715D02*
X-29245174Y19755801D01*
X-27251133Y18779994D02*
X-26940006Y18468867D01*
X-29025971Y20554832D02*
X-28736057Y20264918D01*
X-25964199Y20066928D02*
X-25653072Y19755801D01*
X-27739037Y21841766D02*
X-27449123Y21551853D01*
X-25455082Y20576045D02*
X-25143955Y20264918D01*
X-27229920Y22350883D02*
X-26940006Y22060970D01*
X-24168148Y21862980D02*
X-23899447Y21594279D01*
X-25942986Y23637818D02*
X-25653072Y23347904D01*
X-23659031Y22372097D02*
X-23390330Y22103396D01*
X-25433869Y24146935D02*
X-25143955Y23857021D01*
X-32605275Y29180191D02*
X-26502943Y23077860D01*
X-32521769Y29263697D02*
X-26419438Y23161366D01*
X-32438263Y29347203D02*
X-26335932Y23244871D01*
X-32354758Y29430709D02*
X-26252426Y23328377D01*
X-32271252Y29514214D02*
X-26168920Y23411883D01*
X-32187746Y29597720D02*
X-26085415Y23495389D01*
X-32104240Y29681226D02*
X-26001909Y23578894D01*
X-32020735Y29764732D02*
X-25918403Y23662400D01*
X-31937229Y29848238D02*
X-25834897Y23745906D01*
X-31853723Y29931743D02*
X-25751391Y23829412D01*
X-31770217Y30015249D02*
X-25667886Y23912918D01*
X-31686711Y30098755D02*
X-25584380Y23996423D01*
X-31603206Y30182261D02*
X-25500874Y24079929D01*
X-31519700Y30265766D02*
X-25417368Y24163435D01*
X-31436194Y30349272D02*
X-25333863Y24246941D01*
X-31352688Y30432778D02*
X-25250357Y24330446D01*
X-31269183Y30516284D02*
X-25166851Y24413952D01*
X-31185677Y30599790D02*
X-25083345Y24497458D01*
X-31102171Y30683295D02*
X-24999839Y24580964D01*
X-31018665Y30766801D02*
X-24916334Y24664470D01*
X-30935159Y30850307D02*
X-24832828Y24747975D01*
G04 #@! TO.C,Y1*
X-5944065Y-7267657D02*
X-7216857Y-5994865D01*
X-8772492Y-7479789D02*
X-9550309Y-8257606D01*
X-7428989Y-8823292D02*
X-8206806Y-9601109D01*
G04 #@! TO.C,J37*
X22426897Y20003990D02*
X22745095Y20322188D01*
X22426897Y20003990D02*
X22108699Y20322188D01*
X18856008Y24352697D02*
X19174206Y24034499D01*
X20164155Y25660844D02*
X18856008Y24352697D01*
X27482711Y21948534D02*
X27305934Y21771757D01*
X21967278Y27463967D02*
X21790501Y27287190D01*
X25679588Y20145411D02*
X24371441Y18837264D01*
X24371441Y18837264D02*
X24053243Y19155462D01*
G04 #@! TO.C,U1*
X19850000Y4135000D02*
X19850000Y4610000D01*
X10630000Y-4610000D02*
X11105000Y-4610000D01*
X10630000Y-4135000D02*
X10630000Y-4610000D01*
X10630000Y4610000D02*
X11105000Y4610000D01*
X10630000Y4135000D02*
X10630000Y4610000D01*
X19850000Y-4610000D02*
X19375000Y-4610000D01*
X19850000Y-4135000D02*
X19850000Y-4610000D01*
D12*
G04 #@! TO.C,U18*
X-17535305Y10004618D02*
X-17340850Y10199072D01*
X-23015382Y15484695D02*
X-22764359Y15735718D01*
X-15484695Y23015382D02*
X-15735718Y22764359D01*
X-10004618Y17535305D02*
X-10255641Y17284282D01*
X-17535305Y10004618D02*
X-23015382Y15484695D01*
X-10004618Y17535305D02*
X-15484695Y23015382D01*
X-17340850Y10199072D02*
X-16262513Y9120734D01*
D11*
G04 #@! TO.C,U2*
X4135000Y-19850000D02*
X4610000Y-19850000D01*
X-4610000Y-10630000D02*
X-4610000Y-11105000D01*
X-4135000Y-10630000D02*
X-4610000Y-10630000D01*
X4610000Y-10630000D02*
X4610000Y-11105000D01*
X4135000Y-10630000D02*
X4610000Y-10630000D01*
X-4610000Y-19850000D02*
X-4610000Y-19375000D01*
X-4135000Y-19850000D02*
X-4610000Y-19850000D01*
G04 #@! TO.C,U3*
X-19850000Y-4135000D02*
X-19850000Y-4610000D01*
X-10630000Y4610000D02*
X-11105000Y4610000D01*
X-10630000Y4135000D02*
X-10630000Y4610000D01*
X-10630000Y-4610000D02*
X-11105000Y-4610000D01*
X-10630000Y-4135000D02*
X-10630000Y-4610000D01*
X-19850000Y4610000D02*
X-19375000Y4610000D01*
X-19850000Y4135000D02*
X-19850000Y4610000D01*
G04 #@! TO.C,U4*
X-4135000Y19850000D02*
X-4610000Y19850000D01*
X4610000Y10630000D02*
X4610000Y11105000D01*
X4135000Y10630000D02*
X4610000Y10630000D01*
X-4610000Y10630000D02*
X-4610000Y11105000D01*
X-4135000Y10630000D02*
X-4610000Y10630000D01*
X4610000Y19850000D02*
X4610000Y19375000D01*
X4135000Y19850000D02*
X4610000Y19850000D01*
G04 #@! TO.C,Y2*
X-9243086Y-14829229D02*
X-10126969Y-13945346D01*
X-10126969Y-13945346D02*
X-10692654Y-14511031D01*
X-14511031Y-10692654D02*
X-13945346Y-10126969D01*
X-13096817Y-14086767D02*
X-14086767Y-13096817D01*
X-11541183Y-10551233D02*
X-10551233Y-11541183D01*
X-10551233Y-11541183D02*
X-10091614Y-11081563D01*
G04 #@! TO.C,C86*
X9365727Y8486550D02*
X9135522Y8716755D01*
X8644478Y7765301D02*
X8414273Y7995506D01*
G04 #@! TO.C,C85*
X9811273Y14266322D02*
X10041478Y14496527D01*
X10532522Y13545073D02*
X10762727Y13775278D01*
G04 #@! TO.C,U5*
X10292954Y12555866D02*
X9020162Y11283074D01*
X11297046Y9006190D02*
X13029457Y10738602D01*
G04 #@! TO.C,C109*
X12820127Y-11954922D02*
X12589922Y-12185127D01*
X12098878Y-11233673D02*
X11868673Y-11463878D01*
G04 #@! TO.C,C110*
X7282927Y-7679278D02*
X7052722Y-7449073D01*
X6561678Y-8400527D02*
X6331473Y-8170322D01*
G04 #@! TO.C,U10*
X11934838Y-9657954D02*
X10662046Y-8385162D01*
X8385162Y-10662046D02*
X10117574Y-12394457D01*
G04 #@! TO.C,C88*
X7628478Y-7333727D02*
X7398273Y-7103522D01*
X8349727Y-6612478D02*
X8119522Y-6382273D01*
G04 #@! TO.C,C113*
X19869673Y20150678D02*
X20099878Y19920473D01*
X20590922Y20871927D02*
X20821127Y20641722D01*
D13*
G04 #@! TO.C,U11*
X16838800Y-19250425D02*
X17418628Y-18670598D01*
X18818699Y-21088903D02*
X19327816Y-20579786D01*
X18818699Y-21088903D02*
X18663136Y-20933340D01*
X20925878Y-18670598D02*
X21081441Y-18826161D01*
X21081441Y-18826161D02*
X20572324Y-19335278D01*
X18663136Y-17426090D02*
X19172253Y-16916973D01*
X19172253Y-16916973D02*
X19327816Y-17072536D01*
D11*
G04 #@! TO.C,J53*
X32555000Y12760000D02*
X32555000Y-12760000D01*
X32555000Y-12760000D02*
X35215000Y-12760000D01*
X35215000Y-12760000D02*
X35215000Y12760000D01*
X35215000Y12760000D02*
X32555000Y12760000D01*
X35215000Y11810000D02*
X41215000Y11810000D01*
X41215000Y11810000D02*
X41215000Y11050000D01*
X41215000Y11050000D02*
X35215000Y11050000D01*
X35215000Y11750000D02*
X41215000Y11750000D01*
X35215000Y11630000D02*
X41215000Y11630000D01*
X35215000Y11510000D02*
X41215000Y11510000D01*
X35215000Y11390000D02*
X41215000Y11390000D01*
X35215000Y11270000D02*
X41215000Y11270000D01*
X35215000Y11150000D02*
X41215000Y11150000D01*
X32157929Y11810000D02*
X32555000Y11810000D01*
X32157929Y11050000D02*
X32555000Y11050000D01*
X29685000Y11810000D02*
X30072071Y11810000D01*
X29685000Y11050000D02*
X30072071Y11050000D01*
X32555000Y10160000D02*
X35215000Y10160000D01*
X35215000Y9270000D02*
X41215000Y9270000D01*
X41215000Y9270000D02*
X41215000Y8510000D01*
X41215000Y8510000D02*
X35215000Y8510000D01*
X32157929Y9270000D02*
X32555000Y9270000D01*
X32157929Y8510000D02*
X32555000Y8510000D01*
X29617929Y9270000D02*
X30072071Y9270000D01*
X29617929Y8510000D02*
X30072071Y8510000D01*
X32555000Y7620000D02*
X35215000Y7620000D01*
X35215000Y6730000D02*
X41215000Y6730000D01*
X41215000Y6730000D02*
X41215000Y5970000D01*
X41215000Y5970000D02*
X35215000Y5970000D01*
X32157929Y6730000D02*
X32555000Y6730000D01*
X32157929Y5970000D02*
X32555000Y5970000D01*
X29617929Y6730000D02*
X30072071Y6730000D01*
X29617929Y5970000D02*
X30072071Y5970000D01*
X32555000Y5080000D02*
X35215000Y5080000D01*
X35215000Y4190000D02*
X41215000Y4190000D01*
X41215000Y4190000D02*
X41215000Y3430000D01*
X41215000Y3430000D02*
X35215000Y3430000D01*
X32157929Y4190000D02*
X32555000Y4190000D01*
X32157929Y3430000D02*
X32555000Y3430000D01*
X29617929Y4190000D02*
X30072071Y4190000D01*
X29617929Y3430000D02*
X30072071Y3430000D01*
X32555000Y2540000D02*
X35215000Y2540000D01*
X35215000Y1650000D02*
X41215000Y1650000D01*
X41215000Y1650000D02*
X41215000Y890000D01*
X41215000Y890000D02*
X35215000Y890000D01*
X32157929Y1650000D02*
X32555000Y1650000D01*
X32157929Y890000D02*
X32555000Y890000D01*
X29617929Y1650000D02*
X30072071Y1650000D01*
X29617929Y890000D02*
X30072071Y890000D01*
X32555000Y0D02*
X35215000Y0D01*
X35215000Y-890000D02*
X41215000Y-890000D01*
X41215000Y-890000D02*
X41215000Y-1650000D01*
X41215000Y-1650000D02*
X35215000Y-1650000D01*
X32157929Y-890000D02*
X32555000Y-890000D01*
X32157929Y-1650000D02*
X32555000Y-1650000D01*
X29617929Y-890000D02*
X30072071Y-890000D01*
X29617929Y-1650000D02*
X30072071Y-1650000D01*
X32555000Y-2540000D02*
X35215000Y-2540000D01*
X35215000Y-3430000D02*
X41215000Y-3430000D01*
X41215000Y-3430000D02*
X41215000Y-4190000D01*
X41215000Y-4190000D02*
X35215000Y-4190000D01*
X32157929Y-3430000D02*
X32555000Y-3430000D01*
X32157929Y-4190000D02*
X32555000Y-4190000D01*
X29617929Y-3430000D02*
X30072071Y-3430000D01*
X29617929Y-4190000D02*
X30072071Y-4190000D01*
X32555000Y-5080000D02*
X35215000Y-5080000D01*
X35215000Y-5970000D02*
X41215000Y-5970000D01*
X41215000Y-5970000D02*
X41215000Y-6730000D01*
X41215000Y-6730000D02*
X35215000Y-6730000D01*
X32157929Y-5970000D02*
X32555000Y-5970000D01*
X32157929Y-6730000D02*
X32555000Y-6730000D01*
X29617929Y-5970000D02*
X30072071Y-5970000D01*
X29617929Y-6730000D02*
X30072071Y-6730000D01*
X32555000Y-7620000D02*
X35215000Y-7620000D01*
X35215000Y-8510000D02*
X41215000Y-8510000D01*
X41215000Y-8510000D02*
X41215000Y-9270000D01*
X41215000Y-9270000D02*
X35215000Y-9270000D01*
X32157929Y-8510000D02*
X32555000Y-8510000D01*
X32157929Y-9270000D02*
X32555000Y-9270000D01*
X29617929Y-8510000D02*
X30072071Y-8510000D01*
X29617929Y-9270000D02*
X30072071Y-9270000D01*
X32555000Y-10160000D02*
X35215000Y-10160000D01*
X35215000Y-11050000D02*
X41215000Y-11050000D01*
X41215000Y-11050000D02*
X41215000Y-11810000D01*
X41215000Y-11810000D02*
X35215000Y-11810000D01*
X32157929Y-11050000D02*
X32555000Y-11050000D01*
X32157929Y-11810000D02*
X32555000Y-11810000D01*
X29617929Y-11050000D02*
X30072071Y-11050000D01*
X29617929Y-11810000D02*
X30072071Y-11810000D01*
X27305000Y11430000D02*
X27305000Y12700000D01*
X27305000Y12700000D02*
X28575000Y12700000D01*
G04 #@! TO.C,J54*
X12700000Y-27305000D02*
X12700000Y-28575000D01*
X11430000Y-27305000D02*
X12700000Y-27305000D01*
X-11810000Y-29617929D02*
X-11810000Y-30072071D01*
X-11050000Y-29617929D02*
X-11050000Y-30072071D01*
X-11810000Y-32157929D02*
X-11810000Y-32555000D01*
X-11050000Y-32157929D02*
X-11050000Y-32555000D01*
X-11810000Y-41215000D02*
X-11810000Y-35215000D01*
X-11050000Y-41215000D02*
X-11810000Y-41215000D01*
X-11050000Y-35215000D02*
X-11050000Y-41215000D01*
X-10160000Y-32555000D02*
X-10160000Y-35215000D01*
X-9270000Y-29617929D02*
X-9270000Y-30072071D01*
X-8510000Y-29617929D02*
X-8510000Y-30072071D01*
X-9270000Y-32157929D02*
X-9270000Y-32555000D01*
X-8510000Y-32157929D02*
X-8510000Y-32555000D01*
X-9270000Y-41215000D02*
X-9270000Y-35215000D01*
X-8510000Y-41215000D02*
X-9270000Y-41215000D01*
X-8510000Y-35215000D02*
X-8510000Y-41215000D01*
X-7620000Y-32555000D02*
X-7620000Y-35215000D01*
X-6730000Y-29617929D02*
X-6730000Y-30072071D01*
X-5970000Y-29617929D02*
X-5970000Y-30072071D01*
X-6730000Y-32157929D02*
X-6730000Y-32555000D01*
X-5970000Y-32157929D02*
X-5970000Y-32555000D01*
X-6730000Y-41215000D02*
X-6730000Y-35215000D01*
X-5970000Y-41215000D02*
X-6730000Y-41215000D01*
X-5970000Y-35215000D02*
X-5970000Y-41215000D01*
X-5080000Y-32555000D02*
X-5080000Y-35215000D01*
X-4190000Y-29617929D02*
X-4190000Y-30072071D01*
X-3430000Y-29617929D02*
X-3430000Y-30072071D01*
X-4190000Y-32157929D02*
X-4190000Y-32555000D01*
X-3430000Y-32157929D02*
X-3430000Y-32555000D01*
X-4190000Y-41215000D02*
X-4190000Y-35215000D01*
X-3430000Y-41215000D02*
X-4190000Y-41215000D01*
X-3430000Y-35215000D02*
X-3430000Y-41215000D01*
X-2540000Y-32555000D02*
X-2540000Y-35215000D01*
X-1650000Y-29617929D02*
X-1650000Y-30072071D01*
X-890000Y-29617929D02*
X-890000Y-30072071D01*
X-1650000Y-32157929D02*
X-1650000Y-32555000D01*
X-890000Y-32157929D02*
X-890000Y-32555000D01*
X-1650000Y-41215000D02*
X-1650000Y-35215000D01*
X-890000Y-41215000D02*
X-1650000Y-41215000D01*
X-890000Y-35215000D02*
X-890000Y-41215000D01*
X0Y-32555000D02*
X0Y-35215000D01*
X890000Y-29617929D02*
X890000Y-30072071D01*
X1650000Y-29617929D02*
X1650000Y-30072071D01*
X890000Y-32157929D02*
X890000Y-32555000D01*
X1650000Y-32157929D02*
X1650000Y-32555000D01*
X890000Y-41215000D02*
X890000Y-35215000D01*
X1650000Y-41215000D02*
X890000Y-41215000D01*
X1650000Y-35215000D02*
X1650000Y-41215000D01*
X2540000Y-32555000D02*
X2540000Y-35215000D01*
X3430000Y-29617929D02*
X3430000Y-30072071D01*
X4190000Y-29617929D02*
X4190000Y-30072071D01*
X3430000Y-32157929D02*
X3430000Y-32555000D01*
X4190000Y-32157929D02*
X4190000Y-32555000D01*
X3430000Y-41215000D02*
X3430000Y-35215000D01*
X4190000Y-41215000D02*
X3430000Y-41215000D01*
X4190000Y-35215000D02*
X4190000Y-41215000D01*
X5080000Y-32555000D02*
X5080000Y-35215000D01*
X5970000Y-29617929D02*
X5970000Y-30072071D01*
X6730000Y-29617929D02*
X6730000Y-30072071D01*
X5970000Y-32157929D02*
X5970000Y-32555000D01*
X6730000Y-32157929D02*
X6730000Y-32555000D01*
X5970000Y-41215000D02*
X5970000Y-35215000D01*
X6730000Y-41215000D02*
X5970000Y-41215000D01*
X6730000Y-35215000D02*
X6730000Y-41215000D01*
X7620000Y-32555000D02*
X7620000Y-35215000D01*
X8510000Y-29617929D02*
X8510000Y-30072071D01*
X9270000Y-29617929D02*
X9270000Y-30072071D01*
X8510000Y-32157929D02*
X8510000Y-32555000D01*
X9270000Y-32157929D02*
X9270000Y-32555000D01*
X8510000Y-41215000D02*
X8510000Y-35215000D01*
X9270000Y-41215000D02*
X8510000Y-41215000D01*
X9270000Y-35215000D02*
X9270000Y-41215000D01*
X10160000Y-32555000D02*
X10160000Y-35215000D01*
X11050000Y-29685000D02*
X11050000Y-30072071D01*
X11810000Y-29685000D02*
X11810000Y-30072071D01*
X11050000Y-32157929D02*
X11050000Y-32555000D01*
X11810000Y-32157929D02*
X11810000Y-32555000D01*
X11150000Y-35215000D02*
X11150000Y-41215000D01*
X11270000Y-35215000D02*
X11270000Y-41215000D01*
X11390000Y-35215000D02*
X11390000Y-41215000D01*
X11510000Y-35215000D02*
X11510000Y-41215000D01*
X11630000Y-35215000D02*
X11630000Y-41215000D01*
X11750000Y-35215000D02*
X11750000Y-41215000D01*
X11050000Y-41215000D02*
X11050000Y-35215000D01*
X11810000Y-41215000D02*
X11050000Y-41215000D01*
X11810000Y-35215000D02*
X11810000Y-41215000D01*
X12760000Y-35215000D02*
X12760000Y-32555000D01*
X-12760000Y-35215000D02*
X12760000Y-35215000D01*
X-12760000Y-32555000D02*
X-12760000Y-35215000D01*
X12760000Y-32555000D02*
X-12760000Y-32555000D01*
G04 #@! TO.C,J55*
X-32555000Y-12760000D02*
X-32555000Y12760000D01*
X-32555000Y12760000D02*
X-35215000Y12760000D01*
X-35215000Y12760000D02*
X-35215000Y-12760000D01*
X-35215000Y-12760000D02*
X-32555000Y-12760000D01*
X-35215000Y-11810000D02*
X-41215000Y-11810000D01*
X-41215000Y-11810000D02*
X-41215000Y-11050000D01*
X-41215000Y-11050000D02*
X-35215000Y-11050000D01*
X-35215000Y-11750000D02*
X-41215000Y-11750000D01*
X-35215000Y-11630000D02*
X-41215000Y-11630000D01*
X-35215000Y-11510000D02*
X-41215000Y-11510000D01*
X-35215000Y-11390000D02*
X-41215000Y-11390000D01*
X-35215000Y-11270000D02*
X-41215000Y-11270000D01*
X-35215000Y-11150000D02*
X-41215000Y-11150000D01*
X-32157929Y-11810000D02*
X-32555000Y-11810000D01*
X-32157929Y-11050000D02*
X-32555000Y-11050000D01*
X-29685000Y-11810000D02*
X-30072071Y-11810000D01*
X-29685000Y-11050000D02*
X-30072071Y-11050000D01*
X-32555000Y-10160000D02*
X-35215000Y-10160000D01*
X-35215000Y-9270000D02*
X-41215000Y-9270000D01*
X-41215000Y-9270000D02*
X-41215000Y-8510000D01*
X-41215000Y-8510000D02*
X-35215000Y-8510000D01*
X-32157929Y-9270000D02*
X-32555000Y-9270000D01*
X-32157929Y-8510000D02*
X-32555000Y-8510000D01*
X-29617929Y-9270000D02*
X-30072071Y-9270000D01*
X-29617929Y-8510000D02*
X-30072071Y-8510000D01*
X-32555000Y-7620000D02*
X-35215000Y-7620000D01*
X-35215000Y-6730000D02*
X-41215000Y-6730000D01*
X-41215000Y-6730000D02*
X-41215000Y-5970000D01*
X-41215000Y-5970000D02*
X-35215000Y-5970000D01*
X-32157929Y-6730000D02*
X-32555000Y-6730000D01*
X-32157929Y-5970000D02*
X-32555000Y-5970000D01*
X-29617929Y-6730000D02*
X-30072071Y-6730000D01*
X-29617929Y-5970000D02*
X-30072071Y-5970000D01*
X-32555000Y-5080000D02*
X-35215000Y-5080000D01*
X-35215000Y-4190000D02*
X-41215000Y-4190000D01*
X-41215000Y-4190000D02*
X-41215000Y-3430000D01*
X-41215000Y-3430000D02*
X-35215000Y-3430000D01*
X-32157929Y-4190000D02*
X-32555000Y-4190000D01*
X-32157929Y-3430000D02*
X-32555000Y-3430000D01*
X-29617929Y-4190000D02*
X-30072071Y-4190000D01*
X-29617929Y-3430000D02*
X-30072071Y-3430000D01*
X-32555000Y-2540000D02*
X-35215000Y-2540000D01*
X-35215000Y-1650000D02*
X-41215000Y-1650000D01*
X-41215000Y-1650000D02*
X-41215000Y-890000D01*
X-41215000Y-890000D02*
X-35215000Y-890000D01*
X-32157929Y-1650000D02*
X-32555000Y-1650000D01*
X-32157929Y-890000D02*
X-32555000Y-890000D01*
X-29617929Y-1650000D02*
X-30072071Y-1650000D01*
X-29617929Y-890000D02*
X-30072071Y-890000D01*
X-32555000Y0D02*
X-35215000Y0D01*
X-35215000Y890000D02*
X-41215000Y890000D01*
X-41215000Y890000D02*
X-41215000Y1650000D01*
X-41215000Y1650000D02*
X-35215000Y1650000D01*
X-32157929Y890000D02*
X-32555000Y890000D01*
X-32157929Y1650000D02*
X-32555000Y1650000D01*
X-29617929Y890000D02*
X-30072071Y890000D01*
X-29617929Y1650000D02*
X-30072071Y1650000D01*
X-32555000Y2540000D02*
X-35215000Y2540000D01*
X-35215000Y3430000D02*
X-41215000Y3430000D01*
X-41215000Y3430000D02*
X-41215000Y4190000D01*
X-41215000Y4190000D02*
X-35215000Y4190000D01*
X-32157929Y3430000D02*
X-32555000Y3430000D01*
X-32157929Y4190000D02*
X-32555000Y4190000D01*
X-29617929Y3430000D02*
X-30072071Y3430000D01*
X-29617929Y4190000D02*
X-30072071Y4190000D01*
X-32555000Y5080000D02*
X-35215000Y5080000D01*
X-35215000Y5970000D02*
X-41215000Y5970000D01*
X-41215000Y5970000D02*
X-41215000Y6730000D01*
X-41215000Y6730000D02*
X-35215000Y6730000D01*
X-32157929Y5970000D02*
X-32555000Y5970000D01*
X-32157929Y6730000D02*
X-32555000Y6730000D01*
X-29617929Y5970000D02*
X-30072071Y5970000D01*
X-29617929Y6730000D02*
X-30072071Y6730000D01*
X-32555000Y7620000D02*
X-35215000Y7620000D01*
X-35215000Y8510000D02*
X-41215000Y8510000D01*
X-41215000Y8510000D02*
X-41215000Y9270000D01*
X-41215000Y9270000D02*
X-35215000Y9270000D01*
X-32157929Y8510000D02*
X-32555000Y8510000D01*
X-32157929Y9270000D02*
X-32555000Y9270000D01*
X-29617929Y8510000D02*
X-30072071Y8510000D01*
X-29617929Y9270000D02*
X-30072071Y9270000D01*
X-32555000Y10160000D02*
X-35215000Y10160000D01*
X-35215000Y11050000D02*
X-41215000Y11050000D01*
X-41215000Y11050000D02*
X-41215000Y11810000D01*
X-41215000Y11810000D02*
X-35215000Y11810000D01*
X-32157929Y11050000D02*
X-32555000Y11050000D01*
X-32157929Y11810000D02*
X-32555000Y11810000D01*
X-29617929Y11050000D02*
X-30072071Y11050000D01*
X-29617929Y11810000D02*
X-30072071Y11810000D01*
X-27305000Y-11430000D02*
X-27305000Y-12700000D01*
X-27305000Y-12700000D02*
X-28575000Y-12700000D01*
G04 #@! TO.C,J56*
X-12700000Y27305000D02*
X-12700000Y28575000D01*
X-11430000Y27305000D02*
X-12700000Y27305000D01*
X11810000Y29617929D02*
X11810000Y30072071D01*
X11050000Y29617929D02*
X11050000Y30072071D01*
X11810000Y32157929D02*
X11810000Y32555000D01*
X11050000Y32157929D02*
X11050000Y32555000D01*
X11810000Y41215000D02*
X11810000Y35215000D01*
X11050000Y41215000D02*
X11810000Y41215000D01*
X11050000Y35215000D02*
X11050000Y41215000D01*
X10160000Y32555000D02*
X10160000Y35215000D01*
X9270000Y29617929D02*
X9270000Y30072071D01*
X8510000Y29617929D02*
X8510000Y30072071D01*
X9270000Y32157929D02*
X9270000Y32555000D01*
X8510000Y32157929D02*
X8510000Y32555000D01*
X9270000Y41215000D02*
X9270000Y35215000D01*
X8510000Y41215000D02*
X9270000Y41215000D01*
X8510000Y35215000D02*
X8510000Y41215000D01*
X7620000Y32555000D02*
X7620000Y35215000D01*
X6730000Y29617929D02*
X6730000Y30072071D01*
X5970000Y29617929D02*
X5970000Y30072071D01*
X6730000Y32157929D02*
X6730000Y32555000D01*
X5970000Y32157929D02*
X5970000Y32555000D01*
X6730000Y41215000D02*
X6730000Y35215000D01*
X5970000Y41215000D02*
X6730000Y41215000D01*
X5970000Y35215000D02*
X5970000Y41215000D01*
X5080000Y32555000D02*
X5080000Y35215000D01*
X4190000Y29617929D02*
X4190000Y30072071D01*
X3430000Y29617929D02*
X3430000Y30072071D01*
X4190000Y32157929D02*
X4190000Y32555000D01*
X3430000Y32157929D02*
X3430000Y32555000D01*
X4190000Y41215000D02*
X4190000Y35215000D01*
X3430000Y41215000D02*
X4190000Y41215000D01*
X3430000Y35215000D02*
X3430000Y41215000D01*
X2540000Y32555000D02*
X2540000Y35215000D01*
X1650000Y29617929D02*
X1650000Y30072071D01*
X890000Y29617929D02*
X890000Y30072071D01*
X1650000Y32157929D02*
X1650000Y32555000D01*
X890000Y32157929D02*
X890000Y32555000D01*
X1650000Y41215000D02*
X1650000Y35215000D01*
X890000Y41215000D02*
X1650000Y41215000D01*
X890000Y35215000D02*
X890000Y41215000D01*
X0Y32555000D02*
X0Y35215000D01*
X-890000Y29617929D02*
X-890000Y30072071D01*
X-1650000Y29617929D02*
X-1650000Y30072071D01*
X-890000Y32157929D02*
X-890000Y32555000D01*
X-1650000Y32157929D02*
X-1650000Y32555000D01*
X-890000Y41215000D02*
X-890000Y35215000D01*
X-1650000Y41215000D02*
X-890000Y41215000D01*
X-1650000Y35215000D02*
X-1650000Y41215000D01*
X-2540000Y32555000D02*
X-2540000Y35215000D01*
X-3430000Y29617929D02*
X-3430000Y30072071D01*
X-4190000Y29617929D02*
X-4190000Y30072071D01*
X-3430000Y32157929D02*
X-3430000Y32555000D01*
X-4190000Y32157929D02*
X-4190000Y32555000D01*
X-3430000Y41215000D02*
X-3430000Y35215000D01*
X-4190000Y41215000D02*
X-3430000Y41215000D01*
X-4190000Y35215000D02*
X-4190000Y41215000D01*
X-5080000Y32555000D02*
X-5080000Y35215000D01*
X-5970000Y29617929D02*
X-5970000Y30072071D01*
X-6730000Y29617929D02*
X-6730000Y30072071D01*
X-5970000Y32157929D02*
X-5970000Y32555000D01*
X-6730000Y32157929D02*
X-6730000Y32555000D01*
X-5970000Y41215000D02*
X-5970000Y35215000D01*
X-6730000Y41215000D02*
X-5970000Y41215000D01*
X-6730000Y35215000D02*
X-6730000Y41215000D01*
X-7620000Y32555000D02*
X-7620000Y35215000D01*
X-8510000Y29617929D02*
X-8510000Y30072071D01*
X-9270000Y29617929D02*
X-9270000Y30072071D01*
X-8510000Y32157929D02*
X-8510000Y32555000D01*
X-9270000Y32157929D02*
X-9270000Y32555000D01*
X-8510000Y41215000D02*
X-8510000Y35215000D01*
X-9270000Y41215000D02*
X-8510000Y41215000D01*
X-9270000Y35215000D02*
X-9270000Y41215000D01*
X-10160000Y32555000D02*
X-10160000Y35215000D01*
X-11050000Y29685000D02*
X-11050000Y30072071D01*
X-11810000Y29685000D02*
X-11810000Y30072071D01*
X-11050000Y32157929D02*
X-11050000Y32555000D01*
X-11810000Y32157929D02*
X-11810000Y32555000D01*
X-11150000Y35215000D02*
X-11150000Y41215000D01*
X-11270000Y35215000D02*
X-11270000Y41215000D01*
X-11390000Y35215000D02*
X-11390000Y41215000D01*
X-11510000Y35215000D02*
X-11510000Y41215000D01*
X-11630000Y35215000D02*
X-11630000Y41215000D01*
X-11750000Y35215000D02*
X-11750000Y41215000D01*
X-11050000Y41215000D02*
X-11050000Y35215000D01*
X-11810000Y41215000D02*
X-11050000Y41215000D01*
X-11810000Y35215000D02*
X-11810000Y41215000D01*
X-12760000Y35215000D02*
X-12760000Y32555000D01*
X12760000Y35215000D02*
X-12760000Y35215000D01*
X12760000Y32555000D02*
X12760000Y35215000D01*
X-12760000Y32555000D02*
X12760000Y32555000D01*
G04 #@! TO.C,SW2*
X26846777Y-18798324D02*
X27058909Y-19010456D01*
X24513324Y-21131777D02*
X26846777Y-18798324D01*
X24725456Y-21343909D02*
X24513324Y-21131777D01*
X28826676Y-20778223D02*
X28614544Y-20566091D01*
X26493223Y-23111676D02*
X28826676Y-20778223D01*
X26281091Y-22899544D02*
X26493223Y-23111676D01*
G04 #@! TO.C,J65*
X25460000Y-9525000D02*
X25460000Y-10855000D01*
X25460000Y-10855000D02*
X24130000Y-10855000D01*
X22860000Y-10855000D02*
X20260000Y-10855000D01*
X20260000Y-8195000D02*
X20260000Y-10855000D01*
X22860000Y-8195000D02*
X20260000Y-8195000D01*
X22860000Y-8195000D02*
X22860000Y-10855000D01*
G04 #@! TO.C,J69*
X25460000Y9525000D02*
X25460000Y8195000D01*
X25460000Y8195000D02*
X24130000Y8195000D01*
X22860000Y8195000D02*
X20260000Y8195000D01*
X20260000Y10855000D02*
X20260000Y8195000D01*
X22860000Y10855000D02*
X20260000Y10855000D01*
X22860000Y10855000D02*
X22860000Y8195000D01*
G04 #@! TO.C,J73*
X-22860000Y8195000D02*
X-22860000Y10855000D01*
X-22860000Y8195000D02*
X-20260000Y8195000D01*
X-20260000Y8195000D02*
X-20260000Y10855000D01*
X-22860000Y10855000D02*
X-20260000Y10855000D01*
X-25460000Y10855000D02*
X-24130000Y10855000D01*
X-25460000Y9525000D02*
X-25460000Y10855000D01*
G04 #@! TO.C,J78*
X-8195000Y-22860000D02*
X-10855000Y-22860000D01*
X-8195000Y-22860000D02*
X-8195000Y-20260000D01*
X-8195000Y-20260000D02*
X-10855000Y-20260000D01*
X-10855000Y-22860000D02*
X-10855000Y-20260000D01*
X-10855000Y-25460000D02*
X-10855000Y-24130000D01*
X-9525000Y-25460000D02*
X-10855000Y-25460000D01*
G04 #@! TO.C,J79*
X-25460000Y-9525000D02*
X-25460000Y-8195000D01*
X-25460000Y-8195000D02*
X-24130000Y-8195000D01*
X-22860000Y-8195000D02*
X-20260000Y-8195000D01*
X-20260000Y-10855000D02*
X-20260000Y-8195000D01*
X-22860000Y-10855000D02*
X-20260000Y-10855000D01*
X-22860000Y-10855000D02*
X-22860000Y-8195000D01*
G04 #@! TO.C,J80*
X10855000Y-22860000D02*
X8195000Y-22860000D01*
X10855000Y-22860000D02*
X10855000Y-20260000D01*
X10855000Y-20260000D02*
X8195000Y-20260000D01*
X8195000Y-22860000D02*
X8195000Y-20260000D01*
X8195000Y-25460000D02*
X8195000Y-24130000D01*
X9525000Y-25460000D02*
X8195000Y-25460000D01*
G04 #@! TO.C,J81*
X9525000Y25460000D02*
X10855000Y25460000D01*
X10855000Y25460000D02*
X10855000Y24130000D01*
X10855000Y22860000D02*
X10855000Y20260000D01*
X8195000Y20260000D02*
X10855000Y20260000D01*
X8195000Y22860000D02*
X8195000Y20260000D01*
X8195000Y22860000D02*
X10855000Y22860000D01*
G04 #@! TO.C,J83*
X22263057Y-39631358D02*
X16160726Y-33529026D01*
X22346563Y-39547852D02*
X16244232Y-33445521D01*
X22430069Y-39464346D02*
X16327737Y-33362015D01*
X22513575Y-39380841D02*
X16411243Y-33278509D01*
X22597081Y-39297335D02*
X16494749Y-33195003D01*
X22680586Y-39213829D02*
X16578255Y-33111497D01*
X22764092Y-39130323D02*
X16661761Y-33027992D01*
X22847598Y-39046817D02*
X16745266Y-32944486D01*
X22931104Y-38963312D02*
X16828772Y-32860980D01*
X23014609Y-38879806D02*
X16912278Y-32777474D01*
X23098115Y-38796300D02*
X16995784Y-32693969D01*
X23181621Y-38712794D02*
X17079289Y-32610463D01*
X23265127Y-38629289D02*
X17162795Y-32526957D01*
X23348633Y-38545783D02*
X17246301Y-32443451D01*
X23432138Y-38462277D02*
X17329807Y-32359945D01*
X23515644Y-38378771D02*
X17413313Y-32276440D01*
X23599150Y-38295265D02*
X17496818Y-32192934D01*
X23682656Y-38211760D02*
X17580324Y-32109428D01*
X23766161Y-38128254D02*
X17663830Y-32025922D01*
X23849667Y-38044748D02*
X17747336Y-31942417D01*
X23933173Y-37961242D02*
X17830841Y-31858911D01*
X16761767Y-32927986D02*
X16471853Y-32638072D01*
X14986929Y-31153148D02*
X14718228Y-30884447D01*
X17270884Y-32418869D02*
X16980970Y-32128955D01*
X15496046Y-30644031D02*
X15227345Y-30375330D01*
X18557818Y-31131934D02*
X18267904Y-30842021D01*
X16782980Y-29357096D02*
X16471853Y-29045969D01*
X19066935Y-30622817D02*
X18777021Y-30332904D01*
X17292097Y-28847979D02*
X16980970Y-28536852D01*
X24016682Y-37877733D02*
X17914351Y-31775402D01*
X22178205Y-39716211D02*
X16075873Y-33613879D01*
X16075873Y-33613879D02*
X19752828Y-29936924D01*
X25855160Y-36039255D02*
X19752828Y-29936924D01*
X22178205Y-39716211D02*
X25855160Y-36039255D01*
X12462557Y-30000563D02*
X13403009Y-29060111D01*
X13247446Y-30785452D02*
X12462557Y-30000563D01*
G04 #@! TO.C,J85*
X-10855000Y22860000D02*
X-8195000Y22860000D01*
X-10855000Y22860000D02*
X-10855000Y20260000D01*
X-10855000Y20260000D02*
X-8195000Y20260000D01*
X-8195000Y22860000D02*
X-8195000Y20260000D01*
X-8195000Y25460000D02*
X-8195000Y24130000D01*
X-9525000Y25460000D02*
X-8195000Y25460000D01*
G04 #@! TO.C,J57*
D14*
X-13935597Y26387822D02*
X-14188135Y26135284D01*
X-14255478Y26101612D01*
X-14322822Y26101612D01*
X-14390165Y26135284D01*
X-14423837Y26168956D01*
X-13598879Y26051104D02*
X-13767238Y26219463D01*
X-13952433Y26067940D01*
X-13918761Y26067940D01*
X-13868253Y26051104D01*
X-13784074Y25966925D01*
X-13767238Y25916417D01*
X-13767238Y25882746D01*
X-13784074Y25832238D01*
X-13868253Y25748059D01*
X-13918761Y25731223D01*
X-13952433Y25731223D01*
X-14002940Y25748059D01*
X-14087120Y25832238D01*
X-14103956Y25882746D01*
X-14103956Y25916417D01*
X-13464192Y25916417D02*
X-13228490Y25680715D01*
X-13733566Y25478685D01*
G04 #@! TO.C,U8*
X-375952Y5938009D02*
X-375952Y5533247D01*
X-352142Y5485628D01*
X-328333Y5461819D01*
X-280714Y5438009D01*
X-185476Y5438009D01*
X-137857Y5461819D01*
X-114047Y5485628D01*
X-90238Y5533247D01*
X-90238Y5938009D01*
X219285Y5723723D02*
X171666Y5747533D01*
X147857Y5771342D01*
X124047Y5818961D01*
X124047Y5842771D01*
X147857Y5890390D01*
X171666Y5914200D01*
X219285Y5938009D01*
X314523Y5938009D01*
X362142Y5914200D01*
X385952Y5890390D01*
X409761Y5842771D01*
X409761Y5818961D01*
X385952Y5771342D01*
X362142Y5747533D01*
X314523Y5723723D01*
X219285Y5723723D01*
X171666Y5699914D01*
X147857Y5676104D01*
X124047Y5628485D01*
X124047Y5533247D01*
X147857Y5485628D01*
X171666Y5461819D01*
X219285Y5438009D01*
X314523Y5438009D01*
X362142Y5461819D01*
X385952Y5485628D01*
X409761Y5533247D01*
X409761Y5628485D01*
X385952Y5676104D01*
X362142Y5699914D01*
X314523Y5723723D01*
G04 #@! TO.C,J82*
X24672402Y-15395177D02*
X24419864Y-15647715D01*
X24352521Y-15681387D01*
X24285177Y-15681387D01*
X24217834Y-15647715D01*
X24184162Y-15614043D01*
X24739746Y-15765566D02*
X24722910Y-15715059D01*
X24722910Y-15681387D01*
X24739746Y-15630879D01*
X24756582Y-15614043D01*
X24807089Y-15597208D01*
X24840761Y-15597208D01*
X24891269Y-15614043D01*
X24958612Y-15681387D01*
X24975448Y-15731895D01*
X24975448Y-15765566D01*
X24958612Y-15816074D01*
X24941776Y-15832910D01*
X24891269Y-15849746D01*
X24857597Y-15849746D01*
X24807089Y-15832910D01*
X24739746Y-15765566D01*
X24689238Y-15748730D01*
X24655566Y-15748730D01*
X24605059Y-15765566D01*
X24537715Y-15832910D01*
X24520879Y-15883417D01*
X24520879Y-15917089D01*
X24537715Y-15967597D01*
X24605059Y-16034940D01*
X24655566Y-16051776D01*
X24689238Y-16051776D01*
X24739746Y-16034940D01*
X24807089Y-15967597D01*
X24823925Y-15917089D01*
X24823925Y-15883417D01*
X24807089Y-15832910D01*
X25126971Y-15917089D02*
X25160643Y-15917089D01*
X25211150Y-15933925D01*
X25295330Y-16018104D01*
X25312165Y-16068612D01*
X25312165Y-16102284D01*
X25295330Y-16152791D01*
X25261658Y-16186463D01*
X25194314Y-16220135D01*
X24790253Y-16220135D01*
X25009120Y-16439001D01*
G04 #@! TO.C,SW1*
X19356700Y-26014509D02*
X19424043Y-25980837D01*
X19508223Y-25896658D01*
X19525059Y-25846150D01*
X19525059Y-25812478D01*
X19508223Y-25761971D01*
X19474551Y-25728299D01*
X19424043Y-25711463D01*
X19390372Y-25711463D01*
X19339864Y-25728299D01*
X19255685Y-25778807D01*
X19205177Y-25795643D01*
X19171505Y-25795643D01*
X19120998Y-25778807D01*
X19087326Y-25745135D01*
X19070490Y-25694627D01*
X19070490Y-25660956D01*
X19087326Y-25610448D01*
X19171505Y-25526269D01*
X19238849Y-25492597D01*
X19339864Y-25357910D02*
X19777597Y-25627284D01*
X19592402Y-25307402D01*
X19912284Y-25492597D01*
X19642910Y-25054864D01*
X20316345Y-25088536D02*
X20114314Y-25290566D01*
X20215330Y-25189551D02*
X19861776Y-24835998D01*
X19878612Y-24920177D01*
X19878612Y-24987521D01*
X19861776Y-25038028D01*
G04 #@! TO.C,J63*
X-18259822Y-22952597D02*
X-18007284Y-23205135D01*
X-17973612Y-23272478D01*
X-17973612Y-23339822D01*
X-18007284Y-23407165D01*
X-18040956Y-23440837D01*
X-17939940Y-22632715D02*
X-18007284Y-22700059D01*
X-18024120Y-22750566D01*
X-18024120Y-22784238D01*
X-18007284Y-22868417D01*
X-17956776Y-22952597D01*
X-17822089Y-23087284D01*
X-17771582Y-23104120D01*
X-17737910Y-23104120D01*
X-17687402Y-23087284D01*
X-17620059Y-23019940D01*
X-17603223Y-22969433D01*
X-17603223Y-22935761D01*
X-17620059Y-22885253D01*
X-17704238Y-22801074D01*
X-17754746Y-22784238D01*
X-17788417Y-22784238D01*
X-17838925Y-22801074D01*
X-17906269Y-22868417D01*
X-17923104Y-22918925D01*
X-17923104Y-22952597D01*
X-17906269Y-23003104D01*
X-17788417Y-22481192D02*
X-17569551Y-22262326D01*
X-17552715Y-22514864D01*
X-17502208Y-22464356D01*
X-17451700Y-22447521D01*
X-17418028Y-22447521D01*
X-17367521Y-22464356D01*
X-17283341Y-22548536D01*
X-17266505Y-22599043D01*
X-17266505Y-22632715D01*
X-17283341Y-22683223D01*
X-17384356Y-22784238D01*
X-17434864Y-22801074D01*
X-17468536Y-22801074D01*
G04 #@! TO.C,J64*
X-23339822Y-17872597D02*
X-23087284Y-18125135D01*
X-23053612Y-18192478D01*
X-23053612Y-18259822D01*
X-23087284Y-18327165D01*
X-23120956Y-18360837D01*
X-23019940Y-17552715D02*
X-23087284Y-17620059D01*
X-23104120Y-17670566D01*
X-23104120Y-17704238D01*
X-23087284Y-17788417D01*
X-23036776Y-17872597D01*
X-22902089Y-18007284D01*
X-22851582Y-18024120D01*
X-22817910Y-18024120D01*
X-22767402Y-18007284D01*
X-22700059Y-17939940D01*
X-22683223Y-17889433D01*
X-22683223Y-17855761D01*
X-22700059Y-17805253D01*
X-22784238Y-17721074D01*
X-22834746Y-17704238D01*
X-22868417Y-17704238D01*
X-22918925Y-17721074D01*
X-22986269Y-17788417D01*
X-23003104Y-17838925D01*
X-23003104Y-17872597D01*
X-22986269Y-17923104D01*
X-22565372Y-17333849D02*
X-22329669Y-17569551D01*
X-22784238Y-17283341D02*
X-22615879Y-17620059D01*
X-22397013Y-17401192D01*
G04 #@! TO.C,J62*
X22380177Y17687402D02*
X22632715Y17434864D01*
X22666387Y17367521D01*
X22666387Y17300177D01*
X22632715Y17232834D01*
X22599043Y17199162D01*
X22700059Y18007284D02*
X22632715Y17939940D01*
X22615879Y17889433D01*
X22615879Y17855761D01*
X22632715Y17771582D01*
X22683223Y17687402D01*
X22817910Y17552715D01*
X22868417Y17535879D01*
X22902089Y17535879D01*
X22952597Y17552715D01*
X23019940Y17620059D01*
X23036776Y17670566D01*
X23036776Y17704238D01*
X23019940Y17754746D01*
X22935761Y17838925D01*
X22885253Y17855761D01*
X22851582Y17855761D01*
X22801074Y17838925D01*
X22733730Y17771582D01*
X22716895Y17721074D01*
X22716895Y17687402D01*
X22733730Y17636895D01*
X22902089Y18141971D02*
X22902089Y18175643D01*
X22918925Y18226150D01*
X23003104Y18310330D01*
X23053612Y18327165D01*
X23087284Y18327165D01*
X23137791Y18310330D01*
X23171463Y18276658D01*
X23205135Y18209314D01*
X23205135Y17805253D01*
X23424001Y18024120D01*
G04 #@! TO.C,J61*
X17300177Y22767402D02*
X17552715Y22514864D01*
X17586387Y22447521D01*
X17586387Y22380177D01*
X17552715Y22312834D01*
X17519043Y22279162D01*
X17620059Y23087284D02*
X17552715Y23019940D01*
X17535879Y22969433D01*
X17535879Y22935761D01*
X17552715Y22851582D01*
X17603223Y22767402D01*
X17737910Y22632715D01*
X17788417Y22615879D01*
X17822089Y22615879D01*
X17872597Y22632715D01*
X17939940Y22700059D01*
X17956776Y22750566D01*
X17956776Y22784238D01*
X17939940Y22834746D01*
X17855761Y22918925D01*
X17805253Y22935761D01*
X17771582Y22935761D01*
X17721074Y22918925D01*
X17653730Y22851582D01*
X17636895Y22801074D01*
X17636895Y22767402D01*
X17653730Y22716895D01*
X18344001Y23104120D02*
X18141971Y22902089D01*
X18242986Y23003104D02*
X17889433Y23356658D01*
X17906269Y23272478D01*
X17906269Y23205135D01*
X17889433Y23154627D01*
G04 #@! TO.C,J58*
X-26000597Y14322822D02*
X-26253135Y14070284D01*
X-26320478Y14036612D01*
X-26387822Y14036612D01*
X-26455165Y14070284D01*
X-26488837Y14103956D01*
X-25663879Y13986104D02*
X-25832238Y14154463D01*
X-26017433Y14002940D01*
X-25983761Y14002940D01*
X-25933253Y13986104D01*
X-25849074Y13901925D01*
X-25832238Y13851417D01*
X-25832238Y13817746D01*
X-25849074Y13767238D01*
X-25933253Y13683059D01*
X-25983761Y13666223D01*
X-26017433Y13666223D01*
X-26067940Y13683059D01*
X-26152120Y13767238D01*
X-26168956Y13817746D01*
X-26168956Y13851417D01*
X-25596536Y13615715D02*
X-25613372Y13666223D01*
X-25613372Y13699895D01*
X-25596536Y13750402D01*
X-25579700Y13767238D01*
X-25529192Y13784074D01*
X-25495521Y13784074D01*
X-25445013Y13767238D01*
X-25377669Y13699895D01*
X-25360834Y13649387D01*
X-25360834Y13615715D01*
X-25377669Y13565208D01*
X-25394505Y13548372D01*
X-25445013Y13531536D01*
X-25478685Y13531536D01*
X-25529192Y13548372D01*
X-25596536Y13615715D01*
X-25647043Y13632551D01*
X-25680715Y13632551D01*
X-25731223Y13615715D01*
X-25798566Y13548372D01*
X-25815402Y13497864D01*
X-25815402Y13464192D01*
X-25798566Y13413685D01*
X-25731223Y13346341D01*
X-25680715Y13329505D01*
X-25647043Y13329505D01*
X-25596536Y13346341D01*
X-25529192Y13413685D01*
X-25512356Y13464192D01*
X-25512356Y13497864D01*
X-25529192Y13548372D01*
G04 #@! TO.C,Y1*
X-9625576Y-7297340D02*
X-9457217Y-7465699D01*
X-9928622Y-7229997D02*
X-9625576Y-7297340D01*
X-9692920Y-6994295D01*
X-9036321Y-7044802D02*
X-9238351Y-7246833D01*
X-9137336Y-7145817D02*
X-9490889Y-6792264D01*
X-9474053Y-6876443D01*
X-9474053Y-6943787D01*
X-9490889Y-6994295D01*
G04 #@! TO.C,J37*
X20735402Y21257022D02*
X20482864Y21004484D01*
X20415521Y20970812D01*
X20348177Y20970812D01*
X20280834Y21004484D01*
X20247162Y21038156D01*
X20870089Y21122335D02*
X21088956Y20903469D01*
X20836417Y20886633D01*
X20886925Y20836125D01*
X20903761Y20785617D01*
X20903761Y20751946D01*
X20886925Y20701438D01*
X20802746Y20617259D01*
X20752238Y20600423D01*
X20718566Y20600423D01*
X20668059Y20617259D01*
X20567043Y20718274D01*
X20550208Y20768782D01*
X20550208Y20802453D01*
X21206807Y20785617D02*
X21442509Y20549915D01*
X20937433Y20347885D01*
G04 #@! TO.C,U1*
X20786190Y-380952D02*
X21190952Y-380952D01*
X21238571Y-357142D01*
X21262380Y-333333D01*
X21286190Y-285714D01*
X21286190Y-190476D01*
X21262380Y-142857D01*
X21238571Y-119047D01*
X21190952Y-95238D01*
X20786190Y-95238D01*
X21286190Y404761D02*
X21286190Y119047D01*
X21286190Y261904D02*
X20786190Y261904D01*
X20857619Y214285D01*
X20905238Y166666D01*
X20929047Y119047D01*
G04 #@! TO.C,U18*
X-21173537Y12721928D02*
X-21459747Y12435718D01*
X-21476582Y12385210D01*
X-21476582Y12351539D01*
X-21459747Y12301031D01*
X-21392403Y12233687D01*
X-21341895Y12216852D01*
X-21308224Y12216852D01*
X-21257716Y12233687D01*
X-20971506Y12519897D01*
X-20971506Y11812791D02*
X-21173537Y12014821D01*
X-21072521Y11913806D02*
X-20718968Y12267359D01*
X-20803147Y12250523D01*
X-20870491Y12250523D01*
X-20920999Y12267359D01*
X-20567445Y11812791D02*
X-20584281Y11863298D01*
X-20584281Y11896970D01*
X-20567445Y11947478D01*
X-20550609Y11964313D01*
X-20500102Y11981149D01*
X-20466430Y11981149D01*
X-20415922Y11964313D01*
X-20348579Y11896970D01*
X-20331743Y11846462D01*
X-20331743Y11812791D01*
X-20348579Y11762283D01*
X-20365415Y11745447D01*
X-20415922Y11728611D01*
X-20449594Y11728611D01*
X-20500102Y11745447D01*
X-20567445Y11812791D01*
X-20617953Y11829626D01*
X-20651625Y11829626D01*
X-20702132Y11812791D01*
X-20769476Y11745447D01*
X-20786312Y11694939D01*
X-20786312Y11661268D01*
X-20769476Y11610760D01*
X-20702132Y11543417D01*
X-20651625Y11526581D01*
X-20617953Y11526581D01*
X-20567445Y11543417D01*
X-20500102Y11610760D01*
X-20483266Y11661268D01*
X-20483266Y11694939D01*
X-20500102Y11745447D01*
G04 #@! TO.C,REF\002A\002A*
X29102133Y14302609D02*
X28935466Y14540704D01*
X28816419Y14302609D02*
X28816419Y14802609D01*
X29006895Y14802609D01*
X29054514Y14778800D01*
X29078323Y14754990D01*
X29102133Y14707371D01*
X29102133Y14635942D01*
X29078323Y14588323D01*
X29054514Y14564514D01*
X29006895Y14540704D01*
X28816419Y14540704D01*
X29316419Y14564514D02*
X29483085Y14564514D01*
X29554514Y14302609D02*
X29316419Y14302609D01*
X29316419Y14802609D01*
X29554514Y14802609D01*
X29935466Y14564514D02*
X29768800Y14564514D01*
X29768800Y14302609D02*
X29768800Y14802609D01*
X30006895Y14802609D01*
X30268800Y14802609D02*
X30268800Y14683561D01*
X30149752Y14731180D02*
X30268800Y14683561D01*
X30387847Y14731180D01*
X30197371Y14588323D02*
X30268800Y14683561D01*
X30340228Y14588323D01*
X30649752Y14802609D02*
X30649752Y14683561D01*
X30530704Y14731180D02*
X30649752Y14683561D01*
X30768800Y14731180D01*
X30578323Y14588323D02*
X30649752Y14683561D01*
X30721180Y14588323D01*
X14497133Y28831409D02*
X14330466Y29069504D01*
X14211419Y28831409D02*
X14211419Y29331409D01*
X14401895Y29331409D01*
X14449514Y29307600D01*
X14473323Y29283790D01*
X14497133Y29236171D01*
X14497133Y29164742D01*
X14473323Y29117123D01*
X14449514Y29093314D01*
X14401895Y29069504D01*
X14211419Y29069504D01*
X14711419Y29093314D02*
X14878085Y29093314D01*
X14949514Y28831409D02*
X14711419Y28831409D01*
X14711419Y29331409D01*
X14949514Y29331409D01*
X15330466Y29093314D02*
X15163800Y29093314D01*
X15163800Y28831409D02*
X15163800Y29331409D01*
X15401895Y29331409D01*
X15663800Y29331409D02*
X15663800Y29212361D01*
X15544752Y29259980D02*
X15663800Y29212361D01*
X15782847Y29259980D01*
X15592371Y29117123D02*
X15663800Y29212361D01*
X15735228Y29117123D01*
X16044752Y29331409D02*
X16044752Y29212361D01*
X15925704Y29259980D02*
X16044752Y29212361D01*
X16163800Y29259980D01*
X15973323Y29117123D02*
X16044752Y29212361D01*
X16116180Y29117123D01*
X-14277209Y-30816466D02*
X-14515304Y-30983133D01*
X-14277209Y-31102180D02*
X-14777209Y-31102180D01*
X-14777209Y-30911704D01*
X-14753400Y-30864085D01*
X-14729590Y-30840276D01*
X-14681971Y-30816466D01*
X-14610542Y-30816466D01*
X-14562923Y-30840276D01*
X-14539114Y-30864085D01*
X-14515304Y-30911704D01*
X-14515304Y-31102180D01*
X-14539114Y-30602180D02*
X-14539114Y-30435514D01*
X-14277209Y-30364085D02*
X-14277209Y-30602180D01*
X-14777209Y-30602180D01*
X-14777209Y-30364085D01*
X-14539114Y-29983133D02*
X-14539114Y-30149800D01*
X-14277209Y-30149800D02*
X-14777209Y-30149800D01*
X-14777209Y-29911704D01*
X-14777209Y-29649800D02*
X-14658161Y-29649800D01*
X-14705780Y-29768847D02*
X-14658161Y-29649800D01*
X-14705780Y-29530752D01*
X-14562923Y-29721228D02*
X-14658161Y-29649800D01*
X-14562923Y-29578371D01*
X-14777209Y-29268847D02*
X-14658161Y-29268847D01*
X-14705780Y-29387895D02*
X-14658161Y-29268847D01*
X-14705780Y-29149800D01*
X-14562923Y-29340276D02*
X-14658161Y-29268847D01*
X-14562923Y-29197419D01*
X-28882209Y-16236866D02*
X-29120304Y-16403533D01*
X-28882209Y-16522580D02*
X-29382209Y-16522580D01*
X-29382209Y-16332104D01*
X-29358400Y-16284485D01*
X-29334590Y-16260676D01*
X-29286971Y-16236866D01*
X-29215542Y-16236866D01*
X-29167923Y-16260676D01*
X-29144114Y-16284485D01*
X-29120304Y-16332104D01*
X-29120304Y-16522580D01*
X-29144114Y-16022580D02*
X-29144114Y-15855914D01*
X-28882209Y-15784485D02*
X-28882209Y-16022580D01*
X-29382209Y-16022580D01*
X-29382209Y-15784485D01*
X-29144114Y-15403533D02*
X-29144114Y-15570200D01*
X-28882209Y-15570200D02*
X-29382209Y-15570200D01*
X-29382209Y-15332104D01*
X-29382209Y-15070200D02*
X-29263161Y-15070200D01*
X-29310780Y-15189247D02*
X-29263161Y-15070200D01*
X-29310780Y-14951152D01*
X-29167923Y-15141628D02*
X-29263161Y-15070200D01*
X-29167923Y-14998771D01*
X-29382209Y-14689247D02*
X-29263161Y-14689247D01*
X-29310780Y-14808295D02*
X-29263161Y-14689247D01*
X-29310780Y-14570200D01*
X-29167923Y-14760676D02*
X-29263161Y-14689247D01*
X-29167923Y-14617819D01*
X-15474866Y30406209D02*
X-15641533Y30644304D01*
X-15760580Y30406209D02*
X-15760580Y30906209D01*
X-15570104Y30906209D01*
X-15522485Y30882400D01*
X-15498676Y30858590D01*
X-15474866Y30810971D01*
X-15474866Y30739542D01*
X-15498676Y30691923D01*
X-15522485Y30668114D01*
X-15570104Y30644304D01*
X-15760580Y30644304D01*
X-15260580Y30668114D02*
X-15093914Y30668114D01*
X-15022485Y30406209D02*
X-15260580Y30406209D01*
X-15260580Y30906209D01*
X-15022485Y30906209D01*
X-14641533Y30668114D02*
X-14808200Y30668114D01*
X-14808200Y30406209D02*
X-14808200Y30906209D01*
X-14570104Y30906209D01*
X-14308200Y30906209D02*
X-14308200Y30787161D01*
X-14427247Y30834780D02*
X-14308200Y30787161D01*
X-14189152Y30834780D01*
X-14379628Y30691923D02*
X-14308200Y30787161D01*
X-14236771Y30691923D01*
X-13927247Y30906209D02*
X-13927247Y30787161D01*
X-14046295Y30834780D02*
X-13927247Y30787161D01*
X-13808200Y30834780D01*
X-13998676Y30691923D02*
X-13927247Y30787161D01*
X-13855819Y30691923D01*
G04 #@! TO.C,C112*
X22082625Y-21375312D02*
X22082625Y-21408983D01*
X22048954Y-21476327D01*
X22015282Y-21509999D01*
X21947938Y-21543670D01*
X21880595Y-21543670D01*
X21830087Y-21526835D01*
X21745908Y-21476327D01*
X21695400Y-21425819D01*
X21644893Y-21341640D01*
X21628057Y-21291132D01*
X21628057Y-21223789D01*
X21661729Y-21156445D01*
X21695400Y-21122774D01*
X21762744Y-21089102D01*
X21796416Y-21089102D01*
X22453015Y-21072266D02*
X22250984Y-21274296D01*
X22352000Y-21173281D02*
X21998446Y-20819728D01*
X22015282Y-20903907D01*
X22015282Y-20971251D01*
X21998446Y-21021758D01*
X22789732Y-20735548D02*
X22587702Y-20937579D01*
X22688717Y-20836564D02*
X22335164Y-20483010D01*
X22352000Y-20567190D01*
X22352000Y-20634533D01*
X22335164Y-20685041D01*
X22604538Y-20280980D02*
X22604538Y-20247308D01*
X22621374Y-20196800D01*
X22705553Y-20112621D01*
X22756061Y-20095785D01*
X22789732Y-20095785D01*
X22840240Y-20112621D01*
X22873912Y-20146293D01*
X22907583Y-20213636D01*
X22907583Y-20617697D01*
X23126450Y-20398831D01*
G04 #@! TO.C,C111*
X20685625Y-22823112D02*
X20685625Y-22856783D01*
X20651954Y-22924127D01*
X20618282Y-22957799D01*
X20550938Y-22991470D01*
X20483595Y-22991470D01*
X20433087Y-22974635D01*
X20348908Y-22924127D01*
X20298400Y-22873619D01*
X20247893Y-22789440D01*
X20231057Y-22738932D01*
X20231057Y-22671589D01*
X20264729Y-22604245D01*
X20298400Y-22570574D01*
X20365744Y-22536902D01*
X20399416Y-22536902D01*
X21056015Y-22520066D02*
X20853984Y-22722096D01*
X20955000Y-22621081D02*
X20601446Y-22267528D01*
X20618282Y-22351707D01*
X20618282Y-22419051D01*
X20601446Y-22469558D01*
X21392732Y-22183348D02*
X21190702Y-22385379D01*
X21291717Y-22284364D02*
X20938164Y-21930810D01*
X20955000Y-22014990D01*
X20955000Y-22082333D01*
X20938164Y-22132841D01*
X21729450Y-21846631D02*
X21527419Y-22048661D01*
X21628435Y-21947646D02*
X21274881Y-21594093D01*
X21291717Y-21678272D01*
X21291717Y-21745616D01*
X21274881Y-21796123D01*
G04 #@! TO.C,C131*
X-21097374Y-20079912D02*
X-21097374Y-20113583D01*
X-21131045Y-20180927D01*
X-21164717Y-20214599D01*
X-21232061Y-20248270D01*
X-21299404Y-20248270D01*
X-21349912Y-20231435D01*
X-21434091Y-20180927D01*
X-21484599Y-20130419D01*
X-21535106Y-20046240D01*
X-21551942Y-19995732D01*
X-21551942Y-19928389D01*
X-21518270Y-19861045D01*
X-21484599Y-19827374D01*
X-21417255Y-19793702D01*
X-21383583Y-19793702D01*
X-20726984Y-19776866D02*
X-20929015Y-19978896D01*
X-20827999Y-19877881D02*
X-21181553Y-19524328D01*
X-21164717Y-19608507D01*
X-21164717Y-19675851D01*
X-21181553Y-19726358D01*
X-20962687Y-19305461D02*
X-20743820Y-19086595D01*
X-20726984Y-19339133D01*
X-20676477Y-19288625D01*
X-20625969Y-19271790D01*
X-20592297Y-19271790D01*
X-20541790Y-19288625D01*
X-20457610Y-19372805D01*
X-20440774Y-19423312D01*
X-20440774Y-19456984D01*
X-20457610Y-19507492D01*
X-20558625Y-19608507D01*
X-20609133Y-19625343D01*
X-20642805Y-19625343D01*
X-20053549Y-19103431D02*
X-20255580Y-19305461D01*
X-20154564Y-19204446D02*
X-20508118Y-18850893D01*
X-20491282Y-18935072D01*
X-20491282Y-19002416D01*
X-20508118Y-19052923D01*
G04 #@! TO.C,C132*
X-19827374Y-21349912D02*
X-19827374Y-21383583D01*
X-19861045Y-21450927D01*
X-19894717Y-21484599D01*
X-19962061Y-21518270D01*
X-20029404Y-21518270D01*
X-20079912Y-21501435D01*
X-20164091Y-21450927D01*
X-20214599Y-21400419D01*
X-20265106Y-21316240D01*
X-20281942Y-21265732D01*
X-20281942Y-21198389D01*
X-20248270Y-21131045D01*
X-20214599Y-21097374D01*
X-20147255Y-21063702D01*
X-20113583Y-21063702D01*
X-19456984Y-21046866D02*
X-19659015Y-21248896D01*
X-19557999Y-21147881D02*
X-19911553Y-20794328D01*
X-19894717Y-20878507D01*
X-19894717Y-20945851D01*
X-19911553Y-20996358D01*
X-19692687Y-20575461D02*
X-19473820Y-20356595D01*
X-19456984Y-20609133D01*
X-19406477Y-20558625D01*
X-19355969Y-20541790D01*
X-19322297Y-20541790D01*
X-19271790Y-20558625D01*
X-19187610Y-20642805D01*
X-19170774Y-20693312D01*
X-19170774Y-20726984D01*
X-19187610Y-20777492D01*
X-19288625Y-20878507D01*
X-19339133Y-20895343D01*
X-19372805Y-20895343D01*
X-19305461Y-20255580D02*
X-19305461Y-20221908D01*
X-19288625Y-20171400D01*
X-19204446Y-20087221D01*
X-19153938Y-20070385D01*
X-19120267Y-20070385D01*
X-19069759Y-20087221D01*
X-19036087Y-20120893D01*
X-19002416Y-20188236D01*
X-19002416Y-20592297D01*
X-18783549Y-20373431D01*
G04 #@! TO.C,C135*
X-14366374Y8368087D02*
X-14366374Y8334416D01*
X-14400045Y8267072D01*
X-14433717Y8233400D01*
X-14501061Y8199729D01*
X-14568404Y8199729D01*
X-14618912Y8216564D01*
X-14703091Y8267072D01*
X-14753599Y8317580D01*
X-14804106Y8401759D01*
X-14820942Y8452267D01*
X-14820942Y8519610D01*
X-14787270Y8586954D01*
X-14753599Y8620625D01*
X-14686255Y8654297D01*
X-14652583Y8654297D01*
X-13995984Y8671133D02*
X-14198015Y8469103D01*
X-14097000Y8570118D02*
X-14450553Y8923671D01*
X-14433717Y8839492D01*
X-14433717Y8772148D01*
X-14450553Y8721641D01*
X-14231687Y9142538D02*
X-14012820Y9361404D01*
X-13995984Y9108866D01*
X-13945477Y9159374D01*
X-13894969Y9176209D01*
X-13861297Y9176209D01*
X-13810790Y9159374D01*
X-13726610Y9075194D01*
X-13709774Y9024687D01*
X-13709774Y8991015D01*
X-13726610Y8940507D01*
X-13827625Y8839492D01*
X-13878133Y8822656D01*
X-13911805Y8822656D01*
X-13692938Y9681286D02*
X-13861297Y9512927D01*
X-13709774Y9327732D01*
X-13709774Y9361404D01*
X-13692938Y9411912D01*
X-13608759Y9496091D01*
X-13558251Y9512927D01*
X-13524580Y9512927D01*
X-13474072Y9496091D01*
X-13389893Y9411912D01*
X-13373057Y9361404D01*
X-13373057Y9327732D01*
X-13389893Y9277225D01*
X-13474072Y9193045D01*
X-13524580Y9176209D01*
X-13558251Y9176209D01*
G04 #@! TO.C,C136*
X-25413912Y15255374D02*
X-25447583Y15255374D01*
X-25514927Y15289045D01*
X-25548599Y15322717D01*
X-25582270Y15390061D01*
X-25582270Y15457404D01*
X-25565435Y15507912D01*
X-25514927Y15592091D01*
X-25464419Y15642599D01*
X-25380240Y15693106D01*
X-25329732Y15709942D01*
X-25262389Y15709942D01*
X-25195045Y15676270D01*
X-25161374Y15642599D01*
X-25127702Y15575255D01*
X-25127702Y15541583D01*
X-25110866Y14884984D02*
X-25312896Y15087015D01*
X-25211881Y14985999D02*
X-24858328Y15339553D01*
X-24942507Y15322717D01*
X-25009851Y15322717D01*
X-25060358Y15339553D01*
X-24639461Y15120687D02*
X-24420595Y14901820D01*
X-24673133Y14884984D01*
X-24622625Y14834477D01*
X-24605790Y14783969D01*
X-24605790Y14750297D01*
X-24622625Y14699790D01*
X-24706805Y14615610D01*
X-24757312Y14598774D01*
X-24790984Y14598774D01*
X-24841492Y14615610D01*
X-24942507Y14716625D01*
X-24959343Y14767133D01*
X-24959343Y14800805D01*
X-24117549Y14598774D02*
X-24184893Y14666118D01*
X-24235400Y14682954D01*
X-24269072Y14682954D01*
X-24353251Y14666118D01*
X-24437431Y14615610D01*
X-24572118Y14480923D01*
X-24588954Y14430416D01*
X-24588954Y14396744D01*
X-24572118Y14346236D01*
X-24504774Y14278893D01*
X-24454267Y14262057D01*
X-24420595Y14262057D01*
X-24370087Y14278893D01*
X-24285908Y14363072D01*
X-24269072Y14413580D01*
X-24269072Y14447251D01*
X-24285908Y14497759D01*
X-24353251Y14565103D01*
X-24403759Y14581938D01*
X-24437431Y14581938D01*
X-24487938Y14565103D01*
G04 #@! TO.C,U2*
X-380952Y-20786190D02*
X-380952Y-21190952D01*
X-357142Y-21238571D01*
X-333333Y-21262380D01*
X-285714Y-21286190D01*
X-190476Y-21286190D01*
X-142857Y-21262380D01*
X-119047Y-21238571D01*
X-95238Y-21190952D01*
X-95238Y-20786190D01*
X119047Y-20833809D02*
X142857Y-20810000D01*
X190476Y-20786190D01*
X309523Y-20786190D01*
X357142Y-20810000D01*
X380952Y-20833809D01*
X404761Y-20881428D01*
X404761Y-20929047D01*
X380952Y-21000476D01*
X95238Y-21286190D01*
X404761Y-21286190D01*
G04 #@! TO.C,U3*
X-21333809Y-380952D02*
X-20929047Y-380952D01*
X-20881428Y-357142D01*
X-20857619Y-333333D01*
X-20833809Y-285714D01*
X-20833809Y-190476D01*
X-20857619Y-142857D01*
X-20881428Y-119047D01*
X-20929047Y-95238D01*
X-21333809Y-95238D01*
X-21333809Y95238D02*
X-21333809Y404761D01*
X-21143333Y238095D01*
X-21143333Y309523D01*
X-21119523Y357142D01*
X-21095714Y380952D01*
X-21048095Y404761D01*
X-20929047Y404761D01*
X-20881428Y380952D01*
X-20857619Y357142D01*
X-20833809Y309523D01*
X-20833809Y166666D01*
X-20857619Y119047D01*
X-20881428Y95238D01*
G04 #@! TO.C,U4*
X-380952Y21333809D02*
X-380952Y20929047D01*
X-357142Y20881428D01*
X-333333Y20857619D01*
X-285714Y20833809D01*
X-190476Y20833809D01*
X-142857Y20857619D01*
X-119047Y20881428D01*
X-95238Y20929047D01*
X-95238Y21333809D01*
X357142Y21167142D02*
X357142Y20833809D01*
X238095Y21357619D02*
X119047Y21000476D01*
X428571Y21000476D01*
G04 #@! TO.C,Y2*
X-15307721Y-9223640D02*
X-15476080Y-9391999D01*
X-15240378Y-8920594D02*
X-15307721Y-9223640D01*
X-15004676Y-9156296D01*
X-14937332Y-9290983D02*
X-14903660Y-9290983D01*
X-14853153Y-9307819D01*
X-14768973Y-9391999D01*
X-14752137Y-9442506D01*
X-14752137Y-9476178D01*
X-14768973Y-9526686D01*
X-14802645Y-9560357D01*
X-14869989Y-9594029D01*
X-15274050Y-9594029D01*
X-15055183Y-9812895D01*
G04 #@! TO.C,C86*
X7698246Y7594015D02*
X7664574Y7594015D01*
X7597231Y7627687D01*
X7563559Y7661358D01*
X7529887Y7728702D01*
X7529887Y7796045D01*
X7546723Y7846553D01*
X7597231Y7930732D01*
X7647738Y7981240D01*
X7731918Y8031748D01*
X7782425Y8048583D01*
X7849769Y8048583D01*
X7917112Y8014912D01*
X7950784Y7981240D01*
X7984456Y7913896D01*
X7984456Y7880225D01*
X8068635Y7560343D02*
X8051800Y7610851D01*
X8051800Y7644522D01*
X8068635Y7695030D01*
X8085471Y7711866D01*
X8135979Y7728702D01*
X8169651Y7728702D01*
X8220158Y7711866D01*
X8287502Y7644522D01*
X8304338Y7594015D01*
X8304338Y7560343D01*
X8287502Y7509835D01*
X8270666Y7493000D01*
X8220158Y7476164D01*
X8186487Y7476164D01*
X8135979Y7493000D01*
X8068635Y7560343D01*
X8018128Y7577179D01*
X7984456Y7577179D01*
X7933948Y7560343D01*
X7866605Y7493000D01*
X7849769Y7442492D01*
X7849769Y7408820D01*
X7866605Y7358312D01*
X7933948Y7290969D01*
X7984456Y7274133D01*
X8018128Y7274133D01*
X8068635Y7290969D01*
X8135979Y7358312D01*
X8152815Y7408820D01*
X8152815Y7442492D01*
X8135979Y7493000D01*
X8657891Y7274133D02*
X8590548Y7341477D01*
X8540040Y7358312D01*
X8506368Y7358312D01*
X8422189Y7341477D01*
X8338009Y7290969D01*
X8203322Y7156282D01*
X8186487Y7105774D01*
X8186487Y7072103D01*
X8203322Y7021595D01*
X8270666Y6954251D01*
X8321174Y6937416D01*
X8354845Y6937416D01*
X8405353Y6954251D01*
X8489532Y7038431D01*
X8506368Y7088938D01*
X8506368Y7122610D01*
X8489532Y7173118D01*
X8422189Y7240461D01*
X8371681Y7257297D01*
X8338009Y7257297D01*
X8287502Y7240461D01*
G04 #@! TO.C,C85*
X9384832Y14421729D02*
X9384832Y14388057D01*
X9351160Y14320714D01*
X9317489Y14287042D01*
X9250145Y14253370D01*
X9182802Y14253370D01*
X9132294Y14270206D01*
X9048115Y14320714D01*
X8997607Y14371221D01*
X8947099Y14455401D01*
X8930264Y14505908D01*
X8930264Y14573252D01*
X8963935Y14640595D01*
X8997607Y14674267D01*
X9064951Y14707939D01*
X9098622Y14707939D01*
X9418504Y14792118D02*
X9367996Y14775283D01*
X9334325Y14775283D01*
X9283817Y14792118D01*
X9266981Y14808954D01*
X9250145Y14859462D01*
X9250145Y14893134D01*
X9266981Y14943641D01*
X9334325Y15010985D01*
X9384832Y15027821D01*
X9418504Y15027821D01*
X9469012Y15010985D01*
X9485848Y14994149D01*
X9502683Y14943641D01*
X9502683Y14909970D01*
X9485848Y14859462D01*
X9418504Y14792118D01*
X9401668Y14741611D01*
X9401668Y14707939D01*
X9418504Y14657431D01*
X9485848Y14590088D01*
X9536355Y14573252D01*
X9570027Y14573252D01*
X9620535Y14590088D01*
X9687878Y14657431D01*
X9704714Y14707939D01*
X9704714Y14741611D01*
X9687878Y14792118D01*
X9620535Y14859462D01*
X9570027Y14876298D01*
X9536355Y14876298D01*
X9485848Y14859462D01*
X9721550Y15398210D02*
X9553191Y15229851D01*
X9704714Y15044657D01*
X9704714Y15078328D01*
X9721550Y15128836D01*
X9805729Y15213015D01*
X9856237Y15229851D01*
X9889909Y15229851D01*
X9940416Y15213015D01*
X10024596Y15128836D01*
X10041431Y15078328D01*
X10041431Y15044657D01*
X10024596Y14994149D01*
X9940416Y14909970D01*
X9889909Y14893134D01*
X9856237Y14893134D01*
G04 #@! TO.C,U5*
X11856013Y9017438D02*
X12142223Y8731228D01*
X12192730Y8714392D01*
X12226402Y8714392D01*
X12276910Y8731228D01*
X12344253Y8798572D01*
X12361089Y8849079D01*
X12361089Y8882751D01*
X12344253Y8933259D01*
X12058043Y9219469D01*
X12394761Y9556186D02*
X12226402Y9387827D01*
X12377925Y9202633D01*
X12377925Y9236304D01*
X12394761Y9286812D01*
X12478940Y9370991D01*
X12529448Y9387827D01*
X12563120Y9387827D01*
X12613627Y9370991D01*
X12697807Y9286812D01*
X12714643Y9236304D01*
X12714643Y9202633D01*
X12697807Y9152125D01*
X12613627Y9067946D01*
X12563120Y9051110D01*
X12529448Y9051110D01*
G04 #@! TO.C,C109*
X12684625Y-13171112D02*
X12684625Y-13204783D01*
X12650954Y-13272127D01*
X12617282Y-13305799D01*
X12549938Y-13339470D01*
X12482595Y-13339470D01*
X12432087Y-13322635D01*
X12347908Y-13272127D01*
X12297400Y-13221619D01*
X12246893Y-13137440D01*
X12230057Y-13086932D01*
X12230057Y-13019589D01*
X12263729Y-12952245D01*
X12297400Y-12918574D01*
X12364744Y-12884902D01*
X12398416Y-12884902D01*
X13055015Y-12868066D02*
X12852984Y-13070096D01*
X12954000Y-12969081D02*
X12600446Y-12615528D01*
X12617282Y-12699707D01*
X12617282Y-12767051D01*
X12600446Y-12817558D01*
X12920328Y-12295646D02*
X12954000Y-12261974D01*
X13004507Y-12245138D01*
X13038179Y-12245138D01*
X13088687Y-12261974D01*
X13172866Y-12312482D01*
X13257045Y-12396661D01*
X13307553Y-12480841D01*
X13324389Y-12531348D01*
X13324389Y-12565020D01*
X13307553Y-12615528D01*
X13273881Y-12649200D01*
X13223374Y-12666035D01*
X13189702Y-12666035D01*
X13139194Y-12649200D01*
X13055015Y-12598692D01*
X12970835Y-12514512D01*
X12920328Y-12430333D01*
X12903492Y-12379825D01*
X12903492Y-12346154D01*
X12920328Y-12295646D01*
X13560091Y-12362990D02*
X13627435Y-12295646D01*
X13644270Y-12245138D01*
X13644270Y-12211467D01*
X13627435Y-12127287D01*
X13576927Y-12043108D01*
X13442240Y-11908421D01*
X13391732Y-11891585D01*
X13358061Y-11891585D01*
X13307553Y-11908421D01*
X13240209Y-11975764D01*
X13223374Y-12026272D01*
X13223374Y-12059944D01*
X13240209Y-12110451D01*
X13324389Y-12194631D01*
X13374896Y-12211467D01*
X13408568Y-12211467D01*
X13459076Y-12194631D01*
X13526419Y-12127287D01*
X13543255Y-12076780D01*
X13543255Y-12043108D01*
X13526419Y-11992600D01*
G04 #@! TO.C,C110*
X5396287Y-8442825D02*
X5362616Y-8442825D01*
X5295272Y-8409154D01*
X5261600Y-8375482D01*
X5227929Y-8308138D01*
X5227929Y-8240795D01*
X5244764Y-8190287D01*
X5295272Y-8106108D01*
X5345780Y-8055600D01*
X5429959Y-8005093D01*
X5480467Y-7988257D01*
X5547810Y-7988257D01*
X5615154Y-8021929D01*
X5648825Y-8055600D01*
X5682497Y-8122944D01*
X5682497Y-8156616D01*
X5699333Y-8813215D02*
X5497303Y-8611184D01*
X5598318Y-8712200D02*
X5951871Y-8358646D01*
X5867692Y-8375482D01*
X5800348Y-8375482D01*
X5749841Y-8358646D01*
X6036051Y-9149932D02*
X5834020Y-8947902D01*
X5935035Y-9048917D02*
X6288589Y-8695364D01*
X6204409Y-8712200D01*
X6137066Y-8712200D01*
X6086558Y-8695364D01*
X6608470Y-9015245D02*
X6642142Y-9048917D01*
X6658978Y-9099425D01*
X6658978Y-9133096D01*
X6642142Y-9183604D01*
X6591635Y-9267783D01*
X6507455Y-9351963D01*
X6423276Y-9402470D01*
X6372768Y-9419306D01*
X6339096Y-9419306D01*
X6288589Y-9402470D01*
X6254917Y-9368799D01*
X6238081Y-9318291D01*
X6238081Y-9284619D01*
X6254917Y-9234112D01*
X6305425Y-9149932D01*
X6389604Y-9065753D01*
X6473783Y-9015245D01*
X6524291Y-8998409D01*
X6557963Y-8998409D01*
X6608470Y-9015245D01*
G04 #@! TO.C,U10*
X8010879Y-11154254D02*
X7724669Y-11440464D01*
X7707834Y-11490972D01*
X7707834Y-11524643D01*
X7724669Y-11575151D01*
X7792013Y-11642495D01*
X7842521Y-11659330D01*
X7876192Y-11659330D01*
X7926700Y-11642495D01*
X8212910Y-11356285D01*
X8212910Y-12063391D02*
X8010879Y-11861361D01*
X8111895Y-11962376D02*
X8465448Y-11608823D01*
X8381269Y-11625659D01*
X8313925Y-11625659D01*
X8263417Y-11608823D01*
X8785330Y-11928704D02*
X8819001Y-11962376D01*
X8835837Y-12012884D01*
X8835837Y-12046556D01*
X8819001Y-12097063D01*
X8768494Y-12181243D01*
X8684314Y-12265422D01*
X8600135Y-12315930D01*
X8549627Y-12332765D01*
X8515956Y-12332765D01*
X8465448Y-12315930D01*
X8431776Y-12282258D01*
X8414940Y-12231750D01*
X8414940Y-12198078D01*
X8431776Y-12147571D01*
X8482284Y-12063391D01*
X8566463Y-11979212D01*
X8650643Y-11928704D01*
X8701150Y-11911869D01*
X8734822Y-11911869D01*
X8785330Y-11928704D01*
G04 #@! TO.C,C88*
X8399379Y-5924720D02*
X8365707Y-5924720D01*
X8298364Y-5891048D01*
X8264692Y-5857377D01*
X8231020Y-5790033D01*
X8231020Y-5722690D01*
X8247856Y-5672182D01*
X8298364Y-5588003D01*
X8348871Y-5537495D01*
X8433051Y-5486987D01*
X8483558Y-5470152D01*
X8550902Y-5470152D01*
X8618245Y-5503823D01*
X8651917Y-5537495D01*
X8685589Y-5604839D01*
X8685589Y-5638510D01*
X8769768Y-5958392D02*
X8752933Y-5907884D01*
X8752933Y-5874213D01*
X8769768Y-5823705D01*
X8786604Y-5806869D01*
X8837112Y-5790033D01*
X8870784Y-5790033D01*
X8921291Y-5806869D01*
X8988635Y-5874213D01*
X9005471Y-5924720D01*
X9005471Y-5958392D01*
X8988635Y-6008900D01*
X8971799Y-6025736D01*
X8921291Y-6042571D01*
X8887620Y-6042571D01*
X8837112Y-6025736D01*
X8769768Y-5958392D01*
X8719261Y-5941556D01*
X8685589Y-5941556D01*
X8635081Y-5958392D01*
X8567738Y-6025736D01*
X8550902Y-6076243D01*
X8550902Y-6109915D01*
X8567738Y-6160423D01*
X8635081Y-6227766D01*
X8685589Y-6244602D01*
X8719261Y-6244602D01*
X8769768Y-6227766D01*
X8837112Y-6160423D01*
X8853948Y-6109915D01*
X8853948Y-6076243D01*
X8837112Y-6025736D01*
X9106486Y-6295110D02*
X9089650Y-6244602D01*
X9089650Y-6210930D01*
X9106486Y-6160423D01*
X9123322Y-6143587D01*
X9173829Y-6126751D01*
X9207501Y-6126751D01*
X9258009Y-6143587D01*
X9325352Y-6210930D01*
X9342188Y-6261438D01*
X9342188Y-6295110D01*
X9325352Y-6345617D01*
X9308516Y-6362453D01*
X9258009Y-6379289D01*
X9224337Y-6379289D01*
X9173829Y-6362453D01*
X9106486Y-6295110D01*
X9055978Y-6278274D01*
X9022307Y-6278274D01*
X8971799Y-6295110D01*
X8904455Y-6362453D01*
X8887620Y-6412961D01*
X8887620Y-6446632D01*
X8904455Y-6497140D01*
X8971799Y-6564484D01*
X9022307Y-6581319D01*
X9055978Y-6581319D01*
X9106486Y-6564484D01*
X9173829Y-6497140D01*
X9190665Y-6446632D01*
X9190665Y-6412961D01*
X9173829Y-6362453D01*
G04 #@! TO.C,C113*
X18925461Y19767548D02*
X18891790Y19767548D01*
X18824446Y19801219D01*
X18790774Y19834891D01*
X18757103Y19902235D01*
X18757103Y19969578D01*
X18773938Y20020086D01*
X18824446Y20104265D01*
X18874954Y20154773D01*
X18959133Y20205280D01*
X19009641Y20222116D01*
X19076984Y20222116D01*
X19144328Y20188444D01*
X19177999Y20154773D01*
X19211671Y20087429D01*
X19211671Y20053757D01*
X19228507Y19397158D02*
X19026477Y19599189D01*
X19127492Y19498173D02*
X19481045Y19851727D01*
X19396866Y19834891D01*
X19329522Y19834891D01*
X19279015Y19851727D01*
X19565225Y19060441D02*
X19363194Y19262471D01*
X19464209Y19161456D02*
X19817763Y19515009D01*
X19733583Y19498173D01*
X19666240Y19498173D01*
X19615732Y19515009D01*
X20036629Y19296143D02*
X20255496Y19077277D01*
X20002957Y19060441D01*
X20053465Y19009933D01*
X20070301Y18959425D01*
X20070301Y18925754D01*
X20053465Y18875246D01*
X19969286Y18791067D01*
X19918778Y18774231D01*
X19885106Y18774231D01*
X19834599Y18791067D01*
X19733583Y18892082D01*
X19716748Y18942590D01*
X19716748Y18976261D01*
G04 #@! TO.C,U11*
X16727523Y-17610451D02*
X17013733Y-17896661D01*
X17064241Y-17913496D01*
X17097912Y-17913496D01*
X17148420Y-17896661D01*
X17215764Y-17829317D01*
X17232599Y-17778809D01*
X17232599Y-17745138D01*
X17215764Y-17694630D01*
X16929554Y-17408420D01*
X17636660Y-17408420D02*
X17434630Y-17610451D01*
X17535645Y-17509435D02*
X17182092Y-17155882D01*
X17198928Y-17240061D01*
X17198928Y-17307405D01*
X17182092Y-17357913D01*
X17973378Y-17071703D02*
X17771347Y-17273733D01*
X17872363Y-17172718D02*
X17518809Y-16819165D01*
X17535645Y-16903344D01*
X17535645Y-16970687D01*
X17518809Y-17021195D01*
G04 #@! TO.C,C123*
X-6085974Y-10326312D02*
X-6085974Y-10359983D01*
X-6119645Y-10427327D01*
X-6153317Y-10460999D01*
X-6220661Y-10494670D01*
X-6288004Y-10494670D01*
X-6338512Y-10477835D01*
X-6422691Y-10427327D01*
X-6473199Y-10376819D01*
X-6523706Y-10292640D01*
X-6540542Y-10242132D01*
X-6540542Y-10174789D01*
X-6506870Y-10107445D01*
X-6473199Y-10073774D01*
X-6405855Y-10040102D01*
X-6372183Y-10040102D01*
X-5715584Y-10023266D02*
X-5917615Y-10225296D01*
X-5816600Y-10124281D02*
X-6170153Y-9770728D01*
X-6153317Y-9854907D01*
X-6153317Y-9922251D01*
X-6170153Y-9972758D01*
X-5900779Y-9568697D02*
X-5900779Y-9535025D01*
X-5883943Y-9484518D01*
X-5799764Y-9400338D01*
X-5749256Y-9383503D01*
X-5715584Y-9383503D01*
X-5665077Y-9400338D01*
X-5631405Y-9434010D01*
X-5597733Y-9501354D01*
X-5597733Y-9905415D01*
X-5378867Y-9686548D01*
X-5614569Y-9215144D02*
X-5395703Y-8996277D01*
X-5378867Y-9248816D01*
X-5328359Y-9198308D01*
X-5277851Y-9181472D01*
X-5244180Y-9181472D01*
X-5193672Y-9198308D01*
X-5109493Y-9282487D01*
X-5092657Y-9332995D01*
X-5092657Y-9366667D01*
X-5109493Y-9417174D01*
X-5210508Y-9518190D01*
X-5261016Y-9535025D01*
X-5294687Y-9535025D01*
G04 #@! TO.C,C124*
X-6974975Y-9589712D02*
X-6974975Y-9623383D01*
X-7008646Y-9690727D01*
X-7042318Y-9724399D01*
X-7109662Y-9758070D01*
X-7177005Y-9758070D01*
X-7227513Y-9741235D01*
X-7311692Y-9690727D01*
X-7362200Y-9640219D01*
X-7412707Y-9556040D01*
X-7429543Y-9505532D01*
X-7429543Y-9438189D01*
X-7395871Y-9370845D01*
X-7362200Y-9337174D01*
X-7294856Y-9303502D01*
X-7261184Y-9303502D01*
X-6604585Y-9286666D02*
X-6806616Y-9488696D01*
X-6705601Y-9387681D02*
X-7059154Y-9034128D01*
X-7042318Y-9118307D01*
X-7042318Y-9185651D01*
X-7059154Y-9236158D01*
X-6789780Y-8832097D02*
X-6789780Y-8798425D01*
X-6772944Y-8747918D01*
X-6688765Y-8663738D01*
X-6638257Y-8646903D01*
X-6604585Y-8646903D01*
X-6554078Y-8663738D01*
X-6520406Y-8697410D01*
X-6486734Y-8764754D01*
X-6486734Y-9168815D01*
X-6267868Y-8949948D01*
X-6200524Y-8411200D02*
X-5964822Y-8646903D01*
X-6419391Y-8360693D02*
X-6251032Y-8697410D01*
X-6032165Y-8478544D01*
G04 #@! TO.C,C125*
X-8651374Y-17082712D02*
X-8651374Y-17116383D01*
X-8685045Y-17183727D01*
X-8718717Y-17217399D01*
X-8786061Y-17251070D01*
X-8853404Y-17251070D01*
X-8903912Y-17234235D01*
X-8988091Y-17183727D01*
X-9038599Y-17133219D01*
X-9089106Y-17049040D01*
X-9105942Y-16998532D01*
X-9105942Y-16931189D01*
X-9072270Y-16863845D01*
X-9038599Y-16830174D01*
X-8971255Y-16796502D01*
X-8937583Y-16796502D01*
X-8280984Y-16779666D02*
X-8483015Y-16981696D01*
X-8381999Y-16880681D02*
X-8735553Y-16527128D01*
X-8718717Y-16611307D01*
X-8718717Y-16678651D01*
X-8735553Y-16729158D01*
X-8466179Y-16325097D02*
X-8466179Y-16291425D01*
X-8449343Y-16240918D01*
X-8365164Y-16156738D01*
X-8314656Y-16139903D01*
X-8280984Y-16139903D01*
X-8230477Y-16156738D01*
X-8196805Y-16190410D01*
X-8163133Y-16257754D01*
X-8163133Y-16661815D01*
X-7944267Y-16442948D01*
X-7977938Y-15769513D02*
X-8146297Y-15937872D01*
X-7994774Y-16123067D01*
X-7994774Y-16089395D01*
X-7977938Y-16038887D01*
X-7893759Y-15954708D01*
X-7843251Y-15937872D01*
X-7809580Y-15937872D01*
X-7759072Y-15954708D01*
X-7674893Y-16038887D01*
X-7658057Y-16089395D01*
X-7658057Y-16123067D01*
X-7674893Y-16173574D01*
X-7759072Y-16257754D01*
X-7809580Y-16274590D01*
X-7843251Y-16274590D01*
G04 #@! TO.C,C126*
X-18759112Y-7960225D02*
X-18792783Y-7960225D01*
X-18860127Y-7926554D01*
X-18893799Y-7892882D01*
X-18927470Y-7825538D01*
X-18927470Y-7758195D01*
X-18910635Y-7707687D01*
X-18860127Y-7623508D01*
X-18809619Y-7573000D01*
X-18725440Y-7522493D01*
X-18674932Y-7505657D01*
X-18607589Y-7505657D01*
X-18540245Y-7539329D01*
X-18506574Y-7573000D01*
X-18472902Y-7640344D01*
X-18472902Y-7674016D01*
X-18456066Y-8330615D02*
X-18658096Y-8128584D01*
X-18557081Y-8229600D02*
X-18203528Y-7876046D01*
X-18287707Y-7892882D01*
X-18355051Y-7892882D01*
X-18405558Y-7876046D01*
X-18001497Y-8145420D02*
X-17967825Y-8145420D01*
X-17917318Y-8162256D01*
X-17833138Y-8246435D01*
X-17816303Y-8296943D01*
X-17816303Y-8330615D01*
X-17833138Y-8381122D01*
X-17866810Y-8414794D01*
X-17934154Y-8448466D01*
X-18338215Y-8448466D01*
X-18119348Y-8667332D01*
X-17462749Y-8616825D02*
X-17530093Y-8549481D01*
X-17580600Y-8532645D01*
X-17614272Y-8532645D01*
X-17698451Y-8549481D01*
X-17782631Y-8599989D01*
X-17917318Y-8734676D01*
X-17934154Y-8785183D01*
X-17934154Y-8818855D01*
X-17917318Y-8869363D01*
X-17849974Y-8936706D01*
X-17799467Y-8953542D01*
X-17765795Y-8953542D01*
X-17715287Y-8936706D01*
X-17631108Y-8852527D01*
X-17614272Y-8802019D01*
X-17614272Y-8768348D01*
X-17631108Y-8717840D01*
X-17698451Y-8650496D01*
X-17748959Y-8633661D01*
X-17782631Y-8633661D01*
X-17833138Y-8650496D01*
G04 #@! TO.C,R10*
X-13442825Y-7197056D02*
X-13392317Y-6910846D01*
X-13644855Y-6995025D02*
X-13291302Y-6641472D01*
X-13156615Y-6776159D01*
X-13139779Y-6826667D01*
X-13139779Y-6860338D01*
X-13156615Y-6910846D01*
X-13207122Y-6961354D01*
X-13257630Y-6978190D01*
X-13291302Y-6978190D01*
X-13341809Y-6961354D01*
X-13476496Y-6826667D01*
X-13106107Y-7533774D02*
X-13308138Y-7331743D01*
X-13207122Y-7432758D02*
X-12853569Y-7079205D01*
X-12937748Y-7096041D01*
X-13005092Y-7096041D01*
X-13055600Y-7079205D01*
X-12533687Y-7399087D02*
X-12500016Y-7432758D01*
X-12483180Y-7483266D01*
X-12483180Y-7516938D01*
X-12500016Y-7567445D01*
X-12550523Y-7651625D01*
X-12634703Y-7735804D01*
X-12718882Y-7786312D01*
X-12769390Y-7803148D01*
X-12803061Y-7803148D01*
X-12853569Y-7786312D01*
X-12887241Y-7752640D01*
X-12904077Y-7702132D01*
X-12904077Y-7668461D01*
X-12887241Y-7617953D01*
X-12836733Y-7533774D01*
X-12752554Y-7449594D01*
X-12668374Y-7399087D01*
X-12617867Y-7382251D01*
X-12584195Y-7382251D01*
X-12533687Y-7399087D01*
G04 #@! TO.C,REF\002A\002A*
X-30206866Y14201009D02*
X-30373533Y14439104D01*
X-30492580Y14201009D02*
X-30492580Y14701009D01*
X-30302104Y14701009D01*
X-30254485Y14677200D01*
X-30230676Y14653390D01*
X-30206866Y14605771D01*
X-30206866Y14534342D01*
X-30230676Y14486723D01*
X-30254485Y14462914D01*
X-30302104Y14439104D01*
X-30492580Y14439104D01*
X-29992580Y14462914D02*
X-29825914Y14462914D01*
X-29754485Y14201009D02*
X-29992580Y14201009D01*
X-29992580Y14701009D01*
X-29754485Y14701009D01*
X-29373533Y14462914D02*
X-29540200Y14462914D01*
X-29540200Y14201009D02*
X-29540200Y14701009D01*
X-29302104Y14701009D01*
X-29040200Y14701009D02*
X-29040200Y14581961D01*
X-29159247Y14629580D02*
X-29040200Y14581961D01*
X-28921152Y14629580D01*
X-29111628Y14486723D02*
X-29040200Y14581961D01*
X-28968771Y14486723D01*
X-28659247Y14701009D02*
X-28659247Y14581961D01*
X-28778295Y14629580D02*
X-28659247Y14581961D01*
X-28540200Y14629580D01*
X-28730676Y14486723D02*
X-28659247Y14581961D01*
X-28587819Y14486723D01*
G04 #@! TO.C,R99*
X-22292343Y-25787225D02*
X-22578553Y-25736717D01*
X-22494374Y-25989255D02*
X-22847927Y-25635702D01*
X-22713240Y-25501015D01*
X-22662732Y-25484179D01*
X-22629061Y-25484179D01*
X-22578553Y-25501015D01*
X-22528045Y-25551522D01*
X-22511209Y-25602030D01*
X-22511209Y-25635702D01*
X-22528045Y-25686209D01*
X-22662732Y-25820896D01*
X-22123984Y-25618866D02*
X-22056641Y-25551522D01*
X-22039805Y-25501015D01*
X-22039805Y-25467343D01*
X-22056641Y-25383164D01*
X-22107148Y-25298984D01*
X-22241835Y-25164297D01*
X-22292343Y-25147461D01*
X-22326015Y-25147461D01*
X-22376522Y-25164297D01*
X-22443866Y-25231641D01*
X-22460702Y-25282148D01*
X-22460702Y-25315820D01*
X-22443866Y-25366328D01*
X-22359687Y-25450507D01*
X-22309179Y-25467343D01*
X-22275507Y-25467343D01*
X-22225000Y-25450507D01*
X-22157656Y-25383164D01*
X-22140820Y-25332656D01*
X-22140820Y-25298984D01*
X-22157656Y-25248477D01*
X-21787267Y-25282148D02*
X-21719923Y-25214805D01*
X-21703087Y-25164297D01*
X-21703087Y-25130625D01*
X-21719923Y-25046446D01*
X-21770431Y-24962267D01*
X-21905118Y-24827580D01*
X-21955625Y-24810744D01*
X-21989297Y-24810744D01*
X-22039805Y-24827580D01*
X-22107148Y-24894923D01*
X-22123984Y-24945431D01*
X-22123984Y-24979103D01*
X-22107148Y-25029610D01*
X-22022969Y-25113790D01*
X-21972461Y-25130625D01*
X-21938790Y-25130625D01*
X-21888282Y-25113790D01*
X-21820938Y-25046446D01*
X-21804103Y-24995938D01*
X-21804103Y-24962267D01*
X-21820938Y-24911759D01*
G04 #@! TO.C,R100*
X-25635702Y-22780583D02*
X-25921912Y-22730076D01*
X-25837732Y-22982614D02*
X-26191286Y-22629061D01*
X-26056599Y-22494374D01*
X-26006091Y-22477538D01*
X-25972419Y-22477538D01*
X-25921912Y-22494374D01*
X-25871404Y-22544881D01*
X-25854568Y-22595389D01*
X-25854568Y-22629061D01*
X-25871404Y-22679568D01*
X-26006091Y-22814255D01*
X-25298984Y-22443866D02*
X-25501015Y-22645896D01*
X-25399999Y-22544881D02*
X-25753553Y-22191328D01*
X-25736717Y-22275507D01*
X-25736717Y-22342851D01*
X-25753553Y-22393358D01*
X-25433671Y-21871446D02*
X-25399999Y-21837774D01*
X-25349492Y-21820938D01*
X-25315820Y-21820938D01*
X-25265312Y-21837774D01*
X-25181133Y-21888282D01*
X-25096954Y-21972461D01*
X-25046446Y-22056641D01*
X-25029610Y-22107148D01*
X-25029610Y-22140820D01*
X-25046446Y-22191328D01*
X-25080118Y-22225000D01*
X-25130625Y-22241835D01*
X-25164297Y-22241835D01*
X-25214805Y-22225000D01*
X-25298984Y-22174492D01*
X-25383164Y-22090312D01*
X-25433671Y-22006133D01*
X-25450507Y-21955625D01*
X-25450507Y-21921954D01*
X-25433671Y-21871446D01*
X-25096954Y-21534729D02*
X-25063282Y-21501057D01*
X-25012774Y-21484221D01*
X-24979103Y-21484221D01*
X-24928595Y-21501057D01*
X-24844416Y-21551564D01*
X-24760236Y-21635744D01*
X-24709729Y-21719923D01*
X-24692893Y-21770431D01*
X-24692893Y-21804103D01*
X-24709729Y-21854610D01*
X-24743400Y-21888282D01*
X-24793908Y-21905118D01*
X-24827580Y-21905118D01*
X-24878087Y-21888282D01*
X-24962267Y-21837774D01*
X-25046446Y-21753595D01*
X-25096954Y-21669416D01*
X-25113790Y-21618908D01*
X-25113790Y-21585236D01*
X-25096954Y-21534729D01*
G04 #@! TO.C,J53*
X33825238Y13973809D02*
X33825238Y13616666D01*
X33801428Y13545238D01*
X33753809Y13497619D01*
X33682380Y13473809D01*
X33634761Y13473809D01*
X34301428Y13973809D02*
X34063333Y13973809D01*
X34039523Y13735714D01*
X34063333Y13759523D01*
X34110952Y13783333D01*
X34230000Y13783333D01*
X34277619Y13759523D01*
X34301428Y13735714D01*
X34325238Y13688095D01*
X34325238Y13569047D01*
X34301428Y13521428D01*
X34277619Y13497619D01*
X34230000Y13473809D01*
X34110952Y13473809D01*
X34063333Y13497619D01*
X34039523Y13521428D01*
X34491904Y13973809D02*
X34801428Y13973809D01*
X34634761Y13783333D01*
X34706190Y13783333D01*
X34753809Y13759523D01*
X34777619Y13735714D01*
X34801428Y13688095D01*
X34801428Y13569047D01*
X34777619Y13521428D01*
X34753809Y13497619D01*
X34706190Y13473809D01*
X34563333Y13473809D01*
X34515714Y13497619D01*
X34491904Y13521428D01*
G04 #@! TO.C,J54*
X13426190Y-34634761D02*
X13783333Y-34634761D01*
X13854761Y-34658571D01*
X13902380Y-34706190D01*
X13926190Y-34777619D01*
X13926190Y-34825238D01*
X13426190Y-34158571D02*
X13426190Y-34396666D01*
X13664285Y-34420476D01*
X13640476Y-34396666D01*
X13616666Y-34349047D01*
X13616666Y-34230000D01*
X13640476Y-34182380D01*
X13664285Y-34158571D01*
X13711904Y-34134761D01*
X13830952Y-34134761D01*
X13878571Y-34158571D01*
X13902380Y-34182380D01*
X13926190Y-34230000D01*
X13926190Y-34349047D01*
X13902380Y-34396666D01*
X13878571Y-34420476D01*
X13592857Y-33706190D02*
X13926190Y-33706190D01*
X13402380Y-33825238D02*
X13759523Y-33944285D01*
X13759523Y-33634761D01*
G04 #@! TO.C,J55*
X-34634761Y-13426190D02*
X-34634761Y-13783333D01*
X-34658571Y-13854761D01*
X-34706190Y-13902380D01*
X-34777619Y-13926190D01*
X-34825238Y-13926190D01*
X-34158571Y-13426190D02*
X-34396666Y-13426190D01*
X-34420476Y-13664285D01*
X-34396666Y-13640476D01*
X-34349047Y-13616666D01*
X-34230000Y-13616666D01*
X-34182380Y-13640476D01*
X-34158571Y-13664285D01*
X-34134761Y-13711904D01*
X-34134761Y-13830952D01*
X-34158571Y-13878571D01*
X-34182380Y-13902380D01*
X-34230000Y-13926190D01*
X-34349047Y-13926190D01*
X-34396666Y-13902380D01*
X-34420476Y-13878571D01*
X-33682380Y-13426190D02*
X-33920476Y-13426190D01*
X-33944285Y-13664285D01*
X-33920476Y-13640476D01*
X-33872857Y-13616666D01*
X-33753809Y-13616666D01*
X-33706190Y-13640476D01*
X-33682380Y-13664285D01*
X-33658571Y-13711904D01*
X-33658571Y-13830952D01*
X-33682380Y-13878571D01*
X-33706190Y-13902380D01*
X-33753809Y-13926190D01*
X-33872857Y-13926190D01*
X-33920476Y-13902380D01*
X-33944285Y-13878571D01*
G04 #@! TO.C,J56*
X-13973809Y33825238D02*
X-13616666Y33825238D01*
X-13545238Y33801428D01*
X-13497619Y33753809D01*
X-13473809Y33682380D01*
X-13473809Y33634761D01*
X-13973809Y34301428D02*
X-13973809Y34063333D01*
X-13735714Y34039523D01*
X-13759523Y34063333D01*
X-13783333Y34110952D01*
X-13783333Y34230000D01*
X-13759523Y34277619D01*
X-13735714Y34301428D01*
X-13688095Y34325238D01*
X-13569047Y34325238D01*
X-13521428Y34301428D01*
X-13497619Y34277619D01*
X-13473809Y34230000D01*
X-13473809Y34110952D01*
X-13497619Y34063333D01*
X-13521428Y34039523D01*
X-13973809Y34753809D02*
X-13973809Y34658571D01*
X-13950000Y34610952D01*
X-13926190Y34587142D01*
X-13854761Y34539523D01*
X-13759523Y34515714D01*
X-13569047Y34515714D01*
X-13521428Y34539523D01*
X-13497619Y34563333D01*
X-13473809Y34610952D01*
X-13473809Y34706190D01*
X-13497619Y34753809D01*
X-13521428Y34777619D01*
X-13569047Y34801428D01*
X-13688095Y34801428D01*
X-13735714Y34777619D01*
X-13759523Y34753809D01*
X-13783333Y34706190D01*
X-13783333Y34610952D01*
X-13759523Y34563333D01*
X-13735714Y34539523D01*
X-13688095Y34515714D01*
G04 #@! TO.C,C139*
X23668310Y-18733712D02*
X23668310Y-18767383D01*
X23634639Y-18834727D01*
X23600967Y-18868399D01*
X23533623Y-18902070D01*
X23466280Y-18902070D01*
X23415772Y-18885235D01*
X23331593Y-18834727D01*
X23281085Y-18784219D01*
X23230578Y-18700040D01*
X23213742Y-18649532D01*
X23213742Y-18582189D01*
X23247414Y-18514845D01*
X23281085Y-18481174D01*
X23348429Y-18447502D01*
X23382101Y-18447502D01*
X24038700Y-18430666D02*
X23836669Y-18632696D01*
X23937685Y-18531681D02*
X23584131Y-18178128D01*
X23600967Y-18262307D01*
X23600967Y-18329651D01*
X23584131Y-18380158D01*
X23802997Y-17959261D02*
X24021864Y-17740395D01*
X24038700Y-17992933D01*
X24089207Y-17942425D01*
X24139715Y-17925590D01*
X24173387Y-17925590D01*
X24223894Y-17942425D01*
X24308074Y-18026605D01*
X24324910Y-18077112D01*
X24324910Y-18110784D01*
X24308074Y-18161292D01*
X24207059Y-18262307D01*
X24156551Y-18279143D01*
X24122879Y-18279143D01*
X24543776Y-17925590D02*
X24611120Y-17858246D01*
X24627955Y-17807738D01*
X24627955Y-17774067D01*
X24611120Y-17689887D01*
X24560612Y-17605708D01*
X24425925Y-17471021D01*
X24375417Y-17454185D01*
X24341746Y-17454185D01*
X24291238Y-17471021D01*
X24223894Y-17538364D01*
X24207059Y-17588872D01*
X24207059Y-17622544D01*
X24223894Y-17673051D01*
X24308074Y-17757231D01*
X24358581Y-17774067D01*
X24392253Y-17774067D01*
X24442761Y-17757231D01*
X24510104Y-17689887D01*
X24526940Y-17639380D01*
X24526940Y-17605708D01*
X24510104Y-17555200D01*
G04 #@! TO.C,R108*
X18179297Y-24685583D02*
X17893087Y-24635076D01*
X17977267Y-24887614D02*
X17623713Y-24534061D01*
X17758400Y-24399374D01*
X17808908Y-24382538D01*
X17842580Y-24382538D01*
X17893087Y-24399374D01*
X17943595Y-24449881D01*
X17960431Y-24500389D01*
X17960431Y-24534061D01*
X17943595Y-24584568D01*
X17808908Y-24719255D01*
X18516015Y-24348866D02*
X18313984Y-24550896D01*
X18415000Y-24449881D02*
X18061446Y-24096328D01*
X18078282Y-24180507D01*
X18078282Y-24247851D01*
X18061446Y-24298358D01*
X18381328Y-23776446D02*
X18415000Y-23742774D01*
X18465507Y-23725938D01*
X18499179Y-23725938D01*
X18549687Y-23742774D01*
X18633866Y-23793282D01*
X18718045Y-23877461D01*
X18768553Y-23961641D01*
X18785389Y-24012148D01*
X18785389Y-24045820D01*
X18768553Y-24096328D01*
X18734881Y-24130000D01*
X18684374Y-24146835D01*
X18650702Y-24146835D01*
X18600194Y-24130000D01*
X18516015Y-24079492D01*
X18431835Y-23995312D01*
X18381328Y-23911133D01*
X18364492Y-23860625D01*
X18364492Y-23826954D01*
X18381328Y-23776446D01*
X18852732Y-23608087D02*
X18802225Y-23624923D01*
X18768553Y-23624923D01*
X18718045Y-23608087D01*
X18701209Y-23591251D01*
X18684374Y-23540744D01*
X18684374Y-23507072D01*
X18701209Y-23456564D01*
X18768553Y-23389221D01*
X18819061Y-23372385D01*
X18852732Y-23372385D01*
X18903240Y-23389221D01*
X18920076Y-23406057D01*
X18936912Y-23456564D01*
X18936912Y-23490236D01*
X18920076Y-23540744D01*
X18852732Y-23608087D01*
X18835896Y-23658595D01*
X18835896Y-23692267D01*
X18852732Y-23742774D01*
X18920076Y-23810118D01*
X18970583Y-23826954D01*
X19004255Y-23826954D01*
X19054763Y-23810118D01*
X19122106Y-23742774D01*
X19138942Y-23692267D01*
X19138942Y-23658595D01*
X19122106Y-23608087D01*
X19054763Y-23540744D01*
X19004255Y-23523908D01*
X18970583Y-23523908D01*
X18920076Y-23540744D01*
G04 #@! TO.C,SW2*
X25046300Y-20223309D02*
X25113643Y-20189637D01*
X25197823Y-20105458D01*
X25214659Y-20054950D01*
X25214659Y-20021278D01*
X25197823Y-19970771D01*
X25164151Y-19937099D01*
X25113643Y-19920263D01*
X25079972Y-19920263D01*
X25029464Y-19937099D01*
X24945285Y-19987607D01*
X24894777Y-20004443D01*
X24861105Y-20004443D01*
X24810598Y-19987607D01*
X24776926Y-19953935D01*
X24760090Y-19903427D01*
X24760090Y-19869756D01*
X24776926Y-19819248D01*
X24861105Y-19735069D01*
X24928449Y-19701397D01*
X25029464Y-19566710D02*
X25467197Y-19836084D01*
X25282002Y-19516202D01*
X25601884Y-19701397D01*
X25332510Y-19263664D01*
X25484033Y-19179485D02*
X25484033Y-19145813D01*
X25500869Y-19095305D01*
X25585048Y-19011126D01*
X25635556Y-18994290D01*
X25669227Y-18994290D01*
X25719735Y-19011126D01*
X25753407Y-19044798D01*
X25787078Y-19112141D01*
X25787078Y-19516202D01*
X26005945Y-19297336D01*
G04 #@! TO.C,J65*
X26396190Y-9929761D02*
X26753333Y-9929761D01*
X26824761Y-9953571D01*
X26872380Y-10001190D01*
X26896190Y-10072619D01*
X26896190Y-10120238D01*
X26396190Y-9477380D02*
X26396190Y-9572619D01*
X26420000Y-9620238D01*
X26443809Y-9644047D01*
X26515238Y-9691666D01*
X26610476Y-9715476D01*
X26800952Y-9715476D01*
X26848571Y-9691666D01*
X26872380Y-9667857D01*
X26896190Y-9620238D01*
X26896190Y-9525000D01*
X26872380Y-9477380D01*
X26848571Y-9453571D01*
X26800952Y-9429761D01*
X26681904Y-9429761D01*
X26634285Y-9453571D01*
X26610476Y-9477380D01*
X26586666Y-9525000D01*
X26586666Y-9620238D01*
X26610476Y-9667857D01*
X26634285Y-9691666D01*
X26681904Y-9715476D01*
X26396190Y-8977380D02*
X26396190Y-9215476D01*
X26634285Y-9239285D01*
X26610476Y-9215476D01*
X26586666Y-9167857D01*
X26586666Y-9048809D01*
X26610476Y-9001190D01*
X26634285Y-8977380D01*
X26681904Y-8953571D01*
X26800952Y-8953571D01*
X26848571Y-8977380D01*
X26872380Y-9001190D01*
X26896190Y-9048809D01*
X26896190Y-9167857D01*
X26872380Y-9215476D01*
X26848571Y-9239285D01*
G04 #@! TO.C,J69*
X26396190Y9120238D02*
X26753333Y9120238D01*
X26824761Y9096428D01*
X26872380Y9048809D01*
X26896190Y8977380D01*
X26896190Y8929761D01*
X26396190Y9572619D02*
X26396190Y9477380D01*
X26420000Y9429761D01*
X26443809Y9405952D01*
X26515238Y9358333D01*
X26610476Y9334523D01*
X26800952Y9334523D01*
X26848571Y9358333D01*
X26872380Y9382142D01*
X26896190Y9429761D01*
X26896190Y9525000D01*
X26872380Y9572619D01*
X26848571Y9596428D01*
X26800952Y9620238D01*
X26681904Y9620238D01*
X26634285Y9596428D01*
X26610476Y9572619D01*
X26586666Y9525000D01*
X26586666Y9429761D01*
X26610476Y9382142D01*
X26634285Y9358333D01*
X26681904Y9334523D01*
X26896190Y9858333D02*
X26896190Y9953571D01*
X26872380Y10001190D01*
X26848571Y10025000D01*
X26777142Y10072619D01*
X26681904Y10096428D01*
X26491428Y10096428D01*
X26443809Y10072619D01*
X26420000Y10048809D01*
X26396190Y10001190D01*
X26396190Y9905952D01*
X26420000Y9858333D01*
X26443809Y9834523D01*
X26491428Y9810714D01*
X26610476Y9810714D01*
X26658095Y9834523D01*
X26681904Y9858333D01*
X26705714Y9905952D01*
X26705714Y10001190D01*
X26681904Y10048809D01*
X26658095Y10072619D01*
X26610476Y10096428D01*
G04 #@! TO.C,J73*
X-26943809Y9120238D02*
X-26586666Y9120238D01*
X-26515238Y9096428D01*
X-26467619Y9048809D01*
X-26443809Y8977380D01*
X-26443809Y8929761D01*
X-26943809Y9310714D02*
X-26943809Y9644047D01*
X-26443809Y9429761D01*
X-26943809Y9786904D02*
X-26943809Y10096428D01*
X-26753333Y9929761D01*
X-26753333Y10001190D01*
X-26729523Y10048809D01*
X-26705714Y10072619D01*
X-26658095Y10096428D01*
X-26539047Y10096428D01*
X-26491428Y10072619D01*
X-26467619Y10048809D01*
X-26443809Y10001190D01*
X-26443809Y9858333D01*
X-26467619Y9810714D01*
X-26491428Y9786904D01*
G04 #@! TO.C,J78*
X-9929761Y-26396190D02*
X-9929761Y-26753333D01*
X-9953571Y-26824761D01*
X-10001190Y-26872380D01*
X-10072619Y-26896190D01*
X-10120238Y-26896190D01*
X-9739285Y-26396190D02*
X-9405952Y-26396190D01*
X-9620238Y-26896190D01*
X-9144047Y-26610476D02*
X-9191666Y-26586666D01*
X-9215476Y-26562857D01*
X-9239285Y-26515238D01*
X-9239285Y-26491428D01*
X-9215476Y-26443809D01*
X-9191666Y-26420000D01*
X-9144047Y-26396190D01*
X-9048809Y-26396190D01*
X-9001190Y-26420000D01*
X-8977380Y-26443809D01*
X-8953571Y-26491428D01*
X-8953571Y-26515238D01*
X-8977380Y-26562857D01*
X-9001190Y-26586666D01*
X-9048809Y-26610476D01*
X-9144047Y-26610476D01*
X-9191666Y-26634285D01*
X-9215476Y-26658095D01*
X-9239285Y-26705714D01*
X-9239285Y-26800952D01*
X-9215476Y-26848571D01*
X-9191666Y-26872380D01*
X-9144047Y-26896190D01*
X-9048809Y-26896190D01*
X-9001190Y-26872380D01*
X-8977380Y-26848571D01*
X-8953571Y-26800952D01*
X-8953571Y-26705714D01*
X-8977380Y-26658095D01*
X-9001190Y-26634285D01*
X-9048809Y-26610476D01*
G04 #@! TO.C,J79*
X-26943809Y-9929761D02*
X-26586666Y-9929761D01*
X-26515238Y-9953571D01*
X-26467619Y-10001190D01*
X-26443809Y-10072619D01*
X-26443809Y-10120238D01*
X-26943809Y-9739285D02*
X-26943809Y-9405952D01*
X-26443809Y-9620238D01*
X-26443809Y-9191666D02*
X-26443809Y-9096428D01*
X-26467619Y-9048809D01*
X-26491428Y-9025000D01*
X-26562857Y-8977380D01*
X-26658095Y-8953571D01*
X-26848571Y-8953571D01*
X-26896190Y-8977380D01*
X-26920000Y-9001190D01*
X-26943809Y-9048809D01*
X-26943809Y-9144047D01*
X-26920000Y-9191666D01*
X-26896190Y-9215476D01*
X-26848571Y-9239285D01*
X-26729523Y-9239285D01*
X-26681904Y-9215476D01*
X-26658095Y-9191666D01*
X-26634285Y-9144047D01*
X-26634285Y-9048809D01*
X-26658095Y-9001190D01*
X-26681904Y-8977380D01*
X-26729523Y-8953571D01*
G04 #@! TO.C,J80*
X9120238Y-26396190D02*
X9120238Y-26753333D01*
X9096428Y-26824761D01*
X9048809Y-26872380D01*
X8977380Y-26896190D01*
X8929761Y-26896190D01*
X9429761Y-26610476D02*
X9382142Y-26586666D01*
X9358333Y-26562857D01*
X9334523Y-26515238D01*
X9334523Y-26491428D01*
X9358333Y-26443809D01*
X9382142Y-26420000D01*
X9429761Y-26396190D01*
X9525000Y-26396190D01*
X9572619Y-26420000D01*
X9596428Y-26443809D01*
X9620238Y-26491428D01*
X9620238Y-26515238D01*
X9596428Y-26562857D01*
X9572619Y-26586666D01*
X9525000Y-26610476D01*
X9429761Y-26610476D01*
X9382142Y-26634285D01*
X9358333Y-26658095D01*
X9334523Y-26705714D01*
X9334523Y-26800952D01*
X9358333Y-26848571D01*
X9382142Y-26872380D01*
X9429761Y-26896190D01*
X9525000Y-26896190D01*
X9572619Y-26872380D01*
X9596428Y-26848571D01*
X9620238Y-26800952D01*
X9620238Y-26705714D01*
X9596428Y-26658095D01*
X9572619Y-26634285D01*
X9525000Y-26610476D01*
X9929761Y-26396190D02*
X9977380Y-26396190D01*
X10025000Y-26420000D01*
X10048809Y-26443809D01*
X10072619Y-26491428D01*
X10096428Y-26586666D01*
X10096428Y-26705714D01*
X10072619Y-26800952D01*
X10048809Y-26848571D01*
X10025000Y-26872380D01*
X9977380Y-26896190D01*
X9929761Y-26896190D01*
X9882142Y-26872380D01*
X9858333Y-26848571D01*
X9834523Y-26800952D01*
X9810714Y-26705714D01*
X9810714Y-26586666D01*
X9834523Y-26491428D01*
X9858333Y-26443809D01*
X9882142Y-26420000D01*
X9929761Y-26396190D01*
G04 #@! TO.C,J81*
X9120238Y26943809D02*
X9120238Y26586666D01*
X9096428Y26515238D01*
X9048809Y26467619D01*
X8977380Y26443809D01*
X8929761Y26443809D01*
X9429761Y26729523D02*
X9382142Y26753333D01*
X9358333Y26777142D01*
X9334523Y26824761D01*
X9334523Y26848571D01*
X9358333Y26896190D01*
X9382142Y26920000D01*
X9429761Y26943809D01*
X9525000Y26943809D01*
X9572619Y26920000D01*
X9596428Y26896190D01*
X9620238Y26848571D01*
X9620238Y26824761D01*
X9596428Y26777142D01*
X9572619Y26753333D01*
X9525000Y26729523D01*
X9429761Y26729523D01*
X9382142Y26705714D01*
X9358333Y26681904D01*
X9334523Y26634285D01*
X9334523Y26539047D01*
X9358333Y26491428D01*
X9382142Y26467619D01*
X9429761Y26443809D01*
X9525000Y26443809D01*
X9572619Y26467619D01*
X9596428Y26491428D01*
X9620238Y26539047D01*
X9620238Y26634285D01*
X9596428Y26681904D01*
X9572619Y26705714D01*
X9525000Y26729523D01*
X10096428Y26443809D02*
X9810714Y26443809D01*
X9953571Y26443809D02*
X9953571Y26943809D01*
X9905952Y26872380D01*
X9858333Y26824761D01*
X9810714Y26800952D01*
G04 #@! TO.C,J83*
X15782402Y-24285177D02*
X15529864Y-24537715D01*
X15462521Y-24571387D01*
X15395177Y-24571387D01*
X15327834Y-24537715D01*
X15294162Y-24504043D01*
X15849746Y-24655566D02*
X15832910Y-24605059D01*
X15832910Y-24571387D01*
X15849746Y-24520879D01*
X15866582Y-24504043D01*
X15917089Y-24487208D01*
X15950761Y-24487208D01*
X16001269Y-24504043D01*
X16068612Y-24571387D01*
X16085448Y-24621895D01*
X16085448Y-24655566D01*
X16068612Y-24706074D01*
X16051776Y-24722910D01*
X16001269Y-24739746D01*
X15967597Y-24739746D01*
X15917089Y-24722910D01*
X15849746Y-24655566D01*
X15799238Y-24638730D01*
X15765566Y-24638730D01*
X15715059Y-24655566D01*
X15647715Y-24722910D01*
X15630879Y-24773417D01*
X15630879Y-24807089D01*
X15647715Y-24857597D01*
X15715059Y-24924940D01*
X15765566Y-24941776D01*
X15799238Y-24941776D01*
X15849746Y-24924940D01*
X15917089Y-24857597D01*
X15933925Y-24807089D01*
X15933925Y-24773417D01*
X15917089Y-24722910D01*
X16253807Y-24756582D02*
X16472673Y-24975448D01*
X16220135Y-24992284D01*
X16270643Y-25042791D01*
X16287478Y-25093299D01*
X16287478Y-25126971D01*
X16270643Y-25177478D01*
X16186463Y-25261658D01*
X16135956Y-25278494D01*
X16102284Y-25278494D01*
X16051776Y-25261658D01*
X15950761Y-25160643D01*
X15933925Y-25110135D01*
X15933925Y-25076463D01*
G04 #@! TO.C,J85*
X-9929761Y26943809D02*
X-9929761Y26586666D01*
X-9953571Y26515238D01*
X-10001190Y26467619D01*
X-10072619Y26443809D01*
X-10120238Y26443809D01*
X-9620238Y26729523D02*
X-9667857Y26753333D01*
X-9691666Y26777142D01*
X-9715476Y26824761D01*
X-9715476Y26848571D01*
X-9691666Y26896190D01*
X-9667857Y26920000D01*
X-9620238Y26943809D01*
X-9525000Y26943809D01*
X-9477380Y26920000D01*
X-9453571Y26896190D01*
X-9429761Y26848571D01*
X-9429761Y26824761D01*
X-9453571Y26777142D01*
X-9477380Y26753333D01*
X-9525000Y26729523D01*
X-9620238Y26729523D01*
X-9667857Y26705714D01*
X-9691666Y26681904D01*
X-9715476Y26634285D01*
X-9715476Y26539047D01*
X-9691666Y26491428D01*
X-9667857Y26467619D01*
X-9620238Y26443809D01*
X-9525000Y26443809D01*
X-9477380Y26467619D01*
X-9453571Y26491428D01*
X-9429761Y26539047D01*
X-9429761Y26634285D01*
X-9453571Y26681904D01*
X-9477380Y26705714D01*
X-9525000Y26729523D01*
X-8977380Y26943809D02*
X-9215476Y26943809D01*
X-9239285Y26705714D01*
X-9215476Y26729523D01*
X-9167857Y26753333D01*
X-9048809Y26753333D01*
X-9001190Y26729523D01*
X-8977380Y26705714D01*
X-8953571Y26658095D01*
X-8953571Y26539047D01*
X-8977380Y26491428D01*
X-9001190Y26467619D01*
X-9048809Y26443809D01*
X-9167857Y26443809D01*
X-9215476Y26467619D01*
X-9239285Y26491428D01*
G04 #@! TD*
M02*
