G04 #@! TF.GenerationSoftware,KiCad,Pcbnew,5.0.2-bee76a0~70~ubuntu16.04.1*
G04 #@! TF.CreationDate,2019-08-02T00:48:50+03:00*
G04 #@! TF.ProjectId,FreeEEG32-alpha1.5,46726565-4545-4473-9332-2d616c706861,rev?*
G04 #@! TF.SameCoordinates,Original*
G04 #@! TF.FileFunction,Copper,L2,Inr*
G04 #@! TF.FilePolarity,Positive*
%FSLAX46Y46*%
G04 Gerber Fmt 4.6, Leading zero omitted, Abs format (unit mm)*
G04 Created by KiCad (PCBNEW 5.0.2-bee76a0~70~ubuntu16.04.1) date Пт 02 авг 2019 00:48:50*
%MOMM*%
%LPD*%
G01*
G04 APERTURE LIST*
G04 #@! TA.AperFunction,ViaPad*
%ADD10C,1.700000*%
G04 #@! TD*
G04 #@! TA.AperFunction,Conductor*
%ADD11C,1.700000*%
G04 #@! TD*
G04 #@! TA.AperFunction,Conductor*
%ADD12C,0.100000*%
G04 #@! TD*
G04 #@! TA.AperFunction,ViaPad*
%ADD13C,1.200000*%
G04 #@! TD*
G04 #@! TA.AperFunction,Conductor*
%ADD14C,1.200000*%
G04 #@! TD*
G04 #@! TA.AperFunction,ViaPad*
%ADD15C,1.450000*%
G04 #@! TD*
G04 #@! TA.AperFunction,ViaPad*
%ADD16R,1.700000X1.700000*%
G04 #@! TD*
G04 #@! TA.AperFunction,ViaPad*
%ADD17O,1.700000X1.700000*%
G04 #@! TD*
G04 #@! TA.AperFunction,ViaPad*
%ADD18C,0.800000*%
G04 #@! TD*
G04 #@! TA.AperFunction,Conductor*
%ADD19C,0.500000*%
G04 #@! TD*
G04 #@! TA.AperFunction,Conductor*
%ADD20C,0.750000*%
G04 #@! TD*
G04 #@! TA.AperFunction,Conductor*
%ADD21C,0.250000*%
G04 #@! TD*
G04 APERTURE END LIST*
D10*
G04 #@! TO.N,ISO_USB_2_GND1*
G04 #@! TO.C,J63*
X130423949Y-127831051D03*
D11*
X130423949Y-127831051D02*
X130423949Y-127831051D01*
D10*
G04 #@! TO.N,ISO_USB_1_VBUS1*
X132220000Y-126035000D03*
D12*
G36*
X131017918Y-126035000D02*
X132220000Y-124832918D01*
X133422082Y-126035000D01*
X132220000Y-127237082D01*
X131017918Y-126035000D01*
X131017918Y-126035000D01*
G37*
G04 #@! TD*
D10*
G04 #@! TO.N,ISO_UART_6_OUTD*
G04 #@! TO.C,J58*
X127357897Y-75652102D03*
D11*
X127357897Y-75652102D02*
X127357897Y-75652102D01*
D10*
G04 #@! TO.N,ISO_UART_5_OUTC*
X129153949Y-77448153D03*
D11*
X129153949Y-77448153D02*
X129153949Y-77448153D01*
D10*
G04 #@! TO.N,ISO_UART_4_INB*
X129153949Y-73856051D03*
D11*
X129153949Y-73856051D02*
X129153949Y-73856051D01*
D10*
G04 #@! TO.N,ISO_UART_3_INA*
X130950000Y-75652102D03*
D11*
X130950000Y-75652102D02*
X130950000Y-75652102D01*
D10*
G04 #@! TO.N,ISO_UART_2_GND1*
X130950000Y-72060000D03*
D11*
X130950000Y-72060000D02*
X130950000Y-72060000D01*
D10*
G04 #@! TO.N,ISO_UART_1_VCC1*
X132746051Y-73856051D03*
D12*
G36*
X131543969Y-73856051D02*
X132746051Y-72653969D01*
X133948133Y-73856051D01*
X132746051Y-75058133D01*
X131543969Y-73856051D01*
X131543969Y-73856051D01*
G37*
G04 #@! TD*
D10*
G04 #@! TO.N,ISO_SPI_5_INC*
G04 #@! TO.C,J57*
X127448154Y-79153949D03*
D11*
X127448154Y-79153949D02*
X127448154Y-79153949D01*
D10*
G04 #@! TO.N,ISO_SPI_6_OUTD*
X125652102Y-77357898D03*
D11*
X125652102Y-77357898D02*
X125652102Y-77357898D01*
D10*
G04 #@! TO.N,ISO_SPI_3_INA*
X125652102Y-80950000D03*
D11*
X125652102Y-80950000D02*
X125652102Y-80950000D01*
D10*
G04 #@! TO.N,ISO_SPI_4_INB*
X123856051Y-79153949D03*
D11*
X123856051Y-79153949D02*
X123856051Y-79153949D01*
D10*
G04 #@! TO.N,ISO_SPI_1_VCC1*
X123856051Y-82746051D03*
D11*
X123856051Y-82746051D02*
X123856051Y-82746051D01*
D10*
G04 #@! TO.N,ISO_SPI_2_GND1*
X122060000Y-80950000D03*
D12*
G36*
X123262082Y-80950000D02*
X122060000Y-82152082D01*
X120857918Y-80950000D01*
X122060000Y-79747918D01*
X123262082Y-80950000D01*
X123262082Y-80950000D01*
G37*
G04 #@! TD*
D13*
G04 #@! TO.N,/USB_DATA/6_Shield*
G04 #@! TO.C,J51*
X123790082Y-121260171D03*
D14*
X123542595Y-121507658D02*
X124037569Y-121012684D01*
D13*
X128739829Y-126209918D03*
D14*
X128987316Y-125962431D02*
X128492342Y-126457405D01*
D15*
X126406377Y-120058089D03*
X129941911Y-123593623D03*
G04 #@! TD*
D13*
G04 #@! TO.N,/USB_POWER/6_Shield*
G04 #@! TO.C,J37*
X171260171Y-73808826D03*
D14*
X171012684Y-74056313D02*
X171507658Y-73561339D01*
D13*
X176209918Y-78758573D03*
D14*
X176457405Y-78511086D02*
X175962431Y-79006060D01*
D15*
X170058089Y-76425121D03*
X173593623Y-79960655D03*
G04 #@! TD*
D16*
G04 #@! TO.N,AINREF-*
G04 #@! TO.C,J53*
X178575000Y-88570000D03*
D17*
G04 #@! TO.N,/ADC1/57_VCM*
X181115000Y-88570000D03*
G04 #@! TO.N,/ADC1/11_AIN3-*
X178575000Y-91110000D03*
G04 #@! TO.N,/ADC1/12_AIN3+*
X181115000Y-91110000D03*
G04 #@! TO.N,/ADC1/9_AIN2-*
X178575000Y-93650000D03*
G04 #@! TO.N,/ADC1/10_AIN2+*
X181115000Y-93650000D03*
G04 #@! TO.N,/ADC1/3_AIN1-*
X178575000Y-96190000D03*
G04 #@! TO.N,/ADC1/4_AIN1+*
X181115000Y-96190000D03*
G04 #@! TO.N,/ADC1/1_AIN0-*
X178575000Y-98730000D03*
G04 #@! TO.N,/ADC1/2_AIN0+*
X181115000Y-98730000D03*
G04 #@! TO.N,/ADC1/48_AIN4-*
X178575000Y-101270000D03*
G04 #@! TO.N,/ADC1/47_AIN4+*
X181115000Y-101270000D03*
G04 #@! TO.N,/ADC1/46_AIN5-*
X178575000Y-103810000D03*
G04 #@! TO.N,/ADC1/45_AIN5+*
X181115000Y-103810000D03*
G04 #@! TO.N,/ADC1/40_AIN6-*
X178575000Y-106350000D03*
G04 #@! TO.N,/ADC1/39_AIN6+*
X181115000Y-106350000D03*
G04 #@! TO.N,/ADC1/38_AIN7-*
X178575000Y-108890000D03*
G04 #@! TO.N,/ADC1/37_AIN7+*
X181115000Y-108890000D03*
G04 #@! TO.N,ACC_6_GND*
X178575000Y-111430000D03*
G04 #@! TO.N,ADC1_43_AVDD1B*
X181115000Y-111430000D03*
G04 #@! TD*
G04 #@! TO.N,ADC1_43_AVDD1B*
G04 #@! TO.C,J54*
X138570000Y-131115000D03*
G04 #@! TO.N,ACC_6_GND*
X138570000Y-128575000D03*
G04 #@! TO.N,/ADC2/37_AIN7+*
X141110000Y-131115000D03*
G04 #@! TO.N,/ADC2/38_AIN7-*
X141110000Y-128575000D03*
G04 #@! TO.N,/ADC2/39_AIN6+*
X143650000Y-131115000D03*
G04 #@! TO.N,/ADC2/40_AIN6-*
X143650000Y-128575000D03*
G04 #@! TO.N,/ADC2/45_AIN5+*
X146190000Y-131115000D03*
G04 #@! TO.N,/ADC2/46_AIN5-*
X146190000Y-128575000D03*
G04 #@! TO.N,/ADC2/47_AIN4+*
X148730000Y-131115000D03*
G04 #@! TO.N,/ADC2/48_AIN4-*
X148730000Y-128575000D03*
G04 #@! TO.N,/ADC2/2_AIN0+*
X151270000Y-131115000D03*
G04 #@! TO.N,/ADC2/1_AIN0-*
X151270000Y-128575000D03*
G04 #@! TO.N,/ADC2/4_AIN1+*
X153810000Y-131115000D03*
G04 #@! TO.N,/ADC2/3_AIN1-*
X153810000Y-128575000D03*
G04 #@! TO.N,/ADC2/10_AIN2+*
X156350000Y-131115000D03*
G04 #@! TO.N,/ADC2/9_AIN2-*
X156350000Y-128575000D03*
G04 #@! TO.N,/ADC2/12_AIN3+*
X158890000Y-131115000D03*
G04 #@! TO.N,/ADC2/11_AIN3-*
X158890000Y-128575000D03*
G04 #@! TO.N,/ADC2/57_VCM*
X161430000Y-131115000D03*
D16*
G04 #@! TO.N,AINREF-*
X161430000Y-128575000D03*
G04 #@! TD*
G04 #@! TO.N,AINREF-*
G04 #@! TO.C,J55*
X121425000Y-111430000D03*
D17*
G04 #@! TO.N,/ADC3/57_VCM*
X118885000Y-111430000D03*
G04 #@! TO.N,/ADC3/11_AIN3-*
X121425000Y-108890000D03*
G04 #@! TO.N,/ADC3/12_AIN3+*
X118885000Y-108890000D03*
G04 #@! TO.N,/ADC3/9_AIN2-*
X121425000Y-106350000D03*
G04 #@! TO.N,/ADC3/10_AIN2+*
X118885000Y-106350000D03*
G04 #@! TO.N,/ADC3/3_AIN1-*
X121425000Y-103810000D03*
G04 #@! TO.N,/ADC3/4_AIN1+*
X118885000Y-103810000D03*
G04 #@! TO.N,/ADC3/1_AIN0-*
X121425000Y-101270000D03*
G04 #@! TO.N,/ADC3/2_AIN0+*
X118885000Y-101270000D03*
G04 #@! TO.N,/ADC3/48_AIN4-*
X121425000Y-98730000D03*
G04 #@! TO.N,/ADC3/47_AIN4+*
X118885000Y-98730000D03*
G04 #@! TO.N,/ADC3/46_AIN5-*
X121425000Y-96190000D03*
G04 #@! TO.N,/ADC3/45_AIN5+*
X118885000Y-96190000D03*
G04 #@! TO.N,/ADC3/40_AIN6-*
X121425000Y-93650000D03*
G04 #@! TO.N,/ADC3/39_AIN6+*
X118885000Y-93650000D03*
G04 #@! TO.N,/ADC3/38_AIN7-*
X121425000Y-91110000D03*
G04 #@! TO.N,/ADC3/37_AIN7+*
X118885000Y-91110000D03*
G04 #@! TO.N,ACC_6_GND*
X121425000Y-88570000D03*
G04 #@! TO.N,ADC1_43_AVDD1B*
X118885000Y-88570000D03*
G04 #@! TD*
G04 #@! TO.N,ADC1_43_AVDD1B*
G04 #@! TO.C,J56*
X161430000Y-68885000D03*
G04 #@! TO.N,ACC_6_GND*
X161430000Y-71425000D03*
G04 #@! TO.N,/ADC4/37_AIN7+*
X158890000Y-68885000D03*
G04 #@! TO.N,/ADC4/38_AIN7-*
X158890000Y-71425000D03*
G04 #@! TO.N,/ADC4/39_AIN6+*
X156350000Y-68885000D03*
G04 #@! TO.N,/ADC4/40_AIN6-*
X156350000Y-71425000D03*
G04 #@! TO.N,/ADC4/45_AIN5+*
X153810000Y-68885000D03*
G04 #@! TO.N,/ADC4/46_AIN5-*
X153810000Y-71425000D03*
G04 #@! TO.N,/ADC4/47_AIN4+*
X151270000Y-68885000D03*
G04 #@! TO.N,/ADC4/48_AIN4-*
X151270000Y-71425000D03*
G04 #@! TO.N,ADC4_AIN0+*
X148730000Y-68885000D03*
G04 #@! TO.N,ADC4_AIN0-*
X148730000Y-71425000D03*
G04 #@! TO.N,ADC4_AIN1+*
X146190000Y-68885000D03*
G04 #@! TO.N,ADC4_AIN1-*
X146190000Y-71425000D03*
G04 #@! TO.N,ADC4_AIN2+*
X143650000Y-68885000D03*
G04 #@! TO.N,ADC4_AIN2-*
X143650000Y-71425000D03*
G04 #@! TO.N,ADC4_AIN3+*
X141110000Y-68885000D03*
G04 #@! TO.N,ADC4_AIN3-*
X141110000Y-71425000D03*
G04 #@! TO.N,/ADC4/57_VCM*
X138570000Y-68885000D03*
D16*
G04 #@! TO.N,AINREF-*
X138570000Y-71425000D03*
G04 #@! TD*
D10*
G04 #@! TO.N,MCU_109_SYS_JTCK-SWCLK*
G04 #@! TO.C,J59*
X176252898Y-114187898D03*
D11*
X176252898Y-114187898D02*
X176252898Y-114187898D01*
D10*
G04 #@! TO.N,MCU_105_SYS_JTMS-SWDIO*
X178048949Y-115983949D03*
D11*
X178048949Y-115983949D02*
X178048949Y-115983949D01*
D10*
G04 #@! TO.N,MCU_25_NRST*
X179845000Y-117780000D03*
D12*
G36*
X179845000Y-116577918D02*
X181047082Y-117780000D01*
X179845000Y-118982082D01*
X178642918Y-117780000D01*
X179845000Y-116577918D01*
X179845000Y-116577918D01*
G37*
G04 #@! TD*
D10*
G04 #@! TO.N,ACC_6_GND*
G04 #@! TO.C,J60*
X167780000Y-129845000D03*
D12*
G36*
X167780000Y-128642918D02*
X168982082Y-129845000D01*
X167780000Y-131047082D01*
X166577918Y-129845000D01*
X167780000Y-128642918D01*
X167780000Y-128642918D01*
G37*
D10*
G04 #@! TO.N,ACC_5_VDDIO*
X165983949Y-128048949D03*
D11*
X165983949Y-128048949D02*
X165983949Y-128048949D01*
D10*
G04 #@! TO.N,AVDD_1_IN*
X164187898Y-126252898D03*
D11*
X164187898Y-126252898D02*
X164187898Y-126252898D01*
G04 #@! TD*
D10*
G04 #@! TO.N,POWER_2_VCC*
G04 #@! TO.C,J61*
X167780000Y-73965000D03*
D12*
G36*
X168982082Y-73965000D02*
X167780000Y-75167082D01*
X166577918Y-73965000D01*
X167780000Y-72762918D01*
X168982082Y-73965000D01*
X168982082Y-73965000D01*
G37*
D10*
G04 #@! TO.N,POWER_1_GND*
X169576051Y-72168949D03*
D11*
X169576051Y-72168949D02*
X169576051Y-72168949D01*
G04 #@! TD*
D10*
G04 #@! TO.N,USB_POWER_2_D-*
G04 #@! TO.C,J62*
X177831051Y-80423949D03*
D11*
X177831051Y-80423949D02*
X177831051Y-80423949D01*
D10*
G04 #@! TO.N,USB_POWER_3_D+*
X176035000Y-82220000D03*
D12*
G36*
X177237082Y-82220000D02*
X176035000Y-83422082D01*
X174832918Y-82220000D01*
X176035000Y-81017918D01*
X177237082Y-82220000D01*
X177237082Y-82220000D01*
G37*
G04 #@! TD*
D10*
G04 #@! TO.N,ISO_USB_7_UD+*
G04 #@! TO.C,J64*
X123965000Y-117780000D03*
D12*
G36*
X122762918Y-117780000D02*
X123965000Y-116577918D01*
X125167082Y-117780000D01*
X123965000Y-118982082D01*
X122762918Y-117780000D01*
X122762918Y-117780000D01*
G37*
D10*
G04 #@! TO.N,ISO_USB_6_UD\2013*
X122168949Y-119576051D03*
D11*
X122168949Y-119576051D02*
X122168949Y-119576051D01*
G04 #@! TD*
D18*
G04 #@! TO.N,/ADC1/49_REF_OUT*
X173145648Y-103467570D03*
G04 #@! TO.N,/ADC1/51_AREG2CAP*
X172447055Y-102752049D03*
G04 #@! TO.N,/ADC1/59_AREG1CAP*
X170951758Y-98413305D03*
G04 #@! TO.N,/ADC2/49_REF_OUT*
X146608676Y-123076324D03*
G04 #@! TO.N,/ADC2/51_AREG2CAP*
X147315784Y-122369216D03*
G04 #@! TO.N,/ADC2/59_AREG1CAP*
X151606504Y-120884463D03*
G04 #@! TO.N,/ADC3/49_REF_OUT*
X126251000Y-96571000D03*
G04 #@! TO.N,/ADC3/51_AREG2CAP*
X127267000Y-96975000D03*
G04 #@! TO.N,/ADC3/59_AREG1CAP*
X128981177Y-101696852D03*
G04 #@! TO.N,/ADC4/49_REF_OUT*
X154017993Y-78810655D03*
G04 #@! TO.N,/ADC4/51_AREG2CAP*
X153111499Y-79232878D03*
G04 #@! TO.N,/ADC4/59_AREG1CAP*
X148476000Y-79070400D03*
G04 #@! TO.N,/MCU/23_PH0*
X138139364Y-111634364D03*
G04 #@! TO.N,/MCU/24_PH1*
X140100266Y-107867734D03*
G04 #@! TO.N,/MCU/9_PC15*
X142105241Y-109896913D03*
G04 #@! TO.N,/MCU/8_PC14*
X142836937Y-110621913D03*
G04 #@! TO.N,ADC1_24_IOVDD*
X150230253Y-90594112D03*
X149365000Y-103175000D03*
X129045000Y-98730000D03*
X148730000Y-120955000D03*
X170955000Y-101270000D03*
X140708065Y-99716509D03*
X149956811Y-108857101D03*
X151145941Y-79184400D03*
X151145941Y-79184400D03*
X159113481Y-109078127D03*
X156936535Y-100930138D03*
G04 #@! TO.N,ADC1_23_DREGCAP*
X157262981Y-99953179D03*
G04 #@! TO.N,ADC1_41_REF2+*
X155602986Y-84243930D03*
X144515465Y-84267285D03*
X155461000Y-115715000D03*
X144539000Y-115715000D03*
X165732712Y-94515459D03*
X134285000Y-94539000D03*
X134285000Y-105461000D03*
X150547000Y-76103095D03*
X165993871Y-105649322D03*
G04 #@! TO.N,ADC1_43_AVDD1B*
X155585977Y-83244073D03*
X144528898Y-83252738D03*
X155477258Y-116744469D03*
X144451125Y-116740316D03*
X166736815Y-94375417D03*
X133140429Y-94394151D03*
X133243872Y-105604881D03*
X128559332Y-103024380D03*
X170961944Y-97413355D03*
X127902000Y-98095000D03*
X148603000Y-122225000D03*
X172098000Y-101524000D03*
X172860000Y-98730000D03*
X149025000Y-76595000D03*
X127140000Y-100975000D03*
X150975000Y-122860000D03*
X163044473Y-90130527D03*
X151997001Y-75604998D03*
X147307641Y-79107419D03*
X151016215Y-77542892D03*
X152705036Y-120814200D03*
X166986598Y-105769723D03*
G04 #@! TO.N,ADC2_23_DREGCAP*
X150599946Y-109638757D03*
G04 #@! TO.N,ADC3_23_DREGCAP*
X140856000Y-100798999D03*
G04 #@! TO.N,ADC4_23_DREGCAP*
X149466048Y-91239089D03*
G04 #@! TO.N,AVDD_1_IN*
X160160000Y-112573000D03*
X160214210Y-89764408D03*
G04 #@! TO.N,ACC_6_GND*
X150635000Y-96825000D03*
X134760000Y-100000000D03*
X150000000Y-84760000D03*
X165240000Y-100000000D03*
X150000000Y-115240000D03*
X159525000Y-90488972D03*
X162065000Y-87948972D03*
X140475000Y-86665000D03*
X140475000Y-88570000D03*
X141656053Y-113716000D03*
X136030000Y-91745000D03*
X173495000Y-121590000D03*
X159144000Y-118288000D03*
X157464399Y-110120683D03*
X152686149Y-78131841D03*
X148984000Y-82601000D03*
X151120000Y-117145000D03*
X155752025Y-88691718D03*
X162621847Y-87392125D03*
X148806200Y-74600000D03*
X152667000Y-82705000D03*
X161201400Y-113208000D03*
X132601000Y-100866000D03*
X132519869Y-97460000D03*
X167272000Y-99007000D03*
X167559266Y-102719125D03*
X147610000Y-117680894D03*
X137975092Y-105914500D03*
X131439542Y-109093000D03*
G04 #@! TO.N,ACC_5_VDDIO*
X141745000Y-89840000D03*
X141182108Y-85957892D03*
X158890000Y-111430000D03*
X144121000Y-106713931D03*
X154838498Y-91880369D03*
X171618291Y-117116709D03*
X167604054Y-122400946D03*
X160541000Y-93015000D03*
X159813492Y-107493000D03*
X135083775Y-91421485D03*
X134289564Y-108625070D03*
G04 #@! TO.N,ISO_USB_2_GND1*
X126526548Y-121512517D03*
X126708200Y-116306800D03*
G04 #@! TO.N,ISO_USB_1_VBUS1*
X128642913Y-123854840D03*
G04 #@! TO.N,ISO_USB_6_UD\2013*
X127866542Y-123144598D03*
G04 #@! TO.N,ADC1_36_RESET*
X161744910Y-107531956D03*
G04 #@! TO.N,ADC1_34_SYNC_OUT*
X155461000Y-87735000D03*
X143858990Y-112237010D03*
X142253000Y-95809000D03*
X162215000Y-105588000D03*
G04 #@! TO.N,ADC1_33_START*
X161976064Y-106559037D03*
G04 #@! TO.N,ADC1_32_XTAL2_MCLK*
X155188206Y-106065011D03*
X150616130Y-107376304D03*
G04 #@! TO.N,ADC1_30_DRDY*
X158117064Y-104434064D03*
X158001000Y-95174000D03*
G04 #@! TO.N,ADC1_29_DCLK*
X156393030Y-101778000D03*
G04 #@! TO.N,ADC1_28_DOUT0*
X157959011Y-102958000D03*
G04 #@! TO.N,ADC1_27_DOUT1*
X158631347Y-102027347D03*
G04 #@! TO.N,ADC1_21_DCLK0_SDO*
X156620849Y-104555151D03*
G04 #@! TO.N,ADC1_20_DCLK1_SDI*
X155043000Y-105075609D03*
G04 #@! TO.N,ADC1_19_DCLK2_SCLK*
X155043000Y-104075606D03*
G04 #@! TO.N,ADC1_18_ALERT_CS*
X157482767Y-94285000D03*
G04 #@! TO.N,ADC2_36_RESET*
X145079737Y-106429633D03*
G04 #@! TO.N,ADC2_33_START*
X145471338Y-108216998D03*
G04 #@! TO.N,ADC2_30_DRDY*
X146975000Y-108890000D03*
G04 #@! TO.N,ADC2_29_DCLK*
X147079000Y-107620000D03*
G04 #@! TO.N,ADC2_28_DOUT0*
X148984000Y-106985000D03*
G04 #@! TO.N,ADC2_27_DOUT1*
X148975000Y-108612214D03*
G04 #@! TO.N,ADC2_21_DCLK0_SDO*
X151397000Y-108001000D03*
G04 #@! TO.N,ADC2_20_DCLK1_SDI*
X151927248Y-108867752D03*
G04 #@! TO.N,ADC2_19_DCLK2_SCLK*
X152563058Y-107403000D03*
G04 #@! TO.N,ADC2_18_ALERT_CS*
X151397000Y-105715000D03*
G04 #@! TO.N,ADC3_36_RESET*
X138467564Y-94074990D03*
G04 #@! TO.N,ADC3_33_START*
X141129795Y-95889713D03*
G04 #@! TO.N,ADC3_30_DRDY*
X141350036Y-104427995D03*
G04 #@! TO.N,ADC3_29_DCLK*
X144285000Y-103810000D03*
G04 #@! TO.N,ADC3_28_DOUT0*
X143097435Y-104149011D03*
G04 #@! TO.N,ADC3_27_DOUT1*
X141909000Y-100740854D03*
X149891130Y-104191000D03*
X149492000Y-101524000D03*
G04 #@! TO.N,ADC3_21_DCLK0_SDO*
X142253000Y-102249000D03*
G04 #@! TO.N,ADC3_20_DCLK1_SDI*
X140983000Y-102475000D03*
G04 #@! TO.N,ADC3_19_DCLK2_SCLK*
X142585512Y-99947158D03*
G04 #@! TO.N,ADC3_18_ALERT_CS*
X142819847Y-98975000D03*
G04 #@! TO.N,ADC4_36_RESET*
X154313236Y-93787349D03*
G04 #@! TO.N,ADC4_33_START*
X154731397Y-92878974D03*
G04 #@! TO.N,ADC4_30_DRDY*
X153091029Y-91041243D03*
X145165225Y-91726780D03*
G04 #@! TO.N,ADC4_29_DCLK*
X153296048Y-92181725D03*
X144226153Y-92819847D03*
G04 #@! TO.N,ADC4_28_DOUT0*
X152228281Y-93314486D03*
G04 #@! TO.N,ADC4_27_DOUT1*
X151392347Y-92765653D03*
G04 #@! TO.N,ADC4_21_DCLK0_SDO*
X147841000Y-90983000D03*
G04 #@! TO.N,ADC4_20_DCLK1_SDI*
X147598464Y-91953144D03*
G04 #@! TO.N,ADC4_19_DCLK2_SCLK*
X146749418Y-92544000D03*
G04 #@! TO.N,ADC4_18_ALERT_CS*
X145749433Y-92538386D03*
G04 #@! TO.N,MCU_138_BOOT0*
X168669000Y-123165183D03*
G04 #@! TO.N,MCU_112_SDMMC1_D3*
X166383000Y-109017000D03*
X164247001Y-112432441D03*
G04 #@! TO.N,MCU_111_SDMMC1_D2*
X164999627Y-114210373D03*
X169050000Y-109525000D03*
G04 #@! TO.N,MCU_105_SYS_JTMS-SWDIO*
X162483114Y-93574947D03*
X167552642Y-91313000D03*
G04 #@! TO.N,ISO_UART_13_OUTB*
X149659626Y-95214626D03*
G04 #@! TO.N,ISO_UART_11_IND*
X145471669Y-95758706D03*
G04 #@! TO.N,ISO_UART_14_OUTA*
X149255368Y-93667367D03*
G04 #@! TO.N,ISO_UART_12_INC*
X146190000Y-95063001D03*
G04 #@! TO.N,MCU_99_SDMMC1_D1*
X171663511Y-113896489D03*
X154699000Y-96608000D03*
G04 #@! TO.N,MCU_98_SDMMC1_D0*
X170515858Y-113774142D03*
X155512375Y-96026256D03*
G04 #@! TO.N,MCU_97_SDMMC1_DETECT*
X166891000Y-111975000D03*
X156437306Y-95646118D03*
G04 #@! TO.N,ISO_USB_10_DD+*
X152540000Y-99365000D03*
X145936000Y-99492000D03*
X135776000Y-108763000D03*
X157239000Y-89535200D03*
G04 #@! TO.N,ISO_USB_11_DD\2013*
X158841160Y-88521160D03*
X147264415Y-100316121D03*
X152540000Y-100365003D03*
X139099426Y-107843269D03*
G04 #@! TO.N,ACC_9_INT2*
X160133952Y-118429421D03*
G04 #@! TO.N,ACC_4_INT1*
X163335000Y-119685000D03*
G04 #@! TO.N,ACC_13_SCL*
X163335000Y-117145000D03*
G04 #@! TO.N,ACC_14_SDA*
X162627892Y-117870000D03*
G04 #@! TO.N,POWER_1_GND*
X169685000Y-74979040D03*
G04 #@! TO.N,POWER_2_VCC*
X170345400Y-79603800D03*
G04 #@! TO.N,ADC1_13_MODE0_GPIO0*
X160223200Y-125145800D03*
X140944600Y-82016600D03*
X158959963Y-75565000D03*
X165662944Y-90043000D03*
X129768600Y-108635800D03*
X140716000Y-120599200D03*
G04 #@! TD*
D19*
G04 #@! TO.N,ADC1_24_IOVDD*
X149365000Y-103175000D02*
X151040193Y-103175000D01*
X140055306Y-100444843D02*
X139840000Y-100660149D01*
X140055306Y-100369268D02*
X140055306Y-100444843D01*
X140708065Y-99716509D02*
X140055306Y-100369268D01*
X140827992Y-103577994D02*
X141893994Y-103577994D01*
X139840000Y-102590002D02*
X140827992Y-103577994D01*
X139840000Y-100660149D02*
X139840000Y-102590002D01*
X142247434Y-103931434D02*
X142247434Y-104693434D01*
X141893994Y-103577994D02*
X142247434Y-103931434D01*
X146320630Y-105579632D02*
X147929001Y-107188003D01*
X143133632Y-105579632D02*
X146320630Y-105579632D01*
X142247434Y-104693434D02*
X143133632Y-105579632D01*
X149351697Y-109462215D02*
X149556812Y-109257100D01*
X148566999Y-109462215D02*
X149351697Y-109462215D01*
X147929001Y-108824217D02*
X148566999Y-109462215D01*
X147929001Y-107188003D02*
X147929001Y-108824217D01*
X153833571Y-110488758D02*
X156093761Y-108228568D01*
X150191945Y-110488758D02*
X153833571Y-110488758D01*
X149556812Y-109853625D02*
X150191945Y-110488758D01*
X149556812Y-109257100D02*
X149556812Y-109853625D01*
X149956811Y-108857101D02*
X149556812Y-109257100D01*
X158495734Y-108228568D02*
X158128000Y-108228568D01*
X156093761Y-108228568D02*
X158128000Y-108228568D01*
X158495734Y-108460380D02*
X159113481Y-109078127D01*
X158495734Y-108228568D02*
X158495734Y-108460380D01*
X150316049Y-90679908D02*
X150230253Y-90594112D01*
X150316049Y-94309652D02*
X150316049Y-90679908D01*
X156936535Y-100930138D02*
X150316049Y-94309652D01*
X154192999Y-106327806D02*
X154318000Y-106452807D01*
X154192999Y-102720029D02*
X154192999Y-106327806D01*
X156382889Y-100530139D02*
X154192999Y-102720029D01*
X156536536Y-100530139D02*
X156382889Y-100530139D01*
X156936535Y-100930138D02*
X156536536Y-100530139D01*
X151040193Y-103175000D02*
X154318000Y-106452807D01*
X154318000Y-106452807D02*
X156093761Y-108228568D01*
X142299575Y-98124999D02*
X141108064Y-99316510D01*
X142655187Y-98124999D02*
X142299575Y-98124999D01*
X150630252Y-90994111D02*
X150630252Y-91368748D01*
X150630252Y-91368748D02*
X149619000Y-92380000D01*
X149619000Y-92380000D02*
X149284733Y-92380000D01*
X149284733Y-92380000D02*
X147252733Y-94412000D01*
X144225010Y-96555176D02*
X142655187Y-98124999D01*
X147252733Y-94412000D02*
X147053733Y-94213000D01*
X147053733Y-94213000D02*
X145627000Y-94213000D01*
X145627000Y-94213000D02*
X144225010Y-95614990D01*
X144225010Y-95614990D02*
X144225010Y-96555176D01*
D20*
X149930685Y-103175000D02*
X149365000Y-103175000D01*
X150855193Y-103175000D02*
X149930685Y-103175000D01*
X156758320Y-109078127D02*
X150855193Y-103175000D01*
X159113481Y-109078127D02*
X156758320Y-109078127D01*
X150230369Y-91917770D02*
X150630252Y-91517887D01*
X156335805Y-97583001D02*
X154230999Y-97583001D01*
X154230999Y-97583001D02*
X150230369Y-93582371D01*
X158237982Y-99485178D02*
X156335805Y-97583001D01*
X158237982Y-100421180D02*
X158237982Y-99485178D01*
X157729024Y-100930138D02*
X158237982Y-100421180D01*
X150230369Y-93582371D02*
X150230369Y-91917770D01*
X156936535Y-100930138D02*
X157729024Y-100930138D01*
X150630252Y-90994111D02*
X150230253Y-90594112D01*
X149934049Y-92214090D02*
X150630252Y-91517887D01*
X149265643Y-92214090D02*
X149934049Y-92214090D01*
X150630252Y-91517887D02*
X150630252Y-90994111D01*
X147960732Y-93519001D02*
X149265643Y-92214090D01*
X146290998Y-93519001D02*
X147960732Y-93519001D01*
X144094009Y-95715990D02*
X146290998Y-93519001D01*
X144094009Y-96392733D02*
X144094009Y-95715990D01*
X143002732Y-97484010D02*
X144094009Y-96392733D01*
X142867834Y-97484011D02*
X143002732Y-97484010D01*
X141108064Y-99243781D02*
X142867834Y-97484011D01*
X141108064Y-99316510D02*
X141108064Y-99243781D01*
X140708065Y-99716509D02*
X141108064Y-99316510D01*
D19*
G04 #@! TO.N,ADC1_41_REF2+*
X152820928Y-84243930D02*
X150090787Y-81513789D01*
X155602986Y-84243930D02*
X152820928Y-84243930D01*
X166090001Y-104839280D02*
X165859621Y-105069660D01*
X166090001Y-99591999D02*
X166090001Y-104839280D01*
X165859621Y-105069660D02*
X165859621Y-105635345D01*
X165732712Y-99234710D02*
X166090001Y-99591999D01*
X165732712Y-94515459D02*
X165732712Y-99234710D01*
X150090787Y-76559308D02*
X150090787Y-79299000D01*
X150547000Y-76103095D02*
X150090787Y-76559308D01*
X150090787Y-81513789D02*
X150090787Y-79299000D01*
X156002985Y-84643929D02*
X155602986Y-84243930D01*
X156351733Y-84643929D02*
X156002985Y-84643929D01*
X161328400Y-89620596D02*
X156351733Y-84643929D01*
X161328400Y-90525800D02*
X161328400Y-89620596D01*
X165732712Y-94515459D02*
X165732712Y-93948395D01*
X163199117Y-91414800D02*
X162217400Y-91414800D01*
X165732712Y-93948395D02*
X163199117Y-91414800D01*
X162217400Y-91414800D02*
X161328400Y-90525800D01*
X134285000Y-93607186D02*
X133769400Y-93091586D01*
X134285000Y-94539000D02*
X134285000Y-93607186D01*
X143949780Y-84267285D02*
X144515465Y-84267285D01*
X140351787Y-84267285D02*
X143949780Y-84267285D01*
X133769400Y-90849672D02*
X140351787Y-84267285D01*
X133769400Y-93091586D02*
X133769400Y-90849672D01*
X143973315Y-115715000D02*
X144539000Y-115715000D01*
X139493305Y-115715000D02*
X143973315Y-115715000D01*
X132989552Y-107117203D02*
X132989552Y-109211247D01*
X132989552Y-109211247D02*
X139493305Y-115715000D01*
X134285000Y-105821755D02*
X132989552Y-107117203D01*
X134285000Y-105461000D02*
X134285000Y-105821755D01*
D20*
X134285000Y-95104685D02*
X134285000Y-94539000D01*
X134285000Y-99031998D02*
X134285000Y-95104685D01*
X133784999Y-99531999D02*
X134285000Y-99031998D01*
X133784999Y-100468001D02*
X133784999Y-99531999D01*
X134285000Y-100968002D02*
X133784999Y-100468001D01*
X134285000Y-105461000D02*
X134285000Y-100968002D01*
X165732712Y-95081144D02*
X165732712Y-94515459D01*
X166215001Y-100468001D02*
X166215001Y-95563433D01*
X165993871Y-100689131D02*
X166215001Y-100468001D01*
X166215001Y-95563433D02*
X165732712Y-95081144D01*
X165993871Y-105649322D02*
X165993871Y-100689131D01*
X145104685Y-115715000D02*
X144539000Y-115715000D01*
X149031998Y-115715000D02*
X145104685Y-115715000D01*
X149531999Y-116215001D02*
X149031998Y-115715000D01*
X150468001Y-116215001D02*
X149531999Y-116215001D01*
X150968002Y-115715000D02*
X150468001Y-116215001D01*
X155461000Y-115715000D02*
X150968002Y-115715000D01*
X150041214Y-79307221D02*
X150041214Y-76608881D01*
X145081150Y-84267285D02*
X150041214Y-79307221D01*
X144515465Y-84267285D02*
X145081150Y-84267285D01*
X155037301Y-84243930D02*
X155602986Y-84243930D01*
X154578370Y-83784999D02*
X155037301Y-84243930D01*
X149531999Y-83784999D02*
X154578370Y-83784999D01*
X149049713Y-84267285D02*
X149531999Y-83784999D01*
X144515465Y-84267285D02*
X149049713Y-84267285D01*
X150147001Y-76503094D02*
X150547000Y-76103095D01*
X150041214Y-76608881D02*
X150147001Y-76503094D01*
X150041214Y-81649216D02*
X150041214Y-76608881D01*
X152635928Y-84243930D02*
X150041214Y-81649216D01*
X155602986Y-84243930D02*
X152635928Y-84243930D01*
D19*
G04 #@! TO.N,ADC1_43_AVDD1B*
X147372521Y-78247479D02*
X147372521Y-79068311D01*
X149025000Y-76595000D02*
X147372521Y-78247479D01*
X147372521Y-80409115D02*
X144528898Y-83252738D01*
X147372521Y-79068311D02*
X147372521Y-80409115D01*
X162730001Y-70185001D02*
X162279999Y-69734999D01*
X162279999Y-69734999D02*
X161430000Y-68885000D01*
X162730001Y-72049001D02*
X162730001Y-70185001D01*
X119734999Y-87720001D02*
X118885000Y-88570000D01*
X122049001Y-87269999D02*
X120185001Y-87269999D01*
X129173153Y-94394151D02*
X122049001Y-87269999D01*
X120185001Y-87269999D02*
X119734999Y-87720001D01*
X133140429Y-94394151D02*
X129173153Y-94394151D01*
X137720001Y-130265001D02*
X138570000Y-131115000D01*
X137269999Y-129814999D02*
X137720001Y-130265001D01*
X138570000Y-131115000D02*
X137269999Y-129814999D01*
X137269999Y-127950999D02*
X137269999Y-129814999D01*
X156158019Y-83244073D02*
X155585977Y-83244073D01*
X163044473Y-90130527D02*
X156158019Y-83244073D01*
X132740430Y-93994152D02*
X133140429Y-94394151D01*
X132740430Y-90888680D02*
X132740430Y-93994152D01*
X140376372Y-83252738D02*
X132740430Y-90888680D01*
X144528898Y-83252738D02*
X140376372Y-83252738D01*
X132289542Y-109501200D02*
X139528658Y-116740316D01*
X139528658Y-116740316D02*
X143885440Y-116740316D01*
X132289542Y-106559211D02*
X132289542Y-109501200D01*
X143885440Y-116740316D02*
X144451125Y-116740316D01*
X133243872Y-105604881D02*
X132289542Y-106559211D01*
D20*
X131602849Y-94394151D02*
X127902000Y-98095000D01*
X133140429Y-94394151D02*
X131602849Y-94394151D01*
X127902000Y-100213000D02*
X127140000Y-100975000D01*
X127902000Y-98095000D02*
X127902000Y-100213000D01*
X127140000Y-101605048D02*
X128559332Y-103024380D01*
X127140000Y-100975000D02*
X127140000Y-101605048D01*
X130663371Y-103024380D02*
X133243872Y-105604881D01*
X128559332Y-103024380D02*
X130663371Y-103024380D01*
X144528898Y-81886162D02*
X147307641Y-79107419D01*
X144528898Y-83252738D02*
X144528898Y-81886162D01*
X147307641Y-78312359D02*
X149025000Y-76595000D01*
X147307641Y-79107419D02*
X147307641Y-78312359D01*
X151597002Y-75204999D02*
X151997001Y-75604998D01*
X151520097Y-75128094D02*
X151597002Y-75204999D01*
X149025000Y-76029315D02*
X149926221Y-75128094D01*
X149926221Y-75128094D02*
X151520097Y-75128094D01*
X149025000Y-76595000D02*
X149025000Y-76029315D01*
X151997001Y-76562106D02*
X151016215Y-77542892D01*
X151997001Y-75604998D02*
X151997001Y-76562106D01*
X155585977Y-82678388D02*
X155585977Y-83244073D01*
X153793233Y-77142893D02*
X155585977Y-78935637D01*
X151416214Y-77142893D02*
X153793233Y-77142893D01*
X151016215Y-77542892D02*
X151416214Y-77142893D01*
X163044473Y-90130527D02*
X163503736Y-90589790D01*
X163444472Y-90530526D02*
X163044473Y-90130527D01*
X163481583Y-90530526D02*
X163444472Y-90530526D01*
X166736815Y-93785758D02*
X163481583Y-90530526D01*
X166736815Y-94375417D02*
X166736815Y-93785758D01*
X167924006Y-94375417D02*
X170961944Y-97413355D01*
X166736815Y-94375417D02*
X167924006Y-94375417D01*
X171543355Y-97413355D02*
X172860000Y-98730000D01*
X170961944Y-97413355D02*
X171543355Y-97413355D01*
X172860000Y-100762000D02*
X172098000Y-101524000D01*
X172860000Y-98730000D02*
X172860000Y-100762000D01*
X167852277Y-105769723D02*
X166986598Y-105769723D01*
X172098000Y-101524000D02*
X167852277Y-105769723D01*
X144451125Y-118073125D02*
X148603000Y-122225000D01*
X144451125Y-116740316D02*
X144451125Y-118073125D01*
X150340000Y-122225000D02*
X150975000Y-122860000D01*
X148603000Y-122225000D02*
X150340000Y-122225000D01*
X152705036Y-121379885D02*
X152705036Y-120814200D01*
X151540685Y-122860000D02*
X152705036Y-121695649D01*
X152705036Y-121695649D02*
X152705036Y-121379885D01*
X150975000Y-122860000D02*
X151540685Y-122860000D01*
X155477258Y-118041978D02*
X152705036Y-120814200D01*
X155477258Y-116744469D02*
X155477258Y-118041978D01*
X179689999Y-112855001D02*
X180265001Y-112279999D01*
X180265001Y-112279999D02*
X181115000Y-111430000D01*
X170805721Y-105769723D02*
X177890999Y-112855001D01*
X177890999Y-112855001D02*
X179689999Y-112855001D01*
X166986598Y-105769723D02*
X170805721Y-105769723D01*
D19*
X155585977Y-80060800D02*
X156032200Y-80060800D01*
D20*
X155585977Y-78935637D02*
X155585977Y-80060800D01*
X155585977Y-80060800D02*
X155585977Y-82678388D01*
D19*
X160560202Y-75532798D02*
X160560202Y-74218800D01*
X160560202Y-74218800D02*
X162730001Y-72049001D01*
X156032200Y-80060800D02*
X160560202Y-75532798D01*
X144451125Y-120769873D02*
X137269999Y-127950999D01*
X144451125Y-116740316D02*
X144451125Y-120769873D01*
G04 #@! TO.N,AVDD_1_IN*
X163783125Y-108949875D02*
X160559999Y-112173001D01*
X162980152Y-92185797D02*
X163783125Y-92988770D01*
X163783125Y-92988770D02*
X163783125Y-108949875D01*
X161973169Y-92185797D02*
X162980152Y-92185797D01*
X160614209Y-90826837D02*
X161973169Y-92185797D01*
X160614209Y-90164407D02*
X160614209Y-90826837D01*
X160214210Y-89764408D02*
X160614209Y-90164407D01*
D20*
X161008001Y-111724999D02*
X160559999Y-112173001D01*
X161898001Y-111724999D02*
X161008001Y-111724999D01*
X162772374Y-112599372D02*
X161898001Y-111724999D01*
X162772374Y-115185374D02*
X162772374Y-112599372D01*
X172593292Y-116648708D02*
X171129958Y-115185374D01*
X172593292Y-120683893D02*
X172593292Y-116648708D01*
X160559999Y-112173001D02*
X160160000Y-112573000D01*
X169137001Y-124140184D02*
X172593292Y-120683893D01*
X166300612Y-124140184D02*
X169137001Y-124140184D01*
X171129958Y-115185374D02*
X162772374Y-115185374D01*
X164187898Y-126252898D02*
X166300612Y-124140184D01*
X160500001Y-90911037D02*
X160500001Y-90050199D01*
X161828774Y-92239810D02*
X160500001Y-90911037D01*
X162590979Y-92239810D02*
X161828774Y-92239810D01*
X163458115Y-93106946D02*
X162590979Y-92239810D01*
X163458115Y-109274885D02*
X163458115Y-93106946D01*
X160500001Y-90050199D02*
X160214210Y-89764408D01*
X160160000Y-112573000D02*
X163458115Y-109274885D01*
D19*
G04 #@! TO.N,ACC_5_VDDIO*
X142377970Y-106713931D02*
X138824000Y-103159961D01*
X144121000Y-106713931D02*
X142377970Y-106713931D01*
X138824000Y-100686186D02*
X139355296Y-100154890D01*
X138824000Y-103159961D02*
X138824000Y-100686186D01*
X142661001Y-96659001D02*
X143269000Y-96051002D01*
X142507571Y-96659001D02*
X142661001Y-96659001D01*
X139355296Y-99811276D02*
X142507571Y-96659001D01*
X139355296Y-100154890D02*
X139355296Y-99811276D01*
X143269000Y-94793000D02*
X142978001Y-94502001D01*
X143269000Y-96051002D02*
X143269000Y-94793000D01*
X142978001Y-91073001D02*
X141745000Y-89840000D01*
X142978001Y-94502001D02*
X142978001Y-91073001D01*
X171218292Y-116716710D02*
X171618291Y-117116709D01*
X170796581Y-116294999D02*
X171218292Y-116716710D01*
X159963482Y-110356518D02*
X159289999Y-111030001D01*
X159963482Y-109271000D02*
X159963482Y-110356518D01*
X162887897Y-125628897D02*
X162887897Y-126857897D01*
X164078949Y-128048949D02*
X165983949Y-128048949D01*
X162887897Y-126857897D02*
X164078949Y-128048949D01*
X159963482Y-108670126D02*
X159963482Y-109271000D01*
X159813492Y-108520136D02*
X159963482Y-108670126D01*
X159813492Y-107493000D02*
X159813492Y-108520136D01*
X139382800Y-89840000D02*
X141745000Y-89840000D01*
X138327801Y-90894999D02*
X139382800Y-89840000D01*
X137198400Y-90894999D02*
X135610261Y-90894999D01*
X135610261Y-90894999D02*
X135083775Y-91421485D01*
X137198400Y-90894999D02*
X138327801Y-90894999D01*
X159289999Y-111030001D02*
X158890000Y-111430000D01*
D20*
X158324315Y-111430000D02*
X158890000Y-111430000D01*
X147241338Y-111430000D02*
X158324315Y-111430000D01*
X144121000Y-108309662D02*
X147241338Y-111430000D01*
X144121000Y-106713931D02*
X144121000Y-108309662D01*
X159813492Y-108058685D02*
X159813492Y-107493000D01*
X160088482Y-108333675D02*
X159813492Y-108058685D01*
X160088482Y-110231518D02*
X160088482Y-108333675D01*
X158890000Y-111430000D02*
X160088482Y-110231518D01*
X159813492Y-107493000D02*
X160541000Y-106765492D01*
X160541000Y-106765492D02*
X160541000Y-93015000D01*
X155175794Y-91880369D02*
X154838498Y-91880369D01*
X156310425Y-93015000D02*
X155175794Y-91880369D01*
X160541000Y-93015000D02*
X156310425Y-93015000D01*
X142144999Y-89440001D02*
X141745000Y-89840000D01*
X142415899Y-89169101D02*
X142144999Y-89440001D01*
X152692915Y-89169101D02*
X142415899Y-89169101D01*
X154838498Y-91314684D02*
X152692915Y-89169101D01*
X154838498Y-91880369D02*
X154838498Y-91314684D01*
X141745000Y-86520784D02*
X141182108Y-85957892D01*
X141745000Y-89840000D02*
X141745000Y-86520784D01*
X171618291Y-118386709D02*
X167604054Y-122400946D01*
X171618291Y-117116709D02*
X171618291Y-118386709D01*
X162887897Y-125443897D02*
X162887897Y-125628897D01*
X167604054Y-122400946D02*
X165930848Y-122400946D01*
X163874947Y-128048949D02*
X162014200Y-126188202D01*
X162143592Y-126188202D02*
X163846194Y-124485600D01*
X162014200Y-126188202D02*
X162143592Y-126188202D01*
X163846194Y-124485600D02*
X162887897Y-125443897D01*
X165930848Y-122400946D02*
X163846194Y-124485600D01*
X164781868Y-128048949D02*
X165983949Y-128048949D01*
X163874947Y-128048949D02*
X164781868Y-128048949D01*
X162359999Y-119212466D02*
X162359999Y-126534001D01*
X162359999Y-126534001D02*
X163874947Y-128048949D01*
X158890000Y-111430000D02*
X158890000Y-115742467D01*
D19*
X162777034Y-116294999D02*
X164147800Y-116294999D01*
X162656302Y-116174267D02*
X162777034Y-116294999D01*
X159321800Y-116174267D02*
X162656302Y-116174267D01*
D20*
X159321800Y-116174267D02*
X162359999Y-119212466D01*
X158890000Y-115742467D02*
X159321800Y-116174267D01*
D19*
X164147800Y-116294999D02*
X170796581Y-116294999D01*
X143721001Y-107113930D02*
X144121000Y-106713931D01*
X142288753Y-108546178D02*
X143721001Y-107113930D01*
X134289564Y-108625070D02*
X135001635Y-107912999D01*
X135001635Y-107912999D02*
X136500799Y-107912999D01*
X136500799Y-107912999D02*
X137985800Y-109398000D01*
X140512178Y-109398000D02*
X141364000Y-108546178D01*
X137985800Y-109398000D02*
X140512178Y-109398000D01*
X141364000Y-108546178D02*
X142288753Y-108546178D01*
D21*
G04 #@! TO.N,ISO_USB_1_VBUS1*
X130823073Y-126035000D02*
X132220000Y-126035000D01*
X128642913Y-123854840D02*
X130823073Y-126035000D01*
G04 #@! TO.N,ISO_USB_6_UD\2013*
X127866542Y-123144598D02*
X127085627Y-123144598D01*
X122168949Y-119576051D02*
X124313251Y-119576051D01*
X125260400Y-120523200D02*
X125260400Y-121319371D01*
X124313251Y-119576051D02*
X125260400Y-120523200D01*
X127085627Y-123144598D02*
X125260400Y-121319371D01*
G04 #@! TO.N,ADC1_34_SYNC_OUT*
X141853001Y-96208999D02*
X142253000Y-95809000D01*
X141447286Y-96614714D02*
X141853001Y-96208999D01*
X142253000Y-95809000D02*
X141447286Y-96614714D01*
X141853001Y-95409001D02*
X142253000Y-95809000D01*
X144032218Y-87735000D02*
X141530109Y-85232891D01*
X135897058Y-89535200D02*
X134358774Y-91073484D01*
X140789509Y-85232891D02*
X136487200Y-89535200D01*
X141530109Y-85232891D02*
X140789509Y-85232891D01*
X134358774Y-91073484D02*
X134358774Y-92867774D01*
X134358774Y-92867774D02*
X136290991Y-94799991D01*
X136487200Y-89535200D02*
X135897058Y-89535200D01*
X136290991Y-94799991D02*
X141243991Y-94799991D01*
X155461000Y-87735000D02*
X144032218Y-87735000D01*
X141243991Y-94799991D02*
X141853001Y-95409001D01*
X143293305Y-112237010D02*
X143858990Y-112237010D01*
X138780286Y-99916714D02*
X135741095Y-102955905D01*
X135741095Y-102955905D02*
X135741095Y-106100536D01*
X139879572Y-96614714D02*
X138780286Y-97714000D01*
X141447286Y-96614714D02*
X139879572Y-96614714D01*
X135741095Y-106100536D02*
X133564562Y-108277069D01*
X138780286Y-97714000D02*
X138780286Y-99916714D01*
X133564562Y-108277069D02*
X133564562Y-108973071D01*
X134714492Y-110123001D02*
X141179296Y-110123001D01*
X133564562Y-108973071D02*
X134714492Y-110123001D01*
X141179296Y-110123001D02*
X143293305Y-112237010D01*
X155868309Y-87735000D02*
X155461000Y-87735000D01*
X156513999Y-88380690D02*
X155868309Y-87735000D01*
X156513999Y-89883201D02*
X156513999Y-88380690D01*
X162215000Y-105588000D02*
X161758113Y-105131113D01*
X158858398Y-92227600D02*
X156513999Y-89883201D01*
X161758113Y-93159111D02*
X160826602Y-92227600D01*
X161758113Y-105131113D02*
X161758113Y-93159111D01*
X160826602Y-92227600D02*
X158858398Y-92227600D01*
G04 #@! TO.N,ADC1_30_DRDY*
X159356348Y-103194780D02*
X159356348Y-98434348D01*
X158117064Y-104434064D02*
X159356348Y-103194780D01*
X158001000Y-97079000D02*
X158509000Y-97587000D01*
X158001000Y-95174000D02*
X158001000Y-97079000D01*
X158509000Y-97587000D02*
X158128000Y-97206000D01*
X159356348Y-98434348D02*
X158509000Y-97587000D01*
G04 #@! TO.N,ADC4_30_DRDY*
X153091029Y-91041243D02*
X151918897Y-89869111D01*
X147022894Y-89869111D02*
X145165225Y-91726780D01*
X149619000Y-89869111D02*
X147022894Y-89869111D01*
X151918897Y-89869111D02*
X149619000Y-89869111D01*
G04 #@! TO.N,ADC1_13_MODE0_GPIO0*
X140944600Y-81450915D02*
X140944600Y-82016600D01*
X140944600Y-81388598D02*
X140944600Y-81450915D01*
X148458199Y-73874999D02*
X140944600Y-81388598D01*
X157269962Y-73874999D02*
X148458199Y-73874999D01*
X158959963Y-75565000D02*
X157269962Y-73874999D01*
X140614400Y-120497600D02*
X140716000Y-120599200D01*
X140614400Y-118639244D02*
X140614400Y-120497600D01*
X132058756Y-110083600D02*
X131216400Y-110083600D01*
X131216400Y-110083600D02*
X129768600Y-108635800D01*
X132058756Y-110083600D02*
X140614400Y-118639244D01*
G04 #@! TD*
M02*
