G04 #@! TF.GenerationSoftware,KiCad,Pcbnew,5.0.2-bee76a0~70~ubuntu16.04.1*
G04 #@! TF.CreationDate,2019-08-03T19:39:48+03:00*
G04 #@! TF.ProjectId,FreeEEG32-alpha1.5,46726565-4545-4473-9332-2d616c706861,rev?*
G04 #@! TF.SameCoordinates,Original*
G04 #@! TF.FileFunction,Copper,L3,Inr*
G04 #@! TF.FilePolarity,Positive*
%FSLAX46Y46*%
G04 Gerber Fmt 4.6, Leading zero omitted, Abs format (unit mm)*
G04 Created by KiCad (PCBNEW 5.0.2-bee76a0~70~ubuntu16.04.1) date Сб 03 авг 2019 19:39:48*
%MOMM*%
%LPD*%
G01*
G04 APERTURE LIST*
G04 #@! TA.AperFunction,ViaPad*
%ADD10C,1.700000*%
G04 #@! TD*
G04 #@! TA.AperFunction,Conductor*
%ADD11C,1.700000*%
G04 #@! TD*
G04 #@! TA.AperFunction,Conductor*
%ADD12C,0.100000*%
G04 #@! TD*
G04 #@! TA.AperFunction,ViaPad*
%ADD13C,1.200000*%
G04 #@! TD*
G04 #@! TA.AperFunction,Conductor*
%ADD14C,1.200000*%
G04 #@! TD*
G04 #@! TA.AperFunction,ViaPad*
%ADD15C,1.450000*%
G04 #@! TD*
G04 #@! TA.AperFunction,ViaPad*
%ADD16R,1.700000X1.700000*%
G04 #@! TD*
G04 #@! TA.AperFunction,ViaPad*
%ADD17O,1.700000X1.700000*%
G04 #@! TD*
G04 #@! TA.AperFunction,ViaPad*
%ADD18C,0.800000*%
G04 #@! TD*
G04 #@! TA.AperFunction,Conductor*
%ADD19C,0.500000*%
G04 #@! TD*
G04 #@! TA.AperFunction,Conductor*
%ADD20C,0.750000*%
G04 #@! TD*
G04 #@! TA.AperFunction,Conductor*
%ADD21C,0.250000*%
G04 #@! TD*
G04 #@! TA.AperFunction,Conductor*
%ADD22C,0.254000*%
G04 #@! TD*
G04 APERTURE END LIST*
D10*
G04 #@! TO.N,ISO_SPI_2_GND1*
G04 #@! TO.C,J57*
X121751846Y-80732102D03*
D11*
X121751846Y-80732102D02*
X121751846Y-80732102D01*
D10*
G04 #@! TO.N,ISO_SPI_1_VCC1*
X123547898Y-82528153D03*
D11*
X123547898Y-82528153D02*
X123547898Y-82528153D01*
D10*
G04 #@! TO.N,ISO_SPI_4_INB*
X123547898Y-78936051D03*
D11*
X123547898Y-78936051D02*
X123547898Y-78936051D01*
D10*
G04 #@! TO.N,ISO_SPI_3_INA*
X125343949Y-80732102D03*
D11*
X125343949Y-80732102D02*
X125343949Y-80732102D01*
D10*
G04 #@! TO.N,ISO_SPI_6_OUTD*
X125343949Y-77140000D03*
D11*
X125343949Y-77140000D02*
X125343949Y-77140000D01*
D10*
G04 #@! TO.N,ISO_SPI_5_INC*
X127140000Y-78936051D03*
D12*
G36*
X125937918Y-78936051D02*
X127140000Y-77733969D01*
X128342082Y-78936051D01*
X127140000Y-80138133D01*
X125937918Y-78936051D01*
X125937918Y-78936051D01*
G37*
G04 #@! TD*
D10*
G04 #@! TO.N,MCU_25_NRST*
G04 #@! TO.C,J82*
X181641051Y-115983949D03*
D11*
X181641051Y-115983949D02*
X181641051Y-115983949D01*
D10*
G04 #@! TO.N,MCU_48_PB2_BOOT1*
X179845000Y-114187898D03*
D11*
X179845000Y-114187898D02*
X179845000Y-114187898D01*
D10*
G04 #@! TO.N,MCU_105_PA13_SYS_JTMS-SWDIO*
X179845000Y-117780000D03*
D11*
X179845000Y-117780000D02*
X179845000Y-117780000D01*
D10*
G04 #@! TO.N,MCU_109_PA14_SYS_JTCK-SWCLK*
X178048949Y-115983949D03*
D12*
G36*
X179251031Y-115983949D02*
X178048949Y-117186031D01*
X176846867Y-115983949D01*
X178048949Y-114781867D01*
X179251031Y-115983949D01*
X179251031Y-115983949D01*
G37*
G04 #@! TD*
D10*
G04 #@! TO.N,ISO_USB_2_GND1*
G04 #@! TO.C,J63*
X130315000Y-127940000D03*
D11*
X130315000Y-127940000D02*
X130315000Y-127940000D01*
D10*
G04 #@! TO.N,ISO_USB_1_VBUS1*
X132111051Y-126143949D03*
D12*
G36*
X132111051Y-127346031D02*
X130908969Y-126143949D01*
X132111051Y-124941867D01*
X133313133Y-126143949D01*
X132111051Y-127346031D01*
X132111051Y-127346031D01*
G37*
G04 #@! TD*
D10*
G04 #@! TO.N,ISO_USB_6_UD\2013*
G04 #@! TO.C,J64*
X122060000Y-119685000D03*
D11*
X122060000Y-119685000D02*
X122060000Y-119685000D01*
D10*
G04 #@! TO.N,ISO_USB_7_UD+*
X123856051Y-117888949D03*
D12*
G36*
X123856051Y-119091031D02*
X122653969Y-117888949D01*
X123856051Y-116686867D01*
X125058133Y-117888949D01*
X123856051Y-119091031D01*
X123856051Y-119091031D01*
G37*
G04 #@! TD*
D10*
G04 #@! TO.N,POWER_2_VCC*
G04 #@! TO.C,J62*
X176143949Y-82111051D03*
D12*
G36*
X176143949Y-80908969D02*
X177346031Y-82111051D01*
X176143949Y-83313133D01*
X174941867Y-82111051D01*
X176143949Y-80908969D01*
X176143949Y-80908969D01*
G37*
D10*
G04 #@! TO.N,POWER_1_GND*
X177940000Y-80315000D03*
D11*
X177940000Y-80315000D02*
X177940000Y-80315000D01*
G04 #@! TD*
D10*
G04 #@! TO.N,POWER_1_GND*
G04 #@! TO.C,J61*
X169685000Y-72060000D03*
D11*
X169685000Y-72060000D02*
X169685000Y-72060000D01*
D10*
G04 #@! TO.N,POWER_2_VCC*
X167888949Y-73856051D03*
D12*
G36*
X167888949Y-72653969D02*
X169091031Y-73856051D01*
X167888949Y-75058133D01*
X166686867Y-73856051D01*
X167888949Y-72653969D01*
X167888949Y-72653969D01*
G37*
G04 #@! TD*
D10*
G04 #@! TO.N,ISO_UART_6_OUTD*
G04 #@! TO.C,J58*
X127140000Y-75343949D03*
D11*
X127140000Y-75343949D02*
X127140000Y-75343949D01*
D10*
G04 #@! TO.N,ISO_UART_5_OUTC*
X128936052Y-77140000D03*
D11*
X128936052Y-77140000D02*
X128936052Y-77140000D01*
D10*
G04 #@! TO.N,ISO_UART_4_INB*
X128936052Y-73547898D03*
D11*
X128936052Y-73547898D02*
X128936052Y-73547898D01*
D10*
G04 #@! TO.N,ISO_UART_3_INA*
X130732103Y-75343949D03*
D11*
X130732103Y-75343949D02*
X130732103Y-75343949D01*
D10*
G04 #@! TO.N,ISO_UART_2_GND1*
X130732103Y-71751847D03*
D11*
X130732103Y-71751847D02*
X130732103Y-71751847D01*
D10*
G04 #@! TO.N,ISO_UART_1_VCC1*
X132528154Y-73547898D03*
D12*
G36*
X131326072Y-73547898D02*
X132528154Y-72345816D01*
X133730236Y-73547898D01*
X132528154Y-74749980D01*
X131326072Y-73547898D01*
X131326072Y-73547898D01*
G37*
G04 #@! TD*
D13*
G04 #@! TO.N,/USB_DATA/6_Shield*
G04 #@! TO.C,J51*
X123790082Y-121260171D03*
D14*
X123542595Y-121507658D02*
X124037569Y-121012684D01*
D13*
X128739829Y-126209918D03*
D14*
X128987316Y-125962431D02*
X128492342Y-126457405D01*
D15*
X126406377Y-120058089D03*
X129941911Y-123593623D03*
G04 #@! TD*
D13*
G04 #@! TO.N,/USB_POWER/6_Shield*
G04 #@! TO.C,J37*
X171260171Y-73808826D03*
D14*
X171012684Y-74056313D02*
X171507658Y-73561339D01*
D13*
X176209918Y-78758573D03*
D14*
X176457405Y-78511086D02*
X175962431Y-79006060D01*
D15*
X170058089Y-76425121D03*
X173593623Y-79960655D03*
G04 #@! TD*
D16*
G04 #@! TO.N,AINREF-*
G04 #@! TO.C,J53*
X178575000Y-88570000D03*
D17*
G04 #@! TO.N,/ADC1/57_VCM*
X181115000Y-88570000D03*
G04 #@! TO.N,/ADC1/11_AIN3-*
X178575000Y-91110000D03*
G04 #@! TO.N,/ADC1/12_AIN3+*
X181115000Y-91110000D03*
G04 #@! TO.N,/ADC1/9_AIN2-*
X178575000Y-93650000D03*
G04 #@! TO.N,/ADC1/10_AIN2+*
X181115000Y-93650000D03*
G04 #@! TO.N,/ADC1/3_AIN1-*
X178575000Y-96190000D03*
G04 #@! TO.N,/ADC1/4_AIN1+*
X181115000Y-96190000D03*
G04 #@! TO.N,/ADC1/1_AIN0-*
X178575000Y-98730000D03*
G04 #@! TO.N,/ADC1/2_AIN0+*
X181115000Y-98730000D03*
G04 #@! TO.N,/ADC1/48_AIN4-*
X178575000Y-101270000D03*
G04 #@! TO.N,/ADC1/47_AIN4+*
X181115000Y-101270000D03*
G04 #@! TO.N,/ADC1/46_AIN5-*
X178575000Y-103810000D03*
G04 #@! TO.N,/ADC1/45_AIN5+*
X181115000Y-103810000D03*
G04 #@! TO.N,/ADC1/40_AIN6-*
X178575000Y-106350000D03*
G04 #@! TO.N,/ADC1/39_AIN6+*
X181115000Y-106350000D03*
G04 #@! TO.N,/ADC1/38_AIN7-*
X178575000Y-108890000D03*
G04 #@! TO.N,/ADC1/37_AIN7+*
X181115000Y-108890000D03*
G04 #@! TO.N,ACC_6_GND*
X178575000Y-111430000D03*
G04 #@! TO.N,ADC1_43_AVDD1B*
X181115000Y-111430000D03*
G04 #@! TD*
G04 #@! TO.N,ADC1_43_AVDD1B*
G04 #@! TO.C,J54*
X138570000Y-131115000D03*
G04 #@! TO.N,ACC_6_GND*
X138570000Y-128575000D03*
G04 #@! TO.N,/ADC2/37_AIN7+*
X141110000Y-131115000D03*
G04 #@! TO.N,/ADC2/38_AIN7-*
X141110000Y-128575000D03*
G04 #@! TO.N,/ADC2/39_AIN6+*
X143650000Y-131115000D03*
G04 #@! TO.N,/ADC2/40_AIN6-*
X143650000Y-128575000D03*
G04 #@! TO.N,/ADC2/45_AIN5+*
X146190000Y-131115000D03*
G04 #@! TO.N,/ADC2/46_AIN5-*
X146190000Y-128575000D03*
G04 #@! TO.N,/ADC2/47_AIN4+*
X148730000Y-131115000D03*
G04 #@! TO.N,/ADC2/48_AIN4-*
X148730000Y-128575000D03*
G04 #@! TO.N,/ADC2/2_AIN0+*
X151270000Y-131115000D03*
G04 #@! TO.N,/ADC2/1_AIN0-*
X151270000Y-128575000D03*
G04 #@! TO.N,/ADC2/4_AIN1+*
X153810000Y-131115000D03*
G04 #@! TO.N,/ADC2/3_AIN1-*
X153810000Y-128575000D03*
G04 #@! TO.N,/ADC2/10_AIN2+*
X156350000Y-131115000D03*
G04 #@! TO.N,/ADC2/9_AIN2-*
X156350000Y-128575000D03*
G04 #@! TO.N,/ADC2/12_AIN3+*
X158890000Y-131115000D03*
G04 #@! TO.N,/ADC2/11_AIN3-*
X158890000Y-128575000D03*
G04 #@! TO.N,/ADC2/57_VCM*
X161430000Y-131115000D03*
D16*
G04 #@! TO.N,AINREF-*
X161430000Y-128575000D03*
G04 #@! TD*
G04 #@! TO.N,AINREF-*
G04 #@! TO.C,J55*
X121425000Y-111430000D03*
D17*
G04 #@! TO.N,/ADC3/57_VCM*
X118885000Y-111430000D03*
G04 #@! TO.N,/ADC3/11_AIN3-*
X121425000Y-108890000D03*
G04 #@! TO.N,/ADC3/12_AIN3+*
X118885000Y-108890000D03*
G04 #@! TO.N,/ADC3/9_AIN2-*
X121425000Y-106350000D03*
G04 #@! TO.N,/ADC3/10_AIN2+*
X118885000Y-106350000D03*
G04 #@! TO.N,/ADC3/3_AIN1-*
X121425000Y-103810000D03*
G04 #@! TO.N,/ADC3/4_AIN1+*
X118885000Y-103810000D03*
G04 #@! TO.N,/ADC3/1_AIN0-*
X121425000Y-101270000D03*
G04 #@! TO.N,/ADC3/2_AIN0+*
X118885000Y-101270000D03*
G04 #@! TO.N,/ADC3/48_AIN4-*
X121425000Y-98730000D03*
G04 #@! TO.N,/ADC3/47_AIN4+*
X118885000Y-98730000D03*
G04 #@! TO.N,/ADC3/46_AIN5-*
X121425000Y-96190000D03*
G04 #@! TO.N,/ADC3/45_AIN5+*
X118885000Y-96190000D03*
G04 #@! TO.N,/ADC3/40_AIN6-*
X121425000Y-93650000D03*
G04 #@! TO.N,/ADC3/39_AIN6+*
X118885000Y-93650000D03*
G04 #@! TO.N,/ADC3/38_AIN7-*
X121425000Y-91110000D03*
G04 #@! TO.N,/ADC3/37_AIN7+*
X118885000Y-91110000D03*
G04 #@! TO.N,ACC_6_GND*
X121425000Y-88570000D03*
G04 #@! TO.N,ADC1_43_AVDD1B*
X118885000Y-88570000D03*
G04 #@! TD*
G04 #@! TO.N,ADC1_43_AVDD1B*
G04 #@! TO.C,J56*
X161430000Y-68885000D03*
G04 #@! TO.N,ACC_6_GND*
X161430000Y-71425000D03*
G04 #@! TO.N,/ADC4/37_AIN7+*
X158890000Y-68885000D03*
G04 #@! TO.N,/ADC4/38_AIN7-*
X158890000Y-71425000D03*
G04 #@! TO.N,/ADC4/39_AIN6+*
X156350000Y-68885000D03*
G04 #@! TO.N,/ADC4/40_AIN6-*
X156350000Y-71425000D03*
G04 #@! TO.N,/ADC4/45_AIN5+*
X153810000Y-68885000D03*
G04 #@! TO.N,/ADC4/46_AIN5-*
X153810000Y-71425000D03*
G04 #@! TO.N,/ADC4/47_AIN4+*
X151270000Y-68885000D03*
G04 #@! TO.N,/ADC4/48_AIN4-*
X151270000Y-71425000D03*
G04 #@! TO.N,ADC4_AIN0+*
X148730000Y-68885000D03*
G04 #@! TO.N,ADC4_AIN0-*
X148730000Y-71425000D03*
G04 #@! TO.N,ADC4_AIN1+*
X146190000Y-68885000D03*
G04 #@! TO.N,ADC4_AIN1-*
X146190000Y-71425000D03*
G04 #@! TO.N,ADC4_AIN2+*
X143650000Y-68885000D03*
G04 #@! TO.N,ADC4_AIN2-*
X143650000Y-71425000D03*
G04 #@! TO.N,ADC4_AIN3+*
X141110000Y-68885000D03*
G04 #@! TO.N,ADC4_AIN3-*
X141110000Y-71425000D03*
G04 #@! TO.N,/ADC4/57_VCM*
X138570000Y-68885000D03*
D16*
G04 #@! TO.N,AINREF-*
X138570000Y-71425000D03*
G04 #@! TD*
D17*
G04 #@! TO.N,ADC1_34_SYNC_OUT*
G04 #@! TO.C,J65*
X171590000Y-109525000D03*
D16*
G04 #@! TO.N,ADC1_35_SYNC_IN*
X174130000Y-109525000D03*
G04 #@! TD*
D17*
G04 #@! TO.N,ADC1_14_MODE1_GPIO1*
G04 #@! TO.C,J69*
X171590000Y-90475000D03*
D16*
G04 #@! TO.N,ADC1_13_MODE0_GPIO0*
X174130000Y-90475000D03*
G04 #@! TD*
G04 #@! TO.N,ADC1_32_XTAL2_MCLK*
G04 #@! TO.C,J73*
X125870000Y-90475000D03*
D17*
G04 #@! TO.N,CRYSTAL_3_OUT*
X128410000Y-90475000D03*
G04 #@! TD*
D16*
G04 #@! TO.N,MCU_11_PF1_I2C2_SCL*
G04 #@! TO.C,J78*
X140475000Y-124130000D03*
D17*
G04 #@! TO.N,MCU_10_PF0_I2C2_SDA*
X140475000Y-121590000D03*
G04 #@! TD*
G04 #@! TO.N,ADC1_41_REF2+*
G04 #@! TO.C,J79*
X128410000Y-109525000D03*
D16*
G04 #@! TO.N,ACC_6_GND*
X125870000Y-109525000D03*
G04 #@! TD*
G04 #@! TO.N,CRYSTAL_4_Vin*
G04 #@! TO.C,J80*
X159525000Y-124130000D03*
D17*
G04 #@! TO.N,ADC1_24_IOVDD*
X159525000Y-121590000D03*
G04 #@! TD*
G04 #@! TO.N,AVDD_1_IN*
G04 #@! TO.C,J81*
X159525000Y-78410000D03*
D16*
G04 #@! TO.N,ACC_6_GND*
X159525000Y-75870000D03*
G04 #@! TD*
D10*
G04 #@! TO.N,MCU_138_BOOT0*
G04 #@! TO.C,J83*
X164187898Y-129845000D03*
D12*
G36*
X165389980Y-129845000D02*
X164187898Y-131047082D01*
X162985816Y-129845000D01*
X164187898Y-128642918D01*
X165389980Y-129845000D01*
X165389980Y-129845000D01*
G37*
D10*
G04 #@! TO.N,AVDD_1_IN*
X165983949Y-131641051D03*
D11*
X165983949Y-131641051D02*
X165983949Y-131641051D01*
D10*
G04 #@! TO.N,ACC_5_VDDIO*
X165983949Y-128048949D03*
D11*
X165983949Y-128048949D02*
X165983949Y-128048949D01*
D10*
G04 #@! TO.N,ACC_6_GND*
X167780000Y-129845000D03*
D11*
X167780000Y-129845000D02*
X167780000Y-129845000D01*
G04 #@! TD*
D16*
G04 #@! TO.N,ACC_5_VDDIO*
G04 #@! TO.C,J85*
X140475000Y-75870000D03*
D17*
G04 #@! TO.N,ADC1_43_AVDD1B*
X140475000Y-78410000D03*
G04 #@! TD*
D18*
G04 #@! TO.N,/ADC1/49_REF_OUT*
X173145648Y-103467570D03*
G04 #@! TO.N,/ADC1/51_AREG2CAP*
X172447055Y-102752049D03*
G04 #@! TO.N,/ADC1/59_AREG1CAP*
X170951758Y-98413305D03*
G04 #@! TO.N,/ADC2/49_REF_OUT*
X146608676Y-123076324D03*
G04 #@! TO.N,/ADC2/51_AREG2CAP*
X147315784Y-122369216D03*
G04 #@! TO.N,/ADC2/59_AREG1CAP*
X151606504Y-120884463D03*
G04 #@! TO.N,/ADC3/49_REF_OUT*
X126251000Y-96571000D03*
G04 #@! TO.N,/ADC3/51_AREG2CAP*
X127267000Y-96975000D03*
G04 #@! TO.N,/ADC3/59_AREG1CAP*
X128981177Y-101696852D03*
G04 #@! TO.N,/ADC4/49_REF_OUT*
X154017993Y-78810655D03*
G04 #@! TO.N,/ADC4/51_AREG2CAP*
X153111499Y-79232878D03*
G04 #@! TO.N,/ADC4/59_AREG1CAP*
X148476000Y-79070400D03*
G04 #@! TO.N,/MCU/23_PH0*
X138139364Y-111634364D03*
G04 #@! TO.N,/MCU/24_PH1*
X140100266Y-107867734D03*
G04 #@! TO.N,/MCU/9_PC15*
X139745069Y-110788165D03*
X143057880Y-113040160D03*
G04 #@! TO.N,/MCU/8_PC14*
X142341600Y-113794540D03*
G04 #@! TO.N,ADC1_24_IOVDD*
X150230253Y-90594112D03*
X129045000Y-98730000D03*
X148730000Y-120955000D03*
X170955000Y-101270000D03*
X140708065Y-99716509D03*
X149956811Y-108857101D03*
X151145941Y-79184400D03*
X151145941Y-79184400D03*
X159113481Y-109078127D03*
X156936535Y-100930138D03*
G04 #@! TO.N,ADC1_23_DREGCAP*
X157262981Y-99953179D03*
G04 #@! TO.N,ADC1_41_REF2+*
X155602986Y-84243930D03*
X144515465Y-84267285D03*
X155461000Y-115715000D03*
X144539000Y-115715000D03*
X165732712Y-94515459D03*
X134285000Y-94539000D03*
X134285000Y-105461000D03*
X150547000Y-76103095D03*
X165993871Y-105649322D03*
G04 #@! TO.N,ADC1_43_AVDD1B*
X155585977Y-83244073D03*
X144528898Y-83252738D03*
X155477258Y-116744469D03*
X144451125Y-116740316D03*
X166736815Y-94375417D03*
X133140429Y-94394151D03*
X133243872Y-105604881D03*
X128559332Y-103024380D03*
X170961944Y-97413355D03*
X127902000Y-98095000D03*
X148603000Y-122225000D03*
X172098000Y-101524000D03*
X172860000Y-98730000D03*
X149025000Y-76595000D03*
X127140000Y-100975000D03*
X150975000Y-122860000D03*
X163044473Y-90130527D03*
X151997001Y-75604998D03*
X147307641Y-79107419D03*
X151016215Y-77542892D03*
X152705036Y-120814200D03*
X166986598Y-105769723D03*
G04 #@! TO.N,ADC2_23_DREGCAP*
X150599946Y-109638757D03*
G04 #@! TO.N,ADC3_23_DREGCAP*
X140856000Y-100798999D03*
G04 #@! TO.N,ADC4_23_DREGCAP*
X149466048Y-91239089D03*
G04 #@! TO.N,AVDD_1_IN*
X160160000Y-112573000D03*
X160214210Y-89764408D03*
X163970000Y-127940000D03*
X167831900Y-126670000D03*
X167831900Y-125810098D03*
G04 #@! TO.N,ACC_6_GND*
X134760000Y-100000000D03*
X150000000Y-84760000D03*
X165240000Y-100000000D03*
X150000000Y-115240000D03*
X159525000Y-90488972D03*
X162065000Y-87948972D03*
X140475000Y-86665000D03*
X173495000Y-121590000D03*
X159144000Y-118288000D03*
X157464399Y-110120683D03*
X152686149Y-78131841D03*
X148984000Y-82601000D03*
X151120000Y-117145000D03*
X155752025Y-88691718D03*
X162621847Y-87392125D03*
X148806200Y-74600000D03*
X152667000Y-82705000D03*
X161201400Y-113208000D03*
X132601000Y-100866000D03*
X132519869Y-97460000D03*
X167272000Y-99007000D03*
X167559266Y-102719125D03*
X147610000Y-117680894D03*
X137975092Y-105914500D03*
X131439542Y-109093000D03*
X136505990Y-90555656D03*
X141135123Y-112166877D03*
X168415000Y-123495000D03*
X140602000Y-88189000D03*
X150508000Y-97587000D03*
G04 #@! TO.N,ACC_5_VDDIO*
X141182108Y-85957892D03*
X158890000Y-111430000D03*
X144121000Y-106713931D03*
X171618291Y-117116709D03*
X167604054Y-122400946D03*
X160541000Y-93015000D03*
X159813492Y-107493000D03*
X134289564Y-108625070D03*
X135798473Y-91332221D03*
X142144999Y-90239999D03*
X154266178Y-91964402D03*
G04 #@! TO.N,ISO_USB_2_GND1*
X126526548Y-121512517D03*
X126708200Y-116306800D03*
G04 #@! TO.N,ISO_USB_1_VBUS1*
X128642913Y-123854840D03*
X132407660Y-123837700D03*
G04 #@! TO.N,ISO_USB_7_UD+*
X128475740Y-120299480D03*
X124607899Y-115710685D03*
G04 #@! TO.N,ISO_USB_6_UD\2013*
X127866542Y-123144598D03*
G04 #@! TO.N,ADC1_36_RESET*
X162163440Y-108181232D03*
G04 #@! TO.N,ADC1_34_SYNC_OUT*
X161763833Y-106000927D03*
G04 #@! TO.N,ADC1_33_START*
X163208000Y-108382000D03*
X167805981Y-111594000D03*
X166124347Y-112831653D03*
G04 #@! TO.N,ADC1_32_XTAL2_MCLK*
X155188206Y-106065011D03*
X150616130Y-107376304D03*
X131204000Y-91237000D03*
G04 #@! TO.N,ADC1_30_DRDY*
X158117064Y-104434064D03*
X158001000Y-95174000D03*
G04 #@! TO.N,ADC1_29_DCLK*
X156393030Y-101778000D03*
X156393030Y-101778000D03*
G04 #@! TO.N,ADC1_28_DOUT0*
X157959011Y-102958000D03*
G04 #@! TO.N,ADC1_27_DOUT1*
X158631347Y-102027347D03*
G04 #@! TO.N,ADC1_21_DCLK0_SDO*
X156620849Y-104555151D03*
G04 #@! TO.N,ADC1_20_DCLK1_SDI*
X155043000Y-105075609D03*
G04 #@! TO.N,ADC1_19_DCLK2_SCLK*
X155043000Y-104075606D03*
G04 #@! TO.N,ADC1_18_ALERT_CS*
X157482767Y-94285000D03*
G04 #@! TO.N,ADC2_36_RESET*
X145079737Y-106429633D03*
G04 #@! TO.N,ADC2_33_START*
X145096000Y-107871520D03*
G04 #@! TO.N,ADC2_30_DRDY*
X147079001Y-108036728D03*
G04 #@! TO.N,ADC2_29_DCLK*
X147079001Y-106832400D03*
G04 #@! TO.N,ADC2_28_DOUT0*
X148984000Y-106985000D03*
G04 #@! TO.N,ADC2_27_DOUT1*
X149050261Y-108435001D03*
G04 #@! TO.N,ADC2_21_DCLK0_SDO*
X151397000Y-108001000D03*
G04 #@! TO.N,ADC2_20_DCLK1_SDI*
X151927248Y-108867752D03*
G04 #@! TO.N,ADC2_19_DCLK2_SCLK*
X152563058Y-107403000D03*
G04 #@! TO.N,ADC2_18_ALERT_CS*
X151397000Y-105715000D03*
G04 #@! TO.N,ADC3_36_RESET*
X138467564Y-94074990D03*
G04 #@! TO.N,ADC3_33_START*
X140868430Y-95962205D03*
G04 #@! TO.N,ADC3_30_DRDY*
X141350036Y-104427995D03*
G04 #@! TO.N,ADC3_29_DCLK*
X144285000Y-103810000D03*
G04 #@! TO.N,ADC3_28_DOUT0*
X143097435Y-104149011D03*
G04 #@! TO.N,ADC3_27_DOUT1*
X141909000Y-100740854D03*
X149891130Y-104191000D03*
X149492000Y-101524000D03*
G04 #@! TO.N,ADC3_21_DCLK0_SDO*
X142253000Y-102249000D03*
G04 #@! TO.N,ADC3_20_DCLK1_SDI*
X140983000Y-102475000D03*
G04 #@! TO.N,ADC3_19_DCLK2_SCLK*
X142585512Y-99947158D03*
G04 #@! TO.N,ADC3_18_ALERT_CS*
X142819847Y-98975000D03*
G04 #@! TO.N,ADC4_36_RESET*
X154313236Y-93787349D03*
G04 #@! TO.N,ADC4_33_START*
X154731397Y-92878974D03*
G04 #@! TO.N,ADC4_30_DRDY*
X153091029Y-91041243D03*
X145165225Y-91726780D03*
G04 #@! TO.N,ADC4_29_DCLK*
X144758181Y-92670386D03*
X153076486Y-92925791D03*
G04 #@! TO.N,ADC4_28_DOUT0*
X151626250Y-93491705D03*
G04 #@! TO.N,ADC4_27_DOUT1*
X150703436Y-93106456D03*
G04 #@! TO.N,ADC4_21_DCLK0_SDO*
X147841000Y-90983000D03*
G04 #@! TO.N,ADC4_20_DCLK1_SDI*
X147619801Y-91958229D03*
G04 #@! TO.N,ADC4_19_DCLK2_SCLK*
X146749418Y-92544000D03*
G04 #@! TO.N,ADC4_18_ALERT_CS*
X145749433Y-92538386D03*
G04 #@! TO.N,MCU_138_BOOT0*
X165875000Y-121601770D03*
G04 #@! TO.N,ISO_UART_13_OUTB*
X149492000Y-96317000D03*
G04 #@! TO.N,ISO_UART_11_IND*
X145471669Y-95758706D03*
G04 #@! TO.N,ISO_UART_14_OUTA*
X149255368Y-93667367D03*
G04 #@! TO.N,ISO_UART_12_INC*
X146190000Y-95063001D03*
G04 #@! TO.N,ISO_USB_10_DD+*
X152540000Y-99365000D03*
X145936000Y-99492000D03*
X135776000Y-108763000D03*
X157239000Y-89535200D03*
G04 #@! TO.N,ISO_USB_11_DD\2013*
X158841160Y-88521160D03*
X147264415Y-100316121D03*
X152540000Y-100365003D03*
X139099426Y-107843269D03*
G04 #@! TO.N,MCU_25_NRST*
X176153812Y-119752918D03*
G04 #@! TO.N,ACC_9_INT2*
X160133952Y-118429421D03*
G04 #@! TO.N,ACC_4_INT1*
X163335000Y-119685000D03*
G04 #@! TO.N,ACC_13_SCL*
X163335000Y-117145000D03*
G04 #@! TO.N,ACC_14_SDA*
X162627892Y-117870000D03*
G04 #@! TO.N,POWER_1_GND*
X169685000Y-74979040D03*
G04 #@! TO.N,POWER_2_VCC*
X170345400Y-79603800D03*
G04 #@! TO.N,AINREF-*
X124419998Y-89790997D03*
X139980180Y-125973881D03*
X160903920Y-73037700D03*
G04 #@! TO.N,ADC1_13_MODE0_GPIO0*
X140944600Y-82016600D03*
X165576583Y-90924922D03*
X130315000Y-108625070D03*
X125075990Y-102413000D03*
X141174312Y-118615618D03*
X162576291Y-125192571D03*
G04 #@! TO.N,ADC1_35_SYNC_IN*
X155461000Y-87735000D03*
X165875000Y-109615000D03*
X141586034Y-95265751D03*
X144345727Y-112265000D03*
G04 #@! TO.N,MCU_112_PC11_SDMMC1_D3*
X166891000Y-113695998D03*
X169705990Y-112446000D03*
G04 #@! TO.N,MCU_111_PC10_SDMMC1_D2*
X164999627Y-114210373D03*
X171082000Y-112827000D03*
G04 #@! TO.N,MCU_105_PA13_SYS_JTMS-SWDIO*
X166891000Y-91364000D03*
X162483113Y-93574948D03*
G04 #@! TO.N,MCU_99_PC9_SDMMC1_D1*
X171663511Y-113896489D03*
X154699000Y-96608000D03*
G04 #@! TO.N,MCU_98_PC8_SDMMC1_D0*
X170515858Y-113774142D03*
X155512375Y-96026256D03*
G04 #@! TO.N,MCU_97_PC7_SDMMC1_DETECT*
X156437306Y-95646118D03*
X164478000Y-113335000D03*
G04 #@! TO.N,MCU_48_PB2_BOOT1*
X126414999Y-102794000D03*
X140699271Y-119685000D03*
X176035000Y-115748000D03*
X130153184Y-110054244D03*
G04 #@! TO.N,MCU_11_PF1_I2C2_SCL*
X142978145Y-110054776D03*
G04 #@! TO.N,MCU_10_PF0_I2C2_SDA*
X143399688Y-111112732D03*
G04 #@! TO.N,CRYSTAL_4_Vin*
X149365000Y-103175000D03*
G04 #@! TD*
D19*
G04 #@! TO.N,POWER_1_GND*
X176628970Y-80423949D02*
X177831051Y-80423949D01*
X175895380Y-80423949D02*
X176628970Y-80423949D01*
X169576051Y-74104620D02*
X175895380Y-80423949D01*
X169576051Y-72168949D02*
X169576051Y-74104620D01*
D20*
X169119315Y-74979040D02*
X169685000Y-74979040D01*
X168924960Y-74979040D02*
X169119315Y-74979040D01*
X168758088Y-77049122D02*
X168758088Y-75145912D01*
X169889122Y-77725122D02*
X169434088Y-77725122D01*
X171358090Y-79194090D02*
X169889122Y-77725122D01*
X171358090Y-79649124D02*
X171358090Y-79194090D01*
X168758088Y-75145912D02*
X168924960Y-74979040D01*
X174217624Y-81260656D02*
X172969622Y-81260656D01*
X169434088Y-77725122D02*
X168758088Y-77049122D01*
X175163280Y-80315000D02*
X174217624Y-81260656D01*
X172969622Y-81260656D02*
X171358090Y-79649124D01*
X177940000Y-80315000D02*
X175163280Y-80315000D01*
D19*
G04 #@! TO.N,AINREF-*
X138570000Y-72775000D02*
X138570000Y-71425000D01*
X138698080Y-72903080D02*
X138570000Y-72775000D01*
X159494220Y-72903080D02*
X138698080Y-72903080D01*
X160903920Y-73037700D02*
X159494220Y-72903080D01*
D21*
G04 #@! TO.N,MCU_11_PF1_I2C2_SCL*
X139299999Y-114002001D02*
X139299999Y-124054999D01*
X140410122Y-112891878D02*
X139299999Y-114002001D01*
X142978145Y-110054776D02*
X141860124Y-111172797D01*
X141860124Y-111172797D02*
X141860124Y-112514878D01*
X139375000Y-124130000D02*
X140475000Y-124130000D01*
X141483124Y-112891878D02*
X140410122Y-112891878D01*
X139299999Y-124054999D02*
X139375000Y-124130000D01*
X141860124Y-112514878D02*
X141483124Y-112891878D01*
G04 #@! TO.N,MCU_10_PF0_I2C2_SDA*
X139974271Y-114343729D02*
X139974271Y-121089271D01*
X140976112Y-113341888D02*
X139974271Y-114343729D01*
X139974271Y-121089271D02*
X140475000Y-121590000D01*
X143399688Y-111112732D02*
X142754402Y-111112732D01*
X142380000Y-111487134D02*
X142380000Y-112698105D01*
X141736217Y-113341888D02*
X140976112Y-113341888D01*
X142754402Y-111112732D02*
X142380000Y-111487134D01*
X142380000Y-112698105D02*
X141736217Y-113341888D01*
G04 #@! TD*
D22*
G04 #@! TO.N,ACC_6_GND*
G36*
X160268561Y-73866052D02*
X160317640Y-73915131D01*
X160698046Y-74072700D01*
X161109794Y-74072700D01*
X161386879Y-73957928D01*
X160998838Y-76144588D01*
X160851250Y-75997000D01*
X159652000Y-75997000D01*
X159652000Y-76017000D01*
X159398000Y-76017000D01*
X159398000Y-75997000D01*
X158198750Y-75997000D01*
X158040000Y-76155750D01*
X158040000Y-76846310D01*
X158136673Y-77079699D01*
X158315302Y-77258327D01*
X158476033Y-77324904D01*
X158454375Y-77339375D01*
X158126161Y-77830582D01*
X158010908Y-78410000D01*
X158126161Y-78989418D01*
X158454375Y-79480625D01*
X158945582Y-79808839D01*
X159378744Y-79895000D01*
X159671256Y-79895000D01*
X160104418Y-79808839D01*
X160381432Y-79623744D01*
X159874954Y-82477809D01*
X159875980Y-82527352D01*
X159910197Y-82589803D01*
X167410197Y-90089803D01*
X167451399Y-90117333D01*
X167521774Y-90125119D01*
X170368852Y-89629649D01*
X170191161Y-89895582D01*
X170075908Y-90475000D01*
X170191161Y-91054418D01*
X170519375Y-91545625D01*
X171010582Y-91873839D01*
X171443744Y-91960000D01*
X171736256Y-91960000D01*
X172169418Y-91873839D01*
X172660625Y-91545625D01*
X172672816Y-91527381D01*
X172681843Y-91572765D01*
X172822191Y-91782809D01*
X173032235Y-91923157D01*
X173280000Y-91972440D01*
X174980000Y-91972440D01*
X175227765Y-91923157D01*
X175437809Y-91782809D01*
X175578157Y-91572765D01*
X175627440Y-91325000D01*
X175627440Y-89625000D01*
X175578157Y-89377235D01*
X175437809Y-89167191D01*
X175227765Y-89026843D01*
X174980000Y-88977560D01*
X174115895Y-88977560D01*
X177077560Y-88462148D01*
X177077560Y-89420000D01*
X177126843Y-89667765D01*
X177267191Y-89877809D01*
X177477235Y-90018157D01*
X177522619Y-90027184D01*
X177504375Y-90039375D01*
X177176161Y-90530582D01*
X177060908Y-91110000D01*
X177176161Y-91689418D01*
X177504375Y-92180625D01*
X177802761Y-92380000D01*
X177504375Y-92579375D01*
X177176161Y-93070582D01*
X177060908Y-93650000D01*
X177176161Y-94229418D01*
X177504375Y-94720625D01*
X177802761Y-94920000D01*
X177504375Y-95119375D01*
X177176161Y-95610582D01*
X177060908Y-96190000D01*
X177176161Y-96769418D01*
X177504375Y-97260625D01*
X177802761Y-97460000D01*
X177504375Y-97659375D01*
X177176161Y-98150582D01*
X177060908Y-98730000D01*
X177176161Y-99309418D01*
X177504375Y-99800625D01*
X177802761Y-100000000D01*
X177504375Y-100199375D01*
X177176161Y-100690582D01*
X177060908Y-101270000D01*
X177176161Y-101849418D01*
X177504375Y-102340625D01*
X177802761Y-102540000D01*
X177504375Y-102739375D01*
X177176161Y-103230582D01*
X177060908Y-103810000D01*
X177176161Y-104389418D01*
X177504375Y-104880625D01*
X177802761Y-105080000D01*
X177504375Y-105279375D01*
X177176161Y-105770582D01*
X177060908Y-106350000D01*
X177176161Y-106929418D01*
X177504375Y-107420625D01*
X177802761Y-107620000D01*
X177504375Y-107819375D01*
X177176161Y-108310582D01*
X177060908Y-108890000D01*
X177176161Y-109469418D01*
X177504375Y-109960625D01*
X177823478Y-110173843D01*
X177693642Y-110234817D01*
X177303355Y-110663076D01*
X177133524Y-111073110D01*
X177254845Y-111303000D01*
X178448000Y-111303000D01*
X178448000Y-111283000D01*
X178702000Y-111283000D01*
X178702000Y-111303000D01*
X178722000Y-111303000D01*
X178722000Y-111557000D01*
X178702000Y-111557000D01*
X178702000Y-112750819D01*
X178931892Y-112871486D01*
X179456358Y-112625183D01*
X179843647Y-112200214D01*
X180044375Y-112500625D01*
X180535582Y-112828839D01*
X180968744Y-112915000D01*
X181261256Y-112915000D01*
X181694418Y-112828839D01*
X182185625Y-112500625D01*
X182513839Y-112009418D01*
X182629092Y-111430000D01*
X182513839Y-110850582D01*
X182185625Y-110359375D01*
X181887239Y-110160000D01*
X182185625Y-109960625D01*
X182513839Y-109469418D01*
X182629092Y-108890000D01*
X182513839Y-108310582D01*
X182185625Y-107819375D01*
X181887239Y-107620000D01*
X182185625Y-107420625D01*
X182513839Y-106929418D01*
X182629092Y-106350000D01*
X182513839Y-105770582D01*
X182185625Y-105279375D01*
X181887239Y-105080000D01*
X182185625Y-104880625D01*
X182513839Y-104389418D01*
X182629092Y-103810000D01*
X182513839Y-103230582D01*
X182185625Y-102739375D01*
X181887239Y-102540000D01*
X182185625Y-102340625D01*
X182513839Y-101849418D01*
X182629092Y-101270000D01*
X182513839Y-100690582D01*
X182185625Y-100199375D01*
X181887239Y-100000000D01*
X182185625Y-99800625D01*
X182513839Y-99309418D01*
X182629092Y-98730000D01*
X182513839Y-98150582D01*
X182185625Y-97659375D01*
X181887239Y-97460000D01*
X182185625Y-97260625D01*
X182513839Y-96769418D01*
X182629092Y-96190000D01*
X182513839Y-95610582D01*
X182185625Y-95119375D01*
X181887239Y-94920000D01*
X182185625Y-94720625D01*
X182513839Y-94229418D01*
X182629092Y-93650000D01*
X182513839Y-93070582D01*
X182185625Y-92579375D01*
X181887239Y-92380000D01*
X182185625Y-92180625D01*
X182513839Y-91689418D01*
X182629092Y-91110000D01*
X182513839Y-90530582D01*
X182185625Y-90039375D01*
X181887239Y-89840000D01*
X182185625Y-89640625D01*
X182513839Y-89149418D01*
X182629092Y-88570000D01*
X182513839Y-87990582D01*
X182229817Y-87565513D01*
X184290001Y-87206985D01*
X184290000Y-114205909D01*
X183048432Y-115447477D01*
X183039890Y-115404531D01*
X182711676Y-114913324D01*
X182220469Y-114585110D01*
X181787307Y-114498949D01*
X181494795Y-114498949D01*
X181289081Y-114539868D01*
X181359092Y-114187898D01*
X181243839Y-113608480D01*
X180915625Y-113117273D01*
X180424418Y-112789059D01*
X179991256Y-112702898D01*
X179698744Y-112702898D01*
X179265582Y-112789059D01*
X178774375Y-113117273D01*
X178446161Y-113608480D01*
X178330908Y-114187898D01*
X178335189Y-114209418D01*
X178296714Y-114183710D01*
X178048949Y-114134427D01*
X177801184Y-114183710D01*
X177591140Y-114324058D01*
X176832955Y-115082244D01*
X176621280Y-114870569D01*
X176240874Y-114713000D01*
X175829126Y-114713000D01*
X175448720Y-114870569D01*
X175157569Y-115161720D01*
X175000000Y-115542126D01*
X175000000Y-115953874D01*
X175157569Y-116334280D01*
X175448720Y-116625431D01*
X175829126Y-116783000D01*
X176240874Y-116783000D01*
X176586951Y-116639651D01*
X177591140Y-117643840D01*
X177801184Y-117784188D01*
X178048949Y-117833471D01*
X178296714Y-117784188D01*
X178335189Y-117758480D01*
X178330908Y-117780000D01*
X178446161Y-118359418D01*
X178774375Y-118850625D01*
X179265582Y-119178839D01*
X179308528Y-119187381D01*
X177705000Y-120790909D01*
X177705000Y-120749126D01*
X177547431Y-120368720D01*
X177256280Y-120077569D01*
X177156698Y-120036321D01*
X177188812Y-119958792D01*
X177188812Y-119547044D01*
X177031243Y-119166638D01*
X176740092Y-118875487D01*
X176359686Y-118717918D01*
X175947938Y-118717918D01*
X175567532Y-118875487D01*
X175276381Y-119166638D01*
X175118812Y-119547044D01*
X175118812Y-119958792D01*
X175276381Y-120339198D01*
X175567532Y-120630349D01*
X175667114Y-120671597D01*
X175635000Y-120749126D01*
X175635000Y-121160874D01*
X175792569Y-121541280D01*
X176083720Y-121832431D01*
X176464126Y-121990000D01*
X176505909Y-121990000D01*
X171990000Y-126505910D01*
X171990000Y-126464126D01*
X171832431Y-126083720D01*
X171541280Y-125792569D01*
X171160874Y-125635000D01*
X170749126Y-125635000D01*
X170368720Y-125792569D01*
X170077569Y-126083720D01*
X169920000Y-126464126D01*
X169920000Y-126875874D01*
X170077569Y-127256280D01*
X170368720Y-127547431D01*
X170749126Y-127705000D01*
X170790910Y-127705000D01*
X169148753Y-129347156D01*
X169051645Y-129078076D01*
X168803763Y-129000842D01*
X167959605Y-129845000D01*
X167973748Y-129859143D01*
X167794143Y-130038748D01*
X167780000Y-130024605D01*
X167765858Y-130038748D01*
X167586253Y-129859143D01*
X167600395Y-129845000D01*
X167586253Y-129830858D01*
X167765858Y-129651253D01*
X167780000Y-129665395D01*
X168624158Y-128821237D01*
X168546924Y-128573355D01*
X168001908Y-128376664D01*
X167427555Y-128403308D01*
X167498041Y-128048949D01*
X167411991Y-127616344D01*
X167626026Y-127705000D01*
X168037774Y-127705000D01*
X168418180Y-127547431D01*
X168709331Y-127256280D01*
X168866900Y-126875874D01*
X168866900Y-126464126D01*
X168774084Y-126240049D01*
X168866900Y-126015972D01*
X168866900Y-125604224D01*
X168709331Y-125223818D01*
X168418180Y-124932667D01*
X168037774Y-124775098D01*
X167626026Y-124775098D01*
X167245620Y-124932667D01*
X166954469Y-125223818D01*
X166796900Y-125604224D01*
X166796900Y-126015972D01*
X166889716Y-126240049D01*
X166796900Y-126464126D01*
X166796900Y-126806152D01*
X166563367Y-126650110D01*
X166130205Y-126563949D01*
X165837693Y-126563949D01*
X165404531Y-126650110D01*
X164913324Y-126978324D01*
X164736568Y-127242857D01*
X164556280Y-127062569D01*
X164175874Y-126905000D01*
X163764126Y-126905000D01*
X163383720Y-127062569D01*
X163092569Y-127353720D01*
X162935000Y-127734126D01*
X162935000Y-128145874D01*
X163092569Y-128526280D01*
X163240744Y-128674455D01*
X162927440Y-128987758D01*
X162927440Y-127725000D01*
X162878157Y-127477235D01*
X162737809Y-127267191D01*
X162527765Y-127126843D01*
X162280000Y-127077560D01*
X160580000Y-127077560D01*
X160332235Y-127126843D01*
X160122191Y-127267191D01*
X159981843Y-127477235D01*
X159972816Y-127522619D01*
X159960625Y-127504375D01*
X159469418Y-127176161D01*
X159036256Y-127090000D01*
X158743744Y-127090000D01*
X158310582Y-127176161D01*
X157819375Y-127504375D01*
X157620000Y-127802761D01*
X157420625Y-127504375D01*
X156929418Y-127176161D01*
X156496256Y-127090000D01*
X156203744Y-127090000D01*
X155770582Y-127176161D01*
X155279375Y-127504375D01*
X155080000Y-127802761D01*
X154880625Y-127504375D01*
X154389418Y-127176161D01*
X153956256Y-127090000D01*
X153663744Y-127090000D01*
X153230582Y-127176161D01*
X152739375Y-127504375D01*
X152540000Y-127802761D01*
X152340625Y-127504375D01*
X151849418Y-127176161D01*
X151416256Y-127090000D01*
X151123744Y-127090000D01*
X150690582Y-127176161D01*
X150199375Y-127504375D01*
X150000000Y-127802761D01*
X149800625Y-127504375D01*
X149309418Y-127176161D01*
X148876256Y-127090000D01*
X148583744Y-127090000D01*
X148150582Y-127176161D01*
X147659375Y-127504375D01*
X147460000Y-127802761D01*
X147260625Y-127504375D01*
X146769418Y-127176161D01*
X146336256Y-127090000D01*
X146043744Y-127090000D01*
X145610582Y-127176161D01*
X145119375Y-127504375D01*
X144920000Y-127802761D01*
X144720625Y-127504375D01*
X144229418Y-127176161D01*
X143796256Y-127090000D01*
X143503744Y-127090000D01*
X143070582Y-127176161D01*
X142579375Y-127504375D01*
X142380000Y-127802761D01*
X142180625Y-127504375D01*
X141689418Y-127176161D01*
X141256256Y-127090000D01*
X140963744Y-127090000D01*
X140530582Y-127176161D01*
X140039375Y-127504375D01*
X139826157Y-127823478D01*
X139765183Y-127693642D01*
X139336924Y-127303355D01*
X138926890Y-127133524D01*
X138697000Y-127254845D01*
X138697000Y-128448000D01*
X138717000Y-128448000D01*
X138717000Y-128702000D01*
X138697000Y-128702000D01*
X138697000Y-128722000D01*
X138443000Y-128722000D01*
X138443000Y-128702000D01*
X138423000Y-128702000D01*
X138423000Y-128448000D01*
X138443000Y-128448000D01*
X138443000Y-127254845D01*
X138431293Y-127248667D01*
X138873550Y-124708985D01*
X138977560Y-124778483D01*
X138977560Y-124980000D01*
X139026843Y-125227765D01*
X139121268Y-125369082D01*
X139102749Y-125387601D01*
X138945180Y-125768007D01*
X138945180Y-126179755D01*
X139102749Y-126560161D01*
X139393900Y-126851312D01*
X139774306Y-127008881D01*
X140186054Y-127008881D01*
X140566460Y-126851312D01*
X140857611Y-126560161D01*
X141015180Y-126179755D01*
X141015180Y-125768007D01*
X140956955Y-125627440D01*
X141325000Y-125627440D01*
X141572765Y-125578157D01*
X141782809Y-125437809D01*
X141923157Y-125227765D01*
X141972440Y-124980000D01*
X141972440Y-123280000D01*
X141923157Y-123032235D01*
X141815055Y-122870450D01*
X145573676Y-122870450D01*
X145573676Y-123282198D01*
X145731245Y-123662604D01*
X146022396Y-123953755D01*
X146402802Y-124111324D01*
X146814550Y-124111324D01*
X147194956Y-123953755D01*
X147486107Y-123662604D01*
X147607938Y-123368478D01*
X147902064Y-123246647D01*
X148037622Y-123111089D01*
X148397126Y-123260000D01*
X148808874Y-123260000D01*
X149189280Y-123102431D01*
X149480431Y-122811280D01*
X149545526Y-122654126D01*
X149940000Y-122654126D01*
X149940000Y-123065874D01*
X150097569Y-123446280D01*
X150388720Y-123737431D01*
X150769126Y-123895000D01*
X151180874Y-123895000D01*
X151561280Y-123737431D01*
X151852431Y-123446280D01*
X152010000Y-123065874D01*
X152010000Y-122654126D01*
X151852431Y-122273720D01*
X151561280Y-121982569D01*
X151408928Y-121919463D01*
X151812378Y-121919463D01*
X152192784Y-121761894D01*
X152220785Y-121733893D01*
X152499162Y-121849200D01*
X152910910Y-121849200D01*
X153291316Y-121691631D01*
X153392947Y-121590000D01*
X158010908Y-121590000D01*
X158126161Y-122169418D01*
X158454375Y-122660625D01*
X158472619Y-122672816D01*
X158427235Y-122681843D01*
X158217191Y-122822191D01*
X158076843Y-123032235D01*
X158027560Y-123280000D01*
X158027560Y-124980000D01*
X158076843Y-125227765D01*
X158217191Y-125437809D01*
X158427235Y-125578157D01*
X158675000Y-125627440D01*
X160375000Y-125627440D01*
X160622765Y-125578157D01*
X160832809Y-125437809D01*
X160973157Y-125227765D01*
X161021107Y-124986697D01*
X161541291Y-124986697D01*
X161541291Y-125398445D01*
X161698860Y-125778851D01*
X161990011Y-126070002D01*
X162370417Y-126227571D01*
X162782165Y-126227571D01*
X163162571Y-126070002D01*
X163453722Y-125778851D01*
X163611291Y-125398445D01*
X163611291Y-124986697D01*
X163453722Y-124606291D01*
X163162571Y-124315140D01*
X162782165Y-124157571D01*
X162370417Y-124157571D01*
X161990011Y-124315140D01*
X161698860Y-124606291D01*
X161541291Y-124986697D01*
X161021107Y-124986697D01*
X161022440Y-124980000D01*
X161022440Y-123280000D01*
X160973157Y-123032235D01*
X160832809Y-122822191D01*
X160622765Y-122681843D01*
X160577381Y-122672816D01*
X160595625Y-122660625D01*
X160923839Y-122169418D01*
X161039092Y-121590000D01*
X161000483Y-121395896D01*
X164840000Y-121395896D01*
X164840000Y-121807644D01*
X164997569Y-122188050D01*
X165288720Y-122479201D01*
X165669126Y-122636770D01*
X166080874Y-122636770D01*
X166461280Y-122479201D01*
X166569054Y-122371427D01*
X166569054Y-122606820D01*
X166726623Y-122987226D01*
X167017774Y-123278377D01*
X167398180Y-123435946D01*
X167809928Y-123435946D01*
X168190334Y-123278377D01*
X168481485Y-122987226D01*
X168639054Y-122606820D01*
X168639054Y-122195072D01*
X168481485Y-121814666D01*
X168190334Y-121523515D01*
X167809928Y-121365946D01*
X167398180Y-121365946D01*
X167017774Y-121523515D01*
X166910000Y-121631289D01*
X166910000Y-121395896D01*
X166752431Y-121015490D01*
X166461280Y-120724339D01*
X166080874Y-120566770D01*
X165669126Y-120566770D01*
X165288720Y-120724339D01*
X164997569Y-121015490D01*
X164840000Y-121395896D01*
X161000483Y-121395896D01*
X160923839Y-121010582D01*
X160595625Y-120519375D01*
X160104418Y-120191161D01*
X159671256Y-120105000D01*
X159378744Y-120105000D01*
X158945582Y-120191161D01*
X158454375Y-120519375D01*
X158126161Y-121010582D01*
X158010908Y-121590000D01*
X153392947Y-121590000D01*
X153582467Y-121400480D01*
X153740036Y-121020074D01*
X153740036Y-120608326D01*
X153582467Y-120227920D01*
X153291316Y-119936769D01*
X152910910Y-119779200D01*
X152499162Y-119779200D01*
X152118756Y-119936769D01*
X152090755Y-119964770D01*
X151812378Y-119849463D01*
X151400630Y-119849463D01*
X151020224Y-120007032D01*
X150729073Y-120298183D01*
X150571504Y-120678589D01*
X150571504Y-121090337D01*
X150729073Y-121470743D01*
X151020224Y-121761894D01*
X151172576Y-121825000D01*
X150769126Y-121825000D01*
X150388720Y-121982569D01*
X150097569Y-122273720D01*
X149940000Y-122654126D01*
X149545526Y-122654126D01*
X149638000Y-122430874D01*
X149638000Y-122019126D01*
X149489089Y-121659622D01*
X149607431Y-121541280D01*
X149765000Y-121160874D01*
X149765000Y-120749126D01*
X149607431Y-120368720D01*
X149316280Y-120077569D01*
X148935874Y-119920000D01*
X148524126Y-119920000D01*
X148143720Y-120077569D01*
X147852569Y-120368720D01*
X147695000Y-120749126D01*
X147695000Y-121160874D01*
X147817571Y-121456787D01*
X147521658Y-121334216D01*
X147109910Y-121334216D01*
X146729504Y-121491785D01*
X146438353Y-121782936D01*
X146316522Y-122077062D01*
X146022396Y-122198893D01*
X145731245Y-122490044D01*
X145573676Y-122870450D01*
X141815055Y-122870450D01*
X141782809Y-122822191D01*
X141572765Y-122681843D01*
X141527381Y-122672816D01*
X141545625Y-122660625D01*
X141873839Y-122169418D01*
X141989092Y-121590000D01*
X141873839Y-121010582D01*
X141545625Y-120519375D01*
X141415532Y-120432450D01*
X141576702Y-120271280D01*
X141734271Y-119890874D01*
X141734271Y-119503951D01*
X141760592Y-119493049D01*
X142051743Y-119201898D01*
X142209312Y-118821492D01*
X142209312Y-118409744D01*
X142132187Y-118223547D01*
X159098952Y-118223547D01*
X159098952Y-118635295D01*
X159256521Y-119015701D01*
X159547672Y-119306852D01*
X159928078Y-119464421D01*
X160339826Y-119464421D01*
X160720232Y-119306852D01*
X161011383Y-119015701D01*
X161168952Y-118635295D01*
X161168952Y-118223547D01*
X161011383Y-117843141D01*
X160832368Y-117664126D01*
X161592892Y-117664126D01*
X161592892Y-118075874D01*
X161750461Y-118456280D01*
X162041612Y-118747431D01*
X162422018Y-118905000D01*
X162651289Y-118905000D01*
X162457569Y-119098720D01*
X162300000Y-119479126D01*
X162300000Y-119890874D01*
X162457569Y-120271280D01*
X162748720Y-120562431D01*
X163129126Y-120720000D01*
X163540874Y-120720000D01*
X163921280Y-120562431D01*
X164212431Y-120271280D01*
X164370000Y-119890874D01*
X164370000Y-119479126D01*
X164212431Y-119098720D01*
X163921280Y-118807569D01*
X163540874Y-118650000D01*
X163311603Y-118650000D01*
X163505323Y-118456280D01*
X163636100Y-118140556D01*
X163921280Y-118022431D01*
X164212431Y-117731280D01*
X164370000Y-117350874D01*
X164370000Y-116939126D01*
X164358282Y-116910835D01*
X170583291Y-116910835D01*
X170583291Y-117322583D01*
X170740860Y-117702989D01*
X171032011Y-117994140D01*
X171412417Y-118151709D01*
X171824165Y-118151709D01*
X172204571Y-117994140D01*
X172495722Y-117702989D01*
X172653291Y-117322583D01*
X172653291Y-116910835D01*
X172495722Y-116530429D01*
X172204571Y-116239278D01*
X171824165Y-116081709D01*
X171412417Y-116081709D01*
X171032011Y-116239278D01*
X170740860Y-116530429D01*
X170583291Y-116910835D01*
X164358282Y-116910835D01*
X164212431Y-116558720D01*
X163921280Y-116267569D01*
X163540874Y-116110000D01*
X163129126Y-116110000D01*
X162748720Y-116267569D01*
X162457569Y-116558720D01*
X162326792Y-116874444D01*
X162041612Y-116992569D01*
X161750461Y-117283720D01*
X161592892Y-117664126D01*
X160832368Y-117664126D01*
X160720232Y-117551990D01*
X160339826Y-117394421D01*
X159928078Y-117394421D01*
X159547672Y-117551990D01*
X159256521Y-117843141D01*
X159098952Y-118223547D01*
X142132187Y-118223547D01*
X142051743Y-118029338D01*
X141760592Y-117738187D01*
X141380186Y-117580618D01*
X140968438Y-117580618D01*
X140734271Y-117677613D01*
X140734271Y-116534442D01*
X143416125Y-116534442D01*
X143416125Y-116946190D01*
X143573694Y-117326596D01*
X143864845Y-117617747D01*
X144245251Y-117775316D01*
X144656999Y-117775316D01*
X145037405Y-117617747D01*
X145328556Y-117326596D01*
X145486125Y-116946190D01*
X145486125Y-116534442D01*
X145397421Y-116320290D01*
X145416431Y-116301280D01*
X145574000Y-115920874D01*
X145574000Y-115509126D01*
X154426000Y-115509126D01*
X154426000Y-115920874D01*
X154562063Y-116249360D01*
X154442258Y-116538595D01*
X154442258Y-116950343D01*
X154599827Y-117330749D01*
X154890978Y-117621900D01*
X155271384Y-117779469D01*
X155683132Y-117779469D01*
X156063538Y-117621900D01*
X156354689Y-117330749D01*
X156512258Y-116950343D01*
X156512258Y-116538595D01*
X156376195Y-116210109D01*
X156496000Y-115920874D01*
X156496000Y-115509126D01*
X156338431Y-115128720D01*
X156047280Y-114837569D01*
X155666874Y-114680000D01*
X155255126Y-114680000D01*
X154874720Y-114837569D01*
X154583569Y-115128720D01*
X154426000Y-115509126D01*
X145574000Y-115509126D01*
X145416431Y-115128720D01*
X145125280Y-114837569D01*
X144744874Y-114680000D01*
X144333126Y-114680000D01*
X143952720Y-114837569D01*
X143661569Y-115128720D01*
X143504000Y-115509126D01*
X143504000Y-115920874D01*
X143592704Y-116135026D01*
X143573694Y-116154036D01*
X143416125Y-116534442D01*
X140734271Y-116534442D01*
X140734271Y-114658530D01*
X141290914Y-114101888D01*
X141348632Y-114101888D01*
X141464169Y-114380820D01*
X141755320Y-114671971D01*
X142135726Y-114829540D01*
X142547474Y-114829540D01*
X142927880Y-114671971D01*
X143219031Y-114380820D01*
X143362598Y-114034217D01*
X143644160Y-113917591D01*
X143935311Y-113626440D01*
X144080679Y-113275489D01*
X144139853Y-113300000D01*
X144551601Y-113300000D01*
X144932007Y-113142431D01*
X145223158Y-112851280D01*
X145380727Y-112470874D01*
X145380727Y-112059126D01*
X145223158Y-111678720D01*
X144932007Y-111387569D01*
X144551601Y-111230000D01*
X144434688Y-111230000D01*
X144434688Y-111224126D01*
X157855000Y-111224126D01*
X157855000Y-111635874D01*
X158012569Y-112016280D01*
X158303720Y-112307431D01*
X158684126Y-112465000D01*
X159095874Y-112465000D01*
X159125000Y-112452936D01*
X159125000Y-112778874D01*
X159282569Y-113159280D01*
X159573720Y-113450431D01*
X159954126Y-113608000D01*
X160365874Y-113608000D01*
X160746280Y-113450431D01*
X161037431Y-113159280D01*
X161049921Y-113129126D01*
X163443000Y-113129126D01*
X163443000Y-113540874D01*
X163600569Y-113921280D01*
X163891720Y-114212431D01*
X163964627Y-114242630D01*
X163964627Y-114416247D01*
X164122196Y-114796653D01*
X164413347Y-115087804D01*
X164793753Y-115245373D01*
X165205501Y-115245373D01*
X165585907Y-115087804D01*
X165877058Y-114796653D01*
X166034627Y-114416247D01*
X166034627Y-114303336D01*
X166304720Y-114573429D01*
X166685126Y-114730998D01*
X167096874Y-114730998D01*
X167477280Y-114573429D01*
X167768431Y-114282278D01*
X167926000Y-113901872D01*
X167926000Y-113490124D01*
X167768431Y-113109718D01*
X167477280Y-112818567D01*
X167159347Y-112686875D01*
X167159347Y-112625779D01*
X167007530Y-112259260D01*
X167219701Y-112471431D01*
X167600107Y-112629000D01*
X168011855Y-112629000D01*
X168392261Y-112471431D01*
X168623566Y-112240126D01*
X168670990Y-112240126D01*
X168670990Y-112651874D01*
X168828559Y-113032280D01*
X169119710Y-113323431D01*
X169500116Y-113481000D01*
X169517006Y-113481000D01*
X169480858Y-113568268D01*
X169480858Y-113980016D01*
X169638427Y-114360422D01*
X169929578Y-114651573D01*
X170309984Y-114809142D01*
X170721732Y-114809142D01*
X170998014Y-114694703D01*
X171077231Y-114773920D01*
X171457637Y-114931489D01*
X171869385Y-114931489D01*
X172249791Y-114773920D01*
X172540942Y-114482769D01*
X172698511Y-114102363D01*
X172698511Y-113690615D01*
X172540942Y-113310209D01*
X172249791Y-113019058D01*
X172117000Y-112964054D01*
X172117000Y-112621126D01*
X171959431Y-112240720D01*
X171668280Y-111949569D01*
X171287874Y-111792000D01*
X170876126Y-111792000D01*
X170602344Y-111905404D01*
X170583421Y-111859720D01*
X170510591Y-111786890D01*
X177133524Y-111786890D01*
X177303355Y-112196924D01*
X177693642Y-112625183D01*
X178218108Y-112871486D01*
X178448000Y-112750819D01*
X178448000Y-111557000D01*
X177254845Y-111557000D01*
X177133524Y-111786890D01*
X170510591Y-111786890D01*
X170292270Y-111568569D01*
X169911864Y-111411000D01*
X169500116Y-111411000D01*
X169119710Y-111568569D01*
X168828559Y-111859720D01*
X168670990Y-112240126D01*
X168623566Y-112240126D01*
X168683412Y-112180280D01*
X168840981Y-111799874D01*
X168840981Y-111388126D01*
X168683412Y-111007720D01*
X168392261Y-110716569D01*
X168011855Y-110559000D01*
X167600107Y-110559000D01*
X167219701Y-110716569D01*
X166928550Y-111007720D01*
X166770981Y-111388126D01*
X166770981Y-111799874D01*
X166922798Y-112166393D01*
X166710627Y-111954222D01*
X166330221Y-111796653D01*
X165918473Y-111796653D01*
X165538067Y-111954222D01*
X165246916Y-112245373D01*
X165131273Y-112524562D01*
X165064280Y-112457569D01*
X164683874Y-112300000D01*
X164272126Y-112300000D01*
X163891720Y-112457569D01*
X163600569Y-112748720D01*
X163443000Y-113129126D01*
X161049921Y-113129126D01*
X161195000Y-112778874D01*
X161195000Y-112367126D01*
X161037431Y-111986720D01*
X160746280Y-111695569D01*
X160365874Y-111538000D01*
X159954126Y-111538000D01*
X159925000Y-111550064D01*
X159925000Y-111224126D01*
X159767431Y-110843720D01*
X159476280Y-110552569D01*
X159095874Y-110395000D01*
X158684126Y-110395000D01*
X158303720Y-110552569D01*
X158012569Y-110843720D01*
X157855000Y-111224126D01*
X144434688Y-111224126D01*
X144434688Y-110906858D01*
X144277119Y-110526452D01*
X144012610Y-110261943D01*
X144013145Y-110260650D01*
X144013145Y-109848902D01*
X143855576Y-109468496D01*
X143564425Y-109177345D01*
X143184019Y-109019776D01*
X142772271Y-109019776D01*
X142391865Y-109177345D01*
X142100714Y-109468496D01*
X141943145Y-109848902D01*
X141943145Y-110014974D01*
X141375654Y-110582466D01*
X141312195Y-110624868D01*
X141144220Y-110876261D01*
X141100124Y-111097946D01*
X141100124Y-111097950D01*
X141085236Y-111172797D01*
X141100124Y-111247644D01*
X141100125Y-112131878D01*
X140484968Y-112131878D01*
X140410121Y-112116990D01*
X140335274Y-112131878D01*
X140335270Y-112131878D01*
X140113585Y-112175974D01*
X139862193Y-112343949D01*
X139819793Y-112407405D01*
X138815529Y-113411670D01*
X138752070Y-113454072D01*
X138584095Y-113705465D01*
X138539999Y-113927150D01*
X138539999Y-113927154D01*
X138525111Y-114002001D01*
X138539999Y-114076848D01*
X138539999Y-115860393D01*
X134108096Y-111428490D01*
X137104364Y-111428490D01*
X137104364Y-111840238D01*
X137261933Y-112220644D01*
X137553084Y-112511795D01*
X137933490Y-112669364D01*
X138345238Y-112669364D01*
X138725644Y-112511795D01*
X139016795Y-112220644D01*
X139174364Y-111840238D01*
X139174364Y-111672047D01*
X139539195Y-111823165D01*
X139950943Y-111823165D01*
X140331349Y-111665596D01*
X140622500Y-111374445D01*
X140780069Y-110994039D01*
X140780069Y-110582291D01*
X140622500Y-110201885D01*
X140331349Y-109910734D01*
X139950943Y-109753165D01*
X139539195Y-109753165D01*
X139158789Y-109910734D01*
X138867638Y-110201885D01*
X138710069Y-110582291D01*
X138710069Y-110750482D01*
X138345238Y-110599364D01*
X137933490Y-110599364D01*
X137553084Y-110756933D01*
X137261933Y-111048084D01*
X137104364Y-111428490D01*
X134108096Y-111428490D01*
X132589803Y-109910197D01*
X132548601Y-109882667D01*
X132478018Y-109874917D01*
X131188184Y-110101593D01*
X131188184Y-109848370D01*
X131030615Y-109467964D01*
X130983216Y-109420565D01*
X131192431Y-109211350D01*
X131350000Y-108830944D01*
X131350000Y-108419196D01*
X133254564Y-108419196D01*
X133254564Y-108830944D01*
X133412133Y-109211350D01*
X133703284Y-109502501D01*
X134083690Y-109660070D01*
X134495438Y-109660070D01*
X134875844Y-109502501D01*
X134963817Y-109414528D01*
X135189720Y-109640431D01*
X135570126Y-109798000D01*
X135981874Y-109798000D01*
X136362280Y-109640431D01*
X136653431Y-109349280D01*
X136811000Y-108968874D01*
X136811000Y-108557126D01*
X136653431Y-108176720D01*
X136362280Y-107885569D01*
X135981874Y-107728000D01*
X135570126Y-107728000D01*
X135189720Y-107885569D01*
X135101747Y-107973542D01*
X134875844Y-107747639D01*
X134609691Y-107637395D01*
X138064426Y-107637395D01*
X138064426Y-108049143D01*
X138221995Y-108429549D01*
X138513146Y-108720700D01*
X138893552Y-108878269D01*
X139305300Y-108878269D01*
X139570314Y-108768497D01*
X139894392Y-108902734D01*
X140306140Y-108902734D01*
X140686546Y-108745165D01*
X140977697Y-108454014D01*
X141135266Y-108073608D01*
X141135266Y-107661860D01*
X140977697Y-107281454D01*
X140686546Y-106990303D01*
X140306140Y-106832734D01*
X139894392Y-106832734D01*
X139629378Y-106942506D01*
X139305300Y-106808269D01*
X138893552Y-106808269D01*
X138513146Y-106965838D01*
X138221995Y-107256989D01*
X138064426Y-107637395D01*
X134609691Y-107637395D01*
X134495438Y-107590070D01*
X134083690Y-107590070D01*
X133703284Y-107747639D01*
X133412133Y-108038790D01*
X133254564Y-108419196D01*
X131350000Y-108419196D01*
X131192431Y-108038790D01*
X130901280Y-107747639D01*
X130520874Y-107590070D01*
X130109126Y-107590070D01*
X129728720Y-107747639D01*
X129437569Y-108038790D01*
X129312077Y-108341755D01*
X128989418Y-108126161D01*
X128556256Y-108040000D01*
X128263744Y-108040000D01*
X127830582Y-108126161D01*
X127339375Y-108454375D01*
X127324904Y-108476033D01*
X127258327Y-108315302D01*
X127079699Y-108136673D01*
X126846310Y-108040000D01*
X126155750Y-108040000D01*
X125997000Y-108198750D01*
X125997000Y-109398000D01*
X126017000Y-109398000D01*
X126017000Y-109652000D01*
X125997000Y-109652000D01*
X125997000Y-110851250D01*
X126135333Y-110989583D01*
X122922440Y-111554218D01*
X122922440Y-110580000D01*
X122873157Y-110332235D01*
X122732809Y-110122191D01*
X122522765Y-109981843D01*
X122477381Y-109972816D01*
X122495625Y-109960625D01*
X122595768Y-109810750D01*
X124385000Y-109810750D01*
X124385000Y-110501309D01*
X124481673Y-110734698D01*
X124660301Y-110913327D01*
X124893690Y-111010000D01*
X125584250Y-111010000D01*
X125743000Y-110851250D01*
X125743000Y-109652000D01*
X124543750Y-109652000D01*
X124385000Y-109810750D01*
X122595768Y-109810750D01*
X122823839Y-109469418D01*
X122939092Y-108890000D01*
X122871202Y-108548691D01*
X124385000Y-108548691D01*
X124385000Y-109239250D01*
X124543750Y-109398000D01*
X125743000Y-109398000D01*
X125743000Y-108198750D01*
X125584250Y-108040000D01*
X124893690Y-108040000D01*
X124660301Y-108136673D01*
X124481673Y-108315302D01*
X124385000Y-108548691D01*
X122871202Y-108548691D01*
X122823839Y-108310582D01*
X122495625Y-107819375D01*
X122197239Y-107620000D01*
X122495625Y-107420625D01*
X122823839Y-106929418D01*
X122939092Y-106350000D01*
X122823839Y-105770582D01*
X122575561Y-105399007D01*
X132208872Y-105399007D01*
X132208872Y-105810755D01*
X132366441Y-106191161D01*
X132657592Y-106482312D01*
X133037998Y-106639881D01*
X133449746Y-106639881D01*
X133767997Y-106508057D01*
X143086000Y-106508057D01*
X143086000Y-106919805D01*
X143243569Y-107300211D01*
X143534720Y-107591362D01*
X143915126Y-107748931D01*
X144061000Y-107748931D01*
X144061000Y-108077394D01*
X144218569Y-108457800D01*
X144509720Y-108748951D01*
X144890126Y-108906520D01*
X145301874Y-108906520D01*
X145682280Y-108748951D01*
X145973431Y-108457800D01*
X146053285Y-108265015D01*
X146201570Y-108623008D01*
X146492721Y-108914159D01*
X146873127Y-109071728D01*
X147284875Y-109071728D01*
X147665281Y-108914159D01*
X147956432Y-108623008D01*
X148015261Y-108480982D01*
X148015261Y-108640875D01*
X148172830Y-109021281D01*
X148463981Y-109312432D01*
X148844387Y-109470001D01*
X149106000Y-109470001D01*
X149370531Y-109734532D01*
X149564946Y-109815061D01*
X149564946Y-109844631D01*
X149722515Y-110225037D01*
X150013666Y-110516188D01*
X150394072Y-110673757D01*
X150805820Y-110673757D01*
X151186226Y-110516188D01*
X151477377Y-110225037D01*
X151627054Y-109863684D01*
X151721374Y-109902752D01*
X152133122Y-109902752D01*
X152513528Y-109745183D01*
X152804679Y-109454032D01*
X152962248Y-109073626D01*
X152962248Y-108872253D01*
X158078481Y-108872253D01*
X158078481Y-109284001D01*
X158236050Y-109664407D01*
X158527201Y-109955558D01*
X158907607Y-110113127D01*
X159319355Y-110113127D01*
X159699761Y-109955558D01*
X159990912Y-109664407D01*
X160148481Y-109284001D01*
X160148481Y-108872253D01*
X160005887Y-108528000D01*
X160019366Y-108528000D01*
X160399772Y-108370431D01*
X160690923Y-108079280D01*
X160733968Y-107975358D01*
X161128440Y-107975358D01*
X161128440Y-108387106D01*
X161286009Y-108767512D01*
X161577160Y-109058663D01*
X161957566Y-109216232D01*
X162369314Y-109216232D01*
X162517246Y-109154957D01*
X162621720Y-109259431D01*
X163002126Y-109417000D01*
X163413874Y-109417000D01*
X163432883Y-109409126D01*
X164840000Y-109409126D01*
X164840000Y-109820874D01*
X164997569Y-110201280D01*
X165288720Y-110492431D01*
X165669126Y-110650000D01*
X166080874Y-110650000D01*
X166461280Y-110492431D01*
X166752431Y-110201280D01*
X166910000Y-109820874D01*
X166910000Y-109525000D01*
X170075908Y-109525000D01*
X170191161Y-110104418D01*
X170519375Y-110595625D01*
X171010582Y-110923839D01*
X171443744Y-111010000D01*
X171736256Y-111010000D01*
X172169418Y-110923839D01*
X172660625Y-110595625D01*
X172672816Y-110577381D01*
X172681843Y-110622765D01*
X172822191Y-110832809D01*
X173032235Y-110973157D01*
X173280000Y-111022440D01*
X174980000Y-111022440D01*
X175227765Y-110973157D01*
X175437809Y-110832809D01*
X175578157Y-110622765D01*
X175627440Y-110375000D01*
X175627440Y-108675000D01*
X175578157Y-108427235D01*
X175437809Y-108217191D01*
X175227765Y-108076843D01*
X174980000Y-108027560D01*
X173280000Y-108027560D01*
X173032235Y-108076843D01*
X172822191Y-108217191D01*
X172681843Y-108427235D01*
X172672816Y-108472619D01*
X172660625Y-108454375D01*
X172169418Y-108126161D01*
X171736256Y-108040000D01*
X171443744Y-108040000D01*
X171010582Y-108126161D01*
X170519375Y-108454375D01*
X170191161Y-108945582D01*
X170075908Y-109525000D01*
X166910000Y-109525000D01*
X166910000Y-109409126D01*
X166752431Y-109028720D01*
X166461280Y-108737569D01*
X166080874Y-108580000D01*
X165669126Y-108580000D01*
X165288720Y-108737569D01*
X164997569Y-109028720D01*
X164840000Y-109409126D01*
X163432883Y-109409126D01*
X163794280Y-109259431D01*
X164085431Y-108968280D01*
X164243000Y-108587874D01*
X164243000Y-108176126D01*
X164085431Y-107795720D01*
X163794280Y-107504569D01*
X163413874Y-107347000D01*
X163002126Y-107347000D01*
X162854194Y-107408275D01*
X162749720Y-107303801D01*
X162369314Y-107146232D01*
X161957566Y-107146232D01*
X161577160Y-107303801D01*
X161286009Y-107594952D01*
X161128440Y-107975358D01*
X160733968Y-107975358D01*
X160848492Y-107698874D01*
X160848492Y-107287126D01*
X160690923Y-106906720D01*
X160399772Y-106615569D01*
X160019366Y-106458000D01*
X159607618Y-106458000D01*
X159227212Y-106615569D01*
X158936061Y-106906720D01*
X158778492Y-107287126D01*
X158778492Y-107698874D01*
X158921086Y-108043127D01*
X158907607Y-108043127D01*
X158527201Y-108200696D01*
X158236050Y-108491847D01*
X158078481Y-108872253D01*
X152962248Y-108872253D01*
X152962248Y-108661878D01*
X152854785Y-108402439D01*
X153149338Y-108280431D01*
X153440489Y-107989280D01*
X153598058Y-107608874D01*
X153598058Y-107197126D01*
X153440489Y-106816720D01*
X153149338Y-106525569D01*
X152768932Y-106368000D01*
X152357184Y-106368000D01*
X152102018Y-106473693D01*
X152274431Y-106301280D01*
X152432000Y-105920874D01*
X152432000Y-105509126D01*
X152274431Y-105128720D01*
X151983280Y-104837569D01*
X151602874Y-104680000D01*
X151191126Y-104680000D01*
X150810720Y-104837569D01*
X150519569Y-105128720D01*
X150362000Y-105509126D01*
X150362000Y-105920874D01*
X150519569Y-106301280D01*
X150559593Y-106341304D01*
X150410256Y-106341304D01*
X150029850Y-106498873D01*
X149940094Y-106588629D01*
X149861431Y-106398720D01*
X149570280Y-106107569D01*
X149189874Y-105950000D01*
X148778126Y-105950000D01*
X148397720Y-106107569D01*
X148106569Y-106398720D01*
X148063105Y-106503652D01*
X147956432Y-106246120D01*
X147665281Y-105954969D01*
X147284875Y-105797400D01*
X146873127Y-105797400D01*
X146492721Y-105954969D01*
X146201570Y-106246120D01*
X146114737Y-106455754D01*
X146114737Y-106223759D01*
X145957168Y-105843353D01*
X145666017Y-105552202D01*
X145285611Y-105394633D01*
X144873863Y-105394633D01*
X144493457Y-105552202D01*
X144355055Y-105690604D01*
X144326874Y-105678931D01*
X143915126Y-105678931D01*
X143534720Y-105836500D01*
X143243569Y-106127651D01*
X143086000Y-106508057D01*
X133767997Y-106508057D01*
X133830152Y-106482312D01*
X133893396Y-106419068D01*
X134079126Y-106496000D01*
X134490874Y-106496000D01*
X134871280Y-106338431D01*
X135162431Y-106047280D01*
X135320000Y-105666874D01*
X135320000Y-105255126D01*
X135162431Y-104874720D01*
X134871280Y-104583569D01*
X134490874Y-104426000D01*
X134079126Y-104426000D01*
X133698720Y-104583569D01*
X133635476Y-104646813D01*
X133449746Y-104569881D01*
X133037998Y-104569881D01*
X132657592Y-104727450D01*
X132366441Y-105018601D01*
X132208872Y-105399007D01*
X122575561Y-105399007D01*
X122495625Y-105279375D01*
X122197239Y-105080000D01*
X122495625Y-104880625D01*
X122823839Y-104389418D01*
X122939092Y-103810000D01*
X122823839Y-103230582D01*
X122495625Y-102739375D01*
X122197239Y-102540000D01*
X122495625Y-102340625D01*
X122584826Y-102207126D01*
X124040990Y-102207126D01*
X124040990Y-102618874D01*
X124198559Y-102999280D01*
X124489710Y-103290431D01*
X124870116Y-103448000D01*
X125281864Y-103448000D01*
X125524064Y-103347678D01*
X125537568Y-103380280D01*
X125828719Y-103671431D01*
X126209125Y-103829000D01*
X126620873Y-103829000D01*
X127001279Y-103671431D01*
X127292430Y-103380280D01*
X127449999Y-102999874D01*
X127449999Y-102588126D01*
X127292430Y-102207720D01*
X127094710Y-102010000D01*
X127345874Y-102010000D01*
X127726280Y-101852431D01*
X127946177Y-101632534D01*
X127946177Y-101902726D01*
X128036458Y-102120685D01*
X127973052Y-102146949D01*
X127681901Y-102438100D01*
X127524332Y-102818506D01*
X127524332Y-103230254D01*
X127681901Y-103610660D01*
X127973052Y-103901811D01*
X128353458Y-104059380D01*
X128765206Y-104059380D01*
X129145612Y-103901811D01*
X129436763Y-103610660D01*
X129594332Y-103230254D01*
X129594332Y-102818506D01*
X129504051Y-102600547D01*
X129567457Y-102574283D01*
X129858608Y-102283132D01*
X130016177Y-101902726D01*
X130016177Y-101490978D01*
X129858608Y-101110572D01*
X129567457Y-100819421D01*
X129187051Y-100661852D01*
X128775303Y-100661852D01*
X128394897Y-100819421D01*
X128175000Y-101039318D01*
X128175000Y-100769126D01*
X128017431Y-100388720D01*
X127726280Y-100097569D01*
X127345874Y-99940000D01*
X126934126Y-99940000D01*
X126553720Y-100097569D01*
X126262569Y-100388720D01*
X126105000Y-100769126D01*
X126105000Y-101180874D01*
X126262569Y-101561280D01*
X126460289Y-101759000D01*
X126209125Y-101759000D01*
X125966925Y-101859322D01*
X125953421Y-101826720D01*
X125662270Y-101535569D01*
X125281864Y-101378000D01*
X124870116Y-101378000D01*
X124489710Y-101535569D01*
X124198559Y-101826720D01*
X124040990Y-102207126D01*
X122584826Y-102207126D01*
X122823839Y-101849418D01*
X122939092Y-101270000D01*
X122823839Y-100690582D01*
X122495625Y-100199375D01*
X122197239Y-100000000D01*
X122495625Y-99800625D01*
X122823839Y-99309418D01*
X122939092Y-98730000D01*
X122823839Y-98150582D01*
X122495625Y-97659375D01*
X122197239Y-97460000D01*
X122495625Y-97260625D01*
X122823839Y-96769418D01*
X122904257Y-96365126D01*
X125216000Y-96365126D01*
X125216000Y-96776874D01*
X125373569Y-97157280D01*
X125664720Y-97448431D01*
X126045126Y-97606000D01*
X126434289Y-97606000D01*
X126680720Y-97852431D01*
X126867000Y-97929591D01*
X126867000Y-98300874D01*
X127024569Y-98681280D01*
X127315720Y-98972431D01*
X127696126Y-99130000D01*
X128090409Y-99130000D01*
X128167569Y-99316280D01*
X128458720Y-99607431D01*
X128839126Y-99765000D01*
X129250874Y-99765000D01*
X129631280Y-99607431D01*
X129728076Y-99510635D01*
X139673065Y-99510635D01*
X139673065Y-99922383D01*
X139830634Y-100302789D01*
X139908859Y-100381014D01*
X139821000Y-100593125D01*
X139821000Y-101004873D01*
X139978569Y-101385279D01*
X140269720Y-101676430D01*
X140303759Y-101690530D01*
X140105569Y-101888720D01*
X139948000Y-102269126D01*
X139948000Y-102680874D01*
X140105569Y-103061280D01*
X140396720Y-103352431D01*
X140777126Y-103510000D01*
X140861686Y-103510000D01*
X140763756Y-103550564D01*
X140472605Y-103841715D01*
X140315036Y-104222121D01*
X140315036Y-104633869D01*
X140472605Y-105014275D01*
X140763756Y-105305426D01*
X141144162Y-105462995D01*
X141555910Y-105462995D01*
X141936316Y-105305426D01*
X142227467Y-105014275D01*
X142306994Y-104822281D01*
X142511155Y-105026442D01*
X142891561Y-105184011D01*
X143303309Y-105184011D01*
X143683715Y-105026442D01*
X143927827Y-104782330D01*
X144079126Y-104845000D01*
X144490874Y-104845000D01*
X144871280Y-104687431D01*
X145162431Y-104396280D01*
X145320000Y-104015874D01*
X145320000Y-103604126D01*
X145162431Y-103223720D01*
X144907837Y-102969126D01*
X148330000Y-102969126D01*
X148330000Y-103380874D01*
X148487569Y-103761280D01*
X148778720Y-104052431D01*
X148856130Y-104084495D01*
X148856130Y-104396874D01*
X149013699Y-104777280D01*
X149304850Y-105068431D01*
X149685256Y-105226000D01*
X150097004Y-105226000D01*
X150477410Y-105068431D01*
X150768561Y-104777280D01*
X150926130Y-104396874D01*
X150926130Y-103985126D01*
X150878333Y-103869732D01*
X154008000Y-103869732D01*
X154008000Y-104281480D01*
X154129831Y-104575607D01*
X154008000Y-104869735D01*
X154008000Y-105281483D01*
X154165569Y-105661889D01*
X154214600Y-105710920D01*
X154153206Y-105859137D01*
X154153206Y-106270885D01*
X154310775Y-106651291D01*
X154601926Y-106942442D01*
X154982332Y-107100011D01*
X155394080Y-107100011D01*
X155774486Y-106942442D01*
X156065637Y-106651291D01*
X156223206Y-106270885D01*
X156223206Y-105859137D01*
X156196662Y-105795053D01*
X160728833Y-105795053D01*
X160728833Y-106206801D01*
X160886402Y-106587207D01*
X161177553Y-106878358D01*
X161557959Y-107035927D01*
X161969707Y-107035927D01*
X162350113Y-106878358D01*
X162641264Y-106587207D01*
X162798833Y-106206801D01*
X162798833Y-105795053D01*
X162653194Y-105443448D01*
X164958871Y-105443448D01*
X164958871Y-105855196D01*
X165116440Y-106235602D01*
X165407591Y-106526753D01*
X165787997Y-106684322D01*
X166199745Y-106684322D01*
X166367853Y-106614689D01*
X166400318Y-106647154D01*
X166780724Y-106804723D01*
X167192472Y-106804723D01*
X167572878Y-106647154D01*
X167864029Y-106356003D01*
X168021598Y-105975597D01*
X168021598Y-105563849D01*
X167864029Y-105183443D01*
X167572878Y-104892292D01*
X167192472Y-104734723D01*
X166780724Y-104734723D01*
X166612616Y-104804356D01*
X166580151Y-104771891D01*
X166199745Y-104614322D01*
X165787997Y-104614322D01*
X165407591Y-104771891D01*
X165116440Y-105063042D01*
X164958871Y-105443448D01*
X162653194Y-105443448D01*
X162641264Y-105414647D01*
X162350113Y-105123496D01*
X161969707Y-104965927D01*
X161557959Y-104965927D01*
X161177553Y-105123496D01*
X160886402Y-105414647D01*
X160728833Y-105795053D01*
X156196662Y-105795053D01*
X156065637Y-105478731D01*
X156016606Y-105429700D01*
X156021024Y-105419037D01*
X156034569Y-105432582D01*
X156414975Y-105590151D01*
X156826723Y-105590151D01*
X157207129Y-105432582D01*
X157429500Y-105210211D01*
X157530784Y-105311495D01*
X157911190Y-105469064D01*
X158322938Y-105469064D01*
X158703344Y-105311495D01*
X158994495Y-105020344D01*
X159152064Y-104639938D01*
X159152064Y-104228190D01*
X158994495Y-103847784D01*
X158763717Y-103617006D01*
X158836442Y-103544280D01*
X158994011Y-103163874D01*
X158994011Y-102997403D01*
X159217627Y-102904778D01*
X159508778Y-102613627D01*
X159666347Y-102233221D01*
X159666347Y-101821473D01*
X159508778Y-101441067D01*
X159217627Y-101149916D01*
X159010512Y-101064126D01*
X169920000Y-101064126D01*
X169920000Y-101475874D01*
X170077569Y-101856280D01*
X170368720Y-102147431D01*
X170749126Y-102305000D01*
X171160874Y-102305000D01*
X171340773Y-102230484D01*
X171483641Y-102373352D01*
X171412055Y-102546175D01*
X171412055Y-102957923D01*
X171569624Y-103338329D01*
X171860775Y-103629480D01*
X172140416Y-103745311D01*
X172268217Y-104053850D01*
X172559368Y-104345001D01*
X172939774Y-104502570D01*
X173351522Y-104502570D01*
X173731928Y-104345001D01*
X174023079Y-104053850D01*
X174180648Y-103673444D01*
X174180648Y-103261696D01*
X174023079Y-102881290D01*
X173731928Y-102590139D01*
X173452287Y-102474308D01*
X173324486Y-102165769D01*
X173061414Y-101902697D01*
X173133000Y-101729874D01*
X173133000Y-101318126D01*
X172975431Y-100937720D01*
X172684280Y-100646569D01*
X172303874Y-100489000D01*
X171892126Y-100489000D01*
X171712227Y-100563516D01*
X171541280Y-100392569D01*
X171160874Y-100235000D01*
X170749126Y-100235000D01*
X170368720Y-100392569D01*
X170077569Y-100683720D01*
X169920000Y-101064126D01*
X159010512Y-101064126D01*
X158837221Y-100992347D01*
X158425473Y-100992347D01*
X158045067Y-101149916D01*
X157909709Y-101285274D01*
X157971535Y-101136012D01*
X157971535Y-100724264D01*
X157966870Y-100713001D01*
X158140412Y-100539459D01*
X158297981Y-100159053D01*
X158297981Y-99747305D01*
X158140412Y-99366899D01*
X157849261Y-99075748D01*
X157468855Y-98918179D01*
X157057107Y-98918179D01*
X156676701Y-99075748D01*
X156385550Y-99366899D01*
X156227981Y-99747305D01*
X156227981Y-100159053D01*
X156232646Y-100170316D01*
X156059104Y-100343858D01*
X155901535Y-100724264D01*
X155901535Y-100861308D01*
X155806750Y-100900569D01*
X155515599Y-101191720D01*
X155358030Y-101572126D01*
X155358030Y-101983874D01*
X155515599Y-102364280D01*
X155806750Y-102655431D01*
X156187156Y-102813000D01*
X156598904Y-102813000D01*
X156960906Y-102663054D01*
X156924011Y-102752126D01*
X156924011Y-103163874D01*
X157081580Y-103544280D01*
X157312359Y-103775059D01*
X157308413Y-103779004D01*
X157207129Y-103677720D01*
X156826723Y-103520151D01*
X156414975Y-103520151D01*
X156034569Y-103677720D01*
X156009040Y-103703249D01*
X155920431Y-103489326D01*
X155629280Y-103198175D01*
X155248874Y-103040606D01*
X154837126Y-103040606D01*
X154456720Y-103198175D01*
X154165569Y-103489326D01*
X154008000Y-103869732D01*
X150878333Y-103869732D01*
X150768561Y-103604720D01*
X150477410Y-103313569D01*
X150400000Y-103281505D01*
X150400000Y-102969126D01*
X150242431Y-102588720D01*
X150061919Y-102408208D01*
X150078280Y-102401431D01*
X150369431Y-102110280D01*
X150527000Y-101729874D01*
X150527000Y-101318126D01*
X150369431Y-100937720D01*
X150078280Y-100646569D01*
X149697874Y-100489000D01*
X149286126Y-100489000D01*
X148905720Y-100646569D01*
X148614569Y-100937720D01*
X148457000Y-101318126D01*
X148457000Y-101729874D01*
X148614569Y-102110280D01*
X148795081Y-102290792D01*
X148778720Y-102297569D01*
X148487569Y-102588720D01*
X148330000Y-102969126D01*
X144907837Y-102969126D01*
X144871280Y-102932569D01*
X144490874Y-102775000D01*
X144079126Y-102775000D01*
X143698720Y-102932569D01*
X143454608Y-103176681D01*
X143303309Y-103114011D01*
X142891561Y-103114011D01*
X142511155Y-103271580D01*
X142220004Y-103562731D01*
X142140477Y-103754725D01*
X141936316Y-103550564D01*
X141555910Y-103392995D01*
X141471350Y-103392995D01*
X141569280Y-103352431D01*
X141757626Y-103164085D01*
X142047126Y-103284000D01*
X142458874Y-103284000D01*
X142839280Y-103126431D01*
X143130431Y-102835280D01*
X143288000Y-102454874D01*
X143288000Y-102043126D01*
X143130431Y-101662720D01*
X142839280Y-101371569D01*
X142770490Y-101343075D01*
X142786431Y-101327134D01*
X142944000Y-100946728D01*
X142944000Y-100918943D01*
X143171792Y-100824589D01*
X143462943Y-100533438D01*
X143620512Y-100153032D01*
X143620512Y-99741284D01*
X143590274Y-99668284D01*
X143697278Y-99561280D01*
X143811250Y-99286126D01*
X144901000Y-99286126D01*
X144901000Y-99697874D01*
X145058569Y-100078280D01*
X145349720Y-100369431D01*
X145730126Y-100527000D01*
X146141874Y-100527000D01*
X146229415Y-100490739D01*
X146229415Y-100521995D01*
X146386984Y-100902401D01*
X146678135Y-101193552D01*
X147058541Y-101351121D01*
X147470289Y-101351121D01*
X147850695Y-101193552D01*
X148141846Y-100902401D01*
X148299415Y-100521995D01*
X148299415Y-100110247D01*
X148141846Y-99729841D01*
X147850695Y-99438690D01*
X147470289Y-99281121D01*
X147058541Y-99281121D01*
X146971000Y-99317382D01*
X146971000Y-99286126D01*
X146918395Y-99159126D01*
X151505000Y-99159126D01*
X151505000Y-99570874D01*
X151626831Y-99865002D01*
X151505000Y-100159129D01*
X151505000Y-100570877D01*
X151662569Y-100951283D01*
X151953720Y-101242434D01*
X152334126Y-101400003D01*
X152745874Y-101400003D01*
X153126280Y-101242434D01*
X153417431Y-100951283D01*
X153575000Y-100570877D01*
X153575000Y-100159129D01*
X153453169Y-99865002D01*
X153575000Y-99570874D01*
X153575000Y-99159126D01*
X153417431Y-98778720D01*
X153126280Y-98487569D01*
X152745874Y-98330000D01*
X152334126Y-98330000D01*
X151953720Y-98487569D01*
X151662569Y-98778720D01*
X151505000Y-99159126D01*
X146918395Y-99159126D01*
X146813431Y-98905720D01*
X146522280Y-98614569D01*
X146141874Y-98457000D01*
X145730126Y-98457000D01*
X145349720Y-98614569D01*
X145058569Y-98905720D01*
X144901000Y-99286126D01*
X143811250Y-99286126D01*
X143854847Y-99180874D01*
X143854847Y-98769126D01*
X143697278Y-98388720D01*
X143515989Y-98207431D01*
X169916758Y-98207431D01*
X169916758Y-98619179D01*
X170074327Y-98999585D01*
X170365478Y-99290736D01*
X170745884Y-99448305D01*
X171157632Y-99448305D01*
X171538038Y-99290736D01*
X171829189Y-98999585D01*
X171840289Y-98972786D01*
X171982569Y-99316280D01*
X172273720Y-99607431D01*
X172654126Y-99765000D01*
X173065874Y-99765000D01*
X173446280Y-99607431D01*
X173737431Y-99316280D01*
X173895000Y-98935874D01*
X173895000Y-98524126D01*
X173737431Y-98143720D01*
X173446280Y-97852569D01*
X173065874Y-97695000D01*
X172654126Y-97695000D01*
X172273720Y-97852569D01*
X171982569Y-98143720D01*
X171971469Y-98170519D01*
X171870031Y-97925626D01*
X171996944Y-97619229D01*
X171996944Y-97207481D01*
X171839375Y-96827075D01*
X171548224Y-96535924D01*
X171167818Y-96378355D01*
X170756070Y-96378355D01*
X170375664Y-96535924D01*
X170084513Y-96827075D01*
X169926944Y-97207481D01*
X169926944Y-97619229D01*
X170043671Y-97901034D01*
X169916758Y-98207431D01*
X143515989Y-98207431D01*
X143406127Y-98097569D01*
X143025721Y-97940000D01*
X142613973Y-97940000D01*
X142233567Y-98097569D01*
X141942416Y-98388720D01*
X141784847Y-98769126D01*
X141784847Y-99180874D01*
X141815085Y-99253874D01*
X141708081Y-99360878D01*
X141694557Y-99393527D01*
X141585496Y-99130229D01*
X141294345Y-98839078D01*
X140913939Y-98681509D01*
X140502191Y-98681509D01*
X140121785Y-98839078D01*
X139830634Y-99130229D01*
X139673065Y-99510635D01*
X129728076Y-99510635D01*
X129922431Y-99316280D01*
X130080000Y-98935874D01*
X130080000Y-98524126D01*
X129922431Y-98143720D01*
X129631280Y-97852569D01*
X129250874Y-97695000D01*
X128856591Y-97695000D01*
X128779431Y-97508720D01*
X128488280Y-97217569D01*
X128302000Y-97140409D01*
X128302000Y-96769126D01*
X128144431Y-96388720D01*
X127853280Y-96097569D01*
X127472874Y-95940000D01*
X127083711Y-95940000D01*
X126900042Y-95756331D01*
X139833430Y-95756331D01*
X139833430Y-96168079D01*
X139990999Y-96548485D01*
X140282150Y-96839636D01*
X140662556Y-96997205D01*
X141074304Y-96997205D01*
X141454710Y-96839636D01*
X141745861Y-96548485D01*
X141860191Y-96272467D01*
X142172314Y-96143182D01*
X142463465Y-95852031D01*
X142587397Y-95552832D01*
X144436669Y-95552832D01*
X144436669Y-95964580D01*
X144594238Y-96344986D01*
X144885389Y-96636137D01*
X145265795Y-96793706D01*
X145677543Y-96793706D01*
X146057949Y-96636137D01*
X146349100Y-96344986D01*
X146445967Y-96111126D01*
X148457000Y-96111126D01*
X148457000Y-96522874D01*
X148614569Y-96903280D01*
X148905720Y-97194431D01*
X149286126Y-97352000D01*
X149697874Y-97352000D01*
X150078280Y-97194431D01*
X150369431Y-96903280D01*
X150527000Y-96522874D01*
X150527000Y-96402126D01*
X153664000Y-96402126D01*
X153664000Y-96813874D01*
X153821569Y-97194280D01*
X154112720Y-97485431D01*
X154493126Y-97643000D01*
X154904874Y-97643000D01*
X155285280Y-97485431D01*
X155576431Y-97194280D01*
X155631531Y-97061256D01*
X155718249Y-97061256D01*
X156098655Y-96903687D01*
X156321224Y-96681118D01*
X156643180Y-96681118D01*
X157023586Y-96523549D01*
X157314737Y-96232398D01*
X157397025Y-96033736D01*
X157414720Y-96051431D01*
X157795126Y-96209000D01*
X158206874Y-96209000D01*
X158587280Y-96051431D01*
X158878431Y-95760280D01*
X159036000Y-95379874D01*
X159036000Y-94968126D01*
X158878431Y-94587720D01*
X158587280Y-94296569D01*
X158517767Y-94267776D01*
X158517767Y-94079126D01*
X158360198Y-93698720D01*
X158069047Y-93407569D01*
X157688641Y-93250000D01*
X157276893Y-93250000D01*
X156896487Y-93407569D01*
X156605336Y-93698720D01*
X156447767Y-94079126D01*
X156447767Y-94490874D01*
X156497574Y-94611118D01*
X156231432Y-94611118D01*
X155851026Y-94768687D01*
X155628457Y-94991256D01*
X155306501Y-94991256D01*
X154926095Y-95148825D01*
X154634944Y-95439976D01*
X154579844Y-95573000D01*
X154493126Y-95573000D01*
X154112720Y-95730569D01*
X153821569Y-96021720D01*
X153664000Y-96402126D01*
X150527000Y-96402126D01*
X150527000Y-96111126D01*
X150369431Y-95730720D01*
X150078280Y-95439569D01*
X149697874Y-95282000D01*
X149286126Y-95282000D01*
X148905720Y-95439569D01*
X148614569Y-95730720D01*
X148457000Y-96111126D01*
X146445967Y-96111126D01*
X146462905Y-96070236D01*
X146776280Y-95940432D01*
X147067431Y-95649281D01*
X147225000Y-95268875D01*
X147225000Y-94857127D01*
X147067431Y-94476721D01*
X146776280Y-94185570D01*
X146395874Y-94028001D01*
X145984126Y-94028001D01*
X145603720Y-94185570D01*
X145312569Y-94476721D01*
X145198764Y-94751471D01*
X144885389Y-94881275D01*
X144594238Y-95172426D01*
X144436669Y-95552832D01*
X142587397Y-95552832D01*
X142621034Y-95471625D01*
X142621034Y-95059877D01*
X142463465Y-94679471D01*
X142172314Y-94388320D01*
X141791908Y-94230751D01*
X141380160Y-94230751D01*
X140999754Y-94388320D01*
X140708603Y-94679471D01*
X140594273Y-94955489D01*
X140282150Y-95084774D01*
X139990999Y-95375925D01*
X139833430Y-95756331D01*
X126900042Y-95756331D01*
X126837280Y-95693569D01*
X126456874Y-95536000D01*
X126045126Y-95536000D01*
X125664720Y-95693569D01*
X125373569Y-95984720D01*
X125216000Y-96365126D01*
X122904257Y-96365126D01*
X122939092Y-96190000D01*
X122823839Y-95610582D01*
X122495625Y-95119375D01*
X122197239Y-94920000D01*
X122495625Y-94720625D01*
X122823839Y-94229418D01*
X122832022Y-94188277D01*
X132105429Y-94188277D01*
X132105429Y-94600025D01*
X132262998Y-94980431D01*
X132554149Y-95271582D01*
X132934555Y-95429151D01*
X133346303Y-95429151D01*
X133604494Y-95322205D01*
X133698720Y-95416431D01*
X134079126Y-95574000D01*
X134490874Y-95574000D01*
X134871280Y-95416431D01*
X135162431Y-95125280D01*
X135320000Y-94744874D01*
X135320000Y-94333126D01*
X135162431Y-93952720D01*
X135078827Y-93869116D01*
X137432564Y-93869116D01*
X137432564Y-94280864D01*
X137590133Y-94661270D01*
X137881284Y-94952421D01*
X138261690Y-95109990D01*
X138673438Y-95109990D01*
X139053844Y-94952421D01*
X139344995Y-94661270D01*
X139502564Y-94280864D01*
X139502564Y-93869116D01*
X139344995Y-93488710D01*
X139053844Y-93197559D01*
X138673438Y-93039990D01*
X138261690Y-93039990D01*
X137881284Y-93197559D01*
X137590133Y-93488710D01*
X137432564Y-93869116D01*
X135078827Y-93869116D01*
X134871280Y-93661569D01*
X134490874Y-93504000D01*
X134079126Y-93504000D01*
X133820935Y-93610946D01*
X133726709Y-93516720D01*
X133346303Y-93359151D01*
X132934555Y-93359151D01*
X132554149Y-93516720D01*
X132262998Y-93807871D01*
X132105429Y-94188277D01*
X122832022Y-94188277D01*
X122939092Y-93650000D01*
X122823839Y-93070582D01*
X122495625Y-92579375D01*
X122323721Y-92464512D01*
X143723181Y-92464512D01*
X143723181Y-92876260D01*
X143880750Y-93256666D01*
X144171901Y-93547817D01*
X144552307Y-93705386D01*
X144964055Y-93705386D01*
X145344461Y-93547817D01*
X145384695Y-93507583D01*
X145543559Y-93573386D01*
X145955307Y-93573386D01*
X146242649Y-93454365D01*
X146543544Y-93579000D01*
X146955292Y-93579000D01*
X147238979Y-93461493D01*
X148220368Y-93461493D01*
X148220368Y-93873241D01*
X148377937Y-94253647D01*
X148669088Y-94544798D01*
X149049494Y-94702367D01*
X149461242Y-94702367D01*
X149841648Y-94544798D01*
X150132799Y-94253647D01*
X150225883Y-94028923D01*
X150497562Y-94141456D01*
X150812290Y-94141456D01*
X151039970Y-94369136D01*
X151420376Y-94526705D01*
X151832124Y-94526705D01*
X152212530Y-94369136D01*
X152503681Y-94077985D01*
X152598851Y-93848224D01*
X152870612Y-93960791D01*
X153278236Y-93960791D01*
X153278236Y-93993223D01*
X153435805Y-94373629D01*
X153726956Y-94664780D01*
X154107362Y-94822349D01*
X154519110Y-94822349D01*
X154899516Y-94664780D01*
X155190667Y-94373629D01*
X155348236Y-93993223D01*
X155348236Y-93725846D01*
X155608828Y-93465254D01*
X155766397Y-93084848D01*
X155766397Y-92809126D01*
X159506000Y-92809126D01*
X159506000Y-93220874D01*
X159663569Y-93601280D01*
X159954720Y-93892431D01*
X160335126Y-94050000D01*
X160746874Y-94050000D01*
X161127280Y-93892431D01*
X161418431Y-93601280D01*
X161448113Y-93529621D01*
X161448113Y-93780822D01*
X161605682Y-94161228D01*
X161896833Y-94452379D01*
X162277239Y-94609948D01*
X162688987Y-94609948D01*
X163069393Y-94452379D01*
X163212187Y-94309585D01*
X164697712Y-94309585D01*
X164697712Y-94721333D01*
X164855281Y-95101739D01*
X165146432Y-95392890D01*
X165526838Y-95550459D01*
X165938586Y-95550459D01*
X166318992Y-95392890D01*
X166368677Y-95343205D01*
X166530941Y-95410417D01*
X166942689Y-95410417D01*
X167323095Y-95252848D01*
X167614246Y-94961697D01*
X167771815Y-94581291D01*
X167771815Y-94169543D01*
X167614246Y-93789137D01*
X167323095Y-93497986D01*
X166942689Y-93340417D01*
X166530941Y-93340417D01*
X166150535Y-93497986D01*
X166100850Y-93547671D01*
X165938586Y-93480459D01*
X165526838Y-93480459D01*
X165146432Y-93638028D01*
X164855281Y-93929179D01*
X164697712Y-94309585D01*
X163212187Y-94309585D01*
X163360544Y-94161228D01*
X163518113Y-93780822D01*
X163518113Y-93369074D01*
X163360544Y-92988668D01*
X163069393Y-92697517D01*
X162688987Y-92539948D01*
X162277239Y-92539948D01*
X161896833Y-92697517D01*
X161605682Y-92988668D01*
X161576000Y-93060327D01*
X161576000Y-92809126D01*
X161418431Y-92428720D01*
X161127280Y-92137569D01*
X160746874Y-91980000D01*
X160335126Y-91980000D01*
X159954720Y-92137569D01*
X159663569Y-92428720D01*
X159506000Y-92809126D01*
X155766397Y-92809126D01*
X155766397Y-92673100D01*
X155608828Y-92292694D01*
X155317677Y-92001543D01*
X155301178Y-91994709D01*
X155301178Y-91758528D01*
X155143609Y-91378122D01*
X154852458Y-91086971D01*
X154472052Y-90929402D01*
X154126029Y-90929402D01*
X154126029Y-90835369D01*
X153968460Y-90454963D01*
X153677309Y-90163812D01*
X153296903Y-90006243D01*
X152885155Y-90006243D01*
X152504749Y-90163812D01*
X152213598Y-90454963D01*
X152056029Y-90835369D01*
X152056029Y-91247117D01*
X152213598Y-91627523D01*
X152504749Y-91918674D01*
X152654023Y-91980505D01*
X152490206Y-92048360D01*
X152199055Y-92339511D01*
X152103885Y-92569272D01*
X151832124Y-92456705D01*
X151517396Y-92456705D01*
X151289716Y-92229025D01*
X150909310Y-92071456D01*
X150497562Y-92071456D01*
X150117156Y-92229025D01*
X149826005Y-92520176D01*
X149732921Y-92744900D01*
X149461242Y-92632367D01*
X149049494Y-92632367D01*
X148669088Y-92789936D01*
X148377937Y-93081087D01*
X148220368Y-93461493D01*
X147238979Y-93461493D01*
X147335698Y-93421431D01*
X147626849Y-93130280D01*
X147683617Y-92993229D01*
X147825675Y-92993229D01*
X148206081Y-92835660D01*
X148497232Y-92544509D01*
X148654801Y-92164103D01*
X148654801Y-91891553D01*
X148879768Y-92116520D01*
X149260174Y-92274089D01*
X149671922Y-92274089D01*
X150052328Y-92116520D01*
X150343479Y-91825369D01*
X150424771Y-91629112D01*
X150436127Y-91629112D01*
X150816533Y-91471543D01*
X151107684Y-91180392D01*
X151265253Y-90799986D01*
X151265253Y-90388238D01*
X151107684Y-90007832D01*
X150816533Y-89716681D01*
X150436127Y-89559112D01*
X150024379Y-89559112D01*
X149643973Y-89716681D01*
X149352822Y-90007832D01*
X149271530Y-90204089D01*
X149260174Y-90204089D01*
X148879768Y-90361658D01*
X148755416Y-90486010D01*
X148718431Y-90396720D01*
X148427280Y-90105569D01*
X148046874Y-89948000D01*
X147635126Y-89948000D01*
X147254720Y-90105569D01*
X146963569Y-90396720D01*
X146806000Y-90777126D01*
X146806000Y-91188874D01*
X146840985Y-91273334D01*
X146742370Y-91371949D01*
X146685602Y-91509000D01*
X146543544Y-91509000D01*
X146256202Y-91628021D01*
X146200225Y-91604834D01*
X146200225Y-91520906D01*
X146042656Y-91140500D01*
X145751505Y-90849349D01*
X145371099Y-90691780D01*
X144959351Y-90691780D01*
X144578945Y-90849349D01*
X144287794Y-91140500D01*
X144130225Y-91520906D01*
X144130225Y-91834631D01*
X143880750Y-92084106D01*
X143723181Y-92464512D01*
X122323721Y-92464512D01*
X122197239Y-92380000D01*
X122495625Y-92180625D01*
X122823839Y-91689418D01*
X122939092Y-91110000D01*
X122823839Y-90530582D01*
X122495625Y-90039375D01*
X122176522Y-89826157D01*
X122306358Y-89765183D01*
X122696645Y-89336924D01*
X122866476Y-88926890D01*
X122745155Y-88697000D01*
X121552000Y-88697000D01*
X121552000Y-88717000D01*
X121298000Y-88717000D01*
X121298000Y-88697000D01*
X121278000Y-88697000D01*
X121278000Y-88443000D01*
X121298000Y-88443000D01*
X121298000Y-88423000D01*
X121552000Y-88423000D01*
X121552000Y-88443000D01*
X122745155Y-88443000D01*
X122750842Y-88432223D01*
X124611249Y-88755997D01*
X124214124Y-88755997D01*
X123833718Y-88913566D01*
X123542567Y-89204717D01*
X123384998Y-89585123D01*
X123384998Y-89996871D01*
X123542567Y-90377277D01*
X123833718Y-90668428D01*
X124214124Y-90825997D01*
X124372560Y-90825997D01*
X124372560Y-91325000D01*
X124421843Y-91572765D01*
X124562191Y-91782809D01*
X124772235Y-91923157D01*
X125020000Y-91972440D01*
X126720000Y-91972440D01*
X126967765Y-91923157D01*
X127177809Y-91782809D01*
X127318157Y-91572765D01*
X127327184Y-91527381D01*
X127339375Y-91545625D01*
X127830582Y-91873839D01*
X128263744Y-91960000D01*
X128556256Y-91960000D01*
X128989418Y-91873839D01*
X129480625Y-91545625D01*
X129808839Y-91054418D01*
X129813472Y-91031126D01*
X130169000Y-91031126D01*
X130169000Y-91442874D01*
X130326569Y-91823280D01*
X130617720Y-92114431D01*
X130998126Y-92272000D01*
X131409874Y-92272000D01*
X131790280Y-92114431D01*
X132081431Y-91823280D01*
X132239000Y-91442874D01*
X132239000Y-91126347D01*
X134763473Y-91126347D01*
X134763473Y-91538095D01*
X134921042Y-91918501D01*
X135212193Y-92209652D01*
X135592599Y-92367221D01*
X136004347Y-92367221D01*
X136384753Y-92209652D01*
X136675904Y-91918501D01*
X136833473Y-91538095D01*
X136833473Y-91126347D01*
X136675904Y-90745941D01*
X136384753Y-90454790D01*
X136004347Y-90297221D01*
X135592599Y-90297221D01*
X135212193Y-90454790D01*
X134921042Y-90745941D01*
X134763473Y-91126347D01*
X132239000Y-91126347D01*
X132239000Y-91031126D01*
X132081431Y-90650720D01*
X131790280Y-90359569D01*
X131409874Y-90202000D01*
X130998126Y-90202000D01*
X130617720Y-90359569D01*
X130326569Y-90650720D01*
X130169000Y-91031126D01*
X129813472Y-91031126D01*
X129924092Y-90475000D01*
X129808839Y-89895582D01*
X129631134Y-89629628D01*
X132478225Y-90125119D01*
X132527764Y-90123928D01*
X132589803Y-90089803D01*
X132645481Y-90034125D01*
X141109999Y-90034125D01*
X141109999Y-90445873D01*
X141267568Y-90826279D01*
X141558719Y-91117430D01*
X141939125Y-91274999D01*
X142350873Y-91274999D01*
X142731279Y-91117430D01*
X143022430Y-90826279D01*
X143179999Y-90445873D01*
X143179999Y-90034125D01*
X143022430Y-89653719D01*
X142731279Y-89362568D01*
X142651026Y-89329326D01*
X156204000Y-89329326D01*
X156204000Y-89741074D01*
X156361569Y-90121480D01*
X156652720Y-90412631D01*
X157033126Y-90570200D01*
X157444874Y-90570200D01*
X157825280Y-90412631D01*
X158116431Y-90121480D01*
X158274000Y-89741074D01*
X158274000Y-89406511D01*
X158635286Y-89556160D01*
X159047034Y-89556160D01*
X159207771Y-89489581D01*
X159179210Y-89558534D01*
X159179210Y-89970282D01*
X159336779Y-90350688D01*
X159627930Y-90641839D01*
X160008336Y-90799408D01*
X160420084Y-90799408D01*
X160800490Y-90641839D01*
X161091641Y-90350688D01*
X161249210Y-89970282D01*
X161249210Y-89924653D01*
X162009473Y-89924653D01*
X162009473Y-90336401D01*
X162167042Y-90716807D01*
X162458193Y-91007958D01*
X162838599Y-91165527D01*
X163250347Y-91165527D01*
X163630753Y-91007958D01*
X163919663Y-90719048D01*
X164541583Y-90719048D01*
X164541583Y-91130796D01*
X164699152Y-91511202D01*
X164990303Y-91802353D01*
X165370709Y-91959922D01*
X165782457Y-91959922D01*
X165983133Y-91876800D01*
X166013569Y-91950280D01*
X166304720Y-92241431D01*
X166685126Y-92399000D01*
X167096874Y-92399000D01*
X167477280Y-92241431D01*
X167768431Y-91950280D01*
X167926000Y-91569874D01*
X167926000Y-91158126D01*
X167768431Y-90777720D01*
X167477280Y-90486569D01*
X167096874Y-90329000D01*
X166685126Y-90329000D01*
X166484450Y-90412122D01*
X166454014Y-90338642D01*
X166162863Y-90047491D01*
X165782457Y-89889922D01*
X165370709Y-89889922D01*
X164990303Y-90047491D01*
X164699152Y-90338642D01*
X164541583Y-90719048D01*
X163919663Y-90719048D01*
X163921904Y-90716807D01*
X164079473Y-90336401D01*
X164079473Y-89924653D01*
X163921904Y-89544247D01*
X163630753Y-89253096D01*
X163250347Y-89095527D01*
X162838599Y-89095527D01*
X162458193Y-89253096D01*
X162167042Y-89544247D01*
X162009473Y-89924653D01*
X161249210Y-89924653D01*
X161249210Y-89558534D01*
X161091641Y-89178128D01*
X160800490Y-88886977D01*
X160420084Y-88729408D01*
X160008336Y-88729408D01*
X159847599Y-88795987D01*
X159876160Y-88727034D01*
X159876160Y-88315286D01*
X159718591Y-87934880D01*
X159427440Y-87643729D01*
X159047034Y-87486160D01*
X158635286Y-87486160D01*
X158254880Y-87643729D01*
X157963729Y-87934880D01*
X157806160Y-88315286D01*
X157806160Y-88649849D01*
X157444874Y-88500200D01*
X157033126Y-88500200D01*
X156652720Y-88657769D01*
X156361569Y-88948920D01*
X156204000Y-89329326D01*
X142651026Y-89329326D01*
X142350873Y-89204999D01*
X141939125Y-89204999D01*
X141558719Y-89362568D01*
X141267568Y-89653719D01*
X141109999Y-90034125D01*
X132645481Y-90034125D01*
X135150480Y-87529126D01*
X154426000Y-87529126D01*
X154426000Y-87940874D01*
X154583569Y-88321280D01*
X154874720Y-88612431D01*
X155255126Y-88770000D01*
X155666874Y-88770000D01*
X156047280Y-88612431D01*
X156338431Y-88321280D01*
X156496000Y-87940874D01*
X156496000Y-87529126D01*
X156338431Y-87148720D01*
X156047280Y-86857569D01*
X155666874Y-86700000D01*
X155255126Y-86700000D01*
X154874720Y-86857569D01*
X154583569Y-87148720D01*
X154426000Y-87529126D01*
X135150480Y-87529126D01*
X136927588Y-85752018D01*
X140147108Y-85752018D01*
X140147108Y-86163766D01*
X140304677Y-86544172D01*
X140595828Y-86835323D01*
X140976234Y-86992892D01*
X141387982Y-86992892D01*
X141768388Y-86835323D01*
X142059539Y-86544172D01*
X142217108Y-86163766D01*
X142217108Y-85752018D01*
X142059539Y-85371612D01*
X141768388Y-85080461D01*
X141387982Y-84922892D01*
X140976234Y-84922892D01*
X140595828Y-85080461D01*
X140304677Y-85371612D01*
X140147108Y-85752018D01*
X136927588Y-85752018D01*
X138618195Y-84061411D01*
X143480465Y-84061411D01*
X143480465Y-84473159D01*
X143638034Y-84853565D01*
X143929185Y-85144716D01*
X144309591Y-85302285D01*
X144721339Y-85302285D01*
X145101745Y-85144716D01*
X145392896Y-84853565D01*
X145550465Y-84473159D01*
X145550465Y-84061411D01*
X145432338Y-83776227D01*
X145563898Y-83458612D01*
X145563898Y-83046864D01*
X145560309Y-83038199D01*
X154550977Y-83038199D01*
X154550977Y-83449947D01*
X154681283Y-83764533D01*
X154567986Y-84038056D01*
X154567986Y-84449804D01*
X154725555Y-84830210D01*
X155016706Y-85121361D01*
X155397112Y-85278930D01*
X155808860Y-85278930D01*
X156189266Y-85121361D01*
X156480417Y-84830210D01*
X156637986Y-84449804D01*
X156637986Y-84038056D01*
X156507680Y-83723470D01*
X156620977Y-83449947D01*
X156620977Y-83038199D01*
X156463408Y-82657793D01*
X156172257Y-82366642D01*
X155791851Y-82209073D01*
X155380103Y-82209073D01*
X154999697Y-82366642D01*
X154708546Y-82657793D01*
X154550977Y-83038199D01*
X145560309Y-83038199D01*
X145406329Y-82666458D01*
X145115178Y-82375307D01*
X144734772Y-82217738D01*
X144323024Y-82217738D01*
X143942618Y-82375307D01*
X143651467Y-82666458D01*
X143493898Y-83046864D01*
X143493898Y-83458612D01*
X143612025Y-83743796D01*
X143480465Y-84061411D01*
X138618195Y-84061411D01*
X140071948Y-82607659D01*
X140358320Y-82894031D01*
X140738726Y-83051600D01*
X141150474Y-83051600D01*
X141530880Y-82894031D01*
X141822031Y-82602880D01*
X141979600Y-82222474D01*
X141979600Y-81810726D01*
X141822031Y-81430320D01*
X141530880Y-81139169D01*
X141150474Y-80981600D01*
X140738726Y-80981600D01*
X140358320Y-81139169D01*
X140067169Y-81430320D01*
X139980478Y-81639611D01*
X139634639Y-79634483D01*
X139895582Y-79808839D01*
X140328744Y-79895000D01*
X140621256Y-79895000D01*
X141054418Y-79808839D01*
X141545625Y-79480625D01*
X141873839Y-78989418D01*
X141891317Y-78901545D01*
X146272641Y-78901545D01*
X146272641Y-79313293D01*
X146430210Y-79693699D01*
X146721361Y-79984850D01*
X147101767Y-80142419D01*
X147513515Y-80142419D01*
X147893921Y-79984850D01*
X147918867Y-79959904D01*
X148270126Y-80105400D01*
X148681874Y-80105400D01*
X149062280Y-79947831D01*
X149353431Y-79656680D01*
X149511000Y-79276274D01*
X149511000Y-78864526D01*
X149353431Y-78484120D01*
X149062280Y-78192969D01*
X148681874Y-78035400D01*
X148270126Y-78035400D01*
X147889720Y-78192969D01*
X147864774Y-78217915D01*
X147513515Y-78072419D01*
X147101767Y-78072419D01*
X146721361Y-78229988D01*
X146430210Y-78521139D01*
X146272641Y-78901545D01*
X141891317Y-78901545D01*
X141989092Y-78410000D01*
X141873839Y-77830582D01*
X141545625Y-77339375D01*
X141527381Y-77327184D01*
X141572765Y-77318157D01*
X141782809Y-77177809D01*
X141923157Y-76967765D01*
X141972440Y-76720000D01*
X141972440Y-76389126D01*
X147990000Y-76389126D01*
X147990000Y-76800874D01*
X148147569Y-77181280D01*
X148438720Y-77472431D01*
X148819126Y-77630000D01*
X149230874Y-77630000D01*
X149611280Y-77472431D01*
X149902431Y-77181280D01*
X149981944Y-76989317D01*
X150104252Y-77039979D01*
X149981215Y-77337018D01*
X149981215Y-77748766D01*
X150138784Y-78129172D01*
X150429935Y-78420323D01*
X150441512Y-78425118D01*
X150268510Y-78598120D01*
X150110941Y-78978526D01*
X150110941Y-79390274D01*
X150268510Y-79770680D01*
X150559661Y-80061831D01*
X150940067Y-80219400D01*
X151351815Y-80219400D01*
X151732221Y-80061831D01*
X152023372Y-79770680D01*
X152118680Y-79540586D01*
X152234068Y-79819158D01*
X152525219Y-80110309D01*
X152905625Y-80267878D01*
X153317373Y-80267878D01*
X153697779Y-80110309D01*
X153962433Y-79845655D01*
X154223867Y-79845655D01*
X154604273Y-79688086D01*
X154895424Y-79396935D01*
X155052993Y-79016529D01*
X155052993Y-78604781D01*
X154895424Y-78224375D01*
X154604273Y-77933224D01*
X154223867Y-77775655D01*
X153812119Y-77775655D01*
X153431713Y-77933224D01*
X153167059Y-78197878D01*
X152905625Y-78197878D01*
X152525219Y-78355447D01*
X152234068Y-78646598D01*
X152138760Y-78876692D01*
X152023372Y-78598120D01*
X151732221Y-78306969D01*
X151720644Y-78302174D01*
X151893646Y-78129172D01*
X152051215Y-77748766D01*
X152051215Y-77337018D01*
X151893646Y-76956612D01*
X151602495Y-76665461D01*
X151458963Y-76606008D01*
X151495590Y-76517583D01*
X151791127Y-76639998D01*
X152202875Y-76639998D01*
X152583281Y-76482429D01*
X152874432Y-76191278D01*
X153032001Y-75810872D01*
X153032001Y-75399124D01*
X152874432Y-75018718D01*
X152749404Y-74893690D01*
X158040000Y-74893690D01*
X158040000Y-75584250D01*
X158198750Y-75743000D01*
X159398000Y-75743000D01*
X159398000Y-74543750D01*
X159652000Y-74543750D01*
X159652000Y-75743000D01*
X160851250Y-75743000D01*
X161010000Y-75584250D01*
X161010000Y-74893690D01*
X160913327Y-74660301D01*
X160734698Y-74481673D01*
X160501309Y-74385000D01*
X159810750Y-74385000D01*
X159652000Y-74543750D01*
X159398000Y-74543750D01*
X159239250Y-74385000D01*
X158548691Y-74385000D01*
X158315302Y-74481673D01*
X158136673Y-74660301D01*
X158040000Y-74893690D01*
X152749404Y-74893690D01*
X152583281Y-74727567D01*
X152202875Y-74569998D01*
X151791127Y-74569998D01*
X151410721Y-74727567D01*
X151119570Y-75018718D01*
X151048411Y-75190510D01*
X150752874Y-75068095D01*
X150341126Y-75068095D01*
X149960720Y-75225664D01*
X149669569Y-75516815D01*
X149590056Y-75708778D01*
X149230874Y-75560000D01*
X148819126Y-75560000D01*
X148438720Y-75717569D01*
X148147569Y-76008720D01*
X147990000Y-76389126D01*
X141972440Y-76389126D01*
X141972440Y-75020000D01*
X141923157Y-74772235D01*
X141782809Y-74562191D01*
X141572765Y-74421843D01*
X141325000Y-74372560D01*
X139625000Y-74372560D01*
X139377235Y-74421843D01*
X139167191Y-74562191D01*
X139026843Y-74772235D01*
X138977560Y-75020000D01*
X138977560Y-75824818D01*
X138626815Y-73791242D01*
X138698079Y-73805417D01*
X138785239Y-73788080D01*
X159452068Y-73788080D01*
X160268561Y-73866052D01*
X160268561Y-73866052D01*
G37*
X160268561Y-73866052D02*
X160317640Y-73915131D01*
X160698046Y-74072700D01*
X161109794Y-74072700D01*
X161386879Y-73957928D01*
X160998838Y-76144588D01*
X160851250Y-75997000D01*
X159652000Y-75997000D01*
X159652000Y-76017000D01*
X159398000Y-76017000D01*
X159398000Y-75997000D01*
X158198750Y-75997000D01*
X158040000Y-76155750D01*
X158040000Y-76846310D01*
X158136673Y-77079699D01*
X158315302Y-77258327D01*
X158476033Y-77324904D01*
X158454375Y-77339375D01*
X158126161Y-77830582D01*
X158010908Y-78410000D01*
X158126161Y-78989418D01*
X158454375Y-79480625D01*
X158945582Y-79808839D01*
X159378744Y-79895000D01*
X159671256Y-79895000D01*
X160104418Y-79808839D01*
X160381432Y-79623744D01*
X159874954Y-82477809D01*
X159875980Y-82527352D01*
X159910197Y-82589803D01*
X167410197Y-90089803D01*
X167451399Y-90117333D01*
X167521774Y-90125119D01*
X170368852Y-89629649D01*
X170191161Y-89895582D01*
X170075908Y-90475000D01*
X170191161Y-91054418D01*
X170519375Y-91545625D01*
X171010582Y-91873839D01*
X171443744Y-91960000D01*
X171736256Y-91960000D01*
X172169418Y-91873839D01*
X172660625Y-91545625D01*
X172672816Y-91527381D01*
X172681843Y-91572765D01*
X172822191Y-91782809D01*
X173032235Y-91923157D01*
X173280000Y-91972440D01*
X174980000Y-91972440D01*
X175227765Y-91923157D01*
X175437809Y-91782809D01*
X175578157Y-91572765D01*
X175627440Y-91325000D01*
X175627440Y-89625000D01*
X175578157Y-89377235D01*
X175437809Y-89167191D01*
X175227765Y-89026843D01*
X174980000Y-88977560D01*
X174115895Y-88977560D01*
X177077560Y-88462148D01*
X177077560Y-89420000D01*
X177126843Y-89667765D01*
X177267191Y-89877809D01*
X177477235Y-90018157D01*
X177522619Y-90027184D01*
X177504375Y-90039375D01*
X177176161Y-90530582D01*
X177060908Y-91110000D01*
X177176161Y-91689418D01*
X177504375Y-92180625D01*
X177802761Y-92380000D01*
X177504375Y-92579375D01*
X177176161Y-93070582D01*
X177060908Y-93650000D01*
X177176161Y-94229418D01*
X177504375Y-94720625D01*
X177802761Y-94920000D01*
X177504375Y-95119375D01*
X177176161Y-95610582D01*
X177060908Y-96190000D01*
X177176161Y-96769418D01*
X177504375Y-97260625D01*
X177802761Y-97460000D01*
X177504375Y-97659375D01*
X177176161Y-98150582D01*
X177060908Y-98730000D01*
X177176161Y-99309418D01*
X177504375Y-99800625D01*
X177802761Y-100000000D01*
X177504375Y-100199375D01*
X177176161Y-100690582D01*
X177060908Y-101270000D01*
X177176161Y-101849418D01*
X177504375Y-102340625D01*
X177802761Y-102540000D01*
X177504375Y-102739375D01*
X177176161Y-103230582D01*
X177060908Y-103810000D01*
X177176161Y-104389418D01*
X177504375Y-104880625D01*
X177802761Y-105080000D01*
X177504375Y-105279375D01*
X177176161Y-105770582D01*
X177060908Y-106350000D01*
X177176161Y-106929418D01*
X177504375Y-107420625D01*
X177802761Y-107620000D01*
X177504375Y-107819375D01*
X177176161Y-108310582D01*
X177060908Y-108890000D01*
X177176161Y-109469418D01*
X177504375Y-109960625D01*
X177823478Y-110173843D01*
X177693642Y-110234817D01*
X177303355Y-110663076D01*
X177133524Y-111073110D01*
X177254845Y-111303000D01*
X178448000Y-111303000D01*
X178448000Y-111283000D01*
X178702000Y-111283000D01*
X178702000Y-111303000D01*
X178722000Y-111303000D01*
X178722000Y-111557000D01*
X178702000Y-111557000D01*
X178702000Y-112750819D01*
X178931892Y-112871486D01*
X179456358Y-112625183D01*
X179843647Y-112200214D01*
X180044375Y-112500625D01*
X180535582Y-112828839D01*
X180968744Y-112915000D01*
X181261256Y-112915000D01*
X181694418Y-112828839D01*
X182185625Y-112500625D01*
X182513839Y-112009418D01*
X182629092Y-111430000D01*
X182513839Y-110850582D01*
X182185625Y-110359375D01*
X181887239Y-110160000D01*
X182185625Y-109960625D01*
X182513839Y-109469418D01*
X182629092Y-108890000D01*
X182513839Y-108310582D01*
X182185625Y-107819375D01*
X181887239Y-107620000D01*
X182185625Y-107420625D01*
X182513839Y-106929418D01*
X182629092Y-106350000D01*
X182513839Y-105770582D01*
X182185625Y-105279375D01*
X181887239Y-105080000D01*
X182185625Y-104880625D01*
X182513839Y-104389418D01*
X182629092Y-103810000D01*
X182513839Y-103230582D01*
X182185625Y-102739375D01*
X181887239Y-102540000D01*
X182185625Y-102340625D01*
X182513839Y-101849418D01*
X182629092Y-101270000D01*
X182513839Y-100690582D01*
X182185625Y-100199375D01*
X181887239Y-100000000D01*
X182185625Y-99800625D01*
X182513839Y-99309418D01*
X182629092Y-98730000D01*
X182513839Y-98150582D01*
X182185625Y-97659375D01*
X181887239Y-97460000D01*
X182185625Y-97260625D01*
X182513839Y-96769418D01*
X182629092Y-96190000D01*
X182513839Y-95610582D01*
X182185625Y-95119375D01*
X181887239Y-94920000D01*
X182185625Y-94720625D01*
X182513839Y-94229418D01*
X182629092Y-93650000D01*
X182513839Y-93070582D01*
X182185625Y-92579375D01*
X181887239Y-92380000D01*
X182185625Y-92180625D01*
X182513839Y-91689418D01*
X182629092Y-91110000D01*
X182513839Y-90530582D01*
X182185625Y-90039375D01*
X181887239Y-89840000D01*
X182185625Y-89640625D01*
X182513839Y-89149418D01*
X182629092Y-88570000D01*
X182513839Y-87990582D01*
X182229817Y-87565513D01*
X184290001Y-87206985D01*
X184290000Y-114205909D01*
X183048432Y-115447477D01*
X183039890Y-115404531D01*
X182711676Y-114913324D01*
X182220469Y-114585110D01*
X181787307Y-114498949D01*
X181494795Y-114498949D01*
X181289081Y-114539868D01*
X181359092Y-114187898D01*
X181243839Y-113608480D01*
X180915625Y-113117273D01*
X180424418Y-112789059D01*
X179991256Y-112702898D01*
X179698744Y-112702898D01*
X179265582Y-112789059D01*
X178774375Y-113117273D01*
X178446161Y-113608480D01*
X178330908Y-114187898D01*
X178335189Y-114209418D01*
X178296714Y-114183710D01*
X178048949Y-114134427D01*
X177801184Y-114183710D01*
X177591140Y-114324058D01*
X176832955Y-115082244D01*
X176621280Y-114870569D01*
X176240874Y-114713000D01*
X175829126Y-114713000D01*
X175448720Y-114870569D01*
X175157569Y-115161720D01*
X175000000Y-115542126D01*
X175000000Y-115953874D01*
X175157569Y-116334280D01*
X175448720Y-116625431D01*
X175829126Y-116783000D01*
X176240874Y-116783000D01*
X176586951Y-116639651D01*
X177591140Y-117643840D01*
X177801184Y-117784188D01*
X178048949Y-117833471D01*
X178296714Y-117784188D01*
X178335189Y-117758480D01*
X178330908Y-117780000D01*
X178446161Y-118359418D01*
X178774375Y-118850625D01*
X179265582Y-119178839D01*
X179308528Y-119187381D01*
X177705000Y-120790909D01*
X177705000Y-120749126D01*
X177547431Y-120368720D01*
X177256280Y-120077569D01*
X177156698Y-120036321D01*
X177188812Y-119958792D01*
X177188812Y-119547044D01*
X177031243Y-119166638D01*
X176740092Y-118875487D01*
X176359686Y-118717918D01*
X175947938Y-118717918D01*
X175567532Y-118875487D01*
X175276381Y-119166638D01*
X175118812Y-119547044D01*
X175118812Y-119958792D01*
X175276381Y-120339198D01*
X175567532Y-120630349D01*
X175667114Y-120671597D01*
X175635000Y-120749126D01*
X175635000Y-121160874D01*
X175792569Y-121541280D01*
X176083720Y-121832431D01*
X176464126Y-121990000D01*
X176505909Y-121990000D01*
X171990000Y-126505910D01*
X171990000Y-126464126D01*
X171832431Y-126083720D01*
X171541280Y-125792569D01*
X171160874Y-125635000D01*
X170749126Y-125635000D01*
X170368720Y-125792569D01*
X170077569Y-126083720D01*
X169920000Y-126464126D01*
X169920000Y-126875874D01*
X170077569Y-127256280D01*
X170368720Y-127547431D01*
X170749126Y-127705000D01*
X170790910Y-127705000D01*
X169148753Y-129347156D01*
X169051645Y-129078076D01*
X168803763Y-129000842D01*
X167959605Y-129845000D01*
X167973748Y-129859143D01*
X167794143Y-130038748D01*
X167780000Y-130024605D01*
X167765858Y-130038748D01*
X167586253Y-129859143D01*
X167600395Y-129845000D01*
X167586253Y-129830858D01*
X167765858Y-129651253D01*
X167780000Y-129665395D01*
X168624158Y-128821237D01*
X168546924Y-128573355D01*
X168001908Y-128376664D01*
X167427555Y-128403308D01*
X167498041Y-128048949D01*
X167411991Y-127616344D01*
X167626026Y-127705000D01*
X168037774Y-127705000D01*
X168418180Y-127547431D01*
X168709331Y-127256280D01*
X168866900Y-126875874D01*
X168866900Y-126464126D01*
X168774084Y-126240049D01*
X168866900Y-126015972D01*
X168866900Y-125604224D01*
X168709331Y-125223818D01*
X168418180Y-124932667D01*
X168037774Y-124775098D01*
X167626026Y-124775098D01*
X167245620Y-124932667D01*
X166954469Y-125223818D01*
X166796900Y-125604224D01*
X166796900Y-126015972D01*
X166889716Y-126240049D01*
X166796900Y-126464126D01*
X166796900Y-126806152D01*
X166563367Y-126650110D01*
X166130205Y-126563949D01*
X165837693Y-126563949D01*
X165404531Y-126650110D01*
X164913324Y-126978324D01*
X164736568Y-127242857D01*
X164556280Y-127062569D01*
X164175874Y-126905000D01*
X163764126Y-126905000D01*
X163383720Y-127062569D01*
X163092569Y-127353720D01*
X162935000Y-127734126D01*
X162935000Y-128145874D01*
X163092569Y-128526280D01*
X163240744Y-128674455D01*
X162927440Y-128987758D01*
X162927440Y-127725000D01*
X162878157Y-127477235D01*
X162737809Y-127267191D01*
X162527765Y-127126843D01*
X162280000Y-127077560D01*
X160580000Y-127077560D01*
X160332235Y-127126843D01*
X160122191Y-127267191D01*
X159981843Y-127477235D01*
X159972816Y-127522619D01*
X159960625Y-127504375D01*
X159469418Y-127176161D01*
X159036256Y-127090000D01*
X158743744Y-127090000D01*
X158310582Y-127176161D01*
X157819375Y-127504375D01*
X157620000Y-127802761D01*
X157420625Y-127504375D01*
X156929418Y-127176161D01*
X156496256Y-127090000D01*
X156203744Y-127090000D01*
X155770582Y-127176161D01*
X155279375Y-127504375D01*
X155080000Y-127802761D01*
X154880625Y-127504375D01*
X154389418Y-127176161D01*
X153956256Y-127090000D01*
X153663744Y-127090000D01*
X153230582Y-127176161D01*
X152739375Y-127504375D01*
X152540000Y-127802761D01*
X152340625Y-127504375D01*
X151849418Y-127176161D01*
X151416256Y-127090000D01*
X151123744Y-127090000D01*
X150690582Y-127176161D01*
X150199375Y-127504375D01*
X150000000Y-127802761D01*
X149800625Y-127504375D01*
X149309418Y-127176161D01*
X148876256Y-127090000D01*
X148583744Y-127090000D01*
X148150582Y-127176161D01*
X147659375Y-127504375D01*
X147460000Y-127802761D01*
X147260625Y-127504375D01*
X146769418Y-127176161D01*
X146336256Y-127090000D01*
X146043744Y-127090000D01*
X145610582Y-127176161D01*
X145119375Y-127504375D01*
X144920000Y-127802761D01*
X144720625Y-127504375D01*
X144229418Y-127176161D01*
X143796256Y-127090000D01*
X143503744Y-127090000D01*
X143070582Y-127176161D01*
X142579375Y-127504375D01*
X142380000Y-127802761D01*
X142180625Y-127504375D01*
X141689418Y-127176161D01*
X141256256Y-127090000D01*
X140963744Y-127090000D01*
X140530582Y-127176161D01*
X140039375Y-127504375D01*
X139826157Y-127823478D01*
X139765183Y-127693642D01*
X139336924Y-127303355D01*
X138926890Y-127133524D01*
X138697000Y-127254845D01*
X138697000Y-128448000D01*
X138717000Y-128448000D01*
X138717000Y-128702000D01*
X138697000Y-128702000D01*
X138697000Y-128722000D01*
X138443000Y-128722000D01*
X138443000Y-128702000D01*
X138423000Y-128702000D01*
X138423000Y-128448000D01*
X138443000Y-128448000D01*
X138443000Y-127254845D01*
X138431293Y-127248667D01*
X138873550Y-124708985D01*
X138977560Y-124778483D01*
X138977560Y-124980000D01*
X139026843Y-125227765D01*
X139121268Y-125369082D01*
X139102749Y-125387601D01*
X138945180Y-125768007D01*
X138945180Y-126179755D01*
X139102749Y-126560161D01*
X139393900Y-126851312D01*
X139774306Y-127008881D01*
X140186054Y-127008881D01*
X140566460Y-126851312D01*
X140857611Y-126560161D01*
X141015180Y-126179755D01*
X141015180Y-125768007D01*
X140956955Y-125627440D01*
X141325000Y-125627440D01*
X141572765Y-125578157D01*
X141782809Y-125437809D01*
X141923157Y-125227765D01*
X141972440Y-124980000D01*
X141972440Y-123280000D01*
X141923157Y-123032235D01*
X141815055Y-122870450D01*
X145573676Y-122870450D01*
X145573676Y-123282198D01*
X145731245Y-123662604D01*
X146022396Y-123953755D01*
X146402802Y-124111324D01*
X146814550Y-124111324D01*
X147194956Y-123953755D01*
X147486107Y-123662604D01*
X147607938Y-123368478D01*
X147902064Y-123246647D01*
X148037622Y-123111089D01*
X148397126Y-123260000D01*
X148808874Y-123260000D01*
X149189280Y-123102431D01*
X149480431Y-122811280D01*
X149545526Y-122654126D01*
X149940000Y-122654126D01*
X149940000Y-123065874D01*
X150097569Y-123446280D01*
X150388720Y-123737431D01*
X150769126Y-123895000D01*
X151180874Y-123895000D01*
X151561280Y-123737431D01*
X151852431Y-123446280D01*
X152010000Y-123065874D01*
X152010000Y-122654126D01*
X151852431Y-122273720D01*
X151561280Y-121982569D01*
X151408928Y-121919463D01*
X151812378Y-121919463D01*
X152192784Y-121761894D01*
X152220785Y-121733893D01*
X152499162Y-121849200D01*
X152910910Y-121849200D01*
X153291316Y-121691631D01*
X153392947Y-121590000D01*
X158010908Y-121590000D01*
X158126161Y-122169418D01*
X158454375Y-122660625D01*
X158472619Y-122672816D01*
X158427235Y-122681843D01*
X158217191Y-122822191D01*
X158076843Y-123032235D01*
X158027560Y-123280000D01*
X158027560Y-124980000D01*
X158076843Y-125227765D01*
X158217191Y-125437809D01*
X158427235Y-125578157D01*
X158675000Y-125627440D01*
X160375000Y-125627440D01*
X160622765Y-125578157D01*
X160832809Y-125437809D01*
X160973157Y-125227765D01*
X161021107Y-124986697D01*
X161541291Y-124986697D01*
X161541291Y-125398445D01*
X161698860Y-125778851D01*
X161990011Y-126070002D01*
X162370417Y-126227571D01*
X162782165Y-126227571D01*
X163162571Y-126070002D01*
X163453722Y-125778851D01*
X163611291Y-125398445D01*
X163611291Y-124986697D01*
X163453722Y-124606291D01*
X163162571Y-124315140D01*
X162782165Y-124157571D01*
X162370417Y-124157571D01*
X161990011Y-124315140D01*
X161698860Y-124606291D01*
X161541291Y-124986697D01*
X161021107Y-124986697D01*
X161022440Y-124980000D01*
X161022440Y-123280000D01*
X160973157Y-123032235D01*
X160832809Y-122822191D01*
X160622765Y-122681843D01*
X160577381Y-122672816D01*
X160595625Y-122660625D01*
X160923839Y-122169418D01*
X161039092Y-121590000D01*
X161000483Y-121395896D01*
X164840000Y-121395896D01*
X164840000Y-121807644D01*
X164997569Y-122188050D01*
X165288720Y-122479201D01*
X165669126Y-122636770D01*
X166080874Y-122636770D01*
X166461280Y-122479201D01*
X166569054Y-122371427D01*
X166569054Y-122606820D01*
X166726623Y-122987226D01*
X167017774Y-123278377D01*
X167398180Y-123435946D01*
X167809928Y-123435946D01*
X168190334Y-123278377D01*
X168481485Y-122987226D01*
X168639054Y-122606820D01*
X168639054Y-122195072D01*
X168481485Y-121814666D01*
X168190334Y-121523515D01*
X167809928Y-121365946D01*
X167398180Y-121365946D01*
X167017774Y-121523515D01*
X166910000Y-121631289D01*
X166910000Y-121395896D01*
X166752431Y-121015490D01*
X166461280Y-120724339D01*
X166080874Y-120566770D01*
X165669126Y-120566770D01*
X165288720Y-120724339D01*
X164997569Y-121015490D01*
X164840000Y-121395896D01*
X161000483Y-121395896D01*
X160923839Y-121010582D01*
X160595625Y-120519375D01*
X160104418Y-120191161D01*
X159671256Y-120105000D01*
X159378744Y-120105000D01*
X158945582Y-120191161D01*
X158454375Y-120519375D01*
X158126161Y-121010582D01*
X158010908Y-121590000D01*
X153392947Y-121590000D01*
X153582467Y-121400480D01*
X153740036Y-121020074D01*
X153740036Y-120608326D01*
X153582467Y-120227920D01*
X153291316Y-119936769D01*
X152910910Y-119779200D01*
X152499162Y-119779200D01*
X152118756Y-119936769D01*
X152090755Y-119964770D01*
X151812378Y-119849463D01*
X151400630Y-119849463D01*
X151020224Y-120007032D01*
X150729073Y-120298183D01*
X150571504Y-120678589D01*
X150571504Y-121090337D01*
X150729073Y-121470743D01*
X151020224Y-121761894D01*
X151172576Y-121825000D01*
X150769126Y-121825000D01*
X150388720Y-121982569D01*
X150097569Y-122273720D01*
X149940000Y-122654126D01*
X149545526Y-122654126D01*
X149638000Y-122430874D01*
X149638000Y-122019126D01*
X149489089Y-121659622D01*
X149607431Y-121541280D01*
X149765000Y-121160874D01*
X149765000Y-120749126D01*
X149607431Y-120368720D01*
X149316280Y-120077569D01*
X148935874Y-119920000D01*
X148524126Y-119920000D01*
X148143720Y-120077569D01*
X147852569Y-120368720D01*
X147695000Y-120749126D01*
X147695000Y-121160874D01*
X147817571Y-121456787D01*
X147521658Y-121334216D01*
X147109910Y-121334216D01*
X146729504Y-121491785D01*
X146438353Y-121782936D01*
X146316522Y-122077062D01*
X146022396Y-122198893D01*
X145731245Y-122490044D01*
X145573676Y-122870450D01*
X141815055Y-122870450D01*
X141782809Y-122822191D01*
X141572765Y-122681843D01*
X141527381Y-122672816D01*
X141545625Y-122660625D01*
X141873839Y-122169418D01*
X141989092Y-121590000D01*
X141873839Y-121010582D01*
X141545625Y-120519375D01*
X141415532Y-120432450D01*
X141576702Y-120271280D01*
X141734271Y-119890874D01*
X141734271Y-119503951D01*
X141760592Y-119493049D01*
X142051743Y-119201898D01*
X142209312Y-118821492D01*
X142209312Y-118409744D01*
X142132187Y-118223547D01*
X159098952Y-118223547D01*
X159098952Y-118635295D01*
X159256521Y-119015701D01*
X159547672Y-119306852D01*
X159928078Y-119464421D01*
X160339826Y-119464421D01*
X160720232Y-119306852D01*
X161011383Y-119015701D01*
X161168952Y-118635295D01*
X161168952Y-118223547D01*
X161011383Y-117843141D01*
X160832368Y-117664126D01*
X161592892Y-117664126D01*
X161592892Y-118075874D01*
X161750461Y-118456280D01*
X162041612Y-118747431D01*
X162422018Y-118905000D01*
X162651289Y-118905000D01*
X162457569Y-119098720D01*
X162300000Y-119479126D01*
X162300000Y-119890874D01*
X162457569Y-120271280D01*
X162748720Y-120562431D01*
X163129126Y-120720000D01*
X163540874Y-120720000D01*
X163921280Y-120562431D01*
X164212431Y-120271280D01*
X164370000Y-119890874D01*
X164370000Y-119479126D01*
X164212431Y-119098720D01*
X163921280Y-118807569D01*
X163540874Y-118650000D01*
X163311603Y-118650000D01*
X163505323Y-118456280D01*
X163636100Y-118140556D01*
X163921280Y-118022431D01*
X164212431Y-117731280D01*
X164370000Y-117350874D01*
X164370000Y-116939126D01*
X164358282Y-116910835D01*
X170583291Y-116910835D01*
X170583291Y-117322583D01*
X170740860Y-117702989D01*
X171032011Y-117994140D01*
X171412417Y-118151709D01*
X171824165Y-118151709D01*
X172204571Y-117994140D01*
X172495722Y-117702989D01*
X172653291Y-117322583D01*
X172653291Y-116910835D01*
X172495722Y-116530429D01*
X172204571Y-116239278D01*
X171824165Y-116081709D01*
X171412417Y-116081709D01*
X171032011Y-116239278D01*
X170740860Y-116530429D01*
X170583291Y-116910835D01*
X164358282Y-116910835D01*
X164212431Y-116558720D01*
X163921280Y-116267569D01*
X163540874Y-116110000D01*
X163129126Y-116110000D01*
X162748720Y-116267569D01*
X162457569Y-116558720D01*
X162326792Y-116874444D01*
X162041612Y-116992569D01*
X161750461Y-117283720D01*
X161592892Y-117664126D01*
X160832368Y-117664126D01*
X160720232Y-117551990D01*
X160339826Y-117394421D01*
X159928078Y-117394421D01*
X159547672Y-117551990D01*
X159256521Y-117843141D01*
X159098952Y-118223547D01*
X142132187Y-118223547D01*
X142051743Y-118029338D01*
X141760592Y-117738187D01*
X141380186Y-117580618D01*
X140968438Y-117580618D01*
X140734271Y-117677613D01*
X140734271Y-116534442D01*
X143416125Y-116534442D01*
X143416125Y-116946190D01*
X143573694Y-117326596D01*
X143864845Y-117617747D01*
X144245251Y-117775316D01*
X144656999Y-117775316D01*
X145037405Y-117617747D01*
X145328556Y-117326596D01*
X145486125Y-116946190D01*
X145486125Y-116534442D01*
X145397421Y-116320290D01*
X145416431Y-116301280D01*
X145574000Y-115920874D01*
X145574000Y-115509126D01*
X154426000Y-115509126D01*
X154426000Y-115920874D01*
X154562063Y-116249360D01*
X154442258Y-116538595D01*
X154442258Y-116950343D01*
X154599827Y-117330749D01*
X154890978Y-117621900D01*
X155271384Y-117779469D01*
X155683132Y-117779469D01*
X156063538Y-117621900D01*
X156354689Y-117330749D01*
X156512258Y-116950343D01*
X156512258Y-116538595D01*
X156376195Y-116210109D01*
X156496000Y-115920874D01*
X156496000Y-115509126D01*
X156338431Y-115128720D01*
X156047280Y-114837569D01*
X155666874Y-114680000D01*
X155255126Y-114680000D01*
X154874720Y-114837569D01*
X154583569Y-115128720D01*
X154426000Y-115509126D01*
X145574000Y-115509126D01*
X145416431Y-115128720D01*
X145125280Y-114837569D01*
X144744874Y-114680000D01*
X144333126Y-114680000D01*
X143952720Y-114837569D01*
X143661569Y-115128720D01*
X143504000Y-115509126D01*
X143504000Y-115920874D01*
X143592704Y-116135026D01*
X143573694Y-116154036D01*
X143416125Y-116534442D01*
X140734271Y-116534442D01*
X140734271Y-114658530D01*
X141290914Y-114101888D01*
X141348632Y-114101888D01*
X141464169Y-114380820D01*
X141755320Y-114671971D01*
X142135726Y-114829540D01*
X142547474Y-114829540D01*
X142927880Y-114671971D01*
X143219031Y-114380820D01*
X143362598Y-114034217D01*
X143644160Y-113917591D01*
X143935311Y-113626440D01*
X144080679Y-113275489D01*
X144139853Y-113300000D01*
X144551601Y-113300000D01*
X144932007Y-113142431D01*
X145223158Y-112851280D01*
X145380727Y-112470874D01*
X145380727Y-112059126D01*
X145223158Y-111678720D01*
X144932007Y-111387569D01*
X144551601Y-111230000D01*
X144434688Y-111230000D01*
X144434688Y-111224126D01*
X157855000Y-111224126D01*
X157855000Y-111635874D01*
X158012569Y-112016280D01*
X158303720Y-112307431D01*
X158684126Y-112465000D01*
X159095874Y-112465000D01*
X159125000Y-112452936D01*
X159125000Y-112778874D01*
X159282569Y-113159280D01*
X159573720Y-113450431D01*
X159954126Y-113608000D01*
X160365874Y-113608000D01*
X160746280Y-113450431D01*
X161037431Y-113159280D01*
X161049921Y-113129126D01*
X163443000Y-113129126D01*
X163443000Y-113540874D01*
X163600569Y-113921280D01*
X163891720Y-114212431D01*
X163964627Y-114242630D01*
X163964627Y-114416247D01*
X164122196Y-114796653D01*
X164413347Y-115087804D01*
X164793753Y-115245373D01*
X165205501Y-115245373D01*
X165585907Y-115087804D01*
X165877058Y-114796653D01*
X166034627Y-114416247D01*
X166034627Y-114303336D01*
X166304720Y-114573429D01*
X166685126Y-114730998D01*
X167096874Y-114730998D01*
X167477280Y-114573429D01*
X167768431Y-114282278D01*
X167926000Y-113901872D01*
X167926000Y-113490124D01*
X167768431Y-113109718D01*
X167477280Y-112818567D01*
X167159347Y-112686875D01*
X167159347Y-112625779D01*
X167007530Y-112259260D01*
X167219701Y-112471431D01*
X167600107Y-112629000D01*
X168011855Y-112629000D01*
X168392261Y-112471431D01*
X168623566Y-112240126D01*
X168670990Y-112240126D01*
X168670990Y-112651874D01*
X168828559Y-113032280D01*
X169119710Y-113323431D01*
X169500116Y-113481000D01*
X169517006Y-113481000D01*
X169480858Y-113568268D01*
X169480858Y-113980016D01*
X169638427Y-114360422D01*
X169929578Y-114651573D01*
X170309984Y-114809142D01*
X170721732Y-114809142D01*
X170998014Y-114694703D01*
X171077231Y-114773920D01*
X171457637Y-114931489D01*
X171869385Y-114931489D01*
X172249791Y-114773920D01*
X172540942Y-114482769D01*
X172698511Y-114102363D01*
X172698511Y-113690615D01*
X172540942Y-113310209D01*
X172249791Y-113019058D01*
X172117000Y-112964054D01*
X172117000Y-112621126D01*
X171959431Y-112240720D01*
X171668280Y-111949569D01*
X171287874Y-111792000D01*
X170876126Y-111792000D01*
X170602344Y-111905404D01*
X170583421Y-111859720D01*
X170510591Y-111786890D01*
X177133524Y-111786890D01*
X177303355Y-112196924D01*
X177693642Y-112625183D01*
X178218108Y-112871486D01*
X178448000Y-112750819D01*
X178448000Y-111557000D01*
X177254845Y-111557000D01*
X177133524Y-111786890D01*
X170510591Y-111786890D01*
X170292270Y-111568569D01*
X169911864Y-111411000D01*
X169500116Y-111411000D01*
X169119710Y-111568569D01*
X168828559Y-111859720D01*
X168670990Y-112240126D01*
X168623566Y-112240126D01*
X168683412Y-112180280D01*
X168840981Y-111799874D01*
X168840981Y-111388126D01*
X168683412Y-111007720D01*
X168392261Y-110716569D01*
X168011855Y-110559000D01*
X167600107Y-110559000D01*
X167219701Y-110716569D01*
X166928550Y-111007720D01*
X166770981Y-111388126D01*
X166770981Y-111799874D01*
X166922798Y-112166393D01*
X166710627Y-111954222D01*
X166330221Y-111796653D01*
X165918473Y-111796653D01*
X165538067Y-111954222D01*
X165246916Y-112245373D01*
X165131273Y-112524562D01*
X165064280Y-112457569D01*
X164683874Y-112300000D01*
X164272126Y-112300000D01*
X163891720Y-112457569D01*
X163600569Y-112748720D01*
X163443000Y-113129126D01*
X161049921Y-113129126D01*
X161195000Y-112778874D01*
X161195000Y-112367126D01*
X161037431Y-111986720D01*
X160746280Y-111695569D01*
X160365874Y-111538000D01*
X159954126Y-111538000D01*
X159925000Y-111550064D01*
X159925000Y-111224126D01*
X159767431Y-110843720D01*
X159476280Y-110552569D01*
X159095874Y-110395000D01*
X158684126Y-110395000D01*
X158303720Y-110552569D01*
X158012569Y-110843720D01*
X157855000Y-111224126D01*
X144434688Y-111224126D01*
X144434688Y-110906858D01*
X144277119Y-110526452D01*
X144012610Y-110261943D01*
X144013145Y-110260650D01*
X144013145Y-109848902D01*
X143855576Y-109468496D01*
X143564425Y-109177345D01*
X143184019Y-109019776D01*
X142772271Y-109019776D01*
X142391865Y-109177345D01*
X142100714Y-109468496D01*
X141943145Y-109848902D01*
X141943145Y-110014974D01*
X141375654Y-110582466D01*
X141312195Y-110624868D01*
X141144220Y-110876261D01*
X141100124Y-111097946D01*
X141100124Y-111097950D01*
X141085236Y-111172797D01*
X141100124Y-111247644D01*
X141100125Y-112131878D01*
X140484968Y-112131878D01*
X140410121Y-112116990D01*
X140335274Y-112131878D01*
X140335270Y-112131878D01*
X140113585Y-112175974D01*
X139862193Y-112343949D01*
X139819793Y-112407405D01*
X138815529Y-113411670D01*
X138752070Y-113454072D01*
X138584095Y-113705465D01*
X138539999Y-113927150D01*
X138539999Y-113927154D01*
X138525111Y-114002001D01*
X138539999Y-114076848D01*
X138539999Y-115860393D01*
X134108096Y-111428490D01*
X137104364Y-111428490D01*
X137104364Y-111840238D01*
X137261933Y-112220644D01*
X137553084Y-112511795D01*
X137933490Y-112669364D01*
X138345238Y-112669364D01*
X138725644Y-112511795D01*
X139016795Y-112220644D01*
X139174364Y-111840238D01*
X139174364Y-111672047D01*
X139539195Y-111823165D01*
X139950943Y-111823165D01*
X140331349Y-111665596D01*
X140622500Y-111374445D01*
X140780069Y-110994039D01*
X140780069Y-110582291D01*
X140622500Y-110201885D01*
X140331349Y-109910734D01*
X139950943Y-109753165D01*
X139539195Y-109753165D01*
X139158789Y-109910734D01*
X138867638Y-110201885D01*
X138710069Y-110582291D01*
X138710069Y-110750482D01*
X138345238Y-110599364D01*
X137933490Y-110599364D01*
X137553084Y-110756933D01*
X137261933Y-111048084D01*
X137104364Y-111428490D01*
X134108096Y-111428490D01*
X132589803Y-109910197D01*
X132548601Y-109882667D01*
X132478018Y-109874917D01*
X131188184Y-110101593D01*
X131188184Y-109848370D01*
X131030615Y-109467964D01*
X130983216Y-109420565D01*
X131192431Y-109211350D01*
X131350000Y-108830944D01*
X131350000Y-108419196D01*
X133254564Y-108419196D01*
X133254564Y-108830944D01*
X133412133Y-109211350D01*
X133703284Y-109502501D01*
X134083690Y-109660070D01*
X134495438Y-109660070D01*
X134875844Y-109502501D01*
X134963817Y-109414528D01*
X135189720Y-109640431D01*
X135570126Y-109798000D01*
X135981874Y-109798000D01*
X136362280Y-109640431D01*
X136653431Y-109349280D01*
X136811000Y-108968874D01*
X136811000Y-108557126D01*
X136653431Y-108176720D01*
X136362280Y-107885569D01*
X135981874Y-107728000D01*
X135570126Y-107728000D01*
X135189720Y-107885569D01*
X135101747Y-107973542D01*
X134875844Y-107747639D01*
X134609691Y-107637395D01*
X138064426Y-107637395D01*
X138064426Y-108049143D01*
X138221995Y-108429549D01*
X138513146Y-108720700D01*
X138893552Y-108878269D01*
X139305300Y-108878269D01*
X139570314Y-108768497D01*
X139894392Y-108902734D01*
X140306140Y-108902734D01*
X140686546Y-108745165D01*
X140977697Y-108454014D01*
X141135266Y-108073608D01*
X141135266Y-107661860D01*
X140977697Y-107281454D01*
X140686546Y-106990303D01*
X140306140Y-106832734D01*
X139894392Y-106832734D01*
X139629378Y-106942506D01*
X139305300Y-106808269D01*
X138893552Y-106808269D01*
X138513146Y-106965838D01*
X138221995Y-107256989D01*
X138064426Y-107637395D01*
X134609691Y-107637395D01*
X134495438Y-107590070D01*
X134083690Y-107590070D01*
X133703284Y-107747639D01*
X133412133Y-108038790D01*
X133254564Y-108419196D01*
X131350000Y-108419196D01*
X131192431Y-108038790D01*
X130901280Y-107747639D01*
X130520874Y-107590070D01*
X130109126Y-107590070D01*
X129728720Y-107747639D01*
X129437569Y-108038790D01*
X129312077Y-108341755D01*
X128989418Y-108126161D01*
X128556256Y-108040000D01*
X128263744Y-108040000D01*
X127830582Y-108126161D01*
X127339375Y-108454375D01*
X127324904Y-108476033D01*
X127258327Y-108315302D01*
X127079699Y-108136673D01*
X126846310Y-108040000D01*
X126155750Y-108040000D01*
X125997000Y-108198750D01*
X125997000Y-109398000D01*
X126017000Y-109398000D01*
X126017000Y-109652000D01*
X125997000Y-109652000D01*
X125997000Y-110851250D01*
X126135333Y-110989583D01*
X122922440Y-111554218D01*
X122922440Y-110580000D01*
X122873157Y-110332235D01*
X122732809Y-110122191D01*
X122522765Y-109981843D01*
X122477381Y-109972816D01*
X122495625Y-109960625D01*
X122595768Y-109810750D01*
X124385000Y-109810750D01*
X124385000Y-110501309D01*
X124481673Y-110734698D01*
X124660301Y-110913327D01*
X124893690Y-111010000D01*
X125584250Y-111010000D01*
X125743000Y-110851250D01*
X125743000Y-109652000D01*
X124543750Y-109652000D01*
X124385000Y-109810750D01*
X122595768Y-109810750D01*
X122823839Y-109469418D01*
X122939092Y-108890000D01*
X122871202Y-108548691D01*
X124385000Y-108548691D01*
X124385000Y-109239250D01*
X124543750Y-109398000D01*
X125743000Y-109398000D01*
X125743000Y-108198750D01*
X125584250Y-108040000D01*
X124893690Y-108040000D01*
X124660301Y-108136673D01*
X124481673Y-108315302D01*
X124385000Y-108548691D01*
X122871202Y-108548691D01*
X122823839Y-108310582D01*
X122495625Y-107819375D01*
X122197239Y-107620000D01*
X122495625Y-107420625D01*
X122823839Y-106929418D01*
X122939092Y-106350000D01*
X122823839Y-105770582D01*
X122575561Y-105399007D01*
X132208872Y-105399007D01*
X132208872Y-105810755D01*
X132366441Y-106191161D01*
X132657592Y-106482312D01*
X133037998Y-106639881D01*
X133449746Y-106639881D01*
X133767997Y-106508057D01*
X143086000Y-106508057D01*
X143086000Y-106919805D01*
X143243569Y-107300211D01*
X143534720Y-107591362D01*
X143915126Y-107748931D01*
X144061000Y-107748931D01*
X144061000Y-108077394D01*
X144218569Y-108457800D01*
X144509720Y-108748951D01*
X144890126Y-108906520D01*
X145301874Y-108906520D01*
X145682280Y-108748951D01*
X145973431Y-108457800D01*
X146053285Y-108265015D01*
X146201570Y-108623008D01*
X146492721Y-108914159D01*
X146873127Y-109071728D01*
X147284875Y-109071728D01*
X147665281Y-108914159D01*
X147956432Y-108623008D01*
X148015261Y-108480982D01*
X148015261Y-108640875D01*
X148172830Y-109021281D01*
X148463981Y-109312432D01*
X148844387Y-109470001D01*
X149106000Y-109470001D01*
X149370531Y-109734532D01*
X149564946Y-109815061D01*
X149564946Y-109844631D01*
X149722515Y-110225037D01*
X150013666Y-110516188D01*
X150394072Y-110673757D01*
X150805820Y-110673757D01*
X151186226Y-110516188D01*
X151477377Y-110225037D01*
X151627054Y-109863684D01*
X151721374Y-109902752D01*
X152133122Y-109902752D01*
X152513528Y-109745183D01*
X152804679Y-109454032D01*
X152962248Y-109073626D01*
X152962248Y-108872253D01*
X158078481Y-108872253D01*
X158078481Y-109284001D01*
X158236050Y-109664407D01*
X158527201Y-109955558D01*
X158907607Y-110113127D01*
X159319355Y-110113127D01*
X159699761Y-109955558D01*
X159990912Y-109664407D01*
X160148481Y-109284001D01*
X160148481Y-108872253D01*
X160005887Y-108528000D01*
X160019366Y-108528000D01*
X160399772Y-108370431D01*
X160690923Y-108079280D01*
X160733968Y-107975358D01*
X161128440Y-107975358D01*
X161128440Y-108387106D01*
X161286009Y-108767512D01*
X161577160Y-109058663D01*
X161957566Y-109216232D01*
X162369314Y-109216232D01*
X162517246Y-109154957D01*
X162621720Y-109259431D01*
X163002126Y-109417000D01*
X163413874Y-109417000D01*
X163432883Y-109409126D01*
X164840000Y-109409126D01*
X164840000Y-109820874D01*
X164997569Y-110201280D01*
X165288720Y-110492431D01*
X165669126Y-110650000D01*
X166080874Y-110650000D01*
X166461280Y-110492431D01*
X166752431Y-110201280D01*
X166910000Y-109820874D01*
X166910000Y-109525000D01*
X170075908Y-109525000D01*
X170191161Y-110104418D01*
X170519375Y-110595625D01*
X171010582Y-110923839D01*
X171443744Y-111010000D01*
X171736256Y-111010000D01*
X172169418Y-110923839D01*
X172660625Y-110595625D01*
X172672816Y-110577381D01*
X172681843Y-110622765D01*
X172822191Y-110832809D01*
X173032235Y-110973157D01*
X173280000Y-111022440D01*
X174980000Y-111022440D01*
X175227765Y-110973157D01*
X175437809Y-110832809D01*
X175578157Y-110622765D01*
X175627440Y-110375000D01*
X175627440Y-108675000D01*
X175578157Y-108427235D01*
X175437809Y-108217191D01*
X175227765Y-108076843D01*
X174980000Y-108027560D01*
X173280000Y-108027560D01*
X173032235Y-108076843D01*
X172822191Y-108217191D01*
X172681843Y-108427235D01*
X172672816Y-108472619D01*
X172660625Y-108454375D01*
X172169418Y-108126161D01*
X171736256Y-108040000D01*
X171443744Y-108040000D01*
X171010582Y-108126161D01*
X170519375Y-108454375D01*
X170191161Y-108945582D01*
X170075908Y-109525000D01*
X166910000Y-109525000D01*
X166910000Y-109409126D01*
X166752431Y-109028720D01*
X166461280Y-108737569D01*
X166080874Y-108580000D01*
X165669126Y-108580000D01*
X165288720Y-108737569D01*
X164997569Y-109028720D01*
X164840000Y-109409126D01*
X163432883Y-109409126D01*
X163794280Y-109259431D01*
X164085431Y-108968280D01*
X164243000Y-108587874D01*
X164243000Y-108176126D01*
X164085431Y-107795720D01*
X163794280Y-107504569D01*
X163413874Y-107347000D01*
X163002126Y-107347000D01*
X162854194Y-107408275D01*
X162749720Y-107303801D01*
X162369314Y-107146232D01*
X161957566Y-107146232D01*
X161577160Y-107303801D01*
X161286009Y-107594952D01*
X161128440Y-107975358D01*
X160733968Y-107975358D01*
X160848492Y-107698874D01*
X160848492Y-107287126D01*
X160690923Y-106906720D01*
X160399772Y-106615569D01*
X160019366Y-106458000D01*
X159607618Y-106458000D01*
X159227212Y-106615569D01*
X158936061Y-106906720D01*
X158778492Y-107287126D01*
X158778492Y-107698874D01*
X158921086Y-108043127D01*
X158907607Y-108043127D01*
X158527201Y-108200696D01*
X158236050Y-108491847D01*
X158078481Y-108872253D01*
X152962248Y-108872253D01*
X152962248Y-108661878D01*
X152854785Y-108402439D01*
X153149338Y-108280431D01*
X153440489Y-107989280D01*
X153598058Y-107608874D01*
X153598058Y-107197126D01*
X153440489Y-106816720D01*
X153149338Y-106525569D01*
X152768932Y-106368000D01*
X152357184Y-106368000D01*
X152102018Y-106473693D01*
X152274431Y-106301280D01*
X152432000Y-105920874D01*
X152432000Y-105509126D01*
X152274431Y-105128720D01*
X151983280Y-104837569D01*
X151602874Y-104680000D01*
X151191126Y-104680000D01*
X150810720Y-104837569D01*
X150519569Y-105128720D01*
X150362000Y-105509126D01*
X150362000Y-105920874D01*
X150519569Y-106301280D01*
X150559593Y-106341304D01*
X150410256Y-106341304D01*
X150029850Y-106498873D01*
X149940094Y-106588629D01*
X149861431Y-106398720D01*
X149570280Y-106107569D01*
X149189874Y-105950000D01*
X148778126Y-105950000D01*
X148397720Y-106107569D01*
X148106569Y-106398720D01*
X148063105Y-106503652D01*
X147956432Y-106246120D01*
X147665281Y-105954969D01*
X147284875Y-105797400D01*
X146873127Y-105797400D01*
X146492721Y-105954969D01*
X146201570Y-106246120D01*
X146114737Y-106455754D01*
X146114737Y-106223759D01*
X145957168Y-105843353D01*
X145666017Y-105552202D01*
X145285611Y-105394633D01*
X144873863Y-105394633D01*
X144493457Y-105552202D01*
X144355055Y-105690604D01*
X144326874Y-105678931D01*
X143915126Y-105678931D01*
X143534720Y-105836500D01*
X143243569Y-106127651D01*
X143086000Y-106508057D01*
X133767997Y-106508057D01*
X133830152Y-106482312D01*
X133893396Y-106419068D01*
X134079126Y-106496000D01*
X134490874Y-106496000D01*
X134871280Y-106338431D01*
X135162431Y-106047280D01*
X135320000Y-105666874D01*
X135320000Y-105255126D01*
X135162431Y-104874720D01*
X134871280Y-104583569D01*
X134490874Y-104426000D01*
X134079126Y-104426000D01*
X133698720Y-104583569D01*
X133635476Y-104646813D01*
X133449746Y-104569881D01*
X133037998Y-104569881D01*
X132657592Y-104727450D01*
X132366441Y-105018601D01*
X132208872Y-105399007D01*
X122575561Y-105399007D01*
X122495625Y-105279375D01*
X122197239Y-105080000D01*
X122495625Y-104880625D01*
X122823839Y-104389418D01*
X122939092Y-103810000D01*
X122823839Y-103230582D01*
X122495625Y-102739375D01*
X122197239Y-102540000D01*
X122495625Y-102340625D01*
X122584826Y-102207126D01*
X124040990Y-102207126D01*
X124040990Y-102618874D01*
X124198559Y-102999280D01*
X124489710Y-103290431D01*
X124870116Y-103448000D01*
X125281864Y-103448000D01*
X125524064Y-103347678D01*
X125537568Y-103380280D01*
X125828719Y-103671431D01*
X126209125Y-103829000D01*
X126620873Y-103829000D01*
X127001279Y-103671431D01*
X127292430Y-103380280D01*
X127449999Y-102999874D01*
X127449999Y-102588126D01*
X127292430Y-102207720D01*
X127094710Y-102010000D01*
X127345874Y-102010000D01*
X127726280Y-101852431D01*
X127946177Y-101632534D01*
X127946177Y-101902726D01*
X128036458Y-102120685D01*
X127973052Y-102146949D01*
X127681901Y-102438100D01*
X127524332Y-102818506D01*
X127524332Y-103230254D01*
X127681901Y-103610660D01*
X127973052Y-103901811D01*
X128353458Y-104059380D01*
X128765206Y-104059380D01*
X129145612Y-103901811D01*
X129436763Y-103610660D01*
X129594332Y-103230254D01*
X129594332Y-102818506D01*
X129504051Y-102600547D01*
X129567457Y-102574283D01*
X129858608Y-102283132D01*
X130016177Y-101902726D01*
X130016177Y-101490978D01*
X129858608Y-101110572D01*
X129567457Y-100819421D01*
X129187051Y-100661852D01*
X128775303Y-100661852D01*
X128394897Y-100819421D01*
X128175000Y-101039318D01*
X128175000Y-100769126D01*
X128017431Y-100388720D01*
X127726280Y-100097569D01*
X127345874Y-99940000D01*
X126934126Y-99940000D01*
X126553720Y-100097569D01*
X126262569Y-100388720D01*
X126105000Y-100769126D01*
X126105000Y-101180874D01*
X126262569Y-101561280D01*
X126460289Y-101759000D01*
X126209125Y-101759000D01*
X125966925Y-101859322D01*
X125953421Y-101826720D01*
X125662270Y-101535569D01*
X125281864Y-101378000D01*
X124870116Y-101378000D01*
X124489710Y-101535569D01*
X124198559Y-101826720D01*
X124040990Y-102207126D01*
X122584826Y-102207126D01*
X122823839Y-101849418D01*
X122939092Y-101270000D01*
X122823839Y-100690582D01*
X122495625Y-100199375D01*
X122197239Y-100000000D01*
X122495625Y-99800625D01*
X122823839Y-99309418D01*
X122939092Y-98730000D01*
X122823839Y-98150582D01*
X122495625Y-97659375D01*
X122197239Y-97460000D01*
X122495625Y-97260625D01*
X122823839Y-96769418D01*
X122904257Y-96365126D01*
X125216000Y-96365126D01*
X125216000Y-96776874D01*
X125373569Y-97157280D01*
X125664720Y-97448431D01*
X126045126Y-97606000D01*
X126434289Y-97606000D01*
X126680720Y-97852431D01*
X126867000Y-97929591D01*
X126867000Y-98300874D01*
X127024569Y-98681280D01*
X127315720Y-98972431D01*
X127696126Y-99130000D01*
X128090409Y-99130000D01*
X128167569Y-99316280D01*
X128458720Y-99607431D01*
X128839126Y-99765000D01*
X129250874Y-99765000D01*
X129631280Y-99607431D01*
X129728076Y-99510635D01*
X139673065Y-99510635D01*
X139673065Y-99922383D01*
X139830634Y-100302789D01*
X139908859Y-100381014D01*
X139821000Y-100593125D01*
X139821000Y-101004873D01*
X139978569Y-101385279D01*
X140269720Y-101676430D01*
X140303759Y-101690530D01*
X140105569Y-101888720D01*
X139948000Y-102269126D01*
X139948000Y-102680874D01*
X140105569Y-103061280D01*
X140396720Y-103352431D01*
X140777126Y-103510000D01*
X140861686Y-103510000D01*
X140763756Y-103550564D01*
X140472605Y-103841715D01*
X140315036Y-104222121D01*
X140315036Y-104633869D01*
X140472605Y-105014275D01*
X140763756Y-105305426D01*
X141144162Y-105462995D01*
X141555910Y-105462995D01*
X141936316Y-105305426D01*
X142227467Y-105014275D01*
X142306994Y-104822281D01*
X142511155Y-105026442D01*
X142891561Y-105184011D01*
X143303309Y-105184011D01*
X143683715Y-105026442D01*
X143927827Y-104782330D01*
X144079126Y-104845000D01*
X144490874Y-104845000D01*
X144871280Y-104687431D01*
X145162431Y-104396280D01*
X145320000Y-104015874D01*
X145320000Y-103604126D01*
X145162431Y-103223720D01*
X144907837Y-102969126D01*
X148330000Y-102969126D01*
X148330000Y-103380874D01*
X148487569Y-103761280D01*
X148778720Y-104052431D01*
X148856130Y-104084495D01*
X148856130Y-104396874D01*
X149013699Y-104777280D01*
X149304850Y-105068431D01*
X149685256Y-105226000D01*
X150097004Y-105226000D01*
X150477410Y-105068431D01*
X150768561Y-104777280D01*
X150926130Y-104396874D01*
X150926130Y-103985126D01*
X150878333Y-103869732D01*
X154008000Y-103869732D01*
X154008000Y-104281480D01*
X154129831Y-104575607D01*
X154008000Y-104869735D01*
X154008000Y-105281483D01*
X154165569Y-105661889D01*
X154214600Y-105710920D01*
X154153206Y-105859137D01*
X154153206Y-106270885D01*
X154310775Y-106651291D01*
X154601926Y-106942442D01*
X154982332Y-107100011D01*
X155394080Y-107100011D01*
X155774486Y-106942442D01*
X156065637Y-106651291D01*
X156223206Y-106270885D01*
X156223206Y-105859137D01*
X156196662Y-105795053D01*
X160728833Y-105795053D01*
X160728833Y-106206801D01*
X160886402Y-106587207D01*
X161177553Y-106878358D01*
X161557959Y-107035927D01*
X161969707Y-107035927D01*
X162350113Y-106878358D01*
X162641264Y-106587207D01*
X162798833Y-106206801D01*
X162798833Y-105795053D01*
X162653194Y-105443448D01*
X164958871Y-105443448D01*
X164958871Y-105855196D01*
X165116440Y-106235602D01*
X165407591Y-106526753D01*
X165787997Y-106684322D01*
X166199745Y-106684322D01*
X166367853Y-106614689D01*
X166400318Y-106647154D01*
X166780724Y-106804723D01*
X167192472Y-106804723D01*
X167572878Y-106647154D01*
X167864029Y-106356003D01*
X168021598Y-105975597D01*
X168021598Y-105563849D01*
X167864029Y-105183443D01*
X167572878Y-104892292D01*
X167192472Y-104734723D01*
X166780724Y-104734723D01*
X166612616Y-104804356D01*
X166580151Y-104771891D01*
X166199745Y-104614322D01*
X165787997Y-104614322D01*
X165407591Y-104771891D01*
X165116440Y-105063042D01*
X164958871Y-105443448D01*
X162653194Y-105443448D01*
X162641264Y-105414647D01*
X162350113Y-105123496D01*
X161969707Y-104965927D01*
X161557959Y-104965927D01*
X161177553Y-105123496D01*
X160886402Y-105414647D01*
X160728833Y-105795053D01*
X156196662Y-105795053D01*
X156065637Y-105478731D01*
X156016606Y-105429700D01*
X156021024Y-105419037D01*
X156034569Y-105432582D01*
X156414975Y-105590151D01*
X156826723Y-105590151D01*
X157207129Y-105432582D01*
X157429500Y-105210211D01*
X157530784Y-105311495D01*
X157911190Y-105469064D01*
X158322938Y-105469064D01*
X158703344Y-105311495D01*
X158994495Y-105020344D01*
X159152064Y-104639938D01*
X159152064Y-104228190D01*
X158994495Y-103847784D01*
X158763717Y-103617006D01*
X158836442Y-103544280D01*
X158994011Y-103163874D01*
X158994011Y-102997403D01*
X159217627Y-102904778D01*
X159508778Y-102613627D01*
X159666347Y-102233221D01*
X159666347Y-101821473D01*
X159508778Y-101441067D01*
X159217627Y-101149916D01*
X159010512Y-101064126D01*
X169920000Y-101064126D01*
X169920000Y-101475874D01*
X170077569Y-101856280D01*
X170368720Y-102147431D01*
X170749126Y-102305000D01*
X171160874Y-102305000D01*
X171340773Y-102230484D01*
X171483641Y-102373352D01*
X171412055Y-102546175D01*
X171412055Y-102957923D01*
X171569624Y-103338329D01*
X171860775Y-103629480D01*
X172140416Y-103745311D01*
X172268217Y-104053850D01*
X172559368Y-104345001D01*
X172939774Y-104502570D01*
X173351522Y-104502570D01*
X173731928Y-104345001D01*
X174023079Y-104053850D01*
X174180648Y-103673444D01*
X174180648Y-103261696D01*
X174023079Y-102881290D01*
X173731928Y-102590139D01*
X173452287Y-102474308D01*
X173324486Y-102165769D01*
X173061414Y-101902697D01*
X173133000Y-101729874D01*
X173133000Y-101318126D01*
X172975431Y-100937720D01*
X172684280Y-100646569D01*
X172303874Y-100489000D01*
X171892126Y-100489000D01*
X171712227Y-100563516D01*
X171541280Y-100392569D01*
X171160874Y-100235000D01*
X170749126Y-100235000D01*
X170368720Y-100392569D01*
X170077569Y-100683720D01*
X169920000Y-101064126D01*
X159010512Y-101064126D01*
X158837221Y-100992347D01*
X158425473Y-100992347D01*
X158045067Y-101149916D01*
X157909709Y-101285274D01*
X157971535Y-101136012D01*
X157971535Y-100724264D01*
X157966870Y-100713001D01*
X158140412Y-100539459D01*
X158297981Y-100159053D01*
X158297981Y-99747305D01*
X158140412Y-99366899D01*
X157849261Y-99075748D01*
X157468855Y-98918179D01*
X157057107Y-98918179D01*
X156676701Y-99075748D01*
X156385550Y-99366899D01*
X156227981Y-99747305D01*
X156227981Y-100159053D01*
X156232646Y-100170316D01*
X156059104Y-100343858D01*
X155901535Y-100724264D01*
X155901535Y-100861308D01*
X155806750Y-100900569D01*
X155515599Y-101191720D01*
X155358030Y-101572126D01*
X155358030Y-101983874D01*
X155515599Y-102364280D01*
X155806750Y-102655431D01*
X156187156Y-102813000D01*
X156598904Y-102813000D01*
X156960906Y-102663054D01*
X156924011Y-102752126D01*
X156924011Y-103163874D01*
X157081580Y-103544280D01*
X157312359Y-103775059D01*
X157308413Y-103779004D01*
X157207129Y-103677720D01*
X156826723Y-103520151D01*
X156414975Y-103520151D01*
X156034569Y-103677720D01*
X156009040Y-103703249D01*
X155920431Y-103489326D01*
X155629280Y-103198175D01*
X155248874Y-103040606D01*
X154837126Y-103040606D01*
X154456720Y-103198175D01*
X154165569Y-103489326D01*
X154008000Y-103869732D01*
X150878333Y-103869732D01*
X150768561Y-103604720D01*
X150477410Y-103313569D01*
X150400000Y-103281505D01*
X150400000Y-102969126D01*
X150242431Y-102588720D01*
X150061919Y-102408208D01*
X150078280Y-102401431D01*
X150369431Y-102110280D01*
X150527000Y-101729874D01*
X150527000Y-101318126D01*
X150369431Y-100937720D01*
X150078280Y-100646569D01*
X149697874Y-100489000D01*
X149286126Y-100489000D01*
X148905720Y-100646569D01*
X148614569Y-100937720D01*
X148457000Y-101318126D01*
X148457000Y-101729874D01*
X148614569Y-102110280D01*
X148795081Y-102290792D01*
X148778720Y-102297569D01*
X148487569Y-102588720D01*
X148330000Y-102969126D01*
X144907837Y-102969126D01*
X144871280Y-102932569D01*
X144490874Y-102775000D01*
X144079126Y-102775000D01*
X143698720Y-102932569D01*
X143454608Y-103176681D01*
X143303309Y-103114011D01*
X142891561Y-103114011D01*
X142511155Y-103271580D01*
X142220004Y-103562731D01*
X142140477Y-103754725D01*
X141936316Y-103550564D01*
X141555910Y-103392995D01*
X141471350Y-103392995D01*
X141569280Y-103352431D01*
X141757626Y-103164085D01*
X142047126Y-103284000D01*
X142458874Y-103284000D01*
X142839280Y-103126431D01*
X143130431Y-102835280D01*
X143288000Y-102454874D01*
X143288000Y-102043126D01*
X143130431Y-101662720D01*
X142839280Y-101371569D01*
X142770490Y-101343075D01*
X142786431Y-101327134D01*
X142944000Y-100946728D01*
X142944000Y-100918943D01*
X143171792Y-100824589D01*
X143462943Y-100533438D01*
X143620512Y-100153032D01*
X143620512Y-99741284D01*
X143590274Y-99668284D01*
X143697278Y-99561280D01*
X143811250Y-99286126D01*
X144901000Y-99286126D01*
X144901000Y-99697874D01*
X145058569Y-100078280D01*
X145349720Y-100369431D01*
X145730126Y-100527000D01*
X146141874Y-100527000D01*
X146229415Y-100490739D01*
X146229415Y-100521995D01*
X146386984Y-100902401D01*
X146678135Y-101193552D01*
X147058541Y-101351121D01*
X147470289Y-101351121D01*
X147850695Y-101193552D01*
X148141846Y-100902401D01*
X148299415Y-100521995D01*
X148299415Y-100110247D01*
X148141846Y-99729841D01*
X147850695Y-99438690D01*
X147470289Y-99281121D01*
X147058541Y-99281121D01*
X146971000Y-99317382D01*
X146971000Y-99286126D01*
X146918395Y-99159126D01*
X151505000Y-99159126D01*
X151505000Y-99570874D01*
X151626831Y-99865002D01*
X151505000Y-100159129D01*
X151505000Y-100570877D01*
X151662569Y-100951283D01*
X151953720Y-101242434D01*
X152334126Y-101400003D01*
X152745874Y-101400003D01*
X153126280Y-101242434D01*
X153417431Y-100951283D01*
X153575000Y-100570877D01*
X153575000Y-100159129D01*
X153453169Y-99865002D01*
X153575000Y-99570874D01*
X153575000Y-99159126D01*
X153417431Y-98778720D01*
X153126280Y-98487569D01*
X152745874Y-98330000D01*
X152334126Y-98330000D01*
X151953720Y-98487569D01*
X151662569Y-98778720D01*
X151505000Y-99159126D01*
X146918395Y-99159126D01*
X146813431Y-98905720D01*
X146522280Y-98614569D01*
X146141874Y-98457000D01*
X145730126Y-98457000D01*
X145349720Y-98614569D01*
X145058569Y-98905720D01*
X144901000Y-99286126D01*
X143811250Y-99286126D01*
X143854847Y-99180874D01*
X143854847Y-98769126D01*
X143697278Y-98388720D01*
X143515989Y-98207431D01*
X169916758Y-98207431D01*
X169916758Y-98619179D01*
X170074327Y-98999585D01*
X170365478Y-99290736D01*
X170745884Y-99448305D01*
X171157632Y-99448305D01*
X171538038Y-99290736D01*
X171829189Y-98999585D01*
X171840289Y-98972786D01*
X171982569Y-99316280D01*
X172273720Y-99607431D01*
X172654126Y-99765000D01*
X173065874Y-99765000D01*
X173446280Y-99607431D01*
X173737431Y-99316280D01*
X173895000Y-98935874D01*
X173895000Y-98524126D01*
X173737431Y-98143720D01*
X173446280Y-97852569D01*
X173065874Y-97695000D01*
X172654126Y-97695000D01*
X172273720Y-97852569D01*
X171982569Y-98143720D01*
X171971469Y-98170519D01*
X171870031Y-97925626D01*
X171996944Y-97619229D01*
X171996944Y-97207481D01*
X171839375Y-96827075D01*
X171548224Y-96535924D01*
X171167818Y-96378355D01*
X170756070Y-96378355D01*
X170375664Y-96535924D01*
X170084513Y-96827075D01*
X169926944Y-97207481D01*
X169926944Y-97619229D01*
X170043671Y-97901034D01*
X169916758Y-98207431D01*
X143515989Y-98207431D01*
X143406127Y-98097569D01*
X143025721Y-97940000D01*
X142613973Y-97940000D01*
X142233567Y-98097569D01*
X141942416Y-98388720D01*
X141784847Y-98769126D01*
X141784847Y-99180874D01*
X141815085Y-99253874D01*
X141708081Y-99360878D01*
X141694557Y-99393527D01*
X141585496Y-99130229D01*
X141294345Y-98839078D01*
X140913939Y-98681509D01*
X140502191Y-98681509D01*
X140121785Y-98839078D01*
X139830634Y-99130229D01*
X139673065Y-99510635D01*
X129728076Y-99510635D01*
X129922431Y-99316280D01*
X130080000Y-98935874D01*
X130080000Y-98524126D01*
X129922431Y-98143720D01*
X129631280Y-97852569D01*
X129250874Y-97695000D01*
X128856591Y-97695000D01*
X128779431Y-97508720D01*
X128488280Y-97217569D01*
X128302000Y-97140409D01*
X128302000Y-96769126D01*
X128144431Y-96388720D01*
X127853280Y-96097569D01*
X127472874Y-95940000D01*
X127083711Y-95940000D01*
X126900042Y-95756331D01*
X139833430Y-95756331D01*
X139833430Y-96168079D01*
X139990999Y-96548485D01*
X140282150Y-96839636D01*
X140662556Y-96997205D01*
X141074304Y-96997205D01*
X141454710Y-96839636D01*
X141745861Y-96548485D01*
X141860191Y-96272467D01*
X142172314Y-96143182D01*
X142463465Y-95852031D01*
X142587397Y-95552832D01*
X144436669Y-95552832D01*
X144436669Y-95964580D01*
X144594238Y-96344986D01*
X144885389Y-96636137D01*
X145265795Y-96793706D01*
X145677543Y-96793706D01*
X146057949Y-96636137D01*
X146349100Y-96344986D01*
X146445967Y-96111126D01*
X148457000Y-96111126D01*
X148457000Y-96522874D01*
X148614569Y-96903280D01*
X148905720Y-97194431D01*
X149286126Y-97352000D01*
X149697874Y-97352000D01*
X150078280Y-97194431D01*
X150369431Y-96903280D01*
X150527000Y-96522874D01*
X150527000Y-96402126D01*
X153664000Y-96402126D01*
X153664000Y-96813874D01*
X153821569Y-97194280D01*
X154112720Y-97485431D01*
X154493126Y-97643000D01*
X154904874Y-97643000D01*
X155285280Y-97485431D01*
X155576431Y-97194280D01*
X155631531Y-97061256D01*
X155718249Y-97061256D01*
X156098655Y-96903687D01*
X156321224Y-96681118D01*
X156643180Y-96681118D01*
X157023586Y-96523549D01*
X157314737Y-96232398D01*
X157397025Y-96033736D01*
X157414720Y-96051431D01*
X157795126Y-96209000D01*
X158206874Y-96209000D01*
X158587280Y-96051431D01*
X158878431Y-95760280D01*
X159036000Y-95379874D01*
X159036000Y-94968126D01*
X158878431Y-94587720D01*
X158587280Y-94296569D01*
X158517767Y-94267776D01*
X158517767Y-94079126D01*
X158360198Y-93698720D01*
X158069047Y-93407569D01*
X157688641Y-93250000D01*
X157276893Y-93250000D01*
X156896487Y-93407569D01*
X156605336Y-93698720D01*
X156447767Y-94079126D01*
X156447767Y-94490874D01*
X156497574Y-94611118D01*
X156231432Y-94611118D01*
X155851026Y-94768687D01*
X155628457Y-94991256D01*
X155306501Y-94991256D01*
X154926095Y-95148825D01*
X154634944Y-95439976D01*
X154579844Y-95573000D01*
X154493126Y-95573000D01*
X154112720Y-95730569D01*
X153821569Y-96021720D01*
X153664000Y-96402126D01*
X150527000Y-96402126D01*
X150527000Y-96111126D01*
X150369431Y-95730720D01*
X150078280Y-95439569D01*
X149697874Y-95282000D01*
X149286126Y-95282000D01*
X148905720Y-95439569D01*
X148614569Y-95730720D01*
X148457000Y-96111126D01*
X146445967Y-96111126D01*
X146462905Y-96070236D01*
X146776280Y-95940432D01*
X147067431Y-95649281D01*
X147225000Y-95268875D01*
X147225000Y-94857127D01*
X147067431Y-94476721D01*
X146776280Y-94185570D01*
X146395874Y-94028001D01*
X145984126Y-94028001D01*
X145603720Y-94185570D01*
X145312569Y-94476721D01*
X145198764Y-94751471D01*
X144885389Y-94881275D01*
X144594238Y-95172426D01*
X144436669Y-95552832D01*
X142587397Y-95552832D01*
X142621034Y-95471625D01*
X142621034Y-95059877D01*
X142463465Y-94679471D01*
X142172314Y-94388320D01*
X141791908Y-94230751D01*
X141380160Y-94230751D01*
X140999754Y-94388320D01*
X140708603Y-94679471D01*
X140594273Y-94955489D01*
X140282150Y-95084774D01*
X139990999Y-95375925D01*
X139833430Y-95756331D01*
X126900042Y-95756331D01*
X126837280Y-95693569D01*
X126456874Y-95536000D01*
X126045126Y-95536000D01*
X125664720Y-95693569D01*
X125373569Y-95984720D01*
X125216000Y-96365126D01*
X122904257Y-96365126D01*
X122939092Y-96190000D01*
X122823839Y-95610582D01*
X122495625Y-95119375D01*
X122197239Y-94920000D01*
X122495625Y-94720625D01*
X122823839Y-94229418D01*
X122832022Y-94188277D01*
X132105429Y-94188277D01*
X132105429Y-94600025D01*
X132262998Y-94980431D01*
X132554149Y-95271582D01*
X132934555Y-95429151D01*
X133346303Y-95429151D01*
X133604494Y-95322205D01*
X133698720Y-95416431D01*
X134079126Y-95574000D01*
X134490874Y-95574000D01*
X134871280Y-95416431D01*
X135162431Y-95125280D01*
X135320000Y-94744874D01*
X135320000Y-94333126D01*
X135162431Y-93952720D01*
X135078827Y-93869116D01*
X137432564Y-93869116D01*
X137432564Y-94280864D01*
X137590133Y-94661270D01*
X137881284Y-94952421D01*
X138261690Y-95109990D01*
X138673438Y-95109990D01*
X139053844Y-94952421D01*
X139344995Y-94661270D01*
X139502564Y-94280864D01*
X139502564Y-93869116D01*
X139344995Y-93488710D01*
X139053844Y-93197559D01*
X138673438Y-93039990D01*
X138261690Y-93039990D01*
X137881284Y-93197559D01*
X137590133Y-93488710D01*
X137432564Y-93869116D01*
X135078827Y-93869116D01*
X134871280Y-93661569D01*
X134490874Y-93504000D01*
X134079126Y-93504000D01*
X133820935Y-93610946D01*
X133726709Y-93516720D01*
X133346303Y-93359151D01*
X132934555Y-93359151D01*
X132554149Y-93516720D01*
X132262998Y-93807871D01*
X132105429Y-94188277D01*
X122832022Y-94188277D01*
X122939092Y-93650000D01*
X122823839Y-93070582D01*
X122495625Y-92579375D01*
X122323721Y-92464512D01*
X143723181Y-92464512D01*
X143723181Y-92876260D01*
X143880750Y-93256666D01*
X144171901Y-93547817D01*
X144552307Y-93705386D01*
X144964055Y-93705386D01*
X145344461Y-93547817D01*
X145384695Y-93507583D01*
X145543559Y-93573386D01*
X145955307Y-93573386D01*
X146242649Y-93454365D01*
X146543544Y-93579000D01*
X146955292Y-93579000D01*
X147238979Y-93461493D01*
X148220368Y-93461493D01*
X148220368Y-93873241D01*
X148377937Y-94253647D01*
X148669088Y-94544798D01*
X149049494Y-94702367D01*
X149461242Y-94702367D01*
X149841648Y-94544798D01*
X150132799Y-94253647D01*
X150225883Y-94028923D01*
X150497562Y-94141456D01*
X150812290Y-94141456D01*
X151039970Y-94369136D01*
X151420376Y-94526705D01*
X151832124Y-94526705D01*
X152212530Y-94369136D01*
X152503681Y-94077985D01*
X152598851Y-93848224D01*
X152870612Y-93960791D01*
X153278236Y-93960791D01*
X153278236Y-93993223D01*
X153435805Y-94373629D01*
X153726956Y-94664780D01*
X154107362Y-94822349D01*
X154519110Y-94822349D01*
X154899516Y-94664780D01*
X155190667Y-94373629D01*
X155348236Y-93993223D01*
X155348236Y-93725846D01*
X155608828Y-93465254D01*
X155766397Y-93084848D01*
X155766397Y-92809126D01*
X159506000Y-92809126D01*
X159506000Y-93220874D01*
X159663569Y-93601280D01*
X159954720Y-93892431D01*
X160335126Y-94050000D01*
X160746874Y-94050000D01*
X161127280Y-93892431D01*
X161418431Y-93601280D01*
X161448113Y-93529621D01*
X161448113Y-93780822D01*
X161605682Y-94161228D01*
X161896833Y-94452379D01*
X162277239Y-94609948D01*
X162688987Y-94609948D01*
X163069393Y-94452379D01*
X163212187Y-94309585D01*
X164697712Y-94309585D01*
X164697712Y-94721333D01*
X164855281Y-95101739D01*
X165146432Y-95392890D01*
X165526838Y-95550459D01*
X165938586Y-95550459D01*
X166318992Y-95392890D01*
X166368677Y-95343205D01*
X166530941Y-95410417D01*
X166942689Y-95410417D01*
X167323095Y-95252848D01*
X167614246Y-94961697D01*
X167771815Y-94581291D01*
X167771815Y-94169543D01*
X167614246Y-93789137D01*
X167323095Y-93497986D01*
X166942689Y-93340417D01*
X166530941Y-93340417D01*
X166150535Y-93497986D01*
X166100850Y-93547671D01*
X165938586Y-93480459D01*
X165526838Y-93480459D01*
X165146432Y-93638028D01*
X164855281Y-93929179D01*
X164697712Y-94309585D01*
X163212187Y-94309585D01*
X163360544Y-94161228D01*
X163518113Y-93780822D01*
X163518113Y-93369074D01*
X163360544Y-92988668D01*
X163069393Y-92697517D01*
X162688987Y-92539948D01*
X162277239Y-92539948D01*
X161896833Y-92697517D01*
X161605682Y-92988668D01*
X161576000Y-93060327D01*
X161576000Y-92809126D01*
X161418431Y-92428720D01*
X161127280Y-92137569D01*
X160746874Y-91980000D01*
X160335126Y-91980000D01*
X159954720Y-92137569D01*
X159663569Y-92428720D01*
X159506000Y-92809126D01*
X155766397Y-92809126D01*
X155766397Y-92673100D01*
X155608828Y-92292694D01*
X155317677Y-92001543D01*
X155301178Y-91994709D01*
X155301178Y-91758528D01*
X155143609Y-91378122D01*
X154852458Y-91086971D01*
X154472052Y-90929402D01*
X154126029Y-90929402D01*
X154126029Y-90835369D01*
X153968460Y-90454963D01*
X153677309Y-90163812D01*
X153296903Y-90006243D01*
X152885155Y-90006243D01*
X152504749Y-90163812D01*
X152213598Y-90454963D01*
X152056029Y-90835369D01*
X152056029Y-91247117D01*
X152213598Y-91627523D01*
X152504749Y-91918674D01*
X152654023Y-91980505D01*
X152490206Y-92048360D01*
X152199055Y-92339511D01*
X152103885Y-92569272D01*
X151832124Y-92456705D01*
X151517396Y-92456705D01*
X151289716Y-92229025D01*
X150909310Y-92071456D01*
X150497562Y-92071456D01*
X150117156Y-92229025D01*
X149826005Y-92520176D01*
X149732921Y-92744900D01*
X149461242Y-92632367D01*
X149049494Y-92632367D01*
X148669088Y-92789936D01*
X148377937Y-93081087D01*
X148220368Y-93461493D01*
X147238979Y-93461493D01*
X147335698Y-93421431D01*
X147626849Y-93130280D01*
X147683617Y-92993229D01*
X147825675Y-92993229D01*
X148206081Y-92835660D01*
X148497232Y-92544509D01*
X148654801Y-92164103D01*
X148654801Y-91891553D01*
X148879768Y-92116520D01*
X149260174Y-92274089D01*
X149671922Y-92274089D01*
X150052328Y-92116520D01*
X150343479Y-91825369D01*
X150424771Y-91629112D01*
X150436127Y-91629112D01*
X150816533Y-91471543D01*
X151107684Y-91180392D01*
X151265253Y-90799986D01*
X151265253Y-90388238D01*
X151107684Y-90007832D01*
X150816533Y-89716681D01*
X150436127Y-89559112D01*
X150024379Y-89559112D01*
X149643973Y-89716681D01*
X149352822Y-90007832D01*
X149271530Y-90204089D01*
X149260174Y-90204089D01*
X148879768Y-90361658D01*
X148755416Y-90486010D01*
X148718431Y-90396720D01*
X148427280Y-90105569D01*
X148046874Y-89948000D01*
X147635126Y-89948000D01*
X147254720Y-90105569D01*
X146963569Y-90396720D01*
X146806000Y-90777126D01*
X146806000Y-91188874D01*
X146840985Y-91273334D01*
X146742370Y-91371949D01*
X146685602Y-91509000D01*
X146543544Y-91509000D01*
X146256202Y-91628021D01*
X146200225Y-91604834D01*
X146200225Y-91520906D01*
X146042656Y-91140500D01*
X145751505Y-90849349D01*
X145371099Y-90691780D01*
X144959351Y-90691780D01*
X144578945Y-90849349D01*
X144287794Y-91140500D01*
X144130225Y-91520906D01*
X144130225Y-91834631D01*
X143880750Y-92084106D01*
X143723181Y-92464512D01*
X122323721Y-92464512D01*
X122197239Y-92380000D01*
X122495625Y-92180625D01*
X122823839Y-91689418D01*
X122939092Y-91110000D01*
X122823839Y-90530582D01*
X122495625Y-90039375D01*
X122176522Y-89826157D01*
X122306358Y-89765183D01*
X122696645Y-89336924D01*
X122866476Y-88926890D01*
X122745155Y-88697000D01*
X121552000Y-88697000D01*
X121552000Y-88717000D01*
X121298000Y-88717000D01*
X121298000Y-88697000D01*
X121278000Y-88697000D01*
X121278000Y-88443000D01*
X121298000Y-88443000D01*
X121298000Y-88423000D01*
X121552000Y-88423000D01*
X121552000Y-88443000D01*
X122745155Y-88443000D01*
X122750842Y-88432223D01*
X124611249Y-88755997D01*
X124214124Y-88755997D01*
X123833718Y-88913566D01*
X123542567Y-89204717D01*
X123384998Y-89585123D01*
X123384998Y-89996871D01*
X123542567Y-90377277D01*
X123833718Y-90668428D01*
X124214124Y-90825997D01*
X124372560Y-90825997D01*
X124372560Y-91325000D01*
X124421843Y-91572765D01*
X124562191Y-91782809D01*
X124772235Y-91923157D01*
X125020000Y-91972440D01*
X126720000Y-91972440D01*
X126967765Y-91923157D01*
X127177809Y-91782809D01*
X127318157Y-91572765D01*
X127327184Y-91527381D01*
X127339375Y-91545625D01*
X127830582Y-91873839D01*
X128263744Y-91960000D01*
X128556256Y-91960000D01*
X128989418Y-91873839D01*
X129480625Y-91545625D01*
X129808839Y-91054418D01*
X129813472Y-91031126D01*
X130169000Y-91031126D01*
X130169000Y-91442874D01*
X130326569Y-91823280D01*
X130617720Y-92114431D01*
X130998126Y-92272000D01*
X131409874Y-92272000D01*
X131790280Y-92114431D01*
X132081431Y-91823280D01*
X132239000Y-91442874D01*
X132239000Y-91126347D01*
X134763473Y-91126347D01*
X134763473Y-91538095D01*
X134921042Y-91918501D01*
X135212193Y-92209652D01*
X135592599Y-92367221D01*
X136004347Y-92367221D01*
X136384753Y-92209652D01*
X136675904Y-91918501D01*
X136833473Y-91538095D01*
X136833473Y-91126347D01*
X136675904Y-90745941D01*
X136384753Y-90454790D01*
X136004347Y-90297221D01*
X135592599Y-90297221D01*
X135212193Y-90454790D01*
X134921042Y-90745941D01*
X134763473Y-91126347D01*
X132239000Y-91126347D01*
X132239000Y-91031126D01*
X132081431Y-90650720D01*
X131790280Y-90359569D01*
X131409874Y-90202000D01*
X130998126Y-90202000D01*
X130617720Y-90359569D01*
X130326569Y-90650720D01*
X130169000Y-91031126D01*
X129813472Y-91031126D01*
X129924092Y-90475000D01*
X129808839Y-89895582D01*
X129631134Y-89629628D01*
X132478225Y-90125119D01*
X132527764Y-90123928D01*
X132589803Y-90089803D01*
X132645481Y-90034125D01*
X141109999Y-90034125D01*
X141109999Y-90445873D01*
X141267568Y-90826279D01*
X141558719Y-91117430D01*
X141939125Y-91274999D01*
X142350873Y-91274999D01*
X142731279Y-91117430D01*
X143022430Y-90826279D01*
X143179999Y-90445873D01*
X143179999Y-90034125D01*
X143022430Y-89653719D01*
X142731279Y-89362568D01*
X142651026Y-89329326D01*
X156204000Y-89329326D01*
X156204000Y-89741074D01*
X156361569Y-90121480D01*
X156652720Y-90412631D01*
X157033126Y-90570200D01*
X157444874Y-90570200D01*
X157825280Y-90412631D01*
X158116431Y-90121480D01*
X158274000Y-89741074D01*
X158274000Y-89406511D01*
X158635286Y-89556160D01*
X159047034Y-89556160D01*
X159207771Y-89489581D01*
X159179210Y-89558534D01*
X159179210Y-89970282D01*
X159336779Y-90350688D01*
X159627930Y-90641839D01*
X160008336Y-90799408D01*
X160420084Y-90799408D01*
X160800490Y-90641839D01*
X161091641Y-90350688D01*
X161249210Y-89970282D01*
X161249210Y-89924653D01*
X162009473Y-89924653D01*
X162009473Y-90336401D01*
X162167042Y-90716807D01*
X162458193Y-91007958D01*
X162838599Y-91165527D01*
X163250347Y-91165527D01*
X163630753Y-91007958D01*
X163919663Y-90719048D01*
X164541583Y-90719048D01*
X164541583Y-91130796D01*
X164699152Y-91511202D01*
X164990303Y-91802353D01*
X165370709Y-91959922D01*
X165782457Y-91959922D01*
X165983133Y-91876800D01*
X166013569Y-91950280D01*
X166304720Y-92241431D01*
X166685126Y-92399000D01*
X167096874Y-92399000D01*
X167477280Y-92241431D01*
X167768431Y-91950280D01*
X167926000Y-91569874D01*
X167926000Y-91158126D01*
X167768431Y-90777720D01*
X167477280Y-90486569D01*
X167096874Y-90329000D01*
X166685126Y-90329000D01*
X166484450Y-90412122D01*
X166454014Y-90338642D01*
X166162863Y-90047491D01*
X165782457Y-89889922D01*
X165370709Y-89889922D01*
X164990303Y-90047491D01*
X164699152Y-90338642D01*
X164541583Y-90719048D01*
X163919663Y-90719048D01*
X163921904Y-90716807D01*
X164079473Y-90336401D01*
X164079473Y-89924653D01*
X163921904Y-89544247D01*
X163630753Y-89253096D01*
X163250347Y-89095527D01*
X162838599Y-89095527D01*
X162458193Y-89253096D01*
X162167042Y-89544247D01*
X162009473Y-89924653D01*
X161249210Y-89924653D01*
X161249210Y-89558534D01*
X161091641Y-89178128D01*
X160800490Y-88886977D01*
X160420084Y-88729408D01*
X160008336Y-88729408D01*
X159847599Y-88795987D01*
X159876160Y-88727034D01*
X159876160Y-88315286D01*
X159718591Y-87934880D01*
X159427440Y-87643729D01*
X159047034Y-87486160D01*
X158635286Y-87486160D01*
X158254880Y-87643729D01*
X157963729Y-87934880D01*
X157806160Y-88315286D01*
X157806160Y-88649849D01*
X157444874Y-88500200D01*
X157033126Y-88500200D01*
X156652720Y-88657769D01*
X156361569Y-88948920D01*
X156204000Y-89329326D01*
X142651026Y-89329326D01*
X142350873Y-89204999D01*
X141939125Y-89204999D01*
X141558719Y-89362568D01*
X141267568Y-89653719D01*
X141109999Y-90034125D01*
X132645481Y-90034125D01*
X135150480Y-87529126D01*
X154426000Y-87529126D01*
X154426000Y-87940874D01*
X154583569Y-88321280D01*
X154874720Y-88612431D01*
X155255126Y-88770000D01*
X155666874Y-88770000D01*
X156047280Y-88612431D01*
X156338431Y-88321280D01*
X156496000Y-87940874D01*
X156496000Y-87529126D01*
X156338431Y-87148720D01*
X156047280Y-86857569D01*
X155666874Y-86700000D01*
X155255126Y-86700000D01*
X154874720Y-86857569D01*
X154583569Y-87148720D01*
X154426000Y-87529126D01*
X135150480Y-87529126D01*
X136927588Y-85752018D01*
X140147108Y-85752018D01*
X140147108Y-86163766D01*
X140304677Y-86544172D01*
X140595828Y-86835323D01*
X140976234Y-86992892D01*
X141387982Y-86992892D01*
X141768388Y-86835323D01*
X142059539Y-86544172D01*
X142217108Y-86163766D01*
X142217108Y-85752018D01*
X142059539Y-85371612D01*
X141768388Y-85080461D01*
X141387982Y-84922892D01*
X140976234Y-84922892D01*
X140595828Y-85080461D01*
X140304677Y-85371612D01*
X140147108Y-85752018D01*
X136927588Y-85752018D01*
X138618195Y-84061411D01*
X143480465Y-84061411D01*
X143480465Y-84473159D01*
X143638034Y-84853565D01*
X143929185Y-85144716D01*
X144309591Y-85302285D01*
X144721339Y-85302285D01*
X145101745Y-85144716D01*
X145392896Y-84853565D01*
X145550465Y-84473159D01*
X145550465Y-84061411D01*
X145432338Y-83776227D01*
X145563898Y-83458612D01*
X145563898Y-83046864D01*
X145560309Y-83038199D01*
X154550977Y-83038199D01*
X154550977Y-83449947D01*
X154681283Y-83764533D01*
X154567986Y-84038056D01*
X154567986Y-84449804D01*
X154725555Y-84830210D01*
X155016706Y-85121361D01*
X155397112Y-85278930D01*
X155808860Y-85278930D01*
X156189266Y-85121361D01*
X156480417Y-84830210D01*
X156637986Y-84449804D01*
X156637986Y-84038056D01*
X156507680Y-83723470D01*
X156620977Y-83449947D01*
X156620977Y-83038199D01*
X156463408Y-82657793D01*
X156172257Y-82366642D01*
X155791851Y-82209073D01*
X155380103Y-82209073D01*
X154999697Y-82366642D01*
X154708546Y-82657793D01*
X154550977Y-83038199D01*
X145560309Y-83038199D01*
X145406329Y-82666458D01*
X145115178Y-82375307D01*
X144734772Y-82217738D01*
X144323024Y-82217738D01*
X143942618Y-82375307D01*
X143651467Y-82666458D01*
X143493898Y-83046864D01*
X143493898Y-83458612D01*
X143612025Y-83743796D01*
X143480465Y-84061411D01*
X138618195Y-84061411D01*
X140071948Y-82607659D01*
X140358320Y-82894031D01*
X140738726Y-83051600D01*
X141150474Y-83051600D01*
X141530880Y-82894031D01*
X141822031Y-82602880D01*
X141979600Y-82222474D01*
X141979600Y-81810726D01*
X141822031Y-81430320D01*
X141530880Y-81139169D01*
X141150474Y-80981600D01*
X140738726Y-80981600D01*
X140358320Y-81139169D01*
X140067169Y-81430320D01*
X139980478Y-81639611D01*
X139634639Y-79634483D01*
X139895582Y-79808839D01*
X140328744Y-79895000D01*
X140621256Y-79895000D01*
X141054418Y-79808839D01*
X141545625Y-79480625D01*
X141873839Y-78989418D01*
X141891317Y-78901545D01*
X146272641Y-78901545D01*
X146272641Y-79313293D01*
X146430210Y-79693699D01*
X146721361Y-79984850D01*
X147101767Y-80142419D01*
X147513515Y-80142419D01*
X147893921Y-79984850D01*
X147918867Y-79959904D01*
X148270126Y-80105400D01*
X148681874Y-80105400D01*
X149062280Y-79947831D01*
X149353431Y-79656680D01*
X149511000Y-79276274D01*
X149511000Y-78864526D01*
X149353431Y-78484120D01*
X149062280Y-78192969D01*
X148681874Y-78035400D01*
X148270126Y-78035400D01*
X147889720Y-78192969D01*
X147864774Y-78217915D01*
X147513515Y-78072419D01*
X147101767Y-78072419D01*
X146721361Y-78229988D01*
X146430210Y-78521139D01*
X146272641Y-78901545D01*
X141891317Y-78901545D01*
X141989092Y-78410000D01*
X141873839Y-77830582D01*
X141545625Y-77339375D01*
X141527381Y-77327184D01*
X141572765Y-77318157D01*
X141782809Y-77177809D01*
X141923157Y-76967765D01*
X141972440Y-76720000D01*
X141972440Y-76389126D01*
X147990000Y-76389126D01*
X147990000Y-76800874D01*
X148147569Y-77181280D01*
X148438720Y-77472431D01*
X148819126Y-77630000D01*
X149230874Y-77630000D01*
X149611280Y-77472431D01*
X149902431Y-77181280D01*
X149981944Y-76989317D01*
X150104252Y-77039979D01*
X149981215Y-77337018D01*
X149981215Y-77748766D01*
X150138784Y-78129172D01*
X150429935Y-78420323D01*
X150441512Y-78425118D01*
X150268510Y-78598120D01*
X150110941Y-78978526D01*
X150110941Y-79390274D01*
X150268510Y-79770680D01*
X150559661Y-80061831D01*
X150940067Y-80219400D01*
X151351815Y-80219400D01*
X151732221Y-80061831D01*
X152023372Y-79770680D01*
X152118680Y-79540586D01*
X152234068Y-79819158D01*
X152525219Y-80110309D01*
X152905625Y-80267878D01*
X153317373Y-80267878D01*
X153697779Y-80110309D01*
X153962433Y-79845655D01*
X154223867Y-79845655D01*
X154604273Y-79688086D01*
X154895424Y-79396935D01*
X155052993Y-79016529D01*
X155052993Y-78604781D01*
X154895424Y-78224375D01*
X154604273Y-77933224D01*
X154223867Y-77775655D01*
X153812119Y-77775655D01*
X153431713Y-77933224D01*
X153167059Y-78197878D01*
X152905625Y-78197878D01*
X152525219Y-78355447D01*
X152234068Y-78646598D01*
X152138760Y-78876692D01*
X152023372Y-78598120D01*
X151732221Y-78306969D01*
X151720644Y-78302174D01*
X151893646Y-78129172D01*
X152051215Y-77748766D01*
X152051215Y-77337018D01*
X151893646Y-76956612D01*
X151602495Y-76665461D01*
X151458963Y-76606008D01*
X151495590Y-76517583D01*
X151791127Y-76639998D01*
X152202875Y-76639998D01*
X152583281Y-76482429D01*
X152874432Y-76191278D01*
X153032001Y-75810872D01*
X153032001Y-75399124D01*
X152874432Y-75018718D01*
X152749404Y-74893690D01*
X158040000Y-74893690D01*
X158040000Y-75584250D01*
X158198750Y-75743000D01*
X159398000Y-75743000D01*
X159398000Y-74543750D01*
X159652000Y-74543750D01*
X159652000Y-75743000D01*
X160851250Y-75743000D01*
X161010000Y-75584250D01*
X161010000Y-74893690D01*
X160913327Y-74660301D01*
X160734698Y-74481673D01*
X160501309Y-74385000D01*
X159810750Y-74385000D01*
X159652000Y-74543750D01*
X159398000Y-74543750D01*
X159239250Y-74385000D01*
X158548691Y-74385000D01*
X158315302Y-74481673D01*
X158136673Y-74660301D01*
X158040000Y-74893690D01*
X152749404Y-74893690D01*
X152583281Y-74727567D01*
X152202875Y-74569998D01*
X151791127Y-74569998D01*
X151410721Y-74727567D01*
X151119570Y-75018718D01*
X151048411Y-75190510D01*
X150752874Y-75068095D01*
X150341126Y-75068095D01*
X149960720Y-75225664D01*
X149669569Y-75516815D01*
X149590056Y-75708778D01*
X149230874Y-75560000D01*
X148819126Y-75560000D01*
X148438720Y-75717569D01*
X148147569Y-76008720D01*
X147990000Y-76389126D01*
X141972440Y-76389126D01*
X141972440Y-75020000D01*
X141923157Y-74772235D01*
X141782809Y-74562191D01*
X141572765Y-74421843D01*
X141325000Y-74372560D01*
X139625000Y-74372560D01*
X139377235Y-74421843D01*
X139167191Y-74562191D01*
X139026843Y-74772235D01*
X138977560Y-75020000D01*
X138977560Y-75824818D01*
X138626815Y-73791242D01*
X138698079Y-73805417D01*
X138785239Y-73788080D01*
X159452068Y-73788080D01*
X160268561Y-73866052D01*
G36*
X161557000Y-71298000D02*
X161577000Y-71298000D01*
X161577000Y-71552000D01*
X161557000Y-71552000D01*
X161557000Y-71572000D01*
X161303000Y-71572000D01*
X161303000Y-71552000D01*
X161283000Y-71552000D01*
X161283000Y-71298000D01*
X161303000Y-71298000D01*
X161303000Y-71278000D01*
X161557000Y-71278000D01*
X161557000Y-71298000D01*
X161557000Y-71298000D01*
G37*
X161557000Y-71298000D02*
X161577000Y-71298000D01*
X161577000Y-71552000D01*
X161557000Y-71552000D01*
X161557000Y-71572000D01*
X161303000Y-71572000D01*
X161303000Y-71552000D01*
X161283000Y-71552000D01*
X161283000Y-71298000D01*
X161303000Y-71298000D01*
X161303000Y-71278000D01*
X161557000Y-71278000D01*
X161557000Y-71298000D01*
G04 #@! TD*
M02*
