G04 #@! TF.GenerationSoftware,KiCad,Pcbnew,5.0.2-bee76a0~70~ubuntu16.04.1*
G04 #@! TF.CreationDate,2019-08-09T13:45:33+03:00*
G04 #@! TF.ProjectId,FreeEEG32-alpha1.5,46726565-4545-4473-9332-2d616c706861,rev?*
G04 #@! TF.SameCoordinates,Original*
G04 #@! TF.FileFunction,Legend,Bot*
G04 #@! TF.FilePolarity,Positive*
%FSLAX46Y46*%
G04 Gerber Fmt 4.6, Leading zero omitted, Abs format (unit mm)*
G04 Created by KiCad (PCBNEW 5.0.2-bee76a0~70~ubuntu16.04.1) date Пт 09 авг 2019 13:45:33*
%MOMM*%
%LPD*%
G01*
G04 APERTURE LIST*
%ADD10C,0.150000*%
%ADD11C,0.120000*%
%ADD12C,0.075000*%
G04 APERTURE END LIST*
D10*
G04 #@! TO.C,U9*
X-689429Y-13700194D02*
X-1608668Y-14619433D01*
X14389623Y0D02*
X13647161Y-742462D01*
X0Y14389623D02*
X-742462Y13647161D01*
X-14389623Y0D02*
X-13647161Y742462D01*
X0Y-14389623D02*
X742462Y-13647161D01*
X-14389623Y0D02*
X-13647161Y-742462D01*
X0Y14389623D02*
X742462Y13647161D01*
X14389623Y0D02*
X13647161Y742462D01*
X0Y-14389623D02*
X-689429Y-13700194D01*
G04 #@! TO.C,T1*
X15802893Y22873961D02*
X22873961Y15802893D01*
X22873961Y15802893D02*
X17217107Y10146039D01*
X17217107Y10146039D02*
X10146039Y17217107D01*
X10146039Y17217107D02*
X15802893Y22873961D01*
G04 #@! TO.C,U7*
X2075000Y26655000D02*
X3475000Y26655001D01*
X2075001Y21555000D02*
X-2075001Y21555000D01*
X2075001Y26705000D02*
X-2075001Y26705000D01*
X2075001Y21555000D02*
X2075000Y21700000D01*
X-2075001Y21555000D02*
X-2075000Y21700000D01*
X-2075001Y26705000D02*
X-2075000Y26560000D01*
X2075001Y26705000D02*
X2075000Y26655000D01*
G04 #@! TO.C,D2*
X12134315Y8940571D02*
X11179720Y9895165D01*
X11179720Y9895165D02*
X12311091Y11026536D01*
X12311091Y11026536D02*
X14220280Y9117347D01*
X14220280Y9117347D02*
X13088909Y7985976D01*
X13088909Y7985976D02*
X12134315Y8940571D01*
G04 #@! TO.C,U13*
X8465753Y-18367938D02*
X18365248Y-8468443D01*
X19213776Y-29115961D02*
X8465753Y-18367938D01*
X28406164Y-18509359D02*
X20274436Y-26641087D01*
X18365248Y-8468443D02*
X28406164Y-18509359D01*
X20981543Y-27348194D02*
X19213776Y-29115961D01*
X20274436Y-26641087D02*
X20981543Y-27348194D01*
D11*
G04 #@! TO.C,J51*
X-20022734Y-22426897D02*
X-20340932Y-22745095D01*
X-20022734Y-22426897D02*
X-20340932Y-22108699D01*
X-24371441Y-18856008D02*
X-24053243Y-19174206D01*
X-25679588Y-20164155D02*
X-24371441Y-18856008D01*
X-21967278Y-27482711D02*
X-21790501Y-27305934D01*
X-27482711Y-21967278D02*
X-27305934Y-21790501D01*
X-20164155Y-25679588D02*
X-18856008Y-24371441D01*
X-18856008Y-24371441D02*
X-19174206Y-24053243D01*
G04 #@! TO.C,C104*
X13023225Y5896641D02*
X13253430Y6126846D01*
X13744474Y5175392D02*
X13974679Y5405597D01*
D10*
G04 #@! TO.C,U17*
X-15484695Y-23015382D02*
X-15679150Y-22820928D01*
X-10004618Y-17535305D02*
X-10255641Y-17284282D01*
X-17535305Y-10004618D02*
X-17284282Y-10255641D01*
X-23015382Y-15484695D02*
X-22764359Y-15735718D01*
X-15484695Y-23015382D02*
X-10004618Y-17535305D01*
X-23015382Y-15484695D02*
X-17535305Y-10004618D01*
X-15679150Y-22820928D02*
X-16757487Y-23899266D01*
G04 #@! TO.C,U19*
X-10004618Y17535305D02*
X-10199072Y17340850D01*
X-15484695Y23015382D02*
X-15735718Y22764359D01*
X-23015382Y15484695D02*
X-22764359Y15735718D01*
X-17535305Y10004618D02*
X-17284282Y10255641D01*
X-10004618Y17535305D02*
X-15484695Y23015382D01*
X-17535305Y10004618D02*
X-23015382Y15484695D01*
X-10199072Y17340850D02*
X-9120734Y16262513D01*
D11*
G04 #@! TO.C,U6*
X10662046Y-8385162D02*
X12394457Y-10117574D01*
X9657954Y-11934838D02*
X8385162Y-10662046D01*
G04 #@! TO.C,C87*
X12820127Y-11954922D02*
X12589922Y-12185127D01*
X12098878Y-11233673D02*
X11868673Y-11463878D01*
G04 #@! TO.C,C92*
X5590000Y23022779D02*
X5590000Y22697221D01*
X4570000Y23022779D02*
X4570000Y22697221D01*
G04 #@! TO.C,C90*
X-4370000Y23321778D02*
X-4370000Y22804622D01*
X-5790000Y23321778D02*
X-5790000Y22804622D01*
G04 #@! TO.C,C100*
X-6595522Y12224273D02*
X-6825727Y12454478D01*
X-5874273Y12945522D02*
X-6104478Y13175727D01*
G04 #@! TO.C,C115*
X9914478Y9425137D02*
X9684273Y9194932D01*
X10635727Y8703888D02*
X10405522Y8473683D01*
D10*
G04 #@! TO.C,D1*
X9136091Y14201536D02*
X10090685Y13246941D01*
X8004720Y13070165D02*
X9136091Y14201536D01*
X9913909Y11160976D02*
X8004720Y13070165D01*
X11045280Y12292347D02*
X9913909Y11160976D01*
X10090685Y13246941D02*
X11045280Y12292347D01*
D11*
G04 #@! TO.C,U12*
X24634838Y22339210D02*
X22548873Y20253245D01*
X21085162Y23343302D02*
X22357954Y24616094D01*
G04 #@! TO.C,C122*
X-8668273Y10786522D02*
X-8898478Y11016727D01*
X-9389522Y10065273D02*
X-9619727Y10295478D01*
G04 #@! TO.C,U9*
D12*
X8686361Y-8122213D02*
X8972571Y-8408423D01*
X8989407Y-8458930D01*
X8989407Y-8492602D01*
X8972571Y-8543110D01*
X8905227Y-8610453D01*
X8854720Y-8627289D01*
X8821048Y-8627289D01*
X8770540Y-8610453D01*
X8484330Y-8324243D01*
X8652689Y-8862991D02*
X8585346Y-8930335D01*
X8534838Y-8947171D01*
X8501166Y-8947171D01*
X8416987Y-8930335D01*
X8332808Y-8879827D01*
X8198121Y-8745140D01*
X8181285Y-8694633D01*
X8181285Y-8660961D01*
X8198121Y-8610453D01*
X8265464Y-8543110D01*
X8315972Y-8526274D01*
X8349643Y-8526274D01*
X8400151Y-8543110D01*
X8484330Y-8627289D01*
X8501166Y-8677797D01*
X8501166Y-8711469D01*
X8484330Y-8761976D01*
X8416987Y-8829320D01*
X8366479Y-8846156D01*
X8332808Y-8846156D01*
X8282300Y-8829320D01*
G04 #@! TO.C,T1*
X16939314Y16619433D02*
X16737283Y16417403D01*
X17191852Y16164864D02*
X16838299Y16518418D01*
X16787791Y15760803D02*
X16989822Y15962834D01*
X16888806Y15861819D02*
X16535253Y16215372D01*
X16619432Y16198536D01*
X16686776Y16198536D01*
X16737283Y16215372D01*
G04 #@! TO.C,U7*
X380952Y27903809D02*
X380952Y27499047D01*
X357142Y27451428D01*
X333333Y27427619D01*
X285714Y27403809D01*
X190476Y27403809D01*
X142857Y27427619D01*
X119047Y27451428D01*
X95238Y27499047D01*
X95238Y27903809D01*
X-95238Y27903809D02*
X-428571Y27903809D01*
X-214285Y27403809D01*
G04 #@! TO.C,D2*
X14756815Y7275304D02*
X15110368Y7628857D01*
X15026189Y7713036D01*
X14958845Y7746708D01*
X14891502Y7746708D01*
X14840994Y7729872D01*
X14756815Y7679365D01*
X14706307Y7628857D01*
X14655800Y7544678D01*
X14638964Y7494170D01*
X14638964Y7426826D01*
X14672635Y7359483D01*
X14756815Y7275304D01*
X14739979Y7931903D02*
X14739979Y7965575D01*
X14723143Y8016082D01*
X14638964Y8100262D01*
X14588456Y8117097D01*
X14554784Y8117097D01*
X14504277Y8100262D01*
X14470605Y8066590D01*
X14436933Y7999246D01*
X14436933Y7595185D01*
X14218067Y7814052D01*
G04 #@! TO.C,U13*
X19316475Y-18443699D02*
X19602685Y-18729909D01*
X19619520Y-18780417D01*
X19619520Y-18814088D01*
X19602685Y-18864596D01*
X19535341Y-18931940D01*
X19484833Y-18948775D01*
X19451162Y-18948775D01*
X19400654Y-18931940D01*
X19114444Y-18645730D01*
X19114444Y-19352836D02*
X19316475Y-19150806D01*
X19215459Y-19251821D02*
X18861906Y-18898268D01*
X18946085Y-18915104D01*
X19013429Y-18915104D01*
X19063937Y-18898268D01*
X18643040Y-19117134D02*
X18424173Y-19336001D01*
X18676711Y-19352836D01*
X18626204Y-19403344D01*
X18609368Y-19453852D01*
X18609368Y-19487523D01*
X18626204Y-19538031D01*
X18710383Y-19622210D01*
X18760891Y-19639046D01*
X18794563Y-19639046D01*
X18845070Y-19622210D01*
X18946085Y-19521195D01*
X18962921Y-19470688D01*
X18962921Y-19437016D01*
G04 #@! TO.C,J51*
X-20179307Y-20751727D02*
X-20431845Y-21004265D01*
X-20465517Y-21071608D01*
X-20465517Y-21138952D01*
X-20431845Y-21206295D01*
X-20398173Y-21239967D01*
X-20516025Y-20415009D02*
X-20347666Y-20583368D01*
X-20499189Y-20768563D01*
X-20499189Y-20734891D01*
X-20516025Y-20684383D01*
X-20600204Y-20600204D01*
X-20650712Y-20583368D01*
X-20684383Y-20583368D01*
X-20734891Y-20600204D01*
X-20819070Y-20684383D01*
X-20835906Y-20734891D01*
X-20835906Y-20768563D01*
X-20819070Y-20819070D01*
X-20734891Y-20903250D01*
X-20684383Y-20920086D01*
X-20650712Y-20920086D01*
X-21223131Y-20415009D02*
X-21021101Y-20617040D01*
X-21122116Y-20516025D02*
X-20768563Y-20162471D01*
X-20785399Y-20246651D01*
X-20785399Y-20313994D01*
X-20768563Y-20364502D01*
G04 #@! TO.C,C104*
X15990512Y7457574D02*
X16024183Y7457574D01*
X16091527Y7491245D01*
X16125199Y7524917D01*
X16158870Y7592261D01*
X16158870Y7659604D01*
X16142035Y7710112D01*
X16091527Y7794291D01*
X16041019Y7844799D01*
X15956840Y7895306D01*
X15906332Y7912142D01*
X15838989Y7912142D01*
X15771645Y7878470D01*
X15737974Y7844799D01*
X15704302Y7777455D01*
X15704302Y7743783D01*
X15687466Y7087184D02*
X15889496Y7289215D01*
X15788481Y7188200D02*
X15434928Y7541753D01*
X15519107Y7524917D01*
X15586451Y7524917D01*
X15636958Y7541753D01*
X15115046Y7221871D02*
X15081374Y7188199D01*
X15064538Y7137692D01*
X15064538Y7104020D01*
X15081374Y7053512D01*
X15131882Y6969333D01*
X15216061Y6885154D01*
X15300241Y6834646D01*
X15350748Y6817810D01*
X15384420Y6817810D01*
X15434928Y6834646D01*
X15468599Y6868318D01*
X15485435Y6918825D01*
X15485435Y6952497D01*
X15468600Y7003005D01*
X15418092Y7087184D01*
X15333912Y7171364D01*
X15249733Y7221871D01*
X15199225Y7238707D01*
X15165554Y7238707D01*
X15115046Y7221871D01*
X14812000Y6683123D02*
X15047703Y6447421D01*
X14761493Y6901990D02*
X15098210Y6733631D01*
X14879344Y6514764D01*
G04 #@! TO.C,U17*
X-11312879Y-20628454D02*
X-11026669Y-20914664D01*
X-11009834Y-20965172D01*
X-11009834Y-20998843D01*
X-11026669Y-21049351D01*
X-11094013Y-21116695D01*
X-11144521Y-21133530D01*
X-11178192Y-21133530D01*
X-11228700Y-21116695D01*
X-11514910Y-20830485D01*
X-11514910Y-21537591D02*
X-11312879Y-21335561D01*
X-11413895Y-21436576D02*
X-11767448Y-21083023D01*
X-11683269Y-21099859D01*
X-11615925Y-21099859D01*
X-11565417Y-21083023D01*
X-11986314Y-21301889D02*
X-12222017Y-21537591D01*
X-11716940Y-21739622D01*
G04 #@! TO.C,U19*
X-11459237Y20685296D02*
X-11745447Y20399086D01*
X-11795955Y20382251D01*
X-11829626Y20382251D01*
X-11880134Y20399086D01*
X-11947478Y20466430D01*
X-11964313Y20516938D01*
X-11964313Y20550609D01*
X-11947478Y20601117D01*
X-11661268Y20887327D01*
X-12368374Y20887327D02*
X-12166344Y20685296D01*
X-12267359Y20786312D02*
X-11913806Y21139865D01*
X-11930642Y21055686D01*
X-11930642Y20988342D01*
X-11913806Y20937834D01*
X-12536733Y21055686D02*
X-12604077Y21123029D01*
X-12620913Y21173537D01*
X-12620913Y21207208D01*
X-12604077Y21291388D01*
X-12553569Y21375567D01*
X-12418882Y21510254D01*
X-12368374Y21527090D01*
X-12334703Y21527090D01*
X-12284195Y21510254D01*
X-12216852Y21442911D01*
X-12200016Y21392403D01*
X-12200016Y21358731D01*
X-12216852Y21308224D01*
X-12301031Y21224044D01*
X-12351539Y21207208D01*
X-12385210Y21207208D01*
X-12435718Y21224044D01*
X-12503061Y21291388D01*
X-12519897Y21341895D01*
X-12519897Y21375567D01*
X-12503061Y21426075D01*
G04 #@! TO.C,C33*
X-5815828Y-17661771D02*
X-5792019Y-17637961D01*
X-5768209Y-17566533D01*
X-5768209Y-17518914D01*
X-5792019Y-17447485D01*
X-5839638Y-17399866D01*
X-5887257Y-17376057D01*
X-5982495Y-17352247D01*
X-6053923Y-17352247D01*
X-6149161Y-17376057D01*
X-6196780Y-17399866D01*
X-6244400Y-17447485D01*
X-6268209Y-17518914D01*
X-6268209Y-17566533D01*
X-6244400Y-17637961D01*
X-6220590Y-17661771D01*
X-6268209Y-17828438D02*
X-6268209Y-18137961D01*
X-6077733Y-17971295D01*
X-6077733Y-18042723D01*
X-6053923Y-18090342D01*
X-6030114Y-18114152D01*
X-5982495Y-18137961D01*
X-5863447Y-18137961D01*
X-5815828Y-18114152D01*
X-5792019Y-18090342D01*
X-5768209Y-18042723D01*
X-5768209Y-17899866D01*
X-5792019Y-17852247D01*
X-5815828Y-17828438D01*
X-6268209Y-18304628D02*
X-6268209Y-18614152D01*
X-6077733Y-18447485D01*
X-6077733Y-18518914D01*
X-6053923Y-18566533D01*
X-6030114Y-18590342D01*
X-5982495Y-18614152D01*
X-5863447Y-18614152D01*
X-5815828Y-18590342D01*
X-5792019Y-18566533D01*
X-5768209Y-18518914D01*
X-5768209Y-18376057D01*
X-5792019Y-18328438D01*
X-5815828Y-18304628D01*
G04 #@! TO.C,C31*
X-5968228Y-15401171D02*
X-5944419Y-15377361D01*
X-5920609Y-15305933D01*
X-5920609Y-15258314D01*
X-5944419Y-15186885D01*
X-5992038Y-15139266D01*
X-6039657Y-15115457D01*
X-6134895Y-15091647D01*
X-6206323Y-15091647D01*
X-6301561Y-15115457D01*
X-6349180Y-15139266D01*
X-6396800Y-15186885D01*
X-6420609Y-15258314D01*
X-6420609Y-15305933D01*
X-6396800Y-15377361D01*
X-6372990Y-15401171D01*
X-6420609Y-15567838D02*
X-6420609Y-15877361D01*
X-6230133Y-15710695D01*
X-6230133Y-15782123D01*
X-6206323Y-15829742D01*
X-6182514Y-15853552D01*
X-6134895Y-15877361D01*
X-6015847Y-15877361D01*
X-5968228Y-15853552D01*
X-5944419Y-15829742D01*
X-5920609Y-15782123D01*
X-5920609Y-15639266D01*
X-5944419Y-15591647D01*
X-5968228Y-15567838D01*
X-5920609Y-16353552D02*
X-5920609Y-16067838D01*
X-5920609Y-16210695D02*
X-6420609Y-16210695D01*
X-6349180Y-16163076D01*
X-6301561Y-16115457D01*
X-6277752Y-16067838D01*
G04 #@! TO.C,C42*
X2277228Y-20422371D02*
X2301038Y-20446180D01*
X2372466Y-20469990D01*
X2420085Y-20469990D01*
X2491514Y-20446180D01*
X2539133Y-20398561D01*
X2562942Y-20350942D01*
X2586752Y-20255704D01*
X2586752Y-20184276D01*
X2562942Y-20089038D01*
X2539133Y-20041419D01*
X2491514Y-19993800D01*
X2420085Y-19969990D01*
X2372466Y-19969990D01*
X2301038Y-19993800D01*
X2277228Y-20017609D01*
X1848657Y-20136657D02*
X1848657Y-20469990D01*
X1967704Y-19946180D02*
X2086752Y-20303323D01*
X1777228Y-20303323D01*
X1610561Y-20017609D02*
X1586752Y-19993800D01*
X1539133Y-19969990D01*
X1420085Y-19969990D01*
X1372466Y-19993800D01*
X1348657Y-20017609D01*
X1324847Y-20065228D01*
X1324847Y-20112847D01*
X1348657Y-20184276D01*
X1634371Y-20469990D01*
X1324847Y-20469990D01*
G04 #@! TO.C,C29*
X2918953Y-14961184D02*
X2952625Y-14961184D01*
X3019968Y-14927512D01*
X3053640Y-14893841D01*
X3087312Y-14826497D01*
X3087312Y-14759154D01*
X3070476Y-14708646D01*
X3019968Y-14624467D01*
X2969461Y-14573959D01*
X2885281Y-14523451D01*
X2834774Y-14506616D01*
X2767430Y-14506616D01*
X2700087Y-14540287D01*
X2666415Y-14573959D01*
X2632743Y-14641303D01*
X2632743Y-14674974D01*
X2498056Y-14809661D02*
X2464384Y-14809661D01*
X2413877Y-14826497D01*
X2329697Y-14910677D01*
X2312861Y-14961184D01*
X2312861Y-14994856D01*
X2329697Y-15045364D01*
X2363369Y-15079035D01*
X2430712Y-15112707D01*
X2834774Y-15112707D01*
X2615907Y-15331574D01*
X2447548Y-15499932D02*
X2380205Y-15567276D01*
X2329697Y-15584112D01*
X2296025Y-15584112D01*
X2211846Y-15567276D01*
X2127667Y-15516768D01*
X1992980Y-15382081D01*
X1976144Y-15331574D01*
X1976144Y-15297902D01*
X1992980Y-15247394D01*
X2060323Y-15180051D01*
X2110831Y-15163215D01*
X2144503Y-15163215D01*
X2195010Y-15180051D01*
X2279190Y-15264230D01*
X2296025Y-15314738D01*
X2296025Y-15348409D01*
X2279190Y-15398917D01*
X2211846Y-15466261D01*
X2161338Y-15483096D01*
X2127667Y-15483096D01*
X2077159Y-15466261D01*
G04 #@! TO.C,C23*
X5766571Y-17534771D02*
X5790380Y-17510961D01*
X5814190Y-17439533D01*
X5814190Y-17391914D01*
X5790380Y-17320485D01*
X5742761Y-17272866D01*
X5695142Y-17249057D01*
X5599904Y-17225247D01*
X5528476Y-17225247D01*
X5433238Y-17249057D01*
X5385619Y-17272866D01*
X5338000Y-17320485D01*
X5314190Y-17391914D01*
X5314190Y-17439533D01*
X5338000Y-17510961D01*
X5361809Y-17534771D01*
X5361809Y-17725247D02*
X5338000Y-17749057D01*
X5314190Y-17796676D01*
X5314190Y-17915723D01*
X5338000Y-17963342D01*
X5361809Y-17987152D01*
X5409428Y-18010961D01*
X5457047Y-18010961D01*
X5528476Y-17987152D01*
X5814190Y-17701438D01*
X5814190Y-18010961D01*
X5314190Y-18177628D02*
X5314190Y-18487152D01*
X5504666Y-18320485D01*
X5504666Y-18391914D01*
X5528476Y-18439533D01*
X5552285Y-18463342D01*
X5599904Y-18487152D01*
X5718952Y-18487152D01*
X5766571Y-18463342D01*
X5790380Y-18439533D01*
X5814190Y-18391914D01*
X5814190Y-18249057D01*
X5790380Y-18201438D01*
X5766571Y-18177628D01*
G04 #@! TO.C,C25*
X5487171Y-13597771D02*
X5510980Y-13573961D01*
X5534790Y-13502533D01*
X5534790Y-13454914D01*
X5510980Y-13383485D01*
X5463361Y-13335866D01*
X5415742Y-13312057D01*
X5320504Y-13288247D01*
X5249076Y-13288247D01*
X5153838Y-13312057D01*
X5106219Y-13335866D01*
X5058600Y-13383485D01*
X5034790Y-13454914D01*
X5034790Y-13502533D01*
X5058600Y-13573961D01*
X5082409Y-13597771D01*
X5082409Y-13788247D02*
X5058600Y-13812057D01*
X5034790Y-13859676D01*
X5034790Y-13978723D01*
X5058600Y-14026342D01*
X5082409Y-14050152D01*
X5130028Y-14073961D01*
X5177647Y-14073961D01*
X5249076Y-14050152D01*
X5534790Y-13764438D01*
X5534790Y-14073961D01*
X5034790Y-14526342D02*
X5034790Y-14288247D01*
X5272885Y-14264438D01*
X5249076Y-14288247D01*
X5225266Y-14335866D01*
X5225266Y-14454914D01*
X5249076Y-14502533D01*
X5272885Y-14526342D01*
X5320504Y-14550152D01*
X5439552Y-14550152D01*
X5487171Y-14526342D01*
X5510980Y-14502533D01*
X5534790Y-14454914D01*
X5534790Y-14335866D01*
X5510980Y-14288247D01*
X5487171Y-14264438D01*
G04 #@! TO.C,C73*
X6553971Y16171028D02*
X6577780Y16194838D01*
X6601590Y16266266D01*
X6601590Y16313885D01*
X6577780Y16385314D01*
X6530161Y16432933D01*
X6482542Y16456742D01*
X6387304Y16480552D01*
X6315876Y16480552D01*
X6220638Y16456742D01*
X6173019Y16432933D01*
X6125400Y16385314D01*
X6101590Y16313885D01*
X6101590Y16266266D01*
X6125400Y16194838D01*
X6149209Y16171028D01*
X6101590Y16004361D02*
X6101590Y15671028D01*
X6601590Y15885314D01*
X6101590Y15528171D02*
X6101590Y15218647D01*
X6292066Y15385314D01*
X6292066Y15313885D01*
X6315876Y15266266D01*
X6339685Y15242457D01*
X6387304Y15218647D01*
X6506352Y15218647D01*
X6553971Y15242457D01*
X6577780Y15266266D01*
X6601590Y15313885D01*
X6601590Y15456742D01*
X6577780Y15504361D01*
X6553971Y15528171D01*
G04 #@! TO.C,C67*
X-6120628Y17136228D02*
X-6096819Y17160038D01*
X-6073009Y17231466D01*
X-6073009Y17279085D01*
X-6096819Y17350514D01*
X-6144438Y17398133D01*
X-6192057Y17421942D01*
X-6287295Y17445752D01*
X-6358723Y17445752D01*
X-6453961Y17421942D01*
X-6501580Y17398133D01*
X-6549200Y17350514D01*
X-6573009Y17279085D01*
X-6573009Y17231466D01*
X-6549200Y17160038D01*
X-6525390Y17136228D01*
X-6573009Y16707657D02*
X-6573009Y16802895D01*
X-6549200Y16850514D01*
X-6525390Y16874323D01*
X-6453961Y16921942D01*
X-6358723Y16945752D01*
X-6168247Y16945752D01*
X-6120628Y16921942D01*
X-6096819Y16898133D01*
X-6073009Y16850514D01*
X-6073009Y16755276D01*
X-6096819Y16707657D01*
X-6120628Y16683847D01*
X-6168247Y16660038D01*
X-6287295Y16660038D01*
X-6334914Y16683847D01*
X-6358723Y16707657D01*
X-6382533Y16755276D01*
X-6382533Y16850514D01*
X-6358723Y16898133D01*
X-6334914Y16921942D01*
X-6287295Y16945752D01*
X-6573009Y16493371D02*
X-6573009Y16160038D01*
X-6073009Y16374323D01*
G04 #@! TO.C,C71*
X-2364246Y15112415D02*
X-2330574Y15112415D01*
X-2263231Y15146087D01*
X-2229559Y15179758D01*
X-2195887Y15247102D01*
X-2195887Y15314445D01*
X-2212723Y15364953D01*
X-2263231Y15449132D01*
X-2313738Y15499640D01*
X-2397918Y15550148D01*
X-2448425Y15566983D01*
X-2515769Y15566983D01*
X-2583112Y15533312D01*
X-2616784Y15499640D01*
X-2650456Y15432296D01*
X-2650456Y15398625D01*
X-2801979Y15314445D02*
X-3037681Y15078743D01*
X-2532605Y14876712D01*
X-3004009Y14405308D02*
X-2801979Y14607338D01*
X-2902994Y14506323D02*
X-3256548Y14859877D01*
X-3172368Y14843041D01*
X-3105025Y14843041D01*
X-3054517Y14859877D01*
G04 #@! TO.C,C65*
X-5968228Y19066628D02*
X-5944419Y19090438D01*
X-5920609Y19161866D01*
X-5920609Y19209485D01*
X-5944419Y19280914D01*
X-5992038Y19328533D01*
X-6039657Y19352342D01*
X-6134895Y19376152D01*
X-6206323Y19376152D01*
X-6301561Y19352342D01*
X-6349180Y19328533D01*
X-6396800Y19280914D01*
X-6420609Y19209485D01*
X-6420609Y19161866D01*
X-6396800Y19090438D01*
X-6372990Y19066628D01*
X-6420609Y18638057D02*
X-6420609Y18733295D01*
X-6396800Y18780914D01*
X-6372990Y18804723D01*
X-6301561Y18852342D01*
X-6206323Y18876152D01*
X-6015847Y18876152D01*
X-5968228Y18852342D01*
X-5944419Y18828533D01*
X-5920609Y18780914D01*
X-5920609Y18685676D01*
X-5944419Y18638057D01*
X-5968228Y18614247D01*
X-6015847Y18590438D01*
X-6134895Y18590438D01*
X-6182514Y18614247D01*
X-6206323Y18638057D01*
X-6230133Y18685676D01*
X-6230133Y18780914D01*
X-6206323Y18828533D01*
X-6182514Y18852342D01*
X-6134895Y18876152D01*
X-6420609Y18138057D02*
X-6420609Y18376152D01*
X-6182514Y18399961D01*
X-6206323Y18376152D01*
X-6230133Y18328533D01*
X-6230133Y18209485D01*
X-6206323Y18161866D01*
X-6182514Y18138057D01*
X-6134895Y18114247D01*
X-6015847Y18114247D01*
X-5968228Y18138057D01*
X-5944419Y18161866D01*
X-5920609Y18209485D01*
X-5920609Y18328533D01*
X-5944419Y18376152D01*
X-5968228Y18399961D01*
G04 #@! TO.C,C84*
X-1532771Y19633428D02*
X-1508961Y19609619D01*
X-1437533Y19585809D01*
X-1389914Y19585809D01*
X-1318485Y19609619D01*
X-1270866Y19657238D01*
X-1247057Y19704857D01*
X-1223247Y19800095D01*
X-1223247Y19871523D01*
X-1247057Y19966761D01*
X-1270866Y20014380D01*
X-1318485Y20062000D01*
X-1389914Y20085809D01*
X-1437533Y20085809D01*
X-1508961Y20062000D01*
X-1532771Y20038190D01*
X-1818485Y19871523D02*
X-1770866Y19895333D01*
X-1747057Y19919142D01*
X-1723247Y19966761D01*
X-1723247Y19990571D01*
X-1747057Y20038190D01*
X-1770866Y20062000D01*
X-1818485Y20085809D01*
X-1913723Y20085809D01*
X-1961342Y20062000D01*
X-1985152Y20038190D01*
X-2008961Y19990571D01*
X-2008961Y19966761D01*
X-1985152Y19919142D01*
X-1961342Y19895333D01*
X-1913723Y19871523D01*
X-1818485Y19871523D01*
X-1770866Y19847714D01*
X-1747057Y19823904D01*
X-1723247Y19776285D01*
X-1723247Y19681047D01*
X-1747057Y19633428D01*
X-1770866Y19609619D01*
X-1818485Y19585809D01*
X-1913723Y19585809D01*
X-1961342Y19609619D01*
X-1985152Y19633428D01*
X-2008961Y19681047D01*
X-2008961Y19776285D01*
X-1985152Y19823904D01*
X-1961342Y19847714D01*
X-1913723Y19871523D01*
X-2437533Y19919142D02*
X-2437533Y19585809D01*
X-2318485Y20109619D02*
X-2199438Y19752476D01*
X-2508961Y19752476D01*
G04 #@! TO.C,C75*
X6528571Y18101428D02*
X6552380Y18125238D01*
X6576190Y18196666D01*
X6576190Y18244285D01*
X6552380Y18315714D01*
X6504761Y18363333D01*
X6457142Y18387142D01*
X6361904Y18410952D01*
X6290476Y18410952D01*
X6195238Y18387142D01*
X6147619Y18363333D01*
X6100000Y18315714D01*
X6076190Y18244285D01*
X6076190Y18196666D01*
X6100000Y18125238D01*
X6123809Y18101428D01*
X6076190Y17934761D02*
X6076190Y17601428D01*
X6576190Y17815714D01*
X6076190Y17172857D02*
X6076190Y17410952D01*
X6314285Y17434761D01*
X6290476Y17410952D01*
X6266666Y17363333D01*
X6266666Y17244285D01*
X6290476Y17196666D01*
X6314285Y17172857D01*
X6361904Y17149047D01*
X6480952Y17149047D01*
X6528571Y17172857D01*
X6552380Y17196666D01*
X6576190Y17244285D01*
X6576190Y17363333D01*
X6552380Y17410952D01*
X6528571Y17434761D01*
G04 #@! TO.C,C52*
X-15502771Y6146028D02*
X-15478961Y6122219D01*
X-15407533Y6098409D01*
X-15359914Y6098409D01*
X-15288485Y6122219D01*
X-15240866Y6169838D01*
X-15217057Y6217457D01*
X-15193247Y6312695D01*
X-15193247Y6384123D01*
X-15217057Y6479361D01*
X-15240866Y6526980D01*
X-15288485Y6574600D01*
X-15359914Y6598409D01*
X-15407533Y6598409D01*
X-15478961Y6574600D01*
X-15502771Y6550790D01*
X-15955152Y6598409D02*
X-15717057Y6598409D01*
X-15693247Y6360314D01*
X-15717057Y6384123D01*
X-15764676Y6407933D01*
X-15883723Y6407933D01*
X-15931342Y6384123D01*
X-15955152Y6360314D01*
X-15978961Y6312695D01*
X-15978961Y6193647D01*
X-15955152Y6146028D01*
X-15931342Y6122219D01*
X-15883723Y6098409D01*
X-15764676Y6098409D01*
X-15717057Y6122219D01*
X-15693247Y6146028D01*
X-16169438Y6550790D02*
X-16193247Y6574600D01*
X-16240866Y6598409D01*
X-16359914Y6598409D01*
X-16407533Y6574600D01*
X-16431342Y6550790D01*
X-16455152Y6503171D01*
X-16455152Y6455552D01*
X-16431342Y6384123D01*
X-16145628Y6098409D01*
X-16455152Y6098409D01*
G04 #@! TO.C,C44*
X-18144371Y-6528571D02*
X-18120561Y-6552380D01*
X-18049133Y-6576190D01*
X-18001514Y-6576190D01*
X-17930085Y-6552380D01*
X-17882466Y-6504761D01*
X-17858657Y-6457142D01*
X-17834847Y-6361904D01*
X-17834847Y-6290476D01*
X-17858657Y-6195238D01*
X-17882466Y-6147619D01*
X-17930085Y-6100000D01*
X-18001514Y-6076190D01*
X-18049133Y-6076190D01*
X-18120561Y-6100000D01*
X-18144371Y-6123809D01*
X-18572942Y-6242857D02*
X-18572942Y-6576190D01*
X-18453895Y-6052380D02*
X-18334847Y-6409523D01*
X-18644371Y-6409523D01*
X-19049133Y-6242857D02*
X-19049133Y-6576190D01*
X-18930085Y-6052380D02*
X-18811038Y-6409523D01*
X-19120561Y-6409523D01*
G04 #@! TO.C,C46*
X-16290171Y-6579371D02*
X-16266361Y-6603180D01*
X-16194933Y-6626990D01*
X-16147314Y-6626990D01*
X-16075885Y-6603180D01*
X-16028266Y-6555561D01*
X-16004457Y-6507942D01*
X-15980647Y-6412704D01*
X-15980647Y-6341276D01*
X-16004457Y-6246038D01*
X-16028266Y-6198419D01*
X-16075885Y-6150800D01*
X-16147314Y-6126990D01*
X-16194933Y-6126990D01*
X-16266361Y-6150800D01*
X-16290171Y-6174609D01*
X-16718742Y-6293657D02*
X-16718742Y-6626990D01*
X-16599695Y-6103180D02*
X-16480647Y-6460323D01*
X-16790171Y-6460323D01*
X-17194933Y-6126990D02*
X-17099695Y-6126990D01*
X-17052076Y-6150800D01*
X-17028266Y-6174609D01*
X-16980647Y-6246038D01*
X-16956838Y-6341276D01*
X-16956838Y-6531752D01*
X-16980647Y-6579371D01*
X-17004457Y-6603180D01*
X-17052076Y-6626990D01*
X-17147314Y-6626990D01*
X-17194933Y-6603180D01*
X-17218742Y-6579371D01*
X-17242552Y-6531752D01*
X-17242552Y-6412704D01*
X-17218742Y-6365085D01*
X-17194933Y-6341276D01*
X-17147314Y-6317466D01*
X-17052076Y-6317466D01*
X-17004457Y-6341276D01*
X-16980647Y-6365085D01*
X-16956838Y-6412704D01*
G04 #@! TO.C,C63*
X-20116028Y-1481971D02*
X-20092219Y-1458161D01*
X-20068409Y-1386733D01*
X-20068409Y-1339114D01*
X-20092219Y-1267685D01*
X-20139838Y-1220066D01*
X-20187457Y-1196257D01*
X-20282695Y-1172447D01*
X-20354123Y-1172447D01*
X-20449361Y-1196257D01*
X-20496980Y-1220066D01*
X-20544600Y-1267685D01*
X-20568409Y-1339114D01*
X-20568409Y-1386733D01*
X-20544600Y-1458161D01*
X-20520790Y-1481971D01*
X-20568409Y-1910542D02*
X-20568409Y-1815304D01*
X-20544600Y-1767685D01*
X-20520790Y-1743876D01*
X-20449361Y-1696257D01*
X-20354123Y-1672447D01*
X-20163647Y-1672447D01*
X-20116028Y-1696257D01*
X-20092219Y-1720066D01*
X-20068409Y-1767685D01*
X-20068409Y-1862923D01*
X-20092219Y-1910542D01*
X-20116028Y-1934352D01*
X-20163647Y-1958161D01*
X-20282695Y-1958161D01*
X-20330314Y-1934352D01*
X-20354123Y-1910542D01*
X-20377933Y-1862923D01*
X-20377933Y-1767685D01*
X-20354123Y-1720066D01*
X-20330314Y-1696257D01*
X-20282695Y-1672447D01*
X-20568409Y-2124828D02*
X-20568409Y-2434352D01*
X-20377933Y-2267685D01*
X-20377933Y-2339114D01*
X-20354123Y-2386733D01*
X-20330314Y-2410542D01*
X-20282695Y-2434352D01*
X-20163647Y-2434352D01*
X-20116028Y-2410542D01*
X-20092219Y-2386733D01*
X-20068409Y-2339114D01*
X-20068409Y-2196257D01*
X-20092219Y-2148638D01*
X-20116028Y-2124828D01*
G04 #@! TO.C,C50*
X-14961184Y-3045953D02*
X-14961184Y-3079625D01*
X-14927512Y-3146968D01*
X-14893841Y-3180640D01*
X-14826497Y-3214312D01*
X-14759154Y-3214312D01*
X-14708646Y-3197476D01*
X-14624467Y-3146968D01*
X-14573959Y-3096461D01*
X-14523451Y-3012281D01*
X-14506616Y-2961774D01*
X-14506616Y-2894430D01*
X-14540287Y-2827087D01*
X-14573959Y-2793415D01*
X-14641303Y-2759743D01*
X-14674974Y-2759743D01*
X-14961184Y-2406190D02*
X-14792825Y-2574548D01*
X-14944348Y-2759743D01*
X-14944348Y-2726071D01*
X-14961184Y-2675564D01*
X-15045364Y-2591384D01*
X-15095871Y-2574548D01*
X-15129543Y-2574548D01*
X-15180051Y-2591384D01*
X-15264230Y-2675564D01*
X-15281066Y-2726071D01*
X-15281066Y-2759743D01*
X-15264230Y-2810251D01*
X-15180051Y-2894430D01*
X-15129543Y-2911266D01*
X-15095871Y-2911266D01*
X-15196887Y-2170487D02*
X-15230558Y-2136816D01*
X-15281066Y-2119980D01*
X-15314738Y-2119980D01*
X-15365245Y-2136816D01*
X-15449425Y-2187323D01*
X-15533604Y-2271503D01*
X-15584112Y-2355682D01*
X-15600948Y-2406190D01*
X-15600948Y-2439861D01*
X-15584112Y-2490369D01*
X-15550440Y-2524041D01*
X-15499932Y-2540877D01*
X-15466261Y-2540877D01*
X-15415753Y-2524041D01*
X-15331574Y-2473533D01*
X-15247394Y-2389354D01*
X-15196887Y-2305174D01*
X-15180051Y-2254667D01*
X-15180051Y-2220995D01*
X-15196887Y-2170487D01*
G04 #@! TO.C,C54*
X-17331571Y6171428D02*
X-17307761Y6147619D01*
X-17236333Y6123809D01*
X-17188714Y6123809D01*
X-17117285Y6147619D01*
X-17069666Y6195238D01*
X-17045857Y6242857D01*
X-17022047Y6338095D01*
X-17022047Y6409523D01*
X-17045857Y6504761D01*
X-17069666Y6552380D01*
X-17117285Y6600000D01*
X-17188714Y6623809D01*
X-17236333Y6623809D01*
X-17307761Y6600000D01*
X-17331571Y6576190D01*
X-17783952Y6623809D02*
X-17545857Y6623809D01*
X-17522047Y6385714D01*
X-17545857Y6409523D01*
X-17593476Y6433333D01*
X-17712523Y6433333D01*
X-17760142Y6409523D01*
X-17783952Y6385714D01*
X-17807761Y6338095D01*
X-17807761Y6219047D01*
X-17783952Y6171428D01*
X-17760142Y6147619D01*
X-17712523Y6123809D01*
X-17593476Y6123809D01*
X-17545857Y6147619D01*
X-17522047Y6171428D01*
X-18236333Y6457142D02*
X-18236333Y6123809D01*
X-18117285Y6647619D02*
X-17998238Y6290476D01*
X-18307761Y6290476D01*
G04 #@! TO.C,C10*
X16755228Y-6655571D02*
X16779038Y-6679380D01*
X16850466Y-6703190D01*
X16898085Y-6703190D01*
X16969514Y-6679380D01*
X17017133Y-6631761D01*
X17040942Y-6584142D01*
X17064752Y-6488904D01*
X17064752Y-6417476D01*
X17040942Y-6322238D01*
X17017133Y-6274619D01*
X16969514Y-6227000D01*
X16898085Y-6203190D01*
X16850466Y-6203190D01*
X16779038Y-6227000D01*
X16755228Y-6250809D01*
X16279038Y-6703190D02*
X16564752Y-6703190D01*
X16421895Y-6703190D02*
X16421895Y-6203190D01*
X16469514Y-6274619D01*
X16517133Y-6322238D01*
X16564752Y-6346047D01*
X15969514Y-6203190D02*
X15921895Y-6203190D01*
X15874276Y-6227000D01*
X15850466Y-6250809D01*
X15826657Y-6298428D01*
X15802847Y-6393666D01*
X15802847Y-6512714D01*
X15826657Y-6607952D01*
X15850466Y-6655571D01*
X15874276Y-6679380D01*
X15921895Y-6703190D01*
X15969514Y-6703190D01*
X16017133Y-6679380D01*
X16040942Y-6655571D01*
X16064752Y-6607952D01*
X16088561Y-6512714D01*
X16088561Y-6393666D01*
X16064752Y-6298428D01*
X16040942Y-6250809D01*
X16017133Y-6227000D01*
X15969514Y-6203190D01*
G04 #@! TO.C,C12*
X18990428Y-6426971D02*
X19014238Y-6450780D01*
X19085666Y-6474590D01*
X19133285Y-6474590D01*
X19204714Y-6450780D01*
X19252333Y-6403161D01*
X19276142Y-6355542D01*
X19299952Y-6260304D01*
X19299952Y-6188876D01*
X19276142Y-6093638D01*
X19252333Y-6046019D01*
X19204714Y-5998400D01*
X19133285Y-5974590D01*
X19085666Y-5974590D01*
X19014238Y-5998400D01*
X18990428Y-6022209D01*
X18514238Y-6474590D02*
X18799952Y-6474590D01*
X18657095Y-6474590D02*
X18657095Y-5974590D01*
X18704714Y-6046019D01*
X18752333Y-6093638D01*
X18799952Y-6117447D01*
X18323761Y-6022209D02*
X18299952Y-5998400D01*
X18252333Y-5974590D01*
X18133285Y-5974590D01*
X18085666Y-5998400D01*
X18061857Y-6022209D01*
X18038047Y-6069828D01*
X18038047Y-6117447D01*
X18061857Y-6188876D01*
X18347571Y-6474590D01*
X18038047Y-6474590D01*
G04 #@! TO.C,C6*
X15526794Y-2886743D02*
X15560466Y-2886743D01*
X15627809Y-2853071D01*
X15661481Y-2819400D01*
X15695153Y-2752056D01*
X15695153Y-2684712D01*
X15678317Y-2634205D01*
X15627809Y-2550025D01*
X15577302Y-2499518D01*
X15493122Y-2449010D01*
X15442615Y-2432174D01*
X15375271Y-2432174D01*
X15307928Y-2465846D01*
X15274256Y-2499518D01*
X15240584Y-2566861D01*
X15240584Y-2600533D01*
X14903867Y-2869907D02*
X14971210Y-2802564D01*
X15021718Y-2785728D01*
X15055390Y-2785728D01*
X15139569Y-2802564D01*
X15223748Y-2853071D01*
X15358435Y-2987758D01*
X15375271Y-3038266D01*
X15375271Y-3071938D01*
X15358435Y-3122445D01*
X15291092Y-3189789D01*
X15240584Y-3206625D01*
X15206912Y-3206625D01*
X15156405Y-3189789D01*
X15072225Y-3105609D01*
X15055390Y-3055102D01*
X15055390Y-3021430D01*
X15072225Y-2970922D01*
X15139569Y-2903579D01*
X15190077Y-2886743D01*
X15223748Y-2886743D01*
X15274256Y-2903579D01*
G04 #@! TO.C,C18*
X20523971Y397628D02*
X20547780Y421438D01*
X20571590Y492866D01*
X20571590Y540485D01*
X20547780Y611914D01*
X20500161Y659533D01*
X20452542Y683342D01*
X20357304Y707152D01*
X20285876Y707152D01*
X20190638Y683342D01*
X20143019Y659533D01*
X20095400Y611914D01*
X20071590Y540485D01*
X20071590Y492866D01*
X20095400Y421438D01*
X20119209Y397628D01*
X20571590Y-78561D02*
X20571590Y207152D01*
X20571590Y64295D02*
X20071590Y64295D01*
X20143019Y111914D01*
X20190638Y159533D01*
X20214447Y207152D01*
X20285876Y-364276D02*
X20262066Y-316657D01*
X20238257Y-292847D01*
X20190638Y-269038D01*
X20166828Y-269038D01*
X20119209Y-292847D01*
X20095400Y-316657D01*
X20071590Y-364276D01*
X20071590Y-459514D01*
X20095400Y-507133D01*
X20119209Y-530942D01*
X20166828Y-554752D01*
X20190638Y-554752D01*
X20238257Y-530942D01*
X20262066Y-507133D01*
X20285876Y-459514D01*
X20285876Y-364276D01*
X20309685Y-316657D01*
X20333495Y-292847D01*
X20381114Y-269038D01*
X20476352Y-269038D01*
X20523971Y-292847D01*
X20547780Y-316657D01*
X20571590Y-364276D01*
X20571590Y-459514D01*
X20547780Y-507133D01*
X20523971Y-530942D01*
X20476352Y-554752D01*
X20381114Y-554752D01*
X20333495Y-530942D01*
X20309685Y-507133D01*
X20285876Y-459514D01*
G04 #@! TO.C,C128*
X-11543087Y-8366625D02*
X-11509416Y-8366625D01*
X-11442072Y-8332954D01*
X-11408400Y-8299282D01*
X-11374729Y-8231938D01*
X-11374729Y-8164595D01*
X-11391564Y-8114087D01*
X-11442072Y-8029908D01*
X-11492580Y-7979400D01*
X-11576759Y-7928893D01*
X-11627267Y-7912057D01*
X-11694610Y-7912057D01*
X-11761954Y-7945729D01*
X-11795625Y-7979400D01*
X-11829297Y-8046744D01*
X-11829297Y-8080416D01*
X-11846133Y-8737015D02*
X-11644103Y-8534984D01*
X-11745118Y-8636000D02*
X-12098671Y-8282446D01*
X-12014492Y-8299282D01*
X-11947148Y-8299282D01*
X-11896641Y-8282446D01*
X-12300702Y-8551820D02*
X-12334374Y-8551820D01*
X-12384881Y-8568656D01*
X-12469061Y-8652835D01*
X-12485896Y-8703343D01*
X-12485896Y-8737015D01*
X-12469061Y-8787522D01*
X-12435389Y-8821194D01*
X-12368045Y-8854866D01*
X-11963984Y-8854866D01*
X-12182851Y-9073732D01*
X-12586912Y-9073732D02*
X-12570076Y-9023225D01*
X-12570076Y-8989553D01*
X-12586912Y-8939045D01*
X-12603748Y-8922209D01*
X-12654255Y-8905374D01*
X-12687927Y-8905374D01*
X-12738435Y-8922209D01*
X-12805778Y-8989553D01*
X-12822614Y-9040061D01*
X-12822614Y-9073732D01*
X-12805778Y-9124240D01*
X-12788942Y-9141076D01*
X-12738435Y-9157912D01*
X-12704763Y-9157912D01*
X-12654255Y-9141076D01*
X-12586912Y-9073732D01*
X-12536404Y-9056896D01*
X-12502732Y-9056896D01*
X-12452225Y-9073732D01*
X-12384881Y-9141076D01*
X-12368045Y-9191583D01*
X-12368045Y-9225255D01*
X-12384881Y-9275763D01*
X-12452225Y-9343106D01*
X-12502732Y-9359942D01*
X-12536404Y-9359942D01*
X-12586912Y-9343106D01*
X-12654255Y-9275763D01*
X-12671091Y-9225255D01*
X-12671091Y-9191583D01*
X-12654255Y-9141076D01*
G04 #@! TO.C,C48*
X-14683246Y2742614D02*
X-14649574Y2742614D01*
X-14582231Y2776286D01*
X-14548559Y2809957D01*
X-14514887Y2877301D01*
X-14514887Y2944644D01*
X-14531723Y2995152D01*
X-14582231Y3079331D01*
X-14632738Y3129839D01*
X-14716918Y3180347D01*
X-14767425Y3197182D01*
X-14834769Y3197182D01*
X-14902112Y3163511D01*
X-14935784Y3129839D01*
X-14969456Y3062495D01*
X-14969456Y3028824D01*
X-15188322Y2641599D02*
X-14952620Y2405896D01*
X-15238830Y2860465D02*
X-14902112Y2692106D01*
X-15120979Y2473240D01*
X-15390353Y2372224D02*
X-15373517Y2422732D01*
X-15373517Y2456404D01*
X-15390353Y2506911D01*
X-15407189Y2523747D01*
X-15457696Y2540583D01*
X-15491368Y2540583D01*
X-15541876Y2523747D01*
X-15609219Y2456404D01*
X-15626055Y2405896D01*
X-15626055Y2372224D01*
X-15609219Y2321717D01*
X-15592383Y2304881D01*
X-15541876Y2288045D01*
X-15508204Y2288045D01*
X-15457696Y2304881D01*
X-15390353Y2372224D01*
X-15339845Y2389060D01*
X-15306174Y2389060D01*
X-15255666Y2372224D01*
X-15188322Y2304881D01*
X-15171487Y2254373D01*
X-15171487Y2220702D01*
X-15188322Y2170194D01*
X-15255666Y2102850D01*
X-15306174Y2086015D01*
X-15339845Y2086015D01*
X-15390353Y2102850D01*
X-15457696Y2170194D01*
X-15474532Y2220702D01*
X-15474532Y2254373D01*
X-15457696Y2304881D01*
G04 #@! TO.C,C60*
X-20192228Y397628D02*
X-20168419Y421438D01*
X-20144609Y492866D01*
X-20144609Y540485D01*
X-20168419Y611914D01*
X-20216038Y659533D01*
X-20263657Y683342D01*
X-20358895Y707152D01*
X-20430323Y707152D01*
X-20525561Y683342D01*
X-20573180Y659533D01*
X-20620800Y611914D01*
X-20644609Y540485D01*
X-20644609Y492866D01*
X-20620800Y421438D01*
X-20596990Y397628D01*
X-20644609Y-30942D02*
X-20644609Y64295D01*
X-20620800Y111914D01*
X-20596990Y135723D01*
X-20525561Y183342D01*
X-20430323Y207152D01*
X-20239847Y207152D01*
X-20192228Y183342D01*
X-20168419Y159533D01*
X-20144609Y111914D01*
X-20144609Y16676D01*
X-20168419Y-30942D01*
X-20192228Y-54752D01*
X-20239847Y-78561D01*
X-20358895Y-78561D01*
X-20406514Y-54752D01*
X-20430323Y-30942D01*
X-20454133Y16676D01*
X-20454133Y111914D01*
X-20430323Y159533D01*
X-20406514Y183342D01*
X-20358895Y207152D01*
X-20644609Y-388085D02*
X-20644609Y-435704D01*
X-20620800Y-483323D01*
X-20596990Y-507133D01*
X-20549371Y-530942D01*
X-20454133Y-554752D01*
X-20335085Y-554752D01*
X-20239847Y-530942D01*
X-20192228Y-507133D01*
X-20168419Y-483323D01*
X-20144609Y-435704D01*
X-20144609Y-388085D01*
X-20168419Y-340466D01*
X-20192228Y-316657D01*
X-20239847Y-292847D01*
X-20335085Y-269038D01*
X-20454133Y-269038D01*
X-20549371Y-292847D01*
X-20596990Y-316657D01*
X-20620800Y-340466D01*
X-20644609Y-388085D01*
G04 #@! TO.C,C58*
X-20116028Y2505828D02*
X-20092219Y2529638D01*
X-20068409Y2601066D01*
X-20068409Y2648685D01*
X-20092219Y2720114D01*
X-20139838Y2767733D01*
X-20187457Y2791542D01*
X-20282695Y2815352D01*
X-20354123Y2815352D01*
X-20449361Y2791542D01*
X-20496980Y2767733D01*
X-20544600Y2720114D01*
X-20568409Y2648685D01*
X-20568409Y2601066D01*
X-20544600Y2529638D01*
X-20520790Y2505828D01*
X-20568409Y2053447D02*
X-20568409Y2291542D01*
X-20330314Y2315352D01*
X-20354123Y2291542D01*
X-20377933Y2243923D01*
X-20377933Y2124876D01*
X-20354123Y2077257D01*
X-20330314Y2053447D01*
X-20282695Y2029638D01*
X-20163647Y2029638D01*
X-20116028Y2053447D01*
X-20092219Y2077257D01*
X-20068409Y2124876D01*
X-20068409Y2243923D01*
X-20092219Y2291542D01*
X-20116028Y2315352D01*
X-20354123Y1743923D02*
X-20377933Y1791542D01*
X-20401742Y1815352D01*
X-20449361Y1839161D01*
X-20473171Y1839161D01*
X-20520790Y1815352D01*
X-20544600Y1791542D01*
X-20568409Y1743923D01*
X-20568409Y1648685D01*
X-20544600Y1601066D01*
X-20520790Y1577257D01*
X-20473171Y1553447D01*
X-20449361Y1553447D01*
X-20401742Y1577257D01*
X-20377933Y1601066D01*
X-20354123Y1648685D01*
X-20354123Y1743923D01*
X-20330314Y1791542D01*
X-20306504Y1815352D01*
X-20258885Y1839161D01*
X-20163647Y1839161D01*
X-20116028Y1815352D01*
X-20092219Y1791542D01*
X-20068409Y1743923D01*
X-20068409Y1648685D01*
X-20092219Y1601066D01*
X-20116028Y1577257D01*
X-20163647Y1553447D01*
X-20258885Y1553447D01*
X-20306504Y1577257D01*
X-20330314Y1601066D01*
X-20354123Y1648685D01*
G04 #@! TO.C,C39*
X423028Y-20549371D02*
X446838Y-20573180D01*
X518266Y-20596990D01*
X565885Y-20596990D01*
X637314Y-20573180D01*
X684933Y-20525561D01*
X708742Y-20477942D01*
X732552Y-20382704D01*
X732552Y-20311276D01*
X708742Y-20216038D01*
X684933Y-20168419D01*
X637314Y-20120800D01*
X565885Y-20096990D01*
X518266Y-20096990D01*
X446838Y-20120800D01*
X423028Y-20144609D01*
X256361Y-20096990D02*
X-53161Y-20096990D01*
X113504Y-20287466D01*
X42076Y-20287466D01*
X-5542Y-20311276D01*
X-29352Y-20335085D01*
X-53161Y-20382704D01*
X-53161Y-20501752D01*
X-29352Y-20549371D01*
X-5542Y-20573180D01*
X42076Y-20596990D01*
X184933Y-20596990D01*
X232552Y-20573180D01*
X256361Y-20549371D01*
X-291257Y-20596990D02*
X-386495Y-20596990D01*
X-434114Y-20573180D01*
X-457923Y-20549371D01*
X-505542Y-20477942D01*
X-529352Y-20382704D01*
X-529352Y-20192228D01*
X-505542Y-20144609D01*
X-481733Y-20120800D01*
X-434114Y-20096990D01*
X-338876Y-20096990D01*
X-291257Y-20120800D01*
X-267447Y-20144609D01*
X-243638Y-20192228D01*
X-243638Y-20311276D01*
X-267447Y-20358895D01*
X-291257Y-20382704D01*
X-338876Y-20406514D01*
X-434114Y-20406514D01*
X-481733Y-20382704D01*
X-505542Y-20358895D01*
X-529352Y-20311276D01*
G04 #@! TO.C,C27*
X-2515184Y-15441153D02*
X-2515184Y-15474825D01*
X-2481512Y-15542168D01*
X-2447841Y-15575840D01*
X-2380497Y-15609512D01*
X-2313154Y-15609512D01*
X-2262646Y-15592676D01*
X-2178467Y-15542168D01*
X-2127959Y-15491661D01*
X-2077451Y-15407481D01*
X-2060616Y-15356974D01*
X-2060616Y-15289630D01*
X-2094287Y-15222287D01*
X-2127959Y-15188615D01*
X-2195303Y-15154943D01*
X-2228974Y-15154943D01*
X-2363661Y-15020256D02*
X-2363661Y-14986584D01*
X-2380497Y-14936077D01*
X-2464677Y-14851897D01*
X-2515184Y-14835061D01*
X-2548856Y-14835061D01*
X-2599364Y-14851897D01*
X-2633035Y-14885569D01*
X-2666707Y-14952912D01*
X-2666707Y-15356974D01*
X-2885574Y-15138107D01*
X-2649871Y-14666703D02*
X-2885574Y-14431000D01*
X-3087604Y-14936077D01*
G04 #@! TO.C,C69*
X2920415Y14683246D02*
X2920415Y14649574D01*
X2954087Y14582231D01*
X2987758Y14548559D01*
X3055102Y14514887D01*
X3122445Y14514887D01*
X3172953Y14531723D01*
X3257132Y14582231D01*
X3307640Y14632738D01*
X3358148Y14716918D01*
X3374983Y14767425D01*
X3374983Y14834769D01*
X3341312Y14902112D01*
X3307640Y14935784D01*
X3240296Y14969456D01*
X3206625Y14969456D01*
X2937251Y15306174D02*
X3004594Y15238830D01*
X3021430Y15188322D01*
X3021430Y15154651D01*
X3004594Y15070471D01*
X2954087Y14986292D01*
X2819400Y14851605D01*
X2768892Y14834769D01*
X2735220Y14834769D01*
X2684712Y14851605D01*
X2617369Y14918948D01*
X2600533Y14969456D01*
X2600533Y15003128D01*
X2617369Y15053635D01*
X2701548Y15137815D01*
X2752056Y15154651D01*
X2785728Y15154651D01*
X2836235Y15137815D01*
X2903579Y15070471D01*
X2920415Y15019964D01*
X2920415Y14986292D01*
X2903579Y14935784D01*
X2381667Y15154651D02*
X2314323Y15221994D01*
X2297487Y15272502D01*
X2297487Y15306174D01*
X2314323Y15390353D01*
X2364831Y15474532D01*
X2499518Y15609219D01*
X2550025Y15626055D01*
X2583697Y15626055D01*
X2634205Y15609219D01*
X2701548Y15541876D01*
X2718384Y15491368D01*
X2718384Y15457696D01*
X2701548Y15407189D01*
X2617369Y15323009D01*
X2566861Y15306174D01*
X2533190Y15306174D01*
X2482682Y15323009D01*
X2415338Y15390353D01*
X2398503Y15440861D01*
X2398503Y15474532D01*
X2415338Y15525040D01*
G04 #@! TO.C,C81*
X397628Y19658828D02*
X421438Y19635019D01*
X492866Y19611209D01*
X540485Y19611209D01*
X611914Y19635019D01*
X659533Y19682638D01*
X683342Y19730257D01*
X707152Y19825495D01*
X707152Y19896923D01*
X683342Y19992161D01*
X659533Y20039780D01*
X611914Y20087400D01*
X540485Y20111209D01*
X492866Y20111209D01*
X421438Y20087400D01*
X397628Y20063590D01*
X111914Y19896923D02*
X159533Y19920733D01*
X183342Y19944542D01*
X207152Y19992161D01*
X207152Y20015971D01*
X183342Y20063590D01*
X159533Y20087400D01*
X111914Y20111209D01*
X16676Y20111209D01*
X-30942Y20087400D01*
X-54752Y20063590D01*
X-78561Y20015971D01*
X-78561Y19992161D01*
X-54752Y19944542D01*
X-30942Y19920733D01*
X16676Y19896923D01*
X111914Y19896923D01*
X159533Y19873114D01*
X183342Y19849304D01*
X207152Y19801685D01*
X207152Y19706447D01*
X183342Y19658828D01*
X159533Y19635019D01*
X111914Y19611209D01*
X16676Y19611209D01*
X-30942Y19635019D01*
X-54752Y19658828D01*
X-78561Y19706447D01*
X-78561Y19801685D01*
X-54752Y19849304D01*
X-30942Y19873114D01*
X16676Y19896923D01*
X-554752Y19611209D02*
X-269038Y19611209D01*
X-411895Y19611209D02*
X-411895Y20111209D01*
X-364276Y20039780D01*
X-316657Y19992161D01*
X-269038Y19968352D01*
G04 #@! TO.C,C79*
X2429628Y19633428D02*
X2453438Y19609619D01*
X2524866Y19585809D01*
X2572485Y19585809D01*
X2643914Y19609619D01*
X2691533Y19657238D01*
X2715342Y19704857D01*
X2739152Y19800095D01*
X2739152Y19871523D01*
X2715342Y19966761D01*
X2691533Y20014380D01*
X2643914Y20062000D01*
X2572485Y20085809D01*
X2524866Y20085809D01*
X2453438Y20062000D01*
X2429628Y20038190D01*
X2262961Y20085809D02*
X1929628Y20085809D01*
X2143914Y19585809D01*
X1715342Y19585809D02*
X1620104Y19585809D01*
X1572485Y19609619D01*
X1548676Y19633428D01*
X1501057Y19704857D01*
X1477247Y19800095D01*
X1477247Y19990571D01*
X1501057Y20038190D01*
X1524866Y20062000D01*
X1572485Y20085809D01*
X1667723Y20085809D01*
X1715342Y20062000D01*
X1739152Y20038190D01*
X1762961Y19990571D01*
X1762961Y19871523D01*
X1739152Y19823904D01*
X1715342Y19800095D01*
X1667723Y19776285D01*
X1572485Y19776285D01*
X1524866Y19800095D01*
X1501057Y19823904D01*
X1477247Y19871523D01*
G04 #@! TO.C,C16*
X21692371Y-1837571D02*
X21716180Y-1813761D01*
X21739990Y-1742333D01*
X21739990Y-1694714D01*
X21716180Y-1623285D01*
X21668561Y-1575666D01*
X21620942Y-1551857D01*
X21525704Y-1528047D01*
X21454276Y-1528047D01*
X21359038Y-1551857D01*
X21311419Y-1575666D01*
X21263800Y-1623285D01*
X21239990Y-1694714D01*
X21239990Y-1742333D01*
X21263800Y-1813761D01*
X21287609Y-1837571D01*
X21739990Y-2313761D02*
X21739990Y-2028047D01*
X21739990Y-2170904D02*
X21239990Y-2170904D01*
X21311419Y-2123285D01*
X21359038Y-2075666D01*
X21382847Y-2028047D01*
X21239990Y-2742333D02*
X21239990Y-2647095D01*
X21263800Y-2599476D01*
X21287609Y-2575666D01*
X21359038Y-2528047D01*
X21454276Y-2504238D01*
X21644752Y-2504238D01*
X21692371Y-2528047D01*
X21716180Y-2551857D01*
X21739990Y-2599476D01*
X21739990Y-2694714D01*
X21716180Y-2742333D01*
X21692371Y-2766142D01*
X21644752Y-2789952D01*
X21525704Y-2789952D01*
X21478085Y-2766142D01*
X21454276Y-2742333D01*
X21430466Y-2694714D01*
X21430466Y-2599476D01*
X21454276Y-2551857D01*
X21478085Y-2528047D01*
X21525704Y-2504238D01*
G04 #@! TO.C,C37*
X-1786771Y-20574771D02*
X-1762961Y-20598580D01*
X-1691533Y-20622390D01*
X-1643914Y-20622390D01*
X-1572485Y-20598580D01*
X-1524866Y-20550961D01*
X-1501057Y-20503342D01*
X-1477247Y-20408104D01*
X-1477247Y-20336676D01*
X-1501057Y-20241438D01*
X-1524866Y-20193819D01*
X-1572485Y-20146200D01*
X-1643914Y-20122390D01*
X-1691533Y-20122390D01*
X-1762961Y-20146200D01*
X-1786771Y-20170009D01*
X-1953438Y-20122390D02*
X-2262961Y-20122390D01*
X-2096295Y-20312866D01*
X-2167723Y-20312866D01*
X-2215342Y-20336676D01*
X-2239152Y-20360485D01*
X-2262961Y-20408104D01*
X-2262961Y-20527152D01*
X-2239152Y-20574771D01*
X-2215342Y-20598580D01*
X-2167723Y-20622390D01*
X-2024866Y-20622390D01*
X-1977247Y-20598580D01*
X-1953438Y-20574771D01*
X-2429628Y-20122390D02*
X-2762961Y-20122390D01*
X-2548676Y-20622390D01*
G04 #@! TO.C,C14*
X20844628Y-6350771D02*
X20868438Y-6374580D01*
X20939866Y-6398390D01*
X20987485Y-6398390D01*
X21058914Y-6374580D01*
X21106533Y-6326961D01*
X21130342Y-6279342D01*
X21154152Y-6184104D01*
X21154152Y-6112676D01*
X21130342Y-6017438D01*
X21106533Y-5969819D01*
X21058914Y-5922200D01*
X20987485Y-5898390D01*
X20939866Y-5898390D01*
X20868438Y-5922200D01*
X20844628Y-5946009D01*
X20368438Y-6398390D02*
X20654152Y-6398390D01*
X20511295Y-6398390D02*
X20511295Y-5898390D01*
X20558914Y-5969819D01*
X20606533Y-6017438D01*
X20654152Y-6041247D01*
X19939866Y-6065057D02*
X19939866Y-6398390D01*
X20058914Y-5874580D02*
X20177961Y-6231723D01*
X19868438Y-6231723D01*
G04 #@! TO.C,C13*
X20844628Y-6985771D02*
X20868438Y-7009580D01*
X20939866Y-7033390D01*
X20987485Y-7033390D01*
X21058914Y-7009580D01*
X21106533Y-6961961D01*
X21130342Y-6914342D01*
X21154152Y-6819104D01*
X21154152Y-6747676D01*
X21130342Y-6652438D01*
X21106533Y-6604819D01*
X21058914Y-6557200D01*
X20987485Y-6533390D01*
X20939866Y-6533390D01*
X20868438Y-6557200D01*
X20844628Y-6581009D01*
X20368438Y-7033390D02*
X20654152Y-7033390D01*
X20511295Y-7033390D02*
X20511295Y-6533390D01*
X20558914Y-6604819D01*
X20606533Y-6652438D01*
X20654152Y-6676247D01*
X20201771Y-6533390D02*
X19892247Y-6533390D01*
X20058914Y-6723866D01*
X19987485Y-6723866D01*
X19939866Y-6747676D01*
X19916057Y-6771485D01*
X19892247Y-6819104D01*
X19892247Y-6938152D01*
X19916057Y-6985771D01*
X19939866Y-7009580D01*
X19987485Y-7033390D01*
X20130342Y-7033390D01*
X20177961Y-7009580D01*
X20201771Y-6985771D01*
G04 #@! TO.C,C34*
X-6552428Y-19998571D02*
X-6528619Y-19974761D01*
X-6504809Y-19903333D01*
X-6504809Y-19855714D01*
X-6528619Y-19784285D01*
X-6576238Y-19736666D01*
X-6623857Y-19712857D01*
X-6719095Y-19689047D01*
X-6790523Y-19689047D01*
X-6885761Y-19712857D01*
X-6933380Y-19736666D01*
X-6981000Y-19784285D01*
X-7004809Y-19855714D01*
X-7004809Y-19903333D01*
X-6981000Y-19974761D01*
X-6957190Y-19998571D01*
X-7004809Y-20165238D02*
X-7004809Y-20474761D01*
X-6814333Y-20308095D01*
X-6814333Y-20379523D01*
X-6790523Y-20427142D01*
X-6766714Y-20450952D01*
X-6719095Y-20474761D01*
X-6600047Y-20474761D01*
X-6552428Y-20450952D01*
X-6528619Y-20427142D01*
X-6504809Y-20379523D01*
X-6504809Y-20236666D01*
X-6528619Y-20189047D01*
X-6552428Y-20165238D01*
X-6838142Y-20903333D02*
X-6504809Y-20903333D01*
X-7028619Y-20784285D02*
X-6671476Y-20665238D01*
X-6671476Y-20974761D01*
G04 #@! TO.C,C35*
X-5714228Y-19922371D02*
X-5690419Y-19898561D01*
X-5666609Y-19827133D01*
X-5666609Y-19779514D01*
X-5690419Y-19708085D01*
X-5738038Y-19660466D01*
X-5785657Y-19636657D01*
X-5880895Y-19612847D01*
X-5952323Y-19612847D01*
X-6047561Y-19636657D01*
X-6095180Y-19660466D01*
X-6142800Y-19708085D01*
X-6166609Y-19779514D01*
X-6166609Y-19827133D01*
X-6142800Y-19898561D01*
X-6118990Y-19922371D01*
X-6166609Y-20089038D02*
X-6166609Y-20398561D01*
X-5976133Y-20231895D01*
X-5976133Y-20303323D01*
X-5952323Y-20350942D01*
X-5928514Y-20374752D01*
X-5880895Y-20398561D01*
X-5761847Y-20398561D01*
X-5714228Y-20374752D01*
X-5690419Y-20350942D01*
X-5666609Y-20303323D01*
X-5666609Y-20160466D01*
X-5690419Y-20112847D01*
X-5714228Y-20089038D01*
X-6166609Y-20850942D02*
X-6166609Y-20612847D01*
X-5928514Y-20589038D01*
X-5952323Y-20612847D01*
X-5976133Y-20660466D01*
X-5976133Y-20779514D01*
X-5952323Y-20827133D01*
X-5928514Y-20850942D01*
X-5880895Y-20874752D01*
X-5761847Y-20874752D01*
X-5714228Y-20850942D01*
X-5690419Y-20827133D01*
X-5666609Y-20779514D01*
X-5666609Y-20660466D01*
X-5690419Y-20612847D01*
X-5714228Y-20589038D01*
G04 #@! TO.C,C76*
X7290571Y20082628D02*
X7314380Y20106438D01*
X7338190Y20177866D01*
X7338190Y20225485D01*
X7314380Y20296914D01*
X7266761Y20344533D01*
X7219142Y20368342D01*
X7123904Y20392152D01*
X7052476Y20392152D01*
X6957238Y20368342D01*
X6909619Y20344533D01*
X6862000Y20296914D01*
X6838190Y20225485D01*
X6838190Y20177866D01*
X6862000Y20106438D01*
X6885809Y20082628D01*
X6838190Y19915961D02*
X6838190Y19582628D01*
X7338190Y19796914D01*
X6838190Y19177866D02*
X6838190Y19273104D01*
X6862000Y19320723D01*
X6885809Y19344533D01*
X6957238Y19392152D01*
X7052476Y19415961D01*
X7242952Y19415961D01*
X7290571Y19392152D01*
X7314380Y19368342D01*
X7338190Y19320723D01*
X7338190Y19225485D01*
X7314380Y19177866D01*
X7290571Y19154057D01*
X7242952Y19130247D01*
X7123904Y19130247D01*
X7076285Y19154057D01*
X7052476Y19177866D01*
X7028666Y19225485D01*
X7028666Y19320723D01*
X7052476Y19368342D01*
X7076285Y19392152D01*
X7123904Y19415961D01*
G04 #@! TO.C,C77*
X6528571Y20031828D02*
X6552380Y20055638D01*
X6576190Y20127066D01*
X6576190Y20174685D01*
X6552380Y20246114D01*
X6504761Y20293733D01*
X6457142Y20317542D01*
X6361904Y20341352D01*
X6290476Y20341352D01*
X6195238Y20317542D01*
X6147619Y20293733D01*
X6100000Y20246114D01*
X6076190Y20174685D01*
X6076190Y20127066D01*
X6100000Y20055638D01*
X6123809Y20031828D01*
X6076190Y19865161D02*
X6076190Y19531828D01*
X6576190Y19746114D01*
X6076190Y19388971D02*
X6076190Y19055638D01*
X6576190Y19269923D01*
G04 #@! TO.C,C91*
X6477771Y25795228D02*
X6501580Y25819038D01*
X6525390Y25890466D01*
X6525390Y25938085D01*
X6501580Y26009514D01*
X6453961Y26057133D01*
X6406342Y26080942D01*
X6311104Y26104752D01*
X6239676Y26104752D01*
X6144438Y26080942D01*
X6096819Y26057133D01*
X6049200Y26009514D01*
X6025390Y25938085D01*
X6025390Y25890466D01*
X6049200Y25819038D01*
X6073009Y25795228D01*
X6525390Y25557133D02*
X6525390Y25461895D01*
X6501580Y25414276D01*
X6477771Y25390466D01*
X6406342Y25342847D01*
X6311104Y25319038D01*
X6120628Y25319038D01*
X6073009Y25342847D01*
X6049200Y25366657D01*
X6025390Y25414276D01*
X6025390Y25509514D01*
X6049200Y25557133D01*
X6073009Y25580942D01*
X6120628Y25604752D01*
X6239676Y25604752D01*
X6287295Y25580942D01*
X6311104Y25557133D01*
X6334914Y25509514D01*
X6334914Y25414276D01*
X6311104Y25366657D01*
X6287295Y25342847D01*
X6239676Y25319038D01*
X6525390Y24842847D02*
X6525390Y25128561D01*
X6525390Y24985704D02*
X6025390Y24985704D01*
X6096819Y25033323D01*
X6144438Y25080942D01*
X6168247Y25128561D01*
G04 #@! TO.C,C89*
X-6247628Y26000828D02*
X-6223819Y26024638D01*
X-6200009Y26096066D01*
X-6200009Y26143685D01*
X-6223819Y26215114D01*
X-6271438Y26262733D01*
X-6319057Y26286542D01*
X-6414295Y26310352D01*
X-6485723Y26310352D01*
X-6580961Y26286542D01*
X-6628580Y26262733D01*
X-6676200Y26215114D01*
X-6700009Y26143685D01*
X-6700009Y26096066D01*
X-6676200Y26024638D01*
X-6652390Y26000828D01*
X-6485723Y25715114D02*
X-6509533Y25762733D01*
X-6533342Y25786542D01*
X-6580961Y25810352D01*
X-6604771Y25810352D01*
X-6652390Y25786542D01*
X-6676200Y25762733D01*
X-6700009Y25715114D01*
X-6700009Y25619876D01*
X-6676200Y25572257D01*
X-6652390Y25548447D01*
X-6604771Y25524638D01*
X-6580961Y25524638D01*
X-6533342Y25548447D01*
X-6509533Y25572257D01*
X-6485723Y25619876D01*
X-6485723Y25715114D01*
X-6461914Y25762733D01*
X-6438104Y25786542D01*
X-6390485Y25810352D01*
X-6295247Y25810352D01*
X-6247628Y25786542D01*
X-6223819Y25762733D01*
X-6200009Y25715114D01*
X-6200009Y25619876D01*
X-6223819Y25572257D01*
X-6247628Y25548447D01*
X-6295247Y25524638D01*
X-6390485Y25524638D01*
X-6438104Y25548447D01*
X-6461914Y25572257D01*
X-6485723Y25619876D01*
X-6200009Y25286542D02*
X-6200009Y25191304D01*
X-6223819Y25143685D01*
X-6247628Y25119876D01*
X-6319057Y25072257D01*
X-6414295Y25048447D01*
X-6604771Y25048447D01*
X-6652390Y25072257D01*
X-6676200Y25096066D01*
X-6700009Y25143685D01*
X-6700009Y25238923D01*
X-6676200Y25286542D01*
X-6652390Y25310352D01*
X-6604771Y25334161D01*
X-6485723Y25334161D01*
X-6438104Y25310352D01*
X-6414295Y25286542D01*
X-6390485Y25238923D01*
X-6390485Y25143685D01*
X-6414295Y25096066D01*
X-6438104Y25072257D01*
X-6485723Y25048447D01*
G04 #@! TO.C,C40*
X5029971Y-19947771D02*
X5053780Y-19923961D01*
X5077590Y-19852533D01*
X5077590Y-19804914D01*
X5053780Y-19733485D01*
X5006161Y-19685866D01*
X4958542Y-19662057D01*
X4863304Y-19638247D01*
X4791876Y-19638247D01*
X4696638Y-19662057D01*
X4649019Y-19685866D01*
X4601400Y-19733485D01*
X4577590Y-19804914D01*
X4577590Y-19852533D01*
X4601400Y-19923961D01*
X4625209Y-19947771D01*
X4744257Y-20376342D02*
X5077590Y-20376342D01*
X4553780Y-20257295D02*
X4910923Y-20138247D01*
X4910923Y-20447771D01*
X4577590Y-20733485D02*
X4577590Y-20781104D01*
X4601400Y-20828723D01*
X4625209Y-20852533D01*
X4672828Y-20876342D01*
X4768066Y-20900152D01*
X4887114Y-20900152D01*
X4982352Y-20876342D01*
X5029971Y-20852533D01*
X5053780Y-20828723D01*
X5077590Y-20781104D01*
X5077590Y-20733485D01*
X5053780Y-20685866D01*
X5029971Y-20662057D01*
X4982352Y-20638247D01*
X4887114Y-20614438D01*
X4768066Y-20614438D01*
X4672828Y-20638247D01*
X4625209Y-20662057D01*
X4601400Y-20685866D01*
X4577590Y-20733485D01*
G04 #@! TO.C,C32*
X-6577828Y-17737971D02*
X-6554019Y-17714161D01*
X-6530209Y-17642733D01*
X-6530209Y-17595114D01*
X-6554019Y-17523685D01*
X-6601638Y-17476066D01*
X-6649257Y-17452257D01*
X-6744495Y-17428447D01*
X-6815923Y-17428447D01*
X-6911161Y-17452257D01*
X-6958780Y-17476066D01*
X-7006400Y-17523685D01*
X-7030209Y-17595114D01*
X-7030209Y-17642733D01*
X-7006400Y-17714161D01*
X-6982590Y-17737971D01*
X-7030209Y-17904638D02*
X-7030209Y-18214161D01*
X-6839733Y-18047495D01*
X-6839733Y-18118923D01*
X-6815923Y-18166542D01*
X-6792114Y-18190352D01*
X-6744495Y-18214161D01*
X-6625447Y-18214161D01*
X-6577828Y-18190352D01*
X-6554019Y-18166542D01*
X-6530209Y-18118923D01*
X-6530209Y-17976066D01*
X-6554019Y-17928447D01*
X-6577828Y-17904638D01*
X-6982590Y-18404638D02*
X-7006400Y-18428447D01*
X-7030209Y-18476066D01*
X-7030209Y-18595114D01*
X-7006400Y-18642733D01*
X-6982590Y-18666542D01*
X-6934971Y-18690352D01*
X-6887352Y-18690352D01*
X-6815923Y-18666542D01*
X-6530209Y-18380828D01*
X-6530209Y-18690352D01*
G04 #@! TO.C,C28*
X2512553Y-14503984D02*
X2546225Y-14503984D01*
X2613568Y-14470312D01*
X2647240Y-14436641D01*
X2680912Y-14369297D01*
X2680912Y-14301954D01*
X2664076Y-14251446D01*
X2613568Y-14167267D01*
X2563061Y-14116759D01*
X2478881Y-14066251D01*
X2428374Y-14049416D01*
X2361030Y-14049416D01*
X2293687Y-14083087D01*
X2260015Y-14116759D01*
X2226343Y-14184103D01*
X2226343Y-14217774D01*
X2091656Y-14352461D02*
X2057984Y-14352461D01*
X2007477Y-14369297D01*
X1923297Y-14453477D01*
X1906461Y-14503984D01*
X1906461Y-14537656D01*
X1923297Y-14588164D01*
X1956969Y-14621835D01*
X2024312Y-14655507D01*
X2428374Y-14655507D01*
X2209507Y-14874374D01*
X1805446Y-14874374D02*
X1822282Y-14823866D01*
X1822282Y-14790194D01*
X1805446Y-14739687D01*
X1788610Y-14722851D01*
X1738103Y-14706015D01*
X1704431Y-14706015D01*
X1653923Y-14722851D01*
X1586580Y-14790194D01*
X1569744Y-14840702D01*
X1569744Y-14874374D01*
X1586580Y-14924881D01*
X1603416Y-14941717D01*
X1653923Y-14958553D01*
X1687595Y-14958553D01*
X1738103Y-14941717D01*
X1805446Y-14874374D01*
X1855954Y-14857538D01*
X1889625Y-14857538D01*
X1940133Y-14874374D01*
X2007477Y-14941717D01*
X2024312Y-14992225D01*
X2024312Y-15025896D01*
X2007477Y-15076404D01*
X1940133Y-15143748D01*
X1889625Y-15160583D01*
X1855954Y-15160583D01*
X1805446Y-15143748D01*
X1738103Y-15076404D01*
X1721267Y-15025896D01*
X1721267Y-14992225D01*
X1738103Y-14941717D01*
G04 #@! TO.C,C22*
X6477771Y-17534771D02*
X6501580Y-17510961D01*
X6525390Y-17439533D01*
X6525390Y-17391914D01*
X6501580Y-17320485D01*
X6453961Y-17272866D01*
X6406342Y-17249057D01*
X6311104Y-17225247D01*
X6239676Y-17225247D01*
X6144438Y-17249057D01*
X6096819Y-17272866D01*
X6049200Y-17320485D01*
X6025390Y-17391914D01*
X6025390Y-17439533D01*
X6049200Y-17510961D01*
X6073009Y-17534771D01*
X6073009Y-17725247D02*
X6049200Y-17749057D01*
X6025390Y-17796676D01*
X6025390Y-17915723D01*
X6049200Y-17963342D01*
X6073009Y-17987152D01*
X6120628Y-18010961D01*
X6168247Y-18010961D01*
X6239676Y-17987152D01*
X6525390Y-17701438D01*
X6525390Y-18010961D01*
X6073009Y-18201438D02*
X6049200Y-18225247D01*
X6025390Y-18272866D01*
X6025390Y-18391914D01*
X6049200Y-18439533D01*
X6073009Y-18463342D01*
X6120628Y-18487152D01*
X6168247Y-18487152D01*
X6239676Y-18463342D01*
X6525390Y-18177628D01*
X6525390Y-18487152D01*
G04 #@! TO.C,C30*
X-6628628Y-15401171D02*
X-6604819Y-15377361D01*
X-6581009Y-15305933D01*
X-6581009Y-15258314D01*
X-6604819Y-15186885D01*
X-6652438Y-15139266D01*
X-6700057Y-15115457D01*
X-6795295Y-15091647D01*
X-6866723Y-15091647D01*
X-6961961Y-15115457D01*
X-7009580Y-15139266D01*
X-7057200Y-15186885D01*
X-7081009Y-15258314D01*
X-7081009Y-15305933D01*
X-7057200Y-15377361D01*
X-7033390Y-15401171D01*
X-7081009Y-15567838D02*
X-7081009Y-15877361D01*
X-6890533Y-15710695D01*
X-6890533Y-15782123D01*
X-6866723Y-15829742D01*
X-6842914Y-15853552D01*
X-6795295Y-15877361D01*
X-6676247Y-15877361D01*
X-6628628Y-15853552D01*
X-6604819Y-15829742D01*
X-6581009Y-15782123D01*
X-6581009Y-15639266D01*
X-6604819Y-15591647D01*
X-6628628Y-15567838D01*
X-7081009Y-16186885D02*
X-7081009Y-16234504D01*
X-7057200Y-16282123D01*
X-7033390Y-16305933D01*
X-6985771Y-16329742D01*
X-6890533Y-16353552D01*
X-6771485Y-16353552D01*
X-6676247Y-16329742D01*
X-6628628Y-16305933D01*
X-6604819Y-16282123D01*
X-6581009Y-16234504D01*
X-6581009Y-16186885D01*
X-6604819Y-16139266D01*
X-6628628Y-16115457D01*
X-6676247Y-16091647D01*
X-6771485Y-16067838D01*
X-6890533Y-16067838D01*
X-6985771Y-16091647D01*
X-7033390Y-16115457D01*
X-7057200Y-16139266D01*
X-7081009Y-16186885D01*
G04 #@! TO.C,C24*
X6249171Y-13597771D02*
X6272980Y-13573961D01*
X6296790Y-13502533D01*
X6296790Y-13454914D01*
X6272980Y-13383485D01*
X6225361Y-13335866D01*
X6177742Y-13312057D01*
X6082504Y-13288247D01*
X6011076Y-13288247D01*
X5915838Y-13312057D01*
X5868219Y-13335866D01*
X5820600Y-13383485D01*
X5796790Y-13454914D01*
X5796790Y-13502533D01*
X5820600Y-13573961D01*
X5844409Y-13597771D01*
X5844409Y-13788247D02*
X5820600Y-13812057D01*
X5796790Y-13859676D01*
X5796790Y-13978723D01*
X5820600Y-14026342D01*
X5844409Y-14050152D01*
X5892028Y-14073961D01*
X5939647Y-14073961D01*
X6011076Y-14050152D01*
X6296790Y-13764438D01*
X6296790Y-14073961D01*
X5963457Y-14502533D02*
X6296790Y-14502533D01*
X5772980Y-14383485D02*
X6130123Y-14264438D01*
X6130123Y-14573961D01*
G04 #@! TO.C,C41*
X2277228Y-21793971D02*
X2301038Y-21817780D01*
X2372466Y-21841590D01*
X2420085Y-21841590D01*
X2491514Y-21817780D01*
X2539133Y-21770161D01*
X2562942Y-21722542D01*
X2586752Y-21627304D01*
X2586752Y-21555876D01*
X2562942Y-21460638D01*
X2539133Y-21413019D01*
X2491514Y-21365400D01*
X2420085Y-21341590D01*
X2372466Y-21341590D01*
X2301038Y-21365400D01*
X2277228Y-21389209D01*
X1848657Y-21508257D02*
X1848657Y-21841590D01*
X1967704Y-21317780D02*
X2086752Y-21674923D01*
X1777228Y-21674923D01*
X1324847Y-21841590D02*
X1610561Y-21841590D01*
X1467704Y-21841590D02*
X1467704Y-21341590D01*
X1515323Y-21413019D01*
X1562942Y-21460638D01*
X1610561Y-21484447D01*
G04 #@! TO.C,C83*
X-1532771Y20243028D02*
X-1508961Y20219219D01*
X-1437533Y20195409D01*
X-1389914Y20195409D01*
X-1318485Y20219219D01*
X-1270866Y20266838D01*
X-1247057Y20314457D01*
X-1223247Y20409695D01*
X-1223247Y20481123D01*
X-1247057Y20576361D01*
X-1270866Y20623980D01*
X-1318485Y20671600D01*
X-1389914Y20695409D01*
X-1437533Y20695409D01*
X-1508961Y20671600D01*
X-1532771Y20647790D01*
X-1818485Y20481123D02*
X-1770866Y20504933D01*
X-1747057Y20528742D01*
X-1723247Y20576361D01*
X-1723247Y20600171D01*
X-1747057Y20647790D01*
X-1770866Y20671600D01*
X-1818485Y20695409D01*
X-1913723Y20695409D01*
X-1961342Y20671600D01*
X-1985152Y20647790D01*
X-2008961Y20600171D01*
X-2008961Y20576361D01*
X-1985152Y20528742D01*
X-1961342Y20504933D01*
X-1913723Y20481123D01*
X-1818485Y20481123D01*
X-1770866Y20457314D01*
X-1747057Y20433504D01*
X-1723247Y20385885D01*
X-1723247Y20290647D01*
X-1747057Y20243028D01*
X-1770866Y20219219D01*
X-1818485Y20195409D01*
X-1913723Y20195409D01*
X-1961342Y20219219D01*
X-1985152Y20243028D01*
X-2008961Y20290647D01*
X-2008961Y20385885D01*
X-1985152Y20433504D01*
X-1961342Y20457314D01*
X-1913723Y20481123D01*
X-2175628Y20695409D02*
X-2485152Y20695409D01*
X-2318485Y20504933D01*
X-2389914Y20504933D01*
X-2437533Y20481123D01*
X-2461342Y20457314D01*
X-2485152Y20409695D01*
X-2485152Y20290647D01*
X-2461342Y20243028D01*
X-2437533Y20219219D01*
X-2389914Y20195409D01*
X-2247057Y20195409D01*
X-2199438Y20219219D01*
X-2175628Y20243028D01*
G04 #@! TO.C,C82*
X-4622028Y20666828D02*
X-4598219Y20690638D01*
X-4574409Y20762066D01*
X-4574409Y20809685D01*
X-4598219Y20881114D01*
X-4645838Y20928733D01*
X-4693457Y20952542D01*
X-4788695Y20976352D01*
X-4860123Y20976352D01*
X-4955361Y20952542D01*
X-5002980Y20928733D01*
X-5050600Y20881114D01*
X-5074409Y20809685D01*
X-5074409Y20762066D01*
X-5050600Y20690638D01*
X-5026790Y20666828D01*
X-4860123Y20381114D02*
X-4883933Y20428733D01*
X-4907742Y20452542D01*
X-4955361Y20476352D01*
X-4979171Y20476352D01*
X-5026790Y20452542D01*
X-5050600Y20428733D01*
X-5074409Y20381114D01*
X-5074409Y20285876D01*
X-5050600Y20238257D01*
X-5026790Y20214447D01*
X-4979171Y20190638D01*
X-4955361Y20190638D01*
X-4907742Y20214447D01*
X-4883933Y20238257D01*
X-4860123Y20285876D01*
X-4860123Y20381114D01*
X-4836314Y20428733D01*
X-4812504Y20452542D01*
X-4764885Y20476352D01*
X-4669647Y20476352D01*
X-4622028Y20452542D01*
X-4598219Y20428733D01*
X-4574409Y20381114D01*
X-4574409Y20285876D01*
X-4598219Y20238257D01*
X-4622028Y20214447D01*
X-4669647Y20190638D01*
X-4764885Y20190638D01*
X-4812504Y20214447D01*
X-4836314Y20238257D01*
X-4860123Y20285876D01*
X-5026790Y20000161D02*
X-5050600Y19976352D01*
X-5074409Y19928733D01*
X-5074409Y19809685D01*
X-5050600Y19762066D01*
X-5026790Y19738257D01*
X-4979171Y19714447D01*
X-4931552Y19714447D01*
X-4860123Y19738257D01*
X-4574409Y20023971D01*
X-4574409Y19714447D01*
G04 #@! TO.C,C74*
X7239771Y18126828D02*
X7263580Y18150638D01*
X7287390Y18222066D01*
X7287390Y18269685D01*
X7263580Y18341114D01*
X7215961Y18388733D01*
X7168342Y18412542D01*
X7073104Y18436352D01*
X7001676Y18436352D01*
X6906438Y18412542D01*
X6858819Y18388733D01*
X6811200Y18341114D01*
X6787390Y18269685D01*
X6787390Y18222066D01*
X6811200Y18150638D01*
X6835009Y18126828D01*
X6787390Y17960161D02*
X6787390Y17626828D01*
X7287390Y17841114D01*
X6954057Y17222066D02*
X7287390Y17222066D01*
X6763580Y17341114D02*
X7120723Y17460161D01*
X7120723Y17150638D01*
G04 #@! TO.C,C70*
X-1856246Y14604415D02*
X-1822574Y14604415D01*
X-1755231Y14638087D01*
X-1721559Y14671758D01*
X-1687887Y14739102D01*
X-1687887Y14806445D01*
X-1704723Y14856953D01*
X-1755231Y14941132D01*
X-1805738Y14991640D01*
X-1889918Y15042148D01*
X-1940425Y15058983D01*
X-2007769Y15058983D01*
X-2075112Y15025312D01*
X-2108784Y14991640D01*
X-2142456Y14924296D01*
X-2142456Y14890625D01*
X-2293979Y14806445D02*
X-2529681Y14570743D01*
X-2024605Y14368712D01*
X-2731712Y14368712D02*
X-2765383Y14335041D01*
X-2782219Y14284533D01*
X-2782219Y14250861D01*
X-2765383Y14200354D01*
X-2714876Y14116174D01*
X-2630696Y14031995D01*
X-2546517Y13981487D01*
X-2496009Y13964651D01*
X-2462338Y13964651D01*
X-2411830Y13981487D01*
X-2378158Y14015159D01*
X-2361322Y14065667D01*
X-2361322Y14099338D01*
X-2378158Y14149846D01*
X-2428666Y14234025D01*
X-2512845Y14318205D01*
X-2597025Y14368712D01*
X-2647532Y14385548D01*
X-2681204Y14385548D01*
X-2731712Y14368712D01*
G04 #@! TO.C,C72*
X7290571Y16171028D02*
X7314380Y16194838D01*
X7338190Y16266266D01*
X7338190Y16313885D01*
X7314380Y16385314D01*
X7266761Y16432933D01*
X7219142Y16456742D01*
X7123904Y16480552D01*
X7052476Y16480552D01*
X6957238Y16456742D01*
X6909619Y16432933D01*
X6862000Y16385314D01*
X6838190Y16313885D01*
X6838190Y16266266D01*
X6862000Y16194838D01*
X6885809Y16171028D01*
X6838190Y16004361D02*
X6838190Y15671028D01*
X7338190Y15885314D01*
X6885809Y15504361D02*
X6862000Y15480552D01*
X6838190Y15432933D01*
X6838190Y15313885D01*
X6862000Y15266266D01*
X6885809Y15242457D01*
X6933428Y15218647D01*
X6981047Y15218647D01*
X7052476Y15242457D01*
X7338190Y15528171D01*
X7338190Y15218647D01*
G04 #@! TO.C,C66*
X-6831828Y17136228D02*
X-6808019Y17160038D01*
X-6784209Y17231466D01*
X-6784209Y17279085D01*
X-6808019Y17350514D01*
X-6855638Y17398133D01*
X-6903257Y17421942D01*
X-6998495Y17445752D01*
X-7069923Y17445752D01*
X-7165161Y17421942D01*
X-7212780Y17398133D01*
X-7260400Y17350514D01*
X-7284209Y17279085D01*
X-7284209Y17231466D01*
X-7260400Y17160038D01*
X-7236590Y17136228D01*
X-7284209Y16707657D02*
X-7284209Y16802895D01*
X-7260400Y16850514D01*
X-7236590Y16874323D01*
X-7165161Y16921942D01*
X-7069923Y16945752D01*
X-6879447Y16945752D01*
X-6831828Y16921942D01*
X-6808019Y16898133D01*
X-6784209Y16850514D01*
X-6784209Y16755276D01*
X-6808019Y16707657D01*
X-6831828Y16683847D01*
X-6879447Y16660038D01*
X-6998495Y16660038D01*
X-7046114Y16683847D01*
X-7069923Y16707657D01*
X-7093733Y16755276D01*
X-7093733Y16850514D01*
X-7069923Y16898133D01*
X-7046114Y16921942D01*
X-6998495Y16945752D01*
X-7284209Y16231466D02*
X-7284209Y16326704D01*
X-7260400Y16374323D01*
X-7236590Y16398133D01*
X-7165161Y16445752D01*
X-7069923Y16469561D01*
X-6879447Y16469561D01*
X-6831828Y16445752D01*
X-6808019Y16421942D01*
X-6784209Y16374323D01*
X-6784209Y16279085D01*
X-6808019Y16231466D01*
X-6831828Y16207657D01*
X-6879447Y16183847D01*
X-6998495Y16183847D01*
X-7046114Y16207657D01*
X-7069923Y16231466D01*
X-7093733Y16279085D01*
X-7093733Y16374323D01*
X-7069923Y16421942D01*
X-7046114Y16445752D01*
X-6998495Y16469561D01*
G04 #@! TO.C,C64*
X-6654028Y19066628D02*
X-6630219Y19090438D01*
X-6606409Y19161866D01*
X-6606409Y19209485D01*
X-6630219Y19280914D01*
X-6677838Y19328533D01*
X-6725457Y19352342D01*
X-6820695Y19376152D01*
X-6892123Y19376152D01*
X-6987361Y19352342D01*
X-7034980Y19328533D01*
X-7082600Y19280914D01*
X-7106409Y19209485D01*
X-7106409Y19161866D01*
X-7082600Y19090438D01*
X-7058790Y19066628D01*
X-7106409Y18638057D02*
X-7106409Y18733295D01*
X-7082600Y18780914D01*
X-7058790Y18804723D01*
X-6987361Y18852342D01*
X-6892123Y18876152D01*
X-6701647Y18876152D01*
X-6654028Y18852342D01*
X-6630219Y18828533D01*
X-6606409Y18780914D01*
X-6606409Y18685676D01*
X-6630219Y18638057D01*
X-6654028Y18614247D01*
X-6701647Y18590438D01*
X-6820695Y18590438D01*
X-6868314Y18614247D01*
X-6892123Y18638057D01*
X-6915933Y18685676D01*
X-6915933Y18780914D01*
X-6892123Y18828533D01*
X-6868314Y18852342D01*
X-6820695Y18876152D01*
X-6939742Y18161866D02*
X-6606409Y18161866D01*
X-7130219Y18280914D02*
X-6773076Y18399961D01*
X-6773076Y18090438D01*
G04 #@! TO.C,C56*
X-19896971Y6146028D02*
X-19873161Y6122219D01*
X-19801733Y6098409D01*
X-19754114Y6098409D01*
X-19682685Y6122219D01*
X-19635066Y6169838D01*
X-19611257Y6217457D01*
X-19587447Y6312695D01*
X-19587447Y6384123D01*
X-19611257Y6479361D01*
X-19635066Y6526980D01*
X-19682685Y6574600D01*
X-19754114Y6598409D01*
X-19801733Y6598409D01*
X-19873161Y6574600D01*
X-19896971Y6550790D01*
X-20349352Y6598409D02*
X-20111257Y6598409D01*
X-20087447Y6360314D01*
X-20111257Y6384123D01*
X-20158876Y6407933D01*
X-20277923Y6407933D01*
X-20325542Y6384123D01*
X-20349352Y6360314D01*
X-20373161Y6312695D01*
X-20373161Y6193647D01*
X-20349352Y6146028D01*
X-20325542Y6122219D01*
X-20277923Y6098409D01*
X-20158876Y6098409D01*
X-20111257Y6122219D01*
X-20087447Y6146028D01*
X-20801733Y6598409D02*
X-20706495Y6598409D01*
X-20658876Y6574600D01*
X-20635066Y6550790D01*
X-20587447Y6479361D01*
X-20563638Y6384123D01*
X-20563638Y6193647D01*
X-20587447Y6146028D01*
X-20611257Y6122219D01*
X-20658876Y6098409D01*
X-20754114Y6098409D01*
X-20801733Y6122219D01*
X-20825542Y6146028D01*
X-20849352Y6193647D01*
X-20849352Y6312695D01*
X-20825542Y6360314D01*
X-20801733Y6384123D01*
X-20754114Y6407933D01*
X-20658876Y6407933D01*
X-20611257Y6384123D01*
X-20587447Y6360314D01*
X-20563638Y6312695D01*
G04 #@! TO.C,C62*
X-21487628Y-1380371D02*
X-21463819Y-1356561D01*
X-21440009Y-1285133D01*
X-21440009Y-1237514D01*
X-21463819Y-1166085D01*
X-21511438Y-1118466D01*
X-21559057Y-1094657D01*
X-21654295Y-1070847D01*
X-21725723Y-1070847D01*
X-21820961Y-1094657D01*
X-21868580Y-1118466D01*
X-21916200Y-1166085D01*
X-21940009Y-1237514D01*
X-21940009Y-1285133D01*
X-21916200Y-1356561D01*
X-21892390Y-1380371D01*
X-21940009Y-1808942D02*
X-21940009Y-1713704D01*
X-21916200Y-1666085D01*
X-21892390Y-1642276D01*
X-21820961Y-1594657D01*
X-21725723Y-1570847D01*
X-21535247Y-1570847D01*
X-21487628Y-1594657D01*
X-21463819Y-1618466D01*
X-21440009Y-1666085D01*
X-21440009Y-1761323D01*
X-21463819Y-1808942D01*
X-21487628Y-1832752D01*
X-21535247Y-1856561D01*
X-21654295Y-1856561D01*
X-21701914Y-1832752D01*
X-21725723Y-1808942D01*
X-21749533Y-1761323D01*
X-21749533Y-1666085D01*
X-21725723Y-1618466D01*
X-21701914Y-1594657D01*
X-21654295Y-1570847D01*
X-21892390Y-2047038D02*
X-21916200Y-2070847D01*
X-21940009Y-2118466D01*
X-21940009Y-2237514D01*
X-21916200Y-2285133D01*
X-21892390Y-2308942D01*
X-21844771Y-2332752D01*
X-21797152Y-2332752D01*
X-21725723Y-2308942D01*
X-21440009Y-2023228D01*
X-21440009Y-2332752D01*
G04 #@! TO.C,C55*
X-19896971Y6908028D02*
X-19873161Y6884219D01*
X-19801733Y6860409D01*
X-19754114Y6860409D01*
X-19682685Y6884219D01*
X-19635066Y6931838D01*
X-19611257Y6979457D01*
X-19587447Y7074695D01*
X-19587447Y7146123D01*
X-19611257Y7241361D01*
X-19635066Y7288980D01*
X-19682685Y7336600D01*
X-19754114Y7360409D01*
X-19801733Y7360409D01*
X-19873161Y7336600D01*
X-19896971Y7312790D01*
X-20349352Y7360409D02*
X-20111257Y7360409D01*
X-20087447Y7122314D01*
X-20111257Y7146123D01*
X-20158876Y7169933D01*
X-20277923Y7169933D01*
X-20325542Y7146123D01*
X-20349352Y7122314D01*
X-20373161Y7074695D01*
X-20373161Y6955647D01*
X-20349352Y6908028D01*
X-20325542Y6884219D01*
X-20277923Y6860409D01*
X-20158876Y6860409D01*
X-20111257Y6884219D01*
X-20087447Y6908028D01*
X-20825542Y7360409D02*
X-20587447Y7360409D01*
X-20563638Y7122314D01*
X-20587447Y7146123D01*
X-20635066Y7169933D01*
X-20754114Y7169933D01*
X-20801733Y7146123D01*
X-20825542Y7122314D01*
X-20849352Y7074695D01*
X-20849352Y6955647D01*
X-20825542Y6908028D01*
X-20801733Y6884219D01*
X-20754114Y6860409D01*
X-20635066Y6860409D01*
X-20587447Y6884219D01*
X-20563638Y6908028D01*
G04 #@! TO.C,C49*
X-14427784Y-2537953D02*
X-14427784Y-2571625D01*
X-14394112Y-2638968D01*
X-14360441Y-2672640D01*
X-14293097Y-2706312D01*
X-14225754Y-2706312D01*
X-14175246Y-2689476D01*
X-14091067Y-2638968D01*
X-14040559Y-2588461D01*
X-13990051Y-2504281D01*
X-13973216Y-2453774D01*
X-13973216Y-2386430D01*
X-14006887Y-2319087D01*
X-14040559Y-2285415D01*
X-14107903Y-2251743D01*
X-14141574Y-2251743D01*
X-14528800Y-2032877D02*
X-14764502Y-2268579D01*
X-14309933Y-1982369D02*
X-14478292Y-2319087D01*
X-14697158Y-2100220D01*
X-14966532Y-2066548D02*
X-15033876Y-1999205D01*
X-15050712Y-1948697D01*
X-15050712Y-1915025D01*
X-15033876Y-1830846D01*
X-14983368Y-1746667D01*
X-14848681Y-1611980D01*
X-14798174Y-1595144D01*
X-14764502Y-1595144D01*
X-14713994Y-1611980D01*
X-14646651Y-1679323D01*
X-14629815Y-1729831D01*
X-14629815Y-1763503D01*
X-14646651Y-1814010D01*
X-14730830Y-1898190D01*
X-14781338Y-1915025D01*
X-14815009Y-1915025D01*
X-14865517Y-1898190D01*
X-14932861Y-1830846D01*
X-14949696Y-1780338D01*
X-14949696Y-1746667D01*
X-14932861Y-1696159D01*
G04 #@! TO.C,C51*
X-15477371Y6958828D02*
X-15453561Y6935019D01*
X-15382133Y6911209D01*
X-15334514Y6911209D01*
X-15263085Y6935019D01*
X-15215466Y6982638D01*
X-15191657Y7030257D01*
X-15167847Y7125495D01*
X-15167847Y7196923D01*
X-15191657Y7292161D01*
X-15215466Y7339780D01*
X-15263085Y7387400D01*
X-15334514Y7411209D01*
X-15382133Y7411209D01*
X-15453561Y7387400D01*
X-15477371Y7363590D01*
X-15929752Y7411209D02*
X-15691657Y7411209D01*
X-15667847Y7173114D01*
X-15691657Y7196923D01*
X-15739276Y7220733D01*
X-15858323Y7220733D01*
X-15905942Y7196923D01*
X-15929752Y7173114D01*
X-15953561Y7125495D01*
X-15953561Y7006447D01*
X-15929752Y6958828D01*
X-15905942Y6935019D01*
X-15858323Y6911209D01*
X-15739276Y6911209D01*
X-15691657Y6935019D01*
X-15667847Y6958828D01*
X-16429752Y6911209D02*
X-16144038Y6911209D01*
X-16286895Y6911209D02*
X-16286895Y7411209D01*
X-16239276Y7339780D01*
X-16191657Y7292161D01*
X-16144038Y7268352D01*
G04 #@! TO.C,C45*
X-16290171Y-7214371D02*
X-16266361Y-7238180D01*
X-16194933Y-7261990D01*
X-16147314Y-7261990D01*
X-16075885Y-7238180D01*
X-16028266Y-7190561D01*
X-16004457Y-7142942D01*
X-15980647Y-7047704D01*
X-15980647Y-6976276D01*
X-16004457Y-6881038D01*
X-16028266Y-6833419D01*
X-16075885Y-6785800D01*
X-16147314Y-6761990D01*
X-16194933Y-6761990D01*
X-16266361Y-6785800D01*
X-16290171Y-6809609D01*
X-16718742Y-6928657D02*
X-16718742Y-7261990D01*
X-16599695Y-6738180D02*
X-16480647Y-7095323D01*
X-16790171Y-7095323D01*
X-17218742Y-6761990D02*
X-16980647Y-6761990D01*
X-16956838Y-7000085D01*
X-16980647Y-6976276D01*
X-17028266Y-6952466D01*
X-17147314Y-6952466D01*
X-17194933Y-6976276D01*
X-17218742Y-7000085D01*
X-17242552Y-7047704D01*
X-17242552Y-7166752D01*
X-17218742Y-7214371D01*
X-17194933Y-7238180D01*
X-17147314Y-7261990D01*
X-17028266Y-7261990D01*
X-16980647Y-7238180D01*
X-16956838Y-7214371D01*
G04 #@! TO.C,C61*
X-20023971Y-4953771D02*
X-20000161Y-4977580D01*
X-19928733Y-5001390D01*
X-19881114Y-5001390D01*
X-19809685Y-4977580D01*
X-19762066Y-4929961D01*
X-19738257Y-4882342D01*
X-19714447Y-4787104D01*
X-19714447Y-4715676D01*
X-19738257Y-4620438D01*
X-19762066Y-4572819D01*
X-19809685Y-4525200D01*
X-19881114Y-4501390D01*
X-19928733Y-4501390D01*
X-20000161Y-4525200D01*
X-20023971Y-4549009D01*
X-20452542Y-4501390D02*
X-20357304Y-4501390D01*
X-20309685Y-4525200D01*
X-20285876Y-4549009D01*
X-20238257Y-4620438D01*
X-20214447Y-4715676D01*
X-20214447Y-4906152D01*
X-20238257Y-4953771D01*
X-20262066Y-4977580D01*
X-20309685Y-5001390D01*
X-20404923Y-5001390D01*
X-20452542Y-4977580D01*
X-20476352Y-4953771D01*
X-20500161Y-4906152D01*
X-20500161Y-4787104D01*
X-20476352Y-4739485D01*
X-20452542Y-4715676D01*
X-20404923Y-4691866D01*
X-20309685Y-4691866D01*
X-20262066Y-4715676D01*
X-20238257Y-4739485D01*
X-20214447Y-4787104D01*
X-20976352Y-5001390D02*
X-20690638Y-5001390D01*
X-20833495Y-5001390D02*
X-20833495Y-4501390D01*
X-20785876Y-4572819D01*
X-20738257Y-4620438D01*
X-20690638Y-4644247D01*
G04 #@! TO.C,C43*
X-18118971Y-7188971D02*
X-18095161Y-7212780D01*
X-18023733Y-7236590D01*
X-17976114Y-7236590D01*
X-17904685Y-7212780D01*
X-17857066Y-7165161D01*
X-17833257Y-7117542D01*
X-17809447Y-7022304D01*
X-17809447Y-6950876D01*
X-17833257Y-6855638D01*
X-17857066Y-6808019D01*
X-17904685Y-6760400D01*
X-17976114Y-6736590D01*
X-18023733Y-6736590D01*
X-18095161Y-6760400D01*
X-18118971Y-6784209D01*
X-18547542Y-6903257D02*
X-18547542Y-7236590D01*
X-18428495Y-6712780D02*
X-18309447Y-7069923D01*
X-18618971Y-7069923D01*
X-18761828Y-6736590D02*
X-19071352Y-6736590D01*
X-18904685Y-6927066D01*
X-18976114Y-6927066D01*
X-19023733Y-6950876D01*
X-19047542Y-6974685D01*
X-19071352Y-7022304D01*
X-19071352Y-7141352D01*
X-19047542Y-7188971D01*
X-19023733Y-7212780D01*
X-18976114Y-7236590D01*
X-18833257Y-7236590D01*
X-18785638Y-7212780D01*
X-18761828Y-7188971D01*
G04 #@! TO.C,C53*
X-17356971Y6958828D02*
X-17333161Y6935019D01*
X-17261733Y6911209D01*
X-17214114Y6911209D01*
X-17142685Y6935019D01*
X-17095066Y6982638D01*
X-17071257Y7030257D01*
X-17047447Y7125495D01*
X-17047447Y7196923D01*
X-17071257Y7292161D01*
X-17095066Y7339780D01*
X-17142685Y7387400D01*
X-17214114Y7411209D01*
X-17261733Y7411209D01*
X-17333161Y7387400D01*
X-17356971Y7363590D01*
X-17809352Y7411209D02*
X-17571257Y7411209D01*
X-17547447Y7173114D01*
X-17571257Y7196923D01*
X-17618876Y7220733D01*
X-17737923Y7220733D01*
X-17785542Y7196923D01*
X-17809352Y7173114D01*
X-17833161Y7125495D01*
X-17833161Y7006447D01*
X-17809352Y6958828D01*
X-17785542Y6935019D01*
X-17737923Y6911209D01*
X-17618876Y6911209D01*
X-17571257Y6935019D01*
X-17547447Y6958828D01*
X-17999828Y7411209D02*
X-18309352Y7411209D01*
X-18142685Y7220733D01*
X-18214114Y7220733D01*
X-18261733Y7196923D01*
X-18285542Y7173114D01*
X-18309352Y7125495D01*
X-18309352Y7006447D01*
X-18285542Y6958828D01*
X-18261733Y6935019D01*
X-18214114Y6911209D01*
X-18071257Y6911209D01*
X-18023638Y6935019D01*
X-17999828Y6958828D01*
G04 #@! TO.C,C5*
X15120393Y-2378743D02*
X15154065Y-2378743D01*
X15221408Y-2345071D01*
X15255080Y-2311400D01*
X15288752Y-2244056D01*
X15288752Y-2176712D01*
X15271916Y-2126205D01*
X15221408Y-2042025D01*
X15170901Y-1991518D01*
X15086721Y-1941010D01*
X15036214Y-1924174D01*
X14968870Y-1924174D01*
X14901527Y-1957846D01*
X14867855Y-1991518D01*
X14834183Y-2058861D01*
X14834183Y-2092533D01*
X14480630Y-2378743D02*
X14648989Y-2210384D01*
X14834183Y-2361907D01*
X14800511Y-2361907D01*
X14750004Y-2378743D01*
X14665824Y-2462922D01*
X14648989Y-2513430D01*
X14648989Y-2547102D01*
X14665824Y-2597609D01*
X14750004Y-2681789D01*
X14800511Y-2698625D01*
X14834183Y-2698625D01*
X14884691Y-2681789D01*
X14968870Y-2597609D01*
X14985706Y-2547102D01*
X14985706Y-2513430D01*
G04 #@! TO.C,C17*
X21819371Y448428D02*
X21843180Y472238D01*
X21866990Y543666D01*
X21866990Y591285D01*
X21843180Y662714D01*
X21795561Y710333D01*
X21747942Y734142D01*
X21652704Y757952D01*
X21581276Y757952D01*
X21486038Y734142D01*
X21438419Y710333D01*
X21390800Y662714D01*
X21366990Y591285D01*
X21366990Y543666D01*
X21390800Y472238D01*
X21414609Y448428D01*
X21866990Y-27761D02*
X21866990Y257952D01*
X21866990Y115095D02*
X21366990Y115095D01*
X21438419Y162714D01*
X21486038Y210333D01*
X21509847Y257952D01*
X21366990Y-194428D02*
X21366990Y-527761D01*
X21866990Y-313476D01*
G04 #@! TO.C,C96*
X-12397247Y-8331784D02*
X-12363575Y-8331784D01*
X-12296232Y-8298112D01*
X-12262560Y-8264441D01*
X-12228888Y-8197097D01*
X-12228888Y-8129754D01*
X-12245724Y-8079246D01*
X-12296232Y-7995067D01*
X-12346739Y-7944559D01*
X-12430919Y-7894051D01*
X-12481426Y-7877216D01*
X-12548770Y-7877216D01*
X-12616113Y-7910887D01*
X-12649785Y-7944559D01*
X-12683457Y-8011903D01*
X-12683457Y-8045574D01*
X-12531934Y-8533815D02*
X-12599278Y-8601158D01*
X-12649785Y-8617994D01*
X-12683457Y-8617994D01*
X-12767636Y-8601158D01*
X-12851816Y-8550651D01*
X-12986503Y-8415964D01*
X-13003339Y-8365456D01*
X-13003339Y-8331784D01*
X-12986503Y-8281277D01*
X-12919159Y-8213933D01*
X-12868652Y-8197097D01*
X-12834980Y-8197097D01*
X-12784472Y-8213933D01*
X-12700293Y-8298112D01*
X-12683457Y-8348620D01*
X-12683457Y-8382292D01*
X-12700293Y-8432800D01*
X-12767636Y-8500143D01*
X-12818144Y-8516979D01*
X-12851816Y-8516979D01*
X-12902323Y-8500143D01*
X-13356892Y-8651666D02*
X-13289549Y-8584322D01*
X-13239041Y-8567487D01*
X-13205369Y-8567487D01*
X-13121190Y-8584322D01*
X-13037010Y-8634830D01*
X-12902323Y-8769517D01*
X-12885488Y-8820025D01*
X-12885488Y-8853696D01*
X-12902323Y-8904204D01*
X-12969667Y-8971548D01*
X-13020175Y-8988383D01*
X-13053846Y-8988383D01*
X-13104354Y-8971548D01*
X-13188533Y-8887368D01*
X-13205369Y-8836861D01*
X-13205369Y-8803189D01*
X-13188533Y-8752681D01*
X-13121190Y-8685338D01*
X-13070682Y-8668502D01*
X-13037010Y-8668502D01*
X-12986503Y-8685338D01*
G04 #@! TO.C,C47*
X-14200646Y2285415D02*
X-14166974Y2285415D01*
X-14099631Y2319087D01*
X-14065959Y2352758D01*
X-14032287Y2420102D01*
X-14032287Y2487445D01*
X-14049123Y2537953D01*
X-14099631Y2622132D01*
X-14150138Y2672640D01*
X-14234318Y2723148D01*
X-14284825Y2739983D01*
X-14352169Y2739983D01*
X-14419512Y2706312D01*
X-14453184Y2672640D01*
X-14486856Y2605296D01*
X-14486856Y2571625D01*
X-14705722Y2184400D02*
X-14470020Y1948697D01*
X-14756230Y2403266D02*
X-14419512Y2234907D01*
X-14638379Y2016041D01*
X-14975096Y2150728D02*
X-15210799Y1915025D01*
X-14705722Y1712995D01*
G04 #@! TO.C,C59*
X-21284428Y473828D02*
X-21260619Y497638D01*
X-21236809Y569066D01*
X-21236809Y616685D01*
X-21260619Y688114D01*
X-21308238Y735733D01*
X-21355857Y759542D01*
X-21451095Y783352D01*
X-21522523Y783352D01*
X-21617761Y759542D01*
X-21665380Y735733D01*
X-21713000Y688114D01*
X-21736809Y616685D01*
X-21736809Y569066D01*
X-21713000Y497638D01*
X-21689190Y473828D01*
X-21736809Y21447D02*
X-21736809Y259542D01*
X-21498714Y283352D01*
X-21522523Y259542D01*
X-21546333Y211923D01*
X-21546333Y92876D01*
X-21522523Y45257D01*
X-21498714Y21447D01*
X-21451095Y-2361D01*
X-21332047Y-2361D01*
X-21284428Y21447D01*
X-21260619Y45257D01*
X-21236809Y92876D01*
X-21236809Y211923D01*
X-21260619Y259542D01*
X-21284428Y283352D01*
X-21236809Y-240457D02*
X-21236809Y-335695D01*
X-21260619Y-383314D01*
X-21284428Y-407123D01*
X-21355857Y-454742D01*
X-21451095Y-478552D01*
X-21641571Y-478552D01*
X-21689190Y-454742D01*
X-21713000Y-430933D01*
X-21736809Y-383314D01*
X-21736809Y-288076D01*
X-21713000Y-240457D01*
X-21689190Y-216647D01*
X-21641571Y-192838D01*
X-21522523Y-192838D01*
X-21474904Y-216647D01*
X-21451095Y-240457D01*
X-21427285Y-288076D01*
X-21427285Y-383314D01*
X-21451095Y-430933D01*
X-21474904Y-454742D01*
X-21522523Y-478552D01*
G04 #@! TO.C,C57*
X-21106628Y2505828D02*
X-21082819Y2529638D01*
X-21059009Y2601066D01*
X-21059009Y2648685D01*
X-21082819Y2720114D01*
X-21130438Y2767733D01*
X-21178057Y2791542D01*
X-21273295Y2815352D01*
X-21344723Y2815352D01*
X-21439961Y2791542D01*
X-21487580Y2767733D01*
X-21535200Y2720114D01*
X-21559009Y2648685D01*
X-21559009Y2601066D01*
X-21535200Y2529638D01*
X-21511390Y2505828D01*
X-21559009Y2053447D02*
X-21559009Y2291542D01*
X-21320914Y2315352D01*
X-21344723Y2291542D01*
X-21368533Y2243923D01*
X-21368533Y2124876D01*
X-21344723Y2077257D01*
X-21320914Y2053447D01*
X-21273295Y2029638D01*
X-21154247Y2029638D01*
X-21106628Y2053447D01*
X-21082819Y2077257D01*
X-21059009Y2124876D01*
X-21059009Y2243923D01*
X-21082819Y2291542D01*
X-21106628Y2315352D01*
X-21559009Y1862971D02*
X-21559009Y1529638D01*
X-21059009Y1743923D01*
G04 #@! TO.C,C38*
X397628Y-21768571D02*
X421438Y-21792380D01*
X492866Y-21816190D01*
X540485Y-21816190D01*
X611914Y-21792380D01*
X659533Y-21744761D01*
X683342Y-21697142D01*
X707152Y-21601904D01*
X707152Y-21530476D01*
X683342Y-21435238D01*
X659533Y-21387619D01*
X611914Y-21340000D01*
X540485Y-21316190D01*
X492866Y-21316190D01*
X421438Y-21340000D01*
X397628Y-21363809D01*
X230961Y-21316190D02*
X-78561Y-21316190D01*
X88104Y-21506666D01*
X16676Y-21506666D01*
X-30942Y-21530476D01*
X-54752Y-21554285D01*
X-78561Y-21601904D01*
X-78561Y-21720952D01*
X-54752Y-21768571D01*
X-30942Y-21792380D01*
X16676Y-21816190D01*
X159533Y-21816190D01*
X207152Y-21792380D01*
X230961Y-21768571D01*
X-364276Y-21530476D02*
X-316657Y-21506666D01*
X-292847Y-21482857D01*
X-269038Y-21435238D01*
X-269038Y-21411428D01*
X-292847Y-21363809D01*
X-316657Y-21340000D01*
X-364276Y-21316190D01*
X-459514Y-21316190D01*
X-507133Y-21340000D01*
X-530942Y-21363809D01*
X-554752Y-21411428D01*
X-554752Y-21435238D01*
X-530942Y-21482857D01*
X-507133Y-21506666D01*
X-459514Y-21530476D01*
X-364276Y-21530476D01*
X-316657Y-21554285D01*
X-292847Y-21578095D01*
X-269038Y-21625714D01*
X-269038Y-21720952D01*
X-292847Y-21768571D01*
X-316657Y-21792380D01*
X-364276Y-21816190D01*
X-459514Y-21816190D01*
X-507133Y-21792380D01*
X-530942Y-21768571D01*
X-554752Y-21720952D01*
X-554752Y-21625714D01*
X-530942Y-21578095D01*
X-507133Y-21554285D01*
X-459514Y-21530476D01*
G04 #@! TO.C,C26*
X-2108784Y-14933153D02*
X-2108784Y-14966825D01*
X-2075112Y-15034168D01*
X-2041441Y-15067840D01*
X-1974097Y-15101512D01*
X-1906754Y-15101512D01*
X-1856246Y-15084676D01*
X-1772067Y-15034168D01*
X-1721559Y-14983661D01*
X-1671051Y-14899481D01*
X-1654216Y-14848974D01*
X-1654216Y-14781630D01*
X-1687887Y-14714287D01*
X-1721559Y-14680615D01*
X-1788903Y-14646943D01*
X-1822574Y-14646943D01*
X-1957261Y-14512256D02*
X-1957261Y-14478584D01*
X-1974097Y-14428077D01*
X-2058277Y-14343897D01*
X-2108784Y-14327061D01*
X-2142456Y-14327061D01*
X-2192964Y-14343897D01*
X-2226635Y-14377569D01*
X-2260307Y-14444912D01*
X-2260307Y-14848974D01*
X-2479174Y-14630107D01*
X-2428666Y-13973508D02*
X-2361322Y-14040851D01*
X-2344487Y-14091359D01*
X-2344487Y-14125031D01*
X-2361322Y-14209210D01*
X-2411830Y-14293390D01*
X-2546517Y-14428077D01*
X-2597025Y-14444912D01*
X-2630696Y-14444912D01*
X-2681204Y-14428077D01*
X-2748548Y-14360733D01*
X-2765383Y-14310225D01*
X-2765383Y-14276554D01*
X-2748548Y-14226046D01*
X-2664368Y-14141867D01*
X-2613861Y-14125031D01*
X-2580189Y-14125031D01*
X-2529681Y-14141867D01*
X-2462338Y-14209210D01*
X-2445502Y-14259718D01*
X-2445502Y-14293390D01*
X-2462338Y-14343897D01*
G04 #@! TO.C,C80*
X423028Y20243028D02*
X446838Y20219219D01*
X518266Y20195409D01*
X565885Y20195409D01*
X637314Y20219219D01*
X684933Y20266838D01*
X708742Y20314457D01*
X732552Y20409695D01*
X732552Y20481123D01*
X708742Y20576361D01*
X684933Y20623980D01*
X637314Y20671600D01*
X565885Y20695409D01*
X518266Y20695409D01*
X446838Y20671600D01*
X423028Y20647790D01*
X137314Y20481123D02*
X184933Y20504933D01*
X208742Y20528742D01*
X232552Y20576361D01*
X232552Y20600171D01*
X208742Y20647790D01*
X184933Y20671600D01*
X137314Y20695409D01*
X42076Y20695409D01*
X-5542Y20671600D01*
X-29352Y20647790D01*
X-53161Y20600171D01*
X-53161Y20576361D01*
X-29352Y20528742D01*
X-5542Y20504933D01*
X42076Y20481123D01*
X137314Y20481123D01*
X184933Y20457314D01*
X208742Y20433504D01*
X232552Y20385885D01*
X232552Y20290647D01*
X208742Y20243028D01*
X184933Y20219219D01*
X137314Y20195409D01*
X42076Y20195409D01*
X-5542Y20219219D01*
X-29352Y20243028D01*
X-53161Y20290647D01*
X-53161Y20385885D01*
X-29352Y20433504D01*
X-5542Y20457314D01*
X42076Y20481123D01*
X-362685Y20695409D02*
X-410304Y20695409D01*
X-457923Y20671600D01*
X-481733Y20647790D01*
X-505542Y20600171D01*
X-529352Y20504933D01*
X-529352Y20385885D01*
X-505542Y20290647D01*
X-481733Y20243028D01*
X-457923Y20219219D01*
X-410304Y20195409D01*
X-362685Y20195409D01*
X-315066Y20219219D01*
X-291257Y20243028D01*
X-267447Y20290647D01*
X-243638Y20385885D01*
X-243638Y20504933D01*
X-267447Y20600171D01*
X-291257Y20647790D01*
X-315066Y20671600D01*
X-362685Y20695409D01*
G04 #@! TO.C,C68*
X2437815Y14149846D02*
X2437815Y14116174D01*
X2471487Y14048831D01*
X2505158Y14015159D01*
X2572502Y13981487D01*
X2639845Y13981487D01*
X2690353Y13998323D01*
X2774532Y14048831D01*
X2825040Y14099338D01*
X2875548Y14183518D01*
X2892383Y14234025D01*
X2892383Y14301369D01*
X2858712Y14368712D01*
X2825040Y14402384D01*
X2757696Y14436056D01*
X2724025Y14436056D01*
X2454651Y14772774D02*
X2521994Y14705430D01*
X2538830Y14654922D01*
X2538830Y14621251D01*
X2521994Y14537071D01*
X2471487Y14452892D01*
X2336800Y14318205D01*
X2286292Y14301369D01*
X2252620Y14301369D01*
X2202112Y14318205D01*
X2134769Y14385548D01*
X2117933Y14436056D01*
X2117933Y14469728D01*
X2134769Y14520235D01*
X2218948Y14604415D01*
X2269456Y14621251D01*
X2303128Y14621251D01*
X2353635Y14604415D01*
X2420979Y14537071D01*
X2437815Y14486564D01*
X2437815Y14452892D01*
X2420979Y14402384D01*
X2067425Y14856953D02*
X2117933Y14840117D01*
X2151605Y14840117D01*
X2202112Y14856953D01*
X2218948Y14873789D01*
X2235784Y14924296D01*
X2235784Y14957968D01*
X2218948Y15008476D01*
X2151605Y15075819D01*
X2101097Y15092655D01*
X2067425Y15092655D01*
X2016918Y15075819D01*
X2000082Y15058983D01*
X1983246Y15008476D01*
X1983246Y14974804D01*
X2000082Y14924296D01*
X2067425Y14856953D01*
X2084261Y14806445D01*
X2084261Y14772774D01*
X2067425Y14722266D01*
X2000082Y14654922D01*
X1949574Y14638087D01*
X1915903Y14638087D01*
X1865395Y14654922D01*
X1798051Y14722266D01*
X1781216Y14772774D01*
X1781216Y14806445D01*
X1798051Y14856953D01*
X1865395Y14924296D01*
X1915903Y14941132D01*
X1949574Y14941132D01*
X2000082Y14924296D01*
G04 #@! TO.C,C1*
X18980933Y6857228D02*
X19004742Y6833419D01*
X19076171Y6809609D01*
X19123790Y6809609D01*
X19195219Y6833419D01*
X19242838Y6881038D01*
X19266647Y6928657D01*
X19290457Y7023895D01*
X19290457Y7095323D01*
X19266647Y7190561D01*
X19242838Y7238180D01*
X19195219Y7285800D01*
X19123790Y7309609D01*
X19076171Y7309609D01*
X19004742Y7285800D01*
X18980933Y7261990D01*
X18504742Y6809609D02*
X18790457Y6809609D01*
X18647600Y6809609D02*
X18647600Y7309609D01*
X18695219Y7238180D01*
X18742838Y7190561D01*
X18790457Y7166752D01*
G04 #@! TO.C,C3*
X17634733Y6831828D02*
X17658542Y6808019D01*
X17729971Y6784209D01*
X17777590Y6784209D01*
X17849019Y6808019D01*
X17896638Y6855638D01*
X17920447Y6903257D01*
X17944257Y6998495D01*
X17944257Y7069923D01*
X17920447Y7165161D01*
X17896638Y7212780D01*
X17849019Y7260400D01*
X17777590Y7284209D01*
X17729971Y7284209D01*
X17658542Y7260400D01*
X17634733Y7236590D01*
X17468066Y7284209D02*
X17158542Y7284209D01*
X17325209Y7093733D01*
X17253780Y7093733D01*
X17206161Y7069923D01*
X17182352Y7046114D01*
X17158542Y6998495D01*
X17158542Y6879447D01*
X17182352Y6831828D01*
X17206161Y6808019D01*
X17253780Y6784209D01*
X17396638Y6784209D01*
X17444257Y6808019D01*
X17468066Y6831828D01*
G04 #@! TO.C,C7*
X14613856Y2075405D02*
X14613856Y2041733D01*
X14647528Y1974390D01*
X14681200Y1940718D01*
X14748543Y1907046D01*
X14815887Y1907046D01*
X14866394Y1923882D01*
X14950574Y1974390D01*
X15001081Y2024897D01*
X15051589Y2109077D01*
X15068425Y2159584D01*
X15068425Y2226928D01*
X15034753Y2294271D01*
X15001081Y2327943D01*
X14933738Y2361615D01*
X14900066Y2361615D01*
X14815887Y2513138D02*
X14580184Y2748840D01*
X14378154Y2243764D01*
G04 #@! TO.C,C20*
X21819371Y2302628D02*
X21843180Y2326438D01*
X21866990Y2397866D01*
X21866990Y2445485D01*
X21843180Y2516914D01*
X21795561Y2564533D01*
X21747942Y2588342D01*
X21652704Y2612152D01*
X21581276Y2612152D01*
X21486038Y2588342D01*
X21438419Y2564533D01*
X21390800Y2516914D01*
X21366990Y2445485D01*
X21366990Y2397866D01*
X21390800Y2326438D01*
X21414609Y2302628D01*
X21414609Y2112152D02*
X21390800Y2088342D01*
X21366990Y2040723D01*
X21366990Y1921676D01*
X21390800Y1874057D01*
X21414609Y1850247D01*
X21462228Y1826438D01*
X21509847Y1826438D01*
X21581276Y1850247D01*
X21866990Y2135961D01*
X21866990Y1826438D01*
X21366990Y1516914D02*
X21366990Y1469295D01*
X21390800Y1421676D01*
X21414609Y1397866D01*
X21462228Y1374057D01*
X21557466Y1350247D01*
X21676514Y1350247D01*
X21771752Y1374057D01*
X21819371Y1397866D01*
X21843180Y1421676D01*
X21866990Y1469295D01*
X21866990Y1516914D01*
X21843180Y1564533D01*
X21819371Y1588342D01*
X21771752Y1612152D01*
X21676514Y1635961D01*
X21557466Y1635961D01*
X21462228Y1612152D01*
X21414609Y1588342D01*
X21390800Y1564533D01*
X21366990Y1516914D01*
G04 #@! TO.C,C19*
X20590628Y4672828D02*
X20614438Y4649019D01*
X20685866Y4625209D01*
X20733485Y4625209D01*
X20804914Y4649019D01*
X20852533Y4696638D01*
X20876342Y4744257D01*
X20900152Y4839495D01*
X20900152Y4910923D01*
X20876342Y5006161D01*
X20852533Y5053780D01*
X20804914Y5101400D01*
X20733485Y5125209D01*
X20685866Y5125209D01*
X20614438Y5101400D01*
X20590628Y5077590D01*
X20114438Y4625209D02*
X20400152Y4625209D01*
X20257295Y4625209D02*
X20257295Y5125209D01*
X20304914Y5053780D01*
X20352533Y5006161D01*
X20400152Y4982352D01*
X19876342Y4625209D02*
X19781104Y4625209D01*
X19733485Y4649019D01*
X19709676Y4672828D01*
X19662057Y4744257D01*
X19638247Y4839495D01*
X19638247Y5029971D01*
X19662057Y5077590D01*
X19685866Y5101400D01*
X19733485Y5125209D01*
X19828723Y5125209D01*
X19876342Y5101400D01*
X19900152Y5077590D01*
X19923961Y5029971D01*
X19923961Y4910923D01*
X19900152Y4863304D01*
X19876342Y4839495D01*
X19828723Y4815685D01*
X19733485Y4815685D01*
X19685866Y4839495D01*
X19662057Y4863304D01*
X19638247Y4910923D01*
G04 #@! TO.C,C11*
X18939628Y-7036571D02*
X18963438Y-7060380D01*
X19034866Y-7084190D01*
X19082485Y-7084190D01*
X19153914Y-7060380D01*
X19201533Y-7012761D01*
X19225342Y-6965142D01*
X19249152Y-6869904D01*
X19249152Y-6798476D01*
X19225342Y-6703238D01*
X19201533Y-6655619D01*
X19153914Y-6608000D01*
X19082485Y-6584190D01*
X19034866Y-6584190D01*
X18963438Y-6608000D01*
X18939628Y-6631809D01*
X18463438Y-7084190D02*
X18749152Y-7084190D01*
X18606295Y-7084190D02*
X18606295Y-6584190D01*
X18653914Y-6655619D01*
X18701533Y-6703238D01*
X18749152Y-6727047D01*
X17987247Y-7084190D02*
X18272961Y-7084190D01*
X18130104Y-7084190D02*
X18130104Y-6584190D01*
X18177723Y-6655619D01*
X18225342Y-6703238D01*
X18272961Y-6727047D01*
G04 #@! TO.C,C9*
X16517133Y-7290571D02*
X16540942Y-7314380D01*
X16612371Y-7338190D01*
X16659990Y-7338190D01*
X16731419Y-7314380D01*
X16779038Y-7266761D01*
X16802847Y-7219142D01*
X16826657Y-7123904D01*
X16826657Y-7052476D01*
X16802847Y-6957238D01*
X16779038Y-6909619D01*
X16731419Y-6862000D01*
X16659990Y-6838190D01*
X16612371Y-6838190D01*
X16540942Y-6862000D01*
X16517133Y-6885809D01*
X16279038Y-7338190D02*
X16183800Y-7338190D01*
X16136180Y-7314380D01*
X16112371Y-7290571D01*
X16064752Y-7219142D01*
X16040942Y-7123904D01*
X16040942Y-6933428D01*
X16064752Y-6885809D01*
X16088561Y-6862000D01*
X16136180Y-6838190D01*
X16231419Y-6838190D01*
X16279038Y-6862000D01*
X16302847Y-6885809D01*
X16326657Y-6933428D01*
X16326657Y-7052476D01*
X16302847Y-7100095D01*
X16279038Y-7123904D01*
X16231419Y-7147714D01*
X16136180Y-7147714D01*
X16088561Y-7123904D01*
X16064752Y-7100095D01*
X16040942Y-7052476D01*
G04 #@! TO.C,C93*
X-7468183Y-12393153D02*
X-7468183Y-12426825D01*
X-7434511Y-12494168D01*
X-7400840Y-12527840D01*
X-7333496Y-12561512D01*
X-7266153Y-12561512D01*
X-7215645Y-12544676D01*
X-7131466Y-12494168D01*
X-7080958Y-12443661D01*
X-7030450Y-12359481D01*
X-7013615Y-12308974D01*
X-7013615Y-12241630D01*
X-7047286Y-12174287D01*
X-7080958Y-12140615D01*
X-7148302Y-12106943D01*
X-7181973Y-12106943D01*
X-7670214Y-12258466D02*
X-7737557Y-12191122D01*
X-7754393Y-12140615D01*
X-7754393Y-12106943D01*
X-7737557Y-12022764D01*
X-7687050Y-11938584D01*
X-7552363Y-11803897D01*
X-7501855Y-11787061D01*
X-7468183Y-11787061D01*
X-7417676Y-11803897D01*
X-7350332Y-11871241D01*
X-7333496Y-11921748D01*
X-7333496Y-11955420D01*
X-7350332Y-12005928D01*
X-7434511Y-12090107D01*
X-7485019Y-12106943D01*
X-7518691Y-12106943D01*
X-7569198Y-12090107D01*
X-7636542Y-12022764D01*
X-7653378Y-11972256D01*
X-7653378Y-11938584D01*
X-7636542Y-11888077D01*
X-7602870Y-11618703D02*
X-7821737Y-11399836D01*
X-7838573Y-11652374D01*
X-7889080Y-11601867D01*
X-7939588Y-11585031D01*
X-7973260Y-11585031D01*
X-8023767Y-11601867D01*
X-8107947Y-11686046D01*
X-8124782Y-11736554D01*
X-8124782Y-11770225D01*
X-8107947Y-11820733D01*
X-8006931Y-11921748D01*
X-7956424Y-11938584D01*
X-7922752Y-11938584D01*
G04 #@! TO.C,C97*
X-13334228Y7281028D02*
X-13310419Y7304838D01*
X-13286609Y7376266D01*
X-13286609Y7423885D01*
X-13310419Y7495314D01*
X-13358038Y7542933D01*
X-13405657Y7566742D01*
X-13500895Y7590552D01*
X-13572323Y7590552D01*
X-13667561Y7566742D01*
X-13715180Y7542933D01*
X-13762800Y7495314D01*
X-13786609Y7423885D01*
X-13786609Y7376266D01*
X-13762800Y7304838D01*
X-13738990Y7281028D01*
X-13286609Y7042933D02*
X-13286609Y6947695D01*
X-13310419Y6900076D01*
X-13334228Y6876266D01*
X-13405657Y6828647D01*
X-13500895Y6804838D01*
X-13691371Y6804838D01*
X-13738990Y6828647D01*
X-13762800Y6852457D01*
X-13786609Y6900076D01*
X-13786609Y6995314D01*
X-13762800Y7042933D01*
X-13738990Y7066742D01*
X-13691371Y7090552D01*
X-13572323Y7090552D01*
X-13524704Y7066742D01*
X-13500895Y7042933D01*
X-13477085Y6995314D01*
X-13477085Y6900076D01*
X-13500895Y6852457D01*
X-13524704Y6828647D01*
X-13572323Y6804838D01*
X-13786609Y6638171D02*
X-13786609Y6304838D01*
X-13286609Y6519123D01*
G04 #@! TO.C,C98*
X-10820984Y10289046D02*
X-10820984Y10255374D01*
X-10787312Y10188031D01*
X-10753641Y10154359D01*
X-10686297Y10120687D01*
X-10618954Y10120687D01*
X-10568446Y10137523D01*
X-10484267Y10188031D01*
X-10433759Y10238538D01*
X-10383251Y10322718D01*
X-10366416Y10373225D01*
X-10366416Y10440569D01*
X-10400087Y10507912D01*
X-10433759Y10541584D01*
X-10501103Y10575256D01*
X-10534774Y10575256D01*
X-11023015Y10423733D02*
X-11090358Y10491077D01*
X-11107194Y10541584D01*
X-11107194Y10575256D01*
X-11090358Y10659435D01*
X-11039851Y10743615D01*
X-10905164Y10878302D01*
X-10854656Y10895138D01*
X-10820984Y10895138D01*
X-10770477Y10878302D01*
X-10703133Y10810958D01*
X-10686297Y10760451D01*
X-10686297Y10726779D01*
X-10703133Y10676271D01*
X-10787312Y10592092D01*
X-10837820Y10575256D01*
X-10871492Y10575256D01*
X-10922000Y10592092D01*
X-10989343Y10659435D01*
X-11006179Y10709943D01*
X-11006179Y10743615D01*
X-10989343Y10794122D01*
X-11191374Y10996153D02*
X-11140866Y10979317D01*
X-11107194Y10979317D01*
X-11056687Y10996153D01*
X-11039851Y11012989D01*
X-11023015Y11063496D01*
X-11023015Y11097168D01*
X-11039851Y11147676D01*
X-11107194Y11215019D01*
X-11157702Y11231855D01*
X-11191374Y11231855D01*
X-11241881Y11215019D01*
X-11258717Y11198183D01*
X-11275553Y11147676D01*
X-11275553Y11114004D01*
X-11258717Y11063496D01*
X-11191374Y10996153D01*
X-11174538Y10945645D01*
X-11174538Y10911974D01*
X-11191374Y10861466D01*
X-11258717Y10794122D01*
X-11309225Y10777287D01*
X-11342896Y10777287D01*
X-11393404Y10794122D01*
X-11460748Y10861466D01*
X-11477583Y10911974D01*
X-11477583Y10945645D01*
X-11460748Y10996153D01*
X-11393404Y11063496D01*
X-11342896Y11080332D01*
X-11309225Y11080332D01*
X-11258717Y11063496D01*
G04 #@! TO.C,C99*
X-6248984Y10949446D02*
X-6248984Y10915774D01*
X-6215312Y10848431D01*
X-6181641Y10814759D01*
X-6114297Y10781087D01*
X-6046954Y10781087D01*
X-5996446Y10797923D01*
X-5912267Y10848431D01*
X-5861759Y10898938D01*
X-5811251Y10983118D01*
X-5794416Y11033625D01*
X-5794416Y11100969D01*
X-5828087Y11168312D01*
X-5861759Y11201984D01*
X-5929103Y11235656D01*
X-5962774Y11235656D01*
X-6451015Y11084133D02*
X-6518358Y11151477D01*
X-6535194Y11201984D01*
X-6535194Y11235656D01*
X-6518358Y11319835D01*
X-6467851Y11404015D01*
X-6333164Y11538702D01*
X-6282656Y11555538D01*
X-6248984Y11555538D01*
X-6198477Y11538702D01*
X-6131133Y11471358D01*
X-6114297Y11420851D01*
X-6114297Y11387179D01*
X-6131133Y11336671D01*
X-6215312Y11252492D01*
X-6265820Y11235656D01*
X-6299492Y11235656D01*
X-6349999Y11252492D01*
X-6417343Y11319835D01*
X-6434179Y11370343D01*
X-6434179Y11404015D01*
X-6417343Y11454522D01*
X-6787732Y11420851D02*
X-6855076Y11488194D01*
X-6871912Y11538702D01*
X-6871912Y11572374D01*
X-6855076Y11656553D01*
X-6804568Y11740732D01*
X-6669881Y11875419D01*
X-6619374Y11892255D01*
X-6585702Y11892255D01*
X-6535194Y11875419D01*
X-6467851Y11808076D01*
X-6451015Y11757568D01*
X-6451015Y11723896D01*
X-6467851Y11673389D01*
X-6552030Y11589209D01*
X-6602538Y11572374D01*
X-6636209Y11572374D01*
X-6686717Y11589209D01*
X-6754061Y11656553D01*
X-6770896Y11707061D01*
X-6770896Y11740732D01*
X-6754061Y11791240D01*
G04 #@! TO.C,C102*
X7914774Y12305087D02*
X7914774Y12271416D01*
X7948445Y12204072D01*
X7982117Y12170400D01*
X8049461Y12136729D01*
X8116804Y12136729D01*
X8167312Y12153564D01*
X8251491Y12204072D01*
X8301999Y12254580D01*
X8352506Y12338759D01*
X8369342Y12389267D01*
X8369342Y12456610D01*
X8335670Y12523954D01*
X8301999Y12557625D01*
X8234655Y12591297D01*
X8200983Y12591297D01*
X7544384Y12608133D02*
X7746415Y12406103D01*
X7645400Y12507118D02*
X7998953Y12860671D01*
X7982117Y12776492D01*
X7982117Y12709148D01*
X7998953Y12658641D01*
X7679071Y13180553D02*
X7645400Y13214225D01*
X7594892Y13231061D01*
X7561220Y13231061D01*
X7510712Y13214225D01*
X7426533Y13163717D01*
X7342354Y13079538D01*
X7291846Y12995358D01*
X7275010Y12944851D01*
X7275010Y12911179D01*
X7291846Y12860671D01*
X7325518Y12827000D01*
X7376025Y12810164D01*
X7409697Y12810164D01*
X7460205Y12827000D01*
X7544384Y12877507D01*
X7628564Y12961687D01*
X7679071Y13045866D01*
X7695907Y13096374D01*
X7695907Y13130045D01*
X7679071Y13180553D01*
X7392861Y13399419D02*
X7392861Y13433091D01*
X7376025Y13483599D01*
X7291846Y13567778D01*
X7241338Y13584614D01*
X7207667Y13584614D01*
X7157159Y13567778D01*
X7123487Y13534106D01*
X7089816Y13466763D01*
X7089816Y13062702D01*
X6870949Y13281568D01*
G04 #@! TO.C,C103*
X11521574Y5116887D02*
X11521574Y5083216D01*
X11555245Y5015872D01*
X11588917Y4982200D01*
X11656261Y4948529D01*
X11723604Y4948529D01*
X11774112Y4965364D01*
X11858291Y5015872D01*
X11908799Y5066380D01*
X11959306Y5150559D01*
X11976142Y5201067D01*
X11976142Y5268410D01*
X11942470Y5335754D01*
X11908799Y5369425D01*
X11841455Y5403097D01*
X11807783Y5403097D01*
X11151184Y5419933D02*
X11353215Y5217903D01*
X11252200Y5318918D02*
X11605753Y5672471D01*
X11588917Y5588292D01*
X11588917Y5520948D01*
X11605753Y5470441D01*
X11285871Y5992353D02*
X11252200Y6026025D01*
X11201692Y6042861D01*
X11168020Y6042861D01*
X11117512Y6026025D01*
X11033333Y5975517D01*
X10949154Y5891338D01*
X10898646Y5807158D01*
X10881810Y5756651D01*
X10881810Y5722979D01*
X10898646Y5672471D01*
X10932318Y5638800D01*
X10982825Y5621964D01*
X11016497Y5621964D01*
X11067005Y5638800D01*
X11151184Y5689307D01*
X11235364Y5773487D01*
X11285871Y5857666D01*
X11302707Y5908174D01*
X11302707Y5941845D01*
X11285871Y5992353D01*
X11050169Y6228055D02*
X10831303Y6446922D01*
X10814467Y6194383D01*
X10763959Y6244891D01*
X10713451Y6261727D01*
X10679780Y6261727D01*
X10629272Y6244891D01*
X10545093Y6160712D01*
X10528257Y6110204D01*
X10528257Y6076532D01*
X10545093Y6026025D01*
X10646108Y5925009D01*
X10696616Y5908174D01*
X10730287Y5908174D01*
G04 #@! TO.C,C105*
X16549312Y6974975D02*
X16582983Y6974975D01*
X16650327Y7008646D01*
X16683999Y7042318D01*
X16717670Y7109662D01*
X16717670Y7177005D01*
X16700835Y7227513D01*
X16650327Y7311692D01*
X16599819Y7362200D01*
X16515640Y7412707D01*
X16465132Y7429543D01*
X16397789Y7429543D01*
X16330445Y7395871D01*
X16296774Y7362200D01*
X16263102Y7294856D01*
X16263102Y7261184D01*
X16246266Y6604585D02*
X16448296Y6806616D01*
X16347281Y6705601D02*
X15993728Y7059154D01*
X16077907Y7042318D01*
X16145251Y7042318D01*
X16195758Y7059154D01*
X15673846Y6739272D02*
X15640174Y6705600D01*
X15623338Y6655093D01*
X15623338Y6621421D01*
X15640174Y6570913D01*
X15690682Y6486734D01*
X15774861Y6402555D01*
X15859041Y6352047D01*
X15909548Y6335211D01*
X15943220Y6335211D01*
X15993728Y6352047D01*
X16027399Y6385719D01*
X16044235Y6436226D01*
X16044235Y6469898D01*
X16027400Y6520406D01*
X15976892Y6604585D01*
X15892712Y6688765D01*
X15808533Y6739272D01*
X15758025Y6756108D01*
X15724354Y6756108D01*
X15673846Y6739272D01*
X15236113Y6301539D02*
X15404472Y6469898D01*
X15589667Y6318375D01*
X15555995Y6318375D01*
X15505487Y6301539D01*
X15421308Y6217360D01*
X15404472Y6166852D01*
X15404472Y6133181D01*
X15421308Y6082673D01*
X15505487Y5998494D01*
X15555995Y5981658D01*
X15589667Y5981658D01*
X15640174Y5998494D01*
X15724354Y6082673D01*
X15741190Y6133181D01*
X15741190Y6166852D01*
G04 #@! TO.C,C106*
X15660312Y-7960225D02*
X15693983Y-7960225D01*
X15761327Y-7926554D01*
X15794999Y-7892882D01*
X15828670Y-7825538D01*
X15828670Y-7758195D01*
X15811835Y-7707687D01*
X15761327Y-7623508D01*
X15710819Y-7573000D01*
X15626640Y-7522493D01*
X15576132Y-7505657D01*
X15508789Y-7505657D01*
X15441445Y-7539329D01*
X15407774Y-7573000D01*
X15374102Y-7640344D01*
X15374102Y-7674016D01*
X15357266Y-8330615D02*
X15559296Y-8128584D01*
X15458281Y-8229600D02*
X15104728Y-7876046D01*
X15188907Y-7892882D01*
X15256251Y-7892882D01*
X15306758Y-7876046D01*
X14784846Y-8195928D02*
X14751174Y-8229600D01*
X14734338Y-8280107D01*
X14734338Y-8313779D01*
X14751174Y-8364287D01*
X14801682Y-8448466D01*
X14885861Y-8532645D01*
X14970041Y-8583153D01*
X15020548Y-8599989D01*
X15054220Y-8599989D01*
X15104728Y-8583153D01*
X15138399Y-8549481D01*
X15155235Y-8498974D01*
X15155235Y-8465302D01*
X15138400Y-8414794D01*
X15087892Y-8330615D01*
X15003712Y-8246435D01*
X14919533Y-8195928D01*
X14869025Y-8179092D01*
X14835354Y-8179092D01*
X14784846Y-8195928D01*
X14363949Y-8616825D02*
X14431293Y-8549481D01*
X14481800Y-8532645D01*
X14515472Y-8532645D01*
X14599651Y-8549481D01*
X14683831Y-8599989D01*
X14818518Y-8734676D01*
X14835354Y-8785183D01*
X14835354Y-8818855D01*
X14818518Y-8869363D01*
X14751174Y-8936706D01*
X14700667Y-8953542D01*
X14666995Y-8953542D01*
X14616487Y-8936706D01*
X14532308Y-8852527D01*
X14515472Y-8802019D01*
X14515472Y-8768348D01*
X14532308Y-8717840D01*
X14599651Y-8650496D01*
X14650159Y-8633661D01*
X14683831Y-8633661D01*
X14734338Y-8650496D01*
G04 #@! TO.C,C107*
X7186589Y-10506069D02*
X7210399Y-10529878D01*
X7281827Y-10553688D01*
X7329446Y-10553688D01*
X7400875Y-10529878D01*
X7448494Y-10482259D01*
X7472304Y-10434640D01*
X7496113Y-10339402D01*
X7496113Y-10267974D01*
X7472304Y-10172736D01*
X7448494Y-10125117D01*
X7400875Y-10077498D01*
X7329446Y-10053688D01*
X7281827Y-10053688D01*
X7210399Y-10077498D01*
X7186589Y-10101307D01*
X6710399Y-10553688D02*
X6996113Y-10553688D01*
X6853256Y-10553688D02*
X6853256Y-10053688D01*
X6900875Y-10125117D01*
X6948494Y-10172736D01*
X6996113Y-10196545D01*
X6400875Y-10053688D02*
X6353256Y-10053688D01*
X6305637Y-10077498D01*
X6281827Y-10101307D01*
X6258018Y-10148926D01*
X6234208Y-10244164D01*
X6234208Y-10363212D01*
X6258018Y-10458450D01*
X6281827Y-10506069D01*
X6305637Y-10529878D01*
X6353256Y-10553688D01*
X6400875Y-10553688D01*
X6448494Y-10529878D01*
X6472304Y-10506069D01*
X6496113Y-10458450D01*
X6519923Y-10363212D01*
X6519923Y-10244164D01*
X6496113Y-10148926D01*
X6472304Y-10101307D01*
X6448494Y-10077498D01*
X6400875Y-10053688D01*
X6067542Y-10053688D02*
X5734208Y-10053688D01*
X5948494Y-10553688D01*
G04 #@! TO.C,C95*
X-11762246Y-6579184D02*
X-11728574Y-6579184D01*
X-11661231Y-6545512D01*
X-11627559Y-6511841D01*
X-11593887Y-6444497D01*
X-11593887Y-6377154D01*
X-11610723Y-6326646D01*
X-11661231Y-6242467D01*
X-11711738Y-6191959D01*
X-11795918Y-6141451D01*
X-11846425Y-6124616D01*
X-11913769Y-6124616D01*
X-11981112Y-6158287D01*
X-12014784Y-6191959D01*
X-12048456Y-6259303D01*
X-12048456Y-6292974D01*
X-11896933Y-6781215D02*
X-11964277Y-6848558D01*
X-12014784Y-6865394D01*
X-12048456Y-6865394D01*
X-12132635Y-6848558D01*
X-12216815Y-6798051D01*
X-12351502Y-6663364D01*
X-12368338Y-6612856D01*
X-12368338Y-6579184D01*
X-12351502Y-6528677D01*
X-12284158Y-6461333D01*
X-12233651Y-6444497D01*
X-12199979Y-6444497D01*
X-12149471Y-6461333D01*
X-12065292Y-6545512D01*
X-12048456Y-6596020D01*
X-12048456Y-6629692D01*
X-12065292Y-6680200D01*
X-12132635Y-6747543D01*
X-12183143Y-6764379D01*
X-12216815Y-6764379D01*
X-12267322Y-6747543D01*
X-12738727Y-6915902D02*
X-12570368Y-6747543D01*
X-12385174Y-6899066D01*
X-12418845Y-6899066D01*
X-12469353Y-6915902D01*
X-12553532Y-7000081D01*
X-12570368Y-7050589D01*
X-12570368Y-7084261D01*
X-12553532Y-7134768D01*
X-12469353Y-7218948D01*
X-12418845Y-7235783D01*
X-12385174Y-7235783D01*
X-12334666Y-7218948D01*
X-12250487Y-7134768D01*
X-12233651Y-7084261D01*
X-12233651Y-7050589D01*
G04 #@! TO.C,C94*
X-11406646Y-9119184D02*
X-11372974Y-9119184D01*
X-11305631Y-9085512D01*
X-11271959Y-9051841D01*
X-11238287Y-8984497D01*
X-11238287Y-8917154D01*
X-11255123Y-8866646D01*
X-11305631Y-8782467D01*
X-11356138Y-8731959D01*
X-11440318Y-8681451D01*
X-11490825Y-8664616D01*
X-11558169Y-8664616D01*
X-11625512Y-8698287D01*
X-11659184Y-8731959D01*
X-11692856Y-8799303D01*
X-11692856Y-8832974D01*
X-11541333Y-9321215D02*
X-11608677Y-9388558D01*
X-11659184Y-9405394D01*
X-11692856Y-9405394D01*
X-11777035Y-9388558D01*
X-11861215Y-9338051D01*
X-11995902Y-9203364D01*
X-12012738Y-9152856D01*
X-12012738Y-9119184D01*
X-11995902Y-9068677D01*
X-11928558Y-9001333D01*
X-11878051Y-8984497D01*
X-11844379Y-8984497D01*
X-11793871Y-9001333D01*
X-11709692Y-9085512D01*
X-11692856Y-9136020D01*
X-11692856Y-9169692D01*
X-11709692Y-9220200D01*
X-11777035Y-9287543D01*
X-11827543Y-9304379D01*
X-11861215Y-9304379D01*
X-11911722Y-9287543D01*
X-12248440Y-9556917D02*
X-12012738Y-9792619D01*
X-12298948Y-9338051D02*
X-11962230Y-9506409D01*
X-12181096Y-9725276D01*
G04 #@! TO.C,C108*
X8778374Y-16930312D02*
X8778374Y-16963983D01*
X8812045Y-17031327D01*
X8845717Y-17064999D01*
X8913061Y-17098670D01*
X8980404Y-17098670D01*
X9030912Y-17081835D01*
X9115091Y-17031327D01*
X9165599Y-16980819D01*
X9216106Y-16896640D01*
X9232942Y-16846132D01*
X9232942Y-16778789D01*
X9199270Y-16711445D01*
X9165599Y-16677774D01*
X9098255Y-16644102D01*
X9064583Y-16644102D01*
X8407984Y-16627266D02*
X8610015Y-16829296D01*
X8509000Y-16728281D02*
X8862553Y-16374728D01*
X8845717Y-16458907D01*
X8845717Y-16526251D01*
X8862553Y-16576758D01*
X8542671Y-16054846D02*
X8509000Y-16021174D01*
X8458492Y-16004338D01*
X8424820Y-16004338D01*
X8374312Y-16021174D01*
X8290133Y-16071682D01*
X8205954Y-16155861D01*
X8155446Y-16240041D01*
X8138610Y-16290548D01*
X8138610Y-16324220D01*
X8155446Y-16374728D01*
X8189118Y-16408400D01*
X8239625Y-16425235D01*
X8273297Y-16425235D01*
X8323805Y-16408400D01*
X8407984Y-16357892D01*
X8492164Y-16273712D01*
X8542671Y-16189533D01*
X8559507Y-16139025D01*
X8559507Y-16105354D01*
X8542671Y-16054846D01*
X8071267Y-15886487D02*
X8121774Y-15903323D01*
X8155446Y-15903323D01*
X8205954Y-15886487D01*
X8222790Y-15869651D01*
X8239625Y-15819144D01*
X8239625Y-15785472D01*
X8222790Y-15734964D01*
X8155446Y-15667621D01*
X8104938Y-15650785D01*
X8071267Y-15650785D01*
X8020759Y-15667621D01*
X8003923Y-15684457D01*
X7987087Y-15734964D01*
X7987087Y-15768636D01*
X8003923Y-15819144D01*
X8071267Y-15886487D01*
X8088103Y-15936995D01*
X8088103Y-15970667D01*
X8071267Y-16021174D01*
X8003923Y-16088518D01*
X7953416Y-16105354D01*
X7919744Y-16105354D01*
X7869236Y-16088518D01*
X7801893Y-16021174D01*
X7785057Y-15970667D01*
X7785057Y-15936995D01*
X7801893Y-15886487D01*
X7869236Y-15819144D01*
X7919744Y-15802308D01*
X7953416Y-15802308D01*
X8003923Y-15819144D01*
G04 #@! TO.C,C101*
X-6436225Y14184687D02*
X-6436225Y14151016D01*
X-6402554Y14083672D01*
X-6368882Y14050000D01*
X-6301538Y14016329D01*
X-6234195Y14016329D01*
X-6183687Y14033164D01*
X-6099508Y14083672D01*
X-6049000Y14134180D01*
X-5998493Y14218359D01*
X-5981657Y14268867D01*
X-5981657Y14336210D01*
X-6015329Y14403554D01*
X-6049000Y14437225D01*
X-6116344Y14470897D01*
X-6150016Y14470897D01*
X-6806615Y14487733D02*
X-6604584Y14285703D01*
X-6705600Y14386718D02*
X-6352046Y14740271D01*
X-6368882Y14656092D01*
X-6368882Y14588748D01*
X-6352046Y14538241D01*
X-6671928Y15060153D02*
X-6705600Y15093825D01*
X-6756107Y15110661D01*
X-6789779Y15110661D01*
X-6840287Y15093825D01*
X-6924466Y15043317D01*
X-7008645Y14959138D01*
X-7059153Y14874958D01*
X-7075989Y14824451D01*
X-7075989Y14790779D01*
X-7059153Y14740271D01*
X-7025481Y14706600D01*
X-6974974Y14689764D01*
X-6941302Y14689764D01*
X-6890794Y14706600D01*
X-6806615Y14757107D01*
X-6722435Y14841287D01*
X-6671928Y14925466D01*
X-6655092Y14975974D01*
X-6655092Y15009645D01*
X-6671928Y15060153D01*
X-7480050Y15161168D02*
X-7278019Y14959138D01*
X-7379035Y15060153D02*
X-7025481Y15413706D01*
X-7042317Y15329527D01*
X-7042317Y15262183D01*
X-7025481Y15211676D01*
G04 #@! TO.C,C114*
X8675313Y10759574D02*
X8708984Y10759574D01*
X8776328Y10793245D01*
X8810000Y10826917D01*
X8843671Y10894261D01*
X8843671Y10961604D01*
X8826836Y11012112D01*
X8776328Y11096291D01*
X8725820Y11146799D01*
X8641641Y11197306D01*
X8591133Y11214142D01*
X8523790Y11214142D01*
X8456446Y11180470D01*
X8422775Y11146799D01*
X8389103Y11079455D01*
X8389103Y11045783D01*
X8372267Y10389184D02*
X8574297Y10591215D01*
X8473282Y10490200D02*
X8119729Y10843753D01*
X8203908Y10826917D01*
X8271252Y10826917D01*
X8321759Y10843753D01*
X8035549Y10052467D02*
X8237580Y10254497D01*
X8136565Y10153482D02*
X7783011Y10507035D01*
X7867191Y10490199D01*
X7934534Y10490200D01*
X7985042Y10507035D01*
X7496801Y9985123D02*
X7732504Y9749421D01*
X7446294Y10203990D02*
X7783011Y10035631D01*
X7564145Y9816764D01*
G04 #@! TO.C,C133*
X-9103225Y-15888912D02*
X-9103225Y-15922583D01*
X-9069554Y-15989927D01*
X-9035882Y-16023599D01*
X-8968538Y-16057270D01*
X-8901195Y-16057270D01*
X-8850687Y-16040435D01*
X-8766508Y-15989927D01*
X-8716000Y-15939419D01*
X-8665493Y-15855240D01*
X-8648657Y-15804732D01*
X-8648657Y-15737389D01*
X-8682329Y-15670045D01*
X-8716000Y-15636374D01*
X-8783344Y-15602702D01*
X-8817016Y-15602702D01*
X-9473615Y-15585866D02*
X-9271584Y-15787896D01*
X-9372600Y-15686881D02*
X-9019046Y-15333328D01*
X-9035882Y-15417507D01*
X-9035882Y-15484851D01*
X-9019046Y-15535358D01*
X-9237912Y-15114461D02*
X-9456779Y-14895595D01*
X-9473615Y-15148133D01*
X-9524122Y-15097625D01*
X-9574630Y-15080790D01*
X-9608302Y-15080790D01*
X-9658809Y-15097625D01*
X-9742989Y-15181805D01*
X-9759825Y-15232312D01*
X-9759825Y-15265984D01*
X-9742989Y-15316492D01*
X-9641974Y-15417507D01*
X-9591466Y-15434343D01*
X-9557794Y-15434343D01*
X-9574630Y-14777744D02*
X-9793496Y-14558877D01*
X-9810332Y-14811416D01*
X-9860840Y-14760908D01*
X-9911348Y-14744072D01*
X-9945019Y-14744072D01*
X-9995527Y-14760908D01*
X-10079706Y-14845087D01*
X-10096542Y-14895595D01*
X-10096542Y-14929267D01*
X-10079706Y-14979774D01*
X-9978691Y-15080790D01*
X-9928183Y-15097625D01*
X-9894512Y-15097625D01*
G04 #@! TO.C,C134*
X-10551025Y-14364912D02*
X-10551025Y-14398583D01*
X-10517354Y-14465927D01*
X-10483682Y-14499599D01*
X-10416338Y-14533270D01*
X-10348995Y-14533270D01*
X-10298487Y-14516435D01*
X-10214308Y-14465927D01*
X-10163800Y-14415419D01*
X-10113293Y-14331240D01*
X-10096457Y-14280732D01*
X-10096457Y-14213389D01*
X-10130129Y-14146045D01*
X-10163800Y-14112374D01*
X-10231144Y-14078702D01*
X-10264816Y-14078702D01*
X-10921415Y-14061866D02*
X-10719384Y-14263896D01*
X-10820400Y-14162881D02*
X-10466846Y-13809328D01*
X-10483682Y-13893507D01*
X-10483682Y-13960851D01*
X-10466846Y-14011358D01*
X-10685712Y-13590461D02*
X-10904579Y-13371595D01*
X-10921415Y-13624133D01*
X-10971922Y-13573625D01*
X-11022430Y-13556790D01*
X-11056102Y-13556790D01*
X-11106609Y-13573625D01*
X-11190789Y-13657805D01*
X-11207625Y-13708312D01*
X-11207625Y-13741984D01*
X-11190789Y-13792492D01*
X-11089774Y-13893507D01*
X-11039266Y-13910343D01*
X-11005594Y-13910343D01*
X-11325476Y-13186400D02*
X-11561178Y-13422103D01*
X-11106609Y-13135893D02*
X-11274968Y-13472610D01*
X-11493835Y-13253744D01*
G04 #@! TO.C,C137*
X-8622087Y13858374D02*
X-8588416Y13858374D01*
X-8521072Y13892045D01*
X-8487400Y13925717D01*
X-8453729Y13993061D01*
X-8453729Y14060404D01*
X-8470564Y14110912D01*
X-8521072Y14195091D01*
X-8571580Y14245599D01*
X-8655759Y14296106D01*
X-8706267Y14312942D01*
X-8773610Y14312942D01*
X-8840954Y14279270D01*
X-8874625Y14245599D01*
X-8908297Y14178255D01*
X-8908297Y14144583D01*
X-8925133Y13487984D02*
X-8723103Y13690015D01*
X-8824118Y13589000D02*
X-9177671Y13942553D01*
X-9093492Y13925717D01*
X-9026148Y13925717D01*
X-8975641Y13942553D01*
X-9396538Y13723687D02*
X-9615404Y13504820D01*
X-9362866Y13487984D01*
X-9413374Y13437477D01*
X-9430209Y13386969D01*
X-9430209Y13353297D01*
X-9413374Y13302790D01*
X-9329194Y13218610D01*
X-9278687Y13201774D01*
X-9245015Y13201774D01*
X-9194507Y13218610D01*
X-9093492Y13319625D01*
X-9076656Y13370133D01*
X-9076656Y13403805D01*
X-9733255Y13386969D02*
X-9968957Y13151267D01*
X-9463881Y12949236D01*
G04 #@! TO.C,C138*
X-14716625Y24243087D02*
X-14716625Y24209416D01*
X-14682954Y24142072D01*
X-14649282Y24108400D01*
X-14581938Y24074729D01*
X-14514595Y24074729D01*
X-14464087Y24091564D01*
X-14379908Y24142072D01*
X-14329400Y24192580D01*
X-14278893Y24276759D01*
X-14262057Y24327267D01*
X-14262057Y24394610D01*
X-14295729Y24461954D01*
X-14329400Y24495625D01*
X-14396744Y24529297D01*
X-14430416Y24529297D01*
X-15087015Y24546133D02*
X-14884984Y24344103D01*
X-14986000Y24445118D02*
X-14632446Y24798671D01*
X-14649282Y24714492D01*
X-14649282Y24647148D01*
X-14632446Y24596641D01*
X-14851312Y25017538D02*
X-15070179Y25236404D01*
X-15087015Y24983866D01*
X-15137522Y25034374D01*
X-15188030Y25051209D01*
X-15221702Y25051209D01*
X-15272209Y25034374D01*
X-15356389Y24950194D01*
X-15373225Y24899687D01*
X-15373225Y24866015D01*
X-15356389Y24815507D01*
X-15255374Y24714492D01*
X-15204866Y24697656D01*
X-15171194Y24697656D01*
X-15423732Y25286912D02*
X-15373225Y25270076D01*
X-15339553Y25270076D01*
X-15289045Y25286912D01*
X-15272209Y25303748D01*
X-15255374Y25354255D01*
X-15255374Y25387927D01*
X-15272209Y25438435D01*
X-15339553Y25505778D01*
X-15390061Y25522614D01*
X-15423732Y25522614D01*
X-15474240Y25505778D01*
X-15491076Y25488942D01*
X-15507912Y25438435D01*
X-15507912Y25404763D01*
X-15491076Y25354255D01*
X-15423732Y25286912D01*
X-15406896Y25236404D01*
X-15406896Y25202732D01*
X-15423732Y25152225D01*
X-15491076Y25084881D01*
X-15541583Y25068045D01*
X-15575255Y25068045D01*
X-15625763Y25084881D01*
X-15693106Y25152225D01*
X-15709942Y25202732D01*
X-15709942Y25236404D01*
X-15693106Y25286912D01*
X-15625763Y25354255D01*
X-15575255Y25371091D01*
X-15541583Y25371091D01*
X-15491076Y25354255D01*
G04 #@! TO.C,C78*
X2429628Y20243028D02*
X2453438Y20219219D01*
X2524866Y20195409D01*
X2572485Y20195409D01*
X2643914Y20219219D01*
X2691533Y20266838D01*
X2715342Y20314457D01*
X2739152Y20409695D01*
X2739152Y20481123D01*
X2715342Y20576361D01*
X2691533Y20623980D01*
X2643914Y20671600D01*
X2572485Y20695409D01*
X2524866Y20695409D01*
X2453438Y20671600D01*
X2429628Y20647790D01*
X2262961Y20695409D02*
X1929628Y20695409D01*
X2143914Y20195409D01*
X1667723Y20481123D02*
X1715342Y20504933D01*
X1739152Y20528742D01*
X1762961Y20576361D01*
X1762961Y20600171D01*
X1739152Y20647790D01*
X1715342Y20671600D01*
X1667723Y20695409D01*
X1572485Y20695409D01*
X1524866Y20671600D01*
X1501057Y20647790D01*
X1477247Y20600171D01*
X1477247Y20576361D01*
X1501057Y20528742D01*
X1524866Y20504933D01*
X1572485Y20481123D01*
X1667723Y20481123D01*
X1715342Y20457314D01*
X1739152Y20433504D01*
X1762961Y20385885D01*
X1762961Y20290647D01*
X1739152Y20243028D01*
X1715342Y20219219D01*
X1667723Y20195409D01*
X1572485Y20195409D01*
X1524866Y20219219D01*
X1501057Y20243028D01*
X1477247Y20290647D01*
X1477247Y20385885D01*
X1501057Y20433504D01*
X1524866Y20457314D01*
X1572485Y20481123D01*
G04 #@! TO.C,C15*
X20498571Y-1837571D02*
X20522380Y-1813761D01*
X20546190Y-1742333D01*
X20546190Y-1694714D01*
X20522380Y-1623285D01*
X20474761Y-1575666D01*
X20427142Y-1551857D01*
X20331904Y-1528047D01*
X20260476Y-1528047D01*
X20165238Y-1551857D01*
X20117619Y-1575666D01*
X20070000Y-1623285D01*
X20046190Y-1694714D01*
X20046190Y-1742333D01*
X20070000Y-1813761D01*
X20093809Y-1837571D01*
X20546190Y-2313761D02*
X20546190Y-2028047D01*
X20546190Y-2170904D02*
X20046190Y-2170904D01*
X20117619Y-2123285D01*
X20165238Y-2075666D01*
X20189047Y-2028047D01*
X20046190Y-2766142D02*
X20046190Y-2528047D01*
X20284285Y-2504238D01*
X20260476Y-2528047D01*
X20236666Y-2575666D01*
X20236666Y-2694714D01*
X20260476Y-2742333D01*
X20284285Y-2766142D01*
X20331904Y-2789952D01*
X20450952Y-2789952D01*
X20498571Y-2766142D01*
X20522380Y-2742333D01*
X20546190Y-2694714D01*
X20546190Y-2575666D01*
X20522380Y-2528047D01*
X20498571Y-2504238D01*
G04 #@! TO.C,C36*
X-1761371Y-21743171D02*
X-1737561Y-21766980D01*
X-1666133Y-21790790D01*
X-1618514Y-21790790D01*
X-1547085Y-21766980D01*
X-1499466Y-21719361D01*
X-1475657Y-21671742D01*
X-1451847Y-21576504D01*
X-1451847Y-21505076D01*
X-1475657Y-21409838D01*
X-1499466Y-21362219D01*
X-1547085Y-21314600D01*
X-1618514Y-21290790D01*
X-1666133Y-21290790D01*
X-1737561Y-21314600D01*
X-1761371Y-21338409D01*
X-1928038Y-21290790D02*
X-2237561Y-21290790D01*
X-2070895Y-21481266D01*
X-2142323Y-21481266D01*
X-2189942Y-21505076D01*
X-2213752Y-21528885D01*
X-2237561Y-21576504D01*
X-2237561Y-21695552D01*
X-2213752Y-21743171D01*
X-2189942Y-21766980D01*
X-2142323Y-21790790D01*
X-1999466Y-21790790D01*
X-1951847Y-21766980D01*
X-1928038Y-21743171D01*
X-2666133Y-21290790D02*
X-2570895Y-21290790D01*
X-2523276Y-21314600D01*
X-2499466Y-21338409D01*
X-2451847Y-21409838D01*
X-2428038Y-21505076D01*
X-2428038Y-21695552D01*
X-2451847Y-21743171D01*
X-2475657Y-21766980D01*
X-2523276Y-21790790D01*
X-2618514Y-21790790D01*
X-2666133Y-21766980D01*
X-2689942Y-21743171D01*
X-2713752Y-21695552D01*
X-2713752Y-21576504D01*
X-2689942Y-21528885D01*
X-2666133Y-21505076D01*
X-2618514Y-21481266D01*
X-2523276Y-21481266D01*
X-2475657Y-21505076D01*
X-2451847Y-21528885D01*
X-2428038Y-21576504D01*
G04 #@! TO.C,U6*
X9454586Y-12445561D02*
X9168376Y-12731771D01*
X9117869Y-12748607D01*
X9084197Y-12748607D01*
X9033689Y-12731771D01*
X8966346Y-12664427D01*
X8949510Y-12613920D01*
X8949510Y-12580248D01*
X8966346Y-12529740D01*
X9252556Y-12243530D01*
X8932674Y-11923649D02*
X9000017Y-11990992D01*
X9016853Y-12041500D01*
X9016853Y-12075172D01*
X9000017Y-12159351D01*
X8949510Y-12243530D01*
X8814823Y-12378217D01*
X8764315Y-12395053D01*
X8730643Y-12395053D01*
X8680136Y-12378217D01*
X8612792Y-12310874D01*
X8595956Y-12260366D01*
X8595956Y-12226695D01*
X8612792Y-12176187D01*
X8696972Y-12092008D01*
X8747479Y-12075172D01*
X8781151Y-12075172D01*
X8831659Y-12092008D01*
X8899002Y-12159351D01*
X8915838Y-12209859D01*
X8915838Y-12243530D01*
X8899002Y-12294038D01*
G04 #@! TO.C,C87*
X13586953Y-12471983D02*
X13620625Y-12471983D01*
X13687968Y-12438311D01*
X13721640Y-12404640D01*
X13755312Y-12337296D01*
X13755312Y-12269953D01*
X13738476Y-12219445D01*
X13687968Y-12135266D01*
X13637461Y-12084758D01*
X13553281Y-12034250D01*
X13502774Y-12017415D01*
X13435430Y-12017415D01*
X13368087Y-12051086D01*
X13334415Y-12084758D01*
X13300743Y-12152102D01*
X13300743Y-12185773D01*
X13216564Y-12505655D02*
X13233400Y-12455147D01*
X13233400Y-12421476D01*
X13216564Y-12370968D01*
X13199728Y-12354132D01*
X13149220Y-12337296D01*
X13115548Y-12337296D01*
X13065041Y-12354132D01*
X12997697Y-12421476D01*
X12980861Y-12471983D01*
X12980861Y-12505655D01*
X12997697Y-12556163D01*
X13014533Y-12572999D01*
X13065041Y-12589834D01*
X13098712Y-12589834D01*
X13149220Y-12572999D01*
X13216564Y-12505655D01*
X13267071Y-12488819D01*
X13300743Y-12488819D01*
X13351251Y-12505655D01*
X13418594Y-12572999D01*
X13435430Y-12623506D01*
X13435430Y-12657178D01*
X13418594Y-12707686D01*
X13351251Y-12775029D01*
X13300743Y-12791865D01*
X13267071Y-12791865D01*
X13216564Y-12775029D01*
X13149220Y-12707686D01*
X13132384Y-12657178D01*
X13132384Y-12623506D01*
X13149220Y-12572999D01*
X12812503Y-12606670D02*
X12576800Y-12842373D01*
X13081877Y-13044403D01*
G04 #@! TO.C,C92*
X6503171Y23206928D02*
X6526980Y23230738D01*
X6550790Y23302166D01*
X6550790Y23349785D01*
X6526980Y23421214D01*
X6479361Y23468833D01*
X6431742Y23492642D01*
X6336504Y23516452D01*
X6265076Y23516452D01*
X6169838Y23492642D01*
X6122219Y23468833D01*
X6074600Y23421214D01*
X6050790Y23349785D01*
X6050790Y23302166D01*
X6074600Y23230738D01*
X6098409Y23206928D01*
X6550790Y22968833D02*
X6550790Y22873595D01*
X6526980Y22825976D01*
X6503171Y22802166D01*
X6431742Y22754547D01*
X6336504Y22730738D01*
X6146028Y22730738D01*
X6098409Y22754547D01*
X6074600Y22778357D01*
X6050790Y22825976D01*
X6050790Y22921214D01*
X6074600Y22968833D01*
X6098409Y22992642D01*
X6146028Y23016452D01*
X6265076Y23016452D01*
X6312695Y22992642D01*
X6336504Y22968833D01*
X6360314Y22921214D01*
X6360314Y22825976D01*
X6336504Y22778357D01*
X6312695Y22754547D01*
X6265076Y22730738D01*
X6098409Y22540261D02*
X6074600Y22516452D01*
X6050790Y22468833D01*
X6050790Y22349785D01*
X6074600Y22302166D01*
X6098409Y22278357D01*
X6146028Y22254547D01*
X6193647Y22254547D01*
X6265076Y22278357D01*
X6550790Y22564071D01*
X6550790Y22254547D01*
G04 #@! TO.C,C90*
X-6298428Y23410028D02*
X-6274619Y23433838D01*
X-6250809Y23505266D01*
X-6250809Y23552885D01*
X-6274619Y23624314D01*
X-6322238Y23671933D01*
X-6369857Y23695742D01*
X-6465095Y23719552D01*
X-6536523Y23719552D01*
X-6631761Y23695742D01*
X-6679380Y23671933D01*
X-6727000Y23624314D01*
X-6750809Y23552885D01*
X-6750809Y23505266D01*
X-6727000Y23433838D01*
X-6703190Y23410028D01*
X-6250809Y23171933D02*
X-6250809Y23076695D01*
X-6274619Y23029076D01*
X-6298428Y23005266D01*
X-6369857Y22957647D01*
X-6465095Y22933838D01*
X-6655571Y22933838D01*
X-6703190Y22957647D01*
X-6727000Y22981457D01*
X-6750809Y23029076D01*
X-6750809Y23124314D01*
X-6727000Y23171933D01*
X-6703190Y23195742D01*
X-6655571Y23219552D01*
X-6536523Y23219552D01*
X-6488904Y23195742D01*
X-6465095Y23171933D01*
X-6441285Y23124314D01*
X-6441285Y23029076D01*
X-6465095Y22981457D01*
X-6488904Y22957647D01*
X-6536523Y22933838D01*
X-6750809Y22624314D02*
X-6750809Y22576695D01*
X-6727000Y22529076D01*
X-6703190Y22505266D01*
X-6655571Y22481457D01*
X-6560333Y22457647D01*
X-6441285Y22457647D01*
X-6346047Y22481457D01*
X-6298428Y22505266D01*
X-6274619Y22529076D01*
X-6250809Y22576695D01*
X-6250809Y22624314D01*
X-6274619Y22671933D01*
X-6298428Y22695742D01*
X-6346047Y22719552D01*
X-6441285Y22743361D01*
X-6560333Y22743361D01*
X-6655571Y22719552D01*
X-6703190Y22695742D01*
X-6727000Y22671933D01*
X-6750809Y22624314D01*
G04 #@! TO.C,C2*
X19006333Y6171428D02*
X19030142Y6147619D01*
X19101571Y6123809D01*
X19149190Y6123809D01*
X19220619Y6147619D01*
X19268238Y6195238D01*
X19292047Y6242857D01*
X19315857Y6338095D01*
X19315857Y6409523D01*
X19292047Y6504761D01*
X19268238Y6552380D01*
X19220619Y6600000D01*
X19149190Y6623809D01*
X19101571Y6623809D01*
X19030142Y6600000D01*
X19006333Y6576190D01*
X18815857Y6576190D02*
X18792047Y6600000D01*
X18744428Y6623809D01*
X18625380Y6623809D01*
X18577761Y6600000D01*
X18553952Y6576190D01*
X18530142Y6528571D01*
X18530142Y6480952D01*
X18553952Y6409523D01*
X18839666Y6123809D01*
X18530142Y6123809D01*
G04 #@! TO.C,C4*
X17558533Y6120628D02*
X17582342Y6096819D01*
X17653771Y6073009D01*
X17701390Y6073009D01*
X17772819Y6096819D01*
X17820438Y6144438D01*
X17844247Y6192057D01*
X17868057Y6287295D01*
X17868057Y6358723D01*
X17844247Y6453961D01*
X17820438Y6501580D01*
X17772819Y6549200D01*
X17701390Y6573009D01*
X17653771Y6573009D01*
X17582342Y6549200D01*
X17558533Y6525390D01*
X17129961Y6406342D02*
X17129961Y6073009D01*
X17249009Y6596819D02*
X17368057Y6239676D01*
X17058533Y6239676D01*
G04 #@! TO.C,C8*
X15147256Y2558005D02*
X15147256Y2524333D01*
X15180928Y2456990D01*
X15214600Y2423318D01*
X15281943Y2389646D01*
X15349287Y2389646D01*
X15399794Y2406482D01*
X15483974Y2456990D01*
X15534481Y2507497D01*
X15584989Y2591677D01*
X15601825Y2642184D01*
X15601825Y2709528D01*
X15568153Y2776871D01*
X15534481Y2810543D01*
X15467138Y2844215D01*
X15433466Y2844215D01*
X15113584Y2928394D02*
X15164092Y2911558D01*
X15197764Y2911558D01*
X15248271Y2928394D01*
X15265107Y2945230D01*
X15281943Y2995738D01*
X15281943Y3029409D01*
X15265107Y3079917D01*
X15197764Y3147261D01*
X15147256Y3164096D01*
X15113584Y3164096D01*
X15063077Y3147261D01*
X15046241Y3130425D01*
X15029405Y3079917D01*
X15029405Y3046245D01*
X15046241Y2995738D01*
X15113584Y2928394D01*
X15130420Y2877887D01*
X15130420Y2844215D01*
X15113584Y2793707D01*
X15046241Y2726364D01*
X14995733Y2709528D01*
X14962061Y2709528D01*
X14911554Y2726364D01*
X14844210Y2793707D01*
X14827374Y2844215D01*
X14827374Y2877887D01*
X14844210Y2928394D01*
X14911554Y2995738D01*
X14962061Y3012574D01*
X14995733Y3012574D01*
X15046241Y2995738D01*
G04 #@! TO.C,C21*
X20447771Y2277228D02*
X20471580Y2301038D01*
X20495390Y2372466D01*
X20495390Y2420085D01*
X20471580Y2491514D01*
X20423961Y2539133D01*
X20376342Y2562942D01*
X20281104Y2586752D01*
X20209676Y2586752D01*
X20114438Y2562942D01*
X20066819Y2539133D01*
X20019200Y2491514D01*
X19995390Y2420085D01*
X19995390Y2372466D01*
X20019200Y2301038D01*
X20043009Y2277228D01*
X20043009Y2086752D02*
X20019200Y2062942D01*
X19995390Y2015323D01*
X19995390Y1896276D01*
X20019200Y1848657D01*
X20043009Y1824847D01*
X20090628Y1801038D01*
X20138247Y1801038D01*
X20209676Y1824847D01*
X20495390Y2110561D01*
X20495390Y1801038D01*
X20495390Y1324847D02*
X20495390Y1610561D01*
X20495390Y1467704D02*
X19995390Y1467704D01*
X20066819Y1515323D01*
X20114438Y1562942D01*
X20138247Y1610561D01*
G04 #@! TO.C,C100*
X-7833225Y13752887D02*
X-7833225Y13719216D01*
X-7799554Y13651872D01*
X-7765882Y13618200D01*
X-7698538Y13584529D01*
X-7631195Y13584529D01*
X-7580687Y13601364D01*
X-7496508Y13651872D01*
X-7446000Y13702380D01*
X-7395493Y13786559D01*
X-7378657Y13837067D01*
X-7378657Y13904410D01*
X-7412329Y13971754D01*
X-7446000Y14005425D01*
X-7513344Y14039097D01*
X-7547016Y14039097D01*
X-8203615Y14055933D02*
X-8001584Y13853903D01*
X-8102600Y13954918D02*
X-7749046Y14308471D01*
X-7765882Y14224292D01*
X-7765882Y14156948D01*
X-7749046Y14106441D01*
X-8068928Y14628353D02*
X-8102600Y14662025D01*
X-8153107Y14678861D01*
X-8186779Y14678861D01*
X-8237287Y14662025D01*
X-8321466Y14611517D01*
X-8405645Y14527338D01*
X-8456153Y14443158D01*
X-8472989Y14392651D01*
X-8472989Y14358979D01*
X-8456153Y14308471D01*
X-8422481Y14274800D01*
X-8371974Y14257964D01*
X-8338302Y14257964D01*
X-8287794Y14274800D01*
X-8203615Y14325307D01*
X-8119435Y14409487D01*
X-8068928Y14493666D01*
X-8052092Y14544174D01*
X-8052092Y14577845D01*
X-8068928Y14628353D01*
X-8405645Y14965070D02*
X-8439317Y14998742D01*
X-8489825Y15015578D01*
X-8523496Y15015578D01*
X-8574004Y14998742D01*
X-8658183Y14948235D01*
X-8742363Y14864055D01*
X-8792870Y14779876D01*
X-8809706Y14729368D01*
X-8809706Y14695696D01*
X-8792870Y14645189D01*
X-8759199Y14611517D01*
X-8708691Y14594681D01*
X-8675019Y14594681D01*
X-8624512Y14611517D01*
X-8540332Y14662025D01*
X-8456153Y14746204D01*
X-8405645Y14830383D01*
X-8388809Y14880891D01*
X-8388809Y14914563D01*
X-8405645Y14965070D01*
G04 #@! TO.C,C115*
X10707312Y8016374D02*
X10740983Y8016374D01*
X10808327Y8050045D01*
X10841999Y8083717D01*
X10875670Y8151061D01*
X10875670Y8218404D01*
X10858835Y8268912D01*
X10808327Y8353091D01*
X10757819Y8403599D01*
X10673640Y8454106D01*
X10623132Y8470942D01*
X10555789Y8470942D01*
X10488445Y8437270D01*
X10454774Y8403599D01*
X10421102Y8336255D01*
X10421102Y8302583D01*
X10404266Y7645984D02*
X10606296Y7848015D01*
X10505281Y7747000D02*
X10151728Y8100553D01*
X10235907Y8083717D01*
X10303251Y8083717D01*
X10353758Y8100553D01*
X10067548Y7309267D02*
X10269579Y7511297D01*
X10168564Y7410282D02*
X9815010Y7763835D01*
X9899190Y7746999D01*
X9966533Y7747000D01*
X10017041Y7763835D01*
X9394113Y7342938D02*
X9562472Y7511297D01*
X9747667Y7359774D01*
X9713995Y7359774D01*
X9663487Y7342938D01*
X9579308Y7258759D01*
X9562472Y7208251D01*
X9562472Y7174580D01*
X9579308Y7124072D01*
X9663487Y7039893D01*
X9713995Y7023057D01*
X9747667Y7023057D01*
X9798174Y7039893D01*
X9882354Y7124072D01*
X9899190Y7174580D01*
X9899190Y7208251D01*
G04 #@! TO.C,D1*
X7695615Y14209503D02*
X8049168Y14563056D01*
X7964989Y14647235D01*
X7897645Y14680907D01*
X7830302Y14680907D01*
X7779794Y14664071D01*
X7695615Y14613564D01*
X7645107Y14563056D01*
X7594600Y14478877D01*
X7577764Y14428369D01*
X7577764Y14361025D01*
X7611435Y14293682D01*
X7695615Y14209503D01*
X7156867Y14748251D02*
X7358897Y14546220D01*
X7257882Y14647235D02*
X7611435Y15000789D01*
X7594599Y14916609D01*
X7594600Y14849266D01*
X7611435Y14798758D01*
G04 #@! TO.C,U12*
X25154730Y21421991D02*
X25440940Y21135781D01*
X25457775Y21085273D01*
X25457775Y21051602D01*
X25440940Y21001094D01*
X25373596Y20933750D01*
X25323088Y20916915D01*
X25289417Y20916915D01*
X25238909Y20933750D01*
X24952699Y21219960D01*
X24952699Y20512854D02*
X25154730Y20714884D01*
X25053714Y20613869D02*
X24700161Y20967422D01*
X24784340Y20950586D01*
X24851684Y20950586D01*
X24902192Y20967422D01*
X24498131Y20698048D02*
X24464459Y20698048D01*
X24413951Y20681212D01*
X24329772Y20597033D01*
X24312936Y20546525D01*
X24312936Y20512854D01*
X24329772Y20462346D01*
X24363444Y20428674D01*
X24430787Y20395002D01*
X24834848Y20395002D01*
X24615982Y20176136D01*
G04 #@! TO.C,C122*
X-7477625Y9892087D02*
X-7477625Y9858416D01*
X-7443954Y9791072D01*
X-7410282Y9757400D01*
X-7342938Y9723729D01*
X-7275595Y9723729D01*
X-7225087Y9740564D01*
X-7140908Y9791072D01*
X-7090400Y9841580D01*
X-7039893Y9925759D01*
X-7023057Y9976267D01*
X-7023057Y10043610D01*
X-7056729Y10110954D01*
X-7090400Y10144625D01*
X-7157744Y10178297D01*
X-7191416Y10178297D01*
X-7848015Y10195133D02*
X-7645984Y9993103D01*
X-7747000Y10094118D02*
X-7393446Y10447671D01*
X-7410282Y10363492D01*
X-7410282Y10296148D01*
X-7393446Y10245641D01*
X-7662820Y10649702D02*
X-7662820Y10683374D01*
X-7679656Y10733881D01*
X-7763835Y10818061D01*
X-7814343Y10834896D01*
X-7848015Y10834896D01*
X-7898522Y10818061D01*
X-7932194Y10784389D01*
X-7965866Y10717045D01*
X-7965866Y10312984D01*
X-8184732Y10531851D01*
X-7999538Y10986419D02*
X-7999538Y11020091D01*
X-8016374Y11070599D01*
X-8100553Y11154778D01*
X-8151061Y11171614D01*
X-8184732Y11171614D01*
X-8235240Y11154778D01*
X-8268912Y11121106D01*
X-8302583Y11053763D01*
X-8302583Y10649702D01*
X-8521450Y10868568D01*
G04 #@! TO.C,C127*
X-11009687Y-6690225D02*
X-10976016Y-6690225D01*
X-10908672Y-6656554D01*
X-10875000Y-6622882D01*
X-10841329Y-6555538D01*
X-10841329Y-6488195D01*
X-10858164Y-6437687D01*
X-10908672Y-6353508D01*
X-10959180Y-6303000D01*
X-11043359Y-6252493D01*
X-11093867Y-6235657D01*
X-11161210Y-6235657D01*
X-11228554Y-6269329D01*
X-11262225Y-6303000D01*
X-11295897Y-6370344D01*
X-11295897Y-6404016D01*
X-11312733Y-7060615D02*
X-11110703Y-6858584D01*
X-11211718Y-6959600D02*
X-11565271Y-6606046D01*
X-11481092Y-6622882D01*
X-11413748Y-6622882D01*
X-11363241Y-6606046D01*
X-11767302Y-6875420D02*
X-11800974Y-6875420D01*
X-11851481Y-6892256D01*
X-11935661Y-6976435D01*
X-11952496Y-7026943D01*
X-11952496Y-7060615D01*
X-11935661Y-7111122D01*
X-11901989Y-7144794D01*
X-11834645Y-7178466D01*
X-11430584Y-7178466D01*
X-11649451Y-7397332D01*
X-12120855Y-7161630D02*
X-12356557Y-7397332D01*
X-11851481Y-7599363D01*
G04 #@! TO.C,C129*
X11927974Y5624887D02*
X11927974Y5591216D01*
X11961645Y5523872D01*
X11995317Y5490200D01*
X12062661Y5456529D01*
X12130004Y5456529D01*
X12180512Y5473364D01*
X12264691Y5523872D01*
X12315199Y5574380D01*
X12365706Y5658559D01*
X12382542Y5709067D01*
X12382542Y5776410D01*
X12348870Y5843754D01*
X12315199Y5877425D01*
X12247855Y5911097D01*
X12214183Y5911097D01*
X11557584Y5927933D02*
X11759615Y5725903D01*
X11658600Y5826918D02*
X12012153Y6180471D01*
X11995317Y6096292D01*
X11995317Y6028948D01*
X12012153Y5978441D01*
X11742779Y6382502D02*
X11742779Y6416174D01*
X11725943Y6466681D01*
X11641764Y6550861D01*
X11591256Y6567696D01*
X11557584Y6567696D01*
X11507077Y6550861D01*
X11473405Y6517189D01*
X11439733Y6449845D01*
X11439733Y6045784D01*
X11220867Y6264651D01*
X11052508Y6433009D02*
X10985164Y6500353D01*
X10968329Y6550861D01*
X10968329Y6584532D01*
X10985164Y6668712D01*
X11035672Y6752891D01*
X11170359Y6887578D01*
X11220867Y6904414D01*
X11254538Y6904414D01*
X11305046Y6887578D01*
X11372390Y6820235D01*
X11389225Y6769727D01*
X11389225Y6736055D01*
X11372390Y6685548D01*
X11288210Y6601368D01*
X11237703Y6584532D01*
X11204031Y6584532D01*
X11153523Y6601368D01*
X11086180Y6668712D01*
X11069344Y6719219D01*
X11069344Y6752891D01*
X11086180Y6803399D01*
G04 #@! TO.C,C130*
X16523912Y-8595225D02*
X16557583Y-8595225D01*
X16624927Y-8561554D01*
X16658599Y-8527882D01*
X16692270Y-8460538D01*
X16692270Y-8393195D01*
X16675435Y-8342687D01*
X16624927Y-8258508D01*
X16574419Y-8208000D01*
X16490240Y-8157493D01*
X16439732Y-8140657D01*
X16372389Y-8140657D01*
X16305045Y-8174329D01*
X16271374Y-8208000D01*
X16237702Y-8275344D01*
X16237702Y-8309016D01*
X16220866Y-8965615D02*
X16422896Y-8763584D01*
X16321881Y-8864600D02*
X15968328Y-8511046D01*
X16052507Y-8527882D01*
X16119851Y-8527882D01*
X16170358Y-8511046D01*
X15749461Y-8729912D02*
X15530595Y-8948779D01*
X15783133Y-8965615D01*
X15732625Y-9016122D01*
X15715790Y-9066630D01*
X15715790Y-9100302D01*
X15732625Y-9150809D01*
X15816805Y-9234989D01*
X15867312Y-9251825D01*
X15900984Y-9251825D01*
X15951492Y-9234989D01*
X16052507Y-9133974D01*
X16069343Y-9083466D01*
X16069343Y-9049794D01*
X15311729Y-9167645D02*
X15278057Y-9201317D01*
X15261221Y-9251825D01*
X15261221Y-9285496D01*
X15278057Y-9336004D01*
X15328564Y-9420183D01*
X15412744Y-9504363D01*
X15496923Y-9554870D01*
X15547431Y-9571706D01*
X15581103Y-9571706D01*
X15631610Y-9554870D01*
X15665282Y-9521199D01*
X15682118Y-9470691D01*
X15682118Y-9437019D01*
X15665282Y-9386512D01*
X15614774Y-9302332D01*
X15530595Y-9218153D01*
X15446416Y-9167645D01*
X15395908Y-9150809D01*
X15362236Y-9150809D01*
X15311729Y-9167645D01*
G04 #@! TO.C,R101*
X-10772816Y-11803897D02*
X-10823323Y-11517687D01*
X-10570785Y-11601867D02*
X-10924338Y-11248313D01*
X-11059025Y-11383000D01*
X-11075861Y-11433508D01*
X-11075861Y-11467180D01*
X-11059025Y-11517687D01*
X-11008518Y-11568195D01*
X-10958010Y-11585031D01*
X-10924338Y-11585031D01*
X-10873831Y-11568195D01*
X-10739144Y-11433508D01*
X-11109533Y-12140615D02*
X-10907503Y-11938584D01*
X-11008518Y-12039600D02*
X-11362071Y-11686046D01*
X-11277892Y-11702882D01*
X-11210548Y-11702882D01*
X-11160041Y-11686046D01*
X-11681953Y-12005928D02*
X-11715625Y-12039600D01*
X-11732461Y-12090107D01*
X-11732461Y-12123779D01*
X-11715625Y-12174287D01*
X-11665117Y-12258466D01*
X-11580938Y-12342645D01*
X-11496758Y-12393153D01*
X-11446251Y-12409989D01*
X-11412579Y-12409989D01*
X-11362071Y-12393153D01*
X-11328400Y-12359481D01*
X-11311564Y-12308974D01*
X-11311564Y-12275302D01*
X-11328400Y-12224794D01*
X-11378907Y-12140615D01*
X-11463087Y-12056435D01*
X-11547266Y-12005928D01*
X-11597774Y-11989092D01*
X-11631445Y-11989092D01*
X-11681953Y-12005928D01*
X-11782968Y-12814050D02*
X-11580938Y-12612019D01*
X-11681953Y-12713035D02*
X-12035506Y-12359481D01*
X-11951327Y-12376317D01*
X-11883983Y-12376317D01*
X-11833476Y-12359481D01*
G04 #@! TO.C,R102*
X-12601616Y-10051297D02*
X-12652123Y-9765087D01*
X-12399585Y-9849267D02*
X-12753138Y-9495713D01*
X-12887825Y-9630400D01*
X-12904661Y-9680908D01*
X-12904661Y-9714580D01*
X-12887825Y-9765087D01*
X-12837318Y-9815595D01*
X-12786810Y-9832431D01*
X-12753138Y-9832431D01*
X-12702631Y-9815595D01*
X-12567944Y-9680908D01*
X-12938333Y-10388015D02*
X-12736303Y-10185984D01*
X-12837318Y-10287000D02*
X-13190871Y-9933446D01*
X-13106692Y-9950282D01*
X-13039348Y-9950282D01*
X-12988841Y-9933446D01*
X-13510753Y-10253328D02*
X-13544425Y-10287000D01*
X-13561261Y-10337507D01*
X-13561261Y-10371179D01*
X-13544425Y-10421687D01*
X-13493917Y-10505866D01*
X-13409738Y-10590045D01*
X-13325558Y-10640553D01*
X-13275051Y-10657389D01*
X-13241379Y-10657389D01*
X-13190871Y-10640553D01*
X-13157200Y-10606881D01*
X-13140364Y-10556374D01*
X-13140364Y-10522702D01*
X-13157200Y-10472194D01*
X-13207707Y-10388015D01*
X-13291887Y-10303835D01*
X-13376066Y-10253328D01*
X-13426574Y-10236492D01*
X-13460245Y-10236492D01*
X-13510753Y-10253328D01*
X-13729619Y-10539538D02*
X-13763291Y-10539538D01*
X-13813799Y-10556374D01*
X-13897978Y-10640553D01*
X-13914814Y-10691061D01*
X-13914814Y-10724732D01*
X-13897978Y-10775240D01*
X-13864306Y-10808912D01*
X-13796963Y-10842583D01*
X-13392902Y-10842583D01*
X-13611768Y-11061450D01*
G04 #@! TO.C,R109*
X-10569616Y8668502D02*
X-10620123Y8954712D01*
X-10367585Y8870532D02*
X-10721138Y9224086D01*
X-10855825Y9089399D01*
X-10872661Y9038891D01*
X-10872661Y9005219D01*
X-10855825Y8954712D01*
X-10805318Y8904204D01*
X-10754810Y8887368D01*
X-10721138Y8887368D01*
X-10670631Y8904204D01*
X-10535944Y9038891D01*
X-10906333Y8331784D02*
X-10704303Y8533815D01*
X-10805318Y8432800D02*
X-11158871Y8786353D01*
X-11074692Y8769517D01*
X-11007348Y8769517D01*
X-10956841Y8786353D01*
X-11478753Y8466471D02*
X-11512425Y8432800D01*
X-11529261Y8382292D01*
X-11529261Y8348620D01*
X-11512425Y8298112D01*
X-11461917Y8213933D01*
X-11377738Y8129754D01*
X-11293558Y8079246D01*
X-11243051Y8062410D01*
X-11209379Y8062410D01*
X-11158871Y8079246D01*
X-11125200Y8112918D01*
X-11108364Y8163425D01*
X-11108364Y8197097D01*
X-11125200Y8247605D01*
X-11175707Y8331784D01*
X-11259887Y8415964D01*
X-11344066Y8466471D01*
X-11394574Y8483307D01*
X-11428245Y8483307D01*
X-11478753Y8466471D01*
X-11411409Y7826708D02*
X-11478753Y7759364D01*
X-11529261Y7742529D01*
X-11562932Y7742529D01*
X-11647112Y7759364D01*
X-11731291Y7809872D01*
X-11865978Y7944559D01*
X-11882814Y7995067D01*
X-11882814Y8028738D01*
X-11865978Y8079246D01*
X-11798635Y8146590D01*
X-11748127Y8163425D01*
X-11714455Y8163425D01*
X-11663948Y8146590D01*
X-11579768Y8062410D01*
X-11562932Y8011903D01*
X-11562932Y7978231D01*
X-11579768Y7927723D01*
X-11647112Y7860380D01*
X-11697619Y7843544D01*
X-11731291Y7843544D01*
X-11781799Y7860380D01*
G04 #@! TO.C,R114*
X6676190Y-22300476D02*
X6438095Y-22133809D01*
X6676190Y-22014761D02*
X6176190Y-22014761D01*
X6176190Y-22205238D01*
X6200000Y-22252857D01*
X6223809Y-22276666D01*
X6271428Y-22300476D01*
X6342857Y-22300476D01*
X6390476Y-22276666D01*
X6414285Y-22252857D01*
X6438095Y-22205238D01*
X6438095Y-22014761D01*
X6676190Y-22776666D02*
X6676190Y-22490952D01*
X6676190Y-22633809D02*
X6176190Y-22633809D01*
X6247619Y-22586190D01*
X6295238Y-22538571D01*
X6319047Y-22490952D01*
X6676190Y-23252857D02*
X6676190Y-22967142D01*
X6676190Y-23110000D02*
X6176190Y-23110000D01*
X6247619Y-23062380D01*
X6295238Y-23014761D01*
X6319047Y-22967142D01*
X6342857Y-23681428D02*
X6676190Y-23681428D01*
X6152380Y-23562380D02*
X6509523Y-23443333D01*
X6509523Y-23752857D01*
G04 #@! TO.C,R115*
X23419523Y-6576190D02*
X23586190Y-6338095D01*
X23705238Y-6576190D02*
X23705238Y-6076190D01*
X23514761Y-6076190D01*
X23467142Y-6100000D01*
X23443333Y-6123809D01*
X23419523Y-6171428D01*
X23419523Y-6242857D01*
X23443333Y-6290476D01*
X23467142Y-6314285D01*
X23514761Y-6338095D01*
X23705238Y-6338095D01*
X22943333Y-6576190D02*
X23229047Y-6576190D01*
X23086190Y-6576190D02*
X23086190Y-6076190D01*
X23133809Y-6147619D01*
X23181428Y-6195238D01*
X23229047Y-6219047D01*
X22467142Y-6576190D02*
X22752857Y-6576190D01*
X22610000Y-6576190D02*
X22610000Y-6076190D01*
X22657619Y-6147619D01*
X22705238Y-6195238D01*
X22752857Y-6219047D01*
X22014761Y-6076190D02*
X22252857Y-6076190D01*
X22276666Y-6314285D01*
X22252857Y-6290476D01*
X22205238Y-6266666D01*
X22086190Y-6266666D01*
X22038571Y-6290476D01*
X22014761Y-6314285D01*
X21990952Y-6361904D01*
X21990952Y-6480952D01*
X22014761Y-6528571D01*
X22038571Y-6552380D01*
X22086190Y-6576190D01*
X22205238Y-6576190D01*
X22252857Y-6552380D01*
X22276666Y-6528571D01*
G04 #@! TO.C,R116*
X23419523Y6223809D02*
X23586190Y6461904D01*
X23705238Y6223809D02*
X23705238Y6723809D01*
X23514761Y6723809D01*
X23467142Y6700000D01*
X23443333Y6676190D01*
X23419523Y6628571D01*
X23419523Y6557142D01*
X23443333Y6509523D01*
X23467142Y6485714D01*
X23514761Y6461904D01*
X23705238Y6461904D01*
X22943333Y6223809D02*
X23229047Y6223809D01*
X23086190Y6223809D02*
X23086190Y6723809D01*
X23133809Y6652380D01*
X23181428Y6604761D01*
X23229047Y6580952D01*
X22467142Y6223809D02*
X22752857Y6223809D01*
X22610000Y6223809D02*
X22610000Y6723809D01*
X22657619Y6652380D01*
X22705238Y6604761D01*
X22752857Y6580952D01*
X22038571Y6723809D02*
X22133809Y6723809D01*
X22181428Y6700000D01*
X22205238Y6676190D01*
X22252857Y6604761D01*
X22276666Y6509523D01*
X22276666Y6319047D01*
X22252857Y6271428D01*
X22229047Y6247619D01*
X22181428Y6223809D01*
X22086190Y6223809D01*
X22038571Y6247619D01*
X22014761Y6271428D01*
X21990952Y6319047D01*
X21990952Y6438095D01*
X22014761Y6485714D01*
X22038571Y6509523D01*
X22086190Y6533333D01*
X22181428Y6533333D01*
X22229047Y6509523D01*
X22252857Y6485714D01*
X22276666Y6438095D01*
G04 #@! TO.C,R117*
X-22300476Y6123809D02*
X-22133809Y6361904D01*
X-22014761Y6123809D02*
X-22014761Y6623809D01*
X-22205238Y6623809D01*
X-22252857Y6600000D01*
X-22276666Y6576190D01*
X-22300476Y6528571D01*
X-22300476Y6457142D01*
X-22276666Y6409523D01*
X-22252857Y6385714D01*
X-22205238Y6361904D01*
X-22014761Y6361904D01*
X-22776666Y6123809D02*
X-22490952Y6123809D01*
X-22633809Y6123809D02*
X-22633809Y6623809D01*
X-22586190Y6552380D01*
X-22538571Y6504761D01*
X-22490952Y6480952D01*
X-23252857Y6123809D02*
X-22967142Y6123809D01*
X-23110000Y6123809D02*
X-23110000Y6623809D01*
X-23062380Y6552380D01*
X-23014761Y6504761D01*
X-22967142Y6480952D01*
X-23419523Y6623809D02*
X-23752857Y6623809D01*
X-23538571Y6123809D01*
G04 #@! TD*
M02*
