G04 #@! TF.GenerationSoftware,KiCad,Pcbnew,5.0.2-bee76a0~70~ubuntu16.04.1*
G04 #@! TF.CreationDate,2019-08-03T19:39:48+03:00*
G04 #@! TF.ProjectId,FreeEEG32-alpha1.5,46726565-4545-4473-9332-2d616c706861,rev?*
G04 #@! TF.SameCoordinates,Original*
G04 #@! TF.FileFunction,Legend,Top*
G04 #@! TF.FilePolarity,Positive*
%FSLAX46Y46*%
G04 Gerber Fmt 4.6, Leading zero omitted, Abs format (unit mm)*
G04 Created by KiCad (PCBNEW 5.0.2-bee76a0~70~ubuntu16.04.1) date Сб 03 авг 2019 19:39:48*
%MOMM*%
%LPD*%
G01*
G04 APERTURE LIST*
%ADD10C,0.200000*%
%ADD11C,0.120000*%
%ADD12C,0.150000*%
%ADD13C,0.100000*%
%ADD14C,0.075000*%
G04 APERTURE END LIST*
D10*
X137672031Y-121050914D02*
X138237716Y-120485229D01*
X137752843Y-120970102D02*
X137672031Y-120970102D01*
X137550813Y-120929696D01*
X137429594Y-120808477D01*
X137389188Y-120687259D01*
X137429594Y-120566041D01*
X137874062Y-120121574D01*
X137106346Y-119434670D02*
X137227564Y-119475076D01*
X137389188Y-119636700D01*
X137429594Y-119757919D01*
X137389188Y-119879137D01*
X137065940Y-120202386D01*
X136944721Y-120242792D01*
X136823503Y-120202386D01*
X136661878Y-120040761D01*
X136621472Y-119919543D01*
X136661878Y-119798325D01*
X136742691Y-119717513D01*
X137227564Y-120040761D01*
X135813350Y-119192233D02*
X136379036Y-118626548D01*
X136177005Y-119555888D02*
X136621472Y-119111421D01*
X136661878Y-118990203D01*
X136621472Y-118868984D01*
X136500254Y-118747766D01*
X136379036Y-118707360D01*
X136298224Y-118707360D01*
X135974975Y-118222487D02*
X135409289Y-118788172D01*
X135570914Y-118626548D02*
X135449695Y-118666954D01*
X135368883Y-118666954D01*
X135247665Y-118626548D01*
X135166853Y-118545736D01*
X135328477Y-117575989D02*
X135368883Y-117697208D01*
X135368883Y-117778020D01*
X135328477Y-117899238D01*
X135086041Y-118141675D01*
X134964822Y-118182081D01*
X134884010Y-118182081D01*
X134762792Y-118141675D01*
X134641573Y-118020456D01*
X134601167Y-117899238D01*
X134601167Y-117818426D01*
X134641573Y-117697208D01*
X134884010Y-117454771D01*
X135005228Y-117414365D01*
X135086041Y-117414365D01*
X135207259Y-117454771D01*
X135328477Y-117575989D01*
X134681980Y-116929492D02*
X134116294Y-117495177D01*
X133833451Y-117778020D02*
X133914264Y-117778020D01*
X133914264Y-117697208D01*
X133833451Y-117697208D01*
X133833451Y-117778020D01*
X133914264Y-117697208D01*
X133914264Y-116161776D02*
X133065735Y-117010304D01*
X133873857Y-116202182D02*
X133995076Y-116242588D01*
X134156700Y-116404212D01*
X134197106Y-116525431D01*
X134197106Y-116606243D01*
X134156700Y-116727461D01*
X133914264Y-116969898D01*
X133793045Y-117010304D01*
X133712233Y-117010304D01*
X133591015Y-116969898D01*
X133429390Y-116808273D01*
X133388984Y-116687055D01*
X133510203Y-115838527D02*
X133469796Y-115717309D01*
X133308172Y-115555684D01*
X133186954Y-115515278D01*
X133065735Y-115555684D01*
X133025329Y-115596090D01*
X132984923Y-115717309D01*
X133025329Y-115838527D01*
X133146548Y-115959745D01*
X133186954Y-116080963D01*
X133146548Y-116202182D01*
X133106142Y-116242588D01*
X132984923Y-116282994D01*
X132863705Y-116242588D01*
X132742487Y-116121370D01*
X132702081Y-116000151D01*
X132823299Y-115151623D02*
X132782893Y-115030405D01*
X132621268Y-114868780D01*
X132500050Y-114828374D01*
X132378832Y-114868780D01*
X132338426Y-114909186D01*
X132298019Y-115030405D01*
X132338426Y-115151623D01*
X132459644Y-115272841D01*
X132500050Y-115394060D01*
X132459644Y-115515278D01*
X132419238Y-115555684D01*
X132298019Y-115596090D01*
X132176801Y-115555684D01*
X132055583Y-115434466D01*
X132015177Y-115313247D01*
X132055583Y-114464719D02*
X132055583Y-114383907D01*
X132136395Y-114383907D01*
X132136395Y-114464719D01*
X132055583Y-114464719D01*
X132136395Y-114383907D01*
X131328273Y-113656597D02*
X131449491Y-113697003D01*
X131611116Y-113858628D01*
X131651522Y-113979846D01*
X131651522Y-114060658D01*
X131611116Y-114181877D01*
X131368679Y-114424313D01*
X131247461Y-114464719D01*
X131166649Y-114464719D01*
X131045430Y-114424313D01*
X130883806Y-114262689D01*
X130843400Y-114141471D01*
X130883806Y-113131318D02*
X130924212Y-113252536D01*
X130924212Y-113333349D01*
X130883806Y-113454567D01*
X130641369Y-113697003D01*
X130520151Y-113737410D01*
X130439339Y-113737410D01*
X130318121Y-113697003D01*
X130196902Y-113575785D01*
X130156496Y-113454567D01*
X130156496Y-113373755D01*
X130196902Y-113252536D01*
X130439339Y-113010100D01*
X130560557Y-112969694D01*
X130641369Y-112969694D01*
X130762588Y-113010100D01*
X130883806Y-113131318D01*
X130237308Y-112484820D02*
X129671623Y-113050506D01*
X129752435Y-112969694D02*
X129671623Y-112969694D01*
X129550405Y-112929287D01*
X129429186Y-112808069D01*
X129388780Y-112686851D01*
X129429186Y-112565633D01*
X129873653Y-112121165D01*
X129429186Y-112565633D02*
X129307968Y-112606039D01*
X129186750Y-112565633D01*
X129065531Y-112444414D01*
X129025125Y-112323196D01*
X129065531Y-112201978D01*
X129509998Y-111757511D01*
X169370943Y-87784790D02*
X169653786Y-88067633D01*
X170098253Y-87623166D02*
X169249725Y-88471694D01*
X168845664Y-88067633D01*
X169370943Y-86895856D02*
X168805257Y-87461541D01*
X168966882Y-87299917D02*
X168845664Y-87340323D01*
X168764851Y-87340323D01*
X168643633Y-87299917D01*
X168562821Y-87219105D01*
X168482009Y-86087734D02*
X168603227Y-86128140D01*
X168764851Y-86289764D01*
X168805257Y-86410983D01*
X168764851Y-86532201D01*
X168441603Y-86855450D01*
X168320384Y-86895856D01*
X168199166Y-86855450D01*
X168037542Y-86693825D01*
X167997135Y-86572607D01*
X168037542Y-86451389D01*
X168118354Y-86370577D01*
X168603227Y-86693825D01*
X167754699Y-85360424D02*
X167875917Y-85400830D01*
X168037542Y-85562455D01*
X168077948Y-85683673D01*
X168037542Y-85804891D01*
X167714293Y-86128140D01*
X167593074Y-86168546D01*
X167471856Y-86128140D01*
X167310232Y-85966516D01*
X167269826Y-85845297D01*
X167310232Y-85724079D01*
X167391044Y-85643267D01*
X167875917Y-85966516D01*
X166946577Y-85360424D02*
X166663734Y-85077581D01*
X166986983Y-84511896D02*
X167391044Y-84915957D01*
X166542516Y-85764485D01*
X166138455Y-85360424D01*
X166178861Y-84592708D02*
X165896018Y-84309865D01*
X166219267Y-83744180D02*
X166623328Y-84148241D01*
X165774800Y-84996769D01*
X165370739Y-84592708D01*
X164603023Y-83744180D02*
X164643429Y-83865398D01*
X164764647Y-83986617D01*
X164926272Y-84067429D01*
X165087896Y-84067429D01*
X165209114Y-84027023D01*
X165411145Y-83905804D01*
X165532363Y-83784586D01*
X165653582Y-83582556D01*
X165693988Y-83461337D01*
X165693988Y-83299713D01*
X165613175Y-83138088D01*
X165532363Y-83057276D01*
X165370739Y-82976464D01*
X165289927Y-82976464D01*
X165007084Y-83259307D01*
X165168708Y-83420931D01*
X164239368Y-83461337D02*
X163714089Y-82936058D01*
X164320180Y-82895652D01*
X164198962Y-82774434D01*
X164158556Y-82653215D01*
X164158556Y-82572403D01*
X164198962Y-82451185D01*
X164400992Y-82249154D01*
X164522211Y-82208748D01*
X164603023Y-82208748D01*
X164724241Y-82249154D01*
X164966678Y-82491591D01*
X165007084Y-82612809D01*
X165007084Y-82693621D01*
X163471652Y-82531997D02*
X163390840Y-82531997D01*
X163269622Y-82491591D01*
X163067591Y-82289560D01*
X163027185Y-82168342D01*
X163027185Y-82087530D01*
X163067591Y-81966312D01*
X163148403Y-81885499D01*
X163310028Y-81804687D01*
X164279774Y-81804687D01*
X163754495Y-81279408D01*
X163067591Y-81239002D02*
X162421093Y-80592504D01*
X163067591Y-80592504D02*
X162421093Y-81239002D01*
X170037644Y-84734129D02*
X169593177Y-85178596D01*
X169552771Y-85299815D01*
X169593177Y-85421033D01*
X169754801Y-85582657D01*
X169876020Y-85623063D01*
X169997238Y-84774535D02*
X170118456Y-84814941D01*
X170320487Y-85016972D01*
X170360893Y-85138190D01*
X170320487Y-85259408D01*
X170239675Y-85340221D01*
X170118456Y-85380627D01*
X169997238Y-85340221D01*
X169795207Y-85138190D01*
X169673989Y-85097784D01*
X169512365Y-84208850D02*
X169552771Y-84330068D01*
X169512365Y-84451286D01*
X168785055Y-85178596D01*
X168623430Y-84451286D02*
X169471959Y-83602758D01*
X168663837Y-84410880D02*
X168542618Y-84370474D01*
X168380994Y-84208850D01*
X168340588Y-84087631D01*
X168340588Y-84006819D01*
X168380994Y-83885601D01*
X168623430Y-83643164D01*
X168744649Y-83602758D01*
X168825461Y-83602758D01*
X168946679Y-83643164D01*
X169108304Y-83804789D01*
X169148710Y-83926007D01*
X168421400Y-83117885D02*
X167572872Y-83966413D01*
X168057745Y-82754230D02*
X167613278Y-83198697D01*
X167572872Y-83319916D01*
X167613278Y-83441134D01*
X167734496Y-83562352D01*
X167855715Y-83602758D01*
X167936527Y-83602758D01*
X167290029Y-81986514D02*
X166845562Y-82430981D01*
X166805156Y-82552200D01*
X166845562Y-82673418D01*
X167007186Y-82835042D01*
X167128405Y-82875448D01*
X167249623Y-82026920D02*
X167370841Y-82067326D01*
X167572872Y-82269357D01*
X167613278Y-82390575D01*
X167572872Y-82511793D01*
X167492060Y-82592606D01*
X167370841Y-82633012D01*
X167249623Y-82592606D01*
X167047592Y-82390575D01*
X166926374Y-82350169D01*
X166441501Y-81137986D02*
X166926374Y-81622859D01*
X166683938Y-81380423D02*
X165835409Y-82228951D01*
X166037440Y-82188545D01*
X166199064Y-82188545D01*
X166320283Y-82228951D01*
X165997034Y-80855143D02*
X165997034Y-80774331D01*
X166077846Y-80774331D01*
X166077846Y-80855143D01*
X165997034Y-80855143D01*
X166077846Y-80774331D01*
X164421196Y-80814737D02*
X164825257Y-81218798D01*
X165269724Y-80855143D01*
X165188912Y-80855143D01*
X165067693Y-80814737D01*
X164865663Y-80612707D01*
X164825257Y-80491488D01*
X164825257Y-80410676D01*
X164865663Y-80289458D01*
X165067693Y-80087427D01*
X165188912Y-80047021D01*
X165269724Y-80047021D01*
X165390942Y-80087427D01*
X165592973Y-80289458D01*
X165633379Y-80410676D01*
X165633379Y-80491488D01*
D11*
G04 #@! TO.C,J57*
X128080452Y-77995599D02*
X128865341Y-78780488D01*
X128865341Y-78780488D02*
X127924889Y-79720940D01*
X119149693Y-69064840D02*
X113676687Y-74537847D01*
X113676687Y-74537847D02*
X119779018Y-80640178D01*
X125252025Y-75167172D02*
X119779018Y-80640178D01*
X119149693Y-69064840D02*
X125252025Y-75167172D01*
X115515165Y-72699369D02*
X121617496Y-78801701D01*
X117311216Y-70903318D02*
X123413547Y-77005649D01*
X122239750Y-81729123D02*
X122550877Y-82040250D01*
X120464912Y-79954285D02*
X120754826Y-80244199D01*
X122748867Y-81220006D02*
X123059994Y-81531133D01*
X120974029Y-79445168D02*
X121263943Y-79735082D01*
X124035801Y-79933072D02*
X124346928Y-80244199D01*
X122260963Y-78158234D02*
X122550877Y-78448147D01*
X124544918Y-79423955D02*
X124856045Y-79735082D01*
X122770080Y-77649117D02*
X123059994Y-77939030D01*
X125831852Y-78137020D02*
X126100553Y-78405721D01*
X124057014Y-76362182D02*
X124346928Y-76652096D01*
X126340969Y-77627903D02*
X126609670Y-77896604D01*
X124566131Y-75853065D02*
X124856045Y-76142979D01*
X117394725Y-70819809D02*
X123497057Y-76922140D01*
X117478231Y-70736303D02*
X123580562Y-76838634D01*
X117561737Y-70652797D02*
X123664068Y-76755129D01*
X117645242Y-70569291D02*
X123747574Y-76671623D01*
X117728748Y-70485786D02*
X123831080Y-76588117D01*
X117812254Y-70402280D02*
X123914585Y-76504611D01*
X117895760Y-70318774D02*
X123998091Y-76421106D01*
X117979265Y-70235268D02*
X124081597Y-76337600D01*
X118062771Y-70151762D02*
X124165103Y-76254094D01*
X118146277Y-70068257D02*
X124248609Y-76170588D01*
X118229783Y-69984751D02*
X124332114Y-76087082D01*
X118313289Y-69901245D02*
X124415620Y-76003577D01*
X118396794Y-69817739D02*
X124499126Y-75920071D01*
X118480300Y-69734234D02*
X124582632Y-75836565D01*
X118563806Y-69650728D02*
X124666137Y-75753059D01*
X118647312Y-69567222D02*
X124749643Y-75669554D01*
X118730817Y-69483716D02*
X124833149Y-75586048D01*
X118814323Y-69400210D02*
X124916655Y-75502542D01*
X118897829Y-69316705D02*
X125000161Y-75419036D01*
X118981335Y-69233199D02*
X125083666Y-75335530D01*
X119064841Y-69149693D02*
X125167172Y-75252025D01*
G04 #@! TO.C,U8*
X150862911Y-105236647D02*
X150862911Y-103736647D01*
X150862911Y-103736647D02*
X149062911Y-103736647D01*
X149062911Y-96336647D02*
X150862911Y-96336647D01*
X147262911Y-101336647D02*
X147262911Y-98736647D01*
X152662911Y-98736647D02*
X152662911Y-101336647D01*
X152662911Y-101336647D02*
X153262911Y-101336647D01*
G04 #@! TO.C,J82*
X177108497Y-116924401D02*
X176323608Y-116139512D01*
X176323608Y-116139512D02*
X177264060Y-115199060D01*
X186039256Y-125855160D02*
X189716211Y-122178204D01*
X189716211Y-122178204D02*
X183613879Y-116075873D01*
X179936924Y-119752828D02*
X183613879Y-116075873D01*
X186039256Y-125855160D02*
X179936924Y-119752828D01*
X187877733Y-124016682D02*
X181775402Y-117914351D01*
X181153148Y-114986928D02*
X180842021Y-114675801D01*
X182927986Y-116761766D02*
X182638072Y-116471853D01*
X180644031Y-115496045D02*
X180332904Y-115184918D01*
X182418869Y-117270883D02*
X182128955Y-116980970D01*
X179357097Y-116782980D02*
X179088396Y-116514279D01*
X181131935Y-118557818D02*
X180842021Y-118267904D01*
X178847980Y-117292097D02*
X178579279Y-117023396D01*
X180622818Y-119066935D02*
X180332904Y-118777021D01*
X187794224Y-124100191D02*
X181691892Y-117997860D01*
X187710718Y-124183697D02*
X181608387Y-118081366D01*
X187627212Y-124267203D02*
X181524881Y-118164871D01*
X187543707Y-124350709D02*
X181441375Y-118248377D01*
X187460201Y-124434214D02*
X181357869Y-118331883D01*
X187376695Y-124517720D02*
X181274364Y-118415389D01*
X187293189Y-124601226D02*
X181190858Y-118498894D01*
X187209684Y-124684732D02*
X181107352Y-118582400D01*
X187126178Y-124768238D02*
X181023846Y-118665906D01*
X187042672Y-124851743D02*
X180940340Y-118749412D01*
X186959166Y-124935249D02*
X180856835Y-118832918D01*
X186875660Y-125018755D02*
X180773329Y-118916423D01*
X186792155Y-125102261D02*
X180689823Y-118999929D01*
X186708649Y-125185766D02*
X180606317Y-119083435D01*
X186625143Y-125269272D02*
X180522812Y-119166941D01*
X186541637Y-125352778D02*
X180439306Y-119250446D01*
X186458132Y-125436284D02*
X180355800Y-119333952D01*
X186374626Y-125519790D02*
X180272294Y-119417458D01*
X186291120Y-125603295D02*
X180188788Y-119500964D01*
X186207614Y-125686801D02*
X180105283Y-119584470D01*
X186124108Y-125770307D02*
X180021777Y-119667975D01*
G04 #@! TO.C,SW1*
X171343909Y-124725456D02*
X171131777Y-124513324D01*
X171131777Y-124513324D02*
X168798324Y-126846777D01*
X168798324Y-126846777D02*
X169010456Y-127058909D01*
X172899544Y-126281091D02*
X173111676Y-126493223D01*
X173111676Y-126493223D02*
X170778223Y-128826676D01*
X170778223Y-128826676D02*
X170566091Y-128614544D01*
G04 #@! TO.C,J63*
X131170599Y-125203497D02*
X131955488Y-124418608D01*
X131955488Y-124418608D02*
X132895940Y-125359060D01*
X122239840Y-134134256D02*
X124120744Y-136015160D01*
X124120744Y-136015160D02*
X130223076Y-129912828D01*
X128342172Y-128031924D02*
X130223076Y-129912828D01*
X122239840Y-134134256D02*
X128342172Y-128031924D01*
X131312020Y-127452097D02*
X131580721Y-127183396D01*
X129537182Y-129226935D02*
X129827096Y-128937021D01*
X130802903Y-126942980D02*
X131071604Y-126674279D01*
X129028065Y-128717818D02*
X129317979Y-128427904D01*
X124039112Y-135933528D02*
X130141444Y-129831196D01*
X123957473Y-135851889D02*
X130059805Y-129749557D01*
X123875834Y-135770250D02*
X129978166Y-129667918D01*
X123794195Y-135688611D02*
X129896527Y-129586279D01*
X123712556Y-135606972D02*
X129814888Y-129504640D01*
X123630917Y-135525333D02*
X129733249Y-129423001D01*
X123549278Y-135443694D02*
X129651610Y-129341362D01*
X123467639Y-135362055D02*
X129569971Y-129259723D01*
X123386000Y-135280416D02*
X129488332Y-129178084D01*
X123304361Y-135198777D02*
X129406693Y-129096445D01*
X123222722Y-135117138D02*
X129325054Y-129014806D01*
X123141083Y-135035499D02*
X129243415Y-128933167D01*
X123059444Y-134953860D02*
X129161776Y-128851528D01*
X122977805Y-134872221D02*
X129080137Y-128769889D01*
X122896166Y-134790582D02*
X128998498Y-128688250D01*
X122814527Y-134708943D02*
X128916859Y-128606611D01*
X122732888Y-134627304D02*
X128835220Y-128524972D01*
X122651249Y-134545664D02*
X128753581Y-128443333D01*
X122569610Y-134464025D02*
X128671942Y-128361694D01*
X122487971Y-134382386D02*
X128590303Y-128280055D01*
X122406332Y-134300747D02*
X128508664Y-128198416D01*
X122324693Y-134219108D02*
X128427025Y-128116777D01*
G04 #@! TO.C,J64*
X122915599Y-116948497D02*
X123700488Y-116163608D01*
X123700488Y-116163608D02*
X124640940Y-117104060D01*
X113984840Y-125879256D02*
X115865744Y-127760160D01*
X115865744Y-127760160D02*
X121968076Y-121657828D01*
X120087172Y-119776924D02*
X121968076Y-121657828D01*
X113984840Y-125879256D02*
X120087172Y-119776924D01*
X123057020Y-119197097D02*
X123325721Y-118928396D01*
X121282182Y-120971935D02*
X121572096Y-120682021D01*
X122547903Y-118687980D02*
X122816604Y-118419279D01*
X120773065Y-120462818D02*
X121062979Y-120172904D01*
X115784112Y-127678528D02*
X121886444Y-121576196D01*
X115702473Y-127596889D02*
X121804805Y-121494557D01*
X115620834Y-127515250D02*
X121723166Y-121412918D01*
X115539195Y-127433611D02*
X121641527Y-121331279D01*
X115457556Y-127351972D02*
X121559888Y-121249640D01*
X115375917Y-127270333D02*
X121478249Y-121168001D01*
X115294278Y-127188694D02*
X121396610Y-121086362D01*
X115212639Y-127107055D02*
X121314971Y-121004723D01*
X115131000Y-127025416D02*
X121233332Y-120923084D01*
X115049361Y-126943777D02*
X121151693Y-120841445D01*
X114967722Y-126862138D02*
X121070054Y-120759806D01*
X114886083Y-126780499D02*
X120988415Y-120678167D01*
X114804444Y-126698860D02*
X120906776Y-120596528D01*
X114722805Y-126617221D02*
X120825137Y-120514889D01*
X114641166Y-126535582D02*
X120743498Y-120433250D01*
X114559527Y-126453943D02*
X120661859Y-120351611D01*
X114477888Y-126372304D02*
X120580220Y-120269972D01*
X114396249Y-126290664D02*
X120498581Y-120188333D01*
X114314610Y-126209025D02*
X120416942Y-120106694D01*
X114232971Y-126127386D02*
X120335303Y-120025055D01*
X114151332Y-126045747D02*
X120253664Y-119943416D01*
X114069693Y-125964108D02*
X120172025Y-119861777D01*
G04 #@! TO.C,J62*
X185930307Y-74035892D02*
X179827975Y-80138223D01*
X185848668Y-73954253D02*
X179746336Y-80056584D01*
X185767029Y-73872614D02*
X179664697Y-79974945D01*
X185685390Y-73790975D02*
X179583058Y-79893306D01*
X185603751Y-73709336D02*
X179501419Y-79811667D01*
X185522112Y-73627696D02*
X179419780Y-79730028D01*
X185440473Y-73546057D02*
X179338141Y-79648389D01*
X185358834Y-73464418D02*
X179256502Y-79566750D01*
X185277195Y-73382779D02*
X179174863Y-79485111D01*
X185195556Y-73301140D02*
X179093224Y-79403472D01*
X185113917Y-73219501D02*
X179011585Y-79321833D01*
X185032278Y-73137862D02*
X178929946Y-79240194D01*
X184950639Y-73056223D02*
X178848307Y-79158555D01*
X184869000Y-72974584D02*
X178766668Y-79076916D01*
X184787361Y-72892945D02*
X178685029Y-78995277D01*
X184705722Y-72811306D02*
X178603390Y-78913638D01*
X184624083Y-72729667D02*
X178521751Y-78831999D01*
X184542444Y-72648028D02*
X178440112Y-78750360D01*
X184460805Y-72566389D02*
X178358473Y-78668721D01*
X184379166Y-72484750D02*
X178276834Y-78587082D01*
X184297527Y-72403111D02*
X178195195Y-78505443D01*
X184215888Y-72321472D02*
X178113556Y-78423804D01*
X179226935Y-79537182D02*
X178937021Y-79827096D01*
X177452097Y-81312020D02*
X177183396Y-81580721D01*
X178717818Y-79028065D02*
X178427904Y-79317979D01*
X176942980Y-80802903D02*
X176674279Y-81071604D01*
X186015160Y-74120744D02*
X179912828Y-80223076D01*
X179912828Y-80223076D02*
X178031924Y-78342172D01*
X184134256Y-72239840D02*
X178031924Y-78342172D01*
X186015160Y-74120744D02*
X184134256Y-72239840D01*
X176299512Y-83836392D02*
X175359060Y-82895940D01*
X177084401Y-83051503D02*
X176299512Y-83836392D01*
G04 #@! TO.C,J61*
X168829401Y-74796503D02*
X168044512Y-75581392D01*
X168044512Y-75581392D02*
X167104060Y-74640940D01*
X177760160Y-65865744D02*
X175879256Y-63984840D01*
X175879256Y-63984840D02*
X169776924Y-70087172D01*
X171657828Y-71968076D02*
X169776924Y-70087172D01*
X177760160Y-65865744D02*
X171657828Y-71968076D01*
X168687980Y-72547903D02*
X168419279Y-72816604D01*
X170462818Y-70773065D02*
X170172904Y-71062979D01*
X169197097Y-73057020D02*
X168928396Y-73325721D01*
X170971935Y-71282182D02*
X170682021Y-71572096D01*
X175960888Y-64066472D02*
X169858556Y-70168804D01*
X176042527Y-64148111D02*
X169940195Y-70250443D01*
X176124166Y-64229750D02*
X170021834Y-70332082D01*
X176205805Y-64311389D02*
X170103473Y-70413721D01*
X176287444Y-64393028D02*
X170185112Y-70495360D01*
X176369083Y-64474667D02*
X170266751Y-70576999D01*
X176450722Y-64556306D02*
X170348390Y-70658638D01*
X176532361Y-64637945D02*
X170430029Y-70740277D01*
X176614000Y-64719584D02*
X170511668Y-70821916D01*
X176695639Y-64801223D02*
X170593307Y-70903555D01*
X176777278Y-64882862D02*
X170674946Y-70985194D01*
X176858917Y-64964501D02*
X170756585Y-71066833D01*
X176940556Y-65046140D02*
X170838224Y-71148472D01*
X177022195Y-65127779D02*
X170919863Y-71230111D01*
X177103834Y-65209418D02*
X171001502Y-71311750D01*
X177185473Y-65291057D02*
X171083141Y-71393389D01*
X177267112Y-65372696D02*
X171164780Y-71475028D01*
X177348751Y-65454336D02*
X171246419Y-71556667D01*
X177430390Y-65535975D02*
X171328058Y-71638306D01*
X177512029Y-65617614D02*
X171409697Y-71719945D01*
X177593668Y-65699253D02*
X171491336Y-71801584D01*
X177675307Y-65780892D02*
X171572975Y-71883223D01*
G04 #@! TO.C,J58*
X133468606Y-72607446D02*
X134253495Y-73392335D01*
X134253495Y-73392335D02*
X133313043Y-74332787D01*
X124537847Y-63676687D02*
X119064841Y-69149694D01*
X119064841Y-69149694D02*
X125167172Y-75252025D01*
X130640179Y-69779019D02*
X125167172Y-75252025D01*
X124537847Y-63676687D02*
X130640179Y-69779019D01*
X120903319Y-67311216D02*
X127005650Y-73413548D01*
X122699370Y-65515165D02*
X128801701Y-71617496D01*
X127627904Y-76340970D02*
X127939031Y-76652097D01*
X125853066Y-74566132D02*
X126142980Y-74856046D01*
X128137021Y-75831853D02*
X128448148Y-76142980D01*
X126362183Y-74057015D02*
X126652097Y-74346929D01*
X129423955Y-74544919D02*
X129735082Y-74856046D01*
X127649117Y-72770081D02*
X127939031Y-73059994D01*
X129933072Y-74035802D02*
X130244199Y-74346929D01*
X128158234Y-72260964D02*
X128448148Y-72550877D01*
X131220006Y-72748867D02*
X131488707Y-73017568D01*
X129445168Y-70974029D02*
X129735082Y-71263943D01*
X131729123Y-72239750D02*
X131997824Y-72508451D01*
X129954285Y-70464912D02*
X130244199Y-70754826D01*
X122782879Y-65431656D02*
X128885211Y-71533987D01*
X122866385Y-65348150D02*
X128968716Y-71450481D01*
X122949891Y-65264644D02*
X129052222Y-71366976D01*
X123033396Y-65181138D02*
X129135728Y-71283470D01*
X123116902Y-65097633D02*
X129219234Y-71199964D01*
X123200408Y-65014127D02*
X129302739Y-71116458D01*
X123283914Y-64930621D02*
X129386245Y-71032953D01*
X123367419Y-64847115D02*
X129469751Y-70949447D01*
X123450925Y-64763609D02*
X129553257Y-70865941D01*
X123534431Y-64680104D02*
X129636763Y-70782435D01*
X123617937Y-64596598D02*
X129720268Y-70698929D01*
X123701443Y-64513092D02*
X129803774Y-70615424D01*
X123784948Y-64429586D02*
X129887280Y-70531918D01*
X123868454Y-64346081D02*
X129970786Y-70448412D01*
X123951960Y-64262575D02*
X130054291Y-70364906D01*
X124035466Y-64179069D02*
X130137797Y-70281401D01*
X124118971Y-64095563D02*
X130221303Y-70197895D01*
X124202477Y-64012057D02*
X130304809Y-70114389D01*
X124285983Y-63928552D02*
X130388315Y-70030883D01*
X124369489Y-63845046D02*
X130471820Y-69947377D01*
X124452995Y-63761540D02*
X130555326Y-69863872D01*
G04 #@! TO.C,Y1*
X144055935Y-107267657D02*
X142783143Y-105994865D01*
X141227508Y-107479789D02*
X140449691Y-108257606D01*
X142571011Y-108823292D02*
X141793194Y-109601109D01*
G04 #@! TO.C,J37*
X172426897Y-79996010D02*
X172745095Y-79677812D01*
X172426897Y-79996010D02*
X172108699Y-79677812D01*
X168856008Y-75647303D02*
X169174206Y-75965501D01*
X170164155Y-74339156D02*
X168856008Y-75647303D01*
X177482711Y-78051466D02*
X177305934Y-78228243D01*
X171967278Y-72536033D02*
X171790501Y-72712810D01*
X175679588Y-79854589D02*
X174371441Y-81162736D01*
X174371441Y-81162736D02*
X174053243Y-80844538D01*
G04 #@! TO.C,U1*
X169850000Y-95865000D02*
X169850000Y-95390000D01*
X160630000Y-104610000D02*
X161105000Y-104610000D01*
X160630000Y-104135000D02*
X160630000Y-104610000D01*
X160630000Y-95390000D02*
X161105000Y-95390000D01*
X160630000Y-95865000D02*
X160630000Y-95390000D01*
X169850000Y-104610000D02*
X169375000Y-104610000D01*
X169850000Y-104135000D02*
X169850000Y-104610000D01*
D12*
G04 #@! TO.C,U18*
X134515305Y-76984618D02*
X134320850Y-77179072D01*
X139995382Y-82464695D02*
X139744359Y-82715718D01*
X132464695Y-89995382D02*
X132715718Y-89744359D01*
X126984618Y-84515305D02*
X127235641Y-84264282D01*
X134515305Y-76984618D02*
X139995382Y-82464695D01*
X126984618Y-84515305D02*
X132464695Y-89995382D01*
X134320850Y-77179072D02*
X133242513Y-76100734D01*
D11*
G04 #@! TO.C,U2*
X154135000Y-119850000D02*
X154610000Y-119850000D01*
X145390000Y-110630000D02*
X145390000Y-111105000D01*
X145865000Y-110630000D02*
X145390000Y-110630000D01*
X154610000Y-110630000D02*
X154610000Y-111105000D01*
X154135000Y-110630000D02*
X154610000Y-110630000D01*
X145390000Y-119850000D02*
X145390000Y-119375000D01*
X145865000Y-119850000D02*
X145390000Y-119850000D01*
G04 #@! TO.C,U3*
X130150000Y-104135000D02*
X130150000Y-104610000D01*
X139370000Y-95390000D02*
X138895000Y-95390000D01*
X139370000Y-95865000D02*
X139370000Y-95390000D01*
X139370000Y-104610000D02*
X138895000Y-104610000D01*
X139370000Y-104135000D02*
X139370000Y-104610000D01*
X130150000Y-95390000D02*
X130625000Y-95390000D01*
X130150000Y-95865000D02*
X130150000Y-95390000D01*
G04 #@! TO.C,U4*
X145865000Y-80150000D02*
X145390000Y-80150000D01*
X154610000Y-89370000D02*
X154610000Y-88895000D01*
X154135000Y-89370000D02*
X154610000Y-89370000D01*
X145390000Y-89370000D02*
X145390000Y-88895000D01*
X145865000Y-89370000D02*
X145390000Y-89370000D01*
X154610000Y-80150000D02*
X154610000Y-80625000D01*
X154135000Y-80150000D02*
X154610000Y-80150000D01*
G04 #@! TO.C,Y2*
X140756914Y-114829229D02*
X139873031Y-113945346D01*
X139873031Y-113945346D02*
X139307346Y-114511031D01*
X135488969Y-110692654D02*
X136054654Y-110126969D01*
X136903183Y-114086767D02*
X135913233Y-113096817D01*
X138458817Y-110551233D02*
X139448767Y-111541183D01*
X139448767Y-111541183D02*
X139908386Y-111081563D01*
G04 #@! TO.C,C86*
X159365727Y-91513450D02*
X159135522Y-91283245D01*
X158644478Y-92234699D02*
X158414273Y-92004494D01*
G04 #@! TO.C,C85*
X159811273Y-85733678D02*
X160041478Y-85503473D01*
X160532522Y-86454927D02*
X160762727Y-86224722D01*
G04 #@! TO.C,U5*
X160292954Y-87444134D02*
X159020162Y-88716926D01*
X161297046Y-90993810D02*
X163029457Y-89261398D01*
G04 #@! TO.C,C109*
X162820127Y-111954922D02*
X162589922Y-112185127D01*
X162098878Y-111233673D02*
X161868673Y-111463878D01*
G04 #@! TO.C,C110*
X157282927Y-107679278D02*
X157052722Y-107449073D01*
X156561678Y-108400527D02*
X156331473Y-108170322D01*
G04 #@! TO.C,U10*
X161934838Y-109657954D02*
X160662046Y-108385162D01*
X158385162Y-110662046D02*
X160117574Y-112394457D01*
G04 #@! TO.C,C88*
X157628478Y-107333727D02*
X157398273Y-107103522D01*
X158349727Y-106612478D02*
X158119522Y-106382273D01*
D13*
G04 #@! TO.C,U11*
X166838800Y-119250425D02*
X167418628Y-118670598D01*
X168818699Y-121088903D02*
X169327816Y-120579786D01*
X168818699Y-121088903D02*
X168663136Y-120933340D01*
X170925878Y-118670598D02*
X171081441Y-118826161D01*
X171081441Y-118826161D02*
X170572324Y-119335278D01*
X168663136Y-117426090D02*
X169172253Y-116916973D01*
X169172253Y-116916973D02*
X169327816Y-117072536D01*
D11*
G04 #@! TO.C,J53*
X182555000Y-87240000D02*
X182555000Y-112760000D01*
X182555000Y-112760000D02*
X185215000Y-112760000D01*
X185215000Y-112760000D02*
X185215000Y-87240000D01*
X185215000Y-87240000D02*
X182555000Y-87240000D01*
X185215000Y-88190000D02*
X191215000Y-88190000D01*
X191215000Y-88190000D02*
X191215000Y-88950000D01*
X191215000Y-88950000D02*
X185215000Y-88950000D01*
X185215000Y-88250000D02*
X191215000Y-88250000D01*
X185215000Y-88370000D02*
X191215000Y-88370000D01*
X185215000Y-88490000D02*
X191215000Y-88490000D01*
X185215000Y-88610000D02*
X191215000Y-88610000D01*
X185215000Y-88730000D02*
X191215000Y-88730000D01*
X185215000Y-88850000D02*
X191215000Y-88850000D01*
X182157929Y-88190000D02*
X182555000Y-88190000D01*
X182157929Y-88950000D02*
X182555000Y-88950000D01*
X179685000Y-88190000D02*
X180072071Y-88190000D01*
X179685000Y-88950000D02*
X180072071Y-88950000D01*
X182555000Y-89840000D02*
X185215000Y-89840000D01*
X185215000Y-90730000D02*
X191215000Y-90730000D01*
X191215000Y-90730000D02*
X191215000Y-91490000D01*
X191215000Y-91490000D02*
X185215000Y-91490000D01*
X182157929Y-90730000D02*
X182555000Y-90730000D01*
X182157929Y-91490000D02*
X182555000Y-91490000D01*
X179617929Y-90730000D02*
X180072071Y-90730000D01*
X179617929Y-91490000D02*
X180072071Y-91490000D01*
X182555000Y-92380000D02*
X185215000Y-92380000D01*
X185215000Y-93270000D02*
X191215000Y-93270000D01*
X191215000Y-93270000D02*
X191215000Y-94030000D01*
X191215000Y-94030000D02*
X185215000Y-94030000D01*
X182157929Y-93270000D02*
X182555000Y-93270000D01*
X182157929Y-94030000D02*
X182555000Y-94030000D01*
X179617929Y-93270000D02*
X180072071Y-93270000D01*
X179617929Y-94030000D02*
X180072071Y-94030000D01*
X182555000Y-94920000D02*
X185215000Y-94920000D01*
X185215000Y-95810000D02*
X191215000Y-95810000D01*
X191215000Y-95810000D02*
X191215000Y-96570000D01*
X191215000Y-96570000D02*
X185215000Y-96570000D01*
X182157929Y-95810000D02*
X182555000Y-95810000D01*
X182157929Y-96570000D02*
X182555000Y-96570000D01*
X179617929Y-95810000D02*
X180072071Y-95810000D01*
X179617929Y-96570000D02*
X180072071Y-96570000D01*
X182555000Y-97460000D02*
X185215000Y-97460000D01*
X185215000Y-98350000D02*
X191215000Y-98350000D01*
X191215000Y-98350000D02*
X191215000Y-99110000D01*
X191215000Y-99110000D02*
X185215000Y-99110000D01*
X182157929Y-98350000D02*
X182555000Y-98350000D01*
X182157929Y-99110000D02*
X182555000Y-99110000D01*
X179617929Y-98350000D02*
X180072071Y-98350000D01*
X179617929Y-99110000D02*
X180072071Y-99110000D01*
X182555000Y-100000000D02*
X185215000Y-100000000D01*
X185215000Y-100890000D02*
X191215000Y-100890000D01*
X191215000Y-100890000D02*
X191215000Y-101650000D01*
X191215000Y-101650000D02*
X185215000Y-101650000D01*
X182157929Y-100890000D02*
X182555000Y-100890000D01*
X182157929Y-101650000D02*
X182555000Y-101650000D01*
X179617929Y-100890000D02*
X180072071Y-100890000D01*
X179617929Y-101650000D02*
X180072071Y-101650000D01*
X182555000Y-102540000D02*
X185215000Y-102540000D01*
X185215000Y-103430000D02*
X191215000Y-103430000D01*
X191215000Y-103430000D02*
X191215000Y-104190000D01*
X191215000Y-104190000D02*
X185215000Y-104190000D01*
X182157929Y-103430000D02*
X182555000Y-103430000D01*
X182157929Y-104190000D02*
X182555000Y-104190000D01*
X179617929Y-103430000D02*
X180072071Y-103430000D01*
X179617929Y-104190000D02*
X180072071Y-104190000D01*
X182555000Y-105080000D02*
X185215000Y-105080000D01*
X185215000Y-105970000D02*
X191215000Y-105970000D01*
X191215000Y-105970000D02*
X191215000Y-106730000D01*
X191215000Y-106730000D02*
X185215000Y-106730000D01*
X182157929Y-105970000D02*
X182555000Y-105970000D01*
X182157929Y-106730000D02*
X182555000Y-106730000D01*
X179617929Y-105970000D02*
X180072071Y-105970000D01*
X179617929Y-106730000D02*
X180072071Y-106730000D01*
X182555000Y-107620000D02*
X185215000Y-107620000D01*
X185215000Y-108510000D02*
X191215000Y-108510000D01*
X191215000Y-108510000D02*
X191215000Y-109270000D01*
X191215000Y-109270000D02*
X185215000Y-109270000D01*
X182157929Y-108510000D02*
X182555000Y-108510000D01*
X182157929Y-109270000D02*
X182555000Y-109270000D01*
X179617929Y-108510000D02*
X180072071Y-108510000D01*
X179617929Y-109270000D02*
X180072071Y-109270000D01*
X182555000Y-110160000D02*
X185215000Y-110160000D01*
X185215000Y-111050000D02*
X191215000Y-111050000D01*
X191215000Y-111050000D02*
X191215000Y-111810000D01*
X191215000Y-111810000D02*
X185215000Y-111810000D01*
X182157929Y-111050000D02*
X182555000Y-111050000D01*
X182157929Y-111810000D02*
X182555000Y-111810000D01*
X179617929Y-111050000D02*
X180072071Y-111050000D01*
X179617929Y-111810000D02*
X180072071Y-111810000D01*
X177305000Y-88570000D02*
X177305000Y-87300000D01*
X177305000Y-87300000D02*
X178575000Y-87300000D01*
G04 #@! TO.C,J54*
X162700000Y-127305000D02*
X162700000Y-128575000D01*
X161430000Y-127305000D02*
X162700000Y-127305000D01*
X138190000Y-129617929D02*
X138190000Y-130072071D01*
X138950000Y-129617929D02*
X138950000Y-130072071D01*
X138190000Y-132157929D02*
X138190000Y-132555000D01*
X138950000Y-132157929D02*
X138950000Y-132555000D01*
X138190000Y-141215000D02*
X138190000Y-135215000D01*
X138950000Y-141215000D02*
X138190000Y-141215000D01*
X138950000Y-135215000D02*
X138950000Y-141215000D01*
X139840000Y-132555000D02*
X139840000Y-135215000D01*
X140730000Y-129617929D02*
X140730000Y-130072071D01*
X141490000Y-129617929D02*
X141490000Y-130072071D01*
X140730000Y-132157929D02*
X140730000Y-132555000D01*
X141490000Y-132157929D02*
X141490000Y-132555000D01*
X140730000Y-141215000D02*
X140730000Y-135215000D01*
X141490000Y-141215000D02*
X140730000Y-141215000D01*
X141490000Y-135215000D02*
X141490000Y-141215000D01*
X142380000Y-132555000D02*
X142380000Y-135215000D01*
X143270000Y-129617929D02*
X143270000Y-130072071D01*
X144030000Y-129617929D02*
X144030000Y-130072071D01*
X143270000Y-132157929D02*
X143270000Y-132555000D01*
X144030000Y-132157929D02*
X144030000Y-132555000D01*
X143270000Y-141215000D02*
X143270000Y-135215000D01*
X144030000Y-141215000D02*
X143270000Y-141215000D01*
X144030000Y-135215000D02*
X144030000Y-141215000D01*
X144920000Y-132555000D02*
X144920000Y-135215000D01*
X145810000Y-129617929D02*
X145810000Y-130072071D01*
X146570000Y-129617929D02*
X146570000Y-130072071D01*
X145810000Y-132157929D02*
X145810000Y-132555000D01*
X146570000Y-132157929D02*
X146570000Y-132555000D01*
X145810000Y-141215000D02*
X145810000Y-135215000D01*
X146570000Y-141215000D02*
X145810000Y-141215000D01*
X146570000Y-135215000D02*
X146570000Y-141215000D01*
X147460000Y-132555000D02*
X147460000Y-135215000D01*
X148350000Y-129617929D02*
X148350000Y-130072071D01*
X149110000Y-129617929D02*
X149110000Y-130072071D01*
X148350000Y-132157929D02*
X148350000Y-132555000D01*
X149110000Y-132157929D02*
X149110000Y-132555000D01*
X148350000Y-141215000D02*
X148350000Y-135215000D01*
X149110000Y-141215000D02*
X148350000Y-141215000D01*
X149110000Y-135215000D02*
X149110000Y-141215000D01*
X150000000Y-132555000D02*
X150000000Y-135215000D01*
X150890000Y-129617929D02*
X150890000Y-130072071D01*
X151650000Y-129617929D02*
X151650000Y-130072071D01*
X150890000Y-132157929D02*
X150890000Y-132555000D01*
X151650000Y-132157929D02*
X151650000Y-132555000D01*
X150890000Y-141215000D02*
X150890000Y-135215000D01*
X151650000Y-141215000D02*
X150890000Y-141215000D01*
X151650000Y-135215000D02*
X151650000Y-141215000D01*
X152540000Y-132555000D02*
X152540000Y-135215000D01*
X153430000Y-129617929D02*
X153430000Y-130072071D01*
X154190000Y-129617929D02*
X154190000Y-130072071D01*
X153430000Y-132157929D02*
X153430000Y-132555000D01*
X154190000Y-132157929D02*
X154190000Y-132555000D01*
X153430000Y-141215000D02*
X153430000Y-135215000D01*
X154190000Y-141215000D02*
X153430000Y-141215000D01*
X154190000Y-135215000D02*
X154190000Y-141215000D01*
X155080000Y-132555000D02*
X155080000Y-135215000D01*
X155970000Y-129617929D02*
X155970000Y-130072071D01*
X156730000Y-129617929D02*
X156730000Y-130072071D01*
X155970000Y-132157929D02*
X155970000Y-132555000D01*
X156730000Y-132157929D02*
X156730000Y-132555000D01*
X155970000Y-141215000D02*
X155970000Y-135215000D01*
X156730000Y-141215000D02*
X155970000Y-141215000D01*
X156730000Y-135215000D02*
X156730000Y-141215000D01*
X157620000Y-132555000D02*
X157620000Y-135215000D01*
X158510000Y-129617929D02*
X158510000Y-130072071D01*
X159270000Y-129617929D02*
X159270000Y-130072071D01*
X158510000Y-132157929D02*
X158510000Y-132555000D01*
X159270000Y-132157929D02*
X159270000Y-132555000D01*
X158510000Y-141215000D02*
X158510000Y-135215000D01*
X159270000Y-141215000D02*
X158510000Y-141215000D01*
X159270000Y-135215000D02*
X159270000Y-141215000D01*
X160160000Y-132555000D02*
X160160000Y-135215000D01*
X161050000Y-129685000D02*
X161050000Y-130072071D01*
X161810000Y-129685000D02*
X161810000Y-130072071D01*
X161050000Y-132157929D02*
X161050000Y-132555000D01*
X161810000Y-132157929D02*
X161810000Y-132555000D01*
X161150000Y-135215000D02*
X161150000Y-141215000D01*
X161270000Y-135215000D02*
X161270000Y-141215000D01*
X161390000Y-135215000D02*
X161390000Y-141215000D01*
X161510000Y-135215000D02*
X161510000Y-141215000D01*
X161630000Y-135215000D02*
X161630000Y-141215000D01*
X161750000Y-135215000D02*
X161750000Y-141215000D01*
X161050000Y-141215000D02*
X161050000Y-135215000D01*
X161810000Y-141215000D02*
X161050000Y-141215000D01*
X161810000Y-135215000D02*
X161810000Y-141215000D01*
X162760000Y-135215000D02*
X162760000Y-132555000D01*
X137240000Y-135215000D02*
X162760000Y-135215000D01*
X137240000Y-132555000D02*
X137240000Y-135215000D01*
X162760000Y-132555000D02*
X137240000Y-132555000D01*
G04 #@! TO.C,J55*
X117445000Y-112760000D02*
X117445000Y-87240000D01*
X117445000Y-87240000D02*
X114785000Y-87240000D01*
X114785000Y-87240000D02*
X114785000Y-112760000D01*
X114785000Y-112760000D02*
X117445000Y-112760000D01*
X114785000Y-111810000D02*
X108785000Y-111810000D01*
X108785000Y-111810000D02*
X108785000Y-111050000D01*
X108785000Y-111050000D02*
X114785000Y-111050000D01*
X114785000Y-111750000D02*
X108785000Y-111750000D01*
X114785000Y-111630000D02*
X108785000Y-111630000D01*
X114785000Y-111510000D02*
X108785000Y-111510000D01*
X114785000Y-111390000D02*
X108785000Y-111390000D01*
X114785000Y-111270000D02*
X108785000Y-111270000D01*
X114785000Y-111150000D02*
X108785000Y-111150000D01*
X117842071Y-111810000D02*
X117445000Y-111810000D01*
X117842071Y-111050000D02*
X117445000Y-111050000D01*
X120315000Y-111810000D02*
X119927929Y-111810000D01*
X120315000Y-111050000D02*
X119927929Y-111050000D01*
X117445000Y-110160000D02*
X114785000Y-110160000D01*
X114785000Y-109270000D02*
X108785000Y-109270000D01*
X108785000Y-109270000D02*
X108785000Y-108510000D01*
X108785000Y-108510000D02*
X114785000Y-108510000D01*
X117842071Y-109270000D02*
X117445000Y-109270000D01*
X117842071Y-108510000D02*
X117445000Y-108510000D01*
X120382071Y-109270000D02*
X119927929Y-109270000D01*
X120382071Y-108510000D02*
X119927929Y-108510000D01*
X117445000Y-107620000D02*
X114785000Y-107620000D01*
X114785000Y-106730000D02*
X108785000Y-106730000D01*
X108785000Y-106730000D02*
X108785000Y-105970000D01*
X108785000Y-105970000D02*
X114785000Y-105970000D01*
X117842071Y-106730000D02*
X117445000Y-106730000D01*
X117842071Y-105970000D02*
X117445000Y-105970000D01*
X120382071Y-106730000D02*
X119927929Y-106730000D01*
X120382071Y-105970000D02*
X119927929Y-105970000D01*
X117445000Y-105080000D02*
X114785000Y-105080000D01*
X114785000Y-104190000D02*
X108785000Y-104190000D01*
X108785000Y-104190000D02*
X108785000Y-103430000D01*
X108785000Y-103430000D02*
X114785000Y-103430000D01*
X117842071Y-104190000D02*
X117445000Y-104190000D01*
X117842071Y-103430000D02*
X117445000Y-103430000D01*
X120382071Y-104190000D02*
X119927929Y-104190000D01*
X120382071Y-103430000D02*
X119927929Y-103430000D01*
X117445000Y-102540000D02*
X114785000Y-102540000D01*
X114785000Y-101650000D02*
X108785000Y-101650000D01*
X108785000Y-101650000D02*
X108785000Y-100890000D01*
X108785000Y-100890000D02*
X114785000Y-100890000D01*
X117842071Y-101650000D02*
X117445000Y-101650000D01*
X117842071Y-100890000D02*
X117445000Y-100890000D01*
X120382071Y-101650000D02*
X119927929Y-101650000D01*
X120382071Y-100890000D02*
X119927929Y-100890000D01*
X117445000Y-100000000D02*
X114785000Y-100000000D01*
X114785000Y-99110000D02*
X108785000Y-99110000D01*
X108785000Y-99110000D02*
X108785000Y-98350000D01*
X108785000Y-98350000D02*
X114785000Y-98350000D01*
X117842071Y-99110000D02*
X117445000Y-99110000D01*
X117842071Y-98350000D02*
X117445000Y-98350000D01*
X120382071Y-99110000D02*
X119927929Y-99110000D01*
X120382071Y-98350000D02*
X119927929Y-98350000D01*
X117445000Y-97460000D02*
X114785000Y-97460000D01*
X114785000Y-96570000D02*
X108785000Y-96570000D01*
X108785000Y-96570000D02*
X108785000Y-95810000D01*
X108785000Y-95810000D02*
X114785000Y-95810000D01*
X117842071Y-96570000D02*
X117445000Y-96570000D01*
X117842071Y-95810000D02*
X117445000Y-95810000D01*
X120382071Y-96570000D02*
X119927929Y-96570000D01*
X120382071Y-95810000D02*
X119927929Y-95810000D01*
X117445000Y-94920000D02*
X114785000Y-94920000D01*
X114785000Y-94030000D02*
X108785000Y-94030000D01*
X108785000Y-94030000D02*
X108785000Y-93270000D01*
X108785000Y-93270000D02*
X114785000Y-93270000D01*
X117842071Y-94030000D02*
X117445000Y-94030000D01*
X117842071Y-93270000D02*
X117445000Y-93270000D01*
X120382071Y-94030000D02*
X119927929Y-94030000D01*
X120382071Y-93270000D02*
X119927929Y-93270000D01*
X117445000Y-92380000D02*
X114785000Y-92380000D01*
X114785000Y-91490000D02*
X108785000Y-91490000D01*
X108785000Y-91490000D02*
X108785000Y-90730000D01*
X108785000Y-90730000D02*
X114785000Y-90730000D01*
X117842071Y-91490000D02*
X117445000Y-91490000D01*
X117842071Y-90730000D02*
X117445000Y-90730000D01*
X120382071Y-91490000D02*
X119927929Y-91490000D01*
X120382071Y-90730000D02*
X119927929Y-90730000D01*
X117445000Y-89840000D02*
X114785000Y-89840000D01*
X114785000Y-88950000D02*
X108785000Y-88950000D01*
X108785000Y-88950000D02*
X108785000Y-88190000D01*
X108785000Y-88190000D02*
X114785000Y-88190000D01*
X117842071Y-88950000D02*
X117445000Y-88950000D01*
X117842071Y-88190000D02*
X117445000Y-88190000D01*
X120382071Y-88950000D02*
X119927929Y-88950000D01*
X120382071Y-88190000D02*
X119927929Y-88190000D01*
X122695000Y-111430000D02*
X122695000Y-112700000D01*
X122695000Y-112700000D02*
X121425000Y-112700000D01*
G04 #@! TO.C,J56*
X137300000Y-72695000D02*
X137300000Y-71425000D01*
X138570000Y-72695000D02*
X137300000Y-72695000D01*
X161810000Y-70382071D02*
X161810000Y-69927929D01*
X161050000Y-70382071D02*
X161050000Y-69927929D01*
X161810000Y-67842071D02*
X161810000Y-67445000D01*
X161050000Y-67842071D02*
X161050000Y-67445000D01*
X161810000Y-58785000D02*
X161810000Y-64785000D01*
X161050000Y-58785000D02*
X161810000Y-58785000D01*
X161050000Y-64785000D02*
X161050000Y-58785000D01*
X160160000Y-67445000D02*
X160160000Y-64785000D01*
X159270000Y-70382071D02*
X159270000Y-69927929D01*
X158510000Y-70382071D02*
X158510000Y-69927929D01*
X159270000Y-67842071D02*
X159270000Y-67445000D01*
X158510000Y-67842071D02*
X158510000Y-67445000D01*
X159270000Y-58785000D02*
X159270000Y-64785000D01*
X158510000Y-58785000D02*
X159270000Y-58785000D01*
X158510000Y-64785000D02*
X158510000Y-58785000D01*
X157620000Y-67445000D02*
X157620000Y-64785000D01*
X156730000Y-70382071D02*
X156730000Y-69927929D01*
X155970000Y-70382071D02*
X155970000Y-69927929D01*
X156730000Y-67842071D02*
X156730000Y-67445000D01*
X155970000Y-67842071D02*
X155970000Y-67445000D01*
X156730000Y-58785000D02*
X156730000Y-64785000D01*
X155970000Y-58785000D02*
X156730000Y-58785000D01*
X155970000Y-64785000D02*
X155970000Y-58785000D01*
X155080000Y-67445000D02*
X155080000Y-64785000D01*
X154190000Y-70382071D02*
X154190000Y-69927929D01*
X153430000Y-70382071D02*
X153430000Y-69927929D01*
X154190000Y-67842071D02*
X154190000Y-67445000D01*
X153430000Y-67842071D02*
X153430000Y-67445000D01*
X154190000Y-58785000D02*
X154190000Y-64785000D01*
X153430000Y-58785000D02*
X154190000Y-58785000D01*
X153430000Y-64785000D02*
X153430000Y-58785000D01*
X152540000Y-67445000D02*
X152540000Y-64785000D01*
X151650000Y-70382071D02*
X151650000Y-69927929D01*
X150890000Y-70382071D02*
X150890000Y-69927929D01*
X151650000Y-67842071D02*
X151650000Y-67445000D01*
X150890000Y-67842071D02*
X150890000Y-67445000D01*
X151650000Y-58785000D02*
X151650000Y-64785000D01*
X150890000Y-58785000D02*
X151650000Y-58785000D01*
X150890000Y-64785000D02*
X150890000Y-58785000D01*
X150000000Y-67445000D02*
X150000000Y-64785000D01*
X149110000Y-70382071D02*
X149110000Y-69927929D01*
X148350000Y-70382071D02*
X148350000Y-69927929D01*
X149110000Y-67842071D02*
X149110000Y-67445000D01*
X148350000Y-67842071D02*
X148350000Y-67445000D01*
X149110000Y-58785000D02*
X149110000Y-64785000D01*
X148350000Y-58785000D02*
X149110000Y-58785000D01*
X148350000Y-64785000D02*
X148350000Y-58785000D01*
X147460000Y-67445000D02*
X147460000Y-64785000D01*
X146570000Y-70382071D02*
X146570000Y-69927929D01*
X145810000Y-70382071D02*
X145810000Y-69927929D01*
X146570000Y-67842071D02*
X146570000Y-67445000D01*
X145810000Y-67842071D02*
X145810000Y-67445000D01*
X146570000Y-58785000D02*
X146570000Y-64785000D01*
X145810000Y-58785000D02*
X146570000Y-58785000D01*
X145810000Y-64785000D02*
X145810000Y-58785000D01*
X144920000Y-67445000D02*
X144920000Y-64785000D01*
X144030000Y-70382071D02*
X144030000Y-69927929D01*
X143270000Y-70382071D02*
X143270000Y-69927929D01*
X144030000Y-67842071D02*
X144030000Y-67445000D01*
X143270000Y-67842071D02*
X143270000Y-67445000D01*
X144030000Y-58785000D02*
X144030000Y-64785000D01*
X143270000Y-58785000D02*
X144030000Y-58785000D01*
X143270000Y-64785000D02*
X143270000Y-58785000D01*
X142380000Y-67445000D02*
X142380000Y-64785000D01*
X141490000Y-70382071D02*
X141490000Y-69927929D01*
X140730000Y-70382071D02*
X140730000Y-69927929D01*
X141490000Y-67842071D02*
X141490000Y-67445000D01*
X140730000Y-67842071D02*
X140730000Y-67445000D01*
X141490000Y-58785000D02*
X141490000Y-64785000D01*
X140730000Y-58785000D02*
X141490000Y-58785000D01*
X140730000Y-64785000D02*
X140730000Y-58785000D01*
X139840000Y-67445000D02*
X139840000Y-64785000D01*
X138950000Y-70315000D02*
X138950000Y-69927929D01*
X138190000Y-70315000D02*
X138190000Y-69927929D01*
X138950000Y-67842071D02*
X138950000Y-67445000D01*
X138190000Y-67842071D02*
X138190000Y-67445000D01*
X138850000Y-64785000D02*
X138850000Y-58785000D01*
X138730000Y-64785000D02*
X138730000Y-58785000D01*
X138610000Y-64785000D02*
X138610000Y-58785000D01*
X138490000Y-64785000D02*
X138490000Y-58785000D01*
X138370000Y-64785000D02*
X138370000Y-58785000D01*
X138250000Y-64785000D02*
X138250000Y-58785000D01*
X138950000Y-58785000D02*
X138950000Y-64785000D01*
X138190000Y-58785000D02*
X138950000Y-58785000D01*
X138190000Y-64785000D02*
X138190000Y-58785000D01*
X137240000Y-64785000D02*
X137240000Y-67445000D01*
X162760000Y-64785000D02*
X137240000Y-64785000D01*
X162760000Y-67445000D02*
X162760000Y-64785000D01*
X137240000Y-67445000D02*
X162760000Y-67445000D01*
G04 #@! TO.C,SW2*
X176846777Y-118798324D02*
X177058909Y-119010456D01*
X174513324Y-121131777D02*
X176846777Y-118798324D01*
X174725456Y-121343909D02*
X174513324Y-121131777D01*
X178826676Y-120778223D02*
X178614544Y-120566091D01*
X176493223Y-123111676D02*
X178826676Y-120778223D01*
X176281091Y-122899544D02*
X176493223Y-123111676D01*
G04 #@! TO.C,J65*
X175460000Y-109525000D02*
X175460000Y-110855000D01*
X175460000Y-110855000D02*
X174130000Y-110855000D01*
X172860000Y-110855000D02*
X170260000Y-110855000D01*
X170260000Y-108195000D02*
X170260000Y-110855000D01*
X172860000Y-108195000D02*
X170260000Y-108195000D01*
X172860000Y-108195000D02*
X172860000Y-110855000D01*
G04 #@! TO.C,J69*
X175460000Y-90475000D02*
X175460000Y-91805000D01*
X175460000Y-91805000D02*
X174130000Y-91805000D01*
X172860000Y-91805000D02*
X170260000Y-91805000D01*
X170260000Y-89145000D02*
X170260000Y-91805000D01*
X172860000Y-89145000D02*
X170260000Y-89145000D01*
X172860000Y-89145000D02*
X172860000Y-91805000D01*
G04 #@! TO.C,J73*
X127140000Y-91805000D02*
X127140000Y-89145000D01*
X127140000Y-91805000D02*
X129740000Y-91805000D01*
X129740000Y-91805000D02*
X129740000Y-89145000D01*
X127140000Y-89145000D02*
X129740000Y-89145000D01*
X124540000Y-89145000D02*
X125870000Y-89145000D01*
X124540000Y-90475000D02*
X124540000Y-89145000D01*
G04 #@! TO.C,J78*
X141805000Y-122860000D02*
X139145000Y-122860000D01*
X141805000Y-122860000D02*
X141805000Y-120260000D01*
X141805000Y-120260000D02*
X139145000Y-120260000D01*
X139145000Y-122860000D02*
X139145000Y-120260000D01*
X139145000Y-125460000D02*
X139145000Y-124130000D01*
X140475000Y-125460000D02*
X139145000Y-125460000D01*
G04 #@! TO.C,J79*
X124540000Y-109525000D02*
X124540000Y-108195000D01*
X124540000Y-108195000D02*
X125870000Y-108195000D01*
X127140000Y-108195000D02*
X129740000Y-108195000D01*
X129740000Y-110855000D02*
X129740000Y-108195000D01*
X127140000Y-110855000D02*
X129740000Y-110855000D01*
X127140000Y-110855000D02*
X127140000Y-108195000D01*
G04 #@! TO.C,J80*
X160855000Y-122860000D02*
X158195000Y-122860000D01*
X160855000Y-122860000D02*
X160855000Y-120260000D01*
X160855000Y-120260000D02*
X158195000Y-120260000D01*
X158195000Y-122860000D02*
X158195000Y-120260000D01*
X158195000Y-125460000D02*
X158195000Y-124130000D01*
X159525000Y-125460000D02*
X158195000Y-125460000D01*
G04 #@! TO.C,J81*
X159525000Y-74540000D02*
X160855000Y-74540000D01*
X160855000Y-74540000D02*
X160855000Y-75870000D01*
X160855000Y-77140000D02*
X160855000Y-79740000D01*
X158195000Y-79740000D02*
X160855000Y-79740000D01*
X158195000Y-77140000D02*
X158195000Y-79740000D01*
X158195000Y-77140000D02*
X160855000Y-77140000D01*
G04 #@! TO.C,J83*
X172263057Y-139631358D02*
X166160726Y-133529026D01*
X172346563Y-139547852D02*
X166244232Y-133445521D01*
X172430069Y-139464346D02*
X166327737Y-133362015D01*
X172513575Y-139380841D02*
X166411243Y-133278509D01*
X172597081Y-139297335D02*
X166494749Y-133195003D01*
X172680586Y-139213829D02*
X166578255Y-133111497D01*
X172764092Y-139130323D02*
X166661761Y-133027992D01*
X172847598Y-139046817D02*
X166745266Y-132944486D01*
X172931104Y-138963312D02*
X166828772Y-132860980D01*
X173014609Y-138879806D02*
X166912278Y-132777474D01*
X173098115Y-138796300D02*
X166995784Y-132693969D01*
X173181621Y-138712794D02*
X167079289Y-132610463D01*
X173265127Y-138629289D02*
X167162795Y-132526957D01*
X173348633Y-138545783D02*
X167246301Y-132443451D01*
X173432138Y-138462277D02*
X167329807Y-132359945D01*
X173515644Y-138378771D02*
X167413313Y-132276440D01*
X173599150Y-138295265D02*
X167496818Y-132192934D01*
X173682656Y-138211760D02*
X167580324Y-132109428D01*
X173766161Y-138128254D02*
X167663830Y-132025922D01*
X173849667Y-138044748D02*
X167747336Y-131942417D01*
X173933173Y-137961242D02*
X167830841Y-131858911D01*
X166761767Y-132927986D02*
X166471853Y-132638072D01*
X164986929Y-131153148D02*
X164718228Y-130884447D01*
X167270884Y-132418869D02*
X166980970Y-132128955D01*
X165496046Y-130644031D02*
X165227345Y-130375330D01*
X168557818Y-131131934D02*
X168267904Y-130842021D01*
X166782980Y-129357096D02*
X166471853Y-129045969D01*
X169066935Y-130622817D02*
X168777021Y-130332904D01*
X167292097Y-128847979D02*
X166980970Y-128536852D01*
X174016682Y-137877733D02*
X167914351Y-131775402D01*
X172178205Y-139716211D02*
X166075873Y-133613879D01*
X166075873Y-133613879D02*
X169752828Y-129936924D01*
X175855160Y-136039255D02*
X169752828Y-129936924D01*
X172178205Y-139716211D02*
X175855160Y-136039255D01*
X162462557Y-130000563D02*
X163403009Y-129060111D01*
X163247446Y-130785452D02*
X162462557Y-130000563D01*
G04 #@! TO.C,J85*
X139145000Y-77140000D02*
X141805000Y-77140000D01*
X139145000Y-77140000D02*
X139145000Y-79740000D01*
X139145000Y-79740000D02*
X141805000Y-79740000D01*
X141805000Y-77140000D02*
X141805000Y-79740000D01*
X141805000Y-74540000D02*
X141805000Y-75870000D01*
X140475000Y-74540000D02*
X141805000Y-74540000D01*
G04 #@! TO.C,J57*
D14*
X123872402Y-85550176D02*
X123619864Y-85802714D01*
X123552521Y-85836386D01*
X123485177Y-85836386D01*
X123417834Y-85802714D01*
X123384162Y-85769042D01*
X124209120Y-85886894D02*
X124040761Y-85718535D01*
X123855566Y-85870058D01*
X123889238Y-85870058D01*
X123939746Y-85886894D01*
X124023925Y-85971073D01*
X124040761Y-86021581D01*
X124040761Y-86055252D01*
X124023925Y-86105760D01*
X123939746Y-86189939D01*
X123889238Y-86206775D01*
X123855566Y-86206775D01*
X123805059Y-86189939D01*
X123720879Y-86105760D01*
X123704043Y-86055252D01*
X123704043Y-86021581D01*
X124343807Y-86021581D02*
X124579509Y-86257283D01*
X124074433Y-86459313D01*
G04 #@! TO.C,U8*
X149624047Y-94061990D02*
X149624047Y-94466752D01*
X149647857Y-94514371D01*
X149671666Y-94538180D01*
X149719285Y-94561990D01*
X149814523Y-94561990D01*
X149862142Y-94538180D01*
X149885952Y-94514371D01*
X149909761Y-94466752D01*
X149909761Y-94061990D01*
X150219285Y-94276276D02*
X150171666Y-94252466D01*
X150147857Y-94228657D01*
X150124047Y-94181038D01*
X150124047Y-94157228D01*
X150147857Y-94109609D01*
X150171666Y-94085800D01*
X150219285Y-94061990D01*
X150314523Y-94061990D01*
X150362142Y-94085800D01*
X150385952Y-94109609D01*
X150409761Y-94157228D01*
X150409761Y-94181038D01*
X150385952Y-94228657D01*
X150362142Y-94252466D01*
X150314523Y-94276276D01*
X150219285Y-94276276D01*
X150171666Y-94300085D01*
X150147857Y-94323895D01*
X150124047Y-94371514D01*
X150124047Y-94466752D01*
X150147857Y-94514371D01*
X150171666Y-94538180D01*
X150219285Y-94561990D01*
X150314523Y-94561990D01*
X150362142Y-94538180D01*
X150385952Y-94514371D01*
X150409761Y-94466752D01*
X150409761Y-94371514D01*
X150385952Y-94323895D01*
X150362142Y-94300085D01*
X150314523Y-94276276D01*
G04 #@! TO.C,J82*
X174672402Y-115395177D02*
X174419864Y-115647715D01*
X174352521Y-115681387D01*
X174285177Y-115681387D01*
X174217834Y-115647715D01*
X174184162Y-115614043D01*
X174739746Y-115765566D02*
X174722910Y-115715059D01*
X174722910Y-115681387D01*
X174739746Y-115630879D01*
X174756582Y-115614043D01*
X174807089Y-115597208D01*
X174840761Y-115597208D01*
X174891269Y-115614043D01*
X174958612Y-115681387D01*
X174975448Y-115731895D01*
X174975448Y-115765566D01*
X174958612Y-115816074D01*
X174941776Y-115832910D01*
X174891269Y-115849746D01*
X174857597Y-115849746D01*
X174807089Y-115832910D01*
X174739746Y-115765566D01*
X174689238Y-115748730D01*
X174655566Y-115748730D01*
X174605059Y-115765566D01*
X174537715Y-115832910D01*
X174520879Y-115883417D01*
X174520879Y-115917089D01*
X174537715Y-115967597D01*
X174605059Y-116034940D01*
X174655566Y-116051776D01*
X174689238Y-116051776D01*
X174739746Y-116034940D01*
X174807089Y-115967597D01*
X174823925Y-115917089D01*
X174823925Y-115883417D01*
X174807089Y-115832910D01*
X175126971Y-115917089D02*
X175160643Y-115917089D01*
X175211150Y-115933925D01*
X175295330Y-116018104D01*
X175312165Y-116068612D01*
X175312165Y-116102284D01*
X175295330Y-116152791D01*
X175261658Y-116186463D01*
X175194314Y-116220135D01*
X174790253Y-116220135D01*
X175009120Y-116439001D01*
G04 #@! TO.C,SW1*
X169356700Y-126014509D02*
X169424043Y-125980837D01*
X169508223Y-125896658D01*
X169525059Y-125846150D01*
X169525059Y-125812478D01*
X169508223Y-125761971D01*
X169474551Y-125728299D01*
X169424043Y-125711463D01*
X169390372Y-125711463D01*
X169339864Y-125728299D01*
X169255685Y-125778807D01*
X169205177Y-125795643D01*
X169171505Y-125795643D01*
X169120998Y-125778807D01*
X169087326Y-125745135D01*
X169070490Y-125694627D01*
X169070490Y-125660956D01*
X169087326Y-125610448D01*
X169171505Y-125526269D01*
X169238849Y-125492597D01*
X169339864Y-125357910D02*
X169777597Y-125627284D01*
X169592402Y-125307402D01*
X169912284Y-125492597D01*
X169642910Y-125054864D01*
X170316345Y-125088536D02*
X170114314Y-125290566D01*
X170215330Y-125189551D02*
X169861776Y-124835998D01*
X169878612Y-124920177D01*
X169878612Y-124987521D01*
X169861776Y-125038028D01*
G04 #@! TO.C,J63*
X131740177Y-122952597D02*
X131992715Y-123205135D01*
X132026387Y-123272478D01*
X132026387Y-123339822D01*
X131992715Y-123407165D01*
X131959043Y-123440837D01*
X132060059Y-122632715D02*
X131992715Y-122700059D01*
X131975879Y-122750566D01*
X131975879Y-122784238D01*
X131992715Y-122868417D01*
X132043223Y-122952597D01*
X132177910Y-123087284D01*
X132228417Y-123104120D01*
X132262089Y-123104120D01*
X132312597Y-123087284D01*
X132379940Y-123019940D01*
X132396776Y-122969433D01*
X132396776Y-122935761D01*
X132379940Y-122885253D01*
X132295761Y-122801074D01*
X132245253Y-122784238D01*
X132211582Y-122784238D01*
X132161074Y-122801074D01*
X132093730Y-122868417D01*
X132076895Y-122918925D01*
X132076895Y-122952597D01*
X132093730Y-123003104D01*
X132211582Y-122481192D02*
X132430448Y-122262326D01*
X132447284Y-122514864D01*
X132497791Y-122464356D01*
X132548299Y-122447521D01*
X132581971Y-122447521D01*
X132632478Y-122464356D01*
X132716658Y-122548536D01*
X132733494Y-122599043D01*
X132733494Y-122632715D01*
X132716658Y-122683223D01*
X132615643Y-122784238D01*
X132565135Y-122801074D01*
X132531463Y-122801074D01*
G04 #@! TO.C,J64*
X126660177Y-117872597D02*
X126912715Y-118125135D01*
X126946387Y-118192478D01*
X126946387Y-118259822D01*
X126912715Y-118327165D01*
X126879043Y-118360837D01*
X126980059Y-117552715D02*
X126912715Y-117620059D01*
X126895879Y-117670566D01*
X126895879Y-117704238D01*
X126912715Y-117788417D01*
X126963223Y-117872597D01*
X127097910Y-118007284D01*
X127148417Y-118024120D01*
X127182089Y-118024120D01*
X127232597Y-118007284D01*
X127299940Y-117939940D01*
X127316776Y-117889433D01*
X127316776Y-117855761D01*
X127299940Y-117805253D01*
X127215761Y-117721074D01*
X127165253Y-117704238D01*
X127131582Y-117704238D01*
X127081074Y-117721074D01*
X127013730Y-117788417D01*
X126996895Y-117838925D01*
X126996895Y-117872597D01*
X127013730Y-117923104D01*
X127434627Y-117333849D02*
X127670330Y-117569551D01*
X127215761Y-117283341D02*
X127384120Y-117620059D01*
X127602986Y-117401192D01*
G04 #@! TO.C,J62*
X172380177Y-82312597D02*
X172632715Y-82565135D01*
X172666387Y-82632478D01*
X172666387Y-82699822D01*
X172632715Y-82767165D01*
X172599043Y-82800837D01*
X172700059Y-81992715D02*
X172632715Y-82060059D01*
X172615879Y-82110566D01*
X172615879Y-82144238D01*
X172632715Y-82228417D01*
X172683223Y-82312597D01*
X172817910Y-82447284D01*
X172868417Y-82464120D01*
X172902089Y-82464120D01*
X172952597Y-82447284D01*
X173019940Y-82379940D01*
X173036776Y-82329433D01*
X173036776Y-82295761D01*
X173019940Y-82245253D01*
X172935761Y-82161074D01*
X172885253Y-82144238D01*
X172851582Y-82144238D01*
X172801074Y-82161074D01*
X172733730Y-82228417D01*
X172716895Y-82278925D01*
X172716895Y-82312597D01*
X172733730Y-82363104D01*
X172902089Y-81858028D02*
X172902089Y-81824356D01*
X172918925Y-81773849D01*
X173003104Y-81689669D01*
X173053612Y-81672834D01*
X173087284Y-81672834D01*
X173137791Y-81689669D01*
X173171463Y-81723341D01*
X173205135Y-81790685D01*
X173205135Y-82194746D01*
X173424001Y-81975879D01*
G04 #@! TO.C,J61*
X167300177Y-77232597D02*
X167552715Y-77485135D01*
X167586387Y-77552478D01*
X167586387Y-77619822D01*
X167552715Y-77687165D01*
X167519043Y-77720837D01*
X167620059Y-76912715D02*
X167552715Y-76980059D01*
X167535879Y-77030566D01*
X167535879Y-77064238D01*
X167552715Y-77148417D01*
X167603223Y-77232597D01*
X167737910Y-77367284D01*
X167788417Y-77384120D01*
X167822089Y-77384120D01*
X167872597Y-77367284D01*
X167939940Y-77299940D01*
X167956776Y-77249433D01*
X167956776Y-77215761D01*
X167939940Y-77165253D01*
X167855761Y-77081074D01*
X167805253Y-77064238D01*
X167771582Y-77064238D01*
X167721074Y-77081074D01*
X167653730Y-77148417D01*
X167636895Y-77198925D01*
X167636895Y-77232597D01*
X167653730Y-77283104D01*
X168344001Y-76895879D02*
X168141971Y-77097910D01*
X168242986Y-76996895D02*
X167889433Y-76643341D01*
X167906269Y-76727521D01*
X167906269Y-76794864D01*
X167889433Y-76845372D01*
G04 #@! TO.C,J58*
X135937402Y-73485177D02*
X135684864Y-73737715D01*
X135617521Y-73771387D01*
X135550177Y-73771387D01*
X135482834Y-73737715D01*
X135449162Y-73704043D01*
X136274120Y-73821895D02*
X136105761Y-73653536D01*
X135920566Y-73805059D01*
X135954238Y-73805059D01*
X136004746Y-73821895D01*
X136088925Y-73906074D01*
X136105761Y-73956582D01*
X136105761Y-73990253D01*
X136088925Y-74040761D01*
X136004746Y-74124940D01*
X135954238Y-74141776D01*
X135920566Y-74141776D01*
X135870059Y-74124940D01*
X135785879Y-74040761D01*
X135769043Y-73990253D01*
X135769043Y-73956582D01*
X136341463Y-74192284D02*
X136324627Y-74141776D01*
X136324627Y-74108104D01*
X136341463Y-74057597D01*
X136358299Y-74040761D01*
X136408807Y-74023925D01*
X136442478Y-74023925D01*
X136492986Y-74040761D01*
X136560330Y-74108104D01*
X136577165Y-74158612D01*
X136577165Y-74192284D01*
X136560330Y-74242791D01*
X136543494Y-74259627D01*
X136492986Y-74276463D01*
X136459314Y-74276463D01*
X136408807Y-74259627D01*
X136341463Y-74192284D01*
X136290956Y-74175448D01*
X136257284Y-74175448D01*
X136206776Y-74192284D01*
X136139433Y-74259627D01*
X136122597Y-74310135D01*
X136122597Y-74343807D01*
X136139433Y-74394314D01*
X136206776Y-74461658D01*
X136257284Y-74478494D01*
X136290956Y-74478494D01*
X136341463Y-74461658D01*
X136408807Y-74394314D01*
X136425643Y-74343807D01*
X136425643Y-74310135D01*
X136408807Y-74259627D01*
G04 #@! TO.C,Y1*
X140374423Y-107297340D02*
X140542782Y-107465699D01*
X140071377Y-107229997D02*
X140374423Y-107297340D01*
X140307079Y-106994295D01*
X140963678Y-107044802D02*
X140761648Y-107246833D01*
X140862663Y-107145817D02*
X140509110Y-106792264D01*
X140525946Y-106876443D01*
X140525946Y-106943787D01*
X140509110Y-106994295D01*
G04 #@! TO.C,J37*
X170735402Y-78742977D02*
X170482864Y-78995515D01*
X170415521Y-79029187D01*
X170348177Y-79029187D01*
X170280834Y-78995515D01*
X170247162Y-78961843D01*
X170870089Y-78877664D02*
X171088956Y-79096530D01*
X170836417Y-79113366D01*
X170886925Y-79163874D01*
X170903761Y-79214382D01*
X170903761Y-79248053D01*
X170886925Y-79298561D01*
X170802746Y-79382740D01*
X170752238Y-79399576D01*
X170718566Y-79399576D01*
X170668059Y-79382740D01*
X170567043Y-79281725D01*
X170550208Y-79231217D01*
X170550208Y-79197546D01*
X171206807Y-79214382D02*
X171442509Y-79450084D01*
X170937433Y-79652114D01*
G04 #@! TO.C,U1*
X170786190Y-100380952D02*
X171190952Y-100380952D01*
X171238571Y-100357142D01*
X171262380Y-100333333D01*
X171286190Y-100285714D01*
X171286190Y-100190476D01*
X171262380Y-100142857D01*
X171238571Y-100119047D01*
X171190952Y-100095238D01*
X170786190Y-100095238D01*
X171286190Y-99595238D02*
X171286190Y-99880952D01*
X171286190Y-99738095D02*
X170786190Y-99738095D01*
X170857619Y-99785714D01*
X170905238Y-99833333D01*
X170929047Y-99880952D01*
G04 #@! TO.C,U18*
X137665296Y-78439237D02*
X137379086Y-78725447D01*
X137362251Y-78775955D01*
X137362251Y-78809626D01*
X137379086Y-78860134D01*
X137446430Y-78927478D01*
X137496938Y-78944313D01*
X137530609Y-78944313D01*
X137581117Y-78927478D01*
X137867327Y-78641268D01*
X137867327Y-79348374D02*
X137665296Y-79146344D01*
X137766312Y-79247359D02*
X138119865Y-78893806D01*
X138035686Y-78910642D01*
X137968342Y-78910642D01*
X137917834Y-78893806D01*
X138271388Y-79348374D02*
X138254552Y-79297867D01*
X138254552Y-79264195D01*
X138271388Y-79213687D01*
X138288224Y-79196852D01*
X138338731Y-79180016D01*
X138372403Y-79180016D01*
X138422911Y-79196852D01*
X138490254Y-79264195D01*
X138507090Y-79314703D01*
X138507090Y-79348374D01*
X138490254Y-79398882D01*
X138473418Y-79415718D01*
X138422911Y-79432554D01*
X138389239Y-79432554D01*
X138338731Y-79415718D01*
X138271388Y-79348374D01*
X138220880Y-79331539D01*
X138187208Y-79331539D01*
X138136701Y-79348374D01*
X138069357Y-79415718D01*
X138052521Y-79466226D01*
X138052521Y-79499897D01*
X138069357Y-79550405D01*
X138136701Y-79617748D01*
X138187208Y-79634584D01*
X138220880Y-79634584D01*
X138271388Y-79617748D01*
X138338731Y-79550405D01*
X138355567Y-79499897D01*
X138355567Y-79466226D01*
X138338731Y-79415718D01*
G04 #@! TO.C,REF\002A\002A*
X179102133Y-85697390D02*
X178935466Y-85459295D01*
X178816419Y-85697390D02*
X178816419Y-85197390D01*
X179006895Y-85197390D01*
X179054514Y-85221200D01*
X179078323Y-85245009D01*
X179102133Y-85292628D01*
X179102133Y-85364057D01*
X179078323Y-85411676D01*
X179054514Y-85435485D01*
X179006895Y-85459295D01*
X178816419Y-85459295D01*
X179316419Y-85435485D02*
X179483085Y-85435485D01*
X179554514Y-85697390D02*
X179316419Y-85697390D01*
X179316419Y-85197390D01*
X179554514Y-85197390D01*
X179935466Y-85435485D02*
X179768800Y-85435485D01*
X179768800Y-85697390D02*
X179768800Y-85197390D01*
X180006895Y-85197390D01*
X180268800Y-85197390D02*
X180268800Y-85316438D01*
X180149752Y-85268819D02*
X180268800Y-85316438D01*
X180387847Y-85268819D01*
X180197371Y-85411676D02*
X180268800Y-85316438D01*
X180340228Y-85411676D01*
X180649752Y-85197390D02*
X180649752Y-85316438D01*
X180530704Y-85268819D02*
X180649752Y-85316438D01*
X180768800Y-85268819D01*
X180578323Y-85411676D02*
X180649752Y-85316438D01*
X180721180Y-85411676D01*
X164497133Y-71168590D02*
X164330466Y-70930495D01*
X164211419Y-71168590D02*
X164211419Y-70668590D01*
X164401895Y-70668590D01*
X164449514Y-70692400D01*
X164473323Y-70716209D01*
X164497133Y-70763828D01*
X164497133Y-70835257D01*
X164473323Y-70882876D01*
X164449514Y-70906685D01*
X164401895Y-70930495D01*
X164211419Y-70930495D01*
X164711419Y-70906685D02*
X164878085Y-70906685D01*
X164949514Y-71168590D02*
X164711419Y-71168590D01*
X164711419Y-70668590D01*
X164949514Y-70668590D01*
X165330466Y-70906685D02*
X165163800Y-70906685D01*
X165163800Y-71168590D02*
X165163800Y-70668590D01*
X165401895Y-70668590D01*
X165663800Y-70668590D02*
X165663800Y-70787638D01*
X165544752Y-70740019D02*
X165663800Y-70787638D01*
X165782847Y-70740019D01*
X165592371Y-70882876D02*
X165663800Y-70787638D01*
X165735228Y-70882876D01*
X166044752Y-70668590D02*
X166044752Y-70787638D01*
X165925704Y-70740019D02*
X166044752Y-70787638D01*
X166163800Y-70740019D01*
X165973323Y-70882876D02*
X166044752Y-70787638D01*
X166116180Y-70882876D01*
X135722790Y-130816466D02*
X135484695Y-130983133D01*
X135722790Y-131102180D02*
X135222790Y-131102180D01*
X135222790Y-130911704D01*
X135246600Y-130864085D01*
X135270409Y-130840276D01*
X135318028Y-130816466D01*
X135389457Y-130816466D01*
X135437076Y-130840276D01*
X135460885Y-130864085D01*
X135484695Y-130911704D01*
X135484695Y-131102180D01*
X135460885Y-130602180D02*
X135460885Y-130435514D01*
X135722790Y-130364085D02*
X135722790Y-130602180D01*
X135222790Y-130602180D01*
X135222790Y-130364085D01*
X135460885Y-129983133D02*
X135460885Y-130149800D01*
X135722790Y-130149800D02*
X135222790Y-130149800D01*
X135222790Y-129911704D01*
X135222790Y-129649800D02*
X135341838Y-129649800D01*
X135294219Y-129768847D02*
X135341838Y-129649800D01*
X135294219Y-129530752D01*
X135437076Y-129721228D02*
X135341838Y-129649800D01*
X135437076Y-129578371D01*
X135222790Y-129268847D02*
X135341838Y-129268847D01*
X135294219Y-129387895D02*
X135341838Y-129268847D01*
X135294219Y-129149800D01*
X135437076Y-129340276D02*
X135341838Y-129268847D01*
X135437076Y-129197419D01*
X121117790Y-116236866D02*
X120879695Y-116403533D01*
X121117790Y-116522580D02*
X120617790Y-116522580D01*
X120617790Y-116332104D01*
X120641600Y-116284485D01*
X120665409Y-116260676D01*
X120713028Y-116236866D01*
X120784457Y-116236866D01*
X120832076Y-116260676D01*
X120855885Y-116284485D01*
X120879695Y-116332104D01*
X120879695Y-116522580D01*
X120855885Y-116022580D02*
X120855885Y-115855914D01*
X121117790Y-115784485D02*
X121117790Y-116022580D01*
X120617790Y-116022580D01*
X120617790Y-115784485D01*
X120855885Y-115403533D02*
X120855885Y-115570200D01*
X121117790Y-115570200D02*
X120617790Y-115570200D01*
X120617790Y-115332104D01*
X120617790Y-115070200D02*
X120736838Y-115070200D01*
X120689219Y-115189247D02*
X120736838Y-115070200D01*
X120689219Y-114951152D01*
X120832076Y-115141628D02*
X120736838Y-115070200D01*
X120832076Y-114998771D01*
X120617790Y-114689247D02*
X120736838Y-114689247D01*
X120689219Y-114808295D02*
X120736838Y-114689247D01*
X120689219Y-114570200D01*
X120832076Y-114760676D02*
X120736838Y-114689247D01*
X120832076Y-114617819D01*
X134525133Y-69593790D02*
X134358466Y-69355695D01*
X134239419Y-69593790D02*
X134239419Y-69093790D01*
X134429895Y-69093790D01*
X134477514Y-69117600D01*
X134501323Y-69141409D01*
X134525133Y-69189028D01*
X134525133Y-69260457D01*
X134501323Y-69308076D01*
X134477514Y-69331885D01*
X134429895Y-69355695D01*
X134239419Y-69355695D01*
X134739419Y-69331885D02*
X134906085Y-69331885D01*
X134977514Y-69593790D02*
X134739419Y-69593790D01*
X134739419Y-69093790D01*
X134977514Y-69093790D01*
X135358466Y-69331885D02*
X135191800Y-69331885D01*
X135191800Y-69593790D02*
X135191800Y-69093790D01*
X135429895Y-69093790D01*
X135691800Y-69093790D02*
X135691800Y-69212838D01*
X135572752Y-69165219D02*
X135691800Y-69212838D01*
X135810847Y-69165219D01*
X135620371Y-69308076D02*
X135691800Y-69212838D01*
X135763228Y-69308076D01*
X136072752Y-69093790D02*
X136072752Y-69212838D01*
X135953704Y-69165219D02*
X136072752Y-69212838D01*
X136191800Y-69165219D01*
X136001323Y-69308076D02*
X136072752Y-69212838D01*
X136144180Y-69308076D01*
G04 #@! TO.C,C112*
X172082625Y-121375312D02*
X172082625Y-121408983D01*
X172048954Y-121476327D01*
X172015282Y-121509999D01*
X171947938Y-121543670D01*
X171880595Y-121543670D01*
X171830087Y-121526835D01*
X171745908Y-121476327D01*
X171695400Y-121425819D01*
X171644893Y-121341640D01*
X171628057Y-121291132D01*
X171628057Y-121223789D01*
X171661729Y-121156445D01*
X171695400Y-121122774D01*
X171762744Y-121089102D01*
X171796416Y-121089102D01*
X172453015Y-121072266D02*
X172250984Y-121274296D01*
X172352000Y-121173281D02*
X171998446Y-120819728D01*
X172015282Y-120903907D01*
X172015282Y-120971251D01*
X171998446Y-121021758D01*
X172789732Y-120735548D02*
X172587702Y-120937579D01*
X172688717Y-120836564D02*
X172335164Y-120483010D01*
X172352000Y-120567190D01*
X172352000Y-120634533D01*
X172335164Y-120685041D01*
X172604538Y-120280980D02*
X172604538Y-120247308D01*
X172621374Y-120196800D01*
X172705553Y-120112621D01*
X172756061Y-120095785D01*
X172789732Y-120095785D01*
X172840240Y-120112621D01*
X172873912Y-120146293D01*
X172907583Y-120213636D01*
X172907583Y-120617697D01*
X173126450Y-120398831D01*
G04 #@! TO.C,C111*
X170685625Y-122823112D02*
X170685625Y-122856783D01*
X170651954Y-122924127D01*
X170618282Y-122957799D01*
X170550938Y-122991470D01*
X170483595Y-122991470D01*
X170433087Y-122974635D01*
X170348908Y-122924127D01*
X170298400Y-122873619D01*
X170247893Y-122789440D01*
X170231057Y-122738932D01*
X170231057Y-122671589D01*
X170264729Y-122604245D01*
X170298400Y-122570574D01*
X170365744Y-122536902D01*
X170399416Y-122536902D01*
X171056015Y-122520066D02*
X170853984Y-122722096D01*
X170955000Y-122621081D02*
X170601446Y-122267528D01*
X170618282Y-122351707D01*
X170618282Y-122419051D01*
X170601446Y-122469558D01*
X171392732Y-122183348D02*
X171190702Y-122385379D01*
X171291717Y-122284364D02*
X170938164Y-121930810D01*
X170955000Y-122014990D01*
X170955000Y-122082333D01*
X170938164Y-122132841D01*
X171729450Y-121846631D02*
X171527419Y-122048661D01*
X171628435Y-121947646D02*
X171274881Y-121594093D01*
X171291717Y-121678272D01*
X171291717Y-121745616D01*
X171274881Y-121796123D01*
G04 #@! TO.C,C135*
X134786002Y-74900310D02*
X134752331Y-74900310D01*
X134684987Y-74866639D01*
X134651315Y-74832967D01*
X134617644Y-74765623D01*
X134617644Y-74698280D01*
X134634479Y-74647772D01*
X134684987Y-74563593D01*
X134735495Y-74513085D01*
X134819674Y-74462578D01*
X134870182Y-74445742D01*
X134937525Y-74445742D01*
X135004869Y-74479414D01*
X135038540Y-74513085D01*
X135072212Y-74580429D01*
X135072212Y-74614101D01*
X135089048Y-75270700D02*
X134887018Y-75068669D01*
X134988033Y-75169685D02*
X135341586Y-74816131D01*
X135257407Y-74832967D01*
X135190063Y-74832967D01*
X135139556Y-74816131D01*
X135560453Y-75034997D02*
X135779319Y-75253864D01*
X135526781Y-75270700D01*
X135577289Y-75321207D01*
X135594124Y-75371715D01*
X135594124Y-75405387D01*
X135577289Y-75455894D01*
X135493109Y-75540074D01*
X135442602Y-75556910D01*
X135408930Y-75556910D01*
X135358422Y-75540074D01*
X135257407Y-75439059D01*
X135240571Y-75388551D01*
X135240571Y-75354879D01*
X136099201Y-75573746D02*
X135930842Y-75405387D01*
X135745647Y-75556910D01*
X135779319Y-75556910D01*
X135829827Y-75573746D01*
X135914006Y-75657925D01*
X135930842Y-75708433D01*
X135930842Y-75742104D01*
X135914006Y-75792612D01*
X135829827Y-75876791D01*
X135779319Y-75893627D01*
X135745647Y-75893627D01*
X135695140Y-75876791D01*
X135610960Y-75792612D01*
X135594124Y-75742104D01*
X135594124Y-75708433D01*
G04 #@! TO.C,C136*
X141628025Y-84443712D02*
X141628025Y-84477383D01*
X141594354Y-84544727D01*
X141560682Y-84578399D01*
X141493338Y-84612070D01*
X141425995Y-84612070D01*
X141375487Y-84595235D01*
X141291308Y-84544727D01*
X141240800Y-84494219D01*
X141190293Y-84410040D01*
X141173457Y-84359532D01*
X141173457Y-84292189D01*
X141207129Y-84224845D01*
X141240800Y-84191174D01*
X141308144Y-84157502D01*
X141341816Y-84157502D01*
X141998415Y-84140666D02*
X141796384Y-84342696D01*
X141897400Y-84241681D02*
X141543846Y-83888128D01*
X141560682Y-83972307D01*
X141560682Y-84039651D01*
X141543846Y-84090158D01*
X141762712Y-83669261D02*
X141981579Y-83450395D01*
X141998415Y-83702933D01*
X142048922Y-83652425D01*
X142099430Y-83635590D01*
X142133102Y-83635590D01*
X142183609Y-83652425D01*
X142267789Y-83736605D01*
X142284625Y-83787112D01*
X142284625Y-83820784D01*
X142267789Y-83871292D01*
X142166774Y-83972307D01*
X142116266Y-83989143D01*
X142082594Y-83989143D01*
X142284625Y-83147349D02*
X142217281Y-83214693D01*
X142200445Y-83265200D01*
X142200445Y-83298872D01*
X142217281Y-83383051D01*
X142267789Y-83467231D01*
X142402476Y-83601918D01*
X142452983Y-83618754D01*
X142486655Y-83618754D01*
X142537163Y-83601918D01*
X142604506Y-83534574D01*
X142621342Y-83484067D01*
X142621342Y-83450395D01*
X142604506Y-83399887D01*
X142520327Y-83315708D01*
X142469819Y-83298872D01*
X142436148Y-83298872D01*
X142385640Y-83315708D01*
X142318296Y-83383051D01*
X142301461Y-83433559D01*
X142301461Y-83467231D01*
X142318296Y-83517738D01*
G04 #@! TO.C,U2*
X149619047Y-120786190D02*
X149619047Y-121190952D01*
X149642857Y-121238571D01*
X149666666Y-121262380D01*
X149714285Y-121286190D01*
X149809523Y-121286190D01*
X149857142Y-121262380D01*
X149880952Y-121238571D01*
X149904761Y-121190952D01*
X149904761Y-120786190D01*
X150119047Y-120833809D02*
X150142857Y-120810000D01*
X150190476Y-120786190D01*
X150309523Y-120786190D01*
X150357142Y-120810000D01*
X150380952Y-120833809D01*
X150404761Y-120881428D01*
X150404761Y-120929047D01*
X150380952Y-121000476D01*
X150095238Y-121286190D01*
X150404761Y-121286190D01*
G04 #@! TO.C,U3*
X128666190Y-100380952D02*
X129070952Y-100380952D01*
X129118571Y-100357142D01*
X129142380Y-100333333D01*
X129166190Y-100285714D01*
X129166190Y-100190476D01*
X129142380Y-100142857D01*
X129118571Y-100119047D01*
X129070952Y-100095238D01*
X128666190Y-100095238D01*
X128666190Y-99904761D02*
X128666190Y-99595238D01*
X128856666Y-99761904D01*
X128856666Y-99690476D01*
X128880476Y-99642857D01*
X128904285Y-99619047D01*
X128951904Y-99595238D01*
X129070952Y-99595238D01*
X129118571Y-99619047D01*
X129142380Y-99642857D01*
X129166190Y-99690476D01*
X129166190Y-99833333D01*
X129142380Y-99880952D01*
X129118571Y-99904761D01*
G04 #@! TO.C,U4*
X149619047Y-78666190D02*
X149619047Y-79070952D01*
X149642857Y-79118571D01*
X149666666Y-79142380D01*
X149714285Y-79166190D01*
X149809523Y-79166190D01*
X149857142Y-79142380D01*
X149880952Y-79118571D01*
X149904761Y-79070952D01*
X149904761Y-78666190D01*
X150357142Y-78832857D02*
X150357142Y-79166190D01*
X150238095Y-78642380D02*
X150119047Y-78999523D01*
X150428571Y-78999523D01*
G04 #@! TO.C,Y2*
X134692278Y-109223640D02*
X134523919Y-109391999D01*
X134759621Y-108920594D02*
X134692278Y-109223640D01*
X134995323Y-109156296D01*
X135062667Y-109290983D02*
X135096339Y-109290983D01*
X135146846Y-109307819D01*
X135231026Y-109391999D01*
X135247862Y-109442506D01*
X135247862Y-109476178D01*
X135231026Y-109526686D01*
X135197354Y-109560357D01*
X135130010Y-109594029D01*
X134725949Y-109594029D01*
X134944816Y-109812895D01*
G04 #@! TO.C,C86*
X157698246Y-92405984D02*
X157664574Y-92405984D01*
X157597231Y-92372312D01*
X157563559Y-92338641D01*
X157529887Y-92271297D01*
X157529887Y-92203954D01*
X157546723Y-92153446D01*
X157597231Y-92069267D01*
X157647738Y-92018759D01*
X157731918Y-91968251D01*
X157782425Y-91951416D01*
X157849769Y-91951416D01*
X157917112Y-91985087D01*
X157950784Y-92018759D01*
X157984456Y-92086103D01*
X157984456Y-92119774D01*
X158068635Y-92439656D02*
X158051800Y-92389148D01*
X158051800Y-92355477D01*
X158068635Y-92304969D01*
X158085471Y-92288133D01*
X158135979Y-92271297D01*
X158169651Y-92271297D01*
X158220158Y-92288133D01*
X158287502Y-92355477D01*
X158304338Y-92405984D01*
X158304338Y-92439656D01*
X158287502Y-92490164D01*
X158270666Y-92507000D01*
X158220158Y-92523835D01*
X158186487Y-92523835D01*
X158135979Y-92507000D01*
X158068635Y-92439656D01*
X158018128Y-92422820D01*
X157984456Y-92422820D01*
X157933948Y-92439656D01*
X157866605Y-92507000D01*
X157849769Y-92557507D01*
X157849769Y-92591179D01*
X157866605Y-92641687D01*
X157933948Y-92709030D01*
X157984456Y-92725866D01*
X158018128Y-92725866D01*
X158068635Y-92709030D01*
X158135979Y-92641687D01*
X158152815Y-92591179D01*
X158152815Y-92557507D01*
X158135979Y-92507000D01*
X158657891Y-92725866D02*
X158590548Y-92658522D01*
X158540040Y-92641687D01*
X158506368Y-92641687D01*
X158422189Y-92658522D01*
X158338009Y-92709030D01*
X158203322Y-92843717D01*
X158186487Y-92894225D01*
X158186487Y-92927896D01*
X158203322Y-92978404D01*
X158270666Y-93045748D01*
X158321174Y-93062583D01*
X158354845Y-93062583D01*
X158405353Y-93045748D01*
X158489532Y-92961568D01*
X158506368Y-92911061D01*
X158506368Y-92877389D01*
X158489532Y-92826881D01*
X158422189Y-92759538D01*
X158371681Y-92742702D01*
X158338009Y-92742702D01*
X158287502Y-92759538D01*
G04 #@! TO.C,C85*
X159384832Y-85578270D02*
X159384832Y-85611942D01*
X159351160Y-85679285D01*
X159317489Y-85712957D01*
X159250145Y-85746629D01*
X159182802Y-85746629D01*
X159132294Y-85729793D01*
X159048115Y-85679285D01*
X158997607Y-85628778D01*
X158947099Y-85544598D01*
X158930264Y-85494091D01*
X158930264Y-85426747D01*
X158963935Y-85359404D01*
X158997607Y-85325732D01*
X159064951Y-85292060D01*
X159098622Y-85292060D01*
X159418504Y-85207881D02*
X159367996Y-85224717D01*
X159334325Y-85224717D01*
X159283817Y-85207881D01*
X159266981Y-85191045D01*
X159250145Y-85140537D01*
X159250145Y-85106865D01*
X159266981Y-85056358D01*
X159334325Y-84989014D01*
X159384832Y-84972178D01*
X159418504Y-84972178D01*
X159469012Y-84989014D01*
X159485848Y-85005850D01*
X159502683Y-85056358D01*
X159502683Y-85090029D01*
X159485848Y-85140537D01*
X159418504Y-85207881D01*
X159401668Y-85258388D01*
X159401668Y-85292060D01*
X159418504Y-85342568D01*
X159485848Y-85409911D01*
X159536355Y-85426747D01*
X159570027Y-85426747D01*
X159620535Y-85409911D01*
X159687878Y-85342568D01*
X159704714Y-85292060D01*
X159704714Y-85258388D01*
X159687878Y-85207881D01*
X159620535Y-85140537D01*
X159570027Y-85123701D01*
X159536355Y-85123701D01*
X159485848Y-85140537D01*
X159721550Y-84601789D02*
X159553191Y-84770148D01*
X159704714Y-84955342D01*
X159704714Y-84921671D01*
X159721550Y-84871163D01*
X159805729Y-84786984D01*
X159856237Y-84770148D01*
X159889909Y-84770148D01*
X159940416Y-84786984D01*
X160024596Y-84871163D01*
X160041431Y-84921671D01*
X160041431Y-84955342D01*
X160024596Y-85005850D01*
X159940416Y-85090029D01*
X159889909Y-85106865D01*
X159856237Y-85106865D01*
G04 #@! TO.C,U5*
X161856013Y-90982561D02*
X162142223Y-91268771D01*
X162192730Y-91285607D01*
X162226402Y-91285607D01*
X162276910Y-91268771D01*
X162344253Y-91201427D01*
X162361089Y-91150920D01*
X162361089Y-91117248D01*
X162344253Y-91066740D01*
X162058043Y-90780530D01*
X162394761Y-90443813D02*
X162226402Y-90612172D01*
X162377925Y-90797366D01*
X162377925Y-90763695D01*
X162394761Y-90713187D01*
X162478940Y-90629008D01*
X162529448Y-90612172D01*
X162563120Y-90612172D01*
X162613627Y-90629008D01*
X162697807Y-90713187D01*
X162714643Y-90763695D01*
X162714643Y-90797366D01*
X162697807Y-90847874D01*
X162613627Y-90932053D01*
X162563120Y-90948889D01*
X162529448Y-90948889D01*
G04 #@! TO.C,C109*
X162684625Y-113171112D02*
X162684625Y-113204783D01*
X162650954Y-113272127D01*
X162617282Y-113305799D01*
X162549938Y-113339470D01*
X162482595Y-113339470D01*
X162432087Y-113322635D01*
X162347908Y-113272127D01*
X162297400Y-113221619D01*
X162246893Y-113137440D01*
X162230057Y-113086932D01*
X162230057Y-113019589D01*
X162263729Y-112952245D01*
X162297400Y-112918574D01*
X162364744Y-112884902D01*
X162398416Y-112884902D01*
X163055015Y-112868066D02*
X162852984Y-113070096D01*
X162954000Y-112969081D02*
X162600446Y-112615528D01*
X162617282Y-112699707D01*
X162617282Y-112767051D01*
X162600446Y-112817558D01*
X162920328Y-112295646D02*
X162954000Y-112261974D01*
X163004507Y-112245138D01*
X163038179Y-112245138D01*
X163088687Y-112261974D01*
X163172866Y-112312482D01*
X163257045Y-112396661D01*
X163307553Y-112480841D01*
X163324389Y-112531348D01*
X163324389Y-112565020D01*
X163307553Y-112615528D01*
X163273881Y-112649200D01*
X163223374Y-112666035D01*
X163189702Y-112666035D01*
X163139194Y-112649200D01*
X163055015Y-112598692D01*
X162970835Y-112514512D01*
X162920328Y-112430333D01*
X162903492Y-112379825D01*
X162903492Y-112346154D01*
X162920328Y-112295646D01*
X163560091Y-112362990D02*
X163627435Y-112295646D01*
X163644270Y-112245138D01*
X163644270Y-112211467D01*
X163627435Y-112127287D01*
X163576927Y-112043108D01*
X163442240Y-111908421D01*
X163391732Y-111891585D01*
X163358061Y-111891585D01*
X163307553Y-111908421D01*
X163240209Y-111975764D01*
X163223374Y-112026272D01*
X163223374Y-112059944D01*
X163240209Y-112110451D01*
X163324389Y-112194631D01*
X163374896Y-112211467D01*
X163408568Y-112211467D01*
X163459076Y-112194631D01*
X163526419Y-112127287D01*
X163543255Y-112076780D01*
X163543255Y-112043108D01*
X163526419Y-111992600D01*
G04 #@! TO.C,C110*
X155396287Y-108442825D02*
X155362616Y-108442825D01*
X155295272Y-108409154D01*
X155261600Y-108375482D01*
X155227929Y-108308138D01*
X155227929Y-108240795D01*
X155244764Y-108190287D01*
X155295272Y-108106108D01*
X155345780Y-108055600D01*
X155429959Y-108005093D01*
X155480467Y-107988257D01*
X155547810Y-107988257D01*
X155615154Y-108021929D01*
X155648825Y-108055600D01*
X155682497Y-108122944D01*
X155682497Y-108156616D01*
X155699333Y-108813215D02*
X155497303Y-108611184D01*
X155598318Y-108712200D02*
X155951871Y-108358646D01*
X155867692Y-108375482D01*
X155800348Y-108375482D01*
X155749841Y-108358646D01*
X156036051Y-109149932D02*
X155834020Y-108947902D01*
X155935035Y-109048917D02*
X156288589Y-108695364D01*
X156204409Y-108712200D01*
X156137066Y-108712200D01*
X156086558Y-108695364D01*
X156608470Y-109015245D02*
X156642142Y-109048917D01*
X156658978Y-109099425D01*
X156658978Y-109133096D01*
X156642142Y-109183604D01*
X156591635Y-109267783D01*
X156507455Y-109351963D01*
X156423276Y-109402470D01*
X156372768Y-109419306D01*
X156339096Y-109419306D01*
X156288589Y-109402470D01*
X156254917Y-109368799D01*
X156238081Y-109318291D01*
X156238081Y-109284619D01*
X156254917Y-109234112D01*
X156305425Y-109149932D01*
X156389604Y-109065753D01*
X156473783Y-109015245D01*
X156524291Y-108998409D01*
X156557963Y-108998409D01*
X156608470Y-109015245D01*
G04 #@! TO.C,U10*
X158010879Y-111154254D02*
X157724669Y-111440464D01*
X157707834Y-111490972D01*
X157707834Y-111524643D01*
X157724669Y-111575151D01*
X157792013Y-111642495D01*
X157842521Y-111659330D01*
X157876192Y-111659330D01*
X157926700Y-111642495D01*
X158212910Y-111356285D01*
X158212910Y-112063391D02*
X158010879Y-111861361D01*
X158111895Y-111962376D02*
X158465448Y-111608823D01*
X158381269Y-111625659D01*
X158313925Y-111625659D01*
X158263417Y-111608823D01*
X158785330Y-111928704D02*
X158819001Y-111962376D01*
X158835837Y-112012884D01*
X158835837Y-112046556D01*
X158819001Y-112097063D01*
X158768494Y-112181243D01*
X158684314Y-112265422D01*
X158600135Y-112315930D01*
X158549627Y-112332765D01*
X158515956Y-112332765D01*
X158465448Y-112315930D01*
X158431776Y-112282258D01*
X158414940Y-112231750D01*
X158414940Y-112198078D01*
X158431776Y-112147571D01*
X158482284Y-112063391D01*
X158566463Y-111979212D01*
X158650643Y-111928704D01*
X158701150Y-111911869D01*
X158734822Y-111911869D01*
X158785330Y-111928704D01*
G04 #@! TO.C,C88*
X158399379Y-105924720D02*
X158365707Y-105924720D01*
X158298364Y-105891048D01*
X158264692Y-105857377D01*
X158231020Y-105790033D01*
X158231020Y-105722690D01*
X158247856Y-105672182D01*
X158298364Y-105588003D01*
X158348871Y-105537495D01*
X158433051Y-105486987D01*
X158483558Y-105470152D01*
X158550902Y-105470152D01*
X158618245Y-105503823D01*
X158651917Y-105537495D01*
X158685589Y-105604839D01*
X158685589Y-105638510D01*
X158769768Y-105958392D02*
X158752933Y-105907884D01*
X158752933Y-105874213D01*
X158769768Y-105823705D01*
X158786604Y-105806869D01*
X158837112Y-105790033D01*
X158870784Y-105790033D01*
X158921291Y-105806869D01*
X158988635Y-105874213D01*
X159005471Y-105924720D01*
X159005471Y-105958392D01*
X158988635Y-106008900D01*
X158971799Y-106025736D01*
X158921291Y-106042571D01*
X158887620Y-106042571D01*
X158837112Y-106025736D01*
X158769768Y-105958392D01*
X158719261Y-105941556D01*
X158685589Y-105941556D01*
X158635081Y-105958392D01*
X158567738Y-106025736D01*
X158550902Y-106076243D01*
X158550902Y-106109915D01*
X158567738Y-106160423D01*
X158635081Y-106227766D01*
X158685589Y-106244602D01*
X158719261Y-106244602D01*
X158769768Y-106227766D01*
X158837112Y-106160423D01*
X158853948Y-106109915D01*
X158853948Y-106076243D01*
X158837112Y-106025736D01*
X159106486Y-106295110D02*
X159089650Y-106244602D01*
X159089650Y-106210930D01*
X159106486Y-106160423D01*
X159123322Y-106143587D01*
X159173829Y-106126751D01*
X159207501Y-106126751D01*
X159258009Y-106143587D01*
X159325352Y-106210930D01*
X159342188Y-106261438D01*
X159342188Y-106295110D01*
X159325352Y-106345617D01*
X159308516Y-106362453D01*
X159258009Y-106379289D01*
X159224337Y-106379289D01*
X159173829Y-106362453D01*
X159106486Y-106295110D01*
X159055978Y-106278274D01*
X159022307Y-106278274D01*
X158971799Y-106295110D01*
X158904455Y-106362453D01*
X158887620Y-106412961D01*
X158887620Y-106446632D01*
X158904455Y-106497140D01*
X158971799Y-106564484D01*
X159022307Y-106581319D01*
X159055978Y-106581319D01*
X159106486Y-106564484D01*
X159173829Y-106497140D01*
X159190665Y-106446632D01*
X159190665Y-106412961D01*
X159173829Y-106362453D01*
G04 #@! TO.C,U11*
X166727523Y-117610451D02*
X167013733Y-117896661D01*
X167064241Y-117913496D01*
X167097912Y-117913496D01*
X167148420Y-117896661D01*
X167215764Y-117829317D01*
X167232599Y-117778809D01*
X167232599Y-117745138D01*
X167215764Y-117694630D01*
X166929554Y-117408420D01*
X167636660Y-117408420D02*
X167434630Y-117610451D01*
X167535645Y-117509435D02*
X167182092Y-117155882D01*
X167198928Y-117240061D01*
X167198928Y-117307405D01*
X167182092Y-117357913D01*
X167973378Y-117071703D02*
X167771347Y-117273733D01*
X167872363Y-117172718D02*
X167518809Y-116819165D01*
X167535645Y-116903344D01*
X167535645Y-116970687D01*
X167518809Y-117021195D01*
G04 #@! TO.C,C123*
X143914025Y-110326312D02*
X143914025Y-110359983D01*
X143880354Y-110427327D01*
X143846682Y-110460999D01*
X143779338Y-110494670D01*
X143711995Y-110494670D01*
X143661487Y-110477835D01*
X143577308Y-110427327D01*
X143526800Y-110376819D01*
X143476293Y-110292640D01*
X143459457Y-110242132D01*
X143459457Y-110174789D01*
X143493129Y-110107445D01*
X143526800Y-110073774D01*
X143594144Y-110040102D01*
X143627816Y-110040102D01*
X144284415Y-110023266D02*
X144082384Y-110225296D01*
X144183400Y-110124281D02*
X143829846Y-109770728D01*
X143846682Y-109854907D01*
X143846682Y-109922251D01*
X143829846Y-109972758D01*
X144099220Y-109568697D02*
X144099220Y-109535025D01*
X144116056Y-109484518D01*
X144200235Y-109400338D01*
X144250743Y-109383503D01*
X144284415Y-109383503D01*
X144334922Y-109400338D01*
X144368594Y-109434010D01*
X144402266Y-109501354D01*
X144402266Y-109905415D01*
X144621132Y-109686548D01*
X144385430Y-109215144D02*
X144604296Y-108996277D01*
X144621132Y-109248816D01*
X144671640Y-109198308D01*
X144722148Y-109181472D01*
X144755819Y-109181472D01*
X144806327Y-109198308D01*
X144890506Y-109282487D01*
X144907342Y-109332995D01*
X144907342Y-109366667D01*
X144890506Y-109417174D01*
X144789491Y-109518190D01*
X144738983Y-109535025D01*
X144705312Y-109535025D01*
G04 #@! TO.C,C124*
X143025024Y-109589712D02*
X143025024Y-109623383D01*
X142991353Y-109690727D01*
X142957681Y-109724399D01*
X142890337Y-109758070D01*
X142822994Y-109758070D01*
X142772486Y-109741235D01*
X142688307Y-109690727D01*
X142637799Y-109640219D01*
X142587292Y-109556040D01*
X142570456Y-109505532D01*
X142570456Y-109438189D01*
X142604128Y-109370845D01*
X142637799Y-109337174D01*
X142705143Y-109303502D01*
X142738815Y-109303502D01*
X143395414Y-109286666D02*
X143193383Y-109488696D01*
X143294399Y-109387681D02*
X142940845Y-109034128D01*
X142957681Y-109118307D01*
X142957681Y-109185651D01*
X142940845Y-109236158D01*
X143210219Y-108832097D02*
X143210219Y-108798425D01*
X143227055Y-108747918D01*
X143311234Y-108663738D01*
X143361742Y-108646903D01*
X143395414Y-108646903D01*
X143445921Y-108663738D01*
X143479593Y-108697410D01*
X143513265Y-108764754D01*
X143513265Y-109168815D01*
X143732131Y-108949948D01*
X143799475Y-108411200D02*
X144035177Y-108646903D01*
X143580608Y-108360693D02*
X143748967Y-108697410D01*
X143967834Y-108478544D01*
G04 #@! TO.C,C125*
X141348625Y-117082712D02*
X141348625Y-117116383D01*
X141314954Y-117183727D01*
X141281282Y-117217399D01*
X141213938Y-117251070D01*
X141146595Y-117251070D01*
X141096087Y-117234235D01*
X141011908Y-117183727D01*
X140961400Y-117133219D01*
X140910893Y-117049040D01*
X140894057Y-116998532D01*
X140894057Y-116931189D01*
X140927729Y-116863845D01*
X140961400Y-116830174D01*
X141028744Y-116796502D01*
X141062416Y-116796502D01*
X141719015Y-116779666D02*
X141516984Y-116981696D01*
X141618000Y-116880681D02*
X141264446Y-116527128D01*
X141281282Y-116611307D01*
X141281282Y-116678651D01*
X141264446Y-116729158D01*
X141533820Y-116325097D02*
X141533820Y-116291425D01*
X141550656Y-116240918D01*
X141634835Y-116156738D01*
X141685343Y-116139903D01*
X141719015Y-116139903D01*
X141769522Y-116156738D01*
X141803194Y-116190410D01*
X141836866Y-116257754D01*
X141836866Y-116661815D01*
X142055732Y-116442948D01*
X142022061Y-115769513D02*
X141853702Y-115937872D01*
X142005225Y-116123067D01*
X142005225Y-116089395D01*
X142022061Y-116038887D01*
X142106240Y-115954708D01*
X142156748Y-115937872D01*
X142190419Y-115937872D01*
X142240927Y-115954708D01*
X142325106Y-116038887D01*
X142341942Y-116089395D01*
X142341942Y-116123067D01*
X142325106Y-116173574D01*
X142240927Y-116257754D01*
X142190419Y-116274590D01*
X142156748Y-116274590D01*
G04 #@! TO.C,C126*
X131240887Y-107960225D02*
X131207216Y-107960225D01*
X131139872Y-107926554D01*
X131106200Y-107892882D01*
X131072529Y-107825538D01*
X131072529Y-107758195D01*
X131089364Y-107707687D01*
X131139872Y-107623508D01*
X131190380Y-107573000D01*
X131274559Y-107522493D01*
X131325067Y-107505657D01*
X131392410Y-107505657D01*
X131459754Y-107539329D01*
X131493425Y-107573000D01*
X131527097Y-107640344D01*
X131527097Y-107674016D01*
X131543933Y-108330615D02*
X131341903Y-108128584D01*
X131442918Y-108229600D02*
X131796471Y-107876046D01*
X131712292Y-107892882D01*
X131644948Y-107892882D01*
X131594441Y-107876046D01*
X131998502Y-108145420D02*
X132032174Y-108145420D01*
X132082681Y-108162256D01*
X132166861Y-108246435D01*
X132183696Y-108296943D01*
X132183696Y-108330615D01*
X132166861Y-108381122D01*
X132133189Y-108414794D01*
X132065845Y-108448466D01*
X131661784Y-108448466D01*
X131880651Y-108667332D01*
X132537250Y-108616825D02*
X132469906Y-108549481D01*
X132419399Y-108532645D01*
X132385727Y-108532645D01*
X132301548Y-108549481D01*
X132217368Y-108599989D01*
X132082681Y-108734676D01*
X132065845Y-108785183D01*
X132065845Y-108818855D01*
X132082681Y-108869363D01*
X132150025Y-108936706D01*
X132200532Y-108953542D01*
X132234204Y-108953542D01*
X132284712Y-108936706D01*
X132368891Y-108852527D01*
X132385727Y-108802019D01*
X132385727Y-108768348D01*
X132368891Y-108717840D01*
X132301548Y-108650496D01*
X132251040Y-108633661D01*
X132217368Y-108633661D01*
X132166861Y-108650496D01*
G04 #@! TO.C,R10*
X136557174Y-107197056D02*
X136607682Y-106910846D01*
X136355144Y-106995025D02*
X136708697Y-106641472D01*
X136843384Y-106776159D01*
X136860220Y-106826667D01*
X136860220Y-106860338D01*
X136843384Y-106910846D01*
X136792877Y-106961354D01*
X136742369Y-106978190D01*
X136708697Y-106978190D01*
X136658190Y-106961354D01*
X136523503Y-106826667D01*
X136893892Y-107533774D02*
X136691861Y-107331743D01*
X136792877Y-107432758D02*
X137146430Y-107079205D01*
X137062251Y-107096041D01*
X136994907Y-107096041D01*
X136944400Y-107079205D01*
X137466312Y-107399087D02*
X137499983Y-107432758D01*
X137516819Y-107483266D01*
X137516819Y-107516938D01*
X137499983Y-107567445D01*
X137449476Y-107651625D01*
X137365296Y-107735804D01*
X137281117Y-107786312D01*
X137230609Y-107803148D01*
X137196938Y-107803148D01*
X137146430Y-107786312D01*
X137112758Y-107752640D01*
X137095922Y-107702132D01*
X137095922Y-107668461D01*
X137112758Y-107617953D01*
X137163266Y-107533774D01*
X137247445Y-107449594D01*
X137331625Y-107399087D01*
X137382132Y-107382251D01*
X137415804Y-107382251D01*
X137466312Y-107399087D01*
G04 #@! TO.C,REF\002A\002A*
X119793133Y-85798990D02*
X119626466Y-85560895D01*
X119507419Y-85798990D02*
X119507419Y-85298990D01*
X119697895Y-85298990D01*
X119745514Y-85322800D01*
X119769323Y-85346609D01*
X119793133Y-85394228D01*
X119793133Y-85465657D01*
X119769323Y-85513276D01*
X119745514Y-85537085D01*
X119697895Y-85560895D01*
X119507419Y-85560895D01*
X120007419Y-85537085D02*
X120174085Y-85537085D01*
X120245514Y-85798990D02*
X120007419Y-85798990D01*
X120007419Y-85298990D01*
X120245514Y-85298990D01*
X120626466Y-85537085D02*
X120459800Y-85537085D01*
X120459800Y-85798990D02*
X120459800Y-85298990D01*
X120697895Y-85298990D01*
X120959800Y-85298990D02*
X120959800Y-85418038D01*
X120840752Y-85370419D02*
X120959800Y-85418038D01*
X121078847Y-85370419D01*
X120888371Y-85513276D02*
X120959800Y-85418038D01*
X121031228Y-85513276D01*
X121340752Y-85298990D02*
X121340752Y-85418038D01*
X121221704Y-85370419D02*
X121340752Y-85418038D01*
X121459800Y-85370419D01*
X121269323Y-85513276D02*
X121340752Y-85418038D01*
X121412180Y-85513276D01*
G04 #@! TO.C,J53*
X183825238Y-86026190D02*
X183825238Y-86383333D01*
X183801428Y-86454761D01*
X183753809Y-86502380D01*
X183682380Y-86526190D01*
X183634761Y-86526190D01*
X184301428Y-86026190D02*
X184063333Y-86026190D01*
X184039523Y-86264285D01*
X184063333Y-86240476D01*
X184110952Y-86216666D01*
X184230000Y-86216666D01*
X184277619Y-86240476D01*
X184301428Y-86264285D01*
X184325238Y-86311904D01*
X184325238Y-86430952D01*
X184301428Y-86478571D01*
X184277619Y-86502380D01*
X184230000Y-86526190D01*
X184110952Y-86526190D01*
X184063333Y-86502380D01*
X184039523Y-86478571D01*
X184491904Y-86026190D02*
X184801428Y-86026190D01*
X184634761Y-86216666D01*
X184706190Y-86216666D01*
X184753809Y-86240476D01*
X184777619Y-86264285D01*
X184801428Y-86311904D01*
X184801428Y-86430952D01*
X184777619Y-86478571D01*
X184753809Y-86502380D01*
X184706190Y-86526190D01*
X184563333Y-86526190D01*
X184515714Y-86502380D01*
X184491904Y-86478571D01*
G04 #@! TO.C,J54*
X163426190Y-134634761D02*
X163783333Y-134634761D01*
X163854761Y-134658571D01*
X163902380Y-134706190D01*
X163926190Y-134777619D01*
X163926190Y-134825238D01*
X163426190Y-134158571D02*
X163426190Y-134396666D01*
X163664285Y-134420476D01*
X163640476Y-134396666D01*
X163616666Y-134349047D01*
X163616666Y-134230000D01*
X163640476Y-134182380D01*
X163664285Y-134158571D01*
X163711904Y-134134761D01*
X163830952Y-134134761D01*
X163878571Y-134158571D01*
X163902380Y-134182380D01*
X163926190Y-134230000D01*
X163926190Y-134349047D01*
X163902380Y-134396666D01*
X163878571Y-134420476D01*
X163592857Y-133706190D02*
X163926190Y-133706190D01*
X163402380Y-133825238D02*
X163759523Y-133944285D01*
X163759523Y-133634761D01*
G04 #@! TO.C,J55*
X115365238Y-113426190D02*
X115365238Y-113783333D01*
X115341428Y-113854761D01*
X115293809Y-113902380D01*
X115222380Y-113926190D01*
X115174761Y-113926190D01*
X115841428Y-113426190D02*
X115603333Y-113426190D01*
X115579523Y-113664285D01*
X115603333Y-113640476D01*
X115650952Y-113616666D01*
X115770000Y-113616666D01*
X115817619Y-113640476D01*
X115841428Y-113664285D01*
X115865238Y-113711904D01*
X115865238Y-113830952D01*
X115841428Y-113878571D01*
X115817619Y-113902380D01*
X115770000Y-113926190D01*
X115650952Y-113926190D01*
X115603333Y-113902380D01*
X115579523Y-113878571D01*
X116317619Y-113426190D02*
X116079523Y-113426190D01*
X116055714Y-113664285D01*
X116079523Y-113640476D01*
X116127142Y-113616666D01*
X116246190Y-113616666D01*
X116293809Y-113640476D01*
X116317619Y-113664285D01*
X116341428Y-113711904D01*
X116341428Y-113830952D01*
X116317619Y-113878571D01*
X116293809Y-113902380D01*
X116246190Y-113926190D01*
X116127142Y-113926190D01*
X116079523Y-113902380D01*
X116055714Y-113878571D01*
G04 #@! TO.C,J56*
X136026190Y-66174761D02*
X136383333Y-66174761D01*
X136454761Y-66198571D01*
X136502380Y-66246190D01*
X136526190Y-66317619D01*
X136526190Y-66365238D01*
X136026190Y-65698571D02*
X136026190Y-65936666D01*
X136264285Y-65960476D01*
X136240476Y-65936666D01*
X136216666Y-65889047D01*
X136216666Y-65770000D01*
X136240476Y-65722380D01*
X136264285Y-65698571D01*
X136311904Y-65674761D01*
X136430952Y-65674761D01*
X136478571Y-65698571D01*
X136502380Y-65722380D01*
X136526190Y-65770000D01*
X136526190Y-65889047D01*
X136502380Y-65936666D01*
X136478571Y-65960476D01*
X136026190Y-65246190D02*
X136026190Y-65341428D01*
X136050000Y-65389047D01*
X136073809Y-65412857D01*
X136145238Y-65460476D01*
X136240476Y-65484285D01*
X136430952Y-65484285D01*
X136478571Y-65460476D01*
X136502380Y-65436666D01*
X136526190Y-65389047D01*
X136526190Y-65293809D01*
X136502380Y-65246190D01*
X136478571Y-65222380D01*
X136430952Y-65198571D01*
X136311904Y-65198571D01*
X136264285Y-65222380D01*
X136240476Y-65246190D01*
X136216666Y-65293809D01*
X136216666Y-65389047D01*
X136240476Y-65436666D01*
X136264285Y-65460476D01*
X136311904Y-65484285D01*
G04 #@! TO.C,C139*
X173668310Y-118733712D02*
X173668310Y-118767383D01*
X173634639Y-118834727D01*
X173600967Y-118868399D01*
X173533623Y-118902070D01*
X173466280Y-118902070D01*
X173415772Y-118885235D01*
X173331593Y-118834727D01*
X173281085Y-118784219D01*
X173230578Y-118700040D01*
X173213742Y-118649532D01*
X173213742Y-118582189D01*
X173247414Y-118514845D01*
X173281085Y-118481174D01*
X173348429Y-118447502D01*
X173382101Y-118447502D01*
X174038700Y-118430666D02*
X173836669Y-118632696D01*
X173937685Y-118531681D02*
X173584131Y-118178128D01*
X173600967Y-118262307D01*
X173600967Y-118329651D01*
X173584131Y-118380158D01*
X173802997Y-117959261D02*
X174021864Y-117740395D01*
X174038700Y-117992933D01*
X174089207Y-117942425D01*
X174139715Y-117925590D01*
X174173387Y-117925590D01*
X174223894Y-117942425D01*
X174308074Y-118026605D01*
X174324910Y-118077112D01*
X174324910Y-118110784D01*
X174308074Y-118161292D01*
X174207059Y-118262307D01*
X174156551Y-118279143D01*
X174122879Y-118279143D01*
X174543776Y-117925590D02*
X174611120Y-117858246D01*
X174627955Y-117807738D01*
X174627955Y-117774067D01*
X174611120Y-117689887D01*
X174560612Y-117605708D01*
X174425925Y-117471021D01*
X174375417Y-117454185D01*
X174341746Y-117454185D01*
X174291238Y-117471021D01*
X174223894Y-117538364D01*
X174207059Y-117588872D01*
X174207059Y-117622544D01*
X174223894Y-117673051D01*
X174308074Y-117757231D01*
X174358581Y-117774067D01*
X174392253Y-117774067D01*
X174442761Y-117757231D01*
X174510104Y-117689887D01*
X174526940Y-117639380D01*
X174526940Y-117605708D01*
X174510104Y-117555200D01*
G04 #@! TO.C,R108*
X168179297Y-124685583D02*
X167893087Y-124635076D01*
X167977267Y-124887614D02*
X167623713Y-124534061D01*
X167758400Y-124399374D01*
X167808908Y-124382538D01*
X167842580Y-124382538D01*
X167893087Y-124399374D01*
X167943595Y-124449881D01*
X167960431Y-124500389D01*
X167960431Y-124534061D01*
X167943595Y-124584568D01*
X167808908Y-124719255D01*
X168516015Y-124348866D02*
X168313984Y-124550896D01*
X168415000Y-124449881D02*
X168061446Y-124096328D01*
X168078282Y-124180507D01*
X168078282Y-124247851D01*
X168061446Y-124298358D01*
X168381328Y-123776446D02*
X168415000Y-123742774D01*
X168465507Y-123725938D01*
X168499179Y-123725938D01*
X168549687Y-123742774D01*
X168633866Y-123793282D01*
X168718045Y-123877461D01*
X168768553Y-123961641D01*
X168785389Y-124012148D01*
X168785389Y-124045820D01*
X168768553Y-124096328D01*
X168734881Y-124130000D01*
X168684374Y-124146835D01*
X168650702Y-124146835D01*
X168600194Y-124130000D01*
X168516015Y-124079492D01*
X168431835Y-123995312D01*
X168381328Y-123911133D01*
X168364492Y-123860625D01*
X168364492Y-123826954D01*
X168381328Y-123776446D01*
X168852732Y-123608087D02*
X168802225Y-123624923D01*
X168768553Y-123624923D01*
X168718045Y-123608087D01*
X168701209Y-123591251D01*
X168684374Y-123540744D01*
X168684374Y-123507072D01*
X168701209Y-123456564D01*
X168768553Y-123389221D01*
X168819061Y-123372385D01*
X168852732Y-123372385D01*
X168903240Y-123389221D01*
X168920076Y-123406057D01*
X168936912Y-123456564D01*
X168936912Y-123490236D01*
X168920076Y-123540744D01*
X168852732Y-123608087D01*
X168835896Y-123658595D01*
X168835896Y-123692267D01*
X168852732Y-123742774D01*
X168920076Y-123810118D01*
X168970583Y-123826954D01*
X169004255Y-123826954D01*
X169054763Y-123810118D01*
X169122106Y-123742774D01*
X169138942Y-123692267D01*
X169138942Y-123658595D01*
X169122106Y-123608087D01*
X169054763Y-123540744D01*
X169004255Y-123523908D01*
X168970583Y-123523908D01*
X168920076Y-123540744D01*
G04 #@! TO.C,SW2*
X175046300Y-120223309D02*
X175113643Y-120189637D01*
X175197823Y-120105458D01*
X175214659Y-120054950D01*
X175214659Y-120021278D01*
X175197823Y-119970771D01*
X175164151Y-119937099D01*
X175113643Y-119920263D01*
X175079972Y-119920263D01*
X175029464Y-119937099D01*
X174945285Y-119987607D01*
X174894777Y-120004443D01*
X174861105Y-120004443D01*
X174810598Y-119987607D01*
X174776926Y-119953935D01*
X174760090Y-119903427D01*
X174760090Y-119869756D01*
X174776926Y-119819248D01*
X174861105Y-119735069D01*
X174928449Y-119701397D01*
X175029464Y-119566710D02*
X175467197Y-119836084D01*
X175282002Y-119516202D01*
X175601884Y-119701397D01*
X175332510Y-119263664D01*
X175484033Y-119179485D02*
X175484033Y-119145813D01*
X175500869Y-119095305D01*
X175585048Y-119011126D01*
X175635556Y-118994290D01*
X175669227Y-118994290D01*
X175719735Y-119011126D01*
X175753407Y-119044798D01*
X175787078Y-119112141D01*
X175787078Y-119516202D01*
X176005945Y-119297336D01*
G04 #@! TO.C,J65*
X176396190Y-109929761D02*
X176753333Y-109929761D01*
X176824761Y-109953571D01*
X176872380Y-110001190D01*
X176896190Y-110072619D01*
X176896190Y-110120238D01*
X176396190Y-109477380D02*
X176396190Y-109572619D01*
X176420000Y-109620238D01*
X176443809Y-109644047D01*
X176515238Y-109691666D01*
X176610476Y-109715476D01*
X176800952Y-109715476D01*
X176848571Y-109691666D01*
X176872380Y-109667857D01*
X176896190Y-109620238D01*
X176896190Y-109525000D01*
X176872380Y-109477380D01*
X176848571Y-109453571D01*
X176800952Y-109429761D01*
X176681904Y-109429761D01*
X176634285Y-109453571D01*
X176610476Y-109477380D01*
X176586666Y-109525000D01*
X176586666Y-109620238D01*
X176610476Y-109667857D01*
X176634285Y-109691666D01*
X176681904Y-109715476D01*
X176396190Y-108977380D02*
X176396190Y-109215476D01*
X176634285Y-109239285D01*
X176610476Y-109215476D01*
X176586666Y-109167857D01*
X176586666Y-109048809D01*
X176610476Y-109001190D01*
X176634285Y-108977380D01*
X176681904Y-108953571D01*
X176800952Y-108953571D01*
X176848571Y-108977380D01*
X176872380Y-109001190D01*
X176896190Y-109048809D01*
X176896190Y-109167857D01*
X176872380Y-109215476D01*
X176848571Y-109239285D01*
G04 #@! TO.C,J69*
X176396190Y-90879761D02*
X176753333Y-90879761D01*
X176824761Y-90903571D01*
X176872380Y-90951190D01*
X176896190Y-91022619D01*
X176896190Y-91070238D01*
X176396190Y-90427380D02*
X176396190Y-90522619D01*
X176420000Y-90570238D01*
X176443809Y-90594047D01*
X176515238Y-90641666D01*
X176610476Y-90665476D01*
X176800952Y-90665476D01*
X176848571Y-90641666D01*
X176872380Y-90617857D01*
X176896190Y-90570238D01*
X176896190Y-90475000D01*
X176872380Y-90427380D01*
X176848571Y-90403571D01*
X176800952Y-90379761D01*
X176681904Y-90379761D01*
X176634285Y-90403571D01*
X176610476Y-90427380D01*
X176586666Y-90475000D01*
X176586666Y-90570238D01*
X176610476Y-90617857D01*
X176634285Y-90641666D01*
X176681904Y-90665476D01*
X176896190Y-90141666D02*
X176896190Y-90046428D01*
X176872380Y-89998809D01*
X176848571Y-89975000D01*
X176777142Y-89927380D01*
X176681904Y-89903571D01*
X176491428Y-89903571D01*
X176443809Y-89927380D01*
X176420000Y-89951190D01*
X176396190Y-89998809D01*
X176396190Y-90094047D01*
X176420000Y-90141666D01*
X176443809Y-90165476D01*
X176491428Y-90189285D01*
X176610476Y-90189285D01*
X176658095Y-90165476D01*
X176681904Y-90141666D01*
X176705714Y-90094047D01*
X176705714Y-89998809D01*
X176681904Y-89951190D01*
X176658095Y-89927380D01*
X176610476Y-89903571D01*
G04 #@! TO.C,J73*
X123056190Y-90879761D02*
X123413333Y-90879761D01*
X123484761Y-90903571D01*
X123532380Y-90951190D01*
X123556190Y-91022619D01*
X123556190Y-91070238D01*
X123056190Y-90689285D02*
X123056190Y-90355952D01*
X123556190Y-90570238D01*
X123056190Y-90213095D02*
X123056190Y-89903571D01*
X123246666Y-90070238D01*
X123246666Y-89998809D01*
X123270476Y-89951190D01*
X123294285Y-89927380D01*
X123341904Y-89903571D01*
X123460952Y-89903571D01*
X123508571Y-89927380D01*
X123532380Y-89951190D01*
X123556190Y-89998809D01*
X123556190Y-90141666D01*
X123532380Y-90189285D01*
X123508571Y-90213095D01*
G04 #@! TO.C,J78*
X140070238Y-126396190D02*
X140070238Y-126753333D01*
X140046428Y-126824761D01*
X139998809Y-126872380D01*
X139927380Y-126896190D01*
X139879761Y-126896190D01*
X140260714Y-126396190D02*
X140594047Y-126396190D01*
X140379761Y-126896190D01*
X140855952Y-126610476D02*
X140808333Y-126586666D01*
X140784523Y-126562857D01*
X140760714Y-126515238D01*
X140760714Y-126491428D01*
X140784523Y-126443809D01*
X140808333Y-126420000D01*
X140855952Y-126396190D01*
X140951190Y-126396190D01*
X140998809Y-126420000D01*
X141022619Y-126443809D01*
X141046428Y-126491428D01*
X141046428Y-126515238D01*
X141022619Y-126562857D01*
X140998809Y-126586666D01*
X140951190Y-126610476D01*
X140855952Y-126610476D01*
X140808333Y-126634285D01*
X140784523Y-126658095D01*
X140760714Y-126705714D01*
X140760714Y-126800952D01*
X140784523Y-126848571D01*
X140808333Y-126872380D01*
X140855952Y-126896190D01*
X140951190Y-126896190D01*
X140998809Y-126872380D01*
X141022619Y-126848571D01*
X141046428Y-126800952D01*
X141046428Y-126705714D01*
X141022619Y-126658095D01*
X140998809Y-126634285D01*
X140951190Y-126610476D01*
G04 #@! TO.C,J79*
X123056190Y-109929761D02*
X123413333Y-109929761D01*
X123484761Y-109953571D01*
X123532380Y-110001190D01*
X123556190Y-110072619D01*
X123556190Y-110120238D01*
X123056190Y-109739285D02*
X123056190Y-109405952D01*
X123556190Y-109620238D01*
X123556190Y-109191666D02*
X123556190Y-109096428D01*
X123532380Y-109048809D01*
X123508571Y-109025000D01*
X123437142Y-108977380D01*
X123341904Y-108953571D01*
X123151428Y-108953571D01*
X123103809Y-108977380D01*
X123080000Y-109001190D01*
X123056190Y-109048809D01*
X123056190Y-109144047D01*
X123080000Y-109191666D01*
X123103809Y-109215476D01*
X123151428Y-109239285D01*
X123270476Y-109239285D01*
X123318095Y-109215476D01*
X123341904Y-109191666D01*
X123365714Y-109144047D01*
X123365714Y-109048809D01*
X123341904Y-109001190D01*
X123318095Y-108977380D01*
X123270476Y-108953571D01*
G04 #@! TO.C,J80*
X159120238Y-126396190D02*
X159120238Y-126753333D01*
X159096428Y-126824761D01*
X159048809Y-126872380D01*
X158977380Y-126896190D01*
X158929761Y-126896190D01*
X159429761Y-126610476D02*
X159382142Y-126586666D01*
X159358333Y-126562857D01*
X159334523Y-126515238D01*
X159334523Y-126491428D01*
X159358333Y-126443809D01*
X159382142Y-126420000D01*
X159429761Y-126396190D01*
X159525000Y-126396190D01*
X159572619Y-126420000D01*
X159596428Y-126443809D01*
X159620238Y-126491428D01*
X159620238Y-126515238D01*
X159596428Y-126562857D01*
X159572619Y-126586666D01*
X159525000Y-126610476D01*
X159429761Y-126610476D01*
X159382142Y-126634285D01*
X159358333Y-126658095D01*
X159334523Y-126705714D01*
X159334523Y-126800952D01*
X159358333Y-126848571D01*
X159382142Y-126872380D01*
X159429761Y-126896190D01*
X159525000Y-126896190D01*
X159572619Y-126872380D01*
X159596428Y-126848571D01*
X159620238Y-126800952D01*
X159620238Y-126705714D01*
X159596428Y-126658095D01*
X159572619Y-126634285D01*
X159525000Y-126610476D01*
X159929761Y-126396190D02*
X159977380Y-126396190D01*
X160025000Y-126420000D01*
X160048809Y-126443809D01*
X160072619Y-126491428D01*
X160096428Y-126586666D01*
X160096428Y-126705714D01*
X160072619Y-126800952D01*
X160048809Y-126848571D01*
X160025000Y-126872380D01*
X159977380Y-126896190D01*
X159929761Y-126896190D01*
X159882142Y-126872380D01*
X159858333Y-126848571D01*
X159834523Y-126800952D01*
X159810714Y-126705714D01*
X159810714Y-126586666D01*
X159834523Y-126491428D01*
X159858333Y-126443809D01*
X159882142Y-126420000D01*
X159929761Y-126396190D01*
G04 #@! TO.C,J81*
X159120238Y-73056190D02*
X159120238Y-73413333D01*
X159096428Y-73484761D01*
X159048809Y-73532380D01*
X158977380Y-73556190D01*
X158929761Y-73556190D01*
X159429761Y-73270476D02*
X159382142Y-73246666D01*
X159358333Y-73222857D01*
X159334523Y-73175238D01*
X159334523Y-73151428D01*
X159358333Y-73103809D01*
X159382142Y-73080000D01*
X159429761Y-73056190D01*
X159525000Y-73056190D01*
X159572619Y-73080000D01*
X159596428Y-73103809D01*
X159620238Y-73151428D01*
X159620238Y-73175238D01*
X159596428Y-73222857D01*
X159572619Y-73246666D01*
X159525000Y-73270476D01*
X159429761Y-73270476D01*
X159382142Y-73294285D01*
X159358333Y-73318095D01*
X159334523Y-73365714D01*
X159334523Y-73460952D01*
X159358333Y-73508571D01*
X159382142Y-73532380D01*
X159429761Y-73556190D01*
X159525000Y-73556190D01*
X159572619Y-73532380D01*
X159596428Y-73508571D01*
X159620238Y-73460952D01*
X159620238Y-73365714D01*
X159596428Y-73318095D01*
X159572619Y-73294285D01*
X159525000Y-73270476D01*
X160096428Y-73556190D02*
X159810714Y-73556190D01*
X159953571Y-73556190D02*
X159953571Y-73056190D01*
X159905952Y-73127619D01*
X159858333Y-73175238D01*
X159810714Y-73199047D01*
G04 #@! TO.C,J83*
X165782402Y-124285177D02*
X165529864Y-124537715D01*
X165462521Y-124571387D01*
X165395177Y-124571387D01*
X165327834Y-124537715D01*
X165294162Y-124504043D01*
X165849746Y-124655566D02*
X165832910Y-124605059D01*
X165832910Y-124571387D01*
X165849746Y-124520879D01*
X165866582Y-124504043D01*
X165917089Y-124487208D01*
X165950761Y-124487208D01*
X166001269Y-124504043D01*
X166068612Y-124571387D01*
X166085448Y-124621895D01*
X166085448Y-124655566D01*
X166068612Y-124706074D01*
X166051776Y-124722910D01*
X166001269Y-124739746D01*
X165967597Y-124739746D01*
X165917089Y-124722910D01*
X165849746Y-124655566D01*
X165799238Y-124638730D01*
X165765566Y-124638730D01*
X165715059Y-124655566D01*
X165647715Y-124722910D01*
X165630879Y-124773417D01*
X165630879Y-124807089D01*
X165647715Y-124857597D01*
X165715059Y-124924940D01*
X165765566Y-124941776D01*
X165799238Y-124941776D01*
X165849746Y-124924940D01*
X165917089Y-124857597D01*
X165933925Y-124807089D01*
X165933925Y-124773417D01*
X165917089Y-124722910D01*
X166253807Y-124756582D02*
X166472673Y-124975448D01*
X166220135Y-124992284D01*
X166270643Y-125042791D01*
X166287478Y-125093299D01*
X166287478Y-125126971D01*
X166270643Y-125177478D01*
X166186463Y-125261658D01*
X166135956Y-125278494D01*
X166102284Y-125278494D01*
X166051776Y-125261658D01*
X165950761Y-125160643D01*
X165933925Y-125110135D01*
X165933925Y-125076463D01*
G04 #@! TO.C,J85*
X140070238Y-73056190D02*
X140070238Y-73413333D01*
X140046428Y-73484761D01*
X139998809Y-73532380D01*
X139927380Y-73556190D01*
X139879761Y-73556190D01*
X140379761Y-73270476D02*
X140332142Y-73246666D01*
X140308333Y-73222857D01*
X140284523Y-73175238D01*
X140284523Y-73151428D01*
X140308333Y-73103809D01*
X140332142Y-73080000D01*
X140379761Y-73056190D01*
X140475000Y-73056190D01*
X140522619Y-73080000D01*
X140546428Y-73103809D01*
X140570238Y-73151428D01*
X140570238Y-73175238D01*
X140546428Y-73222857D01*
X140522619Y-73246666D01*
X140475000Y-73270476D01*
X140379761Y-73270476D01*
X140332142Y-73294285D01*
X140308333Y-73318095D01*
X140284523Y-73365714D01*
X140284523Y-73460952D01*
X140308333Y-73508571D01*
X140332142Y-73532380D01*
X140379761Y-73556190D01*
X140475000Y-73556190D01*
X140522619Y-73532380D01*
X140546428Y-73508571D01*
X140570238Y-73460952D01*
X140570238Y-73365714D01*
X140546428Y-73318095D01*
X140522619Y-73294285D01*
X140475000Y-73270476D01*
X141022619Y-73056190D02*
X140784523Y-73056190D01*
X140760714Y-73294285D01*
X140784523Y-73270476D01*
X140832142Y-73246666D01*
X140951190Y-73246666D01*
X140998809Y-73270476D01*
X141022619Y-73294285D01*
X141046428Y-73341904D01*
X141046428Y-73460952D01*
X141022619Y-73508571D01*
X140998809Y-73532380D01*
X140951190Y-73556190D01*
X140832142Y-73556190D01*
X140784523Y-73532380D01*
X140760714Y-73508571D01*
G04 #@! TD*
M02*
